  0
SECTION
  2
HEADER
  9
$ACADVER
  1
AC1014
  9
$ACADMAINTVER
 70
     9
  9
$DWGCODEPAGE
  3
ANSI_1252
  9
$INSBASE
 10
0.0
 20
0.0
 30
0.0
  9
$EXTMIN
 10
1.000000000000000E+20
 20
1.000000000000000E+20
 30
1.000000000000000E+20
  9
$EXTMAX
 10
-1.000000000000000E+20
 20
-1.000000000000000E+20
 30
-1.000000000000000E+20
  9
$LIMMIN
 10
0.0
 20
0.0
  9
$LIMMAX
 10
12.0
 20
9.0
  9
$ORTHOMODE
 70
     0
  9
$REGENMODE
 70
     1
  9
$FILLMODE
 70
     1
  9
$QTEXTMODE
 70
     0
  9
$MIRRTEXT
 70
     1
  9
$DRAGMODE
 70
     2
  9
$LTSCALE
 40
1.0
  9
$OSMODE
 70
    37
  9
$ATTMODE
 70
     1
  9
$TEXTSIZE
 40
0.2
  9
$TRACEWID
 40
0.05
  9
$TEXTSTYLE
  7
STANDARD
  9
$CLAYER
  8
0
  9
$CELTYPE
  6
BYLAYER
  9
$CECOLOR
 62
   256
  9
$CELTSCALE
 40
1.0
  9
$DELOBJ
 70
     1
  9
$DISPSILH
 70
     0
  9
$DIMSCALE
 40
1.0
  9
$DIMASZ
 40
0.18
  9
$DIMEXO
 40
0.0625
  9
$DIMDLI
 40
0.38
  9
$DIMRND
 40
0.0
  9
$DIMDLE
 40
0.0
  9
$DIMEXE
 40
0.18
  9
$DIMTP
 40
0.0
  9
$DIMTM
 40
0.0
  9
$DIMTXT
 40
0.18
  9
$DIMCEN
 40
0.09
  9
$DIMTSZ
 40
0.0
  9
$DIMTOL
 70
     0
  9
$DIMLIM
 70
     0
  9
$DIMTIH
 70
     1
  9
$DIMTOH
 70
     1
  9
$DIMSE1
 70
     0
  9
$DIMSE2
 70
     0
  9
$DIMTAD
 70
     0
  9
$DIMZIN
 70
     0
  9
$DIMBLK
  1

  9
$DIMASO
 70
     1
  9
$DIMSHO
 70
     1
  9
$DIMPOST
  1

  9
$DIMAPOST
  1

  9
$DIMALT
 70
     0
  9
$DIMALTD
 70
     2
  9
$DIMALTF
 40
25.4
  9
$DIMLFAC
 40
1.0
  9
$DIMTOFL
 70
     0
  9
$DIMTVP
 40
0.0
  9
$DIMTIX
 70
     0
  9
$DIMSOXD
 70
     0
  9
$DIMSAH
 70
     0
  9
$DIMBLK1
  1

  9
$DIMBLK2
  1

  9
$DIMSTYLE
  2
STANDARD
  9
$DIMCLRD
 70
     0
  9
$DIMCLRE
 70
     0
  9
$DIMCLRT
 70
     0
  9
$DIMTFAC
 40
1.0
  9
$DIMGAP
 40
0.09
  9
$DIMJUST
 70
     0
  9
$DIMSD1
 70
     0
  9
$DIMSD2
 70
     0
  9
$DIMTOLJ
 70
     1
  9
$DIMTZIN
 70
     0
  9
$DIMALTZ
 70
     0
  9
$DIMALTTZ
 70
     0
  9
$DIMFIT
 70
     3
  9
$DIMUPT
 70
     0
  9
$DIMUNIT
 70
     2
  9
$DIMDEC
 70
     4
  9
$DIMTDEC
 70
     4
  9
$DIMALTU
 70
     2
  9
$DIMALTTD
 70
     2
  9
$DIMTXSTY
  7
STANDARD
  9
$DIMAUNIT
 70
     0
  9
$LUNITS
 70
     2
  9
$LUPREC
 70
     4
  9
$SKETCHINC
 40
0.1
  9
$FILLETRAD
 40
0.5
  9
$AUNITS
 70
     0
  9
$AUPREC
 70
     0
  9
$MENU
  1
.
  9
$ELEVATION
 40
0.0
  9
$PELEVATION
 40
0.0
  9
$THICKNESS
 40
0.0
  9
$LIMCHECK
 70
     0
  9
$CHAMFERA
 40
0.0
  9
$CHAMFERB
 40
0.0
  9
$CHAMFERC
 40
0.0
  9
$CHAMFERD
 40
0.0
  9
$SKPOLY
 70
     0
  9
$TDCREATE
 40
2459255.415933831
  9
$TDUPDATE
 40
2459255.415933947
  9
$TDINDWG
 40
0.0000000116
  9
$TDUSRTIMER
 40
0.0000000116
  9
$USRTIMER
 70
     1
  9
$ANGBASE
 50
0.0
  9
$ANGDIR
 70
     0
  9
$PDMODE
 70
     0
  9
$PDSIZE
 40
0.0
  9
$PLINEWID
 40
0.0
  9
$COORDS
 70
     1
  9
$SPLFRAME
 70
     0
  9
$SPLINETYPE
 70
     6
  9
$SPLINESEGS
 70
     8
  9
$ATTDIA
 70
     0
  9
$ATTREQ
 70
     1
  9
$HANDLING
 70
     1
  9
$HANDSEED
  5
1FB
  9
$SURFTAB1
 70
     6
  9
$SURFTAB2
 70
     6
  9
$SURFTYPE
 70
     6
  9
$SURFU
 70
     6
  9
$SURFV
 70
     6
  9
$UCSNAME
  2

  9
$UCSORG
 10
0.0
 20
0.0
 30
0.0
  9
$UCSXDIR
 10
1.0
 20
0.0
 30
0.0
  9
$UCSYDIR
 10
0.0
 20
1.0
 30
0.0
  9
$PUCSNAME
  2

  9
$PUCSORG
 10
0.0
 20
0.0
 30
0.0
  9
$PUCSXDIR
 10
1.0
 20
0.0
 30
0.0
  9
$PUCSYDIR
 10
0.0
 20
1.0
 30
0.0
  9
$USERI1
 70
     0
  9
$USERI2
 70
     0
  9
$USERI3
 70
     0
  9
$USERI4
 70
     0
  9
$USERI5
 70
     0
  9
$USERR1
 40
0.0
  9
$USERR2
 40
0.0
  9
$USERR3
 40
0.0
  9
$USERR4
 40
0.0
  9
$USERR5
 40
0.0
  9
$WORLDVIEW
 70
     1
  9
$SHADEDGE
 70
     3
  9
$SHADEDIF
 70
    70
  9
$TILEMODE
 70
     1
  9
$MAXACTVP
 70
    64
  9
$PINSBASE
 10
0.0
 20
0.0
 30
0.0
  9
$PLIMCHECK
 70
     0
  9
$PEXTMIN
 10
1.000000000000000E+20
 20
1.000000000000000E+20
 30
1.000000000000000E+20
  9
$PEXTMAX
 10
-1.000000000000000E+20
 20
-1.000000000000000E+20
 30
-1.000000000000000E+20
  9
$PLIMMIN
 10
0.0
 20
0.0
  9
$PLIMMAX
 10
12.0
 20
9.0
  9
$UNITMODE
 70
     0
  9
$VISRETAIN
 70
     1
  9
$PLINEGEN
 70
     0
  9
$PSLTSCALE
 70
     1
  9
$TREEDEPTH
 70
  3020
  9
$PICKSTYLE
 70
     1
  9
$CMLSTYLE
  2
STANDARD
  9
$CMLJUST
 70
     0
  9
$CMLSCALE
 40
1.0
  9
$PROXYGRAPHICS
 70
     1
  9
$MEASUREMENT
 70
     1
  0
ENDSEC
  0
SECTION
  2
CLASSES
  0
CLASS
  1
ACDBDICTIONARYWDFLT
  2
AcDbDictionaryWithDefault
  3
ObjectDBX Classes
 90
        0
280
     0
281
     0
  0
CLASS
  1
VISUALSTYLE
  2
AcDbVisualStyle
  3
ObjectDBX Classes
 90
     4095
280
     0
281
     0
  0
CLASS
  1
MATERIAL
  2
AcDbMaterial
  3
ObjectDBX Classes
 90
     1153
280
     0
281
     0
  0
CLASS
  1
SCALE
  2
AcDbScale
  3
ObjectDBX Classes
 90
     1153
280
     0
281
     0
  0
CLASS
  1
TABLESTYLE
  2
AcDbTableStyle
  3
ObjectDBX Classes
 90
     4095
280
     0
281
     0
  0
CLASS
  1
MLEADERSTYLE
  2
AcDbMLeaderStyle
  3
ACDB_MLEADERSTYLE_CLASS
 90
     4095
280
     0
281
     0
  0
CLASS
  1
SUN
  2
AcDbSun
  3
SCENEOE
 90
     1153
280
     0
281
     0
  0
CLASS
  1
DICTIONARYVAR
  2
AcDbDictionaryVar
  3
ObjectDBX Classes
 90
        0
280
     0
281
     0
  0
CLASS
  1
XRECORD
  2
AcDbXrecord
  3
ObjectDBX Classes
 90
        0
280
     0
281
     0
  0
CLASS
  1
LWPOLYLINE
  2
AcDbPolyline
  3
ObjectDBX Classes
 90
        0
280
     0
281
     1
  0
CLASS
  1
HATCH
  2
AcDbHatch
  3
ObjectDBX Classes
 90
        0
280
     0
281
     1
  0
CLASS
  1
ACDBPLACEHOLDER
  2
AcDbPlaceHolder
  3
ObjectDBX Classes
 90
        0
280
     0
281
     0
  0
CLASS
  1
LAYOUT
  2
AcDbLayout
  3
ObjectDBX Classes
 90
        0
280
     0
281
     0
  0
ENDSEC
  0
SECTION
  2
TABLES
  0
TABLE
  2
VPORT
  5
8
102
{ACAD_XDICTIONARY
360
1F0
102
}
330
0
100
AcDbSymbolTable
 70
     1
  0
VPORT
  5
29
330
8
100
AcDbSymbolTableRecord
100
AcDbViewportTableRecord
  2
*ACTIVE
 70
     0
 10
0.0
 20
0.0
 11
1.0
 21
1.0
 12
0.0
 22
0.0
 13
0.0
 23
0.0
 14
0.5
 24
0.5
 15
0.5
 25
0.5
 16
0.0
 26
0.0
 36
1.0
 17
0.0
 27
0.0
 37
-1000.0
 40
177.3802297732365
 41
1.758620689655172
 42
50.0
 43
278.7802036700978
 44
368.6713600412306
 50
0.0
 51
0.0
 71
     0
 72
   100
 73
     1
 74
     3
 75
     0
 76
     0
 77
     0
 78
     0
  0
ENDTAB
  0
TABLE
  2
LTYPE
  5
5
330
0
100
AcDbSymbolTable
 70
     1
  0
LTYPE
  5
14
330
5
100
AcDbSymbolTableRecord
100
AcDbLinetypeTableRecord
  2
BYBLOCK
 70
     0
  3

 72
    65
 73
     0
 40
0.0
  0
LTYPE
  5
15
330
5
100
AcDbSymbolTableRecord
100
AcDbLinetypeTableRecord
  2
BYLAYER
 70
     0
  3

 72
    65
 73
     0
 40
0.0
  0
LTYPE
  5
16
330
5
100
AcDbSymbolTableRecord
100
AcDbLinetypeTableRecord
  2
CONTINUOUS
 70
     0
  3
Solid line
 72
    65
 73
     0
 40
0.0
  0
ENDTAB
  0
TABLE
  2
LAYER
  5
2
330
0
100
AcDbSymbolTable
 70
     3
  0
LAYER
  5
10
330
2
100
AcDbSymbolTableRecord
100
AcDbLayerTableRecord
  2
0
 70
     0
 62
     7
  6
CONTINUOUS
  0
LAYER
  5
6E
330
2
100
AcDbSymbolTableRecord
100
AcDbLayerTableRecord
  2
PROFILEEDGES
 70
     0
 62
     7
  6
CONTINUOUS
  0
LAYER
  5
6F
330
2
100
AcDbSymbolTableRecord
100
AcDbLayerTableRecord
  2
SECTIONCUTEDGES
 70
     0
 62
     7
  6
CONTINUOUS
  0
ENDTAB
  0
TABLE
  2
STYLE
  5
3
330
0
100
AcDbSymbolTable
 70
     1
  0
STYLE
  5
11
330
3
100
AcDbSymbolTableRecord
100
AcDbTextStyleTableRecord
  2
STANDARD
 70
     0
 40
0.0
 41
1.0
 50
0.0
 71
     0
 42
0.2
  3
txt
  4

  0
ENDTAB
  0
TABLE
  2
VIEW
  5
6
330
0
100
AcDbSymbolTable
 70
     0
  0
ENDTAB
  0
TABLE
  2
UCS
  5
7
330
0
100
AcDbSymbolTable
 70
     0
  0
ENDTAB
  0
TABLE
  2
APPID
  5
9
330
0
100
AcDbSymbolTable
 70
     2
  0
APPID
  5
12
330
9
100
AcDbSymbolTableRecord
100
AcDbRegAppTableRecord
  2
ACAD
 70
     0
  0
APPID
  5
1FA
330
9
100
AcDbSymbolTableRecord
100
AcDbRegAppTableRecord
  2
ACAD_MLEADERVER
 70
     0
  0
ENDTAB
  0
TABLE
  2
DIMSTYLE
  5
A
330
0
100
AcDbSymbolTable
 70
     1
  0
DIMSTYLE
105
27
330
A
100
AcDbSymbolTableRecord
100
AcDbDimStyleTableRecord
  2
STANDARD
 70
     0
  3

  4

  5

  6

  7

 40
1.0
 41
0.18
 42
0.0625
 43
0.38
 44
0.18
 45
0.0
 46
0.0
 47
0.0
 48
0.0
140
0.18
141
0.09
142
0.0
143
25.4
144
1.0
145
0.0
146
1.0
147
0.09
 71
     0
 72
     0
 73
     1
 74
     1
 75
     0
 76
     0
 77
     0
 78
     0
170
     0
171
     2
172
     0
173
     0
174
     0
175
     0
176
     0
177
     0
178
     0
270
     2
271
     4
272
     4
273
     2
274
     2
340
11
275
     0
280
     0
281
     0
282
     0
283
     1
284
     0
285
     0
286
     0
287
     3
288
     0
  0
ENDTAB
  0
TABLE
  2
BLOCK_RECORD
  5
1
330
0
100
AcDbSymbolTable
 70
     1
  0
BLOCK_RECORD
  5
1F
330
1
100
AcDbSymbolTableRecord
100
AcDbBlockTableRecord
  2
*MODEL_SPACE
  0
BLOCK_RECORD
  5
1B
330
1
100
AcDbSymbolTableRecord
100
AcDbBlockTableRecord
  2
*PAPER_SPACE
  0
ENDTAB
  0
ENDSEC
  0
SECTION
  2
BLOCKS
  0
BLOCK
  5
20
330
1F
100
AcDbEntity
  8
0
100
AcDbBlockBegin
  2
*MODEL_SPACE
 70
     0
 10
0.0
 20
0.0
 30
0.0
  3
*MODEL_SPACE
  1

  0
ENDBLK
  5
21
330
1F
100
AcDbEntity
  8
0
100
AcDbBlockEnd
  0
BLOCK
  5
1C
330
1B
100
AcDbEntity
 67
     1
  8
0
100
AcDbBlockBegin
  2
*PAPER_SPACE
 70
     0
 10
0.0
 20
0.0
 30
0.0
  3
*PAPER_SPACE
  1

  0
ENDBLK
  5
1D
330
1B
100
AcDbEntity
 67
     1
  8
0
100
AcDbBlockEnd
  0
ENDSEC
  0
SECTION
  2
ENTITIES
  0
LINE
  5
70
330
1F
100
AcDbEntity
  8
0
100
AcDbLine
 10
-32.80587000936405
 20
4.572068061814334
 30
0.0
 11
-32.48278874325676
 21
3.358528514624013
 31
0.0
  0
LINE
  5
71
330
1F
100
AcDbEntity
  8
0
100
AcDbLine
 10
-13.46240629390918
 20
3.527200846493713
 30
0.0
 11
-13.16089743006934
 21
4.746279245174626
 31
0.0
  0
LINE
  5
72
330
1F
100
AcDbEntity
  8
0
100
AcDbLine
 10
-28.80588078863357
 20
-1.609061345483081
 30
0.0
 11
-27.73963969657462
 21
-2.272529257826497
 31
0.0
  0
LINE
  5
73
330
1F
100
AcDbEntity
  8
0
100
AcDbLine
 10
-20.42730854491127
 20
-3.130484760245788
 30
0.0
 11
-19.23645008135963
 21
-2.731842242578836
 31
0.0
  0
LINE
  5
74
330
1F
100
AcDbEntity
  8
0
100
AcDbLine
 10
-17.05063795591479
 20
-1.504816111425937
 30
0.0
 11
-16.09015585698071
 21
-0.6957834330181848
 31
0.0
  0
LINE
  5
75
330
1F
100
AcDbEntity
  8
0
100
AcDbLine
 10
-31.3954321468364
 20
1.099983981856329
 30
0.0
 11
-30.64830507960423
 21
0.0905975927497737
 31
0.0
  0
LINE
  5
76
330
1F
100
AcDbEntity
  8
0
100
AcDbLine
 10
-26.59865165517716
 20
-2.797130083686011
 30
0.0
 11
-25.40091072744726
 21
-3.174590554656302
 31
0.0
  0
LINE
  5
77
330
1F
100
AcDbEntity
  8
0
100
AcDbLine
 10
-15.23864612792285
 20
0.227250108314019
 30
0.0
 11
-14.50953758583572
 21
1.249727722230336
 31
0.0
  0
LINE
  5
78
330
1F
100
AcDbEntity
  8
0
100
AcDbLine
 10
-27.73963969657462
 20
-2.272529257826497
 30
0.0
 11
-26.59865165517716
 21
-2.797130083686011
 31
0.0
  0
LINE
  5
79
330
1F
100
AcDbEntity
  8
0
100
AcDbLine
 10
-13.01455709135227
 20
5.993533927414233
 30
0.0
 11
-13.02569315231906
 21
7.249294941799772
 31
0.0
  0
LINE
  5
7A
330
1F
100
AcDbEntity
  8
0
100
AcDbLine
 10
-15.35169492039571
 20
12.97522865604367
 30
0.0
 11
-16.21944032760923
 21
13.88301588076333
 31
0.0
  0
LINE
  5
7B
330
1F
100
AcDbEntity
  8
0
100
AcDbLine
 10
-14.60456785316351
 20
11.96584226693711
 30
0.0
 11
-15.35169492039571
 21
12.97522865604367
 31
0.0
  0
LINE
  5
7C
330
1F
100
AcDbEntity
  8
0
100
AcDbLine
 10
-32.48278874325676
 20
3.358528514624013
 30
0.0
 11
-32.01015823392489
 21
2.195050909015229
 31
0.0
  0
LINE
  5
7D
330
1F
100
AcDbEntity
  8
0
100
AcDbLine
 10
-22.9113237073824
 20
-3.466693693630023
 30
0.0
 11
-21.65873988956104
 21
-3.376729720637862
 31
0.0
  0
LINE
  5
7E
330
1F
100
AcDbEntity
  8
0
100
AcDbLine
 10
-32.01015823392489
 20
2.195050909015229
 30
0.0
 11
-31.3954321468364
 21
1.099983981856329
 31
0.0
  0
LINE
  5
7F
330
1F
100
AcDbEntity
  8
0
100
AcDbLine
 10
-13.02569315231906
 20
7.249294941799772
 30
0.0
 11
-13.19412999063587
 21
8.493758186979107
 31
0.0
  0
LINE
  5
80
330
1F
100
AcDbEntity
  8
0
100
AcDbLine
 10
-18.10494504826071
 20
-2.187088998278042
 30
0.0
 11
-17.05063795591479
 21
-1.504816111425937
 31
0.0
  0
LINE
  5
81
330
1F
100
AcDbEntity
  8
0
100
AcDbLine
 10
-19.23645008135963
 20
-2.731842242578836
 30
0.0
 11
-18.10494504826071
 21
-2.187088998278042
 31
0.0
  0
LINE
  5
82
330
1F
100
AcDbEntity
  8
0
100
AcDbLine
 10
-17.19411921136637
 20
14.67488759427657
 30
0.0
 11
-18.26036030342532
 21
15.33835550661998
 31
0.0
  0
LINE
  5
83
330
1F
100
AcDbEntity
  8
0
100
AcDbLine
 10
-16.09015585698071
 20
-0.6957834330181848
 30
0.0
 11
-15.23864612792285
 21
0.227250108314019
 31
0.0
  0
LINE
  5
84
330
1F
100
AcDbEntity
  8
0
100
AcDbLine
 10
-32.98544290864763
 20
7.072292321379208
 30
0.0
 11
-32.97430684768084
 21
5.816531306993713
 31
0.0
  0
LINE
  5
85
330
1F
100
AcDbEntity
  8
0
100
AcDbLine
 10
-24.3412601104389
 20
16.4425559694313
 30
0.0
 11
-25.57269145508867
 21
16.19631100903923
 31
0.0
  0
LINE
  5
86
330
1F
100
AcDbEntity
  8
0
100
AcDbLine
 10
-18.26036030342532
 20
15.33835550661998
 30
0.0
 11
-19.40134834482278
 21
15.86295633247945
 31
0.0
  0
LINE
  5
87
330
1F
100
AcDbEntity
  8
0
100
AcDbLine
 10
-20.59908927255268
 20
16.24041680344979
 30
0.0
 11
-21.83469399668901
 21
16.46478414241979
 31
0.0
  0
LINE
  5
88
330
1F
100
AcDbEntity
  8
0
100
AcDbLine
 10
-13.91432870797637
 20
2.355524325960806
 30
0.0
 11
-13.46240629390918
 21
3.527200846493713
 31
0.0
  0
LINE
  5
89
330
1F
100
AcDbEntity
  8
0
100
AcDbLine
 10
-30.64830507960423
 20
0.0905975927497737
 30
0.0
 11
-29.78055967239071
 21
-0.8171896319698921
 31
0.0
  0
LINE
  5
8A
330
1F
100
AcDbEntity
  8
0
100
AcDbLine
 10
-32.83910256993058
 20
8.319547003618814
 30
0.0
 11
-32.98544290864763
 21
7.072292321379208
 31
0.0
  0
LINE
  5
8B
330
1F
100
AcDbEntity
  8
0
100
AcDbLine
 10
-13.16089743006934
 20
4.746279245174626
 30
0.0
 11
-13.01455709135227
 21
5.993533927414233
 31
0.0
  0
LINE
  5
8C
330
1F
100
AcDbEntity
  8
0
100
AcDbLine
 10
-13.19412999063587
 20
8.493758186979107
 30
0.0
 11
-13.51721125674317
 21
9.707297734169428
 31
0.0
  0
LINE
  5
8D
330
1F
100
AcDbEntity
  8
0
100
AcDbLine
 10
-25.40091072744726
 20
-3.174590554656302
 30
0.0
 11
-24.16530600331098
 21
-3.398957893626354
 31
0.0
  0
LINE
  5
8E
330
1F
100
AcDbEntity
  8
0
100
AcDbLine
 10
-32.97430684768084
 20
5.816531306993713
 30
0.0
 11
-32.80587000936405
 21
4.572068061814334
 31
0.0
  0
LINE
  5
8F
330
1F
100
AcDbEntity
  8
0
100
AcDbLine
 10
-24.16530600331098
 20
-3.398957893626354
 30
0.0
 11
-22.9113237073824
 21
-3.466693693630023
 31
0.0
  0
LINE
  5
90
330
1F
100
AcDbEntity
  8
0
100
AcDbLine
 10
-29.78055967239071
 20
-0.8171896319698921
 30
0.0
 11
-28.80588078863357
 21
-1.609061345483081
 31
0.0
  0
LINE
  5
91
330
1F
100
AcDbEntity
  8
0
100
AcDbLine
 10
-13.51721125674317
 20
9.707297734169428
 30
0.0
 11
-13.98984176607503
 21
10.87077533977821
 31
0.0
  0
LINE
  5
92
330
1F
100
AcDbEntity
  8
0
100
AcDbLine
 10
-13.98984176607503
 20
10.87077533977821
 30
0.0
 11
-14.60456785316351
 21
11.96584226693711
 31
0.0
  0
LINE
  5
93
330
1F
100
AcDbEntity
  8
0
100
AcDbLine
 10
-21.65873988956104
 20
-3.376729720637862
 30
0.0
 11
-20.42730854491127
 21
-3.130484760245788
 31
0.0
  0
LINE
  5
94
330
1F
100
AcDbEntity
  8
0
100
AcDbLine
 10
-14.50953758583572
 20
1.249727722230336
 30
0.0
 11
-13.91432870797637
 21
2.355524325960806
 31
0.0
  0
LINE
  5
95
330
1F
100
AcDbEntity
  8
0
100
AcDbLine
 10
-16.21944032760923
 20
13.88301588076333
 30
0.0
 11
-17.19411921136637
 21
14.67488759427657
 31
0.0
  0
LINE
  5
96
330
1F
100
AcDbEntity
  8
0
100
AcDbLine
 10
-46.61561920817913
 20
-31.1650633554087
 30
0.0
 11
-46.92507830894281
 21
-31.35213790348318
 31
0.0
  0
LINE
  5
97
330
1F
100
AcDbEntity
  8
0
100
AcDbLine
 10
-47.4754298604207
 20
-32.2625305676759
 30
0.0
 11
-47.49726333133496
 21
-32.62348087053017
 31
0.0
  0
LINE
  5
98
330
1F
100
AcDbEntity
  8
0
100
AcDbLine
 10
47.38512468990666
 20
-33.10861234570164
 30
0.0
 11
47.48264932535608
 21
-32.76040153733516
 31
0.0
  0
LINE
  5
99
330
1F
100
AcDbEntity
  8
0
100
AcDbLine
 10
47.20710164220326
 20
-33.42336560790741
 30
0.0
 11
47.38512468990666
 21
-33.10861234570164
 31
0.0
  0
LINE
  5
9A
330
1F
100
AcDbEntity
  8
0
100
AcDbLine
 10
-47.18077522091355
 20
-31.60783481545396
 30
0.0
 11
-47.36784976898812
 21
-31.91729391621764
 31
0.0
  0
LINE
  5
9B
330
1F
100
AcDbEntity
  8
0
100
AcDbLine
 10
47.26063167690435
 20
-31.72001228469653
 30
0.0
 11
47.02946010702559
 21
-31.44194479853073
 31
0.0
  0
LINE
  5
9C
330
1F
100
AcDbEntity
  8
0
100
AcDbLine
 10
46.40454339393968
 20
-31.08849468003243
 30
0.0
 11
46.04711613861724
 21
-31.03365328384817
 31
0.0
  0
LINE
  5
9D
330
1F
100
AcDbEntity
  8
0
100
AcDbLine
 10
-21.83469399668901
 20
16.46478414241979
 30
0.0
 11
-23.08867629261756
 21
16.53251994242346
 31
0.0
  0
LINE
  5
9E
330
1F
100
AcDbEntity
  8
0
100
AcDbLine
 10
44.5059922287732
 20
-32.66685631949803
 30
0.0
 11
44.58146008406887
 21
-33.02050363590219
 31
0.0
  0
LINE
  5
9F
330
1F
100
AcDbEntity
  8
0
100
AcDbLine
 10
-23.08867629261756
 20
16.53251994242346
 30
0.0
 11
-24.3412601104389
 21
16.4425559694313
 31
0.0
  0
LINE
  5
A0
330
1F
100
AcDbEntity
  8
0
100
AcDbLine
 10
-32.08567129202358
 20
10.71030192283259
 30
0.0
 11
-32.51946775765053
 21
9.532913124396714
 31
0.0
  0
LINE
  5
A1
330
1F
100
AcDbEntity
  8
0
100
AcDbLine
 10
46.31304933542144
 20
-33.99988282878478
 30
0.0
 11
46.65502151997345
 21
-33.88233774562307
 31
0.0
  0
LINE
  5
A2
330
1F
100
AcDbEntity
  8
0
100
AcDbLine
 10
-45.22399327873354
 20
-31.24924121594463
 30
0.0
 11
-45.5537454192172
 21
-31.10083182463398
 31
0.0
  0
LINE
  5
A3
330
1F
100
AcDbEntity
  8
0
100
AcDbLine
 10
-47.36784976898812
 20
-31.91729391621764
 30
0.0
 11
-47.4754298604207
 21
-32.2625305676759
 31
0.0
  0
LINE
  5
A4
330
1F
100
AcDbEntity
  8
0
100
AcDbLine
 10
47.02946010702559
 20
-31.44194479853073
 30
0.0
 11
46.73846005766173
 21
-31.22728042595581
 31
0.0
  0
LINE
  5
A5
330
1F
100
AcDbEntity
  8
0
100
AcDbLine
 10
-46.44625458078281
 20
-33.96499442415954
 30
0.0
 11
-46.09056774613343
 21
-34.03017645573169
 31
0.0
  0
LINE
  5
A6
330
1F
100
AcDbEntity
  8
0
100
AcDbLine
 10
45.68695066457857
 20
-31.06594342000875
 30
0.0
 11
45.34497848002656
 21
-31.18348850317046
 31
0.0
  0
LINE
  5
A7
330
1F
100
AcDbEntity
  8
0
100
AcDbLine
 10
45.34497848002656
 20
-31.18348850317046
 30
0.0
 11
45.04107376530906
 21
-31.37945724035895
 31
0.0
  0
LINE
  5
A8
330
1F
100
AcDbEntity
  8
0
100
AcDbLine
 10
45.59545660606034
 20
-33.9773315687611
 30
0.0
 11
45.95288386138277
 21
-34.0321729649454
 31
0.0
  0
LINE
  5
A9
330
1F
100
AcDbEntity
  8
0
100
AcDbLine
 10
44.51735067464393
 20
-32.30542471145831
 30
0.0
 11
44.5059922287732
 21
-32.66685631949803
 31
0.0
  0
LINE
  5
AA
330
1F
100
AcDbEntity
  8
0
100
AcDbLine
 10
-30.76135387207709
 20
12.83857614047938
 30
0.0
 11
-31.49046241416422
 21
11.8160985265631
 31
0.0
  0
LINE
  5
AB
330
1F
100
AcDbEntity
  8
0
100
AcDbLine
 10
44.73936832309566
 20
-33.345813964097
 30
0.0
 11
44.97053989297441
 21
-33.62388145026279
 31
0.0
  0
LINE
  5
AC
330
1F
100
AcDbEntity
  8
0
100
AcDbLine
 10
46.65502151997345
 20
-33.88233774562307
 30
0.0
 11
46.95892623469095
 21
-33.68636900843457
 31
0.0
  0
LINE
  5
AD
330
1F
100
AcDbEntity
  8
0
100
AcDbLine
 10
-47.49726333133496
 20
-32.62348087053017
 30
0.0
 11
-47.43208129976279
 21
-32.97916770517957
 31
0.0
  0
LINE
  5
AE
330
1F
100
AcDbEntity
  8
0
100
AcDbLine
 10
-19.40134834482278
 20
15.86295633247945
 30
0.0
 11
-20.59908927255268
 21
16.24041680344979
 31
0.0
  0
LINE
  5
AF
330
1F
100
AcDbEntity
  8
0
100
AcDbLine
 10
-28.94936204408517
 20
14.57064236021933
 30
0.0
 11
-29.90984414301925
 21
13.76160968181163
 31
0.0
  0
LINE
  5
B0
330
1F
100
AcDbEntity
  8
0
100
AcDbLine
 10
47.41853991593115
 20
-32.04532261289134
 30
0.0
 11
47.26063167690435
 21
-31.72001228469653
 31
0.0
  0
LINE
  5
B1
330
1F
100
AcDbEntity
  8
0
100
AcDbLine
 10
-46.77600672126648
 20
-33.8165850328489
 30
0.0
 11
-46.44625458078281
 21
-33.96499442415954
 31
0.0
  0
LINE
  5
B2
330
1F
100
AcDbEntity
  8
0
100
AcDbLine
 10
45.8733786585594
 20
31.37406350531736
 30
0.0
 11
47.35860774719553
 21
30.21330811769904
 31
0.0
  0
LINE
  5
B3
330
1F
100
AcDbEntity
  8
0
100
AcDbLine
 10
47.35860774719553
 20
30.21330811769904
 30
0.0
 11
48.75922830250249
 21
28.95175329302132
 31
0.0
  0
LINE
  5
B4
330
1F
100
AcDbEntity
  8
0
100
AcDbLine
 10
48.75922830250249
 20
28.95175329302132
 30
0.0
 11
50.0
 21
27.66641863382666
 31
0.0
  0
LINE
  5
B5
330
1F
100
AcDbEntity
  8
0
100
AcDbLine
 10
50.0
 20
-36.53291312439676
 30
0.0
 11
50.0
 21
27.66641863382666
 31
0.0
  0
LINE
  5
B6
330
1F
100
AcDbEntity
  8
0
100
AcDbLine
 10
-50.0
 20
-36.53291312439676
 30
0.0
 11
-39.99999999999993
 21
-36.53291312439676
 31
0.0
  0
LINE
  5
B7
330
1F
100
AcDbEntity
  8
0
100
AcDbLine
 10
-50.0
 20
6.53291312439672
 30
0.0
 11
-50.0
 21
-36.53291312439676
 31
0.0
  0
LINE
  5
B8
330
1F
100
AcDbEntity
  8
0
100
AcDbLine
 10
-50.0
 20
6.53291312439672
 30
0.0
 11
-49.76901125709287
 21
10.05712031433814
 31
0.0
  0
LINE
  5
B9
330
1F
100
AcDbEntity
  8
0
100
AcDbLine
 10
-49.76901125709287
 20
10.05712031433814
 30
0.0
 11
-49.07999730980485
 21
13.52102734216478
 31
0.0
  0
LINE
  5
BA
330
1F
100
AcDbEntity
  8
0
100
AcDbLine
 10
-49.07999730980485
 20
13.52102734216478
 30
0.0
 11
-47.94474737780473
 21
16.86536579825417
 31
0.0
  0
LINE
  5
BB
330
1F
100
AcDbEntity
  8
0
100
AcDbLine
 10
-47.94474737780473
 20
16.86536579825417
 30
0.0
 11
-46.38268590217984
 21
20.03291312439672
 31
0.0
  0
LINE
  5
BC
330
1F
100
AcDbEntity
  8
0
100
AcDbLine
 10
-46.38268590217984
 20
20.03291312439672
 30
0.0
 11
-44.42054018786333
 21
22.96947170763223
 31
0.0
  0
LINE
  5
BD
330
1F
100
AcDbEntity
  8
0
100
AcDbLine
 10
-44.42054018786333
 20
22.96947170763223
 30
0.0
 11
-42.09188309203677
 21
25.62479621643351
 31
0.0
  0
LINE
  5
BE
330
1F
100
AcDbEntity
  8
0
100
AcDbLine
 10
-42.09188309203677
 20
25.62479621643351
 30
0.0
 11
-39.43655858323545
 21
27.95345331226012
 31
0.0
  0
LINE
  5
BF
330
1F
100
AcDbEntity
  8
0
100
AcDbLine
 10
-39.43655858323545
 20
27.95345331226012
 30
0.0
 11
-36.49999999999998
 21
29.91559902657656
 31
0.0
  0
LINE
  5
C0
330
1F
100
AcDbEntity
  8
0
100
AcDbLine
 10
-36.49999999999998
 20
29.91559902657656
 30
0.0
 11
-33.3324526738574
 21
31.47766050220154
 31
0.0
  0
LINE
  5
C1
330
1F
100
AcDbEntity
  8
0
100
AcDbLine
 10
-33.3324526738574
 20
31.47766050220154
 30
0.0
 11
-29.98811421776804
 21
32.61291043420157
 31
0.0
  0
LINE
  5
C2
330
1F
100
AcDbEntity
  8
0
100
AcDbLine
 10
-29.98811421776804
 20
32.61291043420157
 30
0.0
 11
-26.52420718994136
 21
33.30192438148963
 31
0.0
  0
LINE
  5
C3
330
1F
100
AcDbEntity
  8
0
100
AcDbLine
 10
-26.52420718994136
 20
33.30192438148963
 30
0.0
 11
-22.99999999999996
 21
33.53291312439671
 31
0.0
  0
LINE
  5
C4
330
1F
100
AcDbEntity
  8
0
100
AcDbLine
 10
-22.99999999999996
 20
33.53291312439671
 30
0.0
 11
-20.21731848224308
 21
33.53291312439671
 31
0.0
  0
LINE
  5
C5
330
1F
100
AcDbEntity
  8
0
100
AcDbLine
 10
-19.2730304853015
 20
32.1432233983582
 30
0.0
 11
-18.72810213116451
 21
31.55170219470034
 31
0.0
  0
LINE
  5
C6
330
1F
100
AcDbEntity
  8
0
100
AcDbLine
 10
-18.72810213116451
 20
31.55170219470034
 30
0.0
 11
-18.10211159812329
 21
31.04674665402179
 31
0.0
  0
LINE
  5
C7
330
1F
100
AcDbEntity
  8
0
100
AcDbLine
 10
-18.10211159812329
 20
31.04674665402179
 30
0.0
 11
-18.01730629268055
 21
30.97699710497988
 31
0.0
  0
LINE
  5
C8
330
1F
100
AcDbEntity
  8
0
100
AcDbLine
 10
-18.01730629268055
 20
30.97699710497988
 30
0.0
 11
-17.40867014327227
 21
30.63933630288506
 31
0.0
  0
LINE
  5
C9
330
1F
100
AcDbEntity
  8
0
100
AcDbLine
 10
-17.40867014327227
 20
30.63933630288506
 30
0.0
 11
-16.66285564626582
 21
30.33832968904705
 31
0.0
  0
LINE
  5
CA
330
1F
100
AcDbEntity
  8
0
100
AcDbLine
 10
-16.66285564626582
 20
30.33832968904705
 30
0.0
 11
-15.88088476267254
 21
30.15027176517365
 31
0.0
  0
LINE
  5
CB
330
1F
100
AcDbEntity
  8
0
100
AcDbLine
 10
-15.88088476267254
 20
30.15027176517365
 30
0.0
 11
-15.07976031629755
 21
30.07925157832774
 31
0.0
  0
LINE
  5
CC
330
1F
100
AcDbEntity
  8
0
100
AcDbLine
 10
-15.07976031629755
 20
30.07925157832774
 30
0.0
 11
-14.27690159741563
 21
30.1268133595656
 31
0.0
  0
LINE
  5
CD
330
1F
100
AcDbEntity
  8
0
100
AcDbLine
 10
-14.27690159741563
 20
30.1268133595656
 30
0.0
 11
-13.48976560554426
 21
30.2919229468702
 31
0.0
  0
LINE
  5
CE
330
1F
100
AcDbEntity
  8
0
100
AcDbLine
 10
-13.48976560554426
 20
30.2919229468702
 30
0.0
 11
-12.73546747228393
 21
30.57099027150561
 31
0.0
  0
LINE
  5
CF
330
1F
100
AcDbEntity
  8
0
100
AcDbLine
 10
-12.73546747228393
 20
30.57099027150561
 30
0.0
 11
-12.03040831758099
 21
30.95794741886029
 31
0.0
  0
LINE
  5
D0
330
1F
100
AcDbEntity
  8
0
100
AcDbLine
 10
-12.03040831758099
 20
30.95794741886029
 30
0.0
 11
-11.3899186311393
 21
31.44438056645716
 31
0.0
  0
LINE
  5
D1
330
1F
100
AcDbEntity
  8
0
100
AcDbLine
 10
-11.3899186311393
 20
31.44438056645716
 30
0.0
 11
-10.82792493313505
 21
32.01971293033279
 31
0.0
  0
LINE
  5
D2
330
1F
100
AcDbEntity
  8
0
100
AcDbLine
 10
-10.82792493313505
 20
32.01971293033279
 30
0.0
 11
-10.35664696221484
 21
32.67143474187866
 31
0.0
  0
LINE
  5
D3
330
1F
100
AcDbEntity
  8
0
100
AcDbLine
 10
-9.031088913245483
 20
34.7829131243967
 30
0.0
 11
-10.35664696221484
 21
32.67143474187866
 31
0.0
  0
LINE
  5
D4
330
1F
100
AcDbEntity
  8
0
100
AcDbLine
 10
-8.474873734152867
 20
35.50778685854964
 30
0.0
 11
-9.031088913245483
 21
34.7829131243967
 31
0.0
  0
LINE
  5
D5
330
1F
100
AcDbEntity
  8
0
100
AcDbLine
 10
-7.749999999999974
 20
36.06400203764219
 30
0.0
 11
-8.474873734152867
 21
35.50778685854964
 31
0.0
  0
LINE
  5
D6
330
1F
100
AcDbEntity
  8
0
100
AcDbLine
 10
-6.90586665785879
 20
36.41365351640842
 30
0.0
 11
-7.749999999999974
 21
36.06400203764219
 31
0.0
  0
LINE
  5
D7
330
1F
100
AcDbEntity
  8
0
100
AcDbLine
 10
-5.999999999999989
 20
36.53291312439666
 30
0.0
 11
-6.90586665785879
 21
36.41365351640842
 31
0.0
  0
LINE
  5
D8
330
1F
100
AcDbEntity
  8
0
100
AcDbLine
 10
-5.999999999999989
 20
36.53291312439666
 30
0.0
 11
6.000000000000034
 21
36.53291312439666
 31
0.0
  0
LINE
  5
D9
330
1F
100
AcDbEntity
  8
0
100
AcDbLine
 10
6.905866657858835
 20
36.41365351640842
 30
0.0
 11
6.000000000000034
 21
36.53291312439666
 31
0.0
  0
LINE
  5
DA
330
1F
100
AcDbEntity
  8
0
100
AcDbLine
 10
7.75000000000002
 20
36.06400203764219
 30
0.0
 11
6.905866657858835
 21
36.41365351640842
 31
0.0
  0
LINE
  5
DB
330
1F
100
AcDbEntity
  8
0
100
AcDbLine
 10
8.474873734152911
 20
35.50778685854964
 30
0.0
 11
7.75000000000002
 21
36.06400203764219
 31
0.0
  0
LINE
  5
DC
330
1F
100
AcDbEntity
  8
0
100
AcDbLine
 10
9.03108891324555
 20
34.7829131243967
 30
0.0
 11
8.474873734152911
 21
35.50778685854964
 31
0.0
  0
LINE
  5
DD
330
1F
100
AcDbEntity
  8
0
100
AcDbLine
 10
9.03108891324555
 20
34.7829131243967
 30
0.0
 11
10.35610121409748
 21
32.67088873755108
 31
0.0
  0
LINE
  5
DE
330
1F
100
AcDbEntity
  8
0
100
AcDbLine
 10
10.35610121409748
 20
32.67088873755108
 30
0.0
 11
10.8274704575854
 21
32.01908661441026
 31
0.0
  0
LINE
  5
DF
330
1F
100
AcDbEntity
  8
0
100
AcDbLine
 10
10.8274704575854
 20
32.01908661441026
 30
0.0
 11
11.38956707248088
 21
31.44368904145732
 31
0.0
  0
LINE
  5
E0
330
1F
100
AcDbEntity
  8
0
100
AcDbLine
 10
11.38956707248088
 20
31.44368904145732
 30
0.0
 11
12.03016884493788
 21
30.9572074482164
 31
0.0
  0
LINE
  5
E1
330
1F
100
AcDbEntity
  8
0
100
AcDbLine
 10
12.03016884493788
 20
30.9572074482164
 30
0.0
 11
12.73534654705198
 21
30.57021987751382
 31
0.0
  0
LINE
  5
E2
330
1F
100
AcDbEntity
  8
0
100
AcDbLine
 10
12.73534654705198
 20
30.57021987751382
 30
0.0
 11
13.48976681362165
 21
30.29114097679553
 31
0.0
  0
LINE
  5
E3
330
1F
100
AcDbEntity
  8
0
100
AcDbLine
 10
13.48976681362165
 20
30.29114097679553
 30
0.0
 11
14.27702555043335
 21
30.12603903025688
 31
0.0
  0
LINE
  5
E4
330
1F
100
AcDbEntity
  8
0
100
AcDbLine
 10
14.27702555043335
 20
30.12603903025688
 30
0.0
 11
15.08000462444994
 21
30.07850401023294
 31
0.0
  0
LINE
  5
E5
330
1F
100
AcDbEntity
  8
0
100
AcDbLine
 10
15.08000462444994
 20
30.07850401023294
 30
0.0
 11
15.8812440800401
 21
30.14956951693489
 31
0.0
  0
LINE
  5
E6
330
1F
100
AcDbEntity
  8
0
100
AcDbLine
 10
15.8812440800401
 20
30.14956951693489
 30
0.0
 11
16.66332178778933
 21
30.3376903038748
 31
0.0
  0
LINE
  5
E7
330
1F
100
AcDbEntity
  8
0
100
AcDbLine
 10
16.66332178778933
 20
30.3376903038748
 30
0.0
 11
17.40923227081861
 21
30.63877587766444
 31
0.0
  0
LINE
  5
E8
330
1F
100
AcDbEntity
  8
0
100
AcDbLine
 10
17.40923227081861
 20
30.63877587766444
 30
0.0
 11
18.10275647142143
 21
31.04627944159416
 31
0.0
  0
LINE
  5
E9
330
1F
100
AcDbEntity
  8
0
100
AcDbLine
 10
18.10275647142143
 20
31.04627944159416
 30
0.0
 11
18.7288144178232
 21
31.55134024900683
 31
0.0
  0
LINE
  5
EA
330
1F
100
AcDbEntity
  8
0
100
AcDbLine
 10
18.7288144178232
 20
31.55134024900683
 30
0.0
 11
19.27379312268649
 21
32.14297627113766
 31
0.0
  0
LINE
  5
EB
330
1F
100
AcDbEntity
  8
0
100
AcDbLine
 10
19.27379312268649
 20
32.14297627113766
 30
0.0
 11
19.72584258354573
 21
32.80832299005498
 31
0.0
  0
LINE
  5
EC
330
1F
100
AcDbEntity
  8
0
100
AcDbLine
 10
19.72584258354573
 20
32.80832299005498
 30
0.0
 11
20.96891108675453
 21
34.7829131243967
 31
0.0
  0
LINE
  5
ED
330
1F
100
AcDbEntity
  8
0
100
AcDbLine
 10
21.52512626584712
 20
35.50778685854964
 30
0.0
 11
20.96891108675453
 21
34.7829131243967
 31
0.0
  0
LINE
  5
EE
330
1F
100
AcDbEntity
  8
0
100
AcDbLine
 10
22.25000000000006
 20
36.06400203764228
 30
0.0
 11
21.52512626584712
 21
35.50778685854964
 31
0.0
  0
LINE
  5
EF
330
1F
100
AcDbEntity
  8
0
100
AcDbLine
 10
23.09413334214122
 20
36.41365351640842
 30
0.0
 11
22.25000000000006
 21
36.06400203764228
 31
0.0
  0
LINE
  5
F0
330
1F
100
AcDbEntity
  8
0
100
AcDbLine
 10
24.00000000000005
 20
36.53291312439676
 30
0.0
 11
23.09413334214122
 21
36.41365351640842
 31
0.0
  0
LINE
  5
F1
330
1F
100
AcDbEntity
  8
0
100
AcDbLine
 10
29.99999999999999
 20
36.53291312439676
 30
0.0
 11
24.00000000000005
 21
36.53291312439676
 31
0.0
  0
LINE
  5
F2
330
1F
100
AcDbEntity
  8
0
100
AcDbLine
 10
29.99999999999999
 20
36.53291312439676
 30
0.0
 11
31.88386006194993
 21
36.4671120407742
 31
0.0
  0
LINE
  5
F3
330
1F
100
AcDbEntity
  8
0
100
AcDbLine
 10
31.88386006194993
 20
36.4671120407742
 30
0.0
 11
33.75853789919842
 21
36.27002951454416
 31
0.0
  0
LINE
  5
F4
330
1F
100
AcDbEntity
  8
0
100
AcDbLine
 10
33.75853789919842
 20
36.27002951454416
 30
0.0
 11
35.61489604262444
 21
35.94262615635755
 31
0.0
  0
LINE
  5
F5
330
1F
100
AcDbEntity
  8
0
100
AcDbLine
 10
35.61489604262444
 20
35.94262615635755
 30
0.0
 11
37.44388631612211
 21
35.48649778071442
 31
0.0
  0
LINE
  5
F6
330
1F
100
AcDbEntity
  8
0
100
AcDbLine
 10
37.44388631612211
 20
35.48649778071442
 30
0.0
 11
39.23659393880767
 21
34.90386762771762
 31
0.0
  0
LINE
  5
F7
330
1F
100
AcDbEntity
  8
0
100
AcDbLine
 10
39.23659393880767
 20
34.90386762771762
 30
0.0
 11
40.98428097703732
 21
34.19757552665748
 31
0.0
  0
LINE
  5
F8
330
1F
100
AcDbEntity
  8
0
100
AcDbLine
 10
40.98428097703732
 20
34.19757552665748
 30
0.0
 11
42.67842893444451
 21
33.37106405424531
 31
0.0
  0
LINE
  5
F9
330
1F
100
AcDbEntity
  8
0
100
AcDbLine
 10
42.67842893444451
 20
33.37106405424531
 30
0.0
 11
44.31078027240594
 21
32.4283617549633
 31
0.0
  0
LINE
  5
FA
330
1F
100
AcDbEntity
  8
0
100
AcDbLine
 10
44.00000000000001
 20
-8.467086875603252
 30
0.0
 11
43.65925826289068
 21
-5.878896424578092
 31
0.0
  0
LINE
  5
FB
330
1F
100
AcDbEntity
  8
0
100
AcDbLine
 10
43.65925826289068
 20
-5.878896424578092
 30
0.0
 11
42.66025403784441
 21
-3.467086875603306
 31
0.0
  0
LINE
  5
FC
330
1F
100
AcDbEntity
  8
0
100
AcDbLine
 10
42.66025403784441
 20
-3.467086875603306
 30
0.0
 11
41.07106781186548
 21
-1.396019063737759
 31
0.0
  0
LINE
  5
FD
330
1F
100
AcDbEntity
  8
0
100
AcDbLine
 10
41.07106781186548
 20
-1.396019063737759
 30
0.0
 11
39.00000000000002
 21
0.1931671622411281
 31
0.0
  0
LINE
  5
FE
330
1F
100
AcDbEntity
  8
0
100
AcDbLine
 10
39.00000000000002
 20
0.1931671622411281
 30
0.0
 11
36.58819045102523
 21
1.1921713872874
 31
0.0
  0
LINE
  5
FF
330
1F
100
AcDbEntity
  8
0
100
AcDbLine
 10
36.58819045102523
 20
1.1921713872874
 30
0.0
 11
34.00000000000003
 21
1.532913124396729
 31
0.0
  0
LINE
  5
100
330
1F
100
AcDbEntity
  8
0
100
AcDbLine
 10
34.00000000000003
 20
1.532913124396729
 30
0.0
 11
31.41180954897482
 21
1.1921713872874
 31
0.0
  0
LINE
  5
101
330
1F
100
AcDbEntity
  8
0
100
AcDbLine
 10
31.41180954897482
 20
1.1921713872874
 30
0.0
 11
29.00000000000004
 21
0.1931671622411281
 31
0.0
  0
LINE
  5
102
330
1F
100
AcDbEntity
  8
0
100
AcDbLine
 10
29.00000000000004
 20
0.1931671622411281
 30
0.0
 11
26.92893218813458
 21
-1.396019063737759
 31
0.0
  0
LINE
  5
103
330
1F
100
AcDbEntity
  8
0
100
AcDbLine
 10
26.92893218813458
 20
-1.396019063737759
 30
0.0
 11
25.33974596215565
 21
-3.467086875603216
 31
0.0
  0
LINE
  5
104
330
1F
100
AcDbEntity
  8
0
100
AcDbLine
 10
25.33974596215565
 20
-3.467086875603216
 30
0.0
 11
24.34074173710938
 21
-5.878896424578002
 31
0.0
  0
LINE
  5
105
330
1F
100
AcDbEntity
  8
0
100
AcDbLine
 10
24.34074173710938
 20
-5.878896424578002
 30
0.0
 11
24.00000000000005
 21
-8.467086875603252
 31
0.0
  0
LINE
  5
106
330
1F
100
AcDbEntity
  8
0
100
AcDbLine
 10
24.00000000000005
 20
-8.467086875603252
 30
0.0
 11
24.34074173710938
 21
-11.05527732662841
 31
0.0
  0
LINE
  5
107
330
1F
100
AcDbEntity
  8
0
100
AcDbLine
 10
24.34074173710938
 20
-11.05527732662841
 30
0.0
 11
25.33974596215565
 21
-13.4670868756032
 31
0.0
  0
LINE
  5
108
330
1F
100
AcDbEntity
  8
0
100
AcDbLine
 10
25.33974596215565
 20
-13.4670868756032
 30
0.0
 11
26.92893218813458
 21
-15.53815468746875
 31
0.0
  0
LINE
  5
109
330
1F
100
AcDbEntity
  8
0
100
AcDbLine
 10
26.92893218813458
 20
-15.53815468746875
 30
0.0
 11
29.00000000000004
 21
-17.12734091344759
 31
0.0
  0
LINE
  5
10A
330
1F
100
AcDbEntity
  8
0
100
AcDbLine
 10
29.00000000000004
 20
-17.12734091344759
 30
0.0
 11
31.41180954897482
 21
-18.12634513849391
 31
0.0
  0
LINE
  5
10B
330
1F
100
AcDbEntity
  8
0
100
AcDbLine
 10
31.41180954897482
 20
-18.12634513849391
 30
0.0
 11
34.00000000000003
 21
-18.46708687560323
 31
0.0
  0
LINE
  5
10C
330
1F
100
AcDbEntity
  8
0
100
AcDbLine
 10
34.00000000000003
 20
-18.46708687560323
 30
0.0
 11
36.58819045102523
 21
-18.12634513849391
 31
0.0
  0
LINE
  5
10D
330
1F
100
AcDbEntity
  8
0
100
AcDbLine
 10
36.58819045102523
 20
-18.12634513849391
 30
0.0
 11
39.00000000000002
 21
-17.12734091344759
 31
0.0
  0
LINE
  5
10E
330
1F
100
AcDbEntity
  8
0
100
AcDbLine
 10
39.00000000000002
 20
-17.12734091344759
 30
0.0
 11
41.07106781186548
 21
-15.53815468746875
 31
0.0
  0
LINE
  5
10F
330
1F
100
AcDbEntity
  8
0
100
AcDbLine
 10
41.07106781186548
 20
-15.53815468746875
 30
0.0
 11
42.66025403784441
 21
-13.46708687560329
 31
0.0
  0
LINE
  5
110
330
1F
100
AcDbEntity
  8
0
100
AcDbLine
 10
42.66025403784441
 20
-13.46708687560329
 30
0.0
 11
43.65925826289068
 21
-11.0552773266285
 31
0.0
  0
LINE
  5
111
330
1F
100
AcDbEntity
  8
0
100
AcDbLine
 10
43.65925826289068
 20
-11.0552773266285
 30
0.0
 11
44.00000000000001
 21
-8.467086875603252
 31
0.0
  0
LINE
  5
112
330
1F
100
AcDbEntity
  8
0
100
AcDbLine
 10
41.07106781186548
 20
28.60398093626214
 30
0.0
 11
39.00000000000002
 21
30.19316716224116
 31
0.0
  0
LINE
  5
113
330
1F
100
AcDbEntity
  8
0
100
AcDbLine
 10
39.00000000000002
 20
30.19316716224116
 30
0.0
 11
36.58819045102523
 21
31.19217138728739
 31
0.0
  0
LINE
  5
114
330
1F
100
AcDbEntity
  8
0
100
AcDbLine
 10
36.58819045102523
 20
31.19217138728739
 30
0.0
 11
34.00000000000003
 21
31.53291312439672
 31
0.0
  0
LINE
  5
115
330
1F
100
AcDbEntity
  8
0
100
AcDbLine
 10
34.00000000000003
 20
31.53291312439672
 30
0.0
 11
31.41180954897482
 21
31.19217138728739
 31
0.0
  0
LINE
  5
116
330
1F
100
AcDbEntity
  8
0
100
AcDbLine
 10
31.41180954897482
 20
31.19217138728739
 30
0.0
 11
29.00000000000004
 21
30.19316716224116
 31
0.0
  0
LINE
  5
117
330
1F
100
AcDbEntity
  8
0
100
AcDbLine
 10
29.00000000000004
 20
30.19316716224116
 30
0.0
 11
26.92893218813458
 21
28.60398093626214
 31
0.0
  0
LINE
  5
118
330
1F
100
AcDbEntity
  8
0
100
AcDbLine
 10
26.92893218813458
 20
28.60398093626214
 30
0.0
 11
25.33974596215565
 21
26.53291312439668
 31
0.0
  0
LINE
  5
119
330
1F
100
AcDbEntity
  8
0
100
AcDbLine
 10
24.34074173710938
 20
24.1211035754219
 30
0.0
 11
24.00000000000005
 21
21.53291312439674
 31
0.0
  0
LINE
  5
11A
330
1F
100
AcDbEntity
  8
0
100
AcDbLine
 10
24.00000000000005
 20
21.53291312439674
 30
0.0
 11
24.34074173710938
 21
18.94472267337158
 31
0.0
  0
LINE
  5
11B
330
1F
100
AcDbEntity
  8
0
100
AcDbLine
 10
24.34074173710938
 20
18.94472267337158
 30
0.0
 11
25.33974596215565
 21
16.53291312439675
 31
0.0
  0
LINE
  5
11C
330
1F
100
AcDbEntity
  8
0
100
AcDbLine
 10
25.33974596215565
 20
16.53291312439675
 30
0.0
 11
26.92893218813458
 21
14.46184531253129
 31
0.0
  0
LINE
  5
11D
330
1F
100
AcDbEntity
  8
0
100
AcDbLine
 10
26.92893218813458
 20
14.46184531253129
 30
0.0
 11
29.00000000000004
 21
12.87265908655236
 31
0.0
  0
LINE
  5
11E
330
1F
100
AcDbEntity
  8
0
100
AcDbLine
 10
29.00000000000004
 20
12.87265908655236
 30
0.0
 11
31.41180954897482
 21
11.87365486150608
 31
0.0
  0
LINE
  5
11F
330
1F
100
AcDbEntity
  8
0
100
AcDbLine
 10
31.41180954897482
 20
11.87365486150608
 30
0.0
 11
34.00000000000003
 21
11.53291312439676
 31
0.0
  0
LINE
  5
120
330
1F
100
AcDbEntity
  8
0
100
AcDbLine
 10
34.00000000000003
 20
11.53291312439676
 30
0.0
 11
36.58819045102523
 21
11.87365486150608
 31
0.0
  0
LINE
  5
121
330
1F
100
AcDbEntity
  8
0
100
AcDbLine
 10
36.58819045102523
 20
11.87365486150608
 30
0.0
 11
39.00000000000002
 21
12.87265908655236
 31
0.0
  0
LINE
  5
122
330
1F
100
AcDbEntity
  8
0
100
AcDbLine
 10
39.00000000000002
 20
12.87265908655236
 30
0.0
 11
41.07106781186548
 21
14.46184531253129
 31
0.0
  0
LINE
  5
123
330
1F
100
AcDbEntity
  8
0
100
AcDbLine
 10
41.07106781186548
 20
14.46184531253129
 30
0.0
 11
42.66025403784441
 21
16.53291312439675
 31
0.0
  0
LINE
  5
124
330
1F
100
AcDbEntity
  8
0
100
AcDbLine
 10
42.66025403784441
 20
16.53291312439675
 30
0.0
 11
43.65925826289068
 21
18.94472267337158
 31
0.0
  0
LINE
  5
125
330
1F
100
AcDbEntity
  8
0
100
AcDbLine
 10
43.65925826289068
 20
18.94472267337158
 30
0.0
 11
44.00000000000001
 21
21.53291312439674
 31
0.0
  0
LINE
  5
126
330
1F
100
AcDbEntity
  8
0
100
AcDbLine
 10
44.00000000000001
 20
21.53291312439674
 30
0.0
 11
43.65925826289068
 21
24.1211035754219
 31
0.0
  0
LINE
  5
127
330
1F
100
AcDbEntity
  8
0
100
AcDbLine
 10
43.65925826289068
 20
24.1211035754219
 30
0.0
 11
42.66025403784441
 21
26.53291312439668
 31
0.0
  0
LINE
  5
128
330
1F
100
AcDbEntity
  8
0
100
AcDbLine
 10
1.499999513333137
 20
31.53170481966056
 30
0.0
 11
1.456701419864464
 21
31.89071331076452
 31
0.0
  0
LINE
  5
129
330
1F
100
AcDbEntity
  8
0
100
AcDbLine
 10
1.456701419864464
 20
31.89071331076452
 30
0.0
 11
1.328745134767469
 21
32.22892775558753
 31
0.0
  0
LINE
  5
12A
330
1F
100
AcDbEntity
  8
0
100
AcDbLine
 10
1.328745134767469
 20
32.22892775558753
 30
0.0
 11
1.123567012229845
 21
32.52669235995593
 31
0.0
  0
LINE
  5
12B
330
1F
100
AcDbEntity
  8
0
100
AcDbLine
 10
1.123567012229845
 20
32.52669235995593
 30
0.0
 11
0.853091258941345
 21
32.76670212739426
 31
0.0
  0
LINE
  5
12C
330
1F
100
AcDbEntity
  8
0
100
AcDbLine
 10
0.853091258941345
 20
32.76670212739426
 30
0.0
 11
0.5330369425437196
 21
32.93500856261886
 31
0.0
  0
LINE
  5
12D
330
1F
100
AcDbEntity
  8
0
100
AcDbLine
 10
0.5330369425437196
 20
32.93500856261886
 30
0.0
 11
0.18200445655593
 21
33.02183030738351
 31
0.0
  0
LINE
  5
12E
330
1F
100
AcDbEntity
  8
0
100
AcDbLine
 10
-0.1796054668876159
 20
33.02212159746683
 30
0.0
 11
-0.5307773734349862
 21
32.93586550414774
 31
0.0
  0
LINE
  5
12F
330
1F
100
AcDbEntity
  8
0
100
AcDbLine
 10
-0.5307773734349862
 20
32.93586550414774
 30
0.0
 11
-0.8511024283355588
 21
32.76807491804201
 31
0.0
  0
LINE
  5
130
330
1F
100
AcDbEntity
  8
0
100
AcDbLine
 10
-0.8511024283355588
 20
32.76807491804201
 30
0.0
 11
-1.12196450373271
 21
32.52850121812004
 31
0.0
  0
LINE
  5
131
330
1F
100
AcDbEntity
  8
0
100
AcDbLine
 10
-1.12196450373271
 20
32.52850121812004
 30
0.0
 11
-1.327622080347963
 21
32.23106755700626
 31
0.0
  0
LINE
  5
132
330
1F
100
AcDbEntity
  8
0
100
AcDbLine
 10
-1.327622080347963
 20
32.23106755700626
 30
0.0
 11
-1.456123087363296
 21
31.89305969795749
 31
0.0
  0
LINE
  5
133
330
1F
100
AcDbEntity
  8
0
100
AcDbLine
 10
-1.456123087363296
 20
31.89305969795749
 30
0.0
 11
-1.499999513333137
 21
31.5341214291327
 31
0.0
  0
LINE
  5
134
330
1F
100
AcDbEntity
  8
0
100
AcDbLine
 10
-1.499999513333137
 20
31.5341214291327
 30
0.0
 11
-1.456701419864464
 21
31.17511293802874
 31
0.0
  0
LINE
  5
135
330
1F
100
AcDbEntity
  8
0
100
AcDbLine
 10
-1.456701419864464
 20
31.17511293802874
 30
0.0
 11
-1.328745134767469
 21
30.83689849320572
 31
0.0
  0
LINE
  5
136
330
1F
100
AcDbEntity
  8
0
100
AcDbLine
 10
-1.328745134767469
 20
30.83689849320572
 30
0.0
 11
-1.123567012229845
 21
30.53913388883733
 31
0.0
  0
LINE
  5
137
330
1F
100
AcDbEntity
  8
0
100
AcDbLine
 10
-1.123567012229845
 20
30.53913388883733
 30
0.0
 11
-0.853091258941345
 21
30.299124121399
 31
0.0
  0
LINE
  5
138
330
1F
100
AcDbEntity
  8
0
100
AcDbLine
 10
-0.853091258941345
 20
30.299124121399
 30
0.0
 11
-0.5330369425437196
 21
30.13081768617439
 31
0.0
  0
LINE
  5
139
330
1F
100
AcDbEntity
  8
0
100
AcDbLine
 10
-0.5330369425437196
 20
30.13081768617439
 30
0.0
 11
-0.18200445655593
 21
30.04399594140975
 31
0.0
  0
LINE
  5
13A
330
1F
100
AcDbEntity
  8
0
100
AcDbLine
 10
-0.18200445655593
 20
30.04399594140975
 30
0.0
 11
0.1796054668876159
 21
30.04370465132643
 31
0.0
  0
LINE
  5
13B
330
1F
100
AcDbEntity
  8
0
100
AcDbLine
 10
0.1796054668876159
 20
30.04370465132643
 30
0.0
 11
0.5307773734349636
 21
30.12996074464552
 31
0.0
  0
LINE
  5
13C
330
1F
100
AcDbEntity
  8
0
100
AcDbLine
 10
0.5307773734349636
 20
30.12996074464552
 30
0.0
 11
0.8511024283355363
 21
30.29775133075125
 31
0.0
  0
LINE
  5
13D
330
1F
100
AcDbEntity
  8
0
100
AcDbLine
 10
0.8511024283355363
 20
30.29775133075125
 30
0.0
 11
1.12196450373271
 21
30.53732503067322
 31
0.0
  0
LINE
  5
13E
330
1F
100
AcDbEntity
  8
0
100
AcDbLine
 10
1.12196450373271
 20
30.53732503067322
 30
0.0
 11
1.327622080347963
 21
30.83475869178699
 31
0.0
  0
LINE
  5
13F
330
1F
100
AcDbEntity
  8
0
100
AcDbLine
 10
1.327622080347963
 20
30.83475869178699
 30
0.0
 11
1.456123087363296
 21
31.17276655083577
 31
0.0
  0
LINE
  5
140
330
1F
100
AcDbEntity
  8
0
100
AcDbLine
 10
1.456123087363296
 20
31.17276655083577
 30
0.0
 11
1.499999513333137
 21
31.53170481966056
 31
0.0
  0
LINE
  5
141
330
1F
100
AcDbEntity
  8
0
100
AcDbLine
 10
44.2584365938005
 20
7.46558143303823
 30
0.0
 11
44.0693716990163
 21
7.157334312787255
 31
0.0
  0
LINE
  5
142
330
1F
100
AcDbEntity
  8
0
100
AcDbLine
 10
44.0693716990163
 20
7.157334312787255
 30
0.0
 11
43.95956905081066
 21
6.812798102745694
 31
0.0
  0
LINE
  5
143
330
1F
100
AcDbEntity
  8
0
100
AcDbLine
 10
43.95956905081066
 20
6.812798102745694
 30
0.0
 11
43.93540997998088
 21
6.451995995103051
 31
0.0
  0
LINE
  5
144
330
1F
100
AcDbEntity
  8
0
100
AcDbLine
 10
43.93540997998088
 20
6.451995995103051
 30
0.0
 11
43.99829852390896
 21
6.095896496893114
 31
0.0
  0
LINE
  5
145
330
1F
100
AcDbEntity
  8
0
100
AcDbLine
 10
43.99829852390896
 20
6.095896496893114
 30
0.0
 11
44.14457982901235
 21
5.765194816582857
 31
0.0
  0
LINE
  5
146
330
1F
100
AcDbEntity
  8
0
100
AcDbLine
 10
44.14457982901235
 20
5.765194816582857
 30
0.0
 11
44.36575255754935
 21
5.47911013378024
 31
0.0
  0
LINE
  5
147
330
1F
100
AcDbEntity
  8
0
100
AcDbLine
 10
44.36575255754935
 20
5.47911013378024
 30
0.0
 11
44.64896295446753
 21
5.254268650374242
 31
0.0
  0
LINE
  5
148
330
1F
100
AcDbEntity
  8
0
100
AcDbLine
 10
44.64896295446753
 20
5.254268650374242
 30
0.0
 11
44.97775186092593
 21
5.103737336114877
 31
0.0
  0
LINE
  5
149
330
1F
100
AcDbEntity
  8
0
100
AcDbLine
 10
44.97775186092593
 20
5.103737336114877
 30
0.0
 11
45.33301126078023
 21
5.036264523827833
 31
0.0
  0
LINE
  5
14A
330
1F
100
AcDbEntity
  8
0
100
AcDbLine
 10
45.33301126078023
 20
5.036264523827833
 30
0.0
 11
45.69409476902629
 21
5.055771488109516
 31
0.0
  0
LINE
  5
14B
330
1F
100
AcDbEntity
  8
0
100
AcDbLine
 10
45.69409476902629
 20
5.055771488109516
 30
0.0
 11
46.04001752464998
 21
5.161124555100828
 31
0.0
  0
LINE
  5
14C
330
1F
100
AcDbEntity
  8
0
100
AcDbLine
 10
46.04001752464998
 20
5.161124555100828
 30
0.0
 11
46.3506757544725
 21
5.346200987491071
 31
0.0
  0
LINE
  5
14D
330
1F
100
AcDbEntity
  8
0
100
AcDbLine
 10
46.3506757544725
 20
5.346200987491071
 30
0.0
 11
46.60801513137331
 21
5.600244815755121
 31
0.0
  0
LINE
  5
14E
330
1F
100
AcDbEntity
  8
0
100
AcDbLine
 10
46.60801513137331
 20
5.600244815755121
 30
0.0
 11
46.79708002615752
 21
5.908491936006095
 31
0.0
  0
LINE
  5
14F
330
1F
100
AcDbEntity
  8
0
100
AcDbLine
 10
46.79708002615752
 20
5.908491936006095
 30
0.0
 11
46.90688267436315
 21
6.253028146047657
 31
0.0
  0
LINE
  5
150
330
1F
100
AcDbEntity
  8
0
100
AcDbLine
 10
46.90688267436315
 20
6.253028146047657
 30
0.0
 11
46.93104174519293
 21
6.6138302536903
 31
0.0
  0
LINE
  5
151
330
1F
100
AcDbEntity
  8
0
100
AcDbLine
 10
46.93104174519293
 20
6.6138302536903
 30
0.0
 11
46.86815320126485
 21
6.969929751900237
 31
0.0
  0
LINE
  5
152
330
1F
100
AcDbEntity
  8
0
100
AcDbLine
 10
46.86815320126485
 20
6.969929751900237
 30
0.0
 11
46.72187189616147
 21
7.300631432210494
 31
0.0
  0
LINE
  5
153
330
1F
100
AcDbEntity
  8
0
100
AcDbLine
 10
46.72187189616147
 20
7.300631432210494
 30
0.0
 11
46.50069916762448
 21
7.586716115013111
 31
0.0
  0
LINE
  5
154
330
1F
100
AcDbEntity
  8
0
100
AcDbLine
 10
46.50069916762448
 20
7.586716115013111
 30
0.0
 11
46.2174887707063
 21
7.811557598419109
 31
0.0
  0
LINE
  5
155
330
1F
100
AcDbEntity
  8
0
100
AcDbLine
 10
46.2174887707063
 20
7.811557598419109
 30
0.0
 11
45.88869986424789
 21
7.962088912678473
 31
0.0
  0
LINE
  5
156
330
1F
100
AcDbEntity
  8
0
100
AcDbLine
 10
45.88869986424789
 20
7.962088912678473
 30
0.0
 11
45.53344046439359
 21
8.029561724965516
 31
0.0
  0
LINE
  5
157
330
1F
100
AcDbEntity
  8
0
100
AcDbLine
 10
45.17235695614753
 20
8.010054760683834
 30
0.0
 11
44.82643420052384
 21
7.904701693692522
 31
0.0
  0
LINE
  5
158
330
1F
100
AcDbEntity
  8
0
100
AcDbLine
 10
44.82643420052384
 20
7.904701693692522
 30
0.0
 11
44.51577597070131
 21
7.719625261302324
 31
0.0
  0
LINE
  5
159
330
1F
100
AcDbEntity
  8
0
100
AcDbLine
 10
44.51577597070131
 20
7.719625261302324
 30
0.0
 11
44.2584365938005
 21
7.46558143303823
 31
0.0
  0
LINE
  5
15A
330
1F
100
AcDbEntity
  8
0
100
AcDbLine
 10
-32.51946775765053
 20
9.532913124396714
 30
0.0
 11
-32.83910256993058
 21
8.319547003618814
 31
0.0
  0
LINE
  5
15B
330
1F
100
AcDbEntity
  8
0
100
AcDbLine
 10
-25.57269145508867
 20
16.19631100903923
 30
0.0
 11
-26.76354991864031
 21
15.79766849137223
 31
0.0
  0
LINE
  5
15C
330
1F
100
AcDbEntity
  8
0
100
AcDbLine
 10
-26.76354991864031
 20
15.79766849137223
 30
0.0
 11
-27.89505495173923
 21
15.25291524707148
 31
0.0
  0
LINE
  5
15D
330
1F
100
AcDbEntity
  8
0
100
AcDbLine
 10
-27.89505495173923
 20
15.25291524707148
 30
0.0
 11
-28.94936204408517
 21
14.57064236021933
 31
0.0
  0
LINE
  5
15E
330
1F
100
AcDbEntity
  8
0
100
AcDbLine
 10
-29.90984414301925
 20
13.76160968181163
 30
0.0
 11
-30.76135387207709
 21
12.83857614047938
 31
0.0
  0
LINE
  5
15F
330
1F
100
AcDbEntity
  8
0
100
AcDbLine
 10
-31.49046241416422
 20
11.8160985265631
 30
0.0
 11
-32.08567129202358
 21
10.71030192283259
 31
0.0
  0
LINE
  5
160
330
1F
100
AcDbEntity
  8
0
100
AcDbLine
 10
45.95288386138277
 20
-34.0321729649454
 30
0.0
 11
46.31304933542144
 21
-33.99988282878478
 31
0.0
  0
LINE
  5
161
330
1F
100
AcDbEntity
  8
0
100
AcDbLine
 10
46.95892623469095
 20
-33.68636900843457
 30
0.0
 11
47.20710164220326
 21
-33.42336560790741
 31
0.0
  0
LINE
  5
162
330
1F
100
AcDbEntity
  8
0
100
AcDbLine
 10
47.48264932535608
 20
-32.76040153733516
 30
0.0
 11
47.49400777122682
 21
-32.3989699292955
 31
0.0
  0
LINE
  5
163
330
1F
100
AcDbEntity
  8
0
100
AcDbLine
 10
47.49400777122682
 20
-32.3989699292955
 30
0.0
 11
47.41853991593115
 21
-32.04532261289134
 31
0.0
  0
LINE
  5
164
330
1F
100
AcDbEntity
  8
0
100
AcDbLine
 10
46.73846005766173
 20
-31.22728042595581
 30
0.0
 11
46.40454339393968
 21
-31.08849468003243
 31
0.0
  0
LINE
  5
165
330
1F
100
AcDbEntity
  8
0
100
AcDbLine
 10
45.04107376530906
 20
-31.37945724035895
 30
0.0
 11
44.79289835779675
 21
-31.64246064088611
 31
0.0
  0
LINE
  5
166
330
1F
100
AcDbEntity
  8
0
100
AcDbLine
 10
44.79289835779675
 20
-31.64246064088611
 30
0.0
 11
44.61487531009335
 21
-31.95721390309188
 31
0.0
  0
LINE
  5
167
330
1F
100
AcDbEntity
  8
0
100
AcDbLine
 10
44.61487531009335
 20
-31.95721390309188
 30
0.0
 11
44.51735067464393
 21
-32.30542471145831
 31
0.0
  0
LINE
  5
168
330
1F
100
AcDbEntity
  8
0
100
AcDbLine
 10
44.58146008406887
 20
-33.02050363590219
 30
0.0
 11
44.73936832309566
 21
-33.345813964097
 31
0.0
  0
LINE
  5
169
330
1F
100
AcDbEntity
  8
0
100
AcDbLine
 10
44.97053989297441
 20
-33.62388145026279
 30
0.0
 11
45.26153994233827
 21
-33.83854582283772
 31
0.0
  0
LINE
  5
16A
330
1F
100
AcDbEntity
  8
0
100
AcDbLine
 10
45.26153994233827
 20
-33.83854582283772
 30
0.0
 11
45.59545660606034
 21
-33.9773315687611
 31
0.0
  0
LINE
  5
16B
330
1F
100
AcDbEntity
  8
0
100
AcDbLine
 10
-44.93933982822021
 20
-31.47225295261696
 30
0.0
 11
-45.22399327873354
 21
-31.24924121594463
 31
0.0
  0
LINE
  5
16C
330
1F
100
AcDbEntity
  8
0
100
AcDbLine
 10
-45.5537454192172
 20
-31.10083182463398
 30
0.0
 11
-45.90943225386658
 21
-31.03564979306184
 31
0.0
  0
LINE
  5
16D
330
1F
100
AcDbEntity
  8
0
100
AcDbLine
 10
-46.27038255672084
 20
-31.0574832639761
 30
0.0
 11
-46.61561920817913
 21
-31.1650633554087
 31
0.0
  0
LINE
  5
16E
330
1F
100
AcDbEntity
  8
0
100
AcDbLine
 10
-46.92507830894281
 20
-31.35213790348318
 30
0.0
 11
-47.18077522091355
 21
-31.60783481545396
 31
0.0
  0
LINE
  5
16F
330
1F
100
AcDbEntity
  8
0
100
AcDbLine
 10
-47.43208129976279
 20
-32.97916770517957
 30
0.0
 11
-47.28367190845216
 21
-33.30891984566325
 31
0.0
  0
LINE
  5
170
330
1F
100
AcDbEntity
  8
0
100
AcDbLine
 10
-47.28367190845216
 20
-33.30891984566325
 30
0.0
 11
-47.06066017177981
 21
-33.59357329617657
 31
0.0
  0
LINE
  5
171
330
1F
100
AcDbEntity
  8
0
100
AcDbLine
 10
-47.06066017177981
 20
-33.59357329617657
 30
0.0
 11
-46.77600672126648
 21
-33.8165850328489
 31
0.0
  0
LINE
  5
172
330
1F
100
AcDbEntity
  8
0
100
AcDbLine
 10
-46.09056774613343
 20
-34.03017645573169
 30
0.0
 11
-45.72961744327917
 21
-34.00834298481742
 31
0.0
  0
LINE
  5
173
330
1F
100
AcDbEntity
  8
0
100
AcDbLine
 10
-45.72961744327917
 20
-34.00834298481742
 30
0.0
 11
-45.38438079182088
 21
-33.90076289338487
 31
0.0
  0
LINE
  5
174
330
1F
100
AcDbEntity
  8
0
100
AcDbLine
 10
-45.38438079182088
 20
-33.90076289338487
 30
0.0
 11
-45.07492169105721
 21
-33.71368834531035
 31
0.0
  0
LINE
  5
175
330
1F
100
AcDbEntity
  8
0
100
AcDbLine
 10
-45.07492169105721
 20
-33.71368834531035
 30
0.0
 11
-44.81922477908646
 21
-33.45799143333956
 31
0.0
  0
LINE
  5
176
330
1F
100
AcDbEntity
  8
0
100
AcDbLine
 10
-44.81922477908646
 20
-33.45799143333956
 30
0.0
 11
-44.6321502310119
 21
-33.14853233257589
 31
0.0
  0
LINE
  5
177
330
1F
100
AcDbEntity
  8
0
100
AcDbLine
 10
-44.6321502310119
 20
-33.14853233257589
 30
0.0
 11
-44.52457013957934
 21
-32.80329568111762
 31
0.0
  0
LINE
  5
178
330
1F
100
AcDbEntity
  8
0
100
AcDbLine
 10
-44.52457013957934
 20
-32.80329568111762
 30
0.0
 11
-44.50273666866506
 21
-32.44234537826336
 31
0.0
  0
LINE
  5
179
330
1F
100
AcDbEntity
  8
0
100
AcDbLine
 10
-44.50273666866506
 20
-32.44234537826336
 30
0.0
 11
-44.5679187002372
 21
-32.08665854361396
 31
0.0
  0
LINE
  5
17A
330
1F
100
AcDbEntity
  8
0
100
AcDbLine
 10
-44.5679187002372
 20
-32.08665854361396
 30
0.0
 11
-44.71632809154784
 21
-31.75690640313027
 31
0.0
  0
LINE
  5
17B
330
1F
100
AcDbEntity
  8
0
100
AcDbLine
 10
-44.71632809154784
 20
-31.75690640313027
 30
0.0
 11
-44.93933982822021
 21
-31.47225295261696
 31
0.0
  0
LINE
  5
17C
330
1F
100
AcDbEntity
  8
0
100
AcDbLine
 10
34.00000000000003
 20
-8.467086875603208
 30
0.0
 11
24.00000000000005
 21
-8.467086875603252
 31
0.0
  0
LINE
  5
17D
330
1F
100
AcDbEntity
  8
0
100
AcDbLine
 10
34.00000000000003
 20
-8.467086875603208
 30
0.0
 11
34.00000000000003
 21
-18.46708687560323
 31
0.0
  0
LINE
  5
17E
330
1F
100
AcDbEntity
  8
0
100
AcDbLine
 10
34.00000000000003
 20
21.53291312439674
 30
0.0
 11
34.00000000000003
 21
11.53291312439676
 31
0.0
  0
LINE
  5
17F
330
1F
100
AcDbEntity
  8
0
100
AcDbLine
 10
34.00000000000003
 20
21.53291312439674
 30
0.0
 11
24.00000000000005
 21
21.53291312439674
 31
0.0
  0
LINE
  5
180
330
1F
100
AcDbEntity
  8
0
100
AcDbLine
 10
34.00000000000003
 20
-8.467086875603208
 30
0.0
 11
34.00000000000003
 21
1.532913124396729
 31
0.0
  0
LINE
  5
181
330
1F
100
AcDbEntity
  8
0
100
AcDbLine
 10
34.00000000000003
 20
21.53291312439674
 30
0.0
 11
44.00000000000001
 21
21.53291312439674
 31
0.0
  0
LINE
  5
182
330
1F
100
AcDbEntity
  8
0
100
AcDbLine
 10
34.00000000000003
 20
21.53291312439674
 30
0.0
 11
34.00000000000003
 21
31.53291312439672
 31
0.0
  0
LINE
  5
183
330
1F
100
AcDbEntity
  8
0
100
AcDbLine
 10
34.00000000000003
 20
-8.467086875603208
 30
0.0
 11
44.00000000000001
 21
-8.467086875603252
 31
0.0
  0
LINE
  5
184
330
1F
100
AcDbEntity
  8
0
100
AcDbLine
 10
44.31078027240594
 20
32.4283617549633
 30
0.0
 11
45.8733786585594
 21
31.37406350531736
 31
0.0
  0
LINE
  5
185
330
1F
100
AcDbEntity
  8
0
100
AcDbLine
 10
41.07106781186548
 20
28.60398093626214
 30
0.0
 11
42.66025403784441
 21
26.53291312439668
 31
0.0
  0
LINE
  5
186
330
1F
100
AcDbEntity
  8
0
100
AcDbLine
 10
46.04711613861724
 20
-31.03365328384817
 30
0.0
 11
45.68695066457857
 21
-31.06594342000875
 31
0.0
  0
LINE
  5
187
330
1F
100
AcDbEntity
  8
0
100
AcDbLine
 10
50.0
 20
-36.53291312439676
 30
0.0
 11
40.00000000000001
 21
-36.53291312439676
 31
0.0
  0
LINE
  5
188
330
1F
100
AcDbEntity
  8
0
100
AcDbLine
 10
40.00000000000001
 20
-36.53291312439676
 30
0.0
 11
40.00000000000001
 21
-29.46708687560317
 31
0.0
  0
LINE
  5
189
330
1F
100
AcDbEntity
  8
0
100
AcDbLine
 10
-39.99999999999993
 20
-29.46708687560317
 30
0.0
 11
40.00000000000001
 21
-29.46708687560317
 31
0.0
  0
LINE
  5
18A
330
1F
100
AcDbEntity
  8
0
100
AcDbLine
 10
-39.99999999999993
 20
-29.46708687560317
 30
0.0
 11
-39.99999999999993
 21
-36.53291312439676
 31
0.0
  0
LINE
  5
18B
330
1F
100
AcDbEntity
  8
0
100
AcDbLine
 10
-20.21731848224308
 20
33.53291312439671
 30
0.0
 11
-19.2730304853015
 21
32.1432233983582
 31
0.0
  0
LINE
  5
18C
330
1F
100
AcDbEntity
  8
0
100
AcDbLine
 10
25.33974596215565
 20
26.53291312439668
 30
0.0
 11
24.34074173710938
 21
24.1211035754219
 31
0.0
  0
LINE
  5
18D
330
1F
100
AcDbEntity
  8
0
100
AcDbLine
 10
0.18200445655593
 20
33.02183030738351
 30
0.0
 11
-0.1796054668876159
 21
33.02212159746683
 31
0.0
  0
LINE
  5
18E
330
1F
100
AcDbEntity
  8
0
100
AcDbLine
 10
45.53344046439359
 20
8.029561724965516
 30
0.0
 11
45.17235695614753
 21
8.010054760683834
 31
0.0
  0
LINE
  5
18F
330
1F
100
AcDbEntity
  8
0
100
AcDbLine
 10
-45.90943225386658
 20
-31.03564979306184
 30
0.0
 11
-46.27038255672084
 21
-31.0574832639761
 31
0.0
  0
LINE
  5
190
330
1F
100
AcDbEntity
  8
0
100
AcDbLine
 10
-33.04585214443987
 20
29.42572541760465
 30
0.0
 11
-35.77697738118451
 21
28.02125528941022
 31
0.0
  0
LINE
  5
191
330
1F
100
AcDbEntity
  8
0
100
AcDbLine
 10
-27.17231177488571
 20
31.18229069165285
 30
0.0
 11
-30.16312967212662
 21
30.48473086961803
 31
0.0
  0
LINE
  5
192
330
1F
100
AcDbEntity
  8
0
100
AcDbLine
 10
-40.6224892617867
 20
24.26559121368176
 30
0.0
 11
-42.66375456208354
 21
21.97107222845244
 31
0.0
  0
LINE
  5
193
330
1F
100
AcDbEntity
  8
0
100
AcDbLine
 10
-44.4082833795364
 20
19.44358323641897
 30
0.0
 11
-45.82974984927161
 21
16.72126538664601
 31
0.0
  0
LINE
  5
194
330
1F
100
AcDbEntity
  8
0
100
AcDbLine
 10
-45.82974984927161
 20
16.72126538664601
 30
0.0
 11
-46.90670328854306
 21
13.8451998989675
 31
0.0
  0
LINE
  5
195
330
1F
100
AcDbEntity
  8
0
100
AcDbLine
 10
-46.90670328854306
 20
13.8451998989675
 30
0.0
 11
-47.62289189890865
 21
10.85878812659645
 31
0.0
  0
LINE
  5
196
330
1F
100
AcDbEntity
  8
0
100
AcDbLine
 10
-21.0478719532551
 20
31.45658051282725
 30
0.0
 11
-24.11853148063668
 21
31.5078783361207
 31
0.0
  0
LINE
  5
197
330
1F
100
AcDbEntity
  8
0
100
AcDbLine
 10
-30.16312967212662
 20
30.48473086961803
 30
0.0
 11
-33.04585214443987
 21
29.42572541760465
 31
0.0
  0
LINE
  5
198
330
1F
100
AcDbEntity
  8
0
100
AcDbLine
 10
-35.77697738118451
 20
28.02125528941022
 30
0.0
 11
-38.31529125438719
 21
26.29251468397499
 31
0.0
  0
LINE
  5
199
330
1F
100
AcDbEntity
  8
0
100
AcDbLine
 10
-38.31529125438719
 20
26.29251468397499
 30
0.0
 11
-40.6224892617867
 21
24.26559121368176
 31
0.0
  0
LINE
  5
19A
330
1F
100
AcDbEntity
  8
0
100
AcDbLine
 10
-42.66375456208354
 20
21.97107222845244
 30
0.0
 11
-44.4082833795364
 21
19.44358323641897
 31
0.0
  0
LINE
  5
19B
330
1F
100
AcDbEntity
  8
0
100
AcDbLine
 10
-47.62289189890865
 20
10.85878812659645
 30
0.0
 11
-47.96750801448641
 21
7.807096606691835
 31
0.0
  0
LINE
  5
19C
330
1F
100
AcDbEntity
  8
0
100
AcDbLine
 10
-47.96750801448641
 20
7.807096606691835
 30
0.0
 11
-47.93535119536318
 21
4.736176982416733
 31
0.0
  0
LINE
  5
19D
330
1F
100
AcDbEntity
  8
0
100
AcDbLine
 10
-22.99999999999996
 20
6.53291312439672
 30
0.0
 11
-22.99999999999996
 21
11.53291312439671
 31
0.0
  0
LINE
  5
19E
330
1F
100
AcDbEntity
  8
0
100
AcDbLine
 10
-18.01730629268055
 20
30.97699710497988
 30
0.0
 11
-21.0478719532551
 21
31.45658051282725
 31
0.0
  0
LINE
  5
19F
330
1F
100
AcDbEntity
  8
0
100
AcDbLine
 10
-24.11853148063668
 20
31.5078783361207
 30
0.0
 11
-27.17231177488571
 21
31.18229069165285
 31
0.0
  0
LINE
  5
1A0
330
1F
100
AcDbEntity
  8
0
100
AcDbLine
 10
-37.89815707249245
 20
-13.54306545308097
 30
0.0
 11
-35.32419910167609
 21
-15.21827342949603
 31
0.0
  0
LINE
  5
1A1
330
1F
100
AcDbEntity
  8
0
100
AcDbLine
 10
-45.6113946540551
 20
-4.131271410698647
 30
0.0
 11
-44.13323318602175
 21
-6.823226104633012
 31
0.0
  0
LINE
  5
1A2
330
1F
100
AcDbEntity
  8
0
100
AcDbLine
 10
-17.49480213960008
 20
-17.85341084043752
 30
0.0
 11
-14.54629463870588
 21
-16.99440856049606
 31
0.0
  0
LINE
  5
1A3
330
1F
100
AcDbEntity
  8
0
100
AcDbLine
 10
-11.87560550922196
 20
28.92147822387434
 30
0.0
 11
-14.72190159313357
 21
30.06745370049758
 31
0.0
  0
LINE
  5
1A4
330
1F
100
AcDbEntity
  8
0
100
AcDbLine
 10
-2.62352848369856
 20
21.01736715433373
 30
0.0
 11
-4.553236137686074
 21
23.40646944806574
 31
0.0
  0
LINE
  5
1A5
330
1F
100
AcDbEntity
  8
0
100
AcDbLine
 10
-35.32419910167609
 20
-15.21827342949603
 30
0.0
 11
-32.56426243163656
 21
-16.56524446747159
 31
0.0
  0
LINE
  5
1A6
330
1F
100
AcDbEntity
  8
0
100
AcDbLine
 10
-1.001312589304873
 20
18.40968676905823
 30
0.0
 11
-2.623528483698559
 21
21.01736715433373
 31
0.0
  0
LINE
  5
1A7
330
1F
100
AcDbEntity
  8
0
100
AcDbLine
 10
1.26863298742321
 20
0.5301260282424343
 30
0.0
 11
1.821530919471115
 21
3.55103405009794
 31
0.0
  0
LINE
  5
1A8
330
1F
100
AcDbEntity
  8
0
100
AcDbLine
 10
0.2889314474853263
 20
15.62277957194867
 30
0.0
 11
-1.001312589304873
 21
18.40968676905823
 31
0.0
  0
LINE
  5
1A9
330
1F
100
AcDbEntity
  8
0
100
AcDbLine
 10
-4.553236137686074
 20
23.40646944806574
 30
0.0
 11
-6.761315239561345
 21
25.54094082984525
 31
0.0
  0
LINE
  5
1AA
330
1F
100
AcDbEntity
  8
0
100
AcDbLine
 10
-26.65522663808516
 20
-18.19842970659876
 30
0.0
 11
-23.59529799790298
 21
-18.45999827651237
 31
0.0
  0
LINE
  5
1AB
330
1F
100
AcDbEntity
  8
0
100
AcDbLine
 10
-6.633907723182966
 20
-12.36552658862485
 30
0.0
 11
-4.440226701547328
 21
-10.21626044058982
 31
0.0
  0
LINE
  5
1AC
330
1F
100
AcDbEntity
  8
0
100
AcDbLine
 10
1.227733160018436
 20
12.69870147033798
 30
0.0
 11
0.2889314474853263
 21
15.62277957194867
 31
0.0
  0
LINE
  5
1AD
330
1F
100
AcDbEntity
  8
0
100
AcDbLine
 10
-47.93535119536318
 20
4.736176982416733
 30
0.0
 11
-47.52690670499033
 21
1.692371059224903
 31
0.0
  0
LINE
  5
1AE
330
1F
100
AcDbEntity
  8
0
100
AcDbLine
 10
-42.33616002353342
 20
-9.313629575646864
 30
0.0
 11
-40.24729395349149
 21
-11.56490031485206
 31
0.0
  0
LINE
  5
1AF
330
1F
100
AcDbEntity
  8
0
100
AcDbLine
 10
1.800925532662383
 20
9.68157835324177
 30
0.0
 11
1.227733160018436
 21
12.69870147033798
 31
0.0
  0
LINE
  5
1B0
330
1F
100
AcDbEntity
  8
0
100
AcDbLine
 10
-9.074561755226647
 20
-14.22960526068858
 30
0.0
 11
-6.633907723182966
 21
-12.36552658862485
 31
0.0
  0
LINE
  5
1B1
330
1F
100
AcDbEntity
  8
0
100
AcDbLine
 10
1.99985878858465
 20
6.616940208295105
 30
0.0
 11
1.800925532662383
 21
9.68157835324177
 31
0.0
  0
LINE
  5
1B2
330
1F
100
AcDbEntity
  8
0
100
AcDbLine
 10
-2.526622500112785
 20
-7.814240382383411
 30
0.0
 11
-0.9219724209478137
 21
-5.195714170330178
 31
0.0
  0
LINE
  5
1B3
330
1F
100
AcDbEntity
  8
0
100
AcDbLine
 10
-20.52638599528182
 20
-18.34441056115396
 30
0.0
 11
-17.49480213960008
 21
-17.85341084043752
 31
0.0
  0
LINE
  5
1B4
330
1F
100
AcDbEntity
  8
0
100
AcDbLine
 10
-6.761315239561345
 20
25.54094082984525
 30
0.0
 11
-9.21444470486593
 21
27.38857099473975
 31
0.0
  0
LINE
  5
1B5
330
1F
100
AcDbEntity
  8
0
100
AcDbLine
 10
-9.21444470486593
 20
27.38857099473975
 30
0.0
 11
-11.87560550922196
 21
28.92147822387434
 31
0.0
  0
LINE
  5
1B6
330
1F
100
AcDbEntity
  8
0
100
AcDbLine
 10
-40.24729395349149
 20
-11.56490031485206
 30
0.0
 11
-37.89815707249245
 21
-13.54306545308097
 31
0.0
  0
LINE
  5
1B7
330
1F
100
AcDbEntity
  8
0
100
AcDbLine
 10
-29.65999597015259
 20
-17.56365205982715
 30
0.0
 11
-26.65522663808516
 21
-18.19842970659876
 31
0.0
  0
LINE
  5
1B8
330
1F
100
AcDbEntity
  8
0
100
AcDbLine
 10
-11.7253580342033
 20
-15.7803665212111
 30
0.0
 11
-9.074561755226647
 21
-14.22960526068858
 31
0.0
  0
LINE
  5
1B9
330
1F
100
AcDbEntity
  8
0
100
AcDbLine
 10
-46.74833818730103
 20
-1.278388517556295
 30
0.0
 11
-45.6113946540551
 21
-4.131271410698647
 31
0.0
  0
LINE
  5
1BA
330
1F
100
AcDbEntity
  8
0
100
AcDbLine
 10
-22.99999999999996
 20
6.53291312439672
 30
0.0
 11
-17.99999999999997
 21
6.53291312439672
 31
0.0
  0
LINE
  5
1BB
330
1F
100
AcDbEntity
  8
0
100
AcDbLine
 10
1.821530919471115
 20
3.55103405009794
 30
0.0
 11
1.99985878858465
 21
6.616940208295105
 31
0.0
  0
LINE
  5
1BC
330
1F
100
AcDbEntity
  8
0
100
AcDbLine
 10
-0.9219724209478137
 20
-5.195714170330178
 30
0.0
 11
0.3495085154038875
 21
-2.400196753416481
 31
0.0
  0
LINE
  5
1BD
330
1F
100
AcDbEntity
  8
0
100
AcDbLine
 10
-32.56426243163656
 20
-16.56524446747159
 30
0.0
 11
-29.65999597015259
 21
-17.56365205982715
 31
0.0
  0
LINE
  5
1BE
330
1F
100
AcDbEntity
  8
0
100
AcDbLine
 10
-47.52690670499033
 20
1.692371059224903
 30
0.0
 11
-46.74833818730103
 21
-1.278388517556295
 31
0.0
  0
LINE
  5
1BF
330
1F
100
AcDbEntity
  8
0
100
AcDbLine
 10
-44.13323318602175
 20
-6.823226104633012
 30
0.0
 11
-42.33616002353342
 21
-9.313629575646864
 31
0.0
  0
LINE
  5
1C0
330
1F
100
AcDbEntity
  8
0
100
AcDbLine
 10
-4.440226701547328
 20
-10.21626044058982
 30
0.0
 11
-2.526622500112785
 21
-7.814240382383411
 31
0.0
  0
LINE
  5
1C1
330
1F
100
AcDbEntity
  8
0
100
AcDbLine
 10
-23.59529799790298
 20
-18.45999827651237
 30
0.0
 11
-20.52638599528182
 21
-18.34441056115396
 31
0.0
  0
LINE
  5
1C2
330
1F
100
AcDbEntity
  8
0
100
AcDbLine
 10
-14.54629463870588
 20
-16.99440856049606
 30
0.0
 11
-11.7253580342033
 21
-15.7803665212111
 31
0.0
  0
LINE
  5
1C3
330
1F
100
AcDbEntity
  8
0
100
AcDbLine
 10
0.3495085154038877
 20
-2.400196753416481
 30
0.0
 11
1.26863298742321
 21
0.5301260282424343
 31
0.0
  0
LINE
  5
1C4
330
1F
100
AcDbEntity
  8
0
100
AcDbLine
 10
-46.00000000000001
 20
-32.53291312439676
 30
0.0
 11
-46.00000000000001
 21
-31.04112813242141
 31
0.0
  0
LINE
  5
1C5
330
1F
100
AcDbEntity
  8
0
100
AcDbLine
 10
46.00000000000001
 20
-32.53291312439676
 30
0.0
 11
46.00000000000001
 21
-31.03787741592349
 31
0.0
  0
LINE
  5
1C6
330
1F
100
AcDbEntity
  8
0
100
AcDbLine
 10
45.43322586258691
 20
6.532913124396675
 30
0.0
 11
45.43322586258691
 21
8.02414778992472
 31
0.0
  0
LINE
  5
1C7
330
1F
100
AcDbEntity
  8
0
100
AcDbLine
 10
0.0
 20
31.53291312439663
 30
0.0
 11
0.001199494834157
 21
33.02197595242517
 31
0.0
  0
ENDSEC
  0
SECTION
  2
OBJECTS
  0
DICTIONARY
  5
C
330
0
100
AcDbDictionary
  3
ACAD_GROUP
350
D
  3
ACAD_LAYOUT
350
1A
  3
ACAD_MATERIAL
350
43
  3
ACAD_MLEADERSTYLE
350
6B
  3
ACAD_MLINESTYLE
350
17
  3
ACAD_PLOTSETTINGS
350
19
  3
ACAD_SCALELIST
350
47
  3
ACAD_VISUALSTYLE
350
2A
  3
ACDBHEADERROUNDTRIPXREC
350
1C8
  3
ACDBVARIABLEDICTIONARY
350
1E9
  0
DICTIONARY
  5
1F0
330
8
100
AcDbDictionary
280
     1
  3
ACAD_XREC_ROUNDTRIP
360
1F1
  0
DICTIONARY
  5
D
102
{ACAD_REACTORS
330
C
102
}
330
C
100
AcDbDictionary
  0
DICTIONARY
  5
1A
102
{ACAD_REACTORS
330
C
102
}
330
C
100
AcDbDictionary
  0
DICTIONARY
  5
43
102
{ACAD_REACTORS
330
C
102
}
330
C
100
AcDbDictionary
  3
BYBLOCK
350
45
  3
BYLAYER
350
44
  3
GLOBAL
350
46
  0
DICTIONARY
  5
6B
102
{ACAD_REACTORS
330
C
102
}
330
C
100
AcDbDictionary
  3
STANDARD
350
6C
  0
DICTIONARY
  5
17
102
{ACAD_REACTORS
330
C
102
}
330
C
100
AcDbDictionary
  3
STANDARD
350
18
  0
DICTIONARY
  5
19
102
{ACAD_REACTORS
330
C
102
}
330
C
100
AcDbDictionary
  0
DICTIONARY
  5
47
102
{ACAD_REACTORS
330
C
102
}
330
C
100
AcDbDictionary
  3
A0
350
48
  3
A1
350
49
  3
A2
350
4A
  3
A3
350
4B
  3
A4
350
4C
  3
A5
350
4D
  3
A6
350
4E
  3
A7
350
4F
  3
A8
350
50
  3
A9
350
51
  3
B0
350
52
  3
B1
350
53
  3
B2
350
54
  3
B3
350
55
  3
B4
350
56
  3
B5
350
57
  3
B6
350
58
  3
B7
350
59
  3
B8
350
5A
  3
B9
350
5B
  3
C0
350
5C
  3
C1
350
5D
  3
C2
350
5E
  3
C3
350
5F
  3
C4
350
60
  3
C5
350
61
  3
C6
350
62
  3
C7
350
63
  3
C8
350
64
  3
C9
350
65
  3
D0
350
66
  3
D1
350
67
  3
D2
350
68
  0
DICTIONARY
  5
2A
102
{ACAD_REACTORS
330
C
102
}
330
C
100
AcDbDictionary
  3
2DWIREFRAME
350
2F
  3
BASIC
350
32
  3
BRIGHTEN
350
36
  3
COLORCHANGE
350
3A
  3
CONCEPTUAL
350
34
  3
DIM
350
35
  3
EDGECOLOROFF
350
3D
  3
FACEPATTERN
350
39
  3
FLAT
350
2B
  3
FLATWITHEDGES
350
2C
  3
GOURAUD
350
2D
  3
GOURAUDWITHEDGES
350
2E
  3
HIDDEN
350
31
  3
JITTEROFF
350
3B
  3
LINEPATTERN
350
38
  3
OVERHANGOFF
350
3C
  3
REALISTIC
350
33
  3
SHADED
350
42
  3
SHADED_WITH_EDGES
350
41
  3
SHADES_OF_GRAY
350
3E
  3
SKETCHY
350
3F
  3
THICKEN
350
37
  3
WIREFRAME
350
30
  3
X-RAY
350
40
  0
DICTIONARY
  5
1C8
102
{ACAD_REACTORS
330
C
102
}
330
C
100
AcDbDictionary
  3
CEPSNID
350
1D2
  3
CEPSNTYPE
350
1D1
  3
DIMSTYLEDATA
350
1E8
  3
FINGERPRINTGUID
350
1D3
  3
HYPERLINKBASE
350
1CB
  3
INSUNITS
350
1D0
  3
LAYOUTDICT
350
1CD
  3
LWETCUNION
350
1CF
  3
PLOTSETDICT
350
1CE
  3
PSVPSCALE
350
1D5
  3
PUCSBASE
350
1D8
  3
PUCSORGBACK
350
1DE
  3
PUCSORGBOTTOM
350
1DA
  3
PUCSORGFRONT
350
1DD
  3
PUCSORGLEFT
350
1DB
  3
PUCSORGRIGHT
350
1DC
  3
PUCSORGTOP
350
1D9
  3
PUCSORTHOREF
350
1D6
  3
PUCSORTHOVIEW
350
1D7
  3
STYLESHEET
350
1CC
  3
TSTACKALIGN
350
1C9
  3
TSTACKSIZE
350
1CA
  3
UCSBASE
350
1E1
  3
UCSORGBACK
350
1E7
  3
UCSORGBOTTOM
350
1E3
  3
UCSORGFRONT
350
1E6
  3
UCSORGLEFT
350
1E4
  3
UCSORGRIGHT
350
1E5
  3
UCSORGTOP
350
1E2
  3
UCSORTHOREF
350
1DF
  3
UCSORTHOVIEW
350
1E0
  3
VERSIONGUID
350
1D4
  0
DICTIONARY
  5
1E9
102
{ACAD_REACTORS
330
C
102
}
330
C
100
AcDbDictionary
  3
CANNOSCALE
350
1F2
  3
CMLEADERSTYLE
350
1EB
  3
CTABLESTYLE
350
1EA
  3
DIMASSOC
350
1EE
  3
HIDETEXT
350
1EF
  3
MSLTSCALE
350
1F3
  0
XRECORD
  5
1F1
102
{ACAD_REACTORS
330
1F0
102
}
330
1F0
100
AcDbXrecord
102
VTR_0.000_0.000_1.000_1.000_VISUALSTYLE
340
2F
102
VTR_0.000_0.000_1.000_1.000_GRIDDISPLAY
 70
     3
102
VTR_0.000_0.000_1.000_1.000_GRIDMAJOR
 70
     5
102
VTR_0.000_0.000_1.000_1.000_DEFAULTLIGHTING
280
     1
102
VTR_0.000_0.000_1.000_1.000_DEFAULTLIGHTINGTYPE
 70
     1
102
VTR_0.000_0.000_1.000_1.000_BRIGHTNESS
141
0.0
102
VTR_0.000_0.000_1.000_1.000_CONTRAST
142
0.0
  0
MATERIAL
  5
45
102
{ACAD_REACTORS
330
43
102
}
102
{ACAD_XDICTIONARY
360
1F6
102
}
330
43
100
AcDbMaterial
  1
BYBLOCK
  0
MATERIAL
  5
44
102
{ACAD_REACTORS
330
43
102
}
102
{ACAD_XDICTIONARY
360
1F4
102
}
330
43
100
AcDbMaterial
  1
BYLAYER
  0
MATERIAL
  5
46
102
{ACAD_REACTORS
330
43
102
}
102
{ACAD_XDICTIONARY
360
1F8
102
}
330
43
100
AcDbMaterial
  1
GLOBAL
  0
ACAD_PROXY_OBJECT
  5
6C
102
{ACAD_REACTORS
330
6B
102
}
330
6B
100
AcDbProxyObject
 90
      499
 91
      505
 93
      610
310
40901902A4063FBFFFFFE056BD1B81E855B9FC0AD7A3703D0AD73F4214DD185B99185C9900AD7A3703D0AC73F90141901A02B5E8DC0F42B1CFC02B5E8DC0F42B1CFE5764000000000000300FC0
340
14
340
0
340
11
340
0
 94
        0
1001
ACAD_MLEADERVER
1070
     2
  0
MLINESTYLE
  5
18
102
{ACAD_REACTORS
330
17
102
}
330
17
100
AcDbMlineStyle
  2
Standard
 70
     0
  3

 62
   256
 51
90.0
 52
90.0
 71
     2
 49
0.5
 62
   256
  6
BYLAYER
 49
-0.5
 62
   256
  6
BYLAYER
  0
ACAD_PROXY_OBJECT
  5
48
102
{ACAD_REACTORS
330
47
102
}
330
47
100
AcDbProxyObject
 90
      499
 91
      503
 93
       41
310
903313A31580
  0
ACAD_PROXY_OBJECT
  5
49
102
{ACAD_REACTORS
330
47
102
}
330
47
100
AcDbProxyObject
 90
      499
 91
      503
 93
      105
310
903313A324000000000000004000
  0
ACAD_PROXY_OBJECT
  5
4A
102
{ACAD_REACTORS
330
47
102
}
330
47
100
AcDbProxyObject
 90
      499
 91
      503
 93
      105
310
903313A344000000000000104000
  0
ACAD_PROXY_OBJECT
  5
4B
102
{ACAD_REACTORS
330
47
102
}
330
47
100
AcDbProxyObject
 90
      499
 91
      503
 93
      105
310
903313A354000000000000144000
  0
ACAD_PROXY_OBJECT
  5
4C
102
{ACAD_REACTORS
330
47
102
}
330
47
100
AcDbProxyObject
 90
      499
 91
      503
 93
      105
310
903313A384000000000000204000
  0
ACAD_PROXY_OBJECT
  5
4D
102
{ACAD_REACTORS
330
47
102
}
330
47
100
AcDbProxyObject
 90
      499
 91
      503
 93
      113
310
904313A31304000000000000244000
  0
ACAD_PROXY_OBJECT
  5
4E
102
{ACAD_REACTORS
330
47
102
}
330
47
100
AcDbProxyObject
 90
      499
 91
      503
 93
      113
310
904313A31364000000000000304000
  0
ACAD_PROXY_OBJECT
  5
4F
102
{ACAD_REACTORS
330
47
102
}
330
47
100
AcDbProxyObject
 90
      499
 91
      503
 93
      113
310
904313A32304000000000000344000
  0
ACAD_PROXY_OBJECT
  5
50
102
{ACAD_REACTORS
330
47
102
}
330
47
100
AcDbProxyObject
 90
      499
 91
      503
 93
      113
310
904313A333040000000000003E4000
  0
ACAD_PROXY_OBJECT
  5
51
102
{ACAD_REACTORS
330
47
102
}
330
47
100
AcDbProxyObject
 90
      499
 91
      503
 93
      113
310
904313A34304000000000000444000
  0
ACAD_PROXY_OBJECT
  5
52
102
{ACAD_REACTORS
330
47
102
}
330
47
100
AcDbProxyObject
 90
      499
 91
      503
 93
      113
310
904313A35304000000000000494000
  0
ACAD_PROXY_OBJECT
  5
53
102
{ACAD_REACTORS
330
47
102
}
330
47
100
AcDbProxyObject
 90
      499
 91
      503
 93
      121
310
905313A3130304000000000000594000
  0
ACAD_PROXY_OBJECT
  5
54
102
{ACAD_REACTORS
330
47
102
}
330
47
100
AcDbProxyObject
 90
      499
 91
      503
 93
      105
310
903323A310000000000000010100
  0
ACAD_PROXY_OBJECT
  5
55
102
{ACAD_REACTORS
330
47
102
}
330
47
100
AcDbProxyObject
 90
      499
 91
      503
 93
      105
310
903343A310000000000000410100
  0
ACAD_PROXY_OBJECT
  5
56
102
{ACAD_REACTORS
330
47
102
}
330
47
100
AcDbProxyObject
 90
      499
 91
      503
 93
      105
310
903383A310000000000000810100
  0
ACAD_PROXY_OBJECT
  5
57
102
{ACAD_REACTORS
330
47
102
}
330
47
100
AcDbProxyObject
 90
      499
 91
      503
 93
      113
310
90431303A310000000000000910100
  0
ACAD_PROXY_OBJECT
  5
58
102
{ACAD_REACTORS
330
47
102
}
330
47
100
AcDbProxyObject
 90
      499
 91
      503
 93
      121
310
9053130303A310000000000001650100
  0
ACAD_PROXY_OBJECT
  5
59
102
{ACAD_REACTORS
330
47
102
}
330
47
100
AcDbProxyObject
 90
      499
 91
      503
 93
      257
310
90E312F31323822203D2031272D3022000000000000200FC000000000000284000
  0
ACAD_PROXY_OBJECT
  5
5A
102
{ACAD_REACTORS
330
47
102
}
330
47
100
AcDbProxyObject
 90
      499
 91
      503
 93
      249
310
90D312F363422203D2031272D3022000000000000240FC000000000000284000
  0
ACAD_PROXY_OBJECT
  5
5B
102
{ACAD_REACTORS
330
47
102
}
330
47
100
AcDbProxyObject
 90
      499
 91
      503
 93
      249
310
90D312F333222203D2031272D3022000000000000280FC000000000000284000
  0
ACAD_PROXY_OBJECT
  5
5C
102
{ACAD_REACTORS
330
47
102
}
330
47
100
AcDbProxyObject
 90
      499
 91
      503
 93
      249
310
90D312F313622203D2031272D30220000000000002C0FC000000000000284000
  0
ACAD_PROXY_OBJECT
  5
5D
102
{ACAD_REACTORS
330
47
102
}
330
47
100
AcDbProxyObject
 90
      499
 91
      503
 93
      249
310
90D332F333222203D2031272D30220000000000002E0FC000000000000284000
  0
ACAD_PROXY_OBJECT
  5
5E
102
{ACAD_REACTORS
330
47
102
}
330
47
100
AcDbProxyObject
 90
      499
 91
      503
 93
      241
310
90C312F3822203D2031272D3022000000000000300FC000000000000284000
  0
ACAD_PROXY_OBJECT
  5
5F
102
{ACAD_REACTORS
330
47
102
}
330
47
100
AcDbProxyObject
 90
      499
 91
      503
 93
      249
310
90D332F313622203D2031272D3022000000000000320FC000000000000284000
  0
ACAD_PROXY_OBJECT
  5
60
102
{ACAD_REACTORS
330
47
102
}
330
47
100
AcDbProxyObject
 90
      499
 91
      503
 93
      241
310
90C312F3422203D2031272D3022000000000000340FC000000000000284000
  0
ACAD_PROXY_OBJECT
  5
61
102
{ACAD_REACTORS
330
47
102
}
330
47
100
AcDbProxyObject
 90
      499
 91
      503
 93
      241
310
90C332F3822203D2031272D3022000000000000360FC000000000000284000
  0
ACAD_PROXY_OBJECT
  5
62
102
{ACAD_REACTORS
330
47
102
}
330
47
100
AcDbProxyObject
 90
      499
 91
      503
 93
      241
310
90C312F3222203D2031272D3022000000000000380FC000000000000284000
  0
ACAD_PROXY_OBJECT
  5
63
102
{ACAD_REACTORS
330
47
102
}
330
47
100
AcDbProxyObject
 90
      499
 91
      503
 93
      241
310
90C332F3422203D2031272D30220000000000003A0FC000000000000284000
  0
ACAD_PROXY_OBJECT
  5
64
102
{ACAD_REACTORS
330
47
102
}
330
47
100
AcDbProxyObject
 90
      499
 91
      503
 93
      161
310
90A3122203D2031272D30224000000000000284000
  0
ACAD_PROXY_OBJECT
  5
65
102
{ACAD_REACTORS
330
47
102
}
330
47
100
AcDbProxyObject
 90
      499
 91
      503
 93
      257
310
90E312D312F3222203D2031272D30220000000000003E0FC000000000000284000
  0
ACAD_PROXY_OBJECT
  5
66
102
{ACAD_REACTORS
330
47
102
}
330
47
100
AcDbProxyObject
 90
      499
 91
      503
 93
      225
310
90A3322203D2031272D302200000000000002100000000000000284000
  0
ACAD_PROXY_OBJECT
  5
67
102
{ACAD_REACTORS
330
47
102
}
330
47
100
AcDbProxyObject
 90
      499
 91
      503
 93
      225
310
90A3622203D2031272D302200000000000006100000000000000284000
  0
ACAD_PROXY_OBJECT
  5
68
102
{ACAD_REACTORS
330
47
102
}
330
47
100
AcDbProxyObject
 90
      499
 91
      503
 93
      249
310
90D31272D3022203D2031272D30220000000000000A100000000000000284000
  0
ACAD_PROXY_OBJECT
  5
2F
102
{ACAD_REACTORS
330
2A
102
}
330
2A
100
AcDbProxyObject
 90
      499
 91
      501
 93
      436
310
42CC9915DA5C99599C985B595049028333333333333E33F0000000000000F90107901411070040501600405405064090741402480A0340
1001
ACAD
1000
AcDbSavedByObjectVersion
1070
     0
  0
ACAD_PROXY_OBJECT
  5
32
102
{ACAD_REACTORS
330
2A
102
}
330
2A
100
AcDbProxyObject
 90
      499
 91
      501
 93
      388
310
4150985CDA58D07406404333333333333E33F0000000000000F90107A41107004050150841D405064090741402480A0350
1001
ACAD
1000
AcDbSavedByObjectVersion
1070
     0
  0
ACAD_PROXY_OBJECT
  5
36
102
{ACAD_REACTORS
330
2A
102
}
330
2A
100
AcDbProxyObject
 90
      499
 91
      501
 93
      428
310
42109C9A59DA1D195B90C409028333333333333E33F0000000000000F9010790141107004050150841D405064090741402480A029950
1001
ACAD
1000
AcDbSavedByObjectVersion
1070
     0
  0
ACAD_PROXY_OBJECT
  5
3A
102
{ACAD_REACTORS
330
2A
102
}
330
2A
100
AcDbProxyObject
 90
      499
 91
      501
 93
      452
310
42D0DBDB1BDC90DA185B99D95104090240C333333333333E33F0000000000000F90108901411070040501508421405064090741402480A0350
1001
ACAD
1000
AcDbSavedByObjectVersion
1070
     0
  0
ACAD_PROXY_OBJECT
  5
34
102
{ACAD_REACTORS
330
2A
102
}
330
2A
100
AcDbProxyObject
 90
      499
 91
      501
 93
      500
310
4290DBDB98D95C1D1D585B10940D028333333333333E33F0000000000000F90107902409070040501000000000018199010841D405064090740C02480A0340
1001
ACAD
1000
AcDbSavedByObjectVersion
1070
     0
  0
ACAD_PROXY_OBJECT
  5
35
102
{ACAD_REACTORS
330
2A
102
}
330
2A
100
AcDbProxyObject
 90
      499
 91
      501
 93
      412
310
40D11A5B50B409028333333333333E33F0000000000000F9010790141107004050150841D405064090741402480A02677FFFFFD0
1001
ACAD
1000
AcDbSavedByObjectVersion
1070
     0
  0
ACAD_PROXY_OBJECT
  5
3D
102
{ACAD_REACTORS
330
2A
102
}
330
2A
100
AcDbProxyObject
 90
      499
 91
      501
 93
      452
310
43115919D950DBDB1BDC93D999916409028333333333333E33F0000000000000F9010790141107004050150841D405064090741402480A0350
1001
ACAD
1000
AcDbSavedByObjectVersion
1070
     0
  0
ACAD_PROXY_OBJECT
  5
39
102
{ACAD_REACTORS
330
2A
102
}
330
2A
100
AcDbProxyObject
 90
      499
 91
      501
 93
      444
310
42D19858D95C185D1D195C9B90F409028333333333333E33F0000000000000F9010790141107004050150841D405064090741402480A0350
1001
ACAD
1000
AcDbSavedByObjectVersion
1070
     0
  0
ACAD_PROXY_OBJECT
  5
2B
102
{ACAD_REACTORS
330
2A
102
}
330
2A
100
AcDbProxyObject
 90
      499
 91
      501
 93
      380
310
41119B185D240901404333333333333E33F0000000000000F9010740A907004050150841D405064090741402480A1B50
1001
ACAD
1000
AcDbSavedByObjectVersion
1070
     0
  0
ACAD_PROXY_OBJECT
  5
2C
102
{ACAD_REACTORS
330
2A
102
}
330
2A
100
AcDbProxyObject
 90
      499
 91
      501
 93
      468
310
43519B185D15DA5D1A115919D95CD0140901404333333333333E33F0000000000000F90107409019070040501600405405064090741402480A1B50
1001
ACAD
1000
AcDbSavedByObjectVersion
1070
     0
  0
ACAD_PROXY_OBJECT
  5
2D
102
{ACAD_REACTORS
330
2A
102
}
330
2A
100
AcDbProxyObject
 90
      499
 91
      501
 93
      404
310
41D1DBDD5C985D5910240902404333333333333E33F0000000000000F9010740A9070040501641D405064090741402480A1B50
1001
ACAD
1000
AcDbSavedByObjectVersion
1070
     0
  0
ACAD_PROXY_OBJECT
  5
2E
102
{ACAD_REACTORS
330
2A
102
}
330
2A
100
AcDbProxyObject
 90
      499
 91
      501
 93
      492
310
4411DBDD5C985D5915DA5D1A115919D95CD0340902404333333333333E33F0000000000000F90107409019070040501600405405064090741402480A1B50
1001
ACAD
1000
AcDbSavedByObjectVersion
1070
     0
  0
ACAD_PROXY_OBJECT
  5
31
102
{ACAD_REACTORS
330
2A
102
}
330
2A
100
AcDbProxyObject
 90
      499
 91
      501
 93
      476
310
41921A5919195B90640502408333333333333E33F0000000000000F901079024090700405020000000000001110200405405064090740C02480A0340
1001
ACAD
1000
AcDbSavedByObjectVersion
1070
     0
  0
ACAD_PROXY_OBJECT
  5
3B
102
{ACAD_REACTORS
330
2A
102
}
330
2A
100
AcDbProxyObject
 90
      499
 91
      501
 93
      428
310
42529A5D1D195C93D999914409028333333333333E33F0000000000000F9010790141107004050150A41D405064090741402480A0350
1001
ACAD
1000
AcDbSavedByObjectVersion
1070
     0
  0
ACAD_PROXY_OBJECT
  5
38
102
{ACAD_REACTORS
330
2A
102
}
330
2A
100
AcDbProxyObject
 90
      499
 91
      501
 93
      444
310
42D31A5B995C185D1D195C9B90E409028333333333333E33F0000000000000F9010790141107004050750841D405064090741402483A0350
1001
ACAD
1000
AcDbSavedByObjectVersion
1070
     0
  0
ACAD_PROXY_OBJECT
  5
3C
102
{ACAD_REACTORS
330
2A
102
}
330
2A
100
AcDbProxyObject
 90
      499
 91
      501
 93
      444
310
42D3DD995C9A185B99D3D999915409028333333333333E33F0000000000000F9010790141107004050150941D405064090741402480A0350
1001
ACAD
1000
AcDbSavedByObjectVersion
1070
     0
  0
ACAD_PROXY_OBJECT
  5
33
102
{ACAD_REACTORS
330
2A
102
}
330
2A
100
AcDbProxyObject
 90
      499
 91
      501
 93
      428
310
425499585B1A5CDD1A58D08409038333333333333E33F0000000000000F9010740A907004050150800405405064090740C02480A1B40
1001
ACAD
1000
AcDbSavedByObjectVersion
1070
     0
  0
ACAD_PROXY_OBJECT
  5
42
102
{ACAD_REACTORS
330
2A
102
}
330
2A
100
AcDbProxyObject
 90
      499
 91
      501
 93
      420
310
4194DA1859195911B40902404333333333333E33F0000000000000F9010740A41107004050150800405405064090840C02480A0B40
1001
ACAD
1000
AcDbSavedByObjectVersion
1070
     0
  0
ACAD_PROXY_OBJECT
  5
41
102
{ACAD_REACTORS
330
2A
102
}
330
2A
100
AcDbProxyObject
 90
      499
 91
      501
 93
      516
310
4454DA18591959081DDA5D1A08195919D95CD1A40902404333333333333E33F0000000000000F901074090142907004050250800405405064090740C02480A0B40
1001
ACAD
1000
AcDbSavedByObjectVersion
1070
     0
  0
ACAD_PROXY_OBJECT
  5
3E
102
{ACAD_REACTORS
330
2A
102
}
330
2A
100
AcDbProxyObject
 90
      499
 91
      501
 93
      532
310
4394DA1859195CC81BD98811DC985E5174090240C333333333333E33F0000000000000F901079024090741D01000000000000111010841D405064090740C02480A0340
1001
ACAD
1000
AcDbSavedByObjectVersion
1070
     0
  0
ACAD_PROXY_OBJECT
  5
3F
102
{ACAD_REACTORS
330
2A
102
}
330
2A
100
AcDbProxyObject
 90
      499
 91
      501
 93
      476
310
41D4DAD95D18DA1E51840502408333333333333E33F0000000000000F901079024090741D01000000000000111010B41D405064090741802480A0340
1001
ACAD
1000
AcDbSavedByObjectVersion
1070
     0
  0
ACAD_PROXY_OBJECT
  5
37
102
{ACAD_REACTORS
330
2A
102
}
330
2A
100
AcDbProxyObject
 90
      499
 91
      501
 93
      412
310
41D51A1A58DAD95B90D409028333333333333E33F0000000000000F9010790141107004050150C41D405064090741402480A0350
1001
ACAD
1000
AcDbSavedByObjectVersion
1070
     0
  0
ACAD_PROXY_OBJECT
  5
30
102
{ACAD_REACTORS
330
2A
102
}
330
2A
100
AcDbProxyObject
 90
      499
 91
      501
 93
      420
310
4255DA5C99599C985B595059028333333333333E33F0000000000000F90107901411070040501600405405064090740C02480A0340
1001
ACAD
1000
AcDbSavedByObjectVersion
1070
     0
  0
ACAD_PROXY_OBJECT
  5
40
102
{ACAD_REACTORS
330
2A
102
}
330
2A
100
AcDbProxyObject
 90
      499
 91
      501
 93
      404
310
41560B54985E51940902404000000000000E03F0000000000000F9010740501907004050150841D405064090740C02480A1B40
1001
ACAD
1000
AcDbSavedByObjectVersion
1070
     0
  0
XRECORD
  5
1D2
102
{ACAD_REACTORS
330
1C8
102
}
330
1C8
100
AcDbXrecord
340
0
  0
XRECORD
  5
1D1
102
{ACAD_REACTORS
330
1C8
102
}
330
1C8
100
AcDbXrecord
 90
        0
  0
XRECORD
  5
1E8
102
{ACAD_REACTORS
330
1C8
102
}
330
1C8
100
AcDbXrecord
1000
DSTYLE
1002
{
1070
   171
 70
     2
1070
   143
 40
25.4
1070
   274
 70
     2
1070
    41
 40
0.18
1070
   141
 40
0.09
1070
   271
 70
     4
1070
    43
 40
0.38
1070
   278
 70
    46
1070
    44
 40
0.18
1070
    42
 40
0.0625
1070
   147
 40
0.09
1070
    77
 70
     0
1070
   272
 70
     4
1070
    73
 70
     1
1070
   172
 70
     0
1070
    74
 70
     1
1070
   283
 70
     1
1070
   340
340
11
1070
   140
 40
0.18
1070
   284
 70
     0
1070
    78
 70
     0
1002
}
  0
XRECORD
  5
1D3
102
{ACAD_REACTORS
330
1C8
102
}
330
1C8
100
AcDbXrecord
  1
{17A333F8-B51B-41BA-B544-AF1DAC37ACA6}
  0
XRECORD
  5
1CB
102
{ACAD_REACTORS
330
1C8
102
}
330
1C8
100
AcDbXrecord
  1

  0
XRECORD
  5
1D0
102
{ACAD_REACTORS
330
1C8
102
}
330
1C8
100
AcDbXrecord
 90
        4
  0
XRECORD
  5
1CD
102
{ACAD_REACTORS
330
1C8
102
}
330
1C8
100
AcDbXrecord
340
1A
  0
XRECORD
  5
1CF
102
{ACAD_REACTORS
330
1C8
102
}
330
1C8
100
AcDbXrecord
 90
    10781
  0
XRECORD
  5
1CE
102
{ACAD_REACTORS
330
1C8
102
}
330
1C8
100
AcDbXrecord
340
19
  0
XRECORD
  5
1D5
102
{ACAD_REACTORS
330
1C8
102
}
330
1C8
100
AcDbXrecord
 40
0.0
  0
XRECORD
  5
1D8
102
{ACAD_REACTORS
330
1C8
102
}
330
1C8
100
AcDbXrecord
340
0
  0
XRECORD
  5
1DE
102
{ACAD_REACTORS
330
1C8
102
}
330
1C8
100
AcDbXrecord
 10
0.0
 20
0.0
 30
0.0
  0
XRECORD
  5
1DA
102
{ACAD_REACTORS
330
1C8
102
}
330
1C8
100
AcDbXrecord
 10
0.0
 20
0.0
 30
0.0
  0
XRECORD
  5
1DD
102
{ACAD_REACTORS
330
1C8
102
}
330
1C8
100
AcDbXrecord
 10
0.0
 20
0.0
 30
0.0
  0
XRECORD
  5
1DB
102
{ACAD_REACTORS
330
1C8
102
}
330
1C8
100
AcDbXrecord
 10
0.0
 20
0.0
 30
0.0
  0
XRECORD
  5
1DC
102
{ACAD_REACTORS
330
1C8
102
}
330
1C8
100
AcDbXrecord
 10
0.0
 20
0.0
 30
0.0
  0
XRECORD
  5
1D9
102
{ACAD_REACTORS
330
1C8
102
}
330
1C8
100
AcDbXrecord
 10
0.0
 20
0.0
 30
0.0
  0
XRECORD
  5
1D6
102
{ACAD_REACTORS
330
1C8
102
}
330
1C8
100
AcDbXrecord
340
0
  0
XRECORD
  5
1D7
102
{ACAD_REACTORS
330
1C8
102
}
330
1C8
100
AcDbXrecord
 70
     0
  0
XRECORD
  5
1CC
102
{ACAD_REACTORS
330
1C8
102
}
330
1C8
100
AcDbXrecord
  1

  0
XRECORD
  5
1C9
102
{ACAD_REACTORS
330
1C8
102
}
330
1C8
100
AcDbXrecord
 90
        1
  0
XRECORD
  5
1CA
102
{ACAD_REACTORS
330
1C8
102
}
330
1C8
100
AcDbXrecord
 90
       70
  0
XRECORD
  5
1E1
102
{ACAD_REACTORS
330
1C8
102
}
330
1C8
100
AcDbXrecord
340
0
  0
XRECORD
  5
1E7
102
{ACAD_REACTORS
330
1C8
102
}
330
1C8
100
AcDbXrecord
 10
0.0
 20
0.0
 30
0.0
  0
XRECORD
  5
1E3
102
{ACAD_REACTORS
330
1C8
102
}
330
1C8
100
AcDbXrecord
 10
0.0
 20
0.0
 30
0.0
  0
XRECORD
  5
1E6
102
{ACAD_REACTORS
330
1C8
102
}
330
1C8
100
AcDbXrecord
 10
0.0
 20
0.0
 30
0.0
  0
XRECORD
  5
1E4
102
{ACAD_REACTORS
330
1C8
102
}
330
1C8
100
AcDbXrecord
 10
0.0
 20
0.0
 30
0.0
  0
XRECORD
  5
1E5
102
{ACAD_REACTORS
330
1C8
102
}
330
1C8
100
AcDbXrecord
 10
0.0
 20
0.0
 30
0.0
  0
XRECORD
  5
1E2
102
{ACAD_REACTORS
330
1C8
102
}
330
1C8
100
AcDbXrecord
 10
0.0
 20
0.0
 30
0.0
  0
XRECORD
  5
1DF
102
{ACAD_REACTORS
330
1C8
102
}
330
1C8
100
AcDbXrecord
340
0
  0
XRECORD
  5
1E0
102
{ACAD_REACTORS
330
1C8
102
}
330
1C8
100
AcDbXrecord
 70
     0
  0
XRECORD
  5
1D4
102
{ACAD_REACTORS
330
1C8
102
}
330
1C8
100
AcDbXrecord
  1
{FAEB1C32-E019-11D5-929B-00C0DF256EC4}
  0
DICTIONARYVAR
  5
1F2
102
{ACAD_REACTORS
330
1E9
102
}
330
1E9
100
DictionaryVariables
280
     0
  1
1:1
  0
DICTIONARYVAR
  5
1EB
102
{ACAD_REACTORS
330
1E9
102
}
330
1E9
100
DictionaryVariables
280
     0
  1
Standard
  0
DICTIONARYVAR
  5
1EA
102
{ACAD_REACTORS
330
1E9
102
}
330
1E9
100
DictionaryVariables
280
     0
  1
Standard
  0
DICTIONARYVAR
  5
1EE
102
{ACAD_REACTORS
330
1E9
102
}
330
1E9
100
DictionaryVariables
280
     0
  1
2
  0
DICTIONARYVAR
  5
1EF
102
{ACAD_REACTORS
330
1E9
102
}
330
1E9
100
DictionaryVariables
280
     0
  1
1
  0
DICTIONARYVAR
  5
1F3
102
{ACAD_REACTORS
330
1E9
102
}
330
1E9
100
DictionaryVariables
280
     0
  1
1
  0
DICTIONARY
  5
1F6
330
45
100
AcDbDictionary
280
     1
  3
ACAD_XREC_ROUNDTRIP
360
1F7
  0
DICTIONARY
  5
1F4
330
44
100
AcDbDictionary
280
     1
  3
ACAD_XREC_ROUNDTRIP
360
1F5
  0
DICTIONARY
  5
1F8
330
46
100
AcDbDictionary
280
     1
  3
ACAD_XREC_ROUNDTRIP
360
1F9
  0
XRECORD
  5
1F7
102
{ACAD_REACTORS
330
1F6
102
}
330
1F6
100
AcDbXrecord
102
MATERIAL
148
0.0
149
0.0
149
0.0
 93
        0
 94
      127
282
     0
 72
     1
 77
     1
171
     1
175
     1
179
     1
273
     0
  0
XRECORD
  5
1F5
102
{ACAD_REACTORS
330
1F4
102
}
330
1F4
100
AcDbXrecord
102
MATERIAL
148
0.0
149
0.0
149
0.0
 93
        0
 94
      127
282
     0
 72
     1
 77
     1
171
     1
175
     1
179
     1
273
     0
  0
XRECORD
  5
1F9
102
{ACAD_REACTORS
330
1F8
102
}
330
1F8
100
AcDbXrecord
102
MATERIAL
148
0.0
149
0.0
149
0.0
 93
        0
 94
      127
282
     0
 72
     1
 77
     1
171
     1
175
     1
179
     1
273
     0
  0
ENDSEC
  0
EOF
