  0
SECTION
  2
HEADER
  9
$ACADVER
  1
AC1014
  9
$ACADMAINTVER
 70
     9
  9
$DWGCODEPAGE
  3
ANSI_1252
  9
$INSBASE
 10
0.0
 20
0.0
 30
0.0
  9
$EXTMIN
 10
1.000000000000000E+20
 20
1.000000000000000E+20
 30
1.000000000000000E+20
  9
$EXTMAX
 10
-1.000000000000000E+20
 20
-1.000000000000000E+20
 30
-1.000000000000000E+20
  9
$LIMMIN
 10
0.0
 20
0.0
  9
$LIMMAX
 10
12.0
 20
9.0
  9
$ORTHOMODE
 70
     0
  9
$REGENMODE
 70
     1
  9
$FILLMODE
 70
     1
  9
$QTEXTMODE
 70
     0
  9
$MIRRTEXT
 70
     1
  9
$DRAGMODE
 70
     2
  9
$LTSCALE
 40
1.0
  9
$OSMODE
 70
    37
  9
$ATTMODE
 70
     1
  9
$TEXTSIZE
 40
0.2
  9
$TRACEWID
 40
0.05
  9
$TEXTSTYLE
  7
STANDARD
  9
$CLAYER
  8
0
  9
$CELTYPE
  6
BYLAYER
  9
$CECOLOR
 62
   256
  9
$CELTSCALE
 40
1.0
  9
$DELOBJ
 70
     1
  9
$DISPSILH
 70
     0
  9
$DIMSCALE
 40
1.0
  9
$DIMASZ
 40
0.18
  9
$DIMEXO
 40
0.0625
  9
$DIMDLI
 40
0.38
  9
$DIMRND
 40
0.0
  9
$DIMDLE
 40
0.0
  9
$DIMEXE
 40
0.18
  9
$DIMTP
 40
0.0
  9
$DIMTM
 40
0.0
  9
$DIMTXT
 40
0.18
  9
$DIMCEN
 40
0.09
  9
$DIMTSZ
 40
0.0
  9
$DIMTOL
 70
     0
  9
$DIMLIM
 70
     0
  9
$DIMTIH
 70
     1
  9
$DIMTOH
 70
     1
  9
$DIMSE1
 70
     0
  9
$DIMSE2
 70
     0
  9
$DIMTAD
 70
     0
  9
$DIMZIN
 70
     0
  9
$DIMBLK
  1

  9
$DIMASO
 70
     1
  9
$DIMSHO
 70
     1
  9
$DIMPOST
  1

  9
$DIMAPOST
  1

  9
$DIMALT
 70
     0
  9
$DIMALTD
 70
     2
  9
$DIMALTF
 40
25.4
  9
$DIMLFAC
 40
1.0
  9
$DIMTOFL
 70
     0
  9
$DIMTVP
 40
0.0
  9
$DIMTIX
 70
     0
  9
$DIMSOXD
 70
     0
  9
$DIMSAH
 70
     0
  9
$DIMBLK1
  1

  9
$DIMBLK2
  1

  9
$DIMSTYLE
  2
STANDARD
  9
$DIMCLRD
 70
     0
  9
$DIMCLRE
 70
     0
  9
$DIMCLRT
 70
     0
  9
$DIMTFAC
 40
1.0
  9
$DIMGAP
 40
0.09
  9
$DIMJUST
 70
     0
  9
$DIMSD1
 70
     0
  9
$DIMSD2
 70
     0
  9
$DIMTOLJ
 70
     1
  9
$DIMTZIN
 70
     0
  9
$DIMALTZ
 70
     0
  9
$DIMALTTZ
 70
     0
  9
$DIMFIT
 70
     3
  9
$DIMUPT
 70
     0
  9
$DIMUNIT
 70
     2
  9
$DIMDEC
 70
     4
  9
$DIMTDEC
 70
     4
  9
$DIMALTU
 70
     2
  9
$DIMALTTD
 70
     2
  9
$DIMTXSTY
  7
STANDARD
  9
$DIMAUNIT
 70
     0
  9
$LUNITS
 70
     2
  9
$LUPREC
 70
     4
  9
$SKETCHINC
 40
0.1
  9
$FILLETRAD
 40
0.5
  9
$AUNITS
 70
     0
  9
$AUPREC
 70
     0
  9
$MENU
  1
.
  9
$ELEVATION
 40
0.0
  9
$PELEVATION
 40
0.0
  9
$THICKNESS
 40
0.0
  9
$LIMCHECK
 70
     0
  9
$CHAMFERA
 40
0.0
  9
$CHAMFERB
 40
0.0
  9
$CHAMFERC
 40
0.0
  9
$CHAMFERD
 40
0.0
  9
$SKPOLY
 70
     0
  9
$TDCREATE
 40
2459262.901120035
  9
$TDUPDATE
 40
2459262.901120093
  9
$TDINDWG
 40
0.0000000116
  9
$TDUSRTIMER
 40
0.0000000116
  9
$USRTIMER
 70
     1
  9
$ANGBASE
 50
0.0
  9
$ANGDIR
 70
     0
  9
$PDMODE
 70
     0
  9
$PDSIZE
 40
0.0
  9
$PLINEWID
 40
0.0
  9
$COORDS
 70
     1
  9
$SPLFRAME
 70
     0
  9
$SPLINETYPE
 70
     6
  9
$SPLINESEGS
 70
     8
  9
$ATTDIA
 70
     0
  9
$ATTREQ
 70
     1
  9
$HANDLING
 70
     1
  9
$HANDSEED
  5
1A8
  9
$SURFTAB1
 70
     6
  9
$SURFTAB2
 70
     6
  9
$SURFTYPE
 70
     6
  9
$SURFU
 70
     6
  9
$SURFV
 70
     6
  9
$UCSNAME
  2

  9
$UCSORG
 10
0.0
 20
0.0
 30
0.0
  9
$UCSXDIR
 10
1.0
 20
0.0
 30
0.0
  9
$UCSYDIR
 10
0.0
 20
1.0
 30
0.0
  9
$PUCSNAME
  2

  9
$PUCSORG
 10
0.0
 20
0.0
 30
0.0
  9
$PUCSXDIR
 10
1.0
 20
0.0
 30
0.0
  9
$PUCSYDIR
 10
0.0
 20
1.0
 30
0.0
  9
$USERI1
 70
     0
  9
$USERI2
 70
     0
  9
$USERI3
 70
     0
  9
$USERI4
 70
     0
  9
$USERI5
 70
     0
  9
$USERR1
 40
0.0
  9
$USERR2
 40
0.0
  9
$USERR3
 40
0.0
  9
$USERR4
 40
0.0
  9
$USERR5
 40
0.0
  9
$WORLDVIEW
 70
     1
  9
$SHADEDGE
 70
     3
  9
$SHADEDIF
 70
    70
  9
$TILEMODE
 70
     1
  9
$MAXACTVP
 70
    64
  9
$PINSBASE
 10
0.0
 20
0.0
 30
0.0
  9
$PLIMCHECK
 70
     0
  9
$PEXTMIN
 10
1.000000000000000E+20
 20
1.000000000000000E+20
 30
1.000000000000000E+20
  9
$PEXTMAX
 10
-1.000000000000000E+20
 20
-1.000000000000000E+20
 30
-1.000000000000000E+20
  9
$PLIMMIN
 10
0.0
 20
0.0
  9
$PLIMMAX
 10
12.0
 20
9.0
  9
$UNITMODE
 70
     0
  9
$VISRETAIN
 70
     1
  9
$PLINEGEN
 70
     0
  9
$PSLTSCALE
 70
     1
  9
$TREEDEPTH
 70
  3020
  9
$PICKSTYLE
 70
     1
  9
$CMLSTYLE
  2
STANDARD
  9
$CMLJUST
 70
     0
  9
$CMLSCALE
 40
1.0
  9
$PROXYGRAPHICS
 70
     1
  9
$MEASUREMENT
 70
     1
  0
ENDSEC
  0
SECTION
  2
CLASSES
  0
CLASS
  1
ACDBDICTIONARYWDFLT
  2
AcDbDictionaryWithDefault
  3
ObjectDBX Classes
 90
        0
280
     0
281
     0
  0
CLASS
  1
VISUALSTYLE
  2
AcDbVisualStyle
  3
ObjectDBX Classes
 90
     4095
280
     0
281
     0
  0
CLASS
  1
MATERIAL
  2
AcDbMaterial
  3
ObjectDBX Classes
 90
     1153
280
     0
281
     0
  0
CLASS
  1
SCALE
  2
AcDbScale
  3
ObjectDBX Classes
 90
     1153
280
     0
281
     0
  0
CLASS
  1
TABLESTYLE
  2
AcDbTableStyle
  3
ObjectDBX Classes
 90
     4095
280
     0
281
     0
  0
CLASS
  1
MLEADERSTYLE
  2
AcDbMLeaderStyle
  3
ACDB_MLEADERSTYLE_CLASS
 90
     4095
280
     0
281
     0
  0
CLASS
  1
SUN
  2
AcDbSun
  3
SCENEOE
 90
     1153
280
     0
281
     0
  0
CLASS
  1
DICTIONARYVAR
  2
AcDbDictionaryVar
  3
ObjectDBX Classes
 90
        0
280
     0
281
     0
  0
CLASS
  1
XRECORD
  2
AcDbXrecord
  3
ObjectDBX Classes
 90
        0
280
     0
281
     0
  0
CLASS
  1
LWPOLYLINE
  2
AcDbPolyline
  3
ObjectDBX Classes
 90
        0
280
     0
281
     1
  0
CLASS
  1
HATCH
  2
AcDbHatch
  3
ObjectDBX Classes
 90
        0
280
     0
281
     1
  0
CLASS
  1
ACDBPLACEHOLDER
  2
AcDbPlaceHolder
  3
ObjectDBX Classes
 90
        0
280
     0
281
     0
  0
CLASS
  1
LAYOUT
  2
AcDbLayout
  3
ObjectDBX Classes
 90
        0
280
     0
281
     0
  0
ENDSEC
  0
SECTION
  2
TABLES
  0
TABLE
  2
VPORT
  5
8
102
{ACAD_XDICTIONARY
360
19D
102
}
330
0
100
AcDbSymbolTable
 70
     1
  0
VPORT
  5
29
330
8
100
AcDbSymbolTableRecord
100
AcDbViewportTableRecord
  2
*ACTIVE
 70
     0
 10
0.0
 20
0.0
 11
1.0
 21
1.0
 12
0.0
 22
0.0
 13
0.0
 23
0.0
 14
0.5
 24
0.5
 15
0.5
 25
0.5
 16
0.0
 26
0.0
 36
1.0
 17
0.0
 27
0.0
 37
-1000.0
 40
172.1380301563127
 41
1.758620689655172
 42
50.0
 43
199.9450970520336
 44
274.1103408413744
 50
0.0
 51
0.0
 71
     0
 72
   100
 73
     1
 74
     3
 75
     0
 76
     0
 77
     0
 78
     0
  0
ENDTAB
  0
TABLE
  2
LTYPE
  5
5
330
0
100
AcDbSymbolTable
 70
     1
  0
LTYPE
  5
14
330
5
100
AcDbSymbolTableRecord
100
AcDbLinetypeTableRecord
  2
BYBLOCK
 70
     0
  3

 72
    65
 73
     0
 40
0.0
  0
LTYPE
  5
15
330
5
100
AcDbSymbolTableRecord
100
AcDbLinetypeTableRecord
  2
BYLAYER
 70
     0
  3

 72
    65
 73
     0
 40
0.0
  0
LTYPE
  5
16
330
5
100
AcDbSymbolTableRecord
100
AcDbLinetypeTableRecord
  2
CONTINUOUS
 70
     0
  3
Solid line
 72
    65
 73
     0
 40
0.0
  0
ENDTAB
  0
TABLE
  2
LAYER
  5
2
330
0
100
AcDbSymbolTable
 70
     3
  0
LAYER
  5
10
330
2
100
AcDbSymbolTableRecord
100
AcDbLayerTableRecord
  2
0
 70
     0
 62
     7
  6
CONTINUOUS
  0
LAYER
  5
6E
330
2
100
AcDbSymbolTableRecord
100
AcDbLayerTableRecord
  2
PROFILEEDGES
 70
     0
 62
     7
  6
CONTINUOUS
  0
LAYER
  5
6F
330
2
100
AcDbSymbolTableRecord
100
AcDbLayerTableRecord
  2
SECTIONCUTEDGES
 70
     0
 62
     7
  6
CONTINUOUS
  0
ENDTAB
  0
TABLE
  2
STYLE
  5
3
330
0
100
AcDbSymbolTable
 70
     1
  0
STYLE
  5
11
330
3
100
AcDbSymbolTableRecord
100
AcDbTextStyleTableRecord
  2
STANDARD
 70
     0
 40
0.0
 41
1.0
 50
0.0
 71
     0
 42
0.2
  3
txt
  4

  0
ENDTAB
  0
TABLE
  2
VIEW
  5
6
330
0
100
AcDbSymbolTable
 70
     0
  0
ENDTAB
  0
TABLE
  2
UCS
  5
7
330
0
100
AcDbSymbolTable
 70
     0
  0
ENDTAB
  0
TABLE
  2
APPID
  5
9
330
0
100
AcDbSymbolTable
 70
     2
  0
APPID
  5
12
330
9
100
AcDbSymbolTableRecord
100
AcDbRegAppTableRecord
  2
ACAD
 70
     0
  0
APPID
  5
1A7
330
9
100
AcDbSymbolTableRecord
100
AcDbRegAppTableRecord
  2
ACAD_MLEADERVER
 70
     0
  0
ENDTAB
  0
TABLE
  2
DIMSTYLE
  5
A
330
0
100
AcDbSymbolTable
 70
     1
  0
DIMSTYLE
105
27
330
A
100
AcDbSymbolTableRecord
100
AcDbDimStyleTableRecord
  2
STANDARD
 70
     0
  3

  4

  5

  6

  7

 40
1.0
 41
0.18
 42
0.0625
 43
0.38
 44
0.18
 45
0.0
 46
0.0
 47
0.0
 48
0.0
140
0.18
141
0.09
142
0.0
143
25.4
144
1.0
145
0.0
146
1.0
147
0.09
 71
     0
 72
     0
 73
     1
 74
     1
 75
     0
 76
     0
 77
     0
 78
     0
170
     0
171
     2
172
     0
173
     0
174
     0
175
     0
176
     0
177
     0
178
     0
270
     2
271
     4
272
     4
273
     2
274
     2
340
11
275
     0
280
     0
281
     0
282
     0
283
     1
284
     0
285
     0
286
     0
287
     3
288
     0
  0
ENDTAB
  0
TABLE
  2
BLOCK_RECORD
  5
1
330
0
100
AcDbSymbolTable
 70
     1
  0
BLOCK_RECORD
  5
1F
330
1
100
AcDbSymbolTableRecord
100
AcDbBlockTableRecord
  2
*MODEL_SPACE
  0
BLOCK_RECORD
  5
1B
330
1
100
AcDbSymbolTableRecord
100
AcDbBlockTableRecord
  2
*PAPER_SPACE
  0
ENDTAB
  0
ENDSEC
  0
SECTION
  2
BLOCKS
  0
BLOCK
  5
20
330
1F
100
AcDbEntity
  8
0
100
AcDbBlockBegin
  2
*MODEL_SPACE
 70
     0
 10
0.0
 20
0.0
 30
0.0
  3
*MODEL_SPACE
  1

  0
ENDBLK
  5
21
330
1F
100
AcDbEntity
  8
0
100
AcDbBlockEnd
  0
BLOCK
  5
1C
330
1B
100
AcDbEntity
 67
     1
  8
0
100
AcDbBlockBegin
  2
*PAPER_SPACE
 70
     0
 10
0.0
 20
0.0
 30
0.0
  3
*PAPER_SPACE
  1

  0
ENDBLK
  5
1D
330
1B
100
AcDbEntity
 67
     1
  8
0
100
AcDbBlockEnd
  0
ENDSEC
  0
SECTION
  2
ENTITIES
  0
LINE
  5
70
330
1F
100
AcDbEntity
  8
0
100
AcDbLine
 10
-24.66245430803103
 20
18.09689547741864
 30
0.0
 11
-23.91183646704978
 21
18.34622932758897
 31
0.0
  0
LINE
  5
71
330
1F
100
AcDbEntity
  8
0
100
AcDbLine
 10
-28.18919510738164
 20
17.94767000149652
 30
0.0
 11
-25.43919510738172
 21
17.94767000149647
 31
0.0
  0
LINE
  5
72
330
1F
100
AcDbEntity
  8
0
100
AcDbLine
 10
-28.18919510738164
 20
2.947670001496519
 30
0.0
 11
-3.189195107381621
 21
2.947670001496474
 31
0.0
  0
LINE
  5
73
330
1F
100
AcDbEntity
  8
0
100
AcDbLine
 10
-22.53967605454337
 20
19.12651757878986
 30
0.0
 11
-21.94161152811094
 21
19.6441210315056
 31
0.0
  0
LINE
  5
74
330
1F
100
AcDbEntity
  8
0
100
AcDbLine
 10
-20.61804268467506
 20
21.59718905433484
 30
0.0
 11
-20.35890533804016
 21
22.34447905668943
 31
0.0
  0
LINE
  5
75
330
1F
100
AcDbEntity
  8
0
100
AcDbLine
 10
-21.41622433437249
 20
20.23535940026711
 30
0.0
 11
-20.97250399387775
 21
20.89011643266258
 31
0.0
  0
LINE
  5
76
330
1F
100
AcDbEntity
  8
0
100
AcDbLine
 10
-28.18919510738164
 20
17.94767000149652
 30
0.0
 11
-28.18919510738164
 21
2.947670001496519
 31
0.0
  0
LINE
  5
77
330
1F
100
AcDbEntity
  8
0
100
AcDbLine
 10
-20.98367701883547
 20
33.93352407080495
 30
0.0
 11
-21.37524720926545
 21
33.93608681656706
 31
0.0
  0
LINE
  5
78
330
1F
100
AcDbEntity
  8
0
100
AcDbLine
 10
-3.189195107381621
 20
2.947670001496474
 30
0.0
 11
-3.189195107381621
 21
11.43258069843795
 31
0.0
  0
LINE
  5
79
330
1F
100
AcDbEntity
  8
0
100
AcDbLine
 10
-4.346062815603503
 20
13.03166347031157
 30
0.0
 11
-3.189195107381621
 21
11.43258069843795
 31
0.0
  0
LINE
  5
7A
330
1F
100
AcDbEntity
  8
0
100
AcDbLine
 10
-5.309795390544092
 20
14.7540537076353
 30
0.0
 11
-4.346062815603503
 21
13.03166347031157
 31
0.0
  0
LINE
  5
7B
330
1F
100
AcDbEntity
  8
0
100
AcDbLine
 10
-19.70077829231113
 20
32.63372210338036
 30
0.0
 11
-19.79964869277101
 21
33.01261315053257
 31
0.0
  0
LINE
  5
7C
330
1F
100
AcDbEntity
  8
0
100
AcDbLine
 10
-20.26828418710926
 20
33.631698327561
 30
0.0
 11
-20.60611254650525
 21
33.82970282570944
 31
0.0
  0
LINE
  5
7D
330
1F
100
AcDbEntity
  8
0
100
AcDbLine
 10
-20.97250399387775
 20
20.89011643266258
 30
0.0
 11
-20.61804268467506
 21
21.59718905433484
 31
0.0
  0
LINE
  5
7E
330
1F
100
AcDbEntity
  8
0
100
AcDbLine
 10
-19.99321438505254
 20
33.35300425569068
 30
0.0
 11
-20.26828418710926
 21
33.631698327561
 31
0.0
  0
LINE
  5
7F
330
1F
100
AcDbEntity
  8
0
100
AcDbLine
 10
-25.43919510738172
 20
17.94767000149647
 30
0.0
 11
-24.66245430803103
 21
18.09689547741864
 31
0.0
  0
LINE
  5
80
330
1F
100
AcDbEntity
  8
0
100
AcDbLine
 10
-21.94161152811094
 20
19.6441210315056
 30
0.0
 11
-21.41622433437249
 21
20.23535940026711
 31
0.0
  0
LINE
  5
81
330
1F
100
AcDbEntity
  8
0
100
AcDbLine
 10
-23.2001848638077
 20
18.69140538070258
 30
0.0
 11
-22.53967605454337
 21
19.12651757878986
 31
0.0
  0
LINE
  5
82
330
1F
100
AcDbEntity
  8
0
100
AcDbLine
 10
-23.91183646704978
 20
18.34622932758897
 30
0.0
 11
-23.2001848638077
 21
18.69140538070258
 31
0.0
  0
LINE
  5
83
330
1F
100
AcDbEntity
  8
0
100
AcDbLine
 10
-6.067402755504617
 20
16.57653544586677
 30
0.0
 11
-5.309795390544092
 21
14.7540537076353
 31
0.0
  0
LINE
  5
84
330
1F
100
AcDbEntity
  8
0
100
AcDbLine
 10
-6.608673179519111
 20
18.47454359487898
 30
0.0
 11
-6.067402755504617
 21
16.57653544586677
 31
0.0
  0
LINE
  5
85
330
1F
100
AcDbEntity
  8
0
100
AcDbLine
 10
-6.926310920484934
 20
20.42249504990649
 30
0.0
 11
-6.608673179519111
 21
18.47454359487898
 31
0.0
  0
LINE
  5
86
330
1F
100
AcDbEntity
  8
0
100
AcDbLine
 10
-6.876634731742402
 20
24.36288345564105
 30
0.0
 11
-7.016034563905032
 21
22.39413352423211
 31
0.0
  0
LINE
  5
87
330
1F
100
AcDbEntity
  8
0
100
AcDbLine
 10
-6.509990383532735
 20
26.30220821636458
 30
0.0
 11
-6.876634731742402
 21
24.36288345564105
 31
0.0
  0
LINE
  5
88
330
1F
100
AcDbEntity
  8
0
100
AcDbLine
 10
-5.921043490034635
 20
28.18596779822972
 30
0.0
 11
-6.509990383532735
 21
26.30220821636458
 31
0.0
  0
LINE
  5
89
330
1F
100
AcDbEntity
  8
0
100
AcDbLine
 10
-5.11773242078853
 20
29.98877115180333
 30
0.0
 11
-5.921043490034635
 21
28.18596779822972
 31
0.0
  0
LINE
  5
8A
330
1F
100
AcDbEntity
  8
0
100
AcDbLine
 10
-4.110884943448919
 20
31.68631843038045
 30
0.0
 11
-5.11773242078853
 21
29.98877115180333
 31
0.0
  0
LINE
  5
8B
330
1F
100
AcDbEntity
  8
0
100
AcDbLine
 10
-3.18919510738161
 20
32.89495314342543
 30
0.0
 11
-4.110884943448919
 21
31.68631843038045
 31
0.0
  0
LINE
  5
8C
330
1F
100
AcDbEntity
  8
0
100
AcDbLine
 10
-3.18919510738161
 20
32.89495314342543
 30
0.0
 11
-3.189195107381633
 21
42.94767000149649
 31
0.0
  0
LINE
  5
8D
330
1F
100
AcDbEntity
  8
0
100
AcDbLine
 10
-3.189195107381633
 20
42.94767000149649
 30
0.0
 11
-18.57481612671469
 21
42.94767000149654
 31
0.0
  0
LINE
  5
8E
330
1F
100
AcDbEntity
  8
0
100
AcDbLine
 10
-18.57481612671469
 20
42.94767000149654
 30
0.0
 11
-19.24183992399696
 21
42.26451122109277
 31
0.0
  0
LINE
  5
8F
330
1F
100
AcDbEntity
  8
0
100
AcDbLine
 10
-19.24183992399696
 20
42.26451122109277
 30
0.0
 11
-20.38438790860812
 21
40.93091802446899
 31
0.0
  0
LINE
  5
90
330
1F
100
AcDbEntity
  8
0
100
AcDbLine
 10
-20.38438790860812
 20
40.93091802446899
 30
0.0
 11
-21.43782723007869
 21
39.52587272014597
 31
0.0
  0
LINE
  5
91
330
1F
100
AcDbEntity
  8
0
100
AcDbLine
 10
-21.43782723007869
 20
39.52587272014597
 30
0.0
 11
-22.39770152692099
 21
38.05531906744175
 31
0.0
  0
LINE
  5
92
330
1F
100
AcDbEntity
  8
0
100
AcDbLine
 10
-22.39770152692099
 20
38.05531906744175
 30
0.0
 11
-23.25995024551564
 21
36.52547794546128
 31
0.0
  0
LINE
  5
93
330
1F
100
AcDbEntity
  8
0
100
AcDbLine
 10
-23.25995024551564
 20
36.52547794546128
 30
0.0
 11
-24.0209258174607
 21
34.94282103692961
 31
0.0
  0
LINE
  5
94
330
1F
100
AcDbEntity
  8
0
100
AcDbLine
 10
-24.0209258174607
 20
34.94282103692961
 30
0.0
 11
-24.67740908987019
 21
33.31404345104893
 31
0.0
  0
LINE
  5
95
330
1F
100
AcDbEntity
  8
0
100
AcDbLine
 10
-25.22662294334779
 20
31.64603540119764
 30
0.0
 11
-25.55428252106326
 21
30.37885092562215
 31
0.0
  0
LINE
  5
96
330
1F
100
AcDbEntity
  8
0
100
AcDbLine
 10
-22.4768845061523
 20
28.7206407745057
 30
0.0
 11
-23.13164153854778
 21
29.16436111500048
 31
0.0
  0
LINE
  5
97
330
1F
100
AcDbEntity
  8
0
100
AcDbLine
 10
-21.8856461373908
 20
28.19525358076719
 30
0.0
 11
-22.4768845061523
 21
28.7206407745057
 31
0.0
  0
LINE
  5
98
330
1F
100
AcDbEntity
  8
0
100
AcDbLine
 10
-21.36804268467503
 20
27.59718905433482
 30
0.0
 11
-21.8856461373908
 21
28.19525358076719
 31
0.0
  0
LINE
  5
99
330
1F
100
AcDbEntity
  8
0
100
AcDbLine
 10
-20.93293048658777
 20
26.93668024507046
 30
0.0
 11
-21.36804268467503
 21
27.59718905433482
 31
0.0
  0
LINE
  5
9A
330
1F
100
AcDbEntity
  8
0
100
AcDbLine
 10
-20.58775443347418
 20
26.2250286418284
 30
0.0
 11
-20.93293048658777
 21
26.93668024507046
 31
0.0
  0
LINE
  5
9B
330
1F
100
AcDbEntity
  8
0
100
AcDbLine
 10
-20.33842058330387
 20
25.47441080084712
 30
0.0
 11
-20.58775443347418
 21
26.2250286418284
 31
0.0
  0
LINE
  5
9C
330
1F
100
AcDbEntity
  8
0
100
AcDbLine
 10
-20.18919510738168
 20
24.69767000149649
 30
0.0
 11
-20.33842058330387
 21
25.47441080084712
 31
0.0
  0
LINE
  5
9D
330
1F
100
AcDbEntity
  8
0
100
AcDbLine
 10
-20.1426312949738
 20
23.90809649420653
 30
0.0
 11
-20.18919510738168
 21
24.69767000149649
 31
0.0
  0
LINE
  5
9E
330
1F
100
AcDbEntity
  8
0
100
AcDbLine
 10
-20.19952586582041
 20
23.11920010059812
 30
0.0
 11
-20.1426312949738
 21
23.90809649420653
 31
0.0
  0
LINE
  5
9F
330
1F
100
AcDbEntity
  8
0
100
AcDbLine
 10
-20.35890533804016
 20
22.34447905668943
 30
0.0
 11
-20.19952586582041
 21
23.11920010059812
 31
0.0
  0
LINE
  5
A0
330
1F
100
AcDbEntity
  8
0
100
AcDbLine
 10
-19.70334103807323
 20
32.24215191295034
 30
0.0
 11
-19.70077829231113
 21
32.63372210338036
 31
0.0
  0
LINE
  5
A1
330
1F
100
AcDbEntity
  8
0
100
AcDbLine
 10
-19.80716228316873
 20
31.86458744062014
 30
0.0
 11
-19.70334103807323
 21
32.24215191295034
 31
0.0
  0
LINE
  5
A2
330
1F
100
AcDbEntity
  8
0
100
AcDbLine
 10
-20.00516678131715
 20
31.52675908122416
 30
0.0
 11
-19.80716228316873
 21
31.86458744062014
 31
0.0
  0
LINE
  5
A3
330
1F
100
AcDbEntity
  8
0
100
AcDbLine
 10
-20.2838608531875
 20
31.25168927916744
 30
0.0
 11
-20.00516678131715
 21
31.52675908122416
 31
0.0
  0
LINE
  5
A4
330
1F
100
AcDbEntity
  8
0
100
AcDbLine
 10
-20.62425195834562
 20
31.05812358688589
 30
0.0
 11
-20.2838608531875
 21
31.25168927916744
 31
0.0
  0
LINE
  5
A5
330
1F
100
AcDbEntity
  8
0
100
AcDbLine
 10
-21.00314300549781
 20
30.95925318642599
 30
0.0
 11
-20.62425195834562
 21
31.05812358688589
 31
0.0
  0
LINE
  5
A6
330
1F
100
AcDbEntity
  8
0
100
AcDbLine
 10
-21.39471319592778
 20
30.96181593218812
 30
0.0
 11
-21.00314300549781
 21
30.95925318642599
 31
0.0
  0
LINE
  5
A7
330
1F
100
AcDbEntity
  8
0
100
AcDbLine
 10
-21.772277668258
 20
31.06563717728361
 30
0.0
 11
-21.39471319592778
 21
30.96181593218812
 31
0.0
  0
LINE
  5
A8
330
1F
100
AcDbEntity
  8
0
100
AcDbLine
 10
-22.110106027654
 20
31.26364167543204
 30
0.0
 11
-21.772277668258
 21
31.06563717728361
 31
0.0
  0
LINE
  5
A9
330
1F
100
AcDbEntity
  8
0
100
AcDbLine
 10
-22.38517582971069
 20
31.54233574730239
 30
0.0
 11
-22.110106027654
 21
31.26364167543204
 31
0.0
  0
LINE
  5
AA
330
1F
100
AcDbEntity
  8
0
100
AcDbLine
 10
-22.57874152199224
 20
31.88272685246048
 30
0.0
 11
-22.38517582971069
 21
31.54233574730239
 31
0.0
  0
LINE
  5
AB
330
1F
100
AcDbEntity
  8
0
100
AcDbLine
 10
-22.67761192245213
 20
32.26161789961273
 30
0.0
 11
-22.57874152199224
 21
31.88272685246048
 31
0.0
  0
LINE
  5
AC
330
1F
100
AcDbEntity
  8
0
100
AcDbLine
 10
-22.57122793159451
 20
33.03075256237293
 30
0.0
 11
-22.67504917669002
 21
32.6531880900427
 31
0.0
  0
LINE
  5
AD
330
1F
100
AcDbEntity
  8
0
100
AcDbLine
 10
-22.3732234334461
 20
33.36858092176889
 30
0.0
 11
-22.57122793159451
 21
33.03075256237293
 31
0.0
  0
LINE
  5
AE
330
1F
100
AcDbEntity
  8
0
100
AcDbLine
 10
-22.09452936157574
 20
33.64365072382561
 30
0.0
 11
-22.3732234334461
 21
33.36858092176889
 31
0.0
  0
LINE
  5
AF
330
1F
100
AcDbEntity
  8
0
100
AcDbLine
 10
-21.75413825641766
 20
33.83721641610718
 30
0.0
 11
-22.09452936157574
 21
33.64365072382561
 31
0.0
  0
LINE
  5
B0
330
1F
100
AcDbEntity
  8
0
100
AcDbLine
 10
-21.37524720926545
 20
33.93608681656706
 30
0.0
 11
-21.75413825641766
 21
33.83721641610718
 31
0.0
  0
LINE
  5
B1
330
1F
100
AcDbEntity
  8
0
100
AcDbLine
 10
-20.60611254650525
 20
33.82970282570944
 30
0.0
 11
-20.98367701883547
 21
33.93352407080495
 31
0.0
  0
LINE
  5
B2
330
1F
100
AcDbEntity
  8
0
100
AcDbLine
 10
-19.79964869277101
 20
33.01261315053257
 30
0.0
 11
-19.99321438505254
 21
33.35300425569068
 31
0.0
  0
LINE
  5
B3
330
1F
100
AcDbEntity
  8
0
100
AcDbLine
 10
-21.20250483566121
 20
4.680244234602848
 30
0.0
 11
-21.4347498955532
 21
4.45101939955561
 31
0.0
  0
LINE
  5
B4
330
1F
100
AcDbEntity
  8
0
100
AcDbLine
 10
-21.4347498955532
 20
4.45101939955561
 30
0.0
 11
-21.71840914985161
 21
4.289714655987648
 31
0.0
  0
LINE
  5
B5
330
1F
100
AcDbEntity
  8
0
100
AcDbLine
 10
-21.71840914985161
 20
4.289714655987648
 30
0.0
 11
-22.03415168914512
 21
4.207322655604421
 31
0.0
  0
LINE
  5
B6
330
1F
100
AcDbEntity
  8
0
100
AcDbLine
 10
-22.03415168914512
 20
4.207322655604421
 30
0.0
 11
-22.36046018117008
 21
4.209458277072854
 31
0.0
  0
LINE
  5
B7
330
1F
100
AcDbEntity
  8
0
100
AcDbLine
 10
-22.36046018117008
 20
4.209458277072854
 30
0.0
 11
-22.67509724144526
 21
4.295975981319107
 31
0.0
  0
LINE
  5
B8
330
1F
100
AcDbEntity
  8
0
100
AcDbLine
 10
-22.67509724144526
 20
4.295975981319107
 30
0.0
 11
-22.95662087427526
 21
4.460979729776103
 31
0.0
  0
LINE
  5
B9
330
1F
100
AcDbEntity
  8
0
100
AcDbLine
 10
-22.95662087427526
 20
4.460979729776103
 30
0.0
 11
-23.1858457093225
 21
4.693224789668077
 31
0.0
  0
LINE
  5
BA
330
1F
100
AcDbEntity
  8
0
100
AcDbLine
 10
-23.1858457093225
 20
4.693224789668077
 30
0.0
 11
-23.34715045289045
 21
4.976884043966475
 31
0.0
  0
LINE
  5
BB
330
1F
100
AcDbEntity
  8
0
100
AcDbLine
 10
-23.34715045289045
 20
4.976884043966475
 30
0.0
 11
-23.42954245327368
 21
5.292626583259989
 31
0.0
  0
LINE
  5
BC
330
1F
100
AcDbEntity
  8
0
100
AcDbLine
 10
-23.42740683180528
 20
5.618935075284969
 30
0.0
 11
-23.34088912755905
 21
5.933572135560149
 31
0.0
  0
LINE
  5
BD
330
1F
100
AcDbEntity
  8
0
100
AcDbLine
 10
-23.34088912755905
 20
5.933572135560149
 30
0.0
 11
-23.17588537910203
 21
6.215095768390158
 31
0.0
  0
LINE
  5
BE
330
1F
100
AcDbEntity
  8
0
100
AcDbLine
 10
-23.17588537910203
 20
6.215095768390158
 30
0.0
 11
-22.94364031921007
 21
6.444320603437395
 31
0.0
  0
LINE
  5
BF
330
1F
100
AcDbEntity
  8
0
100
AcDbLine
 10
-22.94364031921007
 20
6.444320603437395
 30
0.0
 11
-22.65998106491166
 21
6.605625347005381
 31
0.0
  0
LINE
  5
C0
330
1F
100
AcDbEntity
  8
0
100
AcDbLine
 10
-22.65998106491166
 20
6.605625347005381
 30
0.0
 11
-22.34423852561815
 21
6.688017347388586
 31
0.0
  0
LINE
  5
C1
330
1F
100
AcDbEntity
  8
0
100
AcDbLine
 10
-22.34423852561815
 20
6.688017347388586
 30
0.0
 11
-22.0179300335932
 21
6.685881725920175
 31
0.0
  0
LINE
  5
C2
330
1F
100
AcDbEntity
  8
0
100
AcDbLine
 10
-22.0179300335932
 20
6.685881725920175
 30
0.0
 11
-21.703292973318
 21
6.599364021673899
 31
0.0
  0
LINE
  5
C3
330
1F
100
AcDbEntity
  8
0
100
AcDbLine
 10
-21.703292973318
 20
6.599364021673899
 30
0.0
 11
-21.42176934048798
 21
6.434360273216904
 31
0.0
  0
LINE
  5
C4
330
1F
100
AcDbEntity
  8
0
100
AcDbLine
 10
-21.42176934048798
 20
6.434360273216904
 30
0.0
 11
-21.19254450544074
 21
6.202115213324929
 31
0.0
  0
LINE
  5
C5
330
1F
100
AcDbEntity
  8
0
100
AcDbLine
 10
-21.19254450544074
 20
6.202115213324929
 30
0.0
 11
-21.03123976187275
 21
5.918455959026532
 31
0.0
  0
LINE
  5
C6
330
1F
100
AcDbEntity
  8
0
100
AcDbLine
 10
-21.03123976187275
 20
5.918455959026532
 30
0.0
 11
-20.94884776148953
 21
5.602713419733018
 31
0.0
  0
LINE
  5
C7
330
1F
100
AcDbEntity
  8
0
100
AcDbLine
 10
-20.94884776148953
 20
5.602713419733018
 30
0.0
 11
-20.95098338295794
 21
5.276404927708038
 31
0.0
  0
LINE
  5
C8
330
1F
100
AcDbEntity
  8
0
100
AcDbLine
 10
-20.95098338295794
 20
5.276404927708038
 30
0.0
 11
-21.03750108720421
 21
4.961767867432858
 31
0.0
  0
LINE
  5
C9
330
1F
100
AcDbEntity
  8
0
100
AcDbLine
 10
-21.03750108720421
 20
4.961767867432858
 30
0.0
 11
-21.20250483566121
 21
4.680244234602848
 31
0.0
  0
LINE
  5
CA
330
1F
100
AcDbEntity
  8
0
100
AcDbLine
 10
-64.760184305469
 20
40.05552246113302
 30
0.0
 11
-63.18138813034362
 21
39.84767000149634
 31
0.0
  0
LINE
  5
CB
330
1F
100
AcDbEntity
  8
0
100
AcDbLine
 10
-67.49473949558154
 20
41.63431863625841
 30
0.0
 11
-66.2313881303436
 21
40.66491503841125
 31
0.0
  0
LINE
  5
CC
330
1F
100
AcDbEntity
  8
0
100
AcDbLine
 10
-68.46414309342867
 20
42.8976700014963
 30
0.0
 11
-67.49473949558154
 21
41.63431863625841
 31
0.0
  0
LINE
  5
CD
330
1F
100
AcDbEntity
  8
0
100
AcDbLine
 10
-42.63801599279628
 20
41.02488863504978
 30
0.0
 11
-40.46595162680342
 21
39.32322666846961
 31
0.0
  0
LINE
  5
CE
330
1F
100
AcDbEntity
  8
0
100
AcDbLine
 10
-69.07353567070693
 20
44.36887382637097
 30
0.0
 11
-68.46414309342867
 21
42.8976700014963
 31
0.0
  0
LINE
  5
CF
330
1F
100
AcDbEntity
  8
0
100
AcDbLine
 10
-36.04117749728817
 20
26.27031395279251
 30
0.0
 11
-36.94319195650869
 21
24.95799923332746
 31
0.0
  0
LINE
  5
D0
330
1F
100
AcDbEntity
  8
0
100
AcDbLine
 10
-37.59982905232336
 20
21.86943691814545
 30
0.0
 11
-37.30970295598185
 21
20.30366974011772
 31
0.0
  0
LINE
  5
D1
330
1F
100
AcDbEntity
  8
0
100
AcDbLine
 10
-69.28138813034361
 20
45.94767000149633
 30
0.0
 11
-69.07353567070693
 21
44.36887382637097
 31
0.0
  0
LINE
  5
D2
330
1F
100
AcDbEntity
  8
0
100
AcDbLine
 10
-52.69885610975574
 20
45.38517825479487
 30
0.0
 11
-50.02923820243929
 21
44.6875699926185
 31
0.0
  0
LINE
  5
D3
330
1F
100
AcDbEntity
  8
0
100
AcDbLine
 10
-75.1813881303436
 20
45.94767000149633
 30
0.0
 11
-69.28138813034361
 21
45.94767000149633
 31
0.0
  0
LINE
  5
D4
330
1F
100
AcDbEntity
  8
0
100
AcDbLine
 10
-70.43138813034342
 20
-11.85136810418024
 30
0.0
 11
-70.79315956268962
 21
-12.00121873793719
 31
0.0
  0
LINE
  5
D5
330
1F
100
AcDbEntity
  8
0
100
AcDbLine
 10
-33.1813881303436
 20
-12.05232999850359
 30
0.0
 11
-31.1813881303436
 21
-12.05232999850359
 31
0.0
  0
LINE
  5
D6
330
1F
100
AcDbEntity
  8
0
100
AcDbLine
 10
-70.79315956268962
 20
-12.00121873793719
 30
0.0
 11
-71.18138813034342
 21
-12.05232999850359
 31
0.0
  0
LINE
  5
D7
330
1F
100
AcDbEntity
  8
0
100
AcDbLine
 10
-40.46595162680342
 20
39.32322666846961
 30
0.0
 11
-38.47890341721504
 21
37.40876683047536
 31
0.0
  0
LINE
  5
D8
330
1F
100
AcDbEntity
  8
0
100
AcDbLine
 10
-50.02923820243929
 20
44.6875699926185
 30
0.0
 11
-47.44475957158336
 21
43.72113982692084
 31
0.0
  0
LINE
  5
D9
330
1F
100
AcDbEntity
  8
0
100
AcDbLine
 10
-63.18138813034362
 20
39.84767000149634
 30
0.0
 11
-61.60259195521823
 21
40.05552246113302
 31
0.0
  0
LINE
  5
DA
330
1F
100
AcDbEntity
  8
0
100
AcDbLine
 10
-71.18138813034342
 20
-12.05232999850359
 30
0.0
 11
-71.56961669799723
 21
-12.00121873793719
 31
0.0
  0
LINE
  5
DB
330
1F
100
AcDbEntity
  8
0
100
AcDbLine
 10
-31.1813881303436
 20
-12.05232999850359
 30
0.0
 11
-31.18919510738167
 21
16.09676228467087
 31
0.0
  0
LINE
  5
DC
330
1F
100
AcDbEntity
  8
0
100
AcDbLine
 10
-35.1407156594594
 20
33.02344394431896
 30
0.0
 11
-33.82443941642003
 21
30.59838025226227
 31
0.0
  0
LINE
  5
DD
330
1F
100
AcDbEntity
  8
0
100
AcDbLine
 10
-71.56961669799723
 20
-12.00121873793719
 30
0.0
 11
-71.93138813034344
 21
-11.85136810418024
 31
0.0
  0
LINE
  5
DE
330
1F
100
AcDbEntity
  8
0
100
AcDbLine
 10
-66.2313881303436
 20
40.66491503841125
 30
0.0
 11
-64.760184305469
 21
40.05552246113302
 31
0.0
  0
LINE
  5
DF
330
1F
100
AcDbEntity
  8
0
100
AcDbLine
 10
-71.93138813034344
 20
-11.85136810418024
 30
0.0
 11
-72.24204830212328
 21
-11.61299017028342
 31
0.0
  0
LINE
  5
E0
330
1F
100
AcDbEntity
  8
0
100
AcDbLine
 10
-33.1813881303436
 20
-16.05232999850358
 30
0.0
 11
-33.1813881303436
 21
-12.05232999850359
 31
0.0
  0
LINE
  5
E1
330
1F
100
AcDbEntity
  8
0
100
AcDbLine
 10
-72.24204830212328
 20
-11.61299017028342
 30
0.0
 11
-72.4804262360201
 21
-11.30232999850358
 31
0.0
  0
LINE
  5
E2
330
1F
100
AcDbEntity
  8
0
100
AcDbLine
 10
-32.77670022180892
 20
16.22177236120419
 30
0.0
 11
-31.18919510738167
 21
16.09676228467087
 31
0.0
  0
LINE
  5
E3
330
1F
100
AcDbEntity
  8
0
100
AcDbLine
 10
-33.82443941642003
 20
30.59838025226227
 30
0.0
 11
-33.07574918379431
 21
28.80280196610011
 31
0.0
  0
LINE
  5
E4
330
1F
100
AcDbEntity
  8
0
100
AcDbLine
 10
-37.30970295598185
 20
20.30366974011772
 30
0.0
 11
-36.62421230077511
 21
18.86634494411926
 31
0.0
  0
LINE
  5
E5
330
1F
100
AcDbEntity
  8
0
100
AcDbLine
 10
-34.27775742256364
 20
16.75339938048554
 30
0.0
 11
-32.77670022180892
 21
16.22177236120419
 31
0.0
  0
LINE
  5
E6
330
1F
100
AcDbEntity
  8
0
100
AcDbLine
 10
-47.44475957158336
 20
43.72113982692084
 30
0.0
 11
-44.97241194852323
 21
42.49598094364476
 31
0.0
  0
LINE
  5
E7
330
1F
100
AcDbEntity
  8
0
100
AcDbLine
 10
-37.47481897579004
 20
23.45694203257275
 30
0.0
 11
-37.59982905232336
 21
21.86943691814545
 31
0.0
  0
LINE
  5
E8
330
1F
100
AcDbEntity
  8
0
100
AcDbLine
 10
-55.42573238615678
 20
45.80667894485706
 30
0.0
 11
-52.69885610975574
 21
45.38517825479487
 31
0.0
  0
LINE
  5
E9
330
1F
100
AcDbEntity
  8
0
100
AcDbLine
 10
-75.1813881303436
 20
45.94767000149633
 30
0.0
 11
-75.1813881303436
 21
-16.05232999850358
 31
0.0
  0
LINE
  5
EA
330
1F
100
AcDbEntity
  8
0
100
AcDbLine
 10
-57.08874804596348
 20
45.89176589215747
 30
0.0
 11
-55.42573238615678
 21
45.80667894485706
 31
0.0
  0
LINE
  5
EB
330
1F
100
AcDbEntity
  8
0
100
AcDbLine
 10
-61.60259195521823
 20
40.05552246113302
 30
0.0
 11
-60.13138813034362
 21
40.66491503841125
 31
0.0
  0
LINE
  5
EC
330
1F
100
AcDbEntity
  8
0
100
AcDbLine
 10
-75.1813881303436
 20
-16.05232999850358
 30
0.0
 11
-33.1813881303436
 21
-16.05232999850358
 31
0.0
  0
LINE
  5
ED
330
1F
100
AcDbEntity
  8
0
100
AcDbLine
 10
-35.59007214202868
 20
17.6554138397061
 30
0.0
 11
-34.27775742256364
 21
16.75339938048554
 31
0.0
  0
LINE
  5
EE
330
1F
100
AcDbEntity
  8
0
100
AcDbLine
 10
-36.62421230077511
 20
18.86634494411926
 30
0.0
 11
-35.59007214202868
 21
17.6554138397061
 31
0.0
  0
LINE
  5
EF
330
1F
100
AcDbEntity
  8
0
100
AcDbLine
 10
-36.69762366230246
 20
35.30150332221162
 30
0.0
 11
-35.1407156594594
 21
33.02344394431896
 31
0.0
  0
LINE
  5
F0
330
1F
100
AcDbEntity
  8
0
100
AcDbLine
 10
-44.97241194852323
 20
42.49598094364476
 30
0.0
 11
-42.63801599279628
 21
41.02488863504978
 31
0.0
  0
LINE
  5
F1
330
1F
100
AcDbEntity
  8
0
100
AcDbLine
 10
-57.28924058998029
 20
44.36887382637097
 30
0.0
 11
-57.08874804596348
 21
45.89176589215747
 31
0.0
  0
LINE
  5
F2
330
1F
100
AcDbEntity
  8
0
100
AcDbLine
 10
-57.89863316725852
 20
42.8976700014963
 30
0.0
 11
-57.28924058998029
 21
44.36887382637097
 31
0.0
  0
LINE
  5
F3
330
1F
100
AcDbEntity
  8
0
100
AcDbLine
 10
-58.86803676510566
 20
41.63431863625841
 30
0.0
 11
-57.89863316725852
 21
42.8976700014963
 31
0.0
  0
LINE
  5
F4
330
1F
100
AcDbEntity
  8
0
100
AcDbLine
 10
-60.13138813034362
 20
40.66491503841125
 30
0.0
 11
-58.86803676510566
 21
41.63431863625841
 31
0.0
  0
LINE
  5
F5
330
1F
100
AcDbEntity
  8
0
100
AcDbLine
 10
-72.4804262360201
 20
-11.30232999850358
 30
0.0
 11
-72.63027686977705
 21
-10.94055856615737
 31
0.0
  0
LINE
  5
F6
330
1F
100
AcDbEntity
  8
0
100
AcDbLine
 10
-72.63027686977705
 20
-10.94055856615737
 30
0.0
 11
-72.68138813034345
 21
-10.55232999850357
 31
0.0
  0
LINE
  5
F7
330
1F
100
AcDbEntity
  8
0
100
AcDbLine
 10
-72.68138813034345
 20
-10.55232999850357
 30
0.0
 11
-72.63027686977705
 21
-10.16410143084979
 31
0.0
  0
LINE
  5
F8
330
1F
100
AcDbEntity
  8
0
100
AcDbLine
 10
-72.63027686977705
 20
-10.16410143084979
 30
0.0
 11
-72.4804262360201
 21
-9.80232999850356
 31
0.0
  0
LINE
  5
F9
330
1F
100
AcDbEntity
  8
0
100
AcDbLine
 10
-72.4804262360201
 20
-9.80232999850356
 30
0.0
 11
-72.24204830212328
 21
-9.491669826723745
 31
0.0
  0
LINE
  5
FA
330
1F
100
AcDbEntity
  8
0
100
AcDbLine
 10
-72.24204830212328
 20
-9.491669826723745
 30
0.0
 11
-71.93138813034344
 21
-9.253291892826896
 31
0.0
  0
LINE
  5
FB
330
1F
100
AcDbEntity
  8
0
100
AcDbLine
 10
-71.93138813034344
 20
-9.253291892826896
 30
0.0
 11
-71.56961669799723
 21
-9.103441259069967
 31
0.0
  0
LINE
  5
FC
330
1F
100
AcDbEntity
  8
0
100
AcDbLine
 10
-71.56961669799723
 20
-9.103441259069967
 30
0.0
 11
-71.18138813034342
 21
-9.052329998503549
 31
0.0
  0
LINE
  5
FD
330
1F
100
AcDbEntity
  8
0
100
AcDbLine
 10
-71.18138813034342
 20
-9.052329998503549
 30
0.0
 11
-70.79315956268962
 21
-9.103441259069967
 31
0.0
  0
LINE
  5
FE
330
1F
100
AcDbEntity
  8
0
100
AcDbLine
 10
-70.79315956268962
 20
-9.103441259069967
 30
0.0
 11
-70.43138813034342
 21
-9.253291892826896
 31
0.0
  0
LINE
  5
FF
330
1F
100
AcDbEntity
  8
0
100
AcDbLine
 10
-70.43138813034342
 20
-9.253291892826896
 30
0.0
 11
-70.12072795856358
 21
-9.491669826723745
 31
0.0
  0
LINE
  5
100
330
1F
100
AcDbEntity
  8
0
100
AcDbLine
 10
-70.12072795856358
 20
-9.491669826723745
 30
0.0
 11
-69.88235002466675
 21
-9.80232999850356
 31
0.0
  0
LINE
  5
101
330
1F
100
AcDbEntity
  8
0
100
AcDbLine
 10
-69.88235002466675
 20
-9.80232999850356
 30
0.0
 11
-69.73249939090981
 21
-10.16410143084979
 31
0.0
  0
LINE
  5
102
330
1F
100
AcDbEntity
  8
0
100
AcDbLine
 10
-69.73249939090981
 20
-10.16410143084979
 30
0.0
 11
-69.68138813034341
 21
-10.55232999850357
 31
0.0
  0
LINE
  5
103
330
1F
100
AcDbEntity
  8
0
100
AcDbLine
 10
-69.68138813034341
 20
-10.55232999850357
 30
0.0
 11
-69.73249939090981
 21
-10.94055856615737
 31
0.0
  0
LINE
  5
104
330
1F
100
AcDbEntity
  8
0
100
AcDbLine
 10
-69.73249939090981
 20
-10.94055856615737
 30
0.0
 11
-69.88235002466675
 21
-11.30232999850358
 31
0.0
  0
LINE
  5
105
330
1F
100
AcDbEntity
  8
0
100
AcDbLine
 10
-69.88235002466675
 20
-11.30232999850358
 30
0.0
 11
-70.12072795856358
 21
-11.61299017028342
 31
0.0
  0
LINE
  5
106
330
1F
100
AcDbEntity
  8
0
100
AcDbLine
 10
-70.12072795856358
 20
-11.61299017028342
 30
0.0
 11
-70.43138813034342
 21
-11.85136810418024
 31
0.0
  0
LINE
  5
107
330
1F
100
AcDbEntity
  8
0
100
AcDbLine
 10
-70.43138813034359
 20
41.24670810717301
 30
0.0
 11
-70.79315956268981
 21
41.39655874092994
 31
0.0
  0
LINE
  5
108
330
1F
100
AcDbEntity
  8
0
100
AcDbLine
 10
-70.12072795856376
 20
41.00833017327612
 30
0.0
 11
-70.43138813034359
 21
41.24670810717301
 31
0.0
  0
LINE
  5
109
330
1F
100
AcDbEntity
  8
0
100
AcDbLine
 10
-69.88235002466693
 20
40.69767000149633
 30
0.0
 11
-70.12072795856376
 21
41.00833017327612
 31
0.0
  0
LINE
  5
10A
330
1F
100
AcDbEntity
  8
0
100
AcDbLine
 10
-69.73249939091001
 20
40.33589856915012
 30
0.0
 11
-69.88235002466693
 21
40.69767000149633
 31
0.0
  0
LINE
  5
10B
330
1F
100
AcDbEntity
  8
0
100
AcDbLine
 10
-69.68138813034359
 20
39.94767000149632
 30
0.0
 11
-69.73249939091001
 21
40.33589856915012
 31
0.0
  0
LINE
  5
10C
330
1F
100
AcDbEntity
  8
0
100
AcDbLine
 10
-69.73249939091001
 20
39.55944143384252
 30
0.0
 11
-69.68138813034359
 21
39.94767000149632
 31
0.0
  0
LINE
  5
10D
330
1F
100
AcDbEntity
  8
0
100
AcDbLine
 10
-69.88235002466693
 20
39.19767000149631
 30
0.0
 11
-69.73249939091001
 21
39.55944143384252
 31
0.0
  0
LINE
  5
10E
330
1F
100
AcDbEntity
  8
0
100
AcDbLine
 10
-70.12072795856376
 20
38.88700982971652
 30
0.0
 11
-69.88235002466693
 21
39.19767000149631
 31
0.0
  0
LINE
  5
10F
330
1F
100
AcDbEntity
  8
0
100
AcDbLine
 10
-70.43138813034359
 20
38.64863189581965
 30
0.0
 11
-70.12072795856376
 21
38.88700982971652
 31
0.0
  0
LINE
  5
110
330
1F
100
AcDbEntity
  8
0
100
AcDbLine
 10
-70.79315956268981
 20
38.49878126206271
 30
0.0
 11
-70.43138813034359
 21
38.64863189581965
 31
0.0
  0
LINE
  5
111
330
1F
100
AcDbEntity
  8
0
100
AcDbLine
 10
-71.1813881303436
 20
38.4476700014963
 30
0.0
 11
-70.79315956268981
 21
38.49878126206271
 31
0.0
  0
LINE
  5
112
330
1F
100
AcDbEntity
  8
0
100
AcDbLine
 10
-71.56961669799736
 20
38.49878126206271
 30
0.0
 11
-71.1813881303436
 21
38.4476700014963
 31
0.0
  0
LINE
  5
113
330
1F
100
AcDbEntity
  8
0
100
AcDbLine
 10
-71.93138813034359
 20
38.64863189581965
 30
0.0
 11
-71.56961669799736
 21
38.49878126206271
 31
0.0
  0
LINE
  5
114
330
1F
100
AcDbEntity
  8
0
100
AcDbLine
 10
-72.24204830212341
 20
38.88700982971652
 30
0.0
 11
-71.93138813034359
 21
38.64863189581965
 31
0.0
  0
LINE
  5
115
330
1F
100
AcDbEntity
  8
0
100
AcDbLine
 10
-72.48042623602026
 20
39.19767000149631
 30
0.0
 11
-72.24204830212341
 21
38.88700982971652
 31
0.0
  0
LINE
  5
116
330
1F
100
AcDbEntity
  8
0
100
AcDbLine
 10
-72.6302768697772
 20
39.55944143384252
 30
0.0
 11
-72.48042623602026
 21
39.19767000149631
 31
0.0
  0
LINE
  5
117
330
1F
100
AcDbEntity
  8
0
100
AcDbLine
 10
-72.68138813034358
 20
39.94767000149632
 30
0.0
 11
-72.6302768697772
 21
39.55944143384252
 31
0.0
  0
LINE
  5
118
330
1F
100
AcDbEntity
  8
0
100
AcDbLine
 10
-72.6302768697772
 20
40.33589856915012
 30
0.0
 11
-72.68138813034358
 21
39.94767000149632
 31
0.0
  0
LINE
  5
119
330
1F
100
AcDbEntity
  8
0
100
AcDbLine
 10
-72.48042623602024
 20
40.69767000149633
 30
0.0
 11
-72.6302768697772
 21
40.33589856915012
 31
0.0
  0
LINE
  5
11A
330
1F
100
AcDbEntity
  8
0
100
AcDbLine
 10
-72.24204830212341
 20
41.00833017327612
 30
0.0
 11
-72.48042623602024
 21
40.69767000149633
 31
0.0
  0
LINE
  5
11B
330
1F
100
AcDbEntity
  8
0
100
AcDbLine
 10
-71.93138813034359
 20
41.24670810717301
 30
0.0
 11
-72.24204830212341
 21
41.00833017327612
 31
0.0
  0
LINE
  5
11C
330
1F
100
AcDbEntity
  8
0
100
AcDbLine
 10
-71.56961669799736
 20
41.39655874092994
 30
0.0
 11
-71.93138813034359
 21
41.24670810717301
 31
0.0
  0
LINE
  5
11D
330
1F
100
AcDbEntity
  8
0
100
AcDbLine
 10
-71.1813881303436
 20
41.44767000149636
 30
0.0
 11
-71.56961669799736
 21
41.39655874092994
 31
0.0
  0
LINE
  5
11E
330
1F
100
AcDbEntity
  8
0
100
AcDbLine
 10
-70.79315956268981
 20
41.39655874092994
 30
0.0
 11
-71.1813881303436
 21
41.44767000149636
 31
0.0
  0
LINE
  5
11F
330
1F
100
AcDbEntity
  8
0
100
AcDbLine
 10
-35.68138813034359
 20
-6.052329998503668
 30
0.0
 11
-35.6302768697772
 21
-5.664101430849889
 31
0.0
  0
LINE
  5
120
330
1F
100
AcDbEntity
  8
0
100
AcDbLine
 10
-35.6302768697772
 20
-5.664101430849889
 30
0.0
 11
-35.48042623602025
 21
-5.30232999850368
 31
0.0
  0
LINE
  5
121
330
1F
100
AcDbEntity
  8
0
100
AcDbLine
 10
-35.48042623602025
 20
-5.30232999850368
 30
0.0
 11
-35.24204830212342
 21
-4.991669826723844
 31
0.0
  0
LINE
  5
122
330
1F
100
AcDbEntity
  8
0
100
AcDbLine
 10
-35.24204830212342
 20
-4.991669826723844
 30
0.0
 11
-34.93138813034361
 21
-4.753291892827018
 31
0.0
  0
LINE
  5
123
330
1F
100
AcDbEntity
  8
0
100
AcDbLine
 10
-34.93138813034361
 20
-4.753291892827018
 30
0.0
 11
-34.56961669799738
 21
-4.603441259070065
 31
0.0
  0
LINE
  5
124
330
1F
100
AcDbEntity
  8
0
100
AcDbLine
 10
-34.56961669799738
 20
-4.603441259070065
 30
0.0
 11
-34.1813881303436
 21
-4.55232999850367
 31
0.0
  0
LINE
  5
125
330
1F
100
AcDbEntity
  8
0
100
AcDbLine
 10
-34.1813881303436
 20
-4.55232999850367
 30
0.0
 11
-33.79315956268982
 21
-4.603441259070065
 31
0.0
  0
LINE
  5
126
330
1F
100
AcDbEntity
  8
0
100
AcDbLine
 10
-33.79315956268982
 20
-4.603441259070065
 30
0.0
 11
-33.43138813034361
 21
-4.753291892827018
 31
0.0
  0
LINE
  5
127
330
1F
100
AcDbEntity
  8
0
100
AcDbLine
 10
-33.43138813034361
 20
-4.753291892827018
 30
0.0
 11
-33.12072795856377
 21
-4.991669826723844
 31
0.0
  0
LINE
  5
128
330
1F
100
AcDbEntity
  8
0
100
AcDbLine
 10
-33.12072795856377
 20
-4.991669826723844
 30
0.0
 11
-32.88235002466695
 21
-5.302329998503658
 31
0.0
  0
LINE
  5
129
330
1F
100
AcDbEntity
  8
0
100
AcDbLine
 10
-32.88235002466695
 20
-5.302329998503658
 30
0.0
 11
-32.73249939090999
 21
-5.664101430849889
 31
0.0
  0
LINE
  5
12A
330
1F
100
AcDbEntity
  8
0
100
AcDbLine
 10
-32.73249939090999
 20
-5.664101430849889
 30
0.0
 11
-32.6813881303436
 21
-6.052329998503668
 31
0.0
  0
LINE
  5
12B
330
1F
100
AcDbEntity
  8
0
100
AcDbLine
 10
-32.6813881303436
 20
-6.052329998503668
 30
0.0
 11
-32.73249939090999
 21
-6.440558566157446
 31
0.0
  0
LINE
  5
12C
330
1F
100
AcDbEntity
  8
0
100
AcDbLine
 10
-32.73249939090999
 20
-6.440558566157446
 30
0.0
 11
-32.88235002466695
 21
-6.802329998503655
 31
0.0
  0
LINE
  5
12D
330
1F
100
AcDbEntity
  8
0
100
AcDbLine
 10
-32.88235002466695
 20
-6.802329998503655
 30
0.0
 11
-33.12072795856377
 21
-7.112990170283491
 31
0.0
  0
LINE
  5
12E
330
1F
100
AcDbEntity
  8
0
100
AcDbLine
 10
-33.12072795856377
 20
-7.112990170283491
 30
0.0
 11
-33.43138813034358
 21
-7.351368104180318
 31
0.0
  0
LINE
  5
12F
330
1F
100
AcDbEntity
  8
0
100
AcDbLine
 10
-33.43138813034358
 20
-7.351368104180318
 30
0.0
 11
-33.79315956268982
 21
-7.50121873793727
 31
0.0
  0
LINE
  5
130
330
1F
100
AcDbEntity
  8
0
100
AcDbLine
 10
-33.79315956268982
 20
-7.50121873793727
 30
0.0
 11
-34.1813881303436
 21
-7.552329998503665
 31
0.0
  0
LINE
  5
131
330
1F
100
AcDbEntity
  8
0
100
AcDbLine
 10
-34.1813881303436
 20
-7.552329998503665
 30
0.0
 11
-34.56961669799738
 21
-7.50121873793727
 31
0.0
  0
LINE
  5
132
330
1F
100
AcDbEntity
  8
0
100
AcDbLine
 10
-34.56961669799738
 20
-7.50121873793727
 30
0.0
 11
-34.93138813034358
 21
-7.351368104180318
 31
0.0
  0
LINE
  5
133
330
1F
100
AcDbEntity
  8
0
100
AcDbLine
 10
-34.93138813034358
 20
-7.351368104180318
 30
0.0
 11
-35.24204830212342
 21
-7.112990170283491
 31
0.0
  0
LINE
  5
134
330
1F
100
AcDbEntity
  8
0
100
AcDbLine
 10
-35.24204830212342
 20
-7.112990170283491
 30
0.0
 11
-35.48042623602025
 21
-6.802329998503677
 31
0.0
  0
LINE
  5
135
330
1F
100
AcDbEntity
  8
0
100
AcDbLine
 10
-35.48042623602025
 20
-6.802329998503677
 30
0.0
 11
-35.6302768697772
 21
-6.440558566157446
 31
0.0
  0
LINE
  5
136
330
1F
100
AcDbEntity
  8
0
100
AcDbLine
 10
-35.6302768697772
 20
-6.440558566157446
 30
0.0
 11
-35.68138813034359
 21
-6.052329998503668
 31
0.0
  0
LINE
  5
137
330
1F
100
AcDbEntity
  8
0
100
AcDbLine
 10
-38.68138813034358
 20
29.94767000149634
 30
0.0
 11
-38.63027686977719
 21
30.33589856915005
 31
0.0
  0
LINE
  5
138
330
1F
100
AcDbEntity
  8
0
100
AcDbLine
 10
-38.63027686977719
 20
30.33589856915005
 30
0.0
 11
-38.48042623602024
 21
30.69767000149626
 31
0.0
  0
LINE
  5
139
330
1F
100
AcDbEntity
  8
0
100
AcDbLine
 10
-38.48042623602024
 20
30.69767000149626
 30
0.0
 11
-38.24204830212341
 21
31.00833017327614
 31
0.0
  0
LINE
  5
13A
330
1F
100
AcDbEntity
  8
0
100
AcDbLine
 10
-38.24204830212341
 20
31.00833017327614
 30
0.0
 11
-37.9313881303436
 21
31.24670810717292
 31
0.0
  0
LINE
  5
13B
330
1F
100
AcDbEntity
  8
0
100
AcDbLine
 10
-37.9313881303436
 20
31.24670810717292
 30
0.0
 11
-37.56961669799737
 21
31.39655874092994
 31
0.0
  0
LINE
  5
13C
330
1F
100
AcDbEntity
  8
0
100
AcDbLine
 10
-37.56961669799737
 20
31.39655874092994
 30
0.0
 11
-37.18138813034359
 21
31.44767000149627
 31
0.0
  0
LINE
  5
13D
330
1F
100
AcDbEntity
  8
0
100
AcDbLine
 10
-37.18138813034359
 20
31.44767000149627
 30
0.0
 11
-36.79315956268982
 21
31.39655874092994
 31
0.0
  0
LINE
  5
13E
330
1F
100
AcDbEntity
  8
0
100
AcDbLine
 10
-36.79315956268982
 20
31.39655874092994
 30
0.0
 11
-36.43138813034361
 21
31.24670810717292
 31
0.0
  0
LINE
  5
13F
330
1F
100
AcDbEntity
  8
0
100
AcDbLine
 10
-36.43138813034361
 20
31.24670810717292
 30
0.0
 11
-36.12072795856377
 21
31.00833017327614
 31
0.0
  0
LINE
  5
140
330
1F
100
AcDbEntity
  8
0
100
AcDbLine
 10
-36.12072795856377
 20
31.00833017327614
 30
0.0
 11
-35.88235002466694
 21
30.69767000149635
 31
0.0
  0
LINE
  5
141
330
1F
100
AcDbEntity
  8
0
100
AcDbLine
 10
-35.88235002466694
 20
30.69767000149635
 30
0.0
 11
-35.73249939090999
 21
30.33589856915005
 31
0.0
  0
LINE
  5
142
330
1F
100
AcDbEntity
  8
0
100
AcDbLine
 10
-35.73249939090999
 20
30.33589856915005
 30
0.0
 11
-35.68138813034359
 21
29.94767000149634
 31
0.0
  0
LINE
  5
143
330
1F
100
AcDbEntity
  8
0
100
AcDbLine
 10
-35.68138813034359
 20
29.94767000149634
 30
0.0
 11
-35.73249939090999
 21
29.55944143384254
 31
0.0
  0
LINE
  5
144
330
1F
100
AcDbEntity
  8
0
100
AcDbLine
 10
-35.73249939090999
 20
29.55944143384254
 30
0.0
 11
-35.88235002466694
 21
29.19767000149633
 31
0.0
  0
LINE
  5
145
330
1F
100
AcDbEntity
  8
0
100
AcDbLine
 10
-35.88235002466694
 20
29.19767000149633
 30
0.0
 11
-36.12072795856377
 21
28.88700982971644
 31
0.0
  0
LINE
  5
146
330
1F
100
AcDbEntity
  8
0
100
AcDbLine
 10
-36.12072795856377
 20
28.88700982971644
 30
0.0
 11
-36.43138813034358
 21
28.64863189581967
 31
0.0
  0
LINE
  5
147
330
1F
100
AcDbEntity
  8
0
100
AcDbLine
 10
-36.43138813034358
 20
28.64863189581967
 30
0.0
 11
-36.79315956268982
 21
28.49878126206274
 31
0.0
  0
LINE
  5
148
330
1F
100
AcDbEntity
  8
0
100
AcDbLine
 10
-36.79315956268982
 20
28.49878126206274
 30
0.0
 11
-37.18138813034359
 21
28.44767000149632
 31
0.0
  0
LINE
  5
149
330
1F
100
AcDbEntity
  8
0
100
AcDbLine
 10
-37.18138813034359
 20
28.44767000149632
 30
0.0
 11
-37.56961669799737
 21
28.49878126206274
 31
0.0
  0
LINE
  5
14A
330
1F
100
AcDbEntity
  8
0
100
AcDbLine
 10
-37.56961669799737
 20
28.49878126206274
 30
0.0
 11
-37.93138813034358
 21
28.64863189581967
 31
0.0
  0
LINE
  5
14B
330
1F
100
AcDbEntity
  8
0
100
AcDbLine
 10
-37.93138813034358
 20
28.64863189581967
 30
0.0
 11
-38.24204830212341
 21
28.88700982971644
 31
0.0
  0
LINE
  5
14C
330
1F
100
AcDbEntity
  8
0
100
AcDbLine
 10
-38.24204830212341
 20
28.88700982971644
 30
0.0
 11
-38.48042623602024
 21
29.19767000149633
 31
0.0
  0
LINE
  5
14D
330
1F
100
AcDbEntity
  8
0
100
AcDbLine
 10
-38.48042623602024
 20
29.19767000149633
 30
0.0
 11
-38.63027686977719
 21
29.55944143384254
 31
0.0
  0
LINE
  5
14E
330
1F
100
AcDbEntity
  8
0
100
AcDbLine
 10
-38.63027686977719
 20
29.55944143384254
 30
0.0
 11
-38.68138813034358
 21
29.94767000149634
 31
0.0
  0
LINE
  5
14F
330
1F
100
AcDbEntity
  8
0
100
AcDbLine
 10
-20.89660239024296
 20
-13.22880619212533
 30
0.0
 11
-20.77172686211224
 21
-12.92732999850348
 31
0.0
  0
LINE
  5
150
330
1F
100
AcDbEntity
  8
0
100
AcDbLine
 10
-20.77172686211224
 20
-12.92732999850348
 30
0.0
 11
-20.57307858386483
 21
-12.6684465220203
 31
0.0
  0
LINE
  5
151
330
1F
100
AcDbEntity
  8
0
100
AcDbLine
 10
-20.89660239024296
 20
-13.87585380488162
 30
0.0
 11
-20.93919510738169
 21
-13.55232999850347
 31
0.0
  0
LINE
  5
152
330
1F
100
AcDbEntity
  8
0
100
AcDbLine
 10
-28.18919510738166
 20
-16.05232999850358
 30
0.0
 11
-28.18919510738169
 21
-0.052329998503498
 31
0.0
  0
LINE
  5
153
330
1F
100
AcDbEntity
  8
0
100
AcDbLine
 10
-19.06419510738166
 20
-14.63486175323405
 30
0.0
 11
-19.36567130100347
 21
-14.75973728136488
 31
0.0
  0
LINE
  5
154
330
1F
100
AcDbEntity
  8
0
100
AcDbLine
 10
-19.06419510738166
 20
-12.46979824377297
 30
0.0
 11
-18.80531163089844
 21
-12.66844652202032
 31
0.0
  0
LINE
  5
155
330
1F
100
AcDbEntity
  8
0
100
AcDbLine
 10
-20.01271891375985
 20
-12.34492271564218
 30
0.0
 11
-19.68919510738166
 21
-12.30232999850351
 31
0.0
  0
LINE
  5
156
330
1F
100
AcDbEntity
  8
0
100
AcDbLine
 10
-20.31419510738165
 20
-14.63486175323405
 30
0.0
 11
-20.57307858386486
 21
-14.43621347498665
 31
0.0
  0
LINE
  5
157
330
1F
100
AcDbEntity
  8
0
100
AcDbLine
 10
-20.57307858386486
 20
-14.43621347498665
 30
0.0
 11
-20.77172686211226
 21
-14.17732999850351
 31
0.0
  0
LINE
  5
158
330
1F
100
AcDbEntity
  8
0
100
AcDbLine
 10
-20.01271891375981
 20
-14.75973728136484
 30
0.0
 11
-20.31419510738165
 21
-14.63486175323405
 31
0.0
  0
LINE
  5
159
330
1F
100
AcDbEntity
  8
0
100
AcDbLine
 10
-18.6066633526511
 20
-12.9273299985035
 30
0.0
 11
-18.48178782452032
 21
-13.22880619212535
 31
0.0
  0
LINE
  5
15A
330
1F
100
AcDbEntity
  8
0
100
AcDbLine
 10
-20.57307858386483
 20
-12.6684465220203
 30
0.0
 11
-20.31419510738165
 21
-12.46979824377292
 31
0.0
  0
LINE
  5
15B
330
1F
100
AcDbEntity
  8
0
100
AcDbLine
 10
-18.80531163089846
 20
-14.43621347498669
 30
0.0
 11
-19.06419510738166
 21
-14.63486175323405
 31
0.0
  0
LINE
  5
15C
330
1F
100
AcDbEntity
  8
0
100
AcDbLine
 10
-19.36567130100347
 20
-14.75973728136488
 30
0.0
 11
-19.68919510738164
 21
-14.8023299985035
 31
0.0
  0
LINE
  5
15D
330
1F
100
AcDbEntity
  8
0
100
AcDbLine
 10
-18.48178782452032
 20
-13.87585380488164
 30
0.0
 11
-18.60666335265106
 21
-14.17732999850347
 31
0.0
  0
LINE
  5
15E
330
1F
100
AcDbEntity
  8
0
100
AcDbLine
 10
-18.48178782452032
 20
-13.22880619212535
 30
0.0
 11
-18.43919510738163
 21
-13.5523299985035
 31
0.0
  0
LINE
  5
15F
330
1F
100
AcDbEntity
  8
0
100
AcDbLine
 10
-18.60666335265106
 20
-14.17732999850347
 30
0.0
 11
-18.80531163089846
 21
-14.43621347498669
 31
0.0
  0
LINE
  5
160
330
1F
100
AcDbEntity
  8
0
100
AcDbLine
 10
-28.18919510738169
 20
-0.052329998503498
 30
0.0
 11
-12.18919510738165
 21
-0.0523299985034755
 31
0.0
  0
LINE
  5
161
330
1F
100
AcDbEntity
  8
0
100
AcDbLine
 10
-18.43919510738163
 20
-13.5523299985035
 30
0.0
 11
-18.48178782452032
 21
-13.87585380488164
 31
0.0
  0
LINE
  5
162
330
1F
100
AcDbEntity
  8
0
100
AcDbLine
 10
-19.68919510738164
 20
-14.8023299985035
 30
0.0
 11
-20.01271891375981
 21
-14.75973728136484
 31
0.0
  0
LINE
  5
163
330
1F
100
AcDbEntity
  8
0
100
AcDbLine
 10
-19.36567130100349
 20
-12.34492271564215
 30
0.0
 11
-19.06419510738166
 21
-12.46979824377297
 31
0.0
  0
LINE
  5
164
330
1F
100
AcDbEntity
  8
0
100
AcDbLine
 10
-19.68919510738166
 20
-12.30232999850351
 30
0.0
 11
-19.36567130100349
 21
-12.34492271564215
 31
0.0
  0
LINE
  5
165
330
1F
100
AcDbEntity
  8
0
100
AcDbLine
 10
-20.77172686211226
 20
-14.17732999850351
 30
0.0
 11
-20.89660239024296
 21
-13.87585380488162
 31
0.0
  0
LINE
  5
166
330
1F
100
AcDbEntity
  8
0
100
AcDbLine
 10
-12.18919510738161
 20
-16.05232999850345
 30
0.0
 11
-28.18919510738166
 21
-16.05232999850358
 31
0.0
  0
LINE
  5
167
330
1F
100
AcDbEntity
  8
0
100
AcDbLine
 10
-20.31419510738165
 20
-12.46979824377292
 30
0.0
 11
-20.01271891375985
 21
-12.34492271564218
 31
0.0
  0
LINE
  5
168
330
1F
100
AcDbEntity
  8
0
100
AcDbLine
 10
-18.80531163089844
 20
-12.66844652202032
 30
0.0
 11
-18.6066633526511
 21
-12.9273299985035
 31
0.0
  0
LINE
  5
169
330
1F
100
AcDbEntity
  8
0
100
AcDbLine
 10
-20.93919510738169
 20
-13.55232999850347
 30
0.0
 11
-20.89660239024296
 21
-13.22880619212533
 31
0.0
  0
LINE
  5
16A
330
1F
100
AcDbEntity
  8
0
100
AcDbLine
 10
-6.926310920484934
 20
20.42249504990649
 30
0.0
 11
-7.016034563905032
 21
22.39413352423211
 31
0.0
  0
LINE
  5
16B
330
1F
100
AcDbEntity
  8
0
100
AcDbLine
 10
-25.22662294334779
 20
31.64603540119764
 30
0.0
 11
-24.67740908987019
 21
33.31404345104893
 31
0.0
  0
LINE
  5
16C
330
1F
100
AcDbEntity
  8
0
100
AcDbLine
 10
-25.55428252106326
 20
30.37885092562215
 30
0.0
 11
-23.13164153854778
 21
29.16436111500048
 31
0.0
  0
LINE
  5
16D
330
1F
100
AcDbEntity
  8
0
100
AcDbLine
 10
-22.67761192245213
 20
32.26161789961273
 30
0.0
 11
-22.67504917669002
 21
32.6531880900427
 31
0.0
  0
LINE
  5
16E
330
1F
100
AcDbEntity
  8
0
100
AcDbLine
 10
-23.42954245327368
 20
5.292626583259989
 30
0.0
 11
-23.42740683180528
 21
5.618935075284969
 31
0.0
  0
LINE
  5
16F
330
1F
100
AcDbEntity
  8
0
100
AcDbLine
 10
-38.47890341721504
 20
37.40876683047536
 30
0.0
 11
-36.69762366230246
 21
35.30150332221162
 31
0.0
  0
LINE
  5
170
330
1F
100
AcDbEntity
  8
0
100
AcDbLine
 10
-33.07574918379431
 20
28.80280196610011
 30
0.0
 11
-36.04117749728817
 21
26.27031395279251
 31
0.0
  0
LINE
  5
171
330
1F
100
AcDbEntity
  8
0
100
AcDbLine
 10
-37.47481897579004
 20
23.45694203257275
 30
0.0
 11
-36.94319195650869
 21
24.95799923332746
 31
0.0
  0
LINE
  5
172
330
1F
100
AcDbEntity
  8
0
100
AcDbLine
 10
-12.18919510738165
 20
-0.0523299985034755
 30
0.0
 11
-12.18919510738161
 21
-16.05232999850345
 31
0.0
  0
LINE
  5
173
330
1F
100
AcDbEntity
  8
0
100
AcDbLine
 10
-32.78387296333614
 20
28.10279737025579
 30
0.0
 11
-32.76254183528326
 21
28.05163908251273
 31
0.0
  0
LINE
  5
174
330
1F
100
AcDbEntity
  8
0
100
AcDbLine
 10
-57.08874804596348
 20
45.89176589215747
 30
0.0
 11
-57.08138813034361
 21
45.94767000149633
 31
0.0
  0
ENDSEC
  0
SECTION
  2
OBJECTS
  0
DICTIONARY
  5
C
330
0
100
AcDbDictionary
  3
ACAD_GROUP
350
D
  3
ACAD_LAYOUT
350
1A
  3
ACAD_MATERIAL
350
43
  3
ACAD_MLEADERSTYLE
350
6B
  3
ACAD_MLINESTYLE
350
17
  3
ACAD_PLOTSETTINGS
350
19
  3
ACAD_SCALELIST
350
47
  3
ACAD_VISUALSTYLE
350
2A
  3
ACDBHEADERROUNDTRIPXREC
350
175
  3
ACDBVARIABLEDICTIONARY
350
196
  0
DICTIONARY
  5
19D
330
8
100
AcDbDictionary
280
     1
  3
ACAD_XREC_ROUNDTRIP
360
19E
  0
DICTIONARY
  5
D
102
{ACAD_REACTORS
330
C
102
}
330
C
100
AcDbDictionary
  0
DICTIONARY
  5
1A
102
{ACAD_REACTORS
330
C
102
}
330
C
100
AcDbDictionary
  0
DICTIONARY
  5
43
102
{ACAD_REACTORS
330
C
102
}
330
C
100
AcDbDictionary
  3
BYBLOCK
350
45
  3
BYLAYER
350
44
  3
GLOBAL
350
46
  0
DICTIONARY
  5
6B
102
{ACAD_REACTORS
330
C
102
}
330
C
100
AcDbDictionary
  3
STANDARD
350
6C
  0
DICTIONARY
  5
17
102
{ACAD_REACTORS
330
C
102
}
330
C
100
AcDbDictionary
  3
STANDARD
350
18
  0
DICTIONARY
  5
19
102
{ACAD_REACTORS
330
C
102
}
330
C
100
AcDbDictionary
  0
DICTIONARY
  5
47
102
{ACAD_REACTORS
330
C
102
}
330
C
100
AcDbDictionary
  3
A0
350
48
  3
A1
350
49
  3
A2
350
4A
  3
A3
350
4B
  3
A4
350
4C
  3
A5
350
4D
  3
A6
350
4E
  3
A7
350
4F
  3
A8
350
50
  3
A9
350
51
  3
B0
350
52
  3
B1
350
53
  3
B2
350
54
  3
B3
350
55
  3
B4
350
56
  3
B5
350
57
  3
B6
350
58
  3
B7
350
59
  3
B8
350
5A
  3
B9
350
5B
  3
C0
350
5C
  3
C1
350
5D
  3
C2
350
5E
  3
C3
350
5F
  3
C4
350
60
  3
C5
350
61
  3
C6
350
62
  3
C7
350
63
  3
C8
350
64
  3
C9
350
65
  3
D0
350
66
  3
D1
350
67
  3
D2
350
68
  0
DICTIONARY
  5
2A
102
{ACAD_REACTORS
330
C
102
}
330
C
100
AcDbDictionary
  3
2DWIREFRAME
350
2F
  3
BASIC
350
32
  3
BRIGHTEN
350
36
  3
COLORCHANGE
350
3A
  3
CONCEPTUAL
350
34
  3
DIM
350
35
  3
EDGECOLOROFF
350
3D
  3
FACEPATTERN
350
39
  3
FLAT
350
2B
  3
FLATWITHEDGES
350
2C
  3
GOURAUD
350
2D
  3
GOURAUDWITHEDGES
350
2E
  3
HIDDEN
350
31
  3
JITTEROFF
350
3B
  3
LINEPATTERN
350
38
  3
OVERHANGOFF
350
3C
  3
REALISTIC
350
33
  3
SHADED
350
42
  3
SHADED_WITH_EDGES
350
41
  3
SHADES_OF_GRAY
350
3E
  3
SKETCHY
350
3F
  3
THICKEN
350
37
  3
WIREFRAME
350
30
  3
X-RAY
350
40
  0
DICTIONARY
  5
175
102
{ACAD_REACTORS
330
C
102
}
330
C
100
AcDbDictionary
  3
CEPSNID
350
17F
  3
CEPSNTYPE
350
17E
  3
DIMSTYLEDATA
350
195
  3
FINGERPRINTGUID
350
180
  3
HYPERLINKBASE
350
178
  3
INSUNITS
350
17D
  3
LAYOUTDICT
350
17A
  3
LWETCUNION
350
17C
  3
PLOTSETDICT
350
17B
  3
PSVPSCALE
350
182
  3
PUCSBASE
350
185
  3
PUCSORGBACK
350
18B
  3
PUCSORGBOTTOM
350
187
  3
PUCSORGFRONT
350
18A
  3
PUCSORGLEFT
350
188
  3
PUCSORGRIGHT
350
189
  3
PUCSORGTOP
350
186
  3
PUCSORTHOREF
350
183
  3
PUCSORTHOVIEW
350
184
  3
STYLESHEET
350
179
  3
TSTACKALIGN
350
176
  3
TSTACKSIZE
350
177
  3
UCSBASE
350
18E
  3
UCSORGBACK
350
194
  3
UCSORGBOTTOM
350
190
  3
UCSORGFRONT
350
193
  3
UCSORGLEFT
350
191
  3
UCSORGRIGHT
350
192
  3
UCSORGTOP
350
18F
  3
UCSORTHOREF
350
18C
  3
UCSORTHOVIEW
350
18D
  3
VERSIONGUID
350
181
  0
DICTIONARY
  5
196
102
{ACAD_REACTORS
330
C
102
}
330
C
100
AcDbDictionary
  3
CANNOSCALE
350
19F
  3
CMLEADERSTYLE
350
198
  3
CTABLESTYLE
350
197
  3
DIMASSOC
350
19B
  3
HIDETEXT
350
19C
  3
MSLTSCALE
350
1A0
  0
XRECORD
  5
19E
102
{ACAD_REACTORS
330
19D
102
}
330
19D
100
AcDbXrecord
102
VTR_0.000_0.000_1.000_1.000_VISUALSTYLE
340
2F
102
VTR_0.000_0.000_1.000_1.000_GRIDDISPLAY
 70
     3
102
VTR_0.000_0.000_1.000_1.000_GRIDMAJOR
 70
     5
102
VTR_0.000_0.000_1.000_1.000_DEFAULTLIGHTING
280
     1
102
VTR_0.000_0.000_1.000_1.000_DEFAULTLIGHTINGTYPE
 70
     1
102
VTR_0.000_0.000_1.000_1.000_BRIGHTNESS
141
0.0
102
VTR_0.000_0.000_1.000_1.000_CONTRAST
142
0.0
  0
MATERIAL
  5
45
102
{ACAD_REACTORS
330
43
102
}
102
{ACAD_XDICTIONARY
360
1A3
102
}
330
43
100
AcDbMaterial
  1
BYBLOCK
  0
MATERIAL
  5
44
102
{ACAD_REACTORS
330
43
102
}
102
{ACAD_XDICTIONARY
360
1A1
102
}
330
43
100
AcDbMaterial
  1
BYLAYER
  0
MATERIAL
  5
46
102
{ACAD_REACTORS
330
43
102
}
102
{ACAD_XDICTIONARY
360
1A5
102
}
330
43
100
AcDbMaterial
  1
GLOBAL
  0
ACAD_PROXY_OBJECT
  5
6C
102
{ACAD_REACTORS
330
6B
102
}
330
6B
100
AcDbProxyObject
 90
      499
 91
      505
 93
      610
310
40901902A4063FBFFFFFE056BD1B81E855B9FC0AD7A3703D0AD73F4214DD185B99185C9900AD7A3703D0AC73F90141901A02B5E8DC0F42B1CFC02B5E8DC0F42B1CFE5764000000000000300FC0
340
14
340
0
340
11
340
0
 94
        0
1001
ACAD_MLEADERVER
1070
     2
  0
MLINESTYLE
  5
18
102
{ACAD_REACTORS
330
17
102
}
330
17
100
AcDbMlineStyle
  2
Standard
 70
     0
  3

 62
   256
 51
90.0
 52
90.0
 71
     2
 49
0.5
 62
   256
  6
BYLAYER
 49
-0.5
 62
   256
  6
BYLAYER
  0
ACAD_PROXY_OBJECT
  5
48
102
{ACAD_REACTORS
330
47
102
}
330
47
100
AcDbProxyObject
 90
      499
 91
      503
 93
       41
310
903313A31580
  0
ACAD_PROXY_OBJECT
  5
49
102
{ACAD_REACTORS
330
47
102
}
330
47
100
AcDbProxyObject
 90
      499
 91
      503
 93
      105
310
903313A324000000000000004000
  0
ACAD_PROXY_OBJECT
  5
4A
102
{ACAD_REACTORS
330
47
102
}
330
47
100
AcDbProxyObject
 90
      499
 91
      503
 93
      105
310
903313A344000000000000104000
  0
ACAD_PROXY_OBJECT
  5
4B
102
{ACAD_REACTORS
330
47
102
}
330
47
100
AcDbProxyObject
 90
      499
 91
      503
 93
      105
310
903313A354000000000000144000
  0
ACAD_PROXY_OBJECT
  5
4C
102
{ACAD_REACTORS
330
47
102
}
330
47
100
AcDbProxyObject
 90
      499
 91
      503
 93
      105
310
903313A384000000000000204000
  0
ACAD_PROXY_OBJECT
  5
4D
102
{ACAD_REACTORS
330
47
102
}
330
47
100
AcDbProxyObject
 90
      499
 91
      503
 93
      113
310
904313A31304000000000000244000
  0
ACAD_PROXY_OBJECT
  5
4E
102
{ACAD_REACTORS
330
47
102
}
330
47
100
AcDbProxyObject
 90
      499
 91
      503
 93
      113
310
904313A31364000000000000304000
  0
ACAD_PROXY_OBJECT
  5
4F
102
{ACAD_REACTORS
330
47
102
}
330
47
100
AcDbProxyObject
 90
      499
 91
      503
 93
      113
310
904313A32304000000000000344000
  0
ACAD_PROXY_OBJECT
  5
50
102
{ACAD_REACTORS
330
47
102
}
330
47
100
AcDbProxyObject
 90
      499
 91
      503
 93
      113
310
904313A333040000000000003E4000
  0
ACAD_PROXY_OBJECT
  5
51
102
{ACAD_REACTORS
330
47
102
}
330
47
100
AcDbProxyObject
 90
      499
 91
      503
 93
      113
310
904313A34304000000000000444000
  0
ACAD_PROXY_OBJECT
  5
52
102
{ACAD_REACTORS
330
47
102
}
330
47
100
AcDbProxyObject
 90
      499
 91
      503
 93
      113
310
904313A35304000000000000494000
  0
ACAD_PROXY_OBJECT
  5
53
102
{ACAD_REACTORS
330
47
102
}
330
47
100
AcDbProxyObject
 90
      499
 91
      503
 93
      121
310
905313A3130304000000000000594000
  0
ACAD_PROXY_OBJECT
  5
54
102
{ACAD_REACTORS
330
47
102
}
330
47
100
AcDbProxyObject
 90
      499
 91
      503
 93
      105
310
903323A310000000000000010100
  0
ACAD_PROXY_OBJECT
  5
55
102
{ACAD_REACTORS
330
47
102
}
330
47
100
AcDbProxyObject
 90
      499
 91
      503
 93
      105
310
903343A310000000000000410100
  0
ACAD_PROXY_OBJECT
  5
56
102
{ACAD_REACTORS
330
47
102
}
330
47
100
AcDbProxyObject
 90
      499
 91
      503
 93
      105
310
903383A310000000000000810100
  0
ACAD_PROXY_OBJECT
  5
57
102
{ACAD_REACTORS
330
47
102
}
330
47
100
AcDbProxyObject
 90
      499
 91
      503
 93
      113
310
90431303A310000000000000910100
  0
ACAD_PROXY_OBJECT
  5
58
102
{ACAD_REACTORS
330
47
102
}
330
47
100
AcDbProxyObject
 90
      499
 91
      503
 93
      121
310
9053130303A310000000000001650100
  0
ACAD_PROXY_OBJECT
  5
59
102
{ACAD_REACTORS
330
47
102
}
330
47
100
AcDbProxyObject
 90
      499
 91
      503
 93
      257
310
90E312F31323822203D2031272D3022000000000000200FC000000000000284000
  0
ACAD_PROXY_OBJECT
  5
5A
102
{ACAD_REACTORS
330
47
102
}
330
47
100
AcDbProxyObject
 90
      499
 91
      503
 93
      249
310
90D312F363422203D2031272D3022000000000000240FC000000000000284000
  0
ACAD_PROXY_OBJECT
  5
5B
102
{ACAD_REACTORS
330
47
102
}
330
47
100
AcDbProxyObject
 90
      499
 91
      503
 93
      249
310
90D312F333222203D2031272D3022000000000000280FC000000000000284000
  0
ACAD_PROXY_OBJECT
  5
5C
102
{ACAD_REACTORS
330
47
102
}
330
47
100
AcDbProxyObject
 90
      499
 91
      503
 93
      249
310
90D312F313622203D2031272D30220000000000002C0FC000000000000284000
  0
ACAD_PROXY_OBJECT
  5
5D
102
{ACAD_REACTORS
330
47
102
}
330
47
100
AcDbProxyObject
 90
      499
 91
      503
 93
      249
310
90D332F333222203D2031272D30220000000000002E0FC000000000000284000
  0
ACAD_PROXY_OBJECT
  5
5E
102
{ACAD_REACTORS
330
47
102
}
330
47
100
AcDbProxyObject
 90
      499
 91
      503
 93
      241
310
90C312F3822203D2031272D3022000000000000300FC000000000000284000
  0
ACAD_PROXY_OBJECT
  5
5F
102
{ACAD_REACTORS
330
47
102
}
330
47
100
AcDbProxyObject
 90
      499
 91
      503
 93
      249
310
90D332F313622203D2031272D3022000000000000320FC000000000000284000
  0
ACAD_PROXY_OBJECT
  5
60
102
{ACAD_REACTORS
330
47
102
}
330
47
100
AcDbProxyObject
 90
      499
 91
      503
 93
      241
310
90C312F3422203D2031272D3022000000000000340FC000000000000284000
  0
ACAD_PROXY_OBJECT
  5
61
102
{ACAD_REACTORS
330
47
102
}
330
47
100
AcDbProxyObject
 90
      499
 91
      503
 93
      241
310
90C332F3822203D2031272D3022000000000000360FC000000000000284000
  0
ACAD_PROXY_OBJECT
  5
62
102
{ACAD_REACTORS
330
47
102
}
330
47
100
AcDbProxyObject
 90
      499
 91
      503
 93
      241
310
90C312F3222203D2031272D3022000000000000380FC000000000000284000
  0
ACAD_PROXY_OBJECT
  5
63
102
{ACAD_REACTORS
330
47
102
}
330
47
100
AcDbProxyObject
 90
      499
 91
      503
 93
      241
310
90C332F3422203D2031272D30220000000000003A0FC000000000000284000
  0
ACAD_PROXY_OBJECT
  5
64
102
{ACAD_REACTORS
330
47
102
}
330
47
100
AcDbProxyObject
 90
      499
 91
      503
 93
      161
310
90A3122203D2031272D30224000000000000284000
  0
ACAD_PROXY_OBJECT
  5
65
102
{ACAD_REACTORS
330
47
102
}
330
47
100
AcDbProxyObject
 90
      499
 91
      503
 93
      257
310
90E312D312F3222203D2031272D30220000000000003E0FC000000000000284000
  0
ACAD_PROXY_OBJECT
  5
66
102
{ACAD_REACTORS
330
47
102
}
330
47
100
AcDbProxyObject
 90
      499
 91
      503
 93
      225
310
90A3322203D2031272D302200000000000002100000000000000284000
  0
ACAD_PROXY_OBJECT
  5
67
102
{ACAD_REACTORS
330
47
102
}
330
47
100
AcDbProxyObject
 90
      499
 91
      503
 93
      225
310
90A3622203D2031272D302200000000000006100000000000000284000
  0
ACAD_PROXY_OBJECT
  5
68
102
{ACAD_REACTORS
330
47
102
}
330
47
100
AcDbProxyObject
 90
      499
 91
      503
 93
      249
310
90D31272D3022203D2031272D30220000000000000A100000000000000284000
  0
ACAD_PROXY_OBJECT
  5
2F
102
{ACAD_REACTORS
330
2A
102
}
330
2A
100
AcDbProxyObject
 90
      499
 91
      501
 93
      436
310
42CC9915DA5C99599C985B595049028333333333333E33F0000000000000F90107901411070040501600405405064090741402480A0340
1001
ACAD
1000
AcDbSavedByObjectVersion
1070
     0
  0
ACAD_PROXY_OBJECT
  5
32
102
{ACAD_REACTORS
330
2A
102
}
330
2A
100
AcDbProxyObject
 90
      499
 91
      501
 93
      388
310
4150985CDA58D07406404333333333333E33F0000000000000F90107A41107004050150841D405064090741402480A0350
1001
ACAD
1000
AcDbSavedByObjectVersion
1070
     0
  0
ACAD_PROXY_OBJECT
  5
36
102
{ACAD_REACTORS
330
2A
102
}
330
2A
100
AcDbProxyObject
 90
      499
 91
      501
 93
      428
310
42109C9A59DA1D195B90C409028333333333333E33F0000000000000F9010790141107004050150841D405064090741402480A029950
1001
ACAD
1000
AcDbSavedByObjectVersion
1070
     0
  0
ACAD_PROXY_OBJECT
  5
3A
102
{ACAD_REACTORS
330
2A
102
}
330
2A
100
AcDbProxyObject
 90
      499
 91
      501
 93
      452
310
42D0DBDB1BDC90DA185B99D95104090240C333333333333E33F0000000000000F90108901411070040501508421405064090741402480A0350
1001
ACAD
1000
AcDbSavedByObjectVersion
1070
     0
  0
ACAD_PROXY_OBJECT
  5
34
102
{ACAD_REACTORS
330
2A
102
}
330
2A
100
AcDbProxyObject
 90
      499
 91
      501
 93
      500
310
4290DBDB98D95C1D1D585B10940D028333333333333E33F0000000000000F90107902409070040501000000000018199010841D405064090740C02480A0340
1001
ACAD
1000
AcDbSavedByObjectVersion
1070
     0
  0
ACAD_PROXY_OBJECT
  5
35
102
{ACAD_REACTORS
330
2A
102
}
330
2A
100
AcDbProxyObject
 90
      499
 91
      501
 93
      412
310
40D11A5B50B409028333333333333E33F0000000000000F9010790141107004050150841D405064090741402480A02677FFFFFD0
1001
ACAD
1000
AcDbSavedByObjectVersion
1070
     0
  0
ACAD_PROXY_OBJECT
  5
3D
102
{ACAD_REACTORS
330
2A
102
}
330
2A
100
AcDbProxyObject
 90
      499
 91
      501
 93
      452
310
43115919D950DBDB1BDC93D999916409028333333333333E33F0000000000000F9010790141107004050150841D405064090741402480A0350
1001
ACAD
1000
AcDbSavedByObjectVersion
1070
     0
  0
ACAD_PROXY_OBJECT
  5
39
102
{ACAD_REACTORS
330
2A
102
}
330
2A
100
AcDbProxyObject
 90
      499
 91
      501
 93
      444
310
42D19858D95C185D1D195C9B90F409028333333333333E33F0000000000000F9010790141107004050150841D405064090741402480A0350
1001
ACAD
1000
AcDbSavedByObjectVersion
1070
     0
  0
ACAD_PROXY_OBJECT
  5
2B
102
{ACAD_REACTORS
330
2A
102
}
330
2A
100
AcDbProxyObject
 90
      499
 91
      501
 93
      380
310
41119B185D240901404333333333333E33F0000000000000F9010740A907004050150841D405064090741402480A1B50
1001
ACAD
1000
AcDbSavedByObjectVersion
1070
     0
  0
ACAD_PROXY_OBJECT
  5
2C
102
{ACAD_REACTORS
330
2A
102
}
330
2A
100
AcDbProxyObject
 90
      499
 91
      501
 93
      468
310
43519B185D15DA5D1A115919D95CD0140901404333333333333E33F0000000000000F90107409019070040501600405405064090741402480A1B50
1001
ACAD
1000
AcDbSavedByObjectVersion
1070
     0
  0
ACAD_PROXY_OBJECT
  5
2D
102
{ACAD_REACTORS
330
2A
102
}
330
2A
100
AcDbProxyObject
 90
      499
 91
      501
 93
      404
310
41D1DBDD5C985D5910240902404333333333333E33F0000000000000F9010740A9070040501641D405064090741402480A1B50
1001
ACAD
1000
AcDbSavedByObjectVersion
1070
     0
  0
ACAD_PROXY_OBJECT
  5
2E
102
{ACAD_REACTORS
330
2A
102
}
330
2A
100
AcDbProxyObject
 90
      499
 91
      501
 93
      492
310
4411DBDD5C985D5915DA5D1A115919D95CD0340902404333333333333E33F0000000000000F90107409019070040501600405405064090741402480A1B50
1001
ACAD
1000
AcDbSavedByObjectVersion
1070
     0
  0
ACAD_PROXY_OBJECT
  5
31
102
{ACAD_REACTORS
330
2A
102
}
330
2A
100
AcDbProxyObject
 90
      499
 91
      501
 93
      476
310
41921A5919195B90640502408333333333333E33F0000000000000F901079024090700405020000000000001110200405405064090740C02480A0340
1001
ACAD
1000
AcDbSavedByObjectVersion
1070
     0
  0
ACAD_PROXY_OBJECT
  5
3B
102
{ACAD_REACTORS
330
2A
102
}
330
2A
100
AcDbProxyObject
 90
      499
 91
      501
 93
      428
310
42529A5D1D195C93D999914409028333333333333E33F0000000000000F9010790141107004050150A41D405064090741402480A0350
1001
ACAD
1000
AcDbSavedByObjectVersion
1070
     0
  0
ACAD_PROXY_OBJECT
  5
38
102
{ACAD_REACTORS
330
2A
102
}
330
2A
100
AcDbProxyObject
 90
      499
 91
      501
 93
      444
310
42D31A5B995C185D1D195C9B90E409028333333333333E33F0000000000000F9010790141107004050750841D405064090741402483A0350
1001
ACAD
1000
AcDbSavedByObjectVersion
1070
     0
  0
ACAD_PROXY_OBJECT
  5
3C
102
{ACAD_REACTORS
330
2A
102
}
330
2A
100
AcDbProxyObject
 90
      499
 91
      501
 93
      444
310
42D3DD995C9A185B99D3D999915409028333333333333E33F0000000000000F9010790141107004050150941D405064090741402480A0350
1001
ACAD
1000
AcDbSavedByObjectVersion
1070
     0
  0
ACAD_PROXY_OBJECT
  5
33
102
{ACAD_REACTORS
330
2A
102
}
330
2A
100
AcDbProxyObject
 90
      499
 91
      501
 93
      428
310
425499585B1A5CDD1A58D08409038333333333333E33F0000000000000F9010740A907004050150800405405064090740C02480A1B40
1001
ACAD
1000
AcDbSavedByObjectVersion
1070
     0
  0
ACAD_PROXY_OBJECT
  5
42
102
{ACAD_REACTORS
330
2A
102
}
330
2A
100
AcDbProxyObject
 90
      499
 91
      501
 93
      420
310
4194DA1859195911B40902404333333333333E33F0000000000000F9010740A41107004050150800405405064090840C02480A0B40
1001
ACAD
1000
AcDbSavedByObjectVersion
1070
     0
  0
ACAD_PROXY_OBJECT
  5
41
102
{ACAD_REACTORS
330
2A
102
}
330
2A
100
AcDbProxyObject
 90
      499
 91
      501
 93
      516
310
4454DA18591959081DDA5D1A08195919D95CD1A40902404333333333333E33F0000000000000F901074090142907004050250800405405064090740C02480A0B40
1001
ACAD
1000
AcDbSavedByObjectVersion
1070
     0
  0
ACAD_PROXY_OBJECT
  5
3E
102
{ACAD_REACTORS
330
2A
102
}
330
2A
100
AcDbProxyObject
 90
      499
 91
      501
 93
      532
310
4394DA1859195CC81BD98811DC985E5174090240C333333333333E33F0000000000000F901079024090741D01000000000000111010841D405064090740C02480A0340
1001
ACAD
1000
AcDbSavedByObjectVersion
1070
     0
  0
ACAD_PROXY_OBJECT
  5
3F
102
{ACAD_REACTORS
330
2A
102
}
330
2A
100
AcDbProxyObject
 90
      499
 91
      501
 93
      476
310
41D4DAD95D18DA1E51840502408333333333333E33F0000000000000F901079024090741D01000000000000111010B41D405064090741802480A0340
1001
ACAD
1000
AcDbSavedByObjectVersion
1070
     0
  0
ACAD_PROXY_OBJECT
  5
37
102
{ACAD_REACTORS
330
2A
102
}
330
2A
100
AcDbProxyObject
 90
      499
 91
      501
 93
      412
310
41D51A1A58DAD95B90D409028333333333333E33F0000000000000F9010790141107004050150C41D405064090741402480A0350
1001
ACAD
1000
AcDbSavedByObjectVersion
1070
     0
  0
ACAD_PROXY_OBJECT
  5
30
102
{ACAD_REACTORS
330
2A
102
}
330
2A
100
AcDbProxyObject
 90
      499
 91
      501
 93
      420
310
4255DA5C99599C985B595059028333333333333E33F0000000000000F90107901411070040501600405405064090740C02480A0340
1001
ACAD
1000
AcDbSavedByObjectVersion
1070
     0
  0
ACAD_PROXY_OBJECT
  5
40
102
{ACAD_REACTORS
330
2A
102
}
330
2A
100
AcDbProxyObject
 90
      499
 91
      501
 93
      404
310
41560B54985E51940902404000000000000E03F0000000000000F9010740501907004050150841D405064090740C02480A1B40
1001
ACAD
1000
AcDbSavedByObjectVersion
1070
     0
  0
XRECORD
  5
17F
102
{ACAD_REACTORS
330
175
102
}
330
175
100
AcDbXrecord
340
0
  0
XRECORD
  5
17E
102
{ACAD_REACTORS
330
175
102
}
330
175
100
AcDbXrecord
 90
        0
  0
XRECORD
  5
195
102
{ACAD_REACTORS
330
175
102
}
330
175
100
AcDbXrecord
1000
DSTYLE
1002
{
1070
   171
 70
     2
1070
   143
 40
25.4
1070
   274
 70
     2
1070
    41
 40
0.18
1070
   141
 40
0.09
1070
   271
 70
     4
1070
    43
 40
0.38
1070
   278
 70
    46
1070
    44
 40
0.18
1070
    42
 40
0.0625
1070
   147
 40
0.09
1070
    77
 70
     0
1070
   272
 70
     4
1070
    73
 70
     1
1070
   172
 70
     0
1070
    74
 70
     1
1070
   283
 70
     1
1070
   340
340
11
1070
   140
 40
0.18
1070
   284
 70
     0
1070
    78
 70
     0
1002
}
  0
XRECORD
  5
180
102
{ACAD_REACTORS
330
175
102
}
330
175
100
AcDbXrecord
  1
{600BDD48-1275-4CA6-8A00-C5ECCADB26A0}
  0
XRECORD
  5
178
102
{ACAD_REACTORS
330
175
102
}
330
175
100
AcDbXrecord
  1

  0
XRECORD
  5
17D
102
{ACAD_REACTORS
330
175
102
}
330
175
100
AcDbXrecord
 90
        4
  0
XRECORD
  5
17A
102
{ACAD_REACTORS
330
175
102
}
330
175
100
AcDbXrecord
340
1A
  0
XRECORD
  5
17C
102
{ACAD_REACTORS
330
175
102
}
330
175
100
AcDbXrecord
 90
    10781
  0
XRECORD
  5
17B
102
{ACAD_REACTORS
330
175
102
}
330
175
100
AcDbXrecord
340
19
  0
XRECORD
  5
182
102
{ACAD_REACTORS
330
175
102
}
330
175
100
AcDbXrecord
 40
0.0
  0
XRECORD
  5
185
102
{ACAD_REACTORS
330
175
102
}
330
175
100
AcDbXrecord
340
0
  0
XRECORD
  5
18B
102
{ACAD_REACTORS
330
175
102
}
330
175
100
AcDbXrecord
 10
0.0
 20
0.0
 30
0.0
  0
XRECORD
  5
187
102
{ACAD_REACTORS
330
175
102
}
330
175
100
AcDbXrecord
 10
0.0
 20
0.0
 30
0.0
  0
XRECORD
  5
18A
102
{ACAD_REACTORS
330
175
102
}
330
175
100
AcDbXrecord
 10
0.0
 20
0.0
 30
0.0
  0
XRECORD
  5
188
102
{ACAD_REACTORS
330
175
102
}
330
175
100
AcDbXrecord
 10
0.0
 20
0.0
 30
0.0
  0
XRECORD
  5
189
102
{ACAD_REACTORS
330
175
102
}
330
175
100
AcDbXrecord
 10
0.0
 20
0.0
 30
0.0
  0
XRECORD
  5
186
102
{ACAD_REACTORS
330
175
102
}
330
175
100
AcDbXrecord
 10
0.0
 20
0.0
 30
0.0
  0
XRECORD
  5
183
102
{ACAD_REACTORS
330
175
102
}
330
175
100
AcDbXrecord
340
0
  0
XRECORD
  5
184
102
{ACAD_REACTORS
330
175
102
}
330
175
100
AcDbXrecord
 70
     0
  0
XRECORD
  5
179
102
{ACAD_REACTORS
330
175
102
}
330
175
100
AcDbXrecord
  1

  0
XRECORD
  5
176
102
{ACAD_REACTORS
330
175
102
}
330
175
100
AcDbXrecord
 90
        1
  0
XRECORD
  5
177
102
{ACAD_REACTORS
330
175
102
}
330
175
100
AcDbXrecord
 90
       70
  0
XRECORD
  5
18E
102
{ACAD_REACTORS
330
175
102
}
330
175
100
AcDbXrecord
340
0
  0
XRECORD
  5
194
102
{ACAD_REACTORS
330
175
102
}
330
175
100
AcDbXrecord
 10
0.0
 20
0.0
 30
0.0
  0
XRECORD
  5
190
102
{ACAD_REACTORS
330
175
102
}
330
175
100
AcDbXrecord
 10
0.0
 20
0.0
 30
0.0
  0
XRECORD
  5
193
102
{ACAD_REACTORS
330
175
102
}
330
175
100
AcDbXrecord
 10
0.0
 20
0.0
 30
0.0
  0
XRECORD
  5
191
102
{ACAD_REACTORS
330
175
102
}
330
175
100
AcDbXrecord
 10
0.0
 20
0.0
 30
0.0
  0
XRECORD
  5
192
102
{ACAD_REACTORS
330
175
102
}
330
175
100
AcDbXrecord
 10
0.0
 20
0.0
 30
0.0
  0
XRECORD
  5
18F
102
{ACAD_REACTORS
330
175
102
}
330
175
100
AcDbXrecord
 10
0.0
 20
0.0
 30
0.0
  0
XRECORD
  5
18C
102
{ACAD_REACTORS
330
175
102
}
330
175
100
AcDbXrecord
340
0
  0
XRECORD
  5
18D
102
{ACAD_REACTORS
330
175
102
}
330
175
100
AcDbXrecord
 70
     0
  0
XRECORD
  5
181
102
{ACAD_REACTORS
330
175
102
}
330
175
100
AcDbXrecord
  1
{FAEB1C32-E019-11D5-929B-00C0DF256EC4}
  0
DICTIONARYVAR
  5
19F
102
{ACAD_REACTORS
330
196
102
}
330
196
100
DictionaryVariables
280
     0
  1
1:1
  0
DICTIONARYVAR
  5
198
102
{ACAD_REACTORS
330
196
102
}
330
196
100
DictionaryVariables
280
     0
  1
Standard
  0
DICTIONARYVAR
  5
197
102
{ACAD_REACTORS
330
196
102
}
330
196
100
DictionaryVariables
280
     0
  1
Standard
  0
DICTIONARYVAR
  5
19B
102
{ACAD_REACTORS
330
196
102
}
330
196
100
DictionaryVariables
280
     0
  1
2
  0
DICTIONARYVAR
  5
19C
102
{ACAD_REACTORS
330
196
102
}
330
196
100
DictionaryVariables
280
     0
  1
1
  0
DICTIONARYVAR
  5
1A0
102
{ACAD_REACTORS
330
196
102
}
330
196
100
DictionaryVariables
280
     0
  1
1
  0
DICTIONARY
  5
1A3
330
45
100
AcDbDictionary
280
     1
  3
ACAD_XREC_ROUNDTRIP
360
1A4
  0
DICTIONARY
  5
1A1
330
44
100
AcDbDictionary
280
     1
  3
ACAD_XREC_ROUNDTRIP
360
1A2
  0
DICTIONARY
  5
1A5
330
46
100
AcDbDictionary
280
     1
  3
ACAD_XREC_ROUNDTRIP
360
1A6
  0
XRECORD
  5
1A4
102
{ACAD_REACTORS
330
1A3
102
}
330
1A3
100
AcDbXrecord
102
MATERIAL
148
0.0
149
0.0
149
0.0
 93
        0
 94
      127
282
     0
 72
     1
 77
     1
171
     1
175
     1
179
     1
273
     0
  0
XRECORD
  5
1A2
102
{ACAD_REACTORS
330
1A1
102
}
330
1A1
100
AcDbXrecord
102
MATERIAL
148
0.0
149
0.0
149
0.0
 93
        0
 94
      127
282
     0
 72
     1
 77
     1
171
     1
175
     1
179
     1
273
     0
  0
XRECORD
  5
1A6
102
{ACAD_REACTORS
330
1A5
102
}
330
1A5
100
AcDbXrecord
102
MATERIAL
148
0.0
149
0.0
149
0.0
 93
        0
 94
      127
282
     0
 72
     1
 77
     1
171
     1
175
     1
179
     1
273
     0
  0
ENDSEC
  0
EOF
