  0
SECTION
  2
HEADER
  9
$ACADVER
  1
AC1014
  9
$ACADMAINTVER
 70
     9
  9
$DWGCODEPAGE
  3
ANSI_1252
  9
$INSBASE
 10
0.0
 20
0.0
 30
0.0
  9
$EXTMIN
 10
1.000000000000000E+20
 20
1.000000000000000E+20
 30
1.000000000000000E+20
  9
$EXTMAX
 10
-1.000000000000000E+20
 20
-1.000000000000000E+20
 30
-1.000000000000000E+20
  9
$LIMMIN
 10
0.0
 20
0.0
  9
$LIMMAX
 10
12.0
 20
9.0
  9
$ORTHOMODE
 70
     0
  9
$REGENMODE
 70
     1
  9
$FILLMODE
 70
     1
  9
$QTEXTMODE
 70
     0
  9
$MIRRTEXT
 70
     1
  9
$DRAGMODE
 70
     2
  9
$LTSCALE
 40
1.0
  9
$OSMODE
 70
    37
  9
$ATTMODE
 70
     1
  9
$TEXTSIZE
 40
0.2
  9
$TRACEWID
 40
0.05
  9
$TEXTSTYLE
  7
STANDARD
  9
$CLAYER
  8
0
  9
$CELTYPE
  6
BYLAYER
  9
$CECOLOR
 62
   256
  9
$CELTSCALE
 40
1.0
  9
$DELOBJ
 70
     1
  9
$DISPSILH
 70
     0
  9
$DIMSCALE
 40
1.0
  9
$DIMASZ
 40
0.18
  9
$DIMEXO
 40
0.0625
  9
$DIMDLI
 40
0.38
  9
$DIMRND
 40
0.0
  9
$DIMDLE
 40
0.0
  9
$DIMEXE
 40
0.18
  9
$DIMTP
 40
0.0
  9
$DIMTM
 40
0.0
  9
$DIMTXT
 40
0.18
  9
$DIMCEN
 40
0.09
  9
$DIMTSZ
 40
0.0
  9
$DIMTOL
 70
     0
  9
$DIMLIM
 70
     0
  9
$DIMTIH
 70
     1
  9
$DIMTOH
 70
     1
  9
$DIMSE1
 70
     0
  9
$DIMSE2
 70
     0
  9
$DIMTAD
 70
     0
  9
$DIMZIN
 70
     0
  9
$DIMBLK
  1

  9
$DIMASO
 70
     1
  9
$DIMSHO
 70
     1
  9
$DIMPOST
  1

  9
$DIMAPOST
  1

  9
$DIMALT
 70
     0
  9
$DIMALTD
 70
     2
  9
$DIMALTF
 40
25.4
  9
$DIMLFAC
 40
1.0
  9
$DIMTOFL
 70
     0
  9
$DIMTVP
 40
0.0
  9
$DIMTIX
 70
     0
  9
$DIMSOXD
 70
     0
  9
$DIMSAH
 70
     0
  9
$DIMBLK1
  1

  9
$DIMBLK2
  1

  9
$DIMSTYLE
  2
STANDARD
  9
$DIMCLRD
 70
     0
  9
$DIMCLRE
 70
     0
  9
$DIMCLRT
 70
     0
  9
$DIMTFAC
 40
1.0
  9
$DIMGAP
 40
0.09
  9
$DIMJUST
 70
     0
  9
$DIMSD1
 70
     0
  9
$DIMSD2
 70
     0
  9
$DIMTOLJ
 70
     1
  9
$DIMTZIN
 70
     0
  9
$DIMALTZ
 70
     0
  9
$DIMALTTZ
 70
     0
  9
$DIMFIT
 70
     3
  9
$DIMUPT
 70
     0
  9
$DIMUNIT
 70
     2
  9
$DIMDEC
 70
     4
  9
$DIMTDEC
 70
     4
  9
$DIMALTU
 70
     2
  9
$DIMALTTD
 70
     2
  9
$DIMTXSTY
  7
STANDARD
  9
$DIMAUNIT
 70
     0
  9
$LUNITS
 70
     2
  9
$LUPREC
 70
     4
  9
$SKETCHINC
 40
0.1
  9
$FILLETRAD
 40
0.5
  9
$AUNITS
 70
     0
  9
$AUPREC
 70
     0
  9
$MENU
  1
.
  9
$ELEVATION
 40
0.0
  9
$PELEVATION
 40
0.0
  9
$THICKNESS
 40
0.0
  9
$LIMCHECK
 70
     0
  9
$CHAMFERA
 40
0.0
  9
$CHAMFERB
 40
0.0
  9
$CHAMFERC
 40
0.0
  9
$CHAMFERD
 40
0.0
  9
$SKPOLY
 70
     0
  9
$TDCREATE
 40
2459267.943613044
  9
$TDUPDATE
 40
2459267.943613171
  9
$TDINDWG
 40
0.0000000116
  9
$TDUSRTIMER
 40
0.0000000116
  9
$USRTIMER
 70
     1
  9
$ANGBASE
 50
0.0
  9
$ANGDIR
 70
     0
  9
$PDMODE
 70
     0
  9
$PDSIZE
 40
0.0
  9
$PLINEWID
 40
0.0
  9
$COORDS
 70
     1
  9
$SPLFRAME
 70
     0
  9
$SPLINETYPE
 70
     6
  9
$SPLINESEGS
 70
     8
  9
$ATTDIA
 70
     0
  9
$ATTREQ
 70
     1
  9
$HANDLING
 70
     1
  9
$HANDSEED
  5
3F9
  9
$SURFTAB1
 70
     6
  9
$SURFTAB2
 70
     6
  9
$SURFTYPE
 70
     6
  9
$SURFU
 70
     6
  9
$SURFV
 70
     6
  9
$UCSNAME
  2

  9
$UCSORG
 10
0.0
 20
0.0
 30
0.0
  9
$UCSXDIR
 10
1.0
 20
0.0
 30
0.0
  9
$UCSYDIR
 10
0.0
 20
1.0
 30
0.0
  9
$PUCSNAME
  2

  9
$PUCSORG
 10
0.0
 20
0.0
 30
0.0
  9
$PUCSXDIR
 10
1.0
 20
0.0
 30
0.0
  9
$PUCSYDIR
 10
0.0
 20
1.0
 30
0.0
  9
$USERI1
 70
     0
  9
$USERI2
 70
     0
  9
$USERI3
 70
     0
  9
$USERI4
 70
     0
  9
$USERI5
 70
     0
  9
$USERR1
 40
0.0
  9
$USERR2
 40
0.0
  9
$USERR3
 40
0.0
  9
$USERR4
 40
0.0
  9
$USERR5
 40
0.0
  9
$WORLDVIEW
 70
     1
  9
$SHADEDGE
 70
     3
  9
$SHADEDIF
 70
    70
  9
$TILEMODE
 70
     1
  9
$MAXACTVP
 70
    64
  9
$PINSBASE
 10
0.0
 20
0.0
 30
0.0
  9
$PLIMCHECK
 70
     0
  9
$PEXTMIN
 10
1.000000000000000E+20
 20
1.000000000000000E+20
 30
1.000000000000000E+20
  9
$PEXTMAX
 10
-1.000000000000000E+20
 20
-1.000000000000000E+20
 30
-1.000000000000000E+20
  9
$PLIMMIN
 10
0.0
 20
0.0
  9
$PLIMMAX
 10
12.0
 20
9.0
  9
$UNITMODE
 70
     0
  9
$VISRETAIN
 70
     1
  9
$PLINEGEN
 70
     0
  9
$PSLTSCALE
 70
     1
  9
$TREEDEPTH
 70
  3020
  9
$PICKSTYLE
 70
     1
  9
$CMLSTYLE
  2
STANDARD
  9
$CMLJUST
 70
     0
  9
$CMLSCALE
 40
1.0
  9
$PROXYGRAPHICS
 70
     1
  9
$MEASUREMENT
 70
     1
  0
ENDSEC
  0
SECTION
  2
CLASSES
  0
CLASS
  1
ACDBDICTIONARYWDFLT
  2
AcDbDictionaryWithDefault
  3
ObjectDBX Classes
 90
        0
280
     0
281
     0
  0
CLASS
  1
VISUALSTYLE
  2
AcDbVisualStyle
  3
ObjectDBX Classes
 90
     4095
280
     0
281
     0
  0
CLASS
  1
MATERIAL
  2
AcDbMaterial
  3
ObjectDBX Classes
 90
     1153
280
     0
281
     0
  0
CLASS
  1
SCALE
  2
AcDbScale
  3
ObjectDBX Classes
 90
     1153
280
     0
281
     0
  0
CLASS
  1
TABLESTYLE
  2
AcDbTableStyle
  3
ObjectDBX Classes
 90
     4095
280
     0
281
     0
  0
CLASS
  1
MLEADERSTYLE
  2
AcDbMLeaderStyle
  3
ACDB_MLEADERSTYLE_CLASS
 90
     4095
280
     0
281
     0
  0
CLASS
  1
SUN
  2
AcDbSun
  3
SCENEOE
 90
     1153
280
     0
281
     0
  0
CLASS
  1
DICTIONARYVAR
  2
AcDbDictionaryVar
  3
ObjectDBX Classes
 90
        0
280
     0
281
     0
  0
CLASS
  1
XRECORD
  2
AcDbXrecord
  3
ObjectDBX Classes
 90
        0
280
     0
281
     0
  0
CLASS
  1
LWPOLYLINE
  2
AcDbPolyline
  3
ObjectDBX Classes
 90
        0
280
     0
281
     1
  0
CLASS
  1
HATCH
  2
AcDbHatch
  3
ObjectDBX Classes
 90
        0
280
     0
281
     1
  0
CLASS
  1
ACDBPLACEHOLDER
  2
AcDbPlaceHolder
  3
ObjectDBX Classes
 90
        0
280
     0
281
     0
  0
CLASS
  1
LAYOUT
  2
AcDbLayout
  3
ObjectDBX Classes
 90
        0
280
     0
281
     0
  0
ENDSEC
  0
SECTION
  2
TABLES
  0
TABLE
  2
VPORT
  5
8
102
{ACAD_XDICTIONARY
360
3EE
102
}
330
0
100
AcDbSymbolTable
 70
     1
  0
VPORT
  5
29
330
8
100
AcDbSymbolTableRecord
100
AcDbViewportTableRecord
  2
*ACTIVE
 70
     0
 10
0.0
 20
0.0
 11
1.0
 21
1.0
 12
0.0
 22
0.0
 13
0.0
 23
0.0
 14
0.5
 24
0.5
 15
0.5
 25
0.5
 16
0.0
 26
0.0
 36
1.0
 17
0.0
 27
0.0
 37
-1000.0
 40
292.7398551027973
 41
1.758620689655172
 42
50.0
 43
201.4120970520335
 44
274.1103408413744
 50
0.0
 51
0.0
 71
     0
 72
   100
 73
     1
 74
     3
 75
     0
 76
     0
 77
     0
 78
     0
  0
ENDTAB
  0
TABLE
  2
LTYPE
  5
5
330
0
100
AcDbSymbolTable
 70
     1
  0
LTYPE
  5
14
330
5
100
AcDbSymbolTableRecord
100
AcDbLinetypeTableRecord
  2
BYBLOCK
 70
     0
  3

 72
    65
 73
     0
 40
0.0
  0
LTYPE
  5
15
330
5
100
AcDbSymbolTableRecord
100
AcDbLinetypeTableRecord
  2
BYLAYER
 70
     0
  3

 72
    65
 73
     0
 40
0.0
  0
LTYPE
  5
16
330
5
100
AcDbSymbolTableRecord
100
AcDbLinetypeTableRecord
  2
CONTINUOUS
 70
     0
  3
Solid line
 72
    65
 73
     0
 40
0.0
  0
ENDTAB
  0
TABLE
  2
LAYER
  5
2
330
0
100
AcDbSymbolTable
 70
     3
  0
LAYER
  5
10
330
2
100
AcDbSymbolTableRecord
100
AcDbLayerTableRecord
  2
0
 70
     0
 62
     7
  6
CONTINUOUS
  0
LAYER
  5
6E
330
2
100
AcDbSymbolTableRecord
100
AcDbLayerTableRecord
  2
PROFILEEDGES
 70
     0
 62
     7
  6
CONTINUOUS
  0
LAYER
  5
6F
330
2
100
AcDbSymbolTableRecord
100
AcDbLayerTableRecord
  2
SECTIONCUTEDGES
 70
     0
 62
     7
  6
CONTINUOUS
  0
ENDTAB
  0
TABLE
  2
STYLE
  5
3
330
0
100
AcDbSymbolTable
 70
     1
  0
STYLE
  5
11
330
3
100
AcDbSymbolTableRecord
100
AcDbTextStyleTableRecord
  2
STANDARD
 70
     0
 40
0.0
 41
1.0
 50
0.0
 71
     0
 42
0.2
  3
txt
  4

  0
ENDTAB
  0
TABLE
  2
VIEW
  5
6
330
0
100
AcDbSymbolTable
 70
     0
  0
ENDTAB
  0
TABLE
  2
UCS
  5
7
330
0
100
AcDbSymbolTable
 70
     0
  0
ENDTAB
  0
TABLE
  2
APPID
  5
9
330
0
100
AcDbSymbolTable
 70
     2
  0
APPID
  5
12
330
9
100
AcDbSymbolTableRecord
100
AcDbRegAppTableRecord
  2
ACAD
 70
     0
  0
APPID
  5
3F8
330
9
100
AcDbSymbolTableRecord
100
AcDbRegAppTableRecord
  2
ACAD_MLEADERVER
 70
     0
  0
ENDTAB
  0
TABLE
  2
DIMSTYLE
  5
A
330
0
100
AcDbSymbolTable
 70
     1
  0
DIMSTYLE
105
27
330
A
100
AcDbSymbolTableRecord
100
AcDbDimStyleTableRecord
  2
STANDARD
 70
     0
  3

  4

  5

  6

  7

 40
1.0
 41
0.18
 42
0.0625
 43
0.38
 44
0.18
 45
0.0
 46
0.0
 47
0.0
 48
0.0
140
0.18
141
0.09
142
0.0
143
25.4
144
1.0
145
0.0
146
1.0
147
0.09
 71
     0
 72
     0
 73
     1
 74
     1
 75
     0
 76
     0
 77
     0
 78
     0
170
     0
171
     2
172
     0
173
     0
174
     0
175
     0
176
     0
177
     0
178
     0
270
     2
271
     4
272
     4
273
     2
274
     2
340
11
275
     0
280
     0
281
     0
282
     0
283
     1
284
     0
285
     0
286
     0
287
     3
288
     0
  0
ENDTAB
  0
TABLE
  2
BLOCK_RECORD
  5
1
330
0
100
AcDbSymbolTable
 70
     1
  0
BLOCK_RECORD
  5
1F
330
1
100
AcDbSymbolTableRecord
100
AcDbBlockTableRecord
  2
*MODEL_SPACE
  0
BLOCK_RECORD
  5
1B
330
1
100
AcDbSymbolTableRecord
100
AcDbBlockTableRecord
  2
*PAPER_SPACE
  0
ENDTAB
  0
ENDSEC
  0
SECTION
  2
BLOCKS
  0
BLOCK
  5
20
330
1F
100
AcDbEntity
  8
0
100
AcDbBlockBegin
  2
*MODEL_SPACE
 70
     0
 10
0.0
 20
0.0
 30
0.0
  3
*MODEL_SPACE
  1

  0
ENDBLK
  5
21
330
1F
100
AcDbEntity
  8
0
100
AcDbBlockEnd
  0
BLOCK
  5
1C
330
1B
100
AcDbEntity
 67
     1
  8
0
100
AcDbBlockBegin
  2
*PAPER_SPACE
 70
     0
 10
0.0
 20
0.0
 30
0.0
  3
*PAPER_SPACE
  1

  0
ENDBLK
  5
1D
330
1B
100
AcDbEntity
 67
     1
  8
0
100
AcDbBlockEnd
  0
ENDSEC
  0
SECTION
  2
ENTITIES
  0
LINE
  5
70
330
1F
100
AcDbEntity
  8
0
100
AcDbLine
 10
-209.9801472439248
 20
9.17918906927484
 30
0.0
 11
-209.9801472439248
 21
7.936579902828067
 31
0.0
  0
LINE
  5
71
330
1F
100
AcDbEntity
  8
0
100
AcDbLine
 10
-209.8244070190374
 20
10.41199989129483
 30
0.0
 11
-209.9801472439248
 21
9.17918906927484
 31
0.0
  0
LINE
  5
72
330
1F
100
AcDbEntity
  8
0
100
AcDbLine
 10
-208.4593162106754
 20
3.255943268971113
 30
0.0
 11
-207.7289288682745
 21
2.250651335949549
 31
0.0
  0
LINE
  5
73
330
1F
100
AcDbEntity
  8
0
100
AcDbLine
 10
-205.920857541241
 20
0.5527593448887708
 30
0.0
 11
-204.8716879215253
 21
-0.1130639421799386
 31
0.0
  0
LINE
  5
74
330
1F
100
AcDbEntity
  8
0
100
AcDbLine
 10
-209.5153826856437
 20
5.500198766323604
 30
0.0
 11
-209.0579477420836
 21
4.344849982212168
 31
0.0
  0
LINE
  5
75
330
1F
100
AcDbEntity
  8
0
100
AcDbLine
 10
-209.0579477420836
 20
4.344849982212168
 30
0.0
 11
-208.4593162106754
 21
3.255943268971113
 31
0.0
  0
LINE
  5
76
330
1F
100
AcDbEntity
  8
0
100
AcDbLine
 10
-202.5655499871246
 20
-1.026128542560069
 30
0.0
 11
-201.3449508452853
 21
-1.258970281685152
 31
0.0
  0
LINE
  5
77
330
1F
100
AcDbEntity
  8
0
100
AcDbLine
 10
-195.3378994468376
 20
-0.1130639421799386
 30
0.0
 11
-194.2887298271218
 21
0.5527593448887708
 31
0.0
  0
LINE
  5
78
330
1F
100
AcDbEntity
  8
0
100
AcDbLine
 10
-204.8716879215253
 20
-0.1130639421799386
 30
0.0
 11
-203.7473415320819
 21
-0.6421411927619362
 31
0.0
  0
LINE
  5
79
330
1F
100
AcDbEntity
  8
0
100
AcDbLine
 10
-194.2887298271218
 20
0.5527593448887708
 30
0.0
 11
-193.33128300878
 21
1.344828237463577
 31
0.0
  0
LINE
  5
7A
330
1F
100
AcDbEntity
  8
0
100
AcDbLine
 10
-206.8783043595829
 20
1.344828237463577
 30
0.0
 11
-205.920857541241
 21
0.5527593448887708
 31
0.0
  0
LINE
  5
7B
330
1F
100
AcDbEntity
  8
0
100
AcDbLine
 10
-197.6440373812383
 20
-1.026128542560069
 30
0.0
 11
-196.4622458362809
 21
-0.6421411927619362
 31
0.0
  0
LINE
  5
7C
330
1F
100
AcDbEntity
  8
0
100
AcDbLine
 10
-155.5586950486313
 20
-1.577986587067094
 30
0.0
 11
-153.7166535955055
 21
-4.120329333800322
 31
0.0
  0
LINE
  5
7D
330
1F
100
AcDbEntity
  8
0
100
AcDbLine
 10
-151.5704971521518
 20
-6.411755936936111
 30
0.0
 11
-151.4777004137112
 21
-6.48872885514005
 31
0.0
  0
LINE
  5
7E
330
1F
100
AcDbEntity
  8
0
100
AcDbLine
 10
-149.7065425433262
 20
-3.079865485225366
 30
0.0
 11
-149.3142387111885
 21
-6.218296142324243
 31
0.0
  0
LINE
  5
7F
330
1F
100
AcDbEntity
  8
0
100
AcDbLine
 10
-158.9962748629449
 20
7.137656685802075
 30
0.0
 11
-158.2194868202098
 21
4.095745494861932
 31
0.0
  0
LINE
  5
80
330
1F
100
AcDbEntity
  8
0
100
AcDbLine
 10
-159.1047936841818
 20
8.005807255697828
 30
0.0
 11
-159.1047936841817
 21
8.557884486051497
 31
0.0
  0
LINE
  5
81
330
1F
100
AcDbEntity
  8
0
100
AcDbLine
 10
-200.1047936841814
 20
-1.336994356818258
 30
0.0
 11
-198.8646365230776
 21
-1.258970281685152
 31
0.0
  0
LINE
  5
82
330
1F
100
AcDbEntity
  8
0
100
AcDbLine
 10
-159.1047936841817
 20
8.557884486051497
 30
0.0
 11
-159.1738033379759
 21
8.557884486051634
 31
0.0
  0
LINE
  5
83
330
1F
100
AcDbEntity
  8
0
100
AcDbLine
 10
-198.8646365230776
 20
-1.258970281685152
 30
0.0
 11
-197.6440373812383
 21
-1.026128542560069
 31
0.0
  0
LINE
  5
84
330
1F
100
AcDbEntity
  8
0
100
AcDbLine
 10
-159.385685134172
 20
10.2529388556168
 30
0.0
 11
-159.1738033379759
 21
8.557884486051634
 31
0.0
  0
LINE
  5
85
330
1F
100
AcDbEntity
  8
0
100
AcDbLine
 10
-159.3815764012907
 20
13.39246214350882
 30
0.0
 11
-159.385685134172
 21
10.2529388556168
 31
0.0
  0
LINE
  5
86
330
1F
100
AcDbEntity
  8
0
100
AcDbLine
 10
-209.9801472439248
 20
7.936579902828067
 30
0.0
 11
-209.8244070190374
 21
6.703769080808073
 31
0.0
  0
LINE
  5
87
330
1F
100
AcDbEntity
  8
0
100
AcDbLine
 10
-158.9840134614735
 20
16.50671439176805
 30
0.0
 11
-159.3815764012907
 21
13.39246214350882
 31
0.0
  0
LINE
  5
88
330
1F
100
AcDbEntity
  8
0
100
AcDbLine
 10
-209.8244070190374
 20
6.703769080808073
 30
0.0
 11
-209.5153826856437
 21
5.500198766323604
 31
0.0
  0
LINE
  5
89
330
1F
100
AcDbEntity
  8
0
100
AcDbLine
 10
-196.4622458362809
 20
-0.6421411927619362
 30
0.0
 11
-195.3378994468376
 21
-0.1130639421799386
 31
0.0
  0
LINE
  5
8A
330
1F
100
AcDbEntity
  8
0
100
AcDbLine
 10
-151.5753742772342
 20
-1.186410363401578
 30
0.0
 11
-149.7065425433262
 21
-3.079865485225366
 31
0.0
  0
LINE
  5
8B
330
1F
100
AcDbEntity
  8
0
100
AcDbLine
 10
-153.7166535955055
 20
-4.120329333800322
 30
0.0
 11
-151.5704971521518
 21
-6.411755936936111
 31
0.0
  0
LINE
  5
8C
330
1F
100
AcDbEntity
  8
0
100
AcDbLine
 10
-157.0675714174307
 20
1.175178039427416
 30
0.0
 11
-155.5586950486313
 21
-1.577986587067094
 31
0.0
  0
LINE
  5
8D
330
1F
100
AcDbEntity
  8
0
100
AcDbLine
 10
-158.2194868202098
 20
4.095745494861932
 30
0.0
 11
-157.0675714174307
 21
1.175178039427416
 31
0.0
  0
LINE
  5
8E
330
1F
100
AcDbEntity
  8
0
100
AcDbLine
 10
-159.1047936841818
 20
8.005807255697828
 30
0.0
 11
-158.9962748629449
 21
7.137656685802075
 31
0.0
  0
LINE
  5
8F
330
1F
100
AcDbEntity
  8
0
100
AcDbLine
 10
-158.1992661197741
 20
19.5465819820749
 30
0.0
 11
-158.9840134614735
 21
16.50671439176805
 31
0.0
  0
LINE
  5
90
330
1F
100
AcDbEntity
  8
0
100
AcDbLine
 10
-157.0397103105558
 20
22.46412438660187
 30
0.0
 11
-158.1992661197741
 21
19.5465819820749
 31
0.0
  0
LINE
  5
91
330
1F
100
AcDbEntity
  8
0
100
AcDbLine
 10
-155.5236329216157
 20
25.21333021877329
 30
0.0
 11
-157.0397103105558
 21
22.46412438660187
 31
0.0
  0
LINE
  5
92
330
1F
100
AcDbEntity
  8
0
100
AcDbLine
 10
-153.6749433990378
 20
27.75084286032095
 30
0.0
 11
-155.5236329216157
 21
25.21333021877329
 31
0.0
  0
LINE
  5
93
330
1F
100
AcDbEntity
  8
0
100
AcDbLine
 10
-151.522796680947
 20
30.03664422105019
 30
0.0
 11
-153.6749433990378
 21
27.75084286032095
 31
0.0
  0
LINE
  5
94
330
1F
100
AcDbEntity
  8
0
100
AcDbLine
 10
-149.1011334067167
 20
32.03468584803152
 30
0.0
 11
-151.522796680947
 21
30.03664422105019
 31
0.0
  0
LINE
  5
95
330
1F
100
AcDbEntity
  8
0
100
AcDbLine
 10
-148.1284990346057
 20
32.65015432385714
 30
0.0
 11
-149.1011334067167
 21
32.03468584803152
 31
0.0
  0
LINE
  5
96
330
1F
100
AcDbEntity
  8
0
100
AcDbLine
 10
-148.1284990346057
 20
32.65015432385714
 30
0.0
 11
-147.6374266327161
 21
28.7074173938723
 31
0.0
  0
LINE
  5
97
330
1F
100
AcDbEntity
  8
0
100
AcDbLine
 10
-147.6374266327161
 20
28.7074173938723
 30
0.0
 11
-151.4040565974418
 21
24.98977047061855
 31
0.0
  0
LINE
  5
98
330
1F
100
AcDbEntity
  8
0
100
AcDbLine
 10
-151.4040565974418
 20
24.98977047061855
 30
0.0
 11
-154.2421210709022
 21
20.14756398594253
 31
0.0
  0
LINE
  5
99
330
1F
100
AcDbEntity
  8
0
100
AcDbLine
 10
-154.2421210709022
 20
20.14756398594253
 30
0.0
 11
-155.7302255839379
 21
14.73580654920947
 31
0.0
  0
LINE
  5
9A
330
1F
100
AcDbEntity
  8
0
100
AcDbLine
 10
-155.7302255839379
 20
14.73580654920947
 30
0.0
 11
-155.7669582731946
 21
9.123300486380224
 31
0.0
  0
LINE
  5
9B
330
1F
100
AcDbEntity
  8
0
100
AcDbLine
 10
-155.7669582731946
 20
9.123300486380224
 30
0.0
 11
-154.3498158666035
 21
3.692528810531929
 31
0.0
  0
LINE
  5
9C
330
1F
100
AcDbEntity
  8
0
100
AcDbLine
 10
-154.3498158666035
 20
3.692528810531929
 30
0.0
 11
-151.5753742772342
 21
-1.186410363401578
 31
0.0
  0
LINE
  5
9D
330
1F
100
AcDbEntity
  8
0
100
AcDbLine
 10
-201.3449508452853
 20
-1.258970281685152
 30
0.0
 11
-200.1047936841814
 21
-1.336994356818258
 31
0.0
  0
LINE
  5
9E
330
1F
100
AcDbEntity
  8
0
100
AcDbLine
 10
-203.7473415320819
 20
-0.6421411927619362
 30
0.0
 11
-202.5655499871246
 21
-1.026128542560069
 31
0.0
  0
LINE
  5
9F
330
1F
100
AcDbEntity
  8
0
100
AcDbLine
 10
-207.8099261119393
 20
32.18364458856455
 30
0.0
 11
-206.9502647434683
 21
31.26819821183733
 31
0.0
  0
LINE
  5
A0
330
1F
100
AcDbEntity
  8
0
100
AcDbLine
 10
-207.8099261119393
 20
44.93212438353833
 30
0.0
 11
-208.5480729392016
 21
43.91615243584138
 31
0.0
  0
LINE
  5
A1
330
1F
100
AcDbEntity
  8
0
100
AcDbLine
 10
-202.59169255583
 20
28.87205287476512
 30
0.0
 11
-201.3581260198245
 21
28.63673747290666
 31
0.0
  0
LINE
  5
A2
330
1F
100
AcDbEntity
  8
0
100
AcDbLine
 10
-200.1047936841814
 20
28.55788448605146
 30
0.0
 11
-198.8514613485384
 21
28.63673747290666
 31
0.0
  0
LINE
  5
A3
330
1F
100
AcDbEntity
  8
0
100
AcDbLine
 10
-198.8514613485384
 20
28.63673747290666
 30
0.0
 11
-197.6178948125329
 21
28.87205287476512
 31
0.0
  0
LINE
  5
A4
330
1F
100
AcDbEntity
  8
0
100
AcDbLine
 10
-204.9223304251986
 20
29.79481768561281
 30
0.0
 11
-203.7860392110282
 21
29.26011962716891
 31
0.0
  0
LINE
  5
A5
330
1F
100
AcDbEntity
  8
0
100
AcDbLine
 10
-206.9502647434683
 20
31.26819821183733
 30
0.0
 11
-205.9826462071062
 21
30.46771454230197
 31
0.0
  0
LINE
  5
A6
330
1F
100
AcDbEntity
  8
0
100
AcDbLine
 10
-197.6178948125329
 20
28.87205287476512
 30
0.0
 11
-196.4235481573346
 21
29.26011962716891
 31
0.0
  0
LINE
  5
A7
330
1F
100
AcDbEntity
  8
0
100
AcDbLine
 10
-209.1530642088416
 20
42.81567740170216
 30
0.0
 11
-209.615358847133
 21
41.64805442980093
 31
0.0
  0
LINE
  5
A8
330
1F
100
AcDbEntity
  8
0
100
AcDbLine
 10
-205.9826462071062
 20
46.64805442980091
 30
0.0
 11
-206.9502647434683
 21
45.84757076026555
 31
0.0
  0
LINE
  5
A9
330
1F
100
AcDbEntity
  8
0
100
AcDbLine
 10
-191.6615144291613
 20
43.91615243584143
 30
0.0
 11
-192.3996612564236
 21
44.93212438353837
 31
0.0
  0
LINE
  5
AA
330
1F
100
AcDbEntity
  8
0
100
AcDbLine
 10
-198.8514613485384
 20
48.47903149919622
 30
0.0
 11
-200.1047936841815
 21
48.55788448605143
 31
0.0
  0
LINE
  5
AB
330
1F
100
AcDbEntity
  8
0
100
AcDbLine
 10
-190.5942285212299
 20
41.64805442980097
 30
0.0
 11
-191.0565231595212
 21
42.8156774017022
 31
0.0
  0
LINE
  5
AC
330
1F
100
AcDbEntity
  8
0
100
AcDbLine
 10
-209.615358847133
 20
35.46771454230196
 30
0.0
 11
-209.1530642088416
 21
34.30009157040073
 31
0.0
  0
LINE
  5
AD
330
1F
100
AcDbEntity
  8
0
100
AcDbLine
 10
-193.2593226248946
 20
45.8475707602656
 30
0.0
 11
-194.2269411612567
 21
46.64805442980091
 31
0.0
  0
LINE
  5
AE
330
1F
100
AcDbEntity
  8
0
100
AcDbLine
 10
-193.2593226248945
 20
31.26819821183733
 30
0.0
 11
-192.3996612564235
 21
32.18364458856455
 31
0.0
  0
LINE
  5
AF
330
1F
100
AcDbEntity
  8
0
100
AcDbLine
 10
-201.3581260198245
 20
28.63673747290666
 30
0.0
 11
-200.1047936841814
 21
28.55788448605146
 31
0.0
  0
LINE
  5
B0
330
1F
100
AcDbEntity
  8
0
100
AcDbLine
 10
-196.4235481573347
 20
47.85564934493398
 30
0.0
 11
-197.617894812533
 21
48.24371609733776
 31
0.0
  0
LINE
  5
B1
330
1F
100
AcDbEntity
  8
0
100
AcDbLine
 10
-204.9223304251986
 20
47.32095128649008
 30
0.0
 11
-205.9826462071062
 21
46.64805442980091
 31
0.0
  0
LINE
  5
B2
330
1F
100
AcDbEntity
  8
0
100
AcDbLine
 10
-206.9502647434683
 20
45.84757076026555
 30
0.0
 11
-207.8099261119393
 21
44.93212438353833
 31
0.0
  0
LINE
  5
B3
330
1F
100
AcDbEntity
  8
0
100
AcDbLine
 10
-200.1047936841815
 20
48.55788448605143
 30
0.0
 11
-201.3581260198245
 21
48.47903149919622
 31
0.0
  0
LINE
  5
B4
330
1F
100
AcDbEntity
  8
0
100
AcDbLine
 10
-191.0565231595212
 20
34.30009157040073
 30
0.0
 11
-190.5942285212299
 21
35.46771454230201
 31
0.0
  0
LINE
  5
B5
330
1F
100
AcDbEntity
  8
0
100
AcDbLine
 10
-201.3581260198245
 20
48.47903149919622
 30
0.0
 11
-202.59169255583
 21
48.24371609733776
 31
0.0
  0
LINE
  5
B6
330
1F
100
AcDbEntity
  8
0
100
AcDbLine
 10
-195.2872569431643
 20
29.79481768561281
 30
0.0
 11
-194.2269411612567
 21
30.46771454230197
 31
0.0
  0
LINE
  5
B7
330
1F
100
AcDbEntity
  8
0
100
AcDbLine
 10
-195.2872569431643
 20
47.32095128649012
 30
0.0
 11
-196.4235481573347
 21
47.85564934493398
 31
0.0
  0
LINE
  5
B8
330
1F
100
AcDbEntity
  8
0
100
AcDbLine
 10
-209.1530642088416
 20
34.30009157040073
 30
0.0
 11
-208.5480729392016
 21
33.1996165362615
 31
0.0
  0
LINE
  5
B9
330
1F
100
AcDbEntity
  8
0
100
AcDbLine
 10
-209.9276661914683
 20
40.43169763190869
 30
0.0
 11
-210.0850609684641
 21
39.1857896813446
 31
0.0
  0
LINE
  5
BA
330
1F
100
AcDbEntity
  8
0
100
AcDbLine
 10
-209.615358847133
 20
41.64805442980093
 30
0.0
 11
-209.9276661914683
 21
40.43169763190869
 31
0.0
  0
LINE
  5
BB
330
1F
100
AcDbEntity
  8
0
100
AcDbLine
 10
-190.2819211768945
 20
40.43169763190873
 30
0.0
 11
-190.5942285212299
 21
41.64805442980097
 31
0.0
  0
LINE
  5
BC
330
1F
100
AcDbEntity
  8
0
100
AcDbLine
 10
-203.7860392110282
 20
29.26011962716891
 30
0.0
 11
-202.59169255583
 21
28.87205287476512
 31
0.0
  0
LINE
  5
BD
330
1F
100
AcDbEntity
  8
0
100
AcDbLine
 10
-208.5480729392016
 20
33.1996165362615
 30
0.0
 11
-207.8099261119393
 21
32.18364458856455
 31
0.0
  0
LINE
  5
BE
330
1F
100
AcDbEntity
  8
0
100
AcDbLine
 10
-208.5480729392016
 20
43.91615243584138
 30
0.0
 11
-209.1530642088416
 21
42.81567740170216
 31
0.0
  0
LINE
  5
BF
330
1F
100
AcDbEntity
  8
0
100
AcDbLine
 10
-190.5942285212299
 20
35.46771454230201
 30
0.0
 11
-190.2819211768945
 21
36.68407134019419
 31
0.0
  0
LINE
  5
C0
330
1F
100
AcDbEntity
  8
0
100
AcDbLine
 10
-205.9826462071062
 20
30.46771454230197
 30
0.0
 11
-204.9223304251986
 21
29.79481768561281
 31
0.0
  0
LINE
  5
C1
330
1F
100
AcDbEntity
  8
0
100
AcDbLine
 10
-196.4235481573346
 20
29.26011962716891
 30
0.0
 11
-195.2872569431643
 21
29.79481768561281
 31
0.0
  0
LINE
  5
C2
330
1F
100
AcDbEntity
  8
0
100
AcDbLine
 10
-192.3996612564236
 20
44.93212438353837
 30
0.0
 11
-193.2593226248946
 21
45.8475707602656
 31
0.0
  0
LINE
  5
C3
330
1F
100
AcDbEntity
  8
0
100
AcDbLine
 10
-202.59169255583
 20
48.24371609733776
 30
0.0
 11
-203.7860392110282
 21
47.85564934493398
 31
0.0
  0
LINE
  5
C4
330
1F
100
AcDbEntity
  8
0
100
AcDbLine
 10
-192.3996612564235
 20
32.18364458856455
 30
0.0
 11
-191.6615144291613
 21
33.1996165362615
 31
0.0
  0
LINE
  5
C5
330
1F
100
AcDbEntity
  8
0
100
AcDbLine
 10
-191.0565231595212
 20
42.8156774017022
 30
0.0
 11
-191.6615144291613
 21
43.91615243584143
 31
0.0
  0
LINE
  5
C6
330
1F
100
AcDbEntity
  8
0
100
AcDbLine
 10
-190.1245263998987
 20
39.1857896813446
 30
0.0
 11
-190.2819211768945
 21
40.43169763190873
 31
0.0
  0
LINE
  5
C7
330
1F
100
AcDbEntity
  8
0
100
AcDbLine
 10
-203.7860392110282
 20
47.85564934493398
 30
0.0
 11
-204.9223304251986
 21
47.32095128649008
 31
0.0
  0
LINE
  5
C8
330
1F
100
AcDbEntity
  8
0
100
AcDbLine
 10
-209.9276661914683
 20
36.68407134019419
 30
0.0
 11
-209.615358847133
 21
35.46771454230196
 31
0.0
  0
LINE
  5
C9
330
1F
100
AcDbEntity
  8
0
100
AcDbLine
 10
-218.553682423615
 20
47.16965591839767
 30
0.0
 11
-218.4038317898581
 21
46.80788448605146
 31
0.0
  0
LINE
  5
CA
330
1F
100
AcDbEntity
  8
0
100
AcDbLine
 10
-194.2269411612567
 20
30.46771454230197
 30
0.0
 11
-193.2593226248945
 21
31.26819821183733
 31
0.0
  0
LINE
  5
CB
330
1F
100
AcDbEntity
  8
0
100
AcDbLine
 10
-151.1276840094343
 20
14.99738091601759
 30
0.0
 11
-151.4238820696627
 21
12.34626683979829
 31
0.0
  0
LINE
  5
CC
330
1F
100
AcDbEntity
  8
0
100
AcDbLine
 10
-218.4038317898581
 20
48.30788448605144
 30
0.0
 11
-218.553682423615
 21
47.94611305370523
 31
0.0
  0
LINE
  5
CD
330
1F
100
AcDbEntity
  8
0
100
AcDbLine
 10
-147.6374266327161
 20
28.7074173938723
 30
0.0
 11
-146.9530141089624
 21
23.21238545486546
 31
0.0
  0
LINE
  5
CE
330
1F
100
AcDbEntity
  8
0
100
AcDbLine
 10
-190.1245263998987
 20
37.92997929075833
 30
0.0
 11
-190.1245263998987
 21
39.1857896813446
 31
0.0
  0
LINE
  5
CF
330
1F
100
AcDbEntity
  8
0
100
AcDbLine
 10
-217.1047936841814
 20
46.05788448605145
 30
0.0
 11
-216.7165651165276
 21
46.10899574661787
 31
0.0
  0
LINE
  5
D0
330
1F
100
AcDbEntity
  8
0
100
AcDbLine
 10
-194.2269411612567
 20
46.64805442980091
 30
0.0
 11
-195.2872569431643
 21
47.32095128649012
 31
0.0
  0
LINE
  5
D1
330
1F
100
AcDbEntity
  8
0
100
AcDbLine
 10
-215.1669715106725
 20
50.05788448605144
 30
0.0
 11
-214.4522450365075
 21
49.12643481027835
 31
0.0
  0
LINE
  5
D2
330
1F
100
AcDbEntity
  8
0
100
AcDbLine
 10
-146.9530141089624
 20
23.21238545486546
 30
0.0
 11
-147.8519716192486
 21
22.22703770980126
 31
0.0
  0
LINE
  5
D3
330
1F
100
AcDbEntity
  8
0
100
AcDbLine
 10
-147.8519716192486
 20
22.22703770980126
 30
0.0
 11
-149.3194666276933
 21
19.99934887690762
 31
0.0
  0
LINE
  5
D4
330
1F
100
AcDbEntity
  8
0
100
AcDbLine
 10
-149.3194666276933
 20
19.99934887690762
 30
0.0
 11
-150.4204070265659
 21
17.56951979358903
 31
0.0
  0
LINE
  5
D5
330
1F
100
AcDbEntity
  8
0
100
AcDbLine
 10
-150.4204070265659
 20
17.56951979358903
 30
0.0
 11
-151.1276840094343
 21
14.99738091601759
 31
0.0
  0
LINE
  5
D6
330
1F
100
AcDbEntity
  8
0
100
AcDbLine
 10
-151.4238820696627
 20
12.34626683979829
 30
0.0
 11
-151.301707827983
 21
9.681456792031184
 31
0.0
  0
LINE
  5
D7
330
1F
100
AcDbEntity
  8
0
100
AcDbLine
 10
-151.301707827983
 20
9.681456792031184
 30
0.0
 11
-149.7065425433262
 21
-3.079865485225366
 31
0.0
  0
LINE
  5
D8
330
1F
100
AcDbEntity
  8
0
100
AcDbLine
 10
-217.1047936841814
 20
49.05788448605145
 30
0.0
 11
-217.4930222518352
 21
49.00677322548508
 31
0.0
  0
LINE
  5
D9
330
1F
100
AcDbEntity
  8
0
100
AcDbLine
 10
-218.553682423615
 20
47.94611305370523
 30
0.0
 11
-218.6047936841814
 21
47.55788448605147
 31
0.0
  0
LINE
  5
DA
330
1F
100
AcDbEntity
  8
0
100
AcDbLine
 10
-161.5813149266754
 20
19.15657955051428
 30
0.0
 11
-162.043816562913
 21
18.62742674229309
 31
0.0
  0
LINE
  5
DB
330
1F
100
AcDbEntity
  8
0
100
AcDbLine
 10
-217.8547936841814
 20
46.2588463803748
 30
0.0
 11
-217.4930222518352
 21
46.10899574661787
 31
0.0
  0
LINE
  5
DC
330
1F
100
AcDbEntity
  8
0
100
AcDbLine
 10
-214.4522450365075
 20
49.12643481027835
 30
0.0
 11
-214.4201149324496
 21
49.10788448605143
 31
0.0
  0
LINE
  5
DD
330
1F
100
AcDbEntity
  8
0
100
AcDbLine
 10
-214.4201149324496
 20
49.10788448605143
 30
0.0
 11
-214.0545411524873
 21
48.60813701774561
 31
0.0
  0
LINE
  5
DE
330
1F
100
AcDbEntity
  8
0
100
AcDbLine
 10
-214.0545411524873
 20
48.60813701774561
 30
0.0
 11
-212.6047936841815
 21
47.49570665956038
 31
0.0
  0
LINE
  5
DF
330
1F
100
AcDbEntity
  8
0
100
AcDbLine
 10
-212.6047936841815
 20
47.49570665956038
 30
0.0
 11
-212.0246201601516
 21
47.25539091737748
 31
0.0
  0
LINE
  5
E0
330
1F
100
AcDbEntity
  8
0
100
AcDbLine
 10
-212.0246201601516
 20
47.25539091737748
 30
0.0
 11
-212.048424891175
 21
46.89220090572921
 31
0.0
  0
LINE
  5
E1
330
1F
100
AcDbEntity
  8
0
100
AcDbLine
 10
-212.048424891175
 20
46.89220090572921
 30
0.0
 11
-212.1785719701072
 21
46.23790735602859
 31
0.0
  0
LINE
  5
E2
330
1F
100
AcDbEntity
  8
0
100
AcDbLine
 10
-212.1785719701072
 20
46.23790735602859
 30
0.0
 11
-212.3930080683739
 21
45.60619898098952
 31
0.0
  0
LINE
  5
E3
330
1F
100
AcDbEntity
  8
0
100
AcDbLine
 10
-212.3930080683739
 20
45.60619898098952
 30
0.0
 11
-212.6880641248808
 21
45.00788448605147
 31
0.0
  0
LINE
  5
E4
330
1F
100
AcDbEntity
  8
0
100
AcDbLine
 10
-212.6880641248808
 20
45.00788448605147
 30
0.0
 11
-213.0586916486961
 21
44.45320119810698
 31
0.0
  0
LINE
  5
E5
330
1F
100
AcDbEntity
  8
0
100
AcDbLine
 10
-213.0586916486961
 20
44.45320119810698
 30
0.0
 11
-213.49854910013
 21
43.95163990200005
 31
0.0
  0
LINE
  5
E6
330
1F
100
AcDbEntity
  8
0
100
AcDbLine
 10
-213.49854910013
 20
43.95163990200005
 30
0.0
 11
-214.000110396237
 21
43.51178245056614
 31
0.0
  0
LINE
  5
E7
330
1F
100
AcDbEntity
  8
0
100
AcDbLine
 10
-214.000110396237
 20
43.51178245056614
 30
0.0
 11
-214.5547936841814
 21
43.1411549267508
 31
0.0
  0
LINE
  5
E8
330
1F
100
AcDbEntity
  8
0
100
AcDbLine
 10
-214.5547936841814
 20
43.1411549267508
 30
0.0
 11
-215.1531081791195
 21
42.84609887024388
 31
0.0
  0
LINE
  5
E9
330
1F
100
AcDbEntity
  8
0
100
AcDbLine
 10
-215.1531081791195
 20
42.84609887024388
 30
0.0
 11
-215.7848165541586
 21
42.63166277197723
 31
0.0
  0
LINE
  5
EA
330
1F
100
AcDbEntity
  8
0
100
AcDbLine
 10
-215.7848165541586
 20
42.63166277197723
 30
0.0
 11
-216.4391101038592
 21
42.50151569304503
 31
0.0
  0
LINE
  5
EB
330
1F
100
AcDbEntity
  8
0
100
AcDbLine
 10
-216.4391101038592
 20
42.50151569304503
 30
0.0
 11
-217.1047936841814
 21
42.45788448605146
 31
0.0
  0
LINE
  5
EC
330
1F
100
AcDbEntity
  8
0
100
AcDbLine
 10
-217.1047936841814
 20
42.45788448605146
 30
0.0
 11
-217.7704772645037
 21
42.50151569304503
 31
0.0
  0
LINE
  5
ED
330
1F
100
AcDbEntity
  8
0
100
AcDbLine
 10
-217.7704772645037
 20
42.50151569304503
 30
0.0
 11
-218.4247708142043
 21
42.63166277197723
 31
0.0
  0
LINE
  5
EE
330
1F
100
AcDbEntity
  8
0
100
AcDbLine
 10
-218.4247708142043
 20
42.63166277197723
 30
0.0
 11
-219.0564791892434
 21
42.84609887024388
 31
0.0
  0
LINE
  5
EF
330
1F
100
AcDbEntity
  8
0
100
AcDbLine
 10
-219.0564791892434
 20
42.84609887024388
 30
0.0
 11
-219.6547936841814
 21
43.1411549267508
 31
0.0
  0
LINE
  5
F0
330
1F
100
AcDbEntity
  8
0
100
AcDbLine
 10
-219.6547936841814
 20
43.1411549267508
 30
0.0
 11
-220.2094769721259
 21
43.51178245056614
 31
0.0
  0
LINE
  5
F1
330
1F
100
AcDbEntity
  8
0
100
AcDbLine
 10
-220.2094769721259
 20
43.51178245056614
 30
0.0
 11
-220.7110382682328
 21
43.95163990200005
 31
0.0
  0
LINE
  5
F2
330
1F
100
AcDbEntity
  8
0
100
AcDbLine
 10
-220.7110382682328
 20
43.95163990200005
 30
0.0
 11
-221.1508957196667
 21
44.45320119810698
 31
0.0
  0
LINE
  5
F3
330
1F
100
AcDbEntity
  8
0
100
AcDbLine
 10
-221.1508957196667
 20
44.45320119810698
 30
0.0
 11
-221.5215232434821
 21
45.00788448605142
 31
0.0
  0
LINE
  5
F4
330
1F
100
AcDbEntity
  8
0
100
AcDbLine
 10
-221.5215232434821
 20
45.00788448605142
 30
0.0
 11
-221.816579299989
 21
45.60619898098948
 31
0.0
  0
LINE
  5
F5
330
1F
100
AcDbEntity
  8
0
100
AcDbLine
 10
-221.816579299989
 20
45.60619898098948
 30
0.0
 11
-222.0310153982557
 21
46.23790735602859
 31
0.0
  0
LINE
  5
F6
330
1F
100
AcDbEntity
  8
0
100
AcDbLine
 10
-222.0310153982557
 20
46.23790735602859
 30
0.0
 11
-222.1611624771879
 21
46.89220090572917
 31
0.0
  0
LINE
  5
F7
330
1F
100
AcDbEntity
  8
0
100
AcDbLine
 10
-222.1611624771879
 20
46.89220090572917
 30
0.0
 11
-222.2047936841814
 21
47.55788448605147
 31
0.0
  0
LINE
  5
F8
330
1F
100
AcDbEntity
  8
0
100
AcDbLine
 10
-222.2047936841814
 20
47.55788448605147
 30
0.0
 11
-222.9947086697058
 21
53.55788448605146
 31
0.0
  0
LINE
  5
F9
330
1F
100
AcDbEntity
  8
0
100
AcDbLine
 10
-222.9947086697058
 20
53.55788448605146
 30
0.0
 11
-216.6167189789783
 21
53.55788448605146
 31
0.0
  0
LINE
  5
FA
330
1F
100
AcDbEntity
  8
0
100
AcDbLine
 10
-217.4930222518352
 20
46.10899574661787
 30
0.0
 11
-217.1047936841814
 21
46.05788448605145
 31
0.0
  0
LINE
  5
FB
330
1F
100
AcDbEntity
  8
0
100
AcDbLine
 10
-216.7165651165276
 20
46.10899574661787
 30
0.0
 11
-216.3547936841814
 21
46.2588463803748
 31
0.0
  0
LINE
  5
FC
330
1F
100
AcDbEntity
  8
0
100
AcDbLine
 10
-216.3547936841814
 20
46.2588463803748
 30
0.0
 11
-216.0441335124016
 21
46.49722431427163
 31
0.0
  0
LINE
  5
FD
330
1F
100
AcDbEntity
  8
0
100
AcDbLine
 10
-216.0441335124016
 20
46.49722431427163
 30
0.0
 11
-215.8057555785048
 21
46.80788448605146
 31
0.0
  0
LINE
  5
FE
330
1F
100
AcDbEntity
  8
0
100
AcDbLine
 10
-215.8057555785048
 20
46.80788448605146
 30
0.0
 11
-215.6559049447478
 21
47.16965591839767
 31
0.0
  0
LINE
  5
FF
330
1F
100
AcDbEntity
  8
0
100
AcDbLine
 10
-215.6559049447478
 20
47.16965591839767
 30
0.0
 11
-215.6047936841814
 21
47.55788448605147
 31
0.0
  0
LINE
  5
100
330
1F
100
AcDbEntity
  8
0
100
AcDbLine
 10
-215.6047936841814
 20
47.55788448605147
 30
0.0
 11
-215.6559049447478
 21
47.94611305370523
 31
0.0
  0
LINE
  5
101
330
1F
100
AcDbEntity
  8
0
100
AcDbLine
 10
-215.6559049447478
 20
47.94611305370523
 30
0.0
 11
-215.8057555785048
 21
48.30788448605144
 31
0.0
  0
LINE
  5
102
330
1F
100
AcDbEntity
  8
0
100
AcDbLine
 10
-215.8057555785048
 20
48.30788448605144
 30
0.0
 11
-216.0441335124016
 21
48.61854465783127
 31
0.0
  0
LINE
  5
103
330
1F
100
AcDbEntity
  8
0
100
AcDbLine
 10
-216.0441335124016
 20
48.61854465783127
 30
0.0
 11
-216.3547936841814
 21
48.8569225917281
 31
0.0
  0
LINE
  5
104
330
1F
100
AcDbEntity
  8
0
100
AcDbLine
 10
-216.3547936841814
 20
48.8569225917281
 30
0.0
 11
-216.7165651165276
 21
49.00677322548508
 31
0.0
  0
LINE
  5
105
330
1F
100
AcDbEntity
  8
0
100
AcDbLine
 10
-216.7165651165276
 20
49.00677322548508
 30
0.0
 11
-217.1047936841814
 21
49.05788448605145
 31
0.0
  0
LINE
  5
106
330
1F
100
AcDbEntity
  8
0
100
AcDbLine
 10
-217.4930222518352
 20
49.00677322548508
 30
0.0
 11
-217.8547936841814
 21
48.8569225917281
 31
0.0
  0
LINE
  5
107
330
1F
100
AcDbEntity
  8
0
100
AcDbLine
 10
-217.8547936841814
 20
48.8569225917281
 30
0.0
 11
-218.1654538559613
 21
48.61854465783127
 31
0.0
  0
LINE
  5
108
330
1F
100
AcDbEntity
  8
0
100
AcDbLine
 10
-218.1654538559613
 20
48.61854465783127
 30
0.0
 11
-218.4038317898581
 21
48.30788448605144
 31
0.0
  0
LINE
  5
109
330
1F
100
AcDbEntity
  8
0
100
AcDbLine
 10
-218.6047936841814
 20
47.55788448605147
 30
0.0
 11
-218.553682423615
 21
47.16965591839767
 31
0.0
  0
LINE
  5
10A
330
1F
100
AcDbEntity
  8
0
100
AcDbLine
 10
-218.4038317898581
 20
46.80788448605146
 30
0.0
 11
-218.1654538559613
 21
46.49722431427163
 31
0.0
  0
LINE
  5
10B
330
1F
100
AcDbEntity
  8
0
100
AcDbLine
 10
-218.1654538559613
 20
46.49722431427163
 30
0.0
 11
-217.8547936841814
 21
46.2588463803748
 31
0.0
  0
LINE
  5
10C
330
1F
100
AcDbEntity
  8
0
100
AcDbLine
 10
-197.617894812533
 20
48.24371609733776
 30
0.0
 11
-198.8514613485384
 21
48.47903149919622
 31
0.0
  0
LINE
  5
10D
330
1F
100
AcDbEntity
  8
0
100
AcDbLine
 10
-191.6615144291613
 20
33.1996165362615
 30
0.0
 11
-191.0565231595212
 21
34.30009157040073
 31
0.0
  0
LINE
  5
10E
330
1F
100
AcDbEntity
  8
0
100
AcDbLine
 10
-160.6241054974136
 20
23.14399700380947
 30
0.0
 11
-160.5475291957057
 21
22.44539373442982
 31
0.0
  0
LINE
  5
10F
330
1F
100
AcDbEntity
  8
0
100
AcDbLine
 10
-161.4109066842544
 20
25.08565664743932
 30
0.0
 11
-161.0599322538538
 21
24.47678276298054
 31
0.0
  0
LINE
  5
110
330
1F
100
AcDbEntity
  8
0
100
AcDbLine
 10
-162.57467167966
 20
18.16687999874229
 30
0.0
 11
-163.1637997350538
 21
17.78368475827171
 31
0.0
  0
LINE
  5
111
330
1F
100
AcDbEntity
  8
0
100
AcDbLine
 10
-161.8422530806709
 20
25.6404996380862
 30
0.0
 11
-161.4109066842544
 21
25.08565664743932
 31
0.0
  0
LINE
  5
112
330
1F
100
AcDbEntity
  8
0
100
AcDbLine
 10
-160.5475291957057
 20
22.44539373442982
 30
0.0
 11
-160.567719753161
 21
21.74289619040495
 31
0.0
  0
LINE
  5
113
330
1F
100
AcDbEntity
  8
0
100
AcDbLine
 10
-163.1637997350538
 20
17.78368475827171
 30
0.0
 11
-163.8000136276854
 21
17.48511761206586
 31
0.0
  0
LINE
  5
114
330
1F
100
AcDbEntity
  8
0
100
AcDbLine
 10
-180.1047936841814
 20
-3.44211551394857
 30
0.0
 11
-178.1047539754798
 21
-3.44211551394857
 31
0.0
  0
LINE
  5
115
330
1F
100
AcDbEntity
  8
0
100
AcDbLine
 10
-177.1047936841814
 20
-3.317120477536245
 30
0.0
 11
-177.1047936841814
 21
5.6193112705078
 31
0.0
  0
LINE
  5
116
330
1F
100
AcDbEntity
  8
0
100
AcDbLine
 10
-181.553682423615
 20
1.169655918397665
 30
0.0
 11
-181.4038317898581
 21
0.8078844860514558
 31
0.0
  0
LINE
  5
117
330
1F
100
AcDbEntity
  8
0
100
AcDbLine
 10
-178.8057555785048
 20
0.8078844860514558
 30
0.0
 11
-178.6559049447478
 21
1.169655918397665
 31
0.0
  0
LINE
  5
118
330
1F
100
AcDbEntity
  8
0
100
AcDbLine
 10
-181.4038317898581
 20
0.8078844860514558
 30
0.0
 11
-181.1654538559612
 21
0.4972243142716192
 31
0.0
  0
LINE
  5
119
330
1F
100
AcDbEntity
  8
0
100
AcDbLine
 10
-178.6559049447478
 20
1.169655918397665
 30
0.0
 11
-178.6047936841814
 21
1.557884486051466
 31
0.0
  0
LINE
  5
11A
330
1F
100
AcDbEntity
  8
0
100
AcDbLine
 10
-160.7959945315542
 20
23.82544004465269
 30
0.0
 11
-160.6241054974136
 21
23.14399700380947
 31
0.0
  0
LINE
  5
11B
330
1F
100
AcDbEntity
  8
0
100
AcDbLine
 10
-178.1047539754798
 20
-3.44211551394857
 30
0.0
 11
-177.1047936841814
 21
-3.317120477536245
 31
0.0
  0
LINE
  5
11C
330
1F
100
AcDbEntity
  8
0
100
AcDbLine
 10
-180.1047936841814
 20
-4.825534522849345
 30
0.0
 11
-180.1047936841814
 21
-3.44211551394857
 31
0.0
  0
LINE
  5
11D
330
1F
100
AcDbEntity
  8
0
100
AcDbLine
 10
-184.8483098762538
 20
-0.7513689415658378
 30
0.0
 11
-184.0378249010045
 21
-1.807613525617246
 31
0.0
  0
LINE
  5
11E
330
1F
100
AcDbEntity
  8
0
100
AcDbLine
 10
-185.4998854294134
 20
1.557884486051466
 30
0.0
 11
-185.3578020310274
 21
0.4786539284112903
 31
0.0
  0
LINE
  5
11F
330
1F
100
AcDbEntity
  8
0
100
AcDbLine
 10
-185.5315803169531
 20
1.798631058434169
 30
0.0
 11
-185.4998854294134
 21
1.557884486051466
 31
0.0
  0
LINE
  5
120
330
1F
100
AcDbEntity
  8
0
100
AcDbLine
 10
-185.3578020310274
 20
3.118608188457002
 30
0.0
 11
-185.5315803169531
 21
1.798631058434169
 31
0.0
  0
LINE
  5
121
330
1F
100
AcDbEntity
  8
0
100
AcDbLine
 10
-184.8483098762538
 20
4.348631058434175
 30
0.0
 11
-185.3578020310274
 21
3.118608188457002
 31
0.0
  0
LINE
  5
122
330
1F
100
AcDbEntity
  8
0
100
AcDbLine
 10
-184.0378249010045
 20
5.404875642485538
 30
0.0
 11
-184.8483098762538
 21
4.348631058434175
 31
0.0
  0
LINE
  5
123
330
1F
100
AcDbEntity
  8
0
100
AcDbLine
 10
-182.9815803169531
 20
6.215360617734794
 30
0.0
 11
-184.0378249010045
 21
5.404875642485538
 31
0.0
  0
LINE
  5
124
330
1F
100
AcDbEntity
  8
0
100
AcDbLine
 10
-181.751557446976
 20
6.724852772508418
 30
0.0
 11
-182.9815803169531
 21
6.215360617734794
 31
0.0
  0
LINE
  5
125
330
1F
100
AcDbEntity
  8
0
100
AcDbLine
 10
-180.4315803169531
 20
6.898631058434182
 30
0.0
 11
-181.751557446976
 21
6.724852772508418
 31
0.0
  0
LINE
  5
126
330
1F
100
AcDbEntity
  8
0
100
AcDbLine
 10
-179.1116031869302
 20
6.724852772508418
 30
0.0
 11
-180.4315803169531
 21
6.898631058434182
 31
0.0
  0
LINE
  5
127
330
1F
100
AcDbEntity
  8
0
100
AcDbLine
 10
-177.8815803169531
 20
6.215360617734794
 30
0.0
 11
-179.1116031869302
 21
6.724852772508418
 31
0.0
  0
LINE
  5
128
330
1F
100
AcDbEntity
  8
0
100
AcDbLine
 10
-181.6047936841814
 20
1.557884486051466
 30
0.0
 11
-181.553682423615
 21
1.169655918397665
 31
0.0
  0
LINE
  5
129
330
1F
100
AcDbEntity
  8
0
100
AcDbLine
 10
-181.1654538559612
 20
0.4972243142716192
 30
0.0
 11
-180.8547936841815
 21
0.2588463803747929
 31
0.0
  0
LINE
  5
12A
330
1F
100
AcDbEntity
  8
0
100
AcDbLine
 10
-180.8547936841815
 20
0.2588463803747929
 30
0.0
 11
-180.4930222518352
 21
0.1089957466178633
 31
0.0
  0
LINE
  5
12B
330
1F
100
AcDbEntity
  8
0
100
AcDbLine
 10
-180.4930222518352
 20
0.1089957466178633
 30
0.0
 11
-180.1047936841814
 21
0.0578844860514459
 31
0.0
  0
LINE
  5
12C
330
1F
100
AcDbEntity
  8
0
100
AcDbLine
 10
-180.1047936841814
 20
0.0578844860514459
 30
0.0
 11
-179.7165651165276
 21
0.1089957466178633
 31
0.0
  0
LINE
  5
12D
330
1F
100
AcDbEntity
  8
0
100
AcDbLine
 10
-179.7165651165276
 20
0.1089957466178633
 30
0.0
 11
-179.3547936841814
 21
0.2588463803747929
 31
0.0
  0
LINE
  5
12E
330
1F
100
AcDbEntity
  8
0
100
AcDbLine
 10
-179.3547936841814
 20
0.2588463803747929
 30
0.0
 11
-179.0441335124016
 21
0.4972243142716192
 31
0.0
  0
LINE
  5
12F
330
1F
100
AcDbEntity
  8
0
100
AcDbLine
 10
-179.0441335124016
 20
0.4972243142716192
 30
0.0
 11
-178.8057555785048
 21
0.8078844860514558
 31
0.0
  0
LINE
  5
130
330
1F
100
AcDbEntity
  8
0
100
AcDbLine
 10
-178.6047936841814
 20
1.557884486051466
 30
0.0
 11
-178.6559049447478
 21
1.946113053705222
 31
0.0
  0
LINE
  5
131
330
1F
100
AcDbEntity
  8
0
100
AcDbLine
 10
-178.6559049447478
 20
1.946113053705222
 30
0.0
 11
-178.8057555785048
 21
2.307884486051431
 31
0.0
  0
LINE
  5
132
330
1F
100
AcDbEntity
  8
0
100
AcDbLine
 10
-178.8057555785048
 20
2.307884486051431
 30
0.0
 11
-179.0441335124016
 21
2.618544657831267
 31
0.0
  0
LINE
  5
133
330
1F
100
AcDbEntity
  8
0
100
AcDbLine
 10
-179.0441335124016
 20
2.618544657831267
 30
0.0
 11
-179.3547936841814
 21
2.856922591728094
 31
0.0
  0
LINE
  5
134
330
1F
100
AcDbEntity
  8
0
100
AcDbLine
 10
-179.3547936841814
 20
2.856922591728094
 30
0.0
 11
-179.7165651165276
 21
3.006773225485023
 31
0.0
  0
LINE
  5
135
330
1F
100
AcDbEntity
  8
0
100
AcDbLine
 10
-179.7165651165276
 20
3.006773225485023
 30
0.0
 11
-180.1047936841814
 21
3.05788448605144
 31
0.0
  0
LINE
  5
136
330
1F
100
AcDbEntity
  8
0
100
AcDbLine
 10
-180.1047936841814
 20
3.05788448605144
 30
0.0
 11
-180.4930222518352
 21
3.006773225485068
 31
0.0
  0
LINE
  5
137
330
1F
100
AcDbEntity
  8
0
100
AcDbLine
 10
-180.4930222518352
 20
3.006773225485068
 30
0.0
 11
-180.8547936841814
 21
2.856922591728094
 31
0.0
  0
LINE
  5
138
330
1F
100
AcDbEntity
  8
0
100
AcDbLine
 10
-180.8547936841814
 20
2.856922591728094
 30
0.0
 11
-181.1654538559612
 21
2.618544657831267
 31
0.0
  0
LINE
  5
139
330
1F
100
AcDbEntity
  8
0
100
AcDbLine
 10
-181.1654538559612
 20
2.618544657831267
 30
0.0
 11
-181.4038317898581
 21
2.307884486051431
 31
0.0
  0
LINE
  5
13A
330
1F
100
AcDbEntity
  8
0
100
AcDbLine
 10
-181.4038317898581
 20
2.307884486051431
 30
0.0
 11
-181.553682423615
 21
1.946113053705222
 31
0.0
  0
LINE
  5
13B
330
1F
100
AcDbEntity
  8
0
100
AcDbLine
 10
-181.553682423615
 20
1.946113053705222
 30
0.0
 11
-181.6047936841814
 21
1.557884486051466
 31
0.0
  0
LINE
  5
13C
330
1F
100
AcDbEntity
  8
0
100
AcDbLine
 10
-161.1959493313064
 20
19.74429020711079
 30
0.0
 11
-161.5813149266754
 21
19.15657955051428
 31
0.0
  0
LINE
  5
13D
330
1F
100
AcDbEntity
  8
0
100
AcDbLine
 10
-160.8950375814084
 20
20.37939852601786
 30
0.0
 11
-161.1959493313064
 21
19.74429020711079
 31
0.0
  0
LINE
  5
13E
330
1F
100
AcDbEntity
  8
0
100
AcDbLine
 10
-160.6842937661854
 20
21.04984427499106
 30
0.0
 11
-160.8950375814084
 21
20.37939852601786
 31
0.0
  0
LINE
  5
13F
330
1F
100
AcDbEntity
  8
0
100
AcDbLine
 10
-160.567719753161
 20
21.74289619040495
 30
0.0
 11
-160.6842937661854
 21
21.04984427499106
 31
0.0
  0
LINE
  5
140
330
1F
100
AcDbEntity
  8
0
100
AcDbLine
 10
-162.043816562913
 20
18.62742674229309
 30
0.0
 11
-162.57467167966
 21
18.16687999874229
 31
0.0
  0
LINE
  5
141
330
1F
100
AcDbEntity
  8
0
100
AcDbLine
 10
-162.3457804974585
 20
26.1307756812644
 30
0.0
 11
-161.8422530806709
 21
25.6404996380862
 31
0.0
  0
LINE
  5
142
330
1F
100
AcDbEntity
  8
0
100
AcDbLine
 10
-161.0599322538538
 20
24.47678276298054
 30
0.0
 11
-160.7959945315542
 21
23.82544004465269
 31
0.0
  0
LINE
  5
143
330
1F
100
AcDbEntity
  8
0
100
AcDbLine
 10
-166.9943400987924
 20
21.49294133701535
 30
0.0
 11
-166.8007744065108
 21
21.15255023185737
 31
0.0
  0
LINE
  5
144
330
1F
100
AcDbEntity
  8
0
100
AcDbLine
 10
-166.3705670409497
 20
-3.714256450537518
 30
0.0
 11
-166.6832818335934
 21
-3.694582103413342
 31
0.0
  0
LINE
  5
145
330
1F
100
AcDbEntity
  8
0
100
AcDbLine
 10
-164.6994594299877
 20
20.86190376372237
 30
0.0
 11
-164.4207653581174
 21
21.1369735657791
 31
0.0
  0
LINE
  5
146
330
1F
100
AcDbEntity
  8
0
100
AcDbLine
 10
-166.9910649271504
 20
-3.753294868579755
 30
0.0
 11
-167.2745771779055
 21
-3.886705607071339
 31
0.0
  0
LINE
  5
147
330
1F
100
AcDbEntity
  8
0
100
AcDbLine
 10
-167.7001770342367
 20
-4.339923421321787
 30
0.0
 11
-167.8155226355925
 21
-4.631253154992715
 31
0.0
  0
LINE
  5
148
330
1F
100
AcDbEntity
  8
0
100
AcDbLine
 10
-165.4425730768216
 20
-5.402271204804336
 30
0.0
 11
-165.3646503075389
 21
-5.098782055903833
 31
0.0
  0
LINE
  5
149
330
1F
100
AcDbEntity
  8
0
100
AcDbLine
 10
-167.5160044684586
 20
-5.797799396359719
 30
0.0
 11
-167.2745771779055
 21
-5.997525420826338
 31
0.0
  0
LINE
  5
14A
330
1F
100
AcDbEntity
  8
0
100
AcDbLine
 10
-164.1163768691114
 20
22.24393658793526
 30
0.0
 11
-164.2152472695712
 21
22.62282763508769
 31
0.0
  0
LINE
  5
14B
330
1F
100
AcDbEntity
  8
0
100
AcDbLine
 10
-167.5160044684585
 20
-4.086431631538002
 30
0.0
 11
-167.7001770342367
 21
-4.339923421321787
 31
0.0
  0
LINE
  5
14C
330
1F
100
AcDbEntity
  8
0
100
AcDbLine
 10
-166.6832818335933
 20
-6.189648924484109
 30
0.0
 11
-166.3705670409497
 21
-6.169974577359572
 31
0.0
  0
LINE
  5
14D
330
1F
100
AcDbEntity
  8
0
100
AcDbLine
 10
-165.8080136969958
 20
-5.905257067418343
 30
0.0
 11
-165.5935224412131
 21
-5.676847079314006
 31
0.0
  0
LINE
  5
14E
330
1F
100
AcDbEntity
  8
0
100
AcDbLine
 10
-164.6838827639094
 20
23.24191281211595
 30
0.0
 11
-165.0217111233054
 21
23.43991731026437
 31
0.0
  0
LINE
  5
14F
330
1F
100
AcDbEntity
  8
0
100
AcDbLine
 10
-166.0725695697254
 20
-6.073149329530893
 30
0.0
 11
-165.8080136969958
 21
-5.905257067418343
 31
0.0
  0
LINE
  5
150
330
1F
100
AcDbEntity
  8
0
100
AcDbLine
 10
-165.3086774141633
 20
18.13512737390931
 30
0.0
 11
-166.8152790813585
 21
19.4434243147321
 31
0.0
  0
LINE
  5
151
330
1F
100
AcDbEntity
  8
0
100
AcDbLine
 10
-165.7908457860657
 20
23.54630130112202
 30
0.0
 11
-166.1697368332178
 21
23.44743090066216
 31
0.0
  0
LINE
  5
152
330
1F
100
AcDbEntity
  8
0
100
AcDbLine
 10
-181.6559049447478
 20
37.9461130537052
 30
0.0
 11
-181.8057555785048
 21
38.30788448605146
 31
0.0
  0
LINE
  5
153
330
1F
100
AcDbEntity
  8
0
100
AcDbLine
 10
-164.2227608599689
 20
21.47480192517524
 30
0.0
 11
-164.1189396148733
 21
21.85236639750528
 31
0.0
  0
LINE
  5
154
330
1F
100
AcDbEntity
  8
0
100
AcDbLine
 10
-184.553682423615
 20
37.9461130537052
 30
0.0
 11
-184.6047936841814
 21
37.55788448605144
 31
0.0
  0
LINE
  5
155
330
1F
100
AcDbEntity
  8
0
100
AcDbLine
 10
-184.6047936841814
 20
37.55788448605144
 30
0.0
 11
-184.553682423615
 21
37.16965591839769
 31
0.0
  0
LINE
  5
156
330
1F
100
AcDbEntity
  8
0
100
AcDbLine
 10
-167.844126303027
 20
-4.942115513948861
 30
0.0
 11
-167.8155226355927
 21
-5.252977872904962
 31
0.0
  0
LINE
  5
157
330
1F
100
AcDbEntity
  8
0
100
AcDbLine
 10
-165.3992755956357
 20
23.54373855536
 30
0.0
 11
-165.7908457860657
 21
23.54630130112202
 31
0.0
  0
LINE
  5
158
330
1F
100
AcDbEntity
  8
0
100
AcDbLine
 10
-181.6559049447478
 20
37.16965591839769
 30
0.0
 11
-181.6047936841814
 21
37.55788448605144
 31
0.0
  0
LINE
  5
159
330
1F
100
AcDbEntity
  8
0
100
AcDbLine
 10
-166.0725695697254
 20
-3.811081698365926
 30
0.0
 11
-166.3705670409497
 21
-3.714256450537518
 31
0.0
  0
LINE
  5
15A
330
1F
100
AcDbEntity
  8
0
100
AcDbLine
 10
-166.1878762450582
 20
20.67585166183844
 30
0.0
 11
-165.8103117727281
 21
20.57203041674317
 31
0.0
  0
LINE
  5
15B
330
1F
100
AcDbEntity
  8
0
100
AcDbLine
 10
-184.553682423615
 20
37.16965591839769
 30
0.0
 11
-184.4038317898581
 21
36.80788448605144
 31
0.0
  0
LINE
  5
15C
330
1F
100
AcDbEntity
  8
0
100
AcDbLine
 10
-184.1654538559612
 20
36.4972243142716
 30
0.0
 11
-183.8547936841814
 21
36.25884638037482
 31
0.0
  0
LINE
  5
15D
330
1F
100
AcDbEntity
  8
0
100
AcDbLine
 10
-182.7165651165276
 20
36.10899574661784
 30
0.0
 11
-182.3547936841814
 21
36.25884638037482
 31
0.0
  0
LINE
  5
15E
330
1F
100
AcDbEntity
  8
0
100
AcDbLine
 10
-183.4930222518352
 20
36.10899574661784
 30
0.0
 11
-183.1047936841814
 21
36.05788448605147
 31
0.0
  0
LINE
  5
15F
330
1F
100
AcDbEntity
  8
0
100
AcDbLine
 10
-165.0398505351459
 20
20.66833807144083
 30
0.0
 11
-164.6994594299877
 21
20.86190376372237
 31
0.0
  0
LINE
  5
160
330
1F
100
AcDbEntity
  8
0
100
AcDbLine
 10
-165.5935224412132
 20
-4.207383948582904
 30
0.0
 11
-165.8080136969961
 21
-3.978973960478702
 31
0.0
  0
LINE
  5
161
330
1F
100
AcDbEntity
  8
0
100
AcDbLine
 10
-165.4425730768215
 20
-4.481959823092664
 30
0.0
 11
-165.5935224412132
 21
-4.207383948582904
 31
0.0
  0
LINE
  5
162
330
1F
100
AcDbEntity
  8
0
100
AcDbLine
 10
-167.7001770342366
 20
-5.544307606575889
 30
0.0
 11
-167.5160044684586
 21
-5.797799396359719
 31
0.0
  0
LINE
  5
163
330
1F
100
AcDbEntity
  8
0
100
AcDbLine
 10
-165.4187415822982
 20
20.56946767098115
 30
0.0
 11
-165.0398505351459
 21
20.66833807144083
 31
0.0
  0
LINE
  5
164
330
1F
100
AcDbEntity
  8
0
100
AcDbLine
 10
-164.4207653581174
 20
21.1369735657791
 30
0.0
 11
-164.2227608599689
 21
21.47480192517524
 31
0.0
  0
LINE
  5
165
330
1F
100
AcDbEntity
  8
0
100
AcDbLine
 10
-166.8007744065108
 20
21.15255023185737
 30
0.0
 11
-166.5257046044542
 21
20.87385615998696
 31
0.0
  0
LINE
  5
166
330
1F
100
AcDbEntity
  8
0
100
AcDbLine
 10
-165.3646503075389
 20
-5.098782055903833
 30
0.0
 11
-165.3646503075388
 21
-4.785448971993167
 31
0.0
  0
LINE
  5
167
330
1F
100
AcDbEntity
  8
0
100
AcDbLine
 10
-165.8080136969961
 20
-3.978973960478702
 30
0.0
 11
-166.0725695697254
 21
-3.811081698365926
 31
0.0
  0
LINE
  5
168
330
1F
100
AcDbEntity
  8
0
100
AcDbLine
 10
-167.8155226355925
 20
-4.631253154992715
 30
0.0
 11
-167.844126303027
 21
-4.942115513948861
 31
0.0
  0
LINE
  5
169
330
1F
100
AcDbEntity
  8
0
100
AcDbLine
 10
-166.9910649271504
 20
-6.130936159317921
 30
0.0
 11
-166.6832818335933
 21
-6.189648924484109
 31
0.0
  0
LINE
  5
16A
330
1F
100
AcDbEntity
  8
0
100
AcDbLine
 10
-166.6832818335934
 20
-3.694582103413342
 30
0.0
 11
-166.9910649271504
 21
-3.753294868579755
 31
0.0
  0
LINE
  5
16B
330
1F
100
AcDbEntity
  8
0
100
AcDbLine
 10
-166.5257046044542
 20
20.87385615998696
 30
0.0
 11
-166.1878762450582
 21
20.67585166183844
 31
0.0
  0
LINE
  5
16C
330
1F
100
AcDbEntity
  8
0
100
AcDbLine
 10
-166.3705670409497
 20
-6.169974577359572
 30
0.0
 11
-166.0725695697254
 21
-6.073149329530893
 31
0.0
  0
LINE
  5
16D
330
1F
100
AcDbEntity
  8
0
100
AcDbLine
 10
-167.0932104992522
 20
21.87183238416751
 30
0.0
 11
-166.9943400987924
 21
21.49294133701535
 31
0.0
  0
LINE
  5
16E
330
1F
100
AcDbEntity
  8
0
100
AcDbLine
 10
-164.1189396148733
 20
21.85236639750528
 30
0.0
 11
-164.1163768691114
 21
22.24393658793526
 31
0.0
  0
LINE
  5
16F
330
1F
100
AcDbEntity
  8
0
100
AcDbLine
 10
-164.2152472695712
 20
22.62282763508769
 30
0.0
 11
-164.4088129618527
 21
22.96321874024567
 31
0.0
  0
LINE
  5
170
330
1F
100
AcDbEntity
  8
0
100
AcDbLine
 10
-167.8155226355927
 20
-5.252977872904962
 30
0.0
 11
-167.7001770342366
 21
-5.544307606575889
 31
0.0
  0
LINE
  5
171
330
1F
100
AcDbEntity
  8
0
100
AcDbLine
 10
-165.3646503075388
 20
-4.785448971993167
 30
0.0
 11
-165.4425730768215
 21
-4.481959823092664
 31
0.0
  0
LINE
  5
172
330
1F
100
AcDbEntity
  8
0
100
AcDbLine
 10
-165.8103117727281
 20
20.57203041674317
 30
0.0
 11
-165.4187415822982
 21
20.56946767098115
 31
0.0
  0
LINE
  5
173
330
1F
100
AcDbEntity
  8
0
100
AcDbLine
 10
-165.5935224412131
 20
-5.676847079314006
 30
0.0
 11
-165.4425730768216
 21
-5.402271204804336
 31
0.0
  0
LINE
  5
174
330
1F
100
AcDbEntity
  8
0
100
AcDbLine
 10
-167.2745771779055
 20
-5.997525420826338
 30
0.0
 11
-166.9910649271504
 21
-6.130936159317921
 31
0.0
  0
LINE
  5
175
330
1F
100
AcDbEntity
  8
0
100
AcDbLine
 10
-164.4088129618527
 20
22.96321874024567
 30
0.0
 11
-164.6838827639094
 21
23.24191281211595
 31
0.0
  0
LINE
  5
176
330
1F
100
AcDbEntity
  8
0
100
AcDbLine
 10
-167.2745771779055
 20
-3.886705607071339
 30
0.0
 11
-167.5160044684585
 21
-4.086431631538002
 31
0.0
  0
LINE
  5
177
330
1F
100
AcDbEntity
  8
0
100
AcDbLine
 10
-169.7567125919939
 20
20.78901013544549
 30
0.0
 11
-169.1166317261299
 21
22.85940487307884
 31
0.0
  0
LINE
  5
178
330
1F
100
AcDbEntity
  8
0
100
AcDbLine
 10
-184.4038317898581
 20
36.80788448605144
 30
0.0
 11
-184.1654538559612
 21
36.4972243142716
 31
0.0
  0
LINE
  5
179
330
1F
100
AcDbEntity
  8
0
100
AcDbLine
 10
-209.0096632061319
 20
46.57040865108336
 30
0.0
 11
-207.2930603684638
 21
46.79640370202797
 31
0.0
  0
LINE
  5
17A
330
1F
100
AcDbEntity
  8
0
100
AcDbLine
 10
-203.0426158576904
 20
50.05788448605144
 30
0.0
 11
-202.9833117220655
 21
50.2010573345818
 31
0.0
  0
LINE
  5
17B
330
1F
100
AcDbEntity
  8
0
100
AcDbLine
 10
-166.1697368332178
 20
23.44743090066216
 30
0.0
 11
-166.5101279383759
 21
23.25386520838044
 31
0.0
  0
LINE
  5
17C
330
1F
100
AcDbEntity
  8
0
100
AcDbLine
 10
-182.0342100812794
 20
35.07269962573002
 30
0.0
 11
-183.3261717591052
 21
33.57405046958681
 31
0.0
  0
LINE
  5
17D
330
1F
100
AcDbEntity
  8
0
100
AcDbLine
 10
-182.7708279954635
 20
43.10665809597818
 30
0.0
 11
-181.3260254068321
 21
41.05366717505542
 31
0.0
  0
LINE
  5
17E
330
1F
100
AcDbEntity
  8
0
100
AcDbLine
 10
-183.1047936841814
 20
36.05788448605147
 30
0.0
 11
-182.7165651165276
 21
36.10899574661784
 31
0.0
  0
LINE
  5
17F
330
1F
100
AcDbEntity
  8
0
100
AcDbLine
 10
-181.8057555785048
 20
38.30788448605146
 30
0.0
 11
-182.0441335124016
 21
38.61854465783129
 31
0.0
  0
LINE
  5
180
330
1F
100
AcDbEntity
  8
0
100
AcDbLine
 10
-166.9868265083947
 20
22.64096704692771
 30
0.0
 11
-167.0906477534903
 21
22.26340257459749
 31
0.0
  0
LINE
  5
181
330
1F
100
AcDbEntity
  8
0
100
AcDbLine
 10
-182.0441335124016
 20
38.61854465783129
 30
0.0
 11
-182.3547936841814
 21
38.85692259172807
 31
0.0
  0
LINE
  5
182
330
1F
100
AcDbEntity
  8
0
100
AcDbLine
 10
-205.6047936841814
 20
47.49570665956038
 30
0.0
 11
-204.1550462158756
 21
48.60813701774561
 31
0.0
  0
LINE
  5
183
330
1F
100
AcDbEntity
  8
0
100
AcDbLine
 10
-181.6047936841814
 20
37.55788448605144
 30
0.0
 11
-181.6559049447478
 21
37.9461130537052
 31
0.0
  0
LINE
  5
184
330
1F
100
AcDbEntity
  8
0
100
AcDbLine
 10
-182.7165651165276
 20
39.00677322548505
 30
0.0
 11
-183.1047936841814
 21
39.05788448605142
 31
0.0
  0
LINE
  5
185
330
1F
100
AcDbEntity
  8
0
100
AcDbLine
 10
-183.4930222518352
 20
39.00677322548505
 30
0.0
 11
-183.8547936841814
 21
38.85692259172807
 31
0.0
  0
LINE
  5
186
330
1F
100
AcDbEntity
  8
0
100
AcDbLine
 10
-207.2930603684638
 20
46.79640370202797
 30
0.0
 11
-205.6047936841814
 21
47.49570665956038
 31
0.0
  0
LINE
  5
187
330
1F
100
AcDbEntity
  8
0
100
AcDbLine
 10
-166.8810579804016
 20
27.55334739201781
 30
0.0
 11
-166.023872466051
 21
28.83600016367228
 31
0.0
  0
LINE
  5
188
330
1F
100
AcDbEntity
  8
0
100
AcDbLine
 10
-183.8547936841814
 20
36.25884638037482
 30
0.0
 11
-183.4930222518352
 21
36.10899574661784
 31
0.0
  0
LINE
  5
189
330
1F
100
AcDbEntity
  8
0
100
AcDbLine
 10
-182.3547936841814
 20
36.25884638037482
 30
0.0
 11
-182.0441335124016
 21
36.4972243142716
 31
0.0
  0
LINE
  5
18A
330
1F
100
AcDbEntity
  8
0
100
AcDbLine
 10
-183.8547936841814
 20
38.85692259172807
 30
0.0
 11
-184.1654538559612
 21
38.61854465783129
 31
0.0
  0
LINE
  5
18B
330
1F
100
AcDbEntity
  8
0
100
AcDbLine
 10
-169.1166317261299
 20
22.85940487307884
 30
0.0
 11
-168.1120911834118
 21
25.26031171472776
 31
0.0
  0
LINE
  5
18C
330
1F
100
AcDbEntity
  8
0
100
AcDbLine
 10
-209.5153826856437
 20
11.6155702057793
 30
0.0
 11
-209.8244070190374
 21
10.41199989129483
 31
0.0
  0
LINE
  5
18D
330
1F
100
AcDbEntity
  8
0
100
AcDbLine
 10
-209.0579477420836
 20
12.77091898989074
 30
0.0
 11
-209.5153826856437
 21
11.6155702057793
 31
0.0
  0
LINE
  5
18E
330
1F
100
AcDbEntity
  8
0
100
AcDbLine
 10
-208.4593162106754
 20
13.85982570313179
 30
0.0
 11
-209.0579477420836
 21
12.77091898989074
 31
0.0
  0
LINE
  5
18F
330
1F
100
AcDbEntity
  8
0
100
AcDbLine
 10
-207.7289288682745
 20
14.86511763615336
 30
0.0
 11
-208.4593162106754
 21
13.85982570313179
 31
0.0
  0
LINE
  5
190
330
1F
100
AcDbEntity
  8
0
100
AcDbLine
 10
-206.8783043595829
 20
15.77094073463933
 30
0.0
 11
-207.7289288682745
 21
14.86511763615336
 31
0.0
  0
LINE
  5
191
330
1F
100
AcDbEntity
  8
0
100
AcDbLine
 10
-205.920857541241
 20
16.56300962721414
 30
0.0
 11
-206.8783043595829
 21
15.77094073463933
 31
0.0
  0
LINE
  5
192
330
1F
100
AcDbEntity
  8
0
100
AcDbLine
 10
-204.8716879215253
 20
17.22883291428284
 30
0.0
 11
-205.920857541241
 21
16.56300962721414
 31
0.0
  0
LINE
  5
193
330
1F
100
AcDbEntity
  8
0
100
AcDbLine
 10
-203.7473415320819
 20
17.7579101648648
 30
0.0
 11
-204.8716879215253
 21
17.22883291428284
 31
0.0
  0
LINE
  5
194
330
1F
100
AcDbEntity
  8
0
100
AcDbLine
 10
-202.5655499871246
 20
18.14189751466298
 30
0.0
 11
-203.7473415320819
 21
17.7579101648648
 31
0.0
  0
LINE
  5
195
330
1F
100
AcDbEntity
  8
0
100
AcDbLine
 10
-201.3449508452853
 20
18.37473925378801
 30
0.0
 11
-202.5655499871246
 21
18.14189751466298
 31
0.0
  0
LINE
  5
196
330
1F
100
AcDbEntity
  8
0
100
AcDbLine
 10
-200.1047936841815
 20
18.45276332892112
 30
0.0
 11
-201.3449508452853
 21
18.37473925378801
 31
0.0
  0
LINE
  5
197
330
1F
100
AcDbEntity
  8
0
100
AcDbLine
 10
-198.8646365230776
 20
18.37473925378806
 30
0.0
 11
-200.1047936841815
 21
18.45276332892112
 31
0.0
  0
LINE
  5
198
330
1F
100
AcDbEntity
  8
0
100
AcDbLine
 10
-197.6440373812383
 20
18.14189751466298
 30
0.0
 11
-198.8646365230776
 21
18.37473925378806
 31
0.0
  0
LINE
  5
199
330
1F
100
AcDbEntity
  8
0
100
AcDbLine
 10
-196.462245836281
 20
17.75791016486484
 30
0.0
 11
-197.6440373812383
 21
18.14189751466298
 31
0.0
  0
LINE
  5
19A
330
1F
100
AcDbEntity
  8
0
100
AcDbLine
 10
-195.3378994468377
 20
17.22883291428284
 30
0.0
 11
-196.462245836281
 21
17.75791016486484
 31
0.0
  0
LINE
  5
19B
330
1F
100
AcDbEntity
  8
0
100
AcDbLine
 10
-194.2887298271219
 20
16.56300962721414
 30
0.0
 11
-195.3378994468377
 21
17.22883291428284
 31
0.0
  0
LINE
  5
19C
330
1F
100
AcDbEntity
  8
0
100
AcDbLine
 10
-193.33128300878
 20
15.77094073463933
 30
0.0
 11
-194.2887298271219
 21
16.56300962721414
 31
0.0
  0
LINE
  5
19D
330
1F
100
AcDbEntity
  8
0
100
AcDbLine
 10
-192.4806585000884
 20
14.86511763615336
 30
0.0
 11
-193.33128300878
 21
15.77094073463933
 31
0.0
  0
LINE
  5
19E
330
1F
100
AcDbEntity
  8
0
100
AcDbLine
 10
-191.7502711576875
 20
13.85982570313184
 30
0.0
 11
-192.4806585000884
 21
14.86511763615336
 31
0.0
  0
LINE
  5
19F
330
1F
100
AcDbEntity
  8
0
100
AcDbLine
 10
-191.1516396262793
 20
12.77091898989074
 30
0.0
 11
-191.7502711576875
 21
13.85982570313184
 31
0.0
  0
LINE
  5
1A0
330
1F
100
AcDbEntity
  8
0
100
AcDbLine
 10
-190.6942046827192
 20
11.6155702057793
 30
0.0
 11
-191.1516396262793
 21
12.77091898989074
 31
0.0
  0
LINE
  5
1A1
330
1F
100
AcDbEntity
  8
0
100
AcDbLine
 10
-190.3851803493255
 20
10.41199989129488
 30
0.0
 11
-190.6942046827192
 21
11.6155702057793
 31
0.0
  0
LINE
  5
1A2
330
1F
100
AcDbEntity
  8
0
100
AcDbLine
 10
-190.2294401244381
 20
9.179189069274884
 30
0.0
 11
-190.3851803493255
 21
10.41199989129488
 31
0.0
  0
LINE
  5
1A3
330
1F
100
AcDbEntity
  8
0
100
AcDbLine
 10
-190.2294401244381
 20
7.936579902828067
 30
0.0
 11
-190.2294401244381
 21
9.179189069274884
 31
0.0
  0
LINE
  5
1A4
330
1F
100
AcDbEntity
  8
0
100
AcDbLine
 10
-190.3851803493255
 20
6.703769080808073
 30
0.0
 11
-190.2294401244381
 21
7.936579902828067
 31
0.0
  0
LINE
  5
1A5
330
1F
100
AcDbEntity
  8
0
100
AcDbLine
 10
-190.6942046827192
 20
5.500198766323604
 30
0.0
 11
-190.3851803493255
 21
6.703769080808073
 31
0.0
  0
LINE
  5
1A6
330
1F
100
AcDbEntity
  8
0
100
AcDbLine
 10
-191.1516396262793
 20
4.344849982212168
 30
0.0
 11
-190.6942046827192
 21
5.500198766323604
 31
0.0
  0
LINE
  5
1A7
330
1F
100
AcDbEntity
  8
0
100
AcDbLine
 10
-191.7502711576875
 20
3.255943268971113
 30
0.0
 11
-191.1516396262793
 21
4.344849982212168
 31
0.0
  0
LINE
  5
1A8
330
1F
100
AcDbEntity
  8
0
100
AcDbLine
 10
-192.4806585000884
 20
2.250651335949549
 30
0.0
 11
-191.7502711576875
 21
3.255943268971113
 31
0.0
  0
LINE
  5
1A9
330
1F
100
AcDbEntity
  8
0
100
AcDbLine
 10
-155.5114482712821
 20
37.94725817318497
 30
0.0
 11
-153.1174540351901
 21
38.96816314515848
 31
0.0
  0
LINE
  5
1AA
330
1F
100
AcDbEntity
  8
0
100
AcDbLine
 10
-165.0217111233054
 20
23.43991731026437
 30
0.0
 11
-165.3992755956357
 21
23.54373855536
 31
0.0
  0
LINE
  5
1AB
330
1F
100
AcDbEntity
  8
0
100
AcDbLine
 10
-182.0441335124016
 20
36.4972243142716
 30
0.0
 11
-181.8057555785048
 21
36.80788448605144
 31
0.0
  0
LINE
  5
1AC
330
1F
100
AcDbEntity
  8
0
100
AcDbLine
 10
-166.7888220102463
 20
22.97879540632376
 30
0.0
 11
-166.9868265083947
 21
22.64096704692771
 31
0.0
  0
LINE
  5
1AD
330
1F
100
AcDbEntity
  8
0
100
AcDbLine
 10
-183.3261717591052
 20
33.57405046958681
 30
0.0
 11
-183.4315803169531
 21
33.29863105843418
 31
0.0
  0
LINE
  5
1AE
330
1F
100
AcDbEntity
  8
0
100
AcDbLine
 10
-165.4349701808192
 20
29.71720631536272
 30
0.0
 11
-163.7872640139693
 21
31.73178313245475
 31
0.0
  0
LINE
  5
1AF
330
1F
100
AcDbEntity
  8
0
100
AcDbLine
 10
-185.5641215572863
 20
1.557884486051466
 30
0.0
 11
-185.4998854294134
 21
1.557884486051466
 31
0.0
  0
LINE
  5
1B0
330
1F
100
AcDbEntity
  8
0
100
AcDbLine
 10
-185.5315803169531
 20
1.798631058434169
 30
0.0
 11
-185.5641215572863
 21
1.557884486051466
 31
0.0
  0
LINE
  5
1B1
330
1F
100
AcDbEntity
  8
0
100
AcDbLine
 10
-180.0781459336833
 20
38.87535979040999
 30
0.0
 11
-179.187983581842
 21
36.92006476655635
 31
0.0
  0
LINE
  5
1B2
330
1F
100
AcDbEntity
  8
0
100
AcDbLine
 10
-183.1047936841814
 20
39.05788448605142
 30
0.0
 11
-183.4930222518352
 21
39.00677322548505
 31
0.0
  0
LINE
  5
1B3
330
1F
100
AcDbEntity
  8
0
100
AcDbLine
 10
-168.1120911834118
 20
25.26031171472776
 30
0.0
 11
-166.8810579804016
 21
27.55334739201781
 31
0.0
  0
LINE
  5
1B4
330
1F
100
AcDbEntity
  8
0
100
AcDbLine
 10
-164.7112096018957
 20
17.20238655612689
 30
0.0
 11
-165.3086774141633
 21
18.13512737390931
 31
0.0
  0
LINE
  5
1B5
330
1F
100
AcDbEntity
  8
0
100
AcDbLine
 10
-166.5101279383759
 20
23.25386520838044
 30
0.0
 11
-166.7888220102463
 21
22.97879540632376
 31
0.0
  0
LINE
  5
1B6
330
1F
100
AcDbEntity
  8
0
100
AcDbLine
 10
-211.8922406929257
 20
40.8064602610801
 30
0.0
 11
-212.0811144253207
 21
39.31137072040315
 31
0.0
  0
LINE
  5
1B7
330
1F
100
AcDbEntity
  8
0
100
AcDbLine
 10
-211.5174718797233
 20
42.26608841855079
 30
0.0
 11
-211.8922406929257
 21
40.8064602610801
 31
0.0
  0
LINE
  5
1B8
330
1F
100
AcDbEntity
  8
0
100
AcDbLine
 10
-210.9627183137736
 20
43.66723598483227
 30
0.0
 11
-211.5174718797233
 21
42.26608841855079
 31
0.0
  0
LINE
  5
1B9
330
1F
100
AcDbEntity
  8
0
100
AcDbLine
 10
-210.2367287902056
 20
44.98780602579936
 30
0.0
 11
-210.9627183137736
 21
43.66723598483227
 31
0.0
  0
LINE
  5
1BA
330
1F
100
AcDbEntity
  8
0
100
AcDbLine
 10
-209.3509525974909
 20
46.20697236303571
 30
0.0
 11
-210.2367287902056
 21
44.98780602579936
 31
0.0
  0
LINE
  5
1BB
330
1F
100
AcDbEntity
  8
0
100
AcDbLine
 10
-209.0096632061319
 20
46.57040865108336
 30
0.0
 11
-209.3509525974909
 21
46.20697236303571
 31
0.0
  0
LINE
  5
1BC
330
1F
100
AcDbEntity
  8
0
100
AcDbLine
 10
-204.1550462158756
 20
48.60813701774561
 30
0.0
 11
-203.0426158576904
 21
50.05788448605144
 31
0.0
  0
LINE
  5
1BD
330
1F
100
AcDbEntity
  8
0
100
AcDbLine
 10
-201.6087924869531
 20
50.46326090182517
 30
0.0
 11
-202.9833117220655
 21
50.2010573345818
 31
0.0
  0
LINE
  5
1BE
330
1F
100
AcDbEntity
  8
0
100
AcDbLine
 10
-200.1047936841815
 20
50.55788448605142
 30
0.0
 11
-201.6087924869531
 21
50.46326090182517
 31
0.0
  0
LINE
  5
1BF
330
1F
100
AcDbEntity
  8
0
100
AcDbLine
 10
-198.6007948814098
 20
50.46326090182517
 30
0.0
 11
-200.1047936841815
 21
50.55788448605142
 31
0.0
  0
LINE
  5
1C0
330
1F
100
AcDbEntity
  8
0
100
AcDbLine
 10
-197.1205150382032
 20
50.18088241959504
 30
0.0
 11
-198.6007948814098
 21
50.46326090182517
 31
0.0
  0
LINE
  5
1C1
330
1F
100
AcDbEntity
  8
0
100
AcDbLine
 10
-195.6872990519653
 20
49.71520231671048
 30
0.0
 11
-197.1205150382032
 21
50.18088241959504
 31
0.0
  0
LINE
  5
1C2
330
1F
100
AcDbEntity
  8
0
100
AcDbLine
 10
-194.3237495949608
 20
49.07356464657781
 30
0.0
 11
-195.6872990519653
 21
49.71520231671048
 31
0.0
  0
LINE
  5
1C3
330
1F
100
AcDbEntity
  8
0
100
AcDbLine
 10
-193.0513706566718
 20
48.26608841855082
 30
0.0
 11
-194.3237495949608
 21
49.07356464657781
 31
0.0
  0
LINE
  5
1C4
330
1F
100
AcDbEntity
  8
0
100
AcDbLine
 10
-191.8902284130372
 20
47.30550801510839
 30
0.0
 11
-193.0513706566718
 21
48.26608841855082
 31
0.0
  0
LINE
  5
1C5
330
1F
100
AcDbEntity
  8
0
100
AcDbLine
 10
-190.858634770872
 20
46.20697236303571
 30
0.0
 11
-191.8902284130372
 21
47.30550801510839
 31
0.0
  0
LINE
  5
1C6
330
1F
100
AcDbEntity
  8
0
100
AcDbLine
 10
-189.9728585781573
 20
44.9878060257994
 30
0.0
 11
-190.858634770872
 21
46.20697236303571
 31
0.0
  0
LINE
  5
1C7
330
1F
100
AcDbEntity
  8
0
100
AcDbLine
 10
-189.2468690545892
 20
43.66723598483232
 30
0.0
 11
-189.9728585781573
 21
44.9878060257994
 31
0.0
  0
LINE
  5
1C8
330
1F
100
AcDbEntity
  8
0
100
AcDbLine
 10
-188.6921154886396
 20
42.26608841855079
 30
0.0
 11
-189.2468690545892
 21
43.66723598483232
 31
0.0
  0
LINE
  5
1C9
330
1F
100
AcDbEntity
  8
0
100
AcDbLine
 10
-188.3173466754372
 20
40.80646026108014
 30
0.0
 11
-188.6921154886396
 21
42.26608841855079
 31
0.0
  0
LINE
  5
1CA
330
1F
100
AcDbEntity
  8
0
100
AcDbLine
 10
-188.1284729430422
 20
39.31137072040319
 30
0.0
 11
-188.3173466754372
 21
40.80646026108014
 31
0.0
  0
LINE
  5
1CB
330
1F
100
AcDbEntity
  8
0
100
AcDbLine
 10
-188.1284729430422
 20
37.80439825169965
 30
0.0
 11
-188.1284729430422
 21
39.31137072040319
 31
0.0
  0
LINE
  5
1CC
330
1F
100
AcDbEntity
  8
0
100
AcDbLine
 10
-188.6921154886396
 20
34.8496805535521
 30
0.0
 11
-188.3173466754372
 21
36.30930871102274
 31
0.0
  0
LINE
  5
1CD
330
1F
100
AcDbEntity
  8
0
100
AcDbLine
 10
-189.2468690545892
 20
33.44853298727057
 30
0.0
 11
-188.6921154886396
 21
34.8496805535521
 31
0.0
  0
LINE
  5
1CE
330
1F
100
AcDbEntity
  8
0
100
AcDbLine
 10
-189.9728585781573
 20
32.12796294630348
 30
0.0
 11
-189.2468690545892
 21
33.44853298727057
 31
0.0
  0
LINE
  5
1CF
330
1F
100
AcDbEntity
  8
0
100
AcDbLine
 10
-190.858634770872
 20
30.90879660906718
 30
0.0
 11
-189.9728585781573
 21
32.12796294630348
 31
0.0
  0
LINE
  5
1D0
330
1F
100
AcDbEntity
  8
0
100
AcDbLine
 10
-191.8902284130372
 20
29.8102609569945
 30
0.0
 11
-190.858634770872
 21
30.90879660906718
 31
0.0
  0
LINE
  5
1D1
330
1F
100
AcDbEntity
  8
0
100
AcDbLine
 10
-193.0513706566718
 20
28.84968055355206
 30
0.0
 11
-191.8902284130372
 21
29.8102609569945
 31
0.0
  0
LINE
  5
1D2
330
1F
100
AcDbEntity
  8
0
100
AcDbLine
 10
-194.3237495949608
 20
28.04220432552508
 30
0.0
 11
-193.0513706566718
 21
28.84968055355206
 31
0.0
  0
LINE
  5
1D3
330
1F
100
AcDbEntity
  8
0
100
AcDbLine
 10
-195.6872990519653
 20
27.4005666553924
 30
0.0
 11
-194.3237495949608
 21
28.04220432552508
 31
0.0
  0
LINE
  5
1D4
330
1F
100
AcDbEntity
  8
0
100
AcDbLine
 10
-197.1205150382032
 20
26.93488655250789
 30
0.0
 11
-195.6872990519653
 21
27.4005666553924
 31
0.0
  0
LINE
  5
1D5
330
1F
100
AcDbEntity
  8
0
100
AcDbLine
 10
-198.6007948814098
 20
26.65250807027771
 30
0.0
 11
-197.1205150382032
 21
26.93488655250789
 31
0.0
  0
LINE
  5
1D6
330
1F
100
AcDbEntity
  8
0
100
AcDbLine
 10
-200.1047936841815
 20
26.55788448605146
 30
0.0
 11
-198.6007948814098
 21
26.65250807027771
 31
0.0
  0
LINE
  5
1D7
330
1F
100
AcDbEntity
  8
0
100
AcDbLine
 10
-201.608792486953
 20
26.65250807027771
 30
0.0
 11
-200.1047936841815
 21
26.55788448605146
 31
0.0
  0
LINE
  5
1D8
330
1F
100
AcDbEntity
  8
0
100
AcDbLine
 10
-203.0890723301597
 20
26.93488655250784
 30
0.0
 11
-201.608792486953
 21
26.65250807027771
 31
0.0
  0
LINE
  5
1D9
330
1F
100
AcDbEntity
  8
0
100
AcDbLine
 10
-204.5222883163975
 20
27.4005666553924
 30
0.0
 11
-203.0890723301597
 21
26.93488655250784
 31
0.0
  0
LINE
  5
1DA
330
1F
100
AcDbEntity
  8
0
100
AcDbLine
 10
-205.885837773402
 20
28.04220432552508
 30
0.0
 11
-204.5222883163975
 21
27.4005666553924
 31
0.0
  0
LINE
  5
1DB
330
1F
100
AcDbEntity
  8
0
100
AcDbLine
 10
-207.1582167116911
 20
28.84968055355202
 30
0.0
 11
-205.885837773402
 21
28.04220432552508
 31
0.0
  0
LINE
  5
1DC
330
1F
100
AcDbEntity
  8
0
100
AcDbLine
 10
-208.3193589553256
 20
29.81026095699445
 30
0.0
 11
-207.1582167116911
 21
28.84968055355202
 31
0.0
  0
LINE
  5
1DD
330
1F
100
AcDbEntity
  8
0
100
AcDbLine
 10
-209.3509525974909
 20
30.90879660906713
 30
0.0
 11
-208.3193589553256
 21
29.81026095699445
 31
0.0
  0
LINE
  5
1DE
330
1F
100
AcDbEntity
  8
0
100
AcDbLine
 10
-210.2367287902056
 20
32.12796294630344
 30
0.0
 11
-209.3509525974909
 21
30.90879660906713
 31
0.0
  0
LINE
  5
1DF
330
1F
100
AcDbEntity
  8
0
100
AcDbLine
 10
-210.9627183137736
 20
33.44853298727053
 30
0.0
 11
-210.2367287902056
 21
32.12796294630344
 31
0.0
  0
LINE
  5
1E0
330
1F
100
AcDbEntity
  8
0
100
AcDbLine
 10
-211.5174718797233
 20
34.84968055355206
 30
0.0
 11
-210.9627183137736
 21
33.44853298727053
 31
0.0
  0
LINE
  5
1E1
330
1F
100
AcDbEntity
  8
0
100
AcDbLine
 10
-211.8922406929257
 20
36.3093087110227
 30
0.0
 11
-211.5174718797233
 21
34.84968055355206
 31
0.0
  0
LINE
  5
1E2
330
1F
100
AcDbEntity
  8
0
100
AcDbLine
 10
-182.3547936841814
 20
38.85692259172807
 30
0.0
 11
-182.7165651165276
 21
39.00677322548505
 31
0.0
  0
LINE
  5
1E3
330
1F
100
AcDbEntity
  8
0
100
AcDbLine
 10
-184.5962660199144
 20
33.45196484013339
 30
0.0
 11
-183.4315803169531
 21
33.29863105843418
 31
0.0
  0
LINE
  5
1E4
330
1F
100
AcDbEntity
  8
0
100
AcDbLine
 10
-185.6815803169531
 20
33.90151674140417
 30
0.0
 11
-184.5962660199144
 21
33.45196484013339
 31
0.0
  0
LINE
  5
1E5
330
1F
100
AcDbEntity
  8
0
100
AcDbLine
 10
-186.6135608322926
 20
34.6166505430947
 30
0.0
 11
-185.6815803169531
 21
33.90151674140417
 31
0.0
  0
LINE
  5
1E6
330
1F
100
AcDbEntity
  8
0
100
AcDbLine
 10
-187.3286946339831
 20
35.54863105843416
 30
0.0
 11
-186.6135608322926
 21
34.6166505430947
 31
0.0
  0
LINE
  5
1E7
330
1F
100
AcDbEntity
  8
0
100
AcDbLine
 10
-187.7782465352539
 20
36.63394535547279
 30
0.0
 11
-187.3286946339831
 21
35.54863105843416
 31
0.0
  0
LINE
  5
1E8
330
1F
100
AcDbEntity
  8
0
100
AcDbLine
 10
-187.7782465352539
 20
38.9633167613955
 30
0.0
 11
-187.9315803169531
 21
37.79863105843415
 31
0.0
  0
LINE
  5
1E9
330
1F
100
AcDbEntity
  8
0
100
AcDbLine
 10
-187.3286946339831
 20
40.04863105843413
 30
0.0
 11
-187.7782465352539
 21
38.9633167613955
 31
0.0
  0
LINE
  5
1EA
330
1F
100
AcDbEntity
  8
0
100
AcDbLine
 10
-183.9349926765309
 20
44.47138955724667
 30
0.0
 11
-182.7708279954635
 21
43.10665809597818
 31
0.0
  0
LINE
  5
1EB
330
1F
100
AcDbEntity
  8
0
100
AcDbLine
 10
-181.3260254068321
 20
41.05366717505542
 30
0.0
 11
-180.0781459336833
 21
38.87535979040999
 31
0.0
  0
LINE
  5
1EC
330
1F
100
AcDbEntity
  8
0
100
AcDbLine
 10
-181.8057555785048
 20
36.80788448605144
 30
0.0
 11
-181.6559049447478
 21
37.16965591839769
 31
0.0
  0
LINE
  5
1ED
330
1F
100
AcDbEntity
  8
0
100
AcDbLine
 10
-184.1654538559612
 20
38.61854465783129
 30
0.0
 11
-184.4038317898581
 21
38.30788448605146
 31
0.0
  0
LINE
  5
1EE
330
1F
100
AcDbEntity
  8
0
100
AcDbLine
 10
-184.4038317898581
 20
38.30788448605146
 30
0.0
 11
-184.553682423615
 21
37.9461130537052
 31
0.0
  0
LINE
  5
1EF
330
1F
100
AcDbEntity
  8
0
100
AcDbLine
 10
-153.1174540351901
 20
38.96816314515848
 30
0.0
 11
-150.636288819775
 21
39.75383135633459
 31
0.0
  0
LINE
  5
1F0
330
1F
100
AcDbEntity
  8
0
100
AcDbLine
 10
-164.2460920473881
 20
10.63095546500652
 30
0.0
 11
-163.6786192469789
 21
12.5439280444644
 31
0.0
  0
LINE
  5
1F1
330
1F
100
AcDbEntity
  8
0
100
AcDbLine
 10
-165.792854014182
 20
8.557884486051588
 30
0.0
 11
-165.3302404315349
 21
8.955810172766911
 31
0.0
  0
LINE
  5
1F2
330
1F
100
AcDbEntity
  8
0
100
AcDbLine
 10
-159.1738033379759
 20
8.557884486051634
 30
0.0
 11
-165.792854014182
 21
8.557884486051588
 31
0.0
  0
LINE
  5
1F3
330
1F
100
AcDbEntity
  8
0
100
AcDbLine
 10
-159.1047936841814
 20
-7.442115513948789
 30
0.0
 11
-151.4777004137112
 21
-6.48872885514005
 31
0.0
  0
LINE
  5
1F4
330
1F
100
AcDbEntity
  8
0
100
AcDbLine
 10
-159.1047936841814
 20
-7.442115513948789
 30
0.0
 11
-159.1047936841818
 21
8.005807255697828
 31
0.0
  0
LINE
  5
1F5
330
1F
100
AcDbEntity
  8
0
100
AcDbLine
 10
-163.6786192469789
 20
12.5439280444644
 30
0.0
 11
-163.6739319686494
 21
14.53928954012965
 31
0.0
  0
LINE
  5
1F6
330
1F
100
AcDbEntity
  8
0
100
AcDbLine
 10
-159.1738033379759
 20
8.557884486051634
 30
0.0
 11
-159.1047936841818
 21
8.005807255697828
 31
0.0
  0
LINE
  5
1F7
330
1F
100
AcDbEntity
  8
0
100
AcDbLine
 10
-166.023872466051
 20
28.83600016367228
 30
0.0
 11
-165.4349701808192
 21
29.71720631536272
 31
0.0
  0
LINE
  5
1F8
330
1F
100
AcDbEntity
  8
0
100
AcDbLine
 10
-173.6047936841814
 20
-7.442115513948472
 30
0.0
 11
-173.6047936841815
 21
-4.995398261275525
 31
0.0
  0
LINE
  5
1F9
330
1F
100
AcDbEntity
  8
0
100
AcDbLine
 10
-170.1135309761898
 20
-4.55899042277658
 30
0.0
 11
-173.6047936841815
 21
-4.995398261275525
 31
0.0
  0
LINE
  5
1FA
330
1F
100
AcDbEntity
  8
0
100
AcDbLine
 10
-170.1135309761898
 20
-4.55899042277658
 30
0.0
 11
-171.7531403397933
 21
8.557884486051497
 31
0.0
  0
LINE
  5
1FB
330
1F
100
AcDbEntity
  8
0
100
AcDbLine
 10
-150.636288819775
 20
39.75383135633459
 30
0.0
 11
-149.056207534585
 21
40.0910009346368
 31
0.0
  0
LINE
  5
1FC
330
1F
100
AcDbEntity
  8
0
100
AcDbLine
 10
-159.9499658667208
 20
35.23977818273789
 30
0.0
 11
-157.7960278886802
 21
36.70060211155177
 31
0.0
  0
LINE
  5
1FD
330
1F
100
AcDbEntity
  8
0
100
AcDbLine
 10
-165.3302404315349
 20
8.955810172766911
 30
0.0
 11
-164.2460920473881
 21
10.63095546500652
 31
0.0
  0
LINE
  5
1FE
330
1F
100
AcDbEntity
  8
0
100
AcDbLine
 10
-163.6739319686494
 20
14.53928954012965
 30
0.0
 11
-164.2324110766719
 21
16.45490707890506
 31
0.0
  0
LINE
  5
1FF
330
1F
100
AcDbEntity
  8
0
100
AcDbLine
 10
-164.2324110766719
 20
16.45490707890506
 30
0.0
 11
-164.7112096018957
 21
17.20238655612689
 31
0.0
  0
LINE
  5
200
330
1F
100
AcDbEntity
  8
0
100
AcDbLine
 10
-163.7872640139693
 20
31.73178313245475
 30
0.0
 11
-161.9532490329048
 21
33.57835953582097
 31
0.0
  0
LINE
  5
201
330
1F
100
AcDbEntity
  8
0
100
AcDbLine
 10
-161.9532490329048
 20
33.57835953582097
 30
0.0
 11
-159.9499658667208
 21
35.23977818273789
 31
0.0
  0
LINE
  5
202
330
1F
100
AcDbEntity
  8
0
100
AcDbLine
 10
-157.7960278886802
 20
36.70060211155177
 30
0.0
 11
-155.5114482712821
 21
37.94725817318497
 31
0.0
  0
LINE
  5
203
330
1F
100
AcDbEntity
  8
0
100
AcDbLine
 10
-232.1047936841814
 20
33.24430450142965
 30
0.0
 11
-232.1047936841814
 21
13.87146447067324
 31
0.0
  0
LINE
  5
204
330
1F
100
AcDbEntity
  8
0
100
AcDbLine
 10
-217.4930222518352
 20
-1.493226774514946
 30
0.0
 11
-217.8547936841814
 21
-1.643077408271876
 31
0.0
  0
LINE
  5
205
330
1F
100
AcDbEntity
  8
0
100
AcDbLine
 10
-216.0441335124016
 20
-1.881455342168702
 30
0.0
 11
-216.3547936841814
 21
-1.643077408271876
 31
0.0
  0
LINE
  5
206
330
1F
100
AcDbEntity
  8
0
100
AcDbLine
 10
-232.1047936841814
 20
13.87146447067324
 30
0.0
 11
-231.3283807768026
 21
15.83245962667783
 31
0.0
  0
LINE
  5
207
330
1F
100
AcDbEntity
  8
0
100
AcDbLine
 10
-231.3283807768026
 20
31.2833093454252
 30
0.0
 11
-232.1047936841814
 21
33.24430450142965
 31
0.0
  0
LINE
  5
208
330
1F
100
AcDbEntity
  8
0
100
AcDbLine
 10
-230.5476124159642
 20
28.24241735069464
 30
0.0
 11
-231.3283807768026
 21
31.2833093454252
 31
0.0
  0
LINE
  5
209
330
1F
100
AcDbEntity
  8
0
100
AcDbLine
 10
-230.1541254734746
 20
25.12764747428437
 30
0.0
 11
-230.5476124159642
 21
28.24241735069464
 31
0.0
  0
LINE
  5
20A
330
1F
100
AcDbEntity
  8
0
100
AcDbLine
 10
-230.1541254734746
 20
21.98812149781871
 30
0.0
 11
-230.1541254734746
 21
25.12764747428437
 31
0.0
  0
LINE
  5
20B
330
1F
100
AcDbEntity
  8
0
100
AcDbLine
 10
-230.5476124159642
 20
18.8733516214084
 30
0.0
 11
-230.1541254734746
 21
21.98812149781871
 31
0.0
  0
LINE
  5
20C
330
1F
100
AcDbEntity
  8
0
100
AcDbLine
 10
-231.3283807768026
 20
15.83245962667783
 30
0.0
 11
-230.5476124159642
 21
18.8733516214084
 31
0.0
  0
LINE
  5
20D
330
1F
100
AcDbEntity
  8
0
100
AcDbLine
 10
-215.6047936841814
 20
-2.942115513948548
 30
0.0
 11
-215.6559049447478
 21
-2.553886946294747
 31
0.0
  0
LINE
  5
20E
330
1F
100
AcDbEntity
  8
0
100
AcDbLine
 10
-216.0441335124016
 20
-4.00277568572835
 30
0.0
 11
-215.8057555785048
 21
-3.692115513948513
 31
0.0
  0
LINE
  5
20F
330
1F
100
AcDbEntity
  8
0
100
AcDbLine
 10
-173.6047936841815
 20
-4.995398261275525
 30
0.0
 11
-173.6047936841818
 21
8.557884486051544
 31
0.0
  0
LINE
  5
210
330
1F
100
AcDbEntity
  8
0
100
AcDbLine
 10
-173.6047936841815
 20
-4.995398261275525
 30
0.0
 11
-175.1047936841815
 21
-5.182898261275528
 31
0.0
  0
LINE
  5
211
330
1F
100
AcDbEntity
  8
0
100
AcDbLine
 10
-175.1047936841817
 20
8.557884486051497
 30
0.0
 11
-175.1047936841815
 21
-5.182898261275528
 31
0.0
  0
LINE
  5
212
330
1F
100
AcDbEntity
  8
0
100
AcDbLine
 10
-173.6047936841818
 20
8.557884486051544
 30
0.0
 11
-175.1047936841817
 21
8.557884486051497
 31
0.0
  0
LINE
  5
213
330
1F
100
AcDbEntity
  8
0
100
AcDbLine
 10
-216.7165651165276
 20
-1.493226774514946
 30
0.0
 11
-217.1047936841814
 21
-1.442115513948529
 31
0.0
  0
LINE
  5
214
330
1F
100
AcDbEntity
  8
0
100
AcDbLine
 10
-218.553682423615
 20
-2.553886946294747
 30
0.0
 11
-218.6047936841814
 21
-2.942115513948548
 31
0.0
  0
LINE
  5
215
330
1F
100
AcDbEntity
  8
0
100
AcDbLine
 10
-217.4930222518352
 20
-4.391004253382151
 30
0.0
 11
-217.1047936841814
 21
-4.442115513948523
 31
0.0
  0
LINE
  5
216
330
1F
100
AcDbEntity
  8
0
100
AcDbLine
 10
-217.8547936841814
 20
-4.241153619625177
 30
0.0
 11
-217.4930222518352
 21
-4.391004253382151
 31
0.0
  0
LINE
  5
217
330
1F
100
AcDbEntity
  8
0
100
AcDbLine
 10
-218.4038317898581
 20
-3.692115513948513
 30
0.0
 11
-218.1654538559613
 21
-4.00277568572835
 31
0.0
  0
LINE
  5
218
330
1F
100
AcDbEntity
  8
0
100
AcDbLine
 10
-216.3547936841815
 20
-4.241153619625177
 30
0.0
 11
-216.0441335124016
 21
-4.00277568572835
 31
0.0
  0
LINE
  5
219
330
1F
100
AcDbEntity
  8
0
100
AcDbLine
 10
-215.6559049447478
 20
-2.553886946294747
 30
0.0
 11
-215.8057555785048
 21
-2.192115513948539
 31
0.0
  0
LINE
  5
21A
330
1F
100
AcDbEntity
  8
0
100
AcDbLine
 10
-215.8057555785048
 20
-2.192115513948539
 30
0.0
 11
-216.0441335124016
 21
-1.881455342168702
 31
0.0
  0
LINE
  5
21B
330
1F
100
AcDbEntity
  8
0
100
AcDbLine
 10
-218.553682423615
 20
-3.330344081602305
 30
0.0
 11
-218.4038317898581
 21
-3.692115513948513
 31
0.0
  0
LINE
  5
21C
330
1F
100
AcDbEntity
  8
0
100
AcDbLine
 10
-217.1047936841814
 20
-4.442115513948523
 30
0.0
 11
-216.7165651165276
 21
-4.391004253382151
 31
0.0
  0
LINE
  5
21D
330
1F
100
AcDbEntity
  8
0
100
AcDbLine
 10
-216.7165651165276
 20
-4.391004253382151
 30
0.0
 11
-216.3547936841815
 21
-4.241153619625177
 31
0.0
  0
LINE
  5
21E
330
1F
100
AcDbEntity
  8
0
100
AcDbLine
 10
-218.1654538559613
 20
-4.00277568572835
 30
0.0
 11
-217.8547936841814
 21
-4.241153619625177
 31
0.0
  0
LINE
  5
21F
330
1F
100
AcDbEntity
  8
0
100
AcDbLine
 10
-216.3547936841814
 20
-1.643077408271876
 30
0.0
 11
-216.7165651165276
 21
-1.493226774514946
 31
0.0
  0
LINE
  5
220
330
1F
100
AcDbEntity
  8
0
100
AcDbLine
 10
-218.6047936841814
 20
-2.942115513948548
 30
0.0
 11
-218.553682423615
 21
-3.330344081602305
 31
0.0
  0
LINE
  5
221
330
1F
100
AcDbEntity
  8
0
100
AcDbLine
 10
-215.6047936841814
 20
-3.11198849502635
 30
0.0
 11
-215.6047936841814
 21
-2.942115513948548
 31
0.0
  0
LINE
  5
222
330
1F
100
AcDbEntity
  8
0
100
AcDbLine
 10
-217.1047936841814
 20
-1.442115513948529
 30
0.0
 11
-217.4930222518352
 21
-1.493226774514946
 31
0.0
  0
LINE
  5
223
330
1F
100
AcDbEntity
  8
0
100
AcDbLine
 10
-215.6559049447478
 20
-3.330344081602305
 30
0.0
 11
-215.6047936841814
 21
-3.11198849502635
 31
0.0
  0
LINE
  5
224
330
1F
100
AcDbEntity
  8
0
100
AcDbLine
 10
-217.8547936841814
 20
-1.643077408271876
 30
0.0
 11
-218.1654538559613
 21
-1.881455342168702
 31
0.0
  0
LINE
  5
225
330
1F
100
AcDbEntity
  8
0
100
AcDbLine
 10
-218.1654538559613
 20
-1.881455342168702
 30
0.0
 11
-218.4038317898581
 21
-2.192115513948539
 31
0.0
  0
LINE
  5
226
330
1F
100
AcDbEntity
  8
0
100
AcDbLine
 10
-211.3817167611045
 20
-7.442115513948563
 30
0.0
 11
-212.0047936841814
 21
-2.942115513948548
 31
0.0
  0
LINE
  5
227
330
1F
100
AcDbEntity
  8
0
100
AcDbLine
 10
-222.8278706072583
 20
-7.442115513948563
 30
0.0
 11
-211.3817167611045
 21
-7.442115513948563
 31
0.0
  0
LINE
  5
228
330
1F
100
AcDbEntity
  8
0
100
AcDbLine
 10
-222.8278706072583
 20
-7.442115513948563
 30
0.0
 11
-222.2047936841814
 21
-2.942115513948548
 31
0.0
  0
LINE
  5
229
330
1F
100
AcDbEntity
  8
0
100
AcDbLine
 10
-222.0310153982557
 20
-1.62213838392567
 30
0.0
 11
-222.2047936841814
 21
-2.942115513948548
 31
0.0
  0
LINE
  5
22A
330
1F
100
AcDbEntity
  8
0
100
AcDbLine
 10
-221.5215232434821
 20
-0.3921155139485419
 30
0.0
 11
-222.0310153982557
 21
-1.62213838392567
 31
0.0
  0
LINE
  5
22B
330
1F
100
AcDbEntity
  8
0
100
AcDbLine
 10
-220.7110382682328
 20
0.6641290701028664
 30
0.0
 11
-221.5215232434821
 21
-0.3921155139485419
 31
0.0
  0
LINE
  5
22C
330
1F
100
AcDbEntity
  8
0
100
AcDbLine
 10
-219.6547936841814
 20
1.474614045352121
 30
0.0
 11
-220.7110382682328
 21
0.6641290701028664
 31
0.0
  0
LINE
  5
22D
330
1F
100
AcDbEntity
  8
0
100
AcDbLine
 10
-218.4247708142043
 20
1.9841062001257
 30
0.0
 11
-219.6547936841814
 21
1.474614045352121
 31
0.0
  0
LINE
  5
22E
330
1F
100
AcDbEntity
  8
0
100
AcDbLine
 10
-217.1047936841814
 20
2.157884486051465
 30
0.0
 11
-218.4247708142043
 21
1.9841062001257
 31
0.0
  0
LINE
  5
22F
330
1F
100
AcDbEntity
  8
0
100
AcDbLine
 10
-215.7848165541585
 20
1.9841062001257
 30
0.0
 11
-217.1047936841814
 21
2.157884486051465
 31
0.0
  0
LINE
  5
230
330
1F
100
AcDbEntity
  8
0
100
AcDbLine
 10
-214.5547936841814
 20
1.474614045352121
 30
0.0
 11
-215.7848165541585
 21
1.9841062001257
 31
0.0
  0
LINE
  5
231
330
1F
100
AcDbEntity
  8
0
100
AcDbLine
 10
-213.49854910013
 20
0.6641290701028664
 30
0.0
 11
-214.5547936841814
 21
1.474614045352121
 31
0.0
  0
LINE
  5
232
330
1F
100
AcDbEntity
  8
0
100
AcDbLine
 10
-212.6880641248808
 20
-0.3921155139485419
 30
0.0
 11
-213.49854910013
 21
0.6641290701028664
 31
0.0
  0
LINE
  5
233
330
1F
100
AcDbEntity
  8
0
100
AcDbLine
 10
-212.1785719701072
 20
-1.62213838392567
 30
0.0
 11
-212.6880641248808
 21
-0.3921155139485419
 31
0.0
  0
LINE
  5
234
330
1F
100
AcDbEntity
  8
0
100
AcDbLine
 10
-212.0047936841814
 20
-2.942115513948548
 30
0.0
 11
-212.1785719701072
 21
-1.62213838392567
 31
0.0
  0
LINE
  5
235
330
1F
100
AcDbEntity
  8
0
100
AcDbLine
 10
-215.8057555785048
 20
-3.692115513948513
 30
0.0
 11
-215.6559049447478
 21
-3.330344081602305
 31
0.0
  0
LINE
  5
236
330
1F
100
AcDbEntity
  8
0
100
AcDbLine
 10
-207.5566365300838
 20
-0.8479667885528125
 30
0.0
 11
-206.397384144277
 21
-1.659909077214281
 31
0.0
  0
LINE
  5
237
330
1F
100
AcDbEntity
  8
0
100
AcDbLine
 10
-206.397384144277
 20
-1.659909077214281
 30
0.0
 11
-205.1505984877326
 21
-2.32971643814026
 31
0.0
  0
LINE
  5
238
330
1F
100
AcDbEntity
  8
0
100
AcDbLine
 10
-209.5494801802486
 20
1.155324321418755
 30
0.0
 11
-208.6122298296268
 21
0.0948158799743151
 31
0.0
  0
LINE
  5
239
330
1F
100
AcDbEntity
  8
0
100
AcDbLine
 10
-211.9490117297033
 20
10.48518801433511
 30
0.0
 11
-212.093548244066
 21
9.077272686578722
 31
0.0
  0
LINE
  5
23A
330
1F
100
AcDbEntity
  8
0
100
AcDbLine
 10
-210.5462879759311
 20
14.47186765776903
 30
0.0
 11
-211.1699631058628
 21
13.20137731682963
 31
0.0
  0
LINE
  5
23B
330
1F
100
AcDbEntity
  8
0
100
AcDbLine
 10
-208.6122298296268
 20
0.0948158799743151
 30
0.0
 11
-207.5566365300838
 21
-0.8479667885528125
 31
0.0
  0
LINE
  5
23C
330
1F
100
AcDbEntity
  8
0
100
AcDbLine
 10
-212.0713148239554
 20
7.662132393482079
 30
0.0
 11
-211.8826207480373
 21
6.259452487078264
 31
0.0
  0
LINE
  5
23D
330
1F
100
AcDbEntity
  8
0
100
AcDbLine
 10
-208.8738936563244
 20
16.74951959014164
 30
0.0
 11
-209.7773661224853
 21
15.66009135615625
 31
0.0
  0
LINE
  5
23E
330
1F
100
AcDbEntity
  8
0
100
AcDbLine
 10
-211.8826207480373
 20
6.259452487078264
 30
0.0
 11
-211.5300908509865
 21
4.888744988812934
 31
0.0
  0
LINE
  5
23F
330
1F
100
AcDbEntity
  8
0
100
AcDbLine
 10
-203.8126325241929
 20
-2.783864598973909
 30
0.0
 11
-203.2106222254117
 21
-3.033225429417367
 31
0.0
  0
LINE
  5
240
330
1F
100
AcDbEntity
  8
0
100
AcDbLine
 10
-205.1505984877326
 20
-2.32971643814026
 30
0.0
 11
-203.8126325241929
 21
-2.783864598973909
 31
0.0
  0
LINE
  5
241
330
1F
100
AcDbEntity
  8
0
100
AcDbLine
 10
-211.0186290106443
 20
3.56907716697698
 30
0.0
 11
-210.3553499324769
 21
2.318806300892063
 31
0.0
  0
LINE
  5
242
330
1F
100
AcDbEntity
  8
0
100
AcDbLine
 10
-211.5300908509865
 20
4.888744988812934
 30
0.0
 11
-211.0186290106443
 21
3.56907716697698
 31
0.0
  0
LINE
  5
243
330
1F
100
AcDbEntity
  8
0
100
AcDbLine
 10
-212.093548244066
 20
9.077272686578722
 30
0.0
 11
-212.0713148239554
 21
7.662132393482079
 31
0.0
  0
LINE
  5
244
330
1F
100
AcDbEntity
  8
0
100
AcDbLine
 10
-211.6397158604407
 20
11.86629352781789
 30
0.0
 11
-211.9490117297033
 21
10.48518801433511
 31
0.0
  0
LINE
  5
245
330
1F
100
AcDbEntity
  8
0
100
AcDbLine
 10
-211.1699631058628
 20
13.20137731682963
 30
0.0
 11
-211.6397158604407
 21
11.86629352781789
 31
0.0
  0
LINE
  5
246
330
1F
100
AcDbEntity
  8
0
100
AcDbLine
 10
-209.7773661224853
 20
15.66009135615625
 30
0.0
 11
-210.5462879759311
 21
14.47186765776903
 31
0.0
  0
LINE
  5
247
330
1F
100
AcDbEntity
  8
0
100
AcDbLine
 10
-207.8484383586325
 20
17.72499783518407
 30
0.0
 11
-208.8738936563244
 21
16.74951959014164
 31
0.0
  0
LINE
  5
248
330
1F
100
AcDbEntity
  8
0
100
AcDbLine
 10
-206.7152648564772
 20
18.57295667152501
 30
0.0
 11
-207.8484383586325
 21
17.72499783518407
 31
0.0
  0
LINE
  5
249
330
1F
100
AcDbEntity
  8
0
100
AcDbLine
 10
-205.4901361942814
 20
19.28160054201407
 30
0.0
 11
-206.7152648564772
 21
18.57295667152501
 31
0.0
  0
LINE
  5
24A
330
1F
100
AcDbEntity
  8
0
100
AcDbLine
 10
-204.1900945615147
 20
19.84107183456515
 30
0.0
 11
-205.4901361942814
 21
19.28160054201407
 31
0.0
  0
LINE
  5
24B
330
1F
100
AcDbEntity
  8
0
100
AcDbLine
 10
-202.8332242267996
 20
20.24358800676893
 30
0.0
 11
-204.1900945615147
 21
19.84107183456515
 31
0.0
  0
LINE
  5
24C
330
1F
100
AcDbEntity
  8
0
100
AcDbLine
 10
-201.4383999761431
 20
20.48354984518508
 30
0.0
 11
-202.8332242267996
 21
20.24358800676893
 31
0.0
  0
LINE
  5
24D
330
1F
100
AcDbEntity
  8
0
100
AcDbLine
 10
-200.0250245546529
 20
20.55761935337138
 30
0.0
 11
-201.4383999761431
 21
20.48354984518508
 31
0.0
  0
LINE
  5
24E
330
1F
100
AcDbEntity
  8
0
100
AcDbLine
 10
-198.6127587640621
 20
20.46476618518428
 30
0.0
 11
-200.0250245546529
 21
20.55761935337138
 31
0.0
  0
LINE
  5
24F
330
1F
100
AcDbEntity
  8
0
100
AcDbLine
 10
-197.2212479705494
 20
20.20628197744031
 30
0.0
 11
-198.6127587640621
 21
20.46476618518428
 31
0.0
  0
LINE
  5
250
330
1F
100
AcDbEntity
  8
0
100
AcDbLine
 10
-195.8698488272761
 20
19.78576238256295
 30
0.0
 11
-197.2212479705494
 21
20.20628197744031
 31
0.0
  0
LINE
  5
251
330
1F
100
AcDbEntity
  8
0
100
AcDbLine
 10
-194.5773600130747
 20
19.20905705115034
 30
0.0
 11
-195.8698488272761
 21
19.78576238256295
 31
0.0
  0
LINE
  5
252
330
1F
100
AcDbEntity
  8
0
100
AcDbLine
 10
-193.3617607328555
 20
18.48418826023305
 30
0.0
 11
-194.5773600130747
 21
19.20905705115034
 31
0.0
  0
LINE
  5
253
330
1F
100
AcDbEntity
  8
0
100
AcDbLine
 10
-192.2399606173307
 20
17.62123931914559
 30
0.0
 11
-193.3617607328555
 21
18.48418826023305
 31
0.0
  0
LINE
  5
254
330
1F
100
AcDbEntity
  8
0
100
AcDbLine
 10
-191.2275645010829
 20
16.63221430534563
 30
0.0
 11
-192.2399606173307
 21
17.62123931914559
 31
0.0
  0
LINE
  5
255
330
1F
100
AcDbEntity
  8
0
100
AcDbLine
 10
-190.3386553510396
 20
15.53087108133021
 30
0.0
 11
-191.2275645010829
 21
16.63221430534563
 31
0.0
  0
LINE
  5
256
330
1F
100
AcDbEntity
  8
0
100
AcDbLine
 10
-189.5855983649337
 20
14.33252991547105
 30
0.0
 11
-190.3386553510396
 21
15.53087108133021
 31
0.0
  0
LINE
  5
257
330
1F
100
AcDbEntity
  8
0
100
AcDbLine
 10
-188.9788689648452
 20
13.05386036895652
 30
0.0
 11
-189.5855983649337
 21
14.33252991547105
 31
0.0
  0
LINE
  5
258
330
1F
100
AcDbEntity
  8
0
100
AcDbLine
 10
-188.526907078524
 20
11.71264941335392
 30
0.0
 11
-188.9788689648452
 21
13.05386036895652
 31
0.0
  0
LINE
  5
259
330
1F
100
AcDbEntity
  8
0
100
AcDbLine
 10
-188.2359997355183
 20
10.32755400440156
 30
0.0
 11
-188.526907078524
 21
11.71264941335392
 31
0.0
  0
LINE
  5
25A
330
1F
100
AcDbEntity
  8
0
100
AcDbLine
 10
-188.1101936112596
 20
8.917841553859072
 30
0.0
 11
-188.2359997355183
 21
10.32755400440156
 31
0.0
  0
LINE
  5
25B
330
1F
100
AcDbEntity
  8
0
100
AcDbLine
 10
-188.151238735661
 20
7.503121909590872
 30
0.0
 11
-188.1101936112596
 21
8.917841553859072
 31
0.0
  0
LINE
  5
25C
330
1F
100
AcDbEntity
  8
0
100
AcDbLine
 10
-188.3585641492725
 20
6.10307457218178
 30
0.0
 11
-188.151238735661
 21
7.503121909590872
 31
0.0
  0
LINE
  5
25D
330
1F
100
AcDbEntity
  8
0
100
AcDbLine
 10
-188.7292858456305
 20
4.737174942646415
 30
0.0
 11
-188.3585641492725
 21
6.10307457218178
 31
0.0
  0
LINE
  5
25E
330
1F
100
AcDbEntity
  8
0
100
AcDbLine
 10
-189.2582468893169
 20
3.424423409271676
 30
0.0
 11
-188.7292858456305
 21
4.737174942646415
 31
0.0
  0
LINE
  5
25F
330
1F
100
AcDbEntity
  8
0
100
AcDbLine
 10
-189.9380891516657
 20
2.183081042138489
 30
0.0
 11
-189.2582468893169
 21
3.424423409271676
 31
0.0
  0
LINE
  5
260
330
1F
100
AcDbEntity
  8
0
100
AcDbLine
 10
-191.71062218023
 20
-0.0175388132527849
 30
0.0
 11
-190.759355666236
 21
1.030415571951583
 31
0.0
  0
LINE
  5
261
330
1F
100
AcDbEntity
  8
0
100
AcDbLine
 10
-192.7786560719095
 20
-0.9462045121668643
 30
0.0
 11
-191.71062218023
 21
-0.0175388132527849
 31
0.0
  0
LINE
  5
262
330
1F
100
AcDbEntity
  8
0
100
AcDbLine
 10
-193.9486004233817
 20
-1.742663292376874
 30
0.0
 11
-192.7786560719095
 21
-0.9462045121668643
 31
0.0
  0
LINE
  5
263
330
1F
100
AcDbEntity
  8
0
100
AcDbLine
 10
-195.2041806882077
 20
-2.395835989827636
 30
0.0
 11
-193.9486004233817
 21
-1.742663292376874
 31
0.0
  0
LINE
  5
264
330
1F
100
AcDbEntity
  8
0
100
AcDbLine
 10
-196.5279310789741
 20
-2.896636625870675
 30
0.0
 11
-195.2041806882077
 21
-2.395835989827636
 31
0.0
  0
LINE
  5
265
330
1F
100
AcDbEntity
  8
0
100
AcDbLine
 10
-197.9014375256604
 20
-3.238098798046059
 30
0.0
 11
-196.5279310789741
 21
-2.896636625870675
 31
0.0
  0
LINE
  5
266
330
1F
100
AcDbEntity
  8
0
100
AcDbLine
 10
-199.3107927927573
 20
-3.337583313505967
 30
0.0
 11
-197.9014375256604
 21
-3.238098798046059
 31
0.0
  0
LINE
  5
267
330
1F
100
AcDbEntity
  8
0
100
AcDbLine
 10
-200.1047936841815
 20
-3.44211551394857
 30
0.0
 11
-199.3107927927573
 21
-3.337583313505967
 31
0.0
  0
LINE
  5
268
330
1F
100
AcDbEntity
  8
0
100
AcDbLine
 10
-203.2106222254117
 20
-3.033225429417367
 30
0.0
 11
-200.1047936841815
 21
-3.44211551394857
 31
0.0
  0
LINE
  5
269
330
1F
100
AcDbEntity
  8
0
100
AcDbLine
 10
-173.8345730138661
 20
25.20934587863344
 30
0.0
 11
-175.1047936841815
 21
25.05080113836531
 31
0.0
  0
LINE
  5
26A
330
1F
100
AcDbEntity
  8
0
100
AcDbLine
 10
-167.8155226355925
 20
40.36874684500729
 30
0.0
 11
-167.844126303027
 21
40.05788448605114
 31
0.0
  0
LINE
  5
26B
330
1F
100
AcDbEntity
  8
0
100
AcDbLine
 10
-159.1047936841814
 20
37.55788448605122
 30
0.0
 11
-159.1047936841818
 21
53.00580725569783
 31
0.0
  0
LINE
  5
26C
330
1F
100
AcDbEntity
  8
0
100
AcDbLine
 10
-166.6832818335934
 20
41.30541789658667
 30
0.0
 11
-166.9910649271504
 21
41.24670513142025
 31
0.0
  0
LINE
  5
26D
330
1F
100
AcDbEntity
  8
0
100
AcDbLine
 10
-173.6047936841814
 20
37.55788448605153
 30
0.0
 11
-159.1047936841814
 21
37.55788448605122
 31
0.0
  0
LINE
  5
26E
330
1F
100
AcDbEntity
  8
0
100
AcDbLine
 10
-173.6047936841814
 20
37.55788448605153
 30
0.0
 11
-173.6047936841818
 21
53.55788448605155
 31
0.0
  0
LINE
  5
26F
330
1F
100
AcDbEntity
  8
0
100
AcDbLine
 10
-159.1738033379759
 20
53.55788448605163
 30
0.0
 11
-159.1047936841818
 21
53.00580725569783
 31
0.0
  0
LINE
  5
270
330
1F
100
AcDbEntity
  8
0
100
AcDbLine
 10
-167.844126303027
 20
40.05788448605114
 30
0.0
 11
-167.8155226355927
 21
39.74702212709504
 31
0.0
  0
LINE
  5
271
330
1F
100
AcDbEntity
  8
0
100
AcDbLine
 10
-167.8155226355927
 20
39.74702212709504
 30
0.0
 11
-167.7001770342366
 21
39.45569239342412
 31
0.0
  0
LINE
  5
272
330
1F
100
AcDbEntity
  8
0
100
AcDbLine
 10
-167.7001770342366
 20
39.45569239342412
 30
0.0
 11
-167.5160044684586
 21
39.20220060364029
 31
0.0
  0
LINE
  5
273
330
1F
100
AcDbEntity
  8
0
100
AcDbLine
 10
-167.5160044684586
 20
39.20220060364029
 30
0.0
 11
-167.2745771779055
 21
39.00247457917367
 31
0.0
  0
LINE
  5
274
330
1F
100
AcDbEntity
  8
0
100
AcDbLine
 10
-167.2745771779055
 20
39.00247457917367
 30
0.0
 11
-166.9910649271504
 21
38.86906384068209
 31
0.0
  0
LINE
  5
275
330
1F
100
AcDbEntity
  8
0
100
AcDbLine
 10
-166.9910649271504
 20
38.86906384068209
 30
0.0
 11
-166.6832818335933
 21
38.8103510755159
 31
0.0
  0
LINE
  5
276
330
1F
100
AcDbEntity
  8
0
100
AcDbLine
 10
-166.6832818335933
 20
38.8103510755159
 30
0.0
 11
-166.3705670409497
 21
38.83002542264044
 31
0.0
  0
LINE
  5
277
330
1F
100
AcDbEntity
  8
0
100
AcDbLine
 10
-166.3705670409497
 20
38.83002542264044
 30
0.0
 11
-166.0725695697254
 21
38.92685067046911
 31
0.0
  0
LINE
  5
278
330
1F
100
AcDbEntity
  8
0
100
AcDbLine
 10
-166.0725695697254
 20
38.92685067046911
 30
0.0
 11
-165.8080136969958
 21
39.09474293258167
 31
0.0
  0
LINE
  5
279
330
1F
100
AcDbEntity
  8
0
100
AcDbLine
 10
-165.8080136969958
 20
39.09474293258167
 30
0.0
 11
-165.5935224412131
 21
39.323152920686
 31
0.0
  0
LINE
  5
27A
330
1F
100
AcDbEntity
  8
0
100
AcDbLine
 10
-165.5935224412131
 20
39.323152920686
 30
0.0
 11
-165.4425730768216
 21
39.59772879519567
 31
0.0
  0
LINE
  5
27B
330
1F
100
AcDbEntity
  8
0
100
AcDbLine
 10
-165.4425730768216
 20
39.59772879519567
 30
0.0
 11
-165.3646503075389
 21
39.90121794409617
 31
0.0
  0
LINE
  5
27C
330
1F
100
AcDbEntity
  8
0
100
AcDbLine
 10
-165.3646503075389
 20
39.90121794409617
 30
0.0
 11
-165.3646503075388
 21
40.21455102800684
 31
0.0
  0
LINE
  5
27D
330
1F
100
AcDbEntity
  8
0
100
AcDbLine
 10
-165.3646503075388
 20
40.21455102800684
 30
0.0
 11
-165.4425730768215
 21
40.51804017690734
 31
0.0
  0
LINE
  5
27E
330
1F
100
AcDbEntity
  8
0
100
AcDbLine
 10
-165.4425730768215
 20
40.51804017690734
 30
0.0
 11
-165.5935224412132
 21
40.79261605141711
 31
0.0
  0
LINE
  5
27F
330
1F
100
AcDbEntity
  8
0
100
AcDbLine
 10
-165.5935224412132
 20
40.79261605141711
 30
0.0
 11
-165.8080136969961
 21
41.0210260395213
 31
0.0
  0
LINE
  5
280
330
1F
100
AcDbEntity
  8
0
100
AcDbLine
 10
-165.8080136969961
 20
41.0210260395213
 30
0.0
 11
-166.0725695697254
 21
41.18891830163408
 31
0.0
  0
LINE
  5
281
330
1F
100
AcDbEntity
  8
0
100
AcDbLine
 10
-166.0725695697254
 20
41.18891830163408
 30
0.0
 11
-166.3705670409497
 21
41.28574354946249
 31
0.0
  0
LINE
  5
282
330
1F
100
AcDbEntity
  8
0
100
AcDbLine
 10
-166.3705670409497
 20
41.28574354946249
 30
0.0
 11
-166.6832818335934
 21
41.30541789658667
 31
0.0
  0
LINE
  5
283
330
1F
100
AcDbEntity
  8
0
100
AcDbLine
 10
-166.9910649271504
 20
41.24670513142025
 30
0.0
 11
-167.2745771779055
 21
41.11329439292867
 31
0.0
  0
LINE
  5
284
330
1F
100
AcDbEntity
  8
0
100
AcDbLine
 10
-167.2745771779055
 20
41.11329439292867
 30
0.0
 11
-167.5160044684585
 21
40.913568368462
 31
0.0
  0
LINE
  5
285
330
1F
100
AcDbEntity
  8
0
100
AcDbLine
 10
-167.5160044684585
 20
40.913568368462
 30
0.0
 11
-167.7001770342367
 21
40.66007657867822
 31
0.0
  0
LINE
  5
286
330
1F
100
AcDbEntity
  8
0
100
AcDbLine
 10
-167.7001770342367
 20
40.66007657867822
 30
0.0
 11
-167.8155226355925
 21
40.36874684500729
 31
0.0
  0
LINE
  5
287
330
1F
100
AcDbEntity
  8
0
100
AcDbLine
 10
-173.6047936841818
 20
53.55788448605155
 30
0.0
 11
-175.1047936841817
 21
53.5578844860515
 31
0.0
  0
LINE
  5
288
330
1F
100
AcDbEntity
  8
0
100
AcDbLine
 10
-159.1047936841817
 20
53.5578844860515
 30
0.0
 11
-159.1738033379759
 21
53.55788448605163
 31
0.0
  0
LINE
  5
289
330
1F
100
AcDbEntity
  8
0
100
AcDbLine
 10
-159.1047936841818
 20
53.00580725569783
 30
0.0
 11
-159.1047936841817
 21
53.5578844860515
 31
0.0
  0
LINE
  5
28A
330
1F
100
AcDbEntity
  8
0
100
AcDbLine
 10
-175.1047936841815
 20
-5.182898261275528
 30
0.0
 11
-175.1047936841815
 21
-7.442115513948563
 31
0.0
  0
LINE
  5
28B
330
1F
100
AcDbEntity
  8
0
100
AcDbLine
 10
-171.7531403397933
 20
8.557884486051497
 30
0.0
 11
-173.6047936841818
 21
8.557884486051544
 31
0.0
  0
LINE
  5
28C
330
1F
100
AcDbEntity
  8
0
100
AcDbLine
 10
-175.1047936841815
 20
-7.442115513948563
 30
0.0
 11
-173.6047936841814
 21
-7.442115513948472
 31
0.0
  0
LINE
  5
28D
330
1F
100
AcDbEntity
  8
0
100
AcDbLine
 10
-186.1047936841814
 20
-7.442115513948563
 30
0.0
 11
-180.1047936841814
 21
-7.442115513948563
 31
0.0
  0
LINE
  5
28E
330
1F
100
AcDbEntity
  8
0
100
AcDbLine
 10
-185.5641215572863
 20
1.557884486051466
 30
0.0
 11
-186.1047936841814
 21
-2.442115513948527
 31
0.0
  0
LINE
  5
28F
330
1F
100
AcDbEntity
  8
0
100
AcDbLine
 10
-180.1047936841814
 20
-7.442115513948563
 30
0.0
 11
-180.1047936841814
 21
-4.825534522849345
 31
0.0
  0
LINE
  5
290
330
1F
100
AcDbEntity
  8
0
100
AcDbLine
 10
-211.3817167611045
 20
-7.442115513948563
 30
0.0
 11
-186.1047936841814
 21
-7.442115513948563
 31
0.0
  0
LINE
  5
291
330
1F
100
AcDbEntity
  8
0
100
AcDbLine
 10
-232.1047936841814
 20
-7.442115513948563
 30
0.0
 11
-222.8278706072583
 21
-7.442115513948563
 31
0.0
  0
LINE
  5
292
330
1F
100
AcDbEntity
  8
0
100
AcDbLine
 10
-232.1047936841814
 20
13.87146447067324
 30
0.0
 11
-232.1047936841814
 21
-7.442115513948563
 31
0.0
  0
LINE
  5
293
330
1F
100
AcDbEntity
  8
0
100
AcDbLine
 10
-232.1047936841814
 20
53.55788448605146
 30
0.0
 11
-222.9947086697058
 21
53.55788448605146
 31
0.0
  0
LINE
  5
294
330
1F
100
AcDbEntity
  8
0
100
AcDbLine
 10
-212.0246201601516
 20
47.25539091737748
 30
0.0
 11
-210.9165269998991
 21
46.79640370202797
 31
0.0
  0
LINE
  5
295
330
1F
100
AcDbEntity
  8
0
100
AcDbLine
 10
-210.9165269998991
 20
46.79640370202797
 30
0.0
 11
-209.1047936841814
 21
46.55788448605143
 31
0.0
  0
LINE
  5
296
330
1F
100
AcDbEntity
  8
0
100
AcDbLine
 10
-209.1047936841814
 20
46.55788448605143
 30
0.0
 11
-209.0096632061319
 21
46.57040865108336
 31
0.0
  0
LINE
  5
297
330
1F
100
AcDbEntity
  8
0
100
AcDbLine
 10
-201.6466662813933
 20
53.42800488553677
 30
0.0
 11
-199.6180220459649
 21
53.18247613111699
 31
0.0
  0
LINE
  5
298
330
1F
100
AcDbEntity
  8
0
100
AcDbLine
 10
-199.6180220459649
 20
53.18247613111699
 30
0.0
 11
-197.1645741882091
 21
52.65066803529596
 31
0.0
  0
LINE
  5
299
330
1F
100
AcDbEntity
  8
0
100
AcDbLine
 10
-197.1645741882091
 20
52.65066803529596
 30
0.0
 11
-194.7711247302192
 21
51.89328706540353
 31
0.0
  0
LINE
  5
29A
330
1F
100
AcDbEntity
  8
0
100
AcDbLine
 10
-194.7711247302192
 20
51.89328706540353
 30
0.0
 11
-192.4583651122995
 21
50.91688080199295
 31
0.0
  0
LINE
  5
29B
330
1F
100
AcDbEntity
  8
0
100
AcDbLine
 10
-192.4583651122995
 20
50.91688080199295
 30
0.0
 11
-190.2462892087359
 21
49.72989030566178
 31
0.0
  0
LINE
  5
29C
330
1F
100
AcDbEntity
  8
0
100
AcDbLine
 10
-190.2462892087359
 20
49.72989030566178
 30
0.0
 11
-188.1540204801698
 21
48.34257714383723
 31
0.0
  0
LINE
  5
29D
330
1F
100
AcDbEntity
  8
0
100
AcDbLine
 10
-188.1540204801698
 20
48.34257714383723
 30
0.0
 11
-186.199646650724
 21
46.76693467922652
 31
0.0
  0
LINE
  5
29E
330
1F
100
AcDbEntity
  8
0
100
AcDbLine
 10
-186.199646650724
 20
46.76693467922652
 30
0.0
 11
-184.4000633391002
 21
45.01658438684713
 31
0.0
  0
LINE
  5
29F
330
1F
100
AcDbEntity
  8
0
100
AcDbLine
 10
-184.4000633391002
 20
45.01658438684713
 30
0.0
 11
-183.9349926765309
 21
44.47138955724667
 31
0.0
  0
LINE
  5
2A0
330
1F
100
AcDbEntity
  8
0
100
AcDbLine
 10
-183.4315803169531
 20
33.29863105843418
 30
0.0
 11
-184.147153864032
 21
31.77374420298415
 31
0.0
  0
LINE
  5
2A1
330
1F
100
AcDbEntity
  8
0
100
AcDbLine
 10
-184.147153864032
 20
31.77374420298415
 30
0.0
 11
-184.4315596867833
 21
29.81562582092344
 31
0.0
  0
LINE
  5
2A2
330
1F
100
AcDbEntity
  8
0
100
AcDbLine
 10
-184.4315596867833
 20
29.81562582092344
 30
0.0
 11
-184.1566651192941
 21
27.85614955239044
 31
0.0
  0
LINE
  5
2A3
330
1F
100
AcDbEntity
  8
0
100
AcDbLine
 10
-184.1566651192941
 20
27.85614955239044
 30
0.0
 11
-183.344434317564
 21
26.05187812189562
 31
0.0
  0
LINE
  5
2A4
330
1F
100
AcDbEntity
  8
0
100
AcDbLine
 10
-183.344434317564
 20
26.05187812189562
 30
0.0
 11
-182.0597647591955
 21
24.54697334219015
 31
0.0
  0
LINE
  5
2A5
330
1F
100
AcDbEntity
  8
0
100
AcDbLine
 10
-182.0597647591955
 20
24.54697334219015
 30
0.0
 11
-180.4053019160343
 21
23.46167754344308
 31
0.0
  0
LINE
  5
2A6
330
1F
100
AcDbEntity
  8
0
100
AcDbLine
 10
-180.4053019160343
 20
23.46167754344308
 30
0.0
 11
-178.5132378510752
 21
22.882706176043
 31
0.0
  0
LINE
  5
2A7
330
1F
100
AcDbEntity
  8
0
100
AcDbLine
 10
-178.5132378510752
 20
22.882706176043
 30
0.0
 11
-177.1047936841814
 21
22.86392186308952
 31
0.0
  0
LINE
  5
2A8
330
1F
100
AcDbEntity
  8
0
100
AcDbLine
 10
-177.1047936841814
 20
5.6193112705078
 30
0.0
 11
-177.1047936841814
 21
22.86392186308952
 31
0.0
  0
LINE
  5
2A9
330
1F
100
AcDbEntity
  8
0
100
AcDbLine
 10
-226.7812698778033
 20
52.51529176891275
 30
0.0
 11
-227.1047936841814
 21
52.55788448605141
 31
0.0
  0
LINE
  5
2AA
330
1F
100
AcDbEntity
  8
0
100
AcDbLine
 10
-227.1047936841814
 20
52.55788448605141
 30
0.0
 11
-227.4283174905596
 21
52.51529176891275
 31
0.0
  0
LINE
  5
2AB
330
1F
100
AcDbEntity
  8
0
100
AcDbLine
 10
-227.4283174905596
 20
52.51529176891275
 30
0.0
 11
-227.7297936841814
 21
52.39041624078195
 31
0.0
  0
LINE
  5
2AC
330
1F
100
AcDbEntity
  8
0
100
AcDbLine
 10
-227.7297936841814
 20
52.39041624078195
 30
0.0
 11
-227.9886771606646
 21
52.19176796253463
 31
0.0
  0
LINE
  5
2AD
330
1F
100
AcDbEntity
  8
0
100
AcDbLine
 10
-227.9886771606646
 20
52.19176796253463
 30
0.0
 11
-228.187325438912
 21
51.93288448605142
 31
0.0
  0
LINE
  5
2AE
330
1F
100
AcDbEntity
  8
0
100
AcDbLine
 10
-228.187325438912
 20
51.93288448605142
 30
0.0
 11
-228.3122009670428
 21
51.63140829242955
 31
0.0
  0
LINE
  5
2AF
330
1F
100
AcDbEntity
  8
0
100
AcDbLine
 10
-228.3122009670428
 20
51.63140829242955
 30
0.0
 11
-228.3547936841814
 21
51.30788448605143
 31
0.0
  0
LINE
  5
2B0
330
1F
100
AcDbEntity
  8
0
100
AcDbLine
 10
-228.3547936841814
 20
51.30788448605143
 30
0.0
 11
-228.3122009670428
 21
50.9843606796733
 31
0.0
  0
LINE
  5
2B1
330
1F
100
AcDbEntity
  8
0
100
AcDbLine
 10
-228.3122009670428
 20
50.9843606796733
 30
0.0
 11
-228.187325438912
 21
50.68288448605144
 31
0.0
  0
LINE
  5
2B2
330
1F
100
AcDbEntity
  8
0
100
AcDbLine
 10
-228.187325438912
 20
50.68288448605144
 30
0.0
 11
-227.9886771606646
 21
50.42400100956824
 31
0.0
  0
LINE
  5
2B3
330
1F
100
AcDbEntity
  8
0
100
AcDbLine
 10
-227.9886771606646
 20
50.42400100956824
 30
0.0
 11
-227.7297936841814
 21
50.2253527313209
 31
0.0
  0
LINE
  5
2B4
330
1F
100
AcDbEntity
  8
0
100
AcDbLine
 10
-227.7297936841814
 20
50.2253527313209
 30
0.0
 11
-227.4283174905596
 21
50.10047720319011
 31
0.0
  0
LINE
  5
2B5
330
1F
100
AcDbEntity
  8
0
100
AcDbLine
 10
-227.4283174905596
 20
50.10047720319011
 30
0.0
 11
-227.1047936841814
 21
50.05788448605144
 31
0.0
  0
LINE
  5
2B6
330
1F
100
AcDbEntity
  8
0
100
AcDbLine
 10
-227.1047936841814
 20
50.05788448605144
 30
0.0
 11
-226.7812698778033
 21
50.10047720319011
 31
0.0
  0
LINE
  5
2B7
330
1F
100
AcDbEntity
  8
0
100
AcDbLine
 10
-226.7812698778033
 20
50.10047720319011
 30
0.0
 11
-226.4797936841815
 21
50.2253527313209
 31
0.0
  0
LINE
  5
2B8
330
1F
100
AcDbEntity
  8
0
100
AcDbLine
 10
-226.4797936841815
 20
50.2253527313209
 30
0.0
 11
-226.2209102076982
 21
50.42400100956824
 31
0.0
  0
LINE
  5
2B9
330
1F
100
AcDbEntity
  8
0
100
AcDbLine
 10
-226.2209102076982
 20
50.42400100956824
 30
0.0
 11
-226.0222619294509
 21
50.68288448605144
 31
0.0
  0
LINE
  5
2BA
330
1F
100
AcDbEntity
  8
0
100
AcDbLine
 10
-226.0222619294509
 20
50.68288448605144
 30
0.0
 11
-225.8973864013201
 21
50.98436067967326
 31
0.0
  0
LINE
  5
2BB
330
1F
100
AcDbEntity
  8
0
100
AcDbLine
 10
-225.8973864013201
 20
50.98436067967326
 30
0.0
 11
-225.8547936841814
 21
51.30788448605143
 31
0.0
  0
LINE
  5
2BC
330
1F
100
AcDbEntity
  8
0
100
AcDbLine
 10
-225.8547936841814
 20
51.30788448605143
 30
0.0
 11
-225.8973864013201
 21
51.63140829242955
 31
0.0
  0
LINE
  5
2BD
330
1F
100
AcDbEntity
  8
0
100
AcDbLine
 10
-225.8973864013201
 20
51.63140829242955
 30
0.0
 11
-226.0222619294509
 21
51.93288448605142
 31
0.0
  0
LINE
  5
2BE
330
1F
100
AcDbEntity
  8
0
100
AcDbLine
 10
-226.0222619294509
 20
51.93288448605142
 30
0.0
 11
-226.2209102076982
 21
52.19176796253463
 31
0.0
  0
LINE
  5
2BF
330
1F
100
AcDbEntity
  8
0
100
AcDbLine
 10
-226.2209102076982
 20
52.19176796253463
 30
0.0
 11
-226.4797936841815
 21
52.39041624078195
 31
0.0
  0
LINE
  5
2C0
330
1F
100
AcDbEntity
  8
0
100
AcDbLine
 10
-226.4797936841815
 20
52.39041624078195
 30
0.0
 11
-226.7812698778033
 21
52.51529176891275
 31
0.0
  0
LINE
  5
2C1
330
1F
100
AcDbEntity
  8
0
100
AcDbLine
 10
-175.1047936841816
 20
10.5578844860515
 30
0.0
 11
-172.0031403397933
 21
10.5578844860515
 31
0.0
  0
LINE
  5
2C2
330
1F
100
AcDbEntity
  8
0
100
AcDbLine
 10
-172.0031403397933
 20
10.5578844860515
 30
0.0
 11
-173.8345730138661
 21
25.20934587863344
 31
0.0
  0
LINE
  5
2C3
330
1F
100
AcDbEntity
  8
0
100
AcDbLine
 10
-172.0031403397933
 20
10.5578844860515
 30
0.0
 11
-171.7567125919939
 21
10.5578844860515
 31
0.0
  0
LINE
  5
2C4
330
1F
100
AcDbEntity
  8
0
100
AcDbLine
 10
-175.1047936841815
 20
25.05080113836531
 30
0.0
 11
-175.1047936841815
 21
35.55788448605144
 31
0.0
  0
LINE
  5
2C5
330
1F
100
AcDbEntity
  8
0
100
AcDbLine
 10
-175.1047936841815
 20
35.55788448605144
 30
0.0
 11
-171.7567125919939
 21
35.55788448605144
 31
0.0
  0
LINE
  5
2C6
330
1F
100
AcDbEntity
  8
0
100
AcDbLine
 10
-146.1047936841817
 20
42.09100093463679
 30
0.0
 11
-157.1047936841817
 21
42.09100093463679
 31
0.0
  0
LINE
  5
2C7
330
1F
100
AcDbEntity
  8
0
100
AcDbLine
 10
-157.1047936841817
 20
42.09100093463679
 30
0.0
 11
-157.1047936841817
 21
53.5578844860515
 31
0.0
  0
LINE
  5
2C8
330
1F
100
AcDbEntity
  8
0
100
AcDbLine
 10
-157.1047936841817
 20
53.5578844860515
 30
0.0
 11
-146.1047936841817
 21
53.5578844860515
 31
0.0
  0
LINE
  5
2C9
330
1F
100
AcDbEntity
  8
0
100
AcDbLine
 10
-146.1047936841817
 20
53.5578844860515
 30
0.0
 11
-146.1047936841817
 21
42.09100093463679
 31
0.0
  0
LINE
  5
2CA
330
1F
100
AcDbEntity
  8
0
100
AcDbLine
 10
-207.7289288682745
 20
2.250651335949549
 30
0.0
 11
-206.8783043595829
 21
1.344828237463577
 31
0.0
  0
LINE
  5
2CB
330
1F
100
AcDbEntity
  8
0
100
AcDbLine
 10
-151.4777004137112
 20
-6.48872885514005
 30
0.0
 11
-149.3142387111885
 21
-6.218296142324243
 31
0.0
  0
LINE
  5
2CC
330
1F
100
AcDbEntity
  8
0
100
AcDbLine
 10
-210.0850609684641
 20
39.1857896813446
 30
0.0
 11
-210.0850609684641
 21
37.92997929075833
 31
0.0
  0
LINE
  5
2CD
330
1F
100
AcDbEntity
  8
0
100
AcDbLine
 10
-216.6167189789783
 20
53.55788448605146
 30
0.0
 11
-215.1669715106725
 21
50.05788448605144
 31
0.0
  0
LINE
  5
2CE
330
1F
100
AcDbEntity
  8
0
100
AcDbLine
 10
-164.7112096018957
 20
17.20238655612689
 30
0.0
 11
-163.8000136276854
 21
17.48511761206586
 31
0.0
  0
LINE
  5
2CF
330
1F
100
AcDbEntity
  8
0
100
AcDbLine
 10
-166.023872466051
 20
28.83600016367228
 30
0.0
 11
-162.3457804974585
 21
26.1307756812644
 31
0.0
  0
LINE
  5
2D0
330
1F
100
AcDbEntity
  8
0
100
AcDbLine
 10
-180.1047936841814
 20
-4.825534522849345
 30
0.0
 11
-184.0378249010045
 21
-1.807613525617246
 31
0.0
  0
LINE
  5
2D1
330
1F
100
AcDbEntity
  8
0
100
AcDbLine
 10
-184.8483098762538
 20
-0.7513689415658378
 30
0.0
 11
-185.3578020310274
 21
0.4786539284112903
 31
0.0
  0
LINE
  5
2D2
330
1F
100
AcDbEntity
  8
0
100
AcDbLine
 10
-177.8815803169531
 20
6.215360617734794
 30
0.0
 11
-177.1047936841814
 21
5.6193112705078
 31
0.0
  0
LINE
  5
2D3
330
1F
100
AcDbEntity
  8
0
100
AcDbLine
 10
-167.0906477534903
 20
22.26340257459749
 30
0.0
 11
-167.0932104992522
 21
21.87183238416751
 31
0.0
  0
LINE
  5
2D4
330
1F
100
AcDbEntity
  8
0
100
AcDbLine
 10
-209.9276661914683
 20
36.68407134019419
 30
0.0
 11
-210.0850609684641
 21
37.92997929075833
 31
0.0
  0
LINE
  5
2D5
330
1F
100
AcDbEntity
  8
0
100
AcDbLine
 10
-182.0342100812794
 20
35.07269962573002
 30
0.0
 11
-179.187983581842
 21
36.92006476655635
 31
0.0
  0
LINE
  5
2D6
330
1F
100
AcDbEntity
  8
0
100
AcDbLine
 10
-166.8152790813585
 20
19.4434243147321
 30
0.0
 11
-169.7567125919939
 21
20.78901013544549
 31
0.0
  0
LINE
  5
2D7
330
1F
100
AcDbEntity
  8
0
100
AcDbLine
 10
-190.1245263998987
 20
37.92997929075833
 30
0.0
 11
-190.2819211768945
 21
36.68407134019419
 31
0.0
  0
LINE
  5
2D8
330
1F
100
AcDbEntity
  8
0
100
AcDbLine
 10
-193.33128300878
 20
1.344828237463577
 30
0.0
 11
-192.4806585000884
 21
2.250651335949549
 31
0.0
  0
LINE
  5
2D9
330
1F
100
AcDbEntity
  8
0
100
AcDbLine
 10
-149.056207534585
 20
40.0910009346368
 30
0.0
 11
-148.1284990346057
 21
32.65015432385714
 31
0.0
  0
LINE
  5
2DA
330
1F
100
AcDbEntity
  8
0
100
AcDbLine
 10
-171.7531403397933
 20
8.557884486051497
 30
0.0
 11
-165.792854014182
 21
8.557884486051588
 31
0.0
  0
LINE
  5
2DB
330
1F
100
AcDbEntity
  8
0
100
AcDbLine
 10
-212.0811144253207
 20
37.80439825169965
 30
0.0
 11
-212.0811144253207
 21
39.31137072040315
 31
0.0
  0
LINE
  5
2DC
330
1F
100
AcDbEntity
  8
0
100
AcDbLine
 10
-188.1284729430422
 20
37.80439825169965
 30
0.0
 11
-188.3173466754372
 21
36.30930871102274
 31
0.0
  0
LINE
  5
2DD
330
1F
100
AcDbEntity
  8
0
100
AcDbLine
 10
-211.8922406929257
 20
36.3093087110227
 30
0.0
 11
-212.0811144253207
 21
37.80439825169965
 31
0.0
  0
LINE
  5
2DE
330
1F
100
AcDbEntity
  8
0
100
AcDbLine
 10
-187.7782465352539
 20
36.63394535547279
 30
0.0
 11
-187.9315803169531
 21
37.79863105843415
 31
0.0
  0
LINE
  5
2DF
330
1F
100
AcDbEntity
  8
0
100
AcDbLine
 10
-187.3286946339831
 20
40.04863105843413
 30
0.0
 11
-183.9349926765309
 21
44.47138955724667
 31
0.0
  0
LINE
  5
2E0
330
1F
100
AcDbEntity
  8
0
100
AcDbLine
 10
-159.1047936841814
 20
-7.442115513948789
 30
0.0
 11
-173.6047936841814
 21
-7.442115513948472
 31
0.0
  0
LINE
  5
2E1
330
1F
100
AcDbEntity
  8
0
100
AcDbLine
 10
-218.553682423615
 20
-2.553886946294747
 30
0.0
 11
-218.4038317898581
 21
-2.192115513948539
 31
0.0
  0
LINE
  5
2E2
330
1F
100
AcDbEntity
  8
0
100
AcDbLine
 10
-210.3553499324769
 20
2.318806300892063
 30
0.0
 11
-209.5494801802486
 21
1.155324321418755
 31
0.0
  0
LINE
  5
2E3
330
1F
100
AcDbEntity
  8
0
100
AcDbLine
 10
-190.759355666236
 20
1.030415571951583
 30
0.0
 11
-189.9380891516657
 21
2.183081042138489
 31
0.0
  0
LINE
  5
2E4
330
1F
100
AcDbEntity
  8
0
100
AcDbLine
 10
-159.1738033379759
 20
53.55788448605163
 30
0.0
 11
-173.6047936841818
 21
53.55788448605155
 31
0.0
  0
LINE
  5
2E5
330
1F
100
AcDbEntity
  8
0
100
AcDbLine
 10
-175.1047936841815
 20
37.55788448605144
 30
0.0
 11
-173.6047936841814
 21
37.55788448605153
 31
0.0
  0
LINE
  5
2E6
330
1F
100
AcDbEntity
  8
0
100
AcDbLine
 10
-175.1047936841815
 20
37.55788448605144
 30
0.0
 11
-175.1047936841817
 21
53.5578844860515
 31
0.0
  0
LINE
  5
2E7
330
1F
100
AcDbEntity
  8
0
100
AcDbLine
 10
-186.1047936841814
 20
-7.442115513948563
 30
0.0
 11
-186.1047936841814
 21
-2.442115513948527
 31
0.0
  0
LINE
  5
2E8
330
1F
100
AcDbEntity
  8
0
100
AcDbLine
 10
-232.1047936841814
 20
33.24430450142965
 30
0.0
 11
-232.1047936841814
 21
53.55788448605146
 31
0.0
  0
LINE
  5
2E9
330
1F
100
AcDbEntity
  8
0
100
AcDbLine
 10
-202.9833117220655
 20
50.2010573345818
 30
0.0
 11
-201.6466662813933
 21
53.42800488553677
 31
0.0
  0
LINE
  5
2EA
330
1F
100
AcDbEntity
  8
0
100
AcDbLine
 10
-175.1047936841816
 20
10.5578844860515
 30
0.0
 11
-175.1047936841815
 21
25.05080113836531
 31
0.0
  0
LINE
  5
2EB
330
1F
100
AcDbEntity
  8
0
100
AcDbLine
 10
-171.7567125919939
 20
10.5578844860515
 30
0.0
 11
-171.7567125919939
 21
35.55788448605144
 31
0.0
  0
LINE
  5
2EC
330
1F
100
AcDbEntity
  8
0
100
AcDbLine
 10
-163.1738028040178
 20
33.79410300364925
 30
0.0
 11
-162.1537403854014
 21
34.73083978196577
 31
0.0
  0
LINE
  5
2ED
330
1F
100
AcDbEntity
  8
0
100
AcDbLine
 10
-164.1462870418254
 20
32.80806165718371
 30
0.0
 11
-163.1738028040178
 21
33.79410300364925
 31
0.0
  0
LINE
  5
2EE
330
1F
100
AcDbEntity
  8
0
100
AcDbLine
 10
-159.9809784226408
 20
36.44735466636003
 30
0.0
 11
-158.8335970657877
 21
37.22293132386775
 31
0.0
  0
LINE
  5
2EF
330
1F
100
AcDbEntity
  8
0
100
AcDbLine
 10
-156.4308687369056
 20
38.59923596774381
 30
0.0
 11
-155.1814028321458
 21
39.19659522528284
 31
0.0
  0
LINE
  5
2F0
330
1F
100
AcDbEntity
  8
0
100
AcDbLine
 10
-167.5147029983943
 20
28.42080471881865
 30
0.0
 11
-166.8457980108889
 21
29.44052368445394
 31
0.0
  0
LINE
  5
2F1
330
1F
100
AcDbEntity
  8
0
100
AcDbLine
 10
-155.1814028321458
 20
39.19659522528284
 30
0.0
 11
-153.9039214417482
 21
39.73142643876172
 31
0.0
  0
LINE
  5
2F2
330
1F
100
AcDbEntity
  8
0
100
AcDbLine
 10
-162.1537403854014
 20
34.73083978196577
 30
0.0
 11
-161.0885965541837
 21
35.61597917694449
 31
0.0
  0
LINE
  5
2F3
330
1F
100
AcDbEntity
  8
0
100
AcDbLine
 10
-166.7550844759393
 20
29.57881284921681
 30
0.0
 11
-165.9391220049567
 21
30.69783401777119
 31
0.0
  0
LINE
  5
2F4
330
1F
100
AcDbEntity
  8
0
100
AcDbLine
 10
-151.2774804945883
 20
40.60842464072672
 30
0.0
 11
-149.9349495780111
 21
40.94844503387805
 31
0.0
  0
LINE
  5
2F5
330
1F
100
AcDbEntity
  8
0
100
AcDbLine
 10
-134.4329839238512
 20
11.79004728004785
 30
0.0
 11
-129.4715945402827
 21
12.41022095299391
 31
0.0
  0
LINE
  5
2F6
330
1F
100
AcDbEntity
  8
0
100
AcDbLine
 10
-161.0885965541837
 20
35.61597917694449
 30
0.0
 11
-159.9809784226408
 21
36.44735466636003
 31
0.0
  0
LINE
  5
2F7
330
1F
100
AcDbEntity
  8
0
100
AcDbLine
 10
-153.9039214417482
 20
39.73142643876172
 30
0.0
 11
-152.6015514086022
 21
40.20242052204519
 31
0.0
  0
LINE
  5
2F8
330
1F
100
AcDbEntity
  8
0
100
AcDbLine
 10
-200.1047936841815
 20
38.55788448605144
 30
0.0
 11
-195.1047936841815
 21
38.55788448605144
 31
0.0
  0
LINE
  5
2F9
330
1F
100
AcDbEntity
  8
0
100
AcDbLine
 10
-148.5772447210263
 20
41.22164944644113
 30
0.0
 11
-148.0735461790133
 21
41.29730955353842
 31
0.0
  0
LINE
  5
2FA
330
1F
100
AcDbEntity
  8
0
100
AcDbLine
 10
-235.8419626147868
 20
39.49348422976878
 30
0.0
 11
-237.9911160359643
 21
41.78210017158679
 31
0.0
  0
LINE
  5
2FB
330
1F
100
AcDbEntity
  8
0
100
AcDbLine
 10
-239.9019978886706
 20
8.355088690540638
 30
0.0
 11
-236.485247502816
 21
12.80788448605143
 31
0.0
  0
LINE
  5
2FC
330
1F
100
AcDbEntity
  8
0
100
AcDbLine
 10
-237.9911160359642
 20
5.333668800516192
 30
0.0
 11
-235.8419626147866
 21
7.622284742334252
 31
0.0
  0
LINE
  5
2FD
330
1F
100
AcDbEntity
  8
0
100
AcDbLine
 10
-232.4841173725309
 20
34.20236677517837
 30
0.0
 11
-233.9965955466311
 21
36.95355436052646
 31
0.0
  0
LINE
  5
2FE
330
1F
100
AcDbEntity
  8
0
100
AcDbLine
 10
-236.485247502816
 20
12.80788448605143
 30
0.0
 11
-234.3373884189664
 21
17.99327501634722
 31
0.0
  0
LINE
  5
2FF
330
1F
100
AcDbEntity
  8
0
100
AcDbLine
 10
-237.9911160359643
 20
41.78210017158679
 30
0.0
 11
-240.0966710326219
 21
43.52396675102381
 31
0.0
  0
LINE
  5
300
330
1F
100
AcDbEntity
  8
0
100
AcDbLine
 10
-236.485247502816
 20
34.30788448605141
 30
0.0
 11
-239.9019978886706
 21
38.76068028156222
 31
0.0
  0
LINE
  5
301
330
1F
100
AcDbEntity
  8
0
100
AcDbLine
 10
-134.4329839238512
 20
11.79004728004785
 30
0.0
 11
-133.8128102509049
 21
6.82865789647948
 31
0.0
  0
LINE
  5
302
330
1F
100
AcDbEntity
  8
0
100
AcDbLine
 10
-234.3373884189664
 20
17.99327501634722
 30
0.0
 11
-233.6047936841814
 21
23.55788448605142
 31
0.0
  0
LINE
  5
303
330
1F
100
AcDbEntity
  8
0
100
AcDbLine
 10
-239.9019978886706
 20
38.76068028156222
 30
0.0
 11
-242.4772119088042
 21
40.73671149903254
 31
0.0
  0
LINE
  5
304
330
1F
100
AcDbEntity
  8
0
100
AcDbLine
 10
-233.6047936841814
 20
23.55788448605142
 30
0.0
 11
-234.3373884189664
 21
29.12249395575564
 31
0.0
  0
LINE
  5
305
330
1F
100
AcDbEntity
  8
0
100
AcDbLine
 10
-234.3373884189664
 20
29.12249395575564
 30
0.0
 11
-236.485247502816
 21
34.30788448605141
 31
0.0
  0
LINE
  5
306
330
1F
100
AcDbEntity
  8
0
100
AcDbLine
 10
-233.996595546631
 20
10.16221461157657
 30
0.0
 11
-232.4841173725309
 21
12.91340219692466
 31
0.0
  0
LINE
  5
307
330
1F
100
AcDbEntity
  8
0
100
AcDbLine
 10
-232.4841173725309
 20
12.91340219692466
 30
0.0
 11
-232.1047936841814
 21
13.87146447067324
 31
0.0
  0
LINE
  5
308
330
1F
100
AcDbEntity
  8
0
100
AcDbLine
 10
-235.8419626147866
 20
7.622284742334252
 30
0.0
 11
-235.6047936841815
 21
7.948719770516747
 31
0.0
  0
LINE
  5
309
330
1F
100
AcDbEntity
  8
0
100
AcDbLine
 10
-233.9965955466311
 20
36.95355436052646
 30
0.0
 11
-235.6047936841815
 21
39.16704920158615
 31
0.0
  0
LINE
  5
30A
330
1F
100
AcDbEntity
  8
0
100
AcDbLine
 10
-209.1047936841814
 20
48.45788448605145
 30
0.0
 11
-208.4391101038592
 21
48.50151569304501
 31
0.0
  0
LINE
  5
30B
330
1F
100
AcDbEntity
  8
0
100
AcDbLine
 10
-205.49854910013
 20
49.95163990200005
 30
0.0
 11
-205.0586916486961
 21
50.45320119810697
 31
0.0
  0
LINE
  5
30C
330
1F
100
AcDbEntity
  8
0
100
AcDbLine
 10
-137.4242258660581
 20
39.07976393612136
 30
0.0
 11
-137.72319136404
 21
38.48339329436325
 31
0.0
  0
LINE
  5
30D
330
1F
100
AcDbEntity
  8
0
100
AcDbLine
 10
-167.5238639226734
 20
9.493666012020691
 30
0.0
 11
-167.0619030906217
 21
9.889379853089583
 31
0.0
  0
LINE
  5
30E
330
1F
100
AcDbEntity
  8
0
100
AcDbLine
 10
-165.6127424553954
 20
12.51412947208942
 30
0.0
 11
-165.5239824097053
 21
13.11589263866959
 31
0.0
  0
LINE
  5
30F
330
1F
100
AcDbEntity
  8
0
100
AcDbLine
 10
-165.5635233677097
 20
14.32963159246562
 30
0.0
 11
-165.6912618936688
 21
14.92434170953884
 31
0.0
  0
LINE
  5
310
330
1F
100
AcDbEntity
  8
0
100
AcDbLine
 10
-169.1434065283339
 20
8.67174617643267
 30
0.0
 11
-168.5720711160304
 21
8.880487885277695
 31
0.0
  0
LINE
  5
311
330
1F
100
AcDbEntity
  8
0
100
AcDbLine
 10
-212.2094769721259
 20
49.51178245056617
 30
0.0
 11
-211.6547936841814
 21
49.14115492675079
 31
0.0
  0
LINE
  5
312
330
1F
100
AcDbEntity
  8
0
100
AcDbLine
 10
-211.6547936841814
 20
49.14115492675079
 30
0.0
 11
-211.0564791892434
 21
48.84609887024391
 31
0.0
  0
LINE
  5
313
330
1F
100
AcDbEntity
  8
0
100
AcDbLine
 10
-166.1536153626268
 20
16.04726423806182
 30
0.0
 11
-166.4816532385719
 21
16.55950286049166
 31
0.0
  0
LINE
  5
314
330
1F
100
AcDbEntity
  8
0
100
AcDbLine
 10
-170.7952685288935
 20
20.81854502605957
 30
0.0
 11
-170.433938325224
 21
22.05788448605136
 31
0.0
  0
LINE
  5
315
330
1F
100
AcDbEntity
  8
0
100
AcDbLine
 10
-168.0296515733579
 20
9.155766460706905
 30
0.0
 11
-167.5238639226734
 21
9.493666012020691
 31
0.0
  0
LINE
  5
316
330
1F
100
AcDbEntity
  8
0
100
AcDbLine
 10
-167.7274727037367
 20
28.05856394424784
 30
0.0
 11
-167.5147029983943
 21
28.42080471881865
 31
0.0
  0
LINE
  5
317
330
1F
100
AcDbEntity
  8
0
100
AcDbLine
 10
-138.0974411597626
 20
37.93114751417476
 30
0.0
 11
-138.5405717354597
 21
37.43247567396642
 31
0.0
  0
LINE
  5
318
330
1F
100
AcDbEntity
  8
0
100
AcDbLine
 10
-204.1785719701072
 20
52.23790735602858
 30
0.0
 11
-203.2294909769949
 21
54.52919156139072
 31
0.0
  0
LINE
  5
319
330
1F
100
AcDbEntity
  8
0
100
AcDbLine
 10
-169.9547135945792
 20
23.45687504665374
 30
0.0
 11
-169.4376184908158
 21
24.74163797551985
 31
0.0
  0
LINE
  5
31A
330
1F
100
AcDbEntity
  8
0
100
AcDbLine
 10
-168.8576135014603
 20
25.99925371255799
 30
0.0
 11
-168.2161182827904
 21
27.22664403928701
 31
0.0
  0
LINE
  5
31B
330
1F
100
AcDbEntity
  8
0
100
AcDbLine
 10
-167.3081856443582
 20
17.4492050114991
 30
0.0
 11
-167.7949225917008
 21
17.8140123557988
 31
0.0
  0
LINE
  5
31C
330
1F
100
AcDbEntity
  8
0
100
AcDbLine
 10
-165.5239824097053
 20
13.11589263866959
 30
0.0
 11
-165.5074978819504
 21
13.7239432243185
 31
0.0
  0
LINE
  5
31D
330
1F
100
AcDbEntity
  8
0
100
AcDbLine
 10
-141.490560321977
 20
36.00162747186145
 30
0.0
 11
-142.1565151968015
 21
35.9623538670898
 31
0.0
  0
LINE
  5
31E
330
1F
100
AcDbEntity
  8
0
100
AcDbLine
 10
-213.1508957196667
 20
50.45320119810697
 30
0.0
 11
-212.7110382682328
 21
49.95163990200005
 31
0.0
  0
LINE
  5
31F
330
1F
100
AcDbEntity
  8
0
100
AcDbLine
 10
-166.8683435806544
 20
17.02904288402896
 30
0.0
 11
-167.3081856443582
 21
17.4492050114991
 31
0.0
  0
LINE
  5
320
330
1F
100
AcDbEntity
  8
0
100
AcDbLine
 10
-213.816579299989
 20
51.6061989809895
 30
0.0
 11
-213.5215232434821
 21
51.00788448605145
 31
0.0
  0
LINE
  5
321
330
1F
100
AcDbEntity
  8
0
100
AcDbLine
 10
-211.0564791892434
 20
48.84609887024391
 30
0.0
 11
-210.4247708142043
 21
48.63166277197721
 31
0.0
  0
LINE
  5
322
330
1F
100
AcDbEntity
  8
0
100
AcDbLine
 10
-165.5074978819504
 20
13.7239432243185
 30
0.0
 11
-165.5635233677097
 21
14.32963159246562
 31
0.0
  0
LINE
  5
323
330
1F
100
AcDbEntity
  8
0
100
AcDbLine
 10
-137.0712336327334
 20
40.36348314204429
 30
0.0
 11
-136.4054460865193
 21
42.78473828437108
 31
0.0
  0
LINE
  5
324
330
1F
100
AcDbEntity
  8
0
100
AcDbLine
 10
-169.4376184908158
 20
24.74163797551985
 30
0.0
 11
-168.8576135014603
 21
25.99925371255799
 31
0.0
  0
LINE
  5
325
330
1F
100
AcDbEntity
  8
0
100
AcDbLine
 10
-142.8218989694388
 20
36.01034080745269
 30
0.0
 11
-143.4753267390597
 21
36.14476722309538
 31
0.0
  0
LINE
  5
326
330
1F
100
AcDbEntity
  8
0
100
AcDbLine
 10
-137.72319136404
 20
38.48339329436325
 30
0.0
 11
-138.0974411597626
 21
37.93114751417476
 31
0.0
  0
LINE
  5
327
330
1F
100
AcDbEntity
  8
0
100
AcDbLine
 10
-182.5315803169532
 20
29.79863105843416
 30
0.0
 11
-182.3578020310274
 21
28.47865392841128
 31
0.0
  0
LINE
  5
328
330
1F
100
AcDbEntity
  8
0
100
AcDbLine
 10
-144.1056181753615
 20
36.36333304077736
 30
0.0
 11
-144.7019888171195
 21
36.66229853875912
 31
0.0
  0
LINE
  5
329
330
1F
100
AcDbEntity
  8
0
100
AcDbLine
 10
-140.2023307616592
 20
36.33778683342478
 30
0.0
 11
-140.8354290175109
 21
36.12748963950117
 31
0.0
  0
LINE
  5
32A
330
1F
100
AcDbEntity
  8
0
100
AcDbLine
 10
-171.143763732663
 20
19.32644581772853
 30
0.0
 11
-171.1166709649183
 21
19.47143567495205
 31
0.0
  0
LINE
  5
32B
330
1F
100
AcDbEntity
  8
0
100
AcDbLine
 10
-166.2950308837694
 20
10.83099163810496
 30
0.0
 11
-166.2442908731933
 21
10.92289299133696
 31
0.0
  0
LINE
  5
32C
330
1F
100
AcDbEntity
  8
0
100
AcDbLine
 10
-146.1894719243009
 20
37.98410817884103
 30
0.0
 11
-146.5564613011436
 21
38.5412052158274
 31
0.0
  0
LINE
  5
32D
330
1F
100
AcDbEntity
  8
0
100
AcDbLine
 10
-166.6503405589207
 20
10.33727887838793
 30
0.0
 11
-166.2950308837694
 21
10.83099163810496
 31
0.0
  0
LINE
  5
32E
330
1F
100
AcDbEntity
  8
0
100
AcDbLine
 10
-139.0450010041218
 20
36.99591018718176
 30
0.0
 11
-139.6020980411082
 21
36.62892081033905
 31
0.0
  0
LINE
  5
32F
330
1F
100
AcDbEntity
  8
0
100
AcDbLine
 10
-201.22363320868
 20
54.40925634300685
 30
0.0
 11
-198.3730599854135
 21
53.96494979422351
 31
0.0
  0
LINE
  5
330
330
1F
100
AcDbEntity
  8
0
100
AcDbLine
 10
-142.1565151968015
 20
35.9623538670898
 30
0.0
 11
-142.8218989694388
 21
36.01034080745269
 31
0.0
  0
LINE
  5
331
330
1F
100
AcDbEntity
  8
0
100
AcDbLine
 10
-198.3730599854135
 20
53.96494979422351
 30
0.0
 11
-196.8285897613198
 21
53.55788448605146
 31
0.0
  0
LINE
  5
332
330
1F
100
AcDbEntity
  8
0
100
AcDbLine
 10
-207.7848165541586
 20
48.63166277197721
 30
0.0
 11
-207.1531081791195
 21
48.84609887024391
 31
0.0
  0
LINE
  5
333
330
1F
100
AcDbEntity
  8
0
100
AcDbLine
 10
-168.5720711160304
 20
8.880487885277695
 30
0.0
 11
-168.0296515733579
 21
9.155766460706905
 31
0.0
  0
LINE
  5
334
330
1F
100
AcDbEntity
  8
0
100
AcDbLine
 10
-166.8457980108889
 20
29.44052368445394
 30
0.0
 11
-166.7550844759393
 21
29.57881284921681
 31
0.0
  0
LINE
  5
335
330
1F
100
AcDbEntity
  8
0
100
AcDbLine
 10
-177.4315803169531
 20
24.69863105843415
 30
0.0
 11
-177.1047936841814
 21
24.7416533348167
 31
0.0
  0
LINE
  5
336
330
1F
100
AcDbEntity
  8
0
100
AcDbLine
 10
-166.001028413659
 20
11.36349497324214
 30
0.0
 11
-165.7725153902931
 21
11.92721392140312
 31
0.0
  0
LINE
  5
337
330
1F
100
AcDbEntity
  8
0
100
AcDbLine
 10
-206.5547936841814
 20
49.14115492675079
 30
0.0
 11
-206.0001103962369
 21
49.51178245056617
 31
0.0
  0
LINE
  5
338
330
1F
100
AcDbEntity
  8
0
100
AcDbLine
 10
-140.8354290175109
 20
36.12748963950117
 30
0.0
 11
-141.490560321977
 21
36.00162747186145
 31
0.0
  0
LINE
  5
339
330
1F
100
AcDbEntity
  8
0
100
AcDbLine
 10
-212.7110382682328
 20
49.95163990200005
 30
0.0
 11
-212.2094769721259
 21
49.51178245056617
 31
0.0
  0
LINE
  5
33A
330
1F
100
AcDbEntity
  8
0
100
AcDbLine
 10
-168.8808168358504
 20
18.35766612966991
 30
0.0
 11
-171.143763732663
 21
19.32644581772853
 31
0.0
  0
LINE
  5
33B
330
1F
100
AcDbEntity
  8
0
100
AcDbLine
 10
-165.6912618936688
 20
14.92434170953884
 30
0.0
 11
-165.8888963547193
 21
15.49961370969951
 31
0.0
  0
LINE
  5
33C
330
1F
100
AcDbEntity
  8
0
100
AcDbLine
 10
-146.5564613011436
 20
38.5412052158274
 30
0.0
 11
-146.847595278058
 21
39.14143793637858
 31
0.0
  0
LINE
  5
33D
330
1F
100
AcDbEntity
  8
0
100
AcDbLine
 10
-213.5215232434821
 20
51.00788448605145
 30
0.0
 11
-213.1508957196667
 21
50.45320119810697
 31
0.0
  0
LINE
  5
33E
330
1F
100
AcDbEntity
  8
0
100
AcDbLine
 10
-214.0310153982557
 20
52.23790735602858
 30
0.0
 11
-214.980096391368
 21
54.52919156139072
 31
0.0
  0
LINE
  5
33F
330
1F
100
AcDbEntity
  8
0
100
AcDbLine
 10
-214.0310153982557
 20
52.23790735602858
 30
0.0
 11
-213.816579299989
 21
51.6061989809895
 31
0.0
  0
LINE
  5
340
330
1F
100
AcDbEntity
  8
0
100
AcDbLine
 10
-144.7019888171195
 20
36.66229853875912
 30
0.0
 11
-145.254234597308
 21
37.0365483344816
 31
0.0
  0
LINE
  5
341
330
1F
100
AcDbEntity
  8
0
100
AcDbLine
 10
-167.0619030906217
 20
9.889379853089583
 30
0.0
 11
-166.6503405589207
 21
10.33727887838793
 31
0.0
  0
LINE
  5
342
330
1F
100
AcDbEntity
  8
0
100
AcDbLine
 10
-169.7399194763752
 20
8.557884486051409
 30
0.0
 11
-169.1434065283339
 21
8.67174617643267
 31
0.0
  0
LINE
  5
343
330
1F
100
AcDbEntity
  8
0
100
AcDbLine
 10
-171.1166709649183
 20
19.47143567495205
 30
0.0
 11
-170.8023151623263
 21
20.78901013544549
 31
0.0
  0
LINE
  5
344
330
1F
100
AcDbEntity
  8
0
100
AcDbLine
 10
-165.7725153902931
 20
11.92721392140312
 30
0.0
 11
-165.6127424553954
 21
12.51412947208942
 31
0.0
  0
LINE
  5
345
330
1F
100
AcDbEntity
  8
0
100
AcDbLine
 10
-166.4816532385719
 20
16.55950286049166
 30
0.0
 11
-166.8683435806544
 21
17.02904288402896
 31
0.0
  0
LINE
  5
346
330
1F
100
AcDbEntity
  8
0
100
AcDbLine
 10
-139.6020980411082
 20
36.62892081033905
 30
0.0
 11
-140.2023307616592
 21
36.33778683342478
 31
0.0
  0
LINE
  5
347
330
1F
100
AcDbEntity
  8
0
100
AcDbLine
 10
-137.2056600483764
 20
39.71005537242324
 30
0.0
 11
-137.4242258660581
 21
39.07976393612136
 31
0.0
  0
LINE
  5
348
330
1F
100
AcDbEntity
  8
0
100
AcDbLine
 10
-170.4076331386186
 20
22.1481095915962
 30
0.0
 11
-170.3757236453606
 21
22.24031590729594
 31
0.0
  0
LINE
  5
349
330
1F
100
AcDbEntity
  8
0
100
AcDbLine
 10
-204.6880641248808
 20
51.00788448605145
 30
0.0
 11
-204.3930080683739
 21
51.6061989809895
 31
0.0
  0
LINE
  5
34A
330
1F
100
AcDbEntity
  8
0
100
AcDbLine
 10
-165.8888963547193
 20
15.49961370969951
 30
0.0
 11
-166.1536153626268
 21
16.04726423806182
 31
0.0
  0
LINE
  5
34B
330
1F
100
AcDbEntity
  8
0
100
AcDbLine
 10
-210.4247708142043
 20
48.63166277197721
 30
0.0
 11
-209.7704772645037
 21
48.50151569304501
 31
0.0
  0
LINE
  5
34C
330
1F
100
AcDbEntity
  8
0
100
AcDbLine
 10
-203.2294909769949
 20
54.52919156139072
 30
0.0
 11
-201.22363320868
 21
54.40925634300685
 31
0.0
  0
LINE
  5
34D
330
1F
100
AcDbEntity
  8
0
100
AcDbLine
 10
-179.9815803169531
 20
34.21536061773479
 30
0.0
 11
-181.0378249010045
 21
33.40487564248554
 31
0.0
  0
LINE
  5
34E
330
1F
100
AcDbEntity
  8
0
100
AcDbLine
 10
-145.254234597308
 20
37.0365483344816
 30
0.0
 11
-145.7529064375165
 21
37.47967891017877
 31
0.0
  0
LINE
  5
34F
330
1F
100
AcDbEntity
  8
0
100
AcDbLine
 10
-209.7704772645037
 20
48.50151569304501
 30
0.0
 11
-209.1047936841814
 21
48.45788448605145
 31
0.0
  0
LINE
  5
350
330
1F
100
AcDbEntity
  8
0
100
AcDbLine
 10
-138.5405717354597
 20
37.43247567396642
 30
0.0
 11
-139.0450010041218
 21
36.99591018718176
 31
0.0
  0
LINE
  5
351
330
1F
100
AcDbEntity
  8
0
100
AcDbLine
 10
-146.847595278058
 20
39.14143793637858
 30
0.0
 11
-148.0735461790133
 21
41.29730955353842
 31
0.0
  0
LINE
  5
352
330
1F
100
AcDbEntity
  8
0
100
AcDbLine
 10
-190.3039447038927
 20
50.92049041036221
 30
0.0
 11
-187.8703238927155
 21
49.37108221433979
 31
0.0
  0
LINE
  5
353
330
1F
100
AcDbEntity
  8
0
100
AcDbLine
 10
-182.3578020310274
 20
31.11860818845704
 30
0.0
 11
-182.5315803169532
 21
29.79863105843416
 31
0.0
  0
LINE
  5
354
330
1F
100
AcDbEntity
  8
0
100
AcDbLine
 10
-187.8703238927155
 20
49.37108221433979
 30
0.0
 11
-185.6090530171397
 21
47.5794823600842
 31
0.0
  0
LINE
  5
355
330
1F
100
AcDbEntity
  8
0
100
AcDbLine
 10
-192.8840794119541
 20
52.21125797222345
 30
0.0
 11
-190.3039447038927
 21
50.92049041036221
 31
0.0
  0
LINE
  5
356
330
1F
100
AcDbEntity
  8
0
100
AcDbLine
 10
-207.1531081791195
 20
48.84609887024391
 30
0.0
 11
-206.5547936841814
 21
49.14115492675079
 31
0.0
  0
LINE
  5
357
330
1F
100
AcDbEntity
  8
0
100
AcDbLine
 10
-208.4391101038592
 20
48.50151569304501
 30
0.0
 11
-207.7848165541586
 21
48.63166277197721
 31
0.0
  0
LINE
  5
358
330
1F
100
AcDbEntity
  8
0
100
AcDbLine
 10
-183.5441383979622
 20
45.56471100183954
 30
0.0
 11
-183.3064936511715
 21
45.29046543390103
 31
0.0
  0
LINE
  5
359
330
1F
100
AcDbEntity
  8
0
100
AcDbLine
 10
-178.1047539754798
 20
-9.44211551394856
 30
0.0
 11
-178.1047539754798
 21
-5.442115513948567
 31
0.0
  0
LINE
  5
35A
330
1F
100
AcDbEntity
  8
0
100
AcDbLine
 10
-195.5833365432951
 20
53.2296817295076
 30
0.0
 11
-192.8840794119541
 21
52.21125797222345
 31
0.0
  0
LINE
  5
35B
330
1F
100
AcDbEntity
  8
0
100
AcDbLine
 10
-235.6038399008475
 20
54.54903771857094
 30
0.0
 11
-235.5990199048951
 21
59.55788448605144
 31
0.0
  0
LINE
  5
35C
330
1F
100
AcDbEntity
  8
0
100
AcDbLine
 10
-181.8483098762538
 20
27.24863105843416
 30
0.0
 11
-181.4315803169531
 21
26.7055385231406
 31
0.0
  0
LINE
  5
35D
330
1F
100
AcDbEntity
  8
0
100
AcDbLine
 10
-178.7349548797105
 20
38.40572306678684
 30
0.0
 11
-177.6571415678811
 21
35.73000763865242
 31
0.0
  0
LINE
  5
35E
330
1F
100
AcDbEntity
  8
0
100
AcDbLine
 10
-181.0378249010045
 20
33.40487564248554
 30
0.0
 11
-181.8483098762538
 21
32.34863105843417
 31
0.0
  0
LINE
  5
35F
330
1F
100
AcDbEntity
  8
0
100
AcDbLine
 10
-204.3930080683739
 20
51.6061989809895
 30
0.0
 11
-204.1785719701072
 21
52.23790735602858
 31
0.0
  0
LINE
  5
360
330
1F
100
AcDbEntity
  8
0
100
AcDbLine
 10
-206.0001103962369
 20
49.51178245056617
 30
0.0
 11
-205.49854910013
 21
49.95163990200005
 31
0.0
  0
LINE
  5
361
330
1F
100
AcDbEntity
  8
0
100
AcDbLine
 10
-167.7949225917008
 20
17.8140123557988
 30
0.0
 11
-168.3216304959574
 21
18.11827546226578
 31
0.0
  0
LINE
  5
362
330
1F
100
AcDbEntity
  8
0
100
AcDbLine
 10
-183.2387131934709
 20
45.21834617772768
 30
0.0
 11
-181.697501779854
 21
43.34815754857969
 31
0.0
  0
LINE
  5
363
330
1F
100
AcDbEntity
  8
0
100
AcDbLine
 10
-176.1116031869302
 20
24.87240934435992
 30
0.0
 11
-175.9294133672182
 21
24.94787483861097
 31
0.0
  0
LINE
  5
364
330
1F
100
AcDbEntity
  8
0
100
AcDbLine
 10
-235.6038399008475
 20
54.54903771857094
 30
0.0
 11
-214.980096391368
 21
54.52919156139072
 31
0.0
  0
LINE
  5
365
330
1F
100
AcDbEntity
  8
0
100
AcDbLine
 10
-168.3216304959574
 20
18.11827546226578
 30
0.0
 11
-168.8808168358504
 21
18.35766612966991
 31
0.0
  0
LINE
  5
366
330
1F
100
AcDbEntity
  8
0
100
AcDbLine
 10
-180.0887476036314
 20
40.95335358771313
 30
0.0
 11
-178.7349548797105
 21
38.40572306678684
 31
0.0
  0
LINE
  5
367
330
1F
100
AcDbEntity
  8
0
100
AcDbLine
 10
-145.7529064375165
 20
37.47967891017877
 30
0.0
 11
-146.1894719243009
 21
37.98410817884103
 31
0.0
  0
LINE
  5
368
330
1F
100
AcDbEntity
  8
0
100
AcDbLine
 10
-205.0586916486961
 20
50.45320119810697
 30
0.0
 11
-204.6880641248808
 21
51.00788448605145
 31
0.0
  0
LINE
  5
369
330
1F
100
AcDbEntity
  8
0
100
AcDbLine
 10
-143.4753267390597
 20
36.14476722309538
 30
0.0
 11
-144.1056181753615
 21
36.36333304077736
 31
0.0
  0
LINE
  5
36A
330
1F
100
AcDbEntity
  8
0
100
AcDbLine
 10
-181.8483098762538
 20
32.34863105843417
 30
0.0
 11
-182.3578020310274
 21
31.11860818845704
 31
0.0
  0
LINE
  5
36B
330
1F
100
AcDbEntity
  8
0
100
AcDbLine
 10
-181.697501779854
 20
43.34815754857969
 30
0.0
 11
-180.0887476036314
 21
40.95335358771313
 31
0.0
  0
LINE
  5
36C
330
1F
100
AcDbEntity
  8
0
100
AcDbLine
 10
-185.6090530171397
 20
47.5794823600842
 30
0.0
 11
-183.5441383979622
 21
45.56471100183954
 31
0.0
  0
LINE
  5
36D
330
1F
100
AcDbEntity
  8
0
100
AcDbLine
 10
-166.2442908731933
 20
10.92289299133696
 30
0.0
 11
-166.001028413659
 21
11.36349497324214
 31
0.0
  0
LINE
  5
36E
330
1F
100
AcDbEntity
  8
0
100
AcDbLine
 10
-178.1047539754798
 20
-9.44211551394856
 30
0.0
 11
-178.1047539754798
 21
-9.892484010112563
 31
0.0
  0
LINE
  5
36F
330
1F
100
AcDbEntity
  8
0
100
AcDbLine
 10
-177.1785317055657
 20
-5.442115513948567
 30
0.0
 11
-178.1047539754798
 21
-5.442115513948567
 31
0.0
  0
LINE
  5
370
330
1F
100
AcDbEntity
  8
0
100
AcDbLine
 10
-235.6047936841815
 20
-9.44211551394856
 30
0.0
 11
-178.1047539754798
 21
-9.44211551394856
 31
0.0
  0
LINE
  5
371
330
1F
100
AcDbEntity
  8
0
100
AcDbLine
 10
-137.0712336327334
 20
40.36348314204429
 30
0.0
 11
-137.2056600483764
 21
39.71005537242324
 31
0.0
  0
LINE
  5
372
330
1F
100
AcDbEntity
  8
0
100
AcDbLine
 10
-183.3064936511715
 20
45.29046543390103
 30
0.0
 11
-183.2387131934709
 21
45.21834617772768
 31
0.0
  0
LINE
  5
373
330
1F
100
AcDbEntity
  8
0
100
AcDbLine
 10
-170.3757236453606
 20
22.24031590729594
 30
0.0
 11
-169.9547135945792
 21
23.45687504665374
 31
0.0
  0
LINE
  5
374
330
1F
100
AcDbEntity
  8
0
100
AcDbLine
 10
-170.433938325224
 20
22.05788448605136
 30
0.0
 11
-170.4076331386186
 21
22.1481095915962
 31
0.0
  0
LINE
  5
375
330
1F
100
AcDbEntity
  8
0
100
AcDbLine
 10
-126.771956037316
 20
38.93108141931454
 30
0.0
 11
-134.1232361652101
 21
27.77168083931512
 31
0.0
  0
LINE
  5
376
330
1F
100
AcDbEntity
  8
0
100
AcDbLine
 10
-200.1047936841815
 20
38.55788448605144
 30
0.0
 11
-200.1047936841815
 21
33.55788448605145
 31
0.0
  0
LINE
  5
377
330
1F
100
AcDbEntity
  8
0
100
AcDbLine
 10
-239.3017802346592
 20
21.05493304540774
 30
0.0
 11
-239.1047936841814
 21
23.55788448605142
 31
0.0
  0
LINE
  5
378
330
1F
100
AcDbEntity
  8
0
100
AcDbLine
 10
-239.887889423459
 20
18.61361257605227
 30
0.0
 11
-239.3017802346592
 21
21.05493304540774
 31
0.0
  0
LINE
  5
379
330
1F
100
AcDbEntity
  8
0
100
AcDbLine
 10
-243.7910851851966
 20
12.24417598706668
 30
0.0
 11
-242.1605217741823
 21
14.15332044937189
 31
0.0
  0
LINE
  5
37A
330
1F
100
AcDbEntity
  8
0
100
AcDbLine
 10
-237.7153349407209
 20
46.3121530809943
 30
0.0
 11
-240.0966710326219
 21
43.52396675102381
 31
0.0
  0
LINE
  5
37B
330
1F
100
AcDbEntity
  8
0
100
AcDbLine
 10
-134.1232361652101
 20
27.77168083931512
 30
0.0
 11
-136.4175396772783
 21
27.66649330746646
 31
0.0
  0
LINE
  5
37C
330
1F
100
AcDbEntity
  8
0
100
AcDbLine
 10
-142.1593854267778
 20
-2.220759970627154
 30
0.0
 11
-139.8724874660072
 21
-3.256939169565884
 31
0.0
  0
LINE
  5
37D
330
1F
100
AcDbEntity
  8
0
100
AcDbLine
 10
-143.4089917138458
 20
25.03509481314282
 30
0.0
 11
-145.3704640883924
 21
23.46786932228955
 31
0.0
  0
LINE
  5
37E
330
1F
100
AcDbEntity
  8
0
100
AcDbLine
 10
-150.1456428279292
 20
14.80871423154868
 30
0.0
 11
-150.4244174728501
 21
12.31354804216608
 31
0.0
  0
LINE
  5
37F
330
1F
100
AcDbEntity
  8
0
100
AcDbLine
 10
-141.226500237848
 20
26.2761832759392
 30
0.0
 11
-143.4089917138458
 21
25.03509481314282
 31
0.0
  0
LINE
  5
380
330
1F
100
AcDbEntity
  8
0
100
AcDbLine
 10
-239.887889423459
 20
28.50215639605058
 30
0.0
 11
-240.8486892971675
 21
30.82173248188419
 31
0.0
  0
LINE
  5
381
330
1F
100
AcDbEntity
  8
0
100
AcDbLine
 10
-137.4516508753518
 20
-3.922611624030554
 30
0.0
 11
-134.9564846859689
 21
-4.201386268951842
 31
0.0
  0
LINE
  5
382
330
1F
100
AcDbEntity
  8
0
100
AcDbLine
 10
-148.9191199197423
 20
4.996530966050853
 30
0.0
 11
-147.6780314569459
 21
2.81403949005248
 31
0.0
  0
LINE
  5
383
330
1F
100
AcDbEntity
  8
0
100
AcDbLine
 10
-144.2560337400896
 20
-0.839588197973326
 30
0.0
 11
-142.1593854267778
 21
-2.220759970627154
 31
0.0
  0
LINE
  5
384
330
1F
100
AcDbEntity
  8
0
100
AcDbLine
 10
-242.4772119088042
 20
40.73671149903254
 30
0.0
 11
-243.7910851851966
 21
39.19836354344159
 31
0.0
  0
LINE
  5
385
330
1F
100
AcDbEntity
  8
0
100
AcDbLine
 10
-242.1605217741823
 20
32.96244852273101
 30
0.0
 11
-243.7910851851966
 21
34.87159298503622
 31
0.0
  0
LINE
  5
386
330
1F
100
AcDbEntity
  8
0
100
AcDbLine
 10
-145.3704640883924
 20
23.46786932228955
 30
0.0
 11
-147.0626194018722
 21
21.61309709628651
 31
0.0
  0
LINE
  5
387
330
1F
100
AcDbEntity
  8
0
100
AcDbLine
 10
-146.1108059660924
 20
0.8525671155063415
 30
0.0
 11
-144.2560337400896
 21
-0.839588197973326
 31
0.0
  0
LINE
  5
388
330
1F
100
AcDbEntity
  8
0
100
AcDbLine
 10
-150.3094299512695
 20
9.805491526620658
 30
0.0
 11
-149.8035116375905
 21
7.346301360087455
 31
0.0
  0
LINE
  5
389
330
1F
100
AcDbEntity
  8
0
100
AcDbLine
 10
-132.4484281704236
 20
-4.08639874737062
 30
0.0
 11
-130.1988262970412
 21
-3.623598106038015
 31
0.0
  0
LINE
  5
38A
330
1F
100
AcDbEntity
  8
0
100
AcDbLine
 10
-240.8486892971675
 20
30.82173248188419
 30
0.0
 11
-242.1605217741823
 21
32.96244852273101
 31
0.0
  0
LINE
  5
38B
330
1F
100
AcDbEntity
  8
0
100
AcDbLine
 10
-235.6047936841815
 20
39.16704920158615
 30
0.0
 11
-235.8419626147868
 21
39.49348422976878
 31
0.0
  0
LINE
  5
38C
330
1F
100
AcDbEntity
  8
0
100
AcDbLine
 10
-242.4772119088043
 20
6.37905747307027
 30
0.0
 11
-239.9019978886706
 21
8.355088690540638
 31
0.0
  0
LINE
  5
38D
330
1F
100
AcDbEntity
  8
0
100
AcDbLine
 10
-232.1047936841814
 20
33.24430450142965
 30
0.0
 11
-232.4841173725309
 21
34.20236677517837
 31
0.0
  0
LINE
  5
38E
330
1F
100
AcDbEntity
  8
0
100
AcDbLine
 10
-147.0626194018722
 20
21.61309709628651
 30
0.0
 11
-148.443791174526
 21
19.51644878297471
 31
0.0
  0
LINE
  5
38F
330
1F
100
AcDbEntity
  8
0
100
AcDbLine
 10
-149.8035116375905
 20
7.346301360087455
 30
0.0
 11
-148.9191199197423
 21
4.996530966050853
 31
0.0
  0
LINE
  5
390
330
1F
100
AcDbEntity
  8
0
100
AcDbLine
 10
-139.8724874660072
 20
-3.256939169565884
 30
0.0
 11
-137.4516508753518
 21
-3.922611624030554
 31
0.0
  0
LINE
  5
391
330
1F
100
AcDbEntity
  8
0
100
AcDbLine
 10
-136.4175396772783
 20
27.66649330746646
 30
0.0
 11
-138.8767298438113
 21
27.16057499378715
 31
0.0
  0
LINE
  5
392
330
1F
100
AcDbEntity
  8
0
100
AcDbLine
 10
-240.096671032622
 20
3.591802221079002
 30
0.0
 11
-237.9911160359642
 21
5.333668800516192
 31
0.0
  0
LINE
  5
393
330
1F
100
AcDbEntity
  8
0
100
AcDbLine
 10
-235.6047936841815
 20
7.948719770516747
 30
0.0
 11
-233.996595546631
 21
10.16221461157657
 31
0.0
  0
LINE
  5
394
330
1F
100
AcDbEntity
  8
0
100
AcDbLine
 10
-240.096671032622
 20
3.591802221079002
 30
0.0
 11
-242.4772119088043
 21
6.37905747307027
 31
0.0
  0
LINE
  5
395
330
1F
100
AcDbEntity
  8
0
100
AcDbLine
 10
-150.4244174728501
 20
12.31354804216608
 30
0.0
 11
-150.3094299512695
 21
9.805491526620658
 31
0.0
  0
LINE
  5
396
330
1F
100
AcDbEntity
  8
0
100
AcDbLine
 10
-148.443791174526
 20
19.51644878297471
 30
0.0
 11
-149.4799703734649
 21
17.22955082220426
 31
0.0
  0
LINE
  5
397
330
1F
100
AcDbEntity
  8
0
100
AcDbLine
 10
-242.4772119088043
 20
6.37905747307027
 30
0.0
 11
-243.7910851851966
 21
7.91740542866104
 31
0.0
  0
LINE
  5
398
330
1F
100
AcDbEntity
  8
0
100
AcDbLine
 10
-240.8486892971675
 20
16.29403649021871
 30
0.0
 11
-239.887889423459
 21
18.61361257605227
 31
0.0
  0
LINE
  5
399
330
1F
100
AcDbEntity
  8
0
100
AcDbLine
 10
-243.7910851851966
 20
34.87159298503622
 30
0.0
 11
-243.7910851851966
 21
39.19836354344159
 31
0.0
  0
LINE
  5
39A
330
1F
100
AcDbEntity
  8
0
100
AcDbLine
 10
-243.7910851851966
 20
12.24417598706668
 30
0.0
 11
-243.7910851851966
 21
7.91740542866104
 31
0.0
  0
LINE
  5
39B
330
1F
100
AcDbEntity
  8
0
100
AcDbLine
 10
-147.6780314569459
 20
2.814039490052479
 30
0.0
 11
-146.1108059660924
 21
0.8525671155063415
 31
0.0
  0
LINE
  5
39C
330
1F
100
AcDbEntity
  8
0
100
AcDbLine
 10
-242.1605217741823
 20
14.15332044937189
 30
0.0
 11
-240.8486892971675
 21
16.29403649021871
 31
0.0
  0
LINE
  5
39D
330
1F
100
AcDbEntity
  8
0
100
AcDbLine
 10
-138.8767298438113
 20
27.16057499378715
 30
0.0
 11
-141.226500237848
 21
26.2761832759392
 31
0.0
  0
LINE
  5
39E
330
1F
100
AcDbEntity
  8
0
100
AcDbLine
 10
-240.0966710326219
 20
43.52396675102381
 30
0.0
 11
-242.4772119088042
 21
40.73671149903254
 31
0.0
  0
LINE
  5
39F
330
1F
100
AcDbEntity
  8
0
100
AcDbLine
 10
-134.9564846859689
 20
-4.201386268951842
 30
0.0
 11
-132.4484281704236
 21
-4.08639874737062
 31
0.0
  0
LINE
  5
3A0
330
1F
100
AcDbEntity
  8
0
100
AcDbLine
 10
-149.4799703734649
 20
17.22955082220426
 30
0.0
 11
-150.1456428279292
 21
14.80871423154868
 31
0.0
  0
LINE
  5
3A1
330
1F
100
AcDbEntity
  8
0
100
AcDbLine
 10
-120.326810030313
 20
-12.63008663670929
 30
0.0
 11
-130.1988262970412
 21
-3.623598106038015
 31
0.0
  0
LINE
  5
3A2
330
1F
100
AcDbEntity
  8
0
100
AcDbLine
 10
-239.3017802346592
 20
26.06083592669516
 30
0.0
 11
-239.887889423459
 21
28.50215639605058
 31
0.0
  0
LINE
  5
3A3
330
1F
100
AcDbEntity
  8
0
100
AcDbLine
 10
-239.1047936841814
 20
23.55788448605142
 30
0.0
 11
-239.3017802346592
 21
26.06083592669516
 31
0.0
  0
LINE
  5
3A4
330
1F
100
AcDbEntity
  8
0
100
AcDbLine
 10
-235.6363948556193
 20
0.557934417877959
 30
0.0
 11
-236.9413799080062
 21
0.6476101575436105
 31
0.0
  0
LINE
  5
3A5
330
1F
100
AcDbEntity
  8
0
100
AcDbLine
 10
-235.6047936841815
 20
46.55788448605143
 30
0.0
 11
-236.910055606382
 21
46.47233309978957
 31
0.0
  0
LINE
  5
3A6
330
1F
100
AcDbEntity
  8
0
100
AcDbLine
 10
-237.7158383889689
 20
0.8042053532713316
 30
0.0
 11
-240.096671032622
 21
3.591802221079002
 31
0.0
  0
LINE
  5
3A7
330
1F
100
AcDbEntity
  8
0
100
AcDbLine
 10
-235.6038399008475
 20
54.54903771857094
 30
0.0
 11
-235.6047936841815
 21
46.55788448605143
 31
0.0
  0
LINE
  5
3A8
330
1F
100
AcDbEntity
  8
0
100
AcDbLine
 10
-236.9413799080062
 20
0.6476101575436105
 30
0.0
 11
-237.7158383889689
 21
0.8042053532713316
 31
0.0
  0
LINE
  5
3A9
330
1F
100
AcDbEntity
  8
0
100
AcDbLine
 10
-236.910055606382
 20
46.47233309978957
 30
0.0
 11
-237.7153349407209
 21
46.3121530809943
 31
0.0
  0
LINE
  5
3AA
330
1F
100
AcDbEntity
  8
0
100
AcDbLine
 10
-235.6047936841815
 20
-9.44211551394856
 30
0.0
 11
-235.6363948556193
 21
0.557934417877959
 31
0.0
  0
LINE
  5
3AB
330
1F
100
AcDbEntity
  8
0
100
AcDbLine
 10
-204.1047936841814
 20
26.55788448605146
 30
0.0
 11
-209.1047936841814
 21
26.55788448605146
 31
0.0
  0
LINE
  5
3AC
330
1F
100
AcDbEntity
  8
0
100
AcDbLine
 10
-157.6492608855822
 20
37.94081079981097
 30
0.0
 11
-156.4308687369056
 21
38.59923596774381
 31
0.0
  0
LINE
  5
3AD
330
1F
100
AcDbEntity
  8
0
100
AcDbLine
 10
-200.1047936841815
 20
8.557884486051453
 30
0.0
 11
-200.1047936841815
 21
3.557884486051462
 31
0.0
  0
LINE
  5
3AE
330
1F
100
AcDbEntity
  8
0
100
AcDbLine
 10
-158.8335970657877
 20
37.22293132386775
 30
0.0
 11
-157.6492608855822
 21
37.94081079981097
 31
0.0
  0
LINE
  5
3AF
330
1F
100
AcDbEntity
  8
0
100
AcDbLine
 10
-165.9391220049567
 20
30.69783401777119
 30
0.0
 11
-165.0688127859309
 21
31.77512923868469
 31
0.0
  0
LINE
  5
3B0
330
1F
100
AcDbEntity
  8
0
100
AcDbLine
 10
-143.7355890180417
 20
13.65056829888589
 30
0.0
 11
-143.1154153450955
 21
8.689178915317518
 31
0.0
  0
LINE
  5
3B1
330
1F
100
AcDbEntity
  8
0
100
AcDbLine
 10
-149.9349495780111
 20
40.94844503387805
 30
0.0
 11
-149.056207534585
 21
41.12527006513105
 31
0.0
  0
LINE
  5
3B2
330
1F
100
AcDbEntity
  8
0
100
AcDbLine
 10
-165.0688127859309
 20
31.77512923868469
 30
0.0
 11
-164.1462870418254
 21
32.80806165718371
 31
0.0
  0
LINE
  5
3B3
330
1F
100
AcDbEntity
  8
0
100
AcDbLine
 10
-152.6015514086022
 20
40.20242052204519
 30
0.0
 11
-151.2774804945883
 21
40.60842464072672
 31
0.0
  0
LINE
  5
3B4
330
1F
100
AcDbEntity
  8
0
100
AcDbLine
 10
-204.1047936841814
 20
26.55788448605146
 30
0.0
 11
-204.1047936841814
 21
21.55788448605143
 31
0.0
  0
LINE
  5
3B5
330
1F
100
AcDbEntity
  8
0
100
AcDbLine
 10
-143.7355890180417
 20
13.65056829888589
 30
0.0
 11
-138.7741996344732
 21
14.27074197183204
 31
0.0
  0
LINE
  5
3B6
330
1F
100
AcDbEntity
  8
0
100
AcDbLine
 10
-168.2161182827904
 20
27.22664403928701
 30
0.0
 11
-167.7274727037367
 21
28.05856394424784
 31
0.0
  0
LINE
  5
3B7
330
1F
100
AcDbEntity
  8
0
100
AcDbLine
 10
-200.1047936841815
 20
8.557884486051453
 30
0.0
 11
-195.1047936841815
 21
8.557884486051453
 31
0.0
  0
LINE
  5
3B8
330
1F
100
AcDbEntity
  8
0
100
AcDbLine
 10
-175.1047936841815
 20
-5.182898261275528
 30
0.0
 11
-177.1785317055657
 21
-5.442115513948567
 31
0.0
  0
LINE
  5
3B9
330
1F
100
AcDbEntity
  8
0
100
AcDbLine
 10
-171.7531403397933
 20
8.557884486051497
 30
0.0
 11
-172.0031403397933
 21
10.5578844860515
 31
0.0
  0
LINE
  5
3BA
330
1F
100
AcDbEntity
  8
0
100
AcDbLine
 10
-196.8285897613198
 20
53.55788448605146
 30
0.0
 11
-195.5833365432951
 21
53.2296817295076
 31
0.0
  0
LINE
  5
3BB
330
1F
100
AcDbEntity
  8
0
100
AcDbLine
 10
-177.1047936841814
 20
24.7416533348167
 30
0.0
 11
-176.1116031869302
 21
24.87240934435992
 31
0.0
  0
LINE
  5
3BC
330
1F
100
AcDbEntity
  8
0
100
AcDbLine
 10
-179.9815803169531
 20
34.21536061773479
 30
0.0
 11
-177.6571415678811
 21
35.73000763865242
 31
0.0
  0
LINE
  5
3BD
330
1F
100
AcDbEntity
  8
0
100
AcDbLine
 10
-177.6723432460215
 20
24.73032809937248
 30
0.0
 11
-177.4315803169531
 21
24.69863105843415
 31
0.0
  0
LINE
  5
3BE
330
1F
100
AcDbEntity
  8
0
100
AcDbLine
 10
-182.3578020310274
 20
28.47865392841128
 30
0.0
 11
-181.8483098762538
 21
27.24863105843416
 31
0.0
  0
LINE
  5
3BF
330
1F
100
AcDbEntity
  8
0
100
AcDbLine
 10
-181.0378249010045
 20
26.19238647438279
 30
0.0
 11
-179.9815803169531
 21
25.38190149913354
 31
0.0
  0
LINE
  5
3C0
330
1F
100
AcDbEntity
  8
0
100
AcDbLine
 10
-181.4315803169531
 20
26.7055385231406
 30
0.0
 11
-181.0378249010045
 21
26.19238647438279
 31
0.0
  0
LINE
  5
3C1
330
1F
100
AcDbEntity
  8
0
100
AcDbLine
 10
-178.751557446976
 20
24.87240934435992
 30
0.0
 11
-177.6723432460215
 21
24.73032809937248
 31
0.0
  0
LINE
  5
3C2
330
1F
100
AcDbEntity
  8
0
100
AcDbLine
 10
-179.9815803169531
 20
25.38190149913354
 30
0.0
 11
-178.751557446976
 21
24.87240934435992
 31
0.0
  0
LINE
  5
3C3
330
1F
100
AcDbEntity
  8
0
100
AcDbLine
 10
-170.8023151623263
 20
20.78901013544549
 30
0.0
 11
-170.7952685288935
 21
20.81854502605957
 31
0.0
  0
LINE
  5
3C4
330
1F
100
AcDbEntity
  8
0
100
AcDbLine
 10
-175.1047936841815
 20
25.05080113836531
 30
0.0
 11
-175.9294133672182
 21
24.94787483861097
 31
0.0
  0
LINE
  5
3C5
330
1F
100
AcDbEntity
  8
0
100
AcDbLine
 10
-149.056207534585
 20
41.12527006513105
 30
0.0
 11
-148.5772447210263
 21
41.22164944644113
 31
0.0
  0
ENDSEC
  0
SECTION
  2
OBJECTS
  0
DICTIONARY
  5
C
330
0
100
AcDbDictionary
  3
ACAD_GROUP
350
D
  3
ACAD_LAYOUT
350
1A
  3
ACAD_MATERIAL
350
43
  3
ACAD_MLEADERSTYLE
350
6B
  3
ACAD_MLINESTYLE
350
17
  3
ACAD_PLOTSETTINGS
350
19
  3
ACAD_SCALELIST
350
47
  3
ACAD_VISUALSTYLE
350
2A
  3
ACDBHEADERROUNDTRIPXREC
350
3C6
  3
ACDBVARIABLEDICTIONARY
350
3E7
  0
DICTIONARY
  5
3EE
330
8
100
AcDbDictionary
280
     1
  3
ACAD_XREC_ROUNDTRIP
360
3EF
  0
DICTIONARY
  5
D
102
{ACAD_REACTORS
330
C
102
}
330
C
100
AcDbDictionary
  0
DICTIONARY
  5
1A
102
{ACAD_REACTORS
330
C
102
}
330
C
100
AcDbDictionary
  0
DICTIONARY
  5
43
102
{ACAD_REACTORS
330
C
102
}
330
C
100
AcDbDictionary
  3
BYBLOCK
350
45
  3
BYLAYER
350
44
  3
GLOBAL
350
46
  0
DICTIONARY
  5
6B
102
{ACAD_REACTORS
330
C
102
}
330
C
100
AcDbDictionary
  3
STANDARD
350
6C
  0
DICTIONARY
  5
17
102
{ACAD_REACTORS
330
C
102
}
330
C
100
AcDbDictionary
  3
STANDARD
350
18
  0
DICTIONARY
  5
19
102
{ACAD_REACTORS
330
C
102
}
330
C
100
AcDbDictionary
  0
DICTIONARY
  5
47
102
{ACAD_REACTORS
330
C
102
}
330
C
100
AcDbDictionary
  3
A0
350
48
  3
A1
350
49
  3
A2
350
4A
  3
A3
350
4B
  3
A4
350
4C
  3
A5
350
4D
  3
A6
350
4E
  3
A7
350
4F
  3
A8
350
50
  3
A9
350
51
  3
B0
350
52
  3
B1
350
53
  3
B2
350
54
  3
B3
350
55
  3
B4
350
56
  3
B5
350
57
  3
B6
350
58
  3
B7
350
59
  3
B8
350
5A
  3
B9
350
5B
  3
C0
350
5C
  3
C1
350
5D
  3
C2
350
5E
  3
C3
350
5F
  3
C4
350
60
  3
C5
350
61
  3
C6
350
62
  3
C7
350
63
  3
C8
350
64
  3
C9
350
65
  3
D0
350
66
  3
D1
350
67
  3
D2
350
68
  0
DICTIONARY
  5
2A
102
{ACAD_REACTORS
330
C
102
}
330
C
100
AcDbDictionary
  3
2DWIREFRAME
350
2F
  3
BASIC
350
32
  3
BRIGHTEN
350
36
  3
COLORCHANGE
350
3A
  3
CONCEPTUAL
350
34
  3
DIM
350
35
  3
EDGECOLOROFF
350
3D
  3
FACEPATTERN
350
39
  3
FLAT
350
2B
  3
FLATWITHEDGES
350
2C
  3
GOURAUD
350
2D
  3
GOURAUDWITHEDGES
350
2E
  3
HIDDEN
350
31
  3
JITTEROFF
350
3B
  3
LINEPATTERN
350
38
  3
OVERHANGOFF
350
3C
  3
REALISTIC
350
33
  3
SHADED
350
42
  3
SHADED_WITH_EDGES
350
41
  3
SHADES_OF_GRAY
350
3E
  3
SKETCHY
350
3F
  3
THICKEN
350
37
  3
WIREFRAME
350
30
  3
X-RAY
350
40
  0
DICTIONARY
  5
3C6
102
{ACAD_REACTORS
330
C
102
}
330
C
100
AcDbDictionary
  3
CEPSNID
350
3D0
  3
CEPSNTYPE
350
3CF
  3
DIMSTYLEDATA
350
3E6
  3
FINGERPRINTGUID
350
3D1
  3
HYPERLINKBASE
350
3C9
  3
INSUNITS
350
3CE
  3
LAYOUTDICT
350
3CB
  3
LWETCUNION
350
3CD
  3
PLOTSETDICT
350
3CC
  3
PSVPSCALE
350
3D3
  3
PUCSBASE
350
3D6
  3
PUCSORGBACK
350
3DC
  3
PUCSORGBOTTOM
350
3D8
  3
PUCSORGFRONT
350
3DB
  3
PUCSORGLEFT
350
3D9
  3
PUCSORGRIGHT
350
3DA
  3
PUCSORGTOP
350
3D7
  3
PUCSORTHOREF
350
3D4
  3
PUCSORTHOVIEW
350
3D5
  3
STYLESHEET
350
3CA
  3
TSTACKALIGN
350
3C7
  3
TSTACKSIZE
350
3C8
  3
UCSBASE
350
3DF
  3
UCSORGBACK
350
3E5
  3
UCSORGBOTTOM
350
3E1
  3
UCSORGFRONT
350
3E4
  3
UCSORGLEFT
350
3E2
  3
UCSORGRIGHT
350
3E3
  3
UCSORGTOP
350
3E0
  3
UCSORTHOREF
350
3DD
  3
UCSORTHOVIEW
350
3DE
  3
VERSIONGUID
350
3D2
  0
DICTIONARY
  5
3E7
102
{ACAD_REACTORS
330
C
102
}
330
C
100
AcDbDictionary
  3
CANNOSCALE
350
3F0
  3
CMLEADERSTYLE
350
3E9
  3
CTABLESTYLE
350
3E8
  3
DIMASSOC
350
3EC
  3
HIDETEXT
350
3ED
  3
MSLTSCALE
350
3F1
  0
XRECORD
  5
3EF
102
{ACAD_REACTORS
330
3EE
102
}
330
3EE
100
AcDbXrecord
102
VTR_0.000_0.000_1.000_1.000_VISUALSTYLE
340
2F
102
VTR_0.000_0.000_1.000_1.000_GRIDDISPLAY
 70
     3
102
VTR_0.000_0.000_1.000_1.000_GRIDMAJOR
 70
     5
102
VTR_0.000_0.000_1.000_1.000_DEFAULTLIGHTING
280
     1
102
VTR_0.000_0.000_1.000_1.000_DEFAULTLIGHTINGTYPE
 70
     1
102
VTR_0.000_0.000_1.000_1.000_BRIGHTNESS
141
0.0
102
VTR_0.000_0.000_1.000_1.000_CONTRAST
142
0.0
  0
MATERIAL
  5
45
102
{ACAD_REACTORS
330
43
102
}
102
{ACAD_XDICTIONARY
360
3F4
102
}
330
43
100
AcDbMaterial
  1
BYBLOCK
  0
MATERIAL
  5
44
102
{ACAD_REACTORS
330
43
102
}
102
{ACAD_XDICTIONARY
360
3F2
102
}
330
43
100
AcDbMaterial
  1
BYLAYER
  0
MATERIAL
  5
46
102
{ACAD_REACTORS
330
43
102
}
102
{ACAD_XDICTIONARY
360
3F6
102
}
330
43
100
AcDbMaterial
  1
GLOBAL
  0
ACAD_PROXY_OBJECT
  5
6C
102
{ACAD_REACTORS
330
6B
102
}
330
6B
100
AcDbProxyObject
 90
      499
 91
      505
 93
      610
310
40901902A4063FBFFFFFE056BD1B81E855B9FC0AD7A3703D0AD73F4214DD185B99185C9900AD7A3703D0AC73F90141901A02B5E8DC0F42B1CFC02B5E8DC0F42B1CFE5764000000000000300FC0
340
14
340
0
340
11
340
0
 94
        0
1001
ACAD_MLEADERVER
1070
     2
  0
MLINESTYLE
  5
18
102
{ACAD_REACTORS
330
17
102
}
330
17
100
AcDbMlineStyle
  2
Standard
 70
     0
  3

 62
   256
 51
90.0
 52
90.0
 71
     2
 49
0.5
 62
   256
  6
BYLAYER
 49
-0.5
 62
   256
  6
BYLAYER
  0
ACAD_PROXY_OBJECT
  5
48
102
{ACAD_REACTORS
330
47
102
}
330
47
100
AcDbProxyObject
 90
      499
 91
      503
 93
       41
310
903313A31580
  0
ACAD_PROXY_OBJECT
  5
49
102
{ACAD_REACTORS
330
47
102
}
330
47
100
AcDbProxyObject
 90
      499
 91
      503
 93
      105
310
903313A324000000000000004000
  0
ACAD_PROXY_OBJECT
  5
4A
102
{ACAD_REACTORS
330
47
102
}
330
47
100
AcDbProxyObject
 90
      499
 91
      503
 93
      105
310
903313A344000000000000104000
  0
ACAD_PROXY_OBJECT
  5
4B
102
{ACAD_REACTORS
330
47
102
}
330
47
100
AcDbProxyObject
 90
      499
 91
      503
 93
      105
310
903313A354000000000000144000
  0
ACAD_PROXY_OBJECT
  5
4C
102
{ACAD_REACTORS
330
47
102
}
330
47
100
AcDbProxyObject
 90
      499
 91
      503
 93
      105
310
903313A384000000000000204000
  0
ACAD_PROXY_OBJECT
  5
4D
102
{ACAD_REACTORS
330
47
102
}
330
47
100
AcDbProxyObject
 90
      499
 91
      503
 93
      113
310
904313A31304000000000000244000
  0
ACAD_PROXY_OBJECT
  5
4E
102
{ACAD_REACTORS
330
47
102
}
330
47
100
AcDbProxyObject
 90
      499
 91
      503
 93
      113
310
904313A31364000000000000304000
  0
ACAD_PROXY_OBJECT
  5
4F
102
{ACAD_REACTORS
330
47
102
}
330
47
100
AcDbProxyObject
 90
      499
 91
      503
 93
      113
310
904313A32304000000000000344000
  0
ACAD_PROXY_OBJECT
  5
50
102
{ACAD_REACTORS
330
47
102
}
330
47
100
AcDbProxyObject
 90
      499
 91
      503
 93
      113
310
904313A333040000000000003E4000
  0
ACAD_PROXY_OBJECT
  5
51
102
{ACAD_REACTORS
330
47
102
}
330
47
100
AcDbProxyObject
 90
      499
 91
      503
 93
      113
310
904313A34304000000000000444000
  0
ACAD_PROXY_OBJECT
  5
52
102
{ACAD_REACTORS
330
47
102
}
330
47
100
AcDbProxyObject
 90
      499
 91
      503
 93
      113
310
904313A35304000000000000494000
  0
ACAD_PROXY_OBJECT
  5
53
102
{ACAD_REACTORS
330
47
102
}
330
47
100
AcDbProxyObject
 90
      499
 91
      503
 93
      121
310
905313A3130304000000000000594000
  0
ACAD_PROXY_OBJECT
  5
54
102
{ACAD_REACTORS
330
47
102
}
330
47
100
AcDbProxyObject
 90
      499
 91
      503
 93
      105
310
903323A310000000000000010100
  0
ACAD_PROXY_OBJECT
  5
55
102
{ACAD_REACTORS
330
47
102
}
330
47
100
AcDbProxyObject
 90
      499
 91
      503
 93
      105
310
903343A310000000000000410100
  0
ACAD_PROXY_OBJECT
  5
56
102
{ACAD_REACTORS
330
47
102
}
330
47
100
AcDbProxyObject
 90
      499
 91
      503
 93
      105
310
903383A310000000000000810100
  0
ACAD_PROXY_OBJECT
  5
57
102
{ACAD_REACTORS
330
47
102
}
330
47
100
AcDbProxyObject
 90
      499
 91
      503
 93
      113
310
90431303A310000000000000910100
  0
ACAD_PROXY_OBJECT
  5
58
102
{ACAD_REACTORS
330
47
102
}
330
47
100
AcDbProxyObject
 90
      499
 91
      503
 93
      121
310
9053130303A310000000000001650100
  0
ACAD_PROXY_OBJECT
  5
59
102
{ACAD_REACTORS
330
47
102
}
330
47
100
AcDbProxyObject
 90
      499
 91
      503
 93
      257
310
90E312F31323822203D2031272D3022000000000000200FC000000000000284000
  0
ACAD_PROXY_OBJECT
  5
5A
102
{ACAD_REACTORS
330
47
102
}
330
47
100
AcDbProxyObject
 90
      499
 91
      503
 93
      249
310
90D312F363422203D2031272D3022000000000000240FC000000000000284000
  0
ACAD_PROXY_OBJECT
  5
5B
102
{ACAD_REACTORS
330
47
102
}
330
47
100
AcDbProxyObject
 90
      499
 91
      503
 93
      249
310
90D312F333222203D2031272D3022000000000000280FC000000000000284000
  0
ACAD_PROXY_OBJECT
  5
5C
102
{ACAD_REACTORS
330
47
102
}
330
47
100
AcDbProxyObject
 90
      499
 91
      503
 93
      249
310
90D312F313622203D2031272D30220000000000002C0FC000000000000284000
  0
ACAD_PROXY_OBJECT
  5
5D
102
{ACAD_REACTORS
330
47
102
}
330
47
100
AcDbProxyObject
 90
      499
 91
      503
 93
      249
310
90D332F333222203D2031272D30220000000000002E0FC000000000000284000
  0
ACAD_PROXY_OBJECT
  5
5E
102
{ACAD_REACTORS
330
47
102
}
330
47
100
AcDbProxyObject
 90
      499
 91
      503
 93
      241
310
90C312F3822203D2031272D3022000000000000300FC000000000000284000
  0
ACAD_PROXY_OBJECT
  5
5F
102
{ACAD_REACTORS
330
47
102
}
330
47
100
AcDbProxyObject
 90
      499
 91
      503
 93
      249
310
90D332F313622203D2031272D3022000000000000320FC000000000000284000
  0
ACAD_PROXY_OBJECT
  5
60
102
{ACAD_REACTORS
330
47
102
}
330
47
100
AcDbProxyObject
 90
      499
 91
      503
 93
      241
310
90C312F3422203D2031272D3022000000000000340FC000000000000284000
  0
ACAD_PROXY_OBJECT
  5
61
102
{ACAD_REACTORS
330
47
102
}
330
47
100
AcDbProxyObject
 90
      499
 91
      503
 93
      241
310
90C332F3822203D2031272D3022000000000000360FC000000000000284000
  0
ACAD_PROXY_OBJECT
  5
62
102
{ACAD_REACTORS
330
47
102
}
330
47
100
AcDbProxyObject
 90
      499
 91
      503
 93
      241
310
90C312F3222203D2031272D3022000000000000380FC000000000000284000
  0
ACAD_PROXY_OBJECT
  5
63
102
{ACAD_REACTORS
330
47
102
}
330
47
100
AcDbProxyObject
 90
      499
 91
      503
 93
      241
310
90C332F3422203D2031272D30220000000000003A0FC000000000000284000
  0
ACAD_PROXY_OBJECT
  5
64
102
{ACAD_REACTORS
330
47
102
}
330
47
100
AcDbProxyObject
 90
      499
 91
      503
 93
      161
310
90A3122203D2031272D30224000000000000284000
  0
ACAD_PROXY_OBJECT
  5
65
102
{ACAD_REACTORS
330
47
102
}
330
47
100
AcDbProxyObject
 90
      499
 91
      503
 93
      257
310
90E312D312F3222203D2031272D30220000000000003E0FC000000000000284000
  0
ACAD_PROXY_OBJECT
  5
66
102
{ACAD_REACTORS
330
47
102
}
330
47
100
AcDbProxyObject
 90
      499
 91
      503
 93
      225
310
90A3322203D2031272D302200000000000002100000000000000284000
  0
ACAD_PROXY_OBJECT
  5
67
102
{ACAD_REACTORS
330
47
102
}
330
47
100
AcDbProxyObject
 90
      499
 91
      503
 93
      225
310
90A3622203D2031272D302200000000000006100000000000000284000
  0
ACAD_PROXY_OBJECT
  5
68
102
{ACAD_REACTORS
330
47
102
}
330
47
100
AcDbProxyObject
 90
      499
 91
      503
 93
      249
310
90D31272D3022203D2031272D30220000000000000A100000000000000284000
  0
ACAD_PROXY_OBJECT
  5
2F
102
{ACAD_REACTORS
330
2A
102
}
330
2A
100
AcDbProxyObject
 90
      499
 91
      501
 93
      436
310
42CC9915DA5C99599C985B595049028333333333333E33F0000000000000F90107901411070040501600405405064090741402480A0340
1001
ACAD
1000
AcDbSavedByObjectVersion
1070
     0
  0
ACAD_PROXY_OBJECT
  5
32
102
{ACAD_REACTORS
330
2A
102
}
330
2A
100
AcDbProxyObject
 90
      499
 91
      501
 93
      388
310
4150985CDA58D07406404333333333333E33F0000000000000F90107A41107004050150841D405064090741402480A0350
1001
ACAD
1000
AcDbSavedByObjectVersion
1070
     0
  0
ACAD_PROXY_OBJECT
  5
36
102
{ACAD_REACTORS
330
2A
102
}
330
2A
100
AcDbProxyObject
 90
      499
 91
      501
 93
      428
310
42109C9A59DA1D195B90C409028333333333333E33F0000000000000F9010790141107004050150841D405064090741402480A029950
1001
ACAD
1000
AcDbSavedByObjectVersion
1070
     0
  0
ACAD_PROXY_OBJECT
  5
3A
102
{ACAD_REACTORS
330
2A
102
}
330
2A
100
AcDbProxyObject
 90
      499
 91
      501
 93
      452
310
42D0DBDB1BDC90DA185B99D95104090240C333333333333E33F0000000000000F90108901411070040501508421405064090741402480A0350
1001
ACAD
1000
AcDbSavedByObjectVersion
1070
     0
  0
ACAD_PROXY_OBJECT
  5
34
102
{ACAD_REACTORS
330
2A
102
}
330
2A
100
AcDbProxyObject
 90
      499
 91
      501
 93
      500
310
4290DBDB98D95C1D1D585B10940D028333333333333E33F0000000000000F90107902409070040501000000000018199010841D405064090740C02480A0340
1001
ACAD
1000
AcDbSavedByObjectVersion
1070
     0
  0
ACAD_PROXY_OBJECT
  5
35
102
{ACAD_REACTORS
330
2A
102
}
330
2A
100
AcDbProxyObject
 90
      499
 91
      501
 93
      412
310
40D11A5B50B409028333333333333E33F0000000000000F9010790141107004050150841D405064090741402480A02677FFFFFD0
1001
ACAD
1000
AcDbSavedByObjectVersion
1070
     0
  0
ACAD_PROXY_OBJECT
  5
3D
102
{ACAD_REACTORS
330
2A
102
}
330
2A
100
AcDbProxyObject
 90
      499
 91
      501
 93
      452
310
43115919D950DBDB1BDC93D999916409028333333333333E33F0000000000000F9010790141107004050150841D405064090741402480A0350
1001
ACAD
1000
AcDbSavedByObjectVersion
1070
     0
  0
ACAD_PROXY_OBJECT
  5
39
102
{ACAD_REACTORS
330
2A
102
}
330
2A
100
AcDbProxyObject
 90
      499
 91
      501
 93
      444
310
42D19858D95C185D1D195C9B90F409028333333333333E33F0000000000000F9010790141107004050150841D405064090741402480A0350
1001
ACAD
1000
AcDbSavedByObjectVersion
1070
     0
  0
ACAD_PROXY_OBJECT
  5
2B
102
{ACAD_REACTORS
330
2A
102
}
330
2A
100
AcDbProxyObject
 90
      499
 91
      501
 93
      380
310
41119B185D240901404333333333333E33F0000000000000F9010740A907004050150841D405064090741402480A1B50
1001
ACAD
1000
AcDbSavedByObjectVersion
1070
     0
  0
ACAD_PROXY_OBJECT
  5
2C
102
{ACAD_REACTORS
330
2A
102
}
330
2A
100
AcDbProxyObject
 90
      499
 91
      501
 93
      468
310
43519B185D15DA5D1A115919D95CD0140901404333333333333E33F0000000000000F90107409019070040501600405405064090741402480A1B50
1001
ACAD
1000
AcDbSavedByObjectVersion
1070
     0
  0
ACAD_PROXY_OBJECT
  5
2D
102
{ACAD_REACTORS
330
2A
102
}
330
2A
100
AcDbProxyObject
 90
      499
 91
      501
 93
      404
310
41D1DBDD5C985D5910240902404333333333333E33F0000000000000F9010740A9070040501641D405064090741402480A1B50
1001
ACAD
1000
AcDbSavedByObjectVersion
1070
     0
  0
ACAD_PROXY_OBJECT
  5
2E
102
{ACAD_REACTORS
330
2A
102
}
330
2A
100
AcDbProxyObject
 90
      499
 91
      501
 93
      492
310
4411DBDD5C985D5915DA5D1A115919D95CD0340902404333333333333E33F0000000000000F90107409019070040501600405405064090741402480A1B50
1001
ACAD
1000
AcDbSavedByObjectVersion
1070
     0
  0
ACAD_PROXY_OBJECT
  5
31
102
{ACAD_REACTORS
330
2A
102
}
330
2A
100
AcDbProxyObject
 90
      499
 91
      501
 93
      476
310
41921A5919195B90640502408333333333333E33F0000000000000F901079024090700405020000000000001110200405405064090740C02480A0340
1001
ACAD
1000
AcDbSavedByObjectVersion
1070
     0
  0
ACAD_PROXY_OBJECT
  5
3B
102
{ACAD_REACTORS
330
2A
102
}
330
2A
100
AcDbProxyObject
 90
      499
 91
      501
 93
      428
310
42529A5D1D195C93D999914409028333333333333E33F0000000000000F9010790141107004050150A41D405064090741402480A0350
1001
ACAD
1000
AcDbSavedByObjectVersion
1070
     0
  0
ACAD_PROXY_OBJECT
  5
38
102
{ACAD_REACTORS
330
2A
102
}
330
2A
100
AcDbProxyObject
 90
      499
 91
      501
 93
      444
310
42D31A5B995C185D1D195C9B90E409028333333333333E33F0000000000000F9010790141107004050750841D405064090741402483A0350
1001
ACAD
1000
AcDbSavedByObjectVersion
1070
     0
  0
ACAD_PROXY_OBJECT
  5
3C
102
{ACAD_REACTORS
330
2A
102
}
330
2A
100
AcDbProxyObject
 90
      499
 91
      501
 93
      444
310
42D3DD995C9A185B99D3D999915409028333333333333E33F0000000000000F9010790141107004050150941D405064090741402480A0350
1001
ACAD
1000
AcDbSavedByObjectVersion
1070
     0
  0
ACAD_PROXY_OBJECT
  5
33
102
{ACAD_REACTORS
330
2A
102
}
330
2A
100
AcDbProxyObject
 90
      499
 91
      501
 93
      428
310
425499585B1A5CDD1A58D08409038333333333333E33F0000000000000F9010740A907004050150800405405064090740C02480A1B40
1001
ACAD
1000
AcDbSavedByObjectVersion
1070
     0
  0
ACAD_PROXY_OBJECT
  5
42
102
{ACAD_REACTORS
330
2A
102
}
330
2A
100
AcDbProxyObject
 90
      499
 91
      501
 93
      420
310
4194DA1859195911B40902404333333333333E33F0000000000000F9010740A41107004050150800405405064090840C02480A0B40
1001
ACAD
1000
AcDbSavedByObjectVersion
1070
     0
  0
ACAD_PROXY_OBJECT
  5
41
102
{ACAD_REACTORS
330
2A
102
}
330
2A
100
AcDbProxyObject
 90
      499
 91
      501
 93
      516
310
4454DA18591959081DDA5D1A08195919D95CD1A40902404333333333333E33F0000000000000F901074090142907004050250800405405064090740C02480A0B40
1001
ACAD
1000
AcDbSavedByObjectVersion
1070
     0
  0
ACAD_PROXY_OBJECT
  5
3E
102
{ACAD_REACTORS
330
2A
102
}
330
2A
100
AcDbProxyObject
 90
      499
 91
      501
 93
      532
310
4394DA1859195CC81BD98811DC985E5174090240C333333333333E33F0000000000000F901079024090741D01000000000000111010841D405064090740C02480A0340
1001
ACAD
1000
AcDbSavedByObjectVersion
1070
     0
  0
ACAD_PROXY_OBJECT
  5
3F
102
{ACAD_REACTORS
330
2A
102
}
330
2A
100
AcDbProxyObject
 90
      499
 91
      501
 93
      476
310
41D4DAD95D18DA1E51840502408333333333333E33F0000000000000F901079024090741D01000000000000111010B41D405064090741802480A0340
1001
ACAD
1000
AcDbSavedByObjectVersion
1070
     0
  0
ACAD_PROXY_OBJECT
  5
37
102
{ACAD_REACTORS
330
2A
102
}
330
2A
100
AcDbProxyObject
 90
      499
 91
      501
 93
      412
310
41D51A1A58DAD95B90D409028333333333333E33F0000000000000F9010790141107004050150C41D405064090741402480A0350
1001
ACAD
1000
AcDbSavedByObjectVersion
1070
     0
  0
ACAD_PROXY_OBJECT
  5
30
102
{ACAD_REACTORS
330
2A
102
}
330
2A
100
AcDbProxyObject
 90
      499
 91
      501
 93
      420
310
4255DA5C99599C985B595059028333333333333E33F0000000000000F90107901411070040501600405405064090740C02480A0340
1001
ACAD
1000
AcDbSavedByObjectVersion
1070
     0
  0
ACAD_PROXY_OBJECT
  5
40
102
{ACAD_REACTORS
330
2A
102
}
330
2A
100
AcDbProxyObject
 90
      499
 91
      501
 93
      404
310
41560B54985E51940902404000000000000E03F0000000000000F9010740501907004050150841D405064090740C02480A1B40
1001
ACAD
1000
AcDbSavedByObjectVersion
1070
     0
  0
XRECORD
  5
3D0
102
{ACAD_REACTORS
330
3C6
102
}
330
3C6
100
AcDbXrecord
340
0
  0
XRECORD
  5
3CF
102
{ACAD_REACTORS
330
3C6
102
}
330
3C6
100
AcDbXrecord
 90
        0
  0
XRECORD
  5
3E6
102
{ACAD_REACTORS
330
3C6
102
}
330
3C6
100
AcDbXrecord
1000
DSTYLE
1002
{
1070
   171
 70
     2
1070
   143
 40
25.4
1070
   274
 70
     2
1070
    41
 40
0.18
1070
   141
 40
0.09
1070
   271
 70
     4
1070
    43
 40
0.38
1070
   278
 70
    46
1070
    44
 40
0.18
1070
    42
 40
0.0625
1070
   147
 40
0.09
1070
    77
 70
     0
1070
   272
 70
     4
1070
    73
 70
     1
1070
   172
 70
     0
1070
    74
 70
     1
1070
   283
 70
     1
1070
   340
340
11
1070
   140
 40
0.18
1070
   284
 70
     0
1070
    78
 70
     0
1002
}
  0
XRECORD
  5
3D1
102
{ACAD_REACTORS
330
3C6
102
}
330
3C6
100
AcDbXrecord
  1
{1F1B76AA-39A6-47C9-8441-B9D5C5E15CA4}
  0
XRECORD
  5
3C9
102
{ACAD_REACTORS
330
3C6
102
}
330
3C6
100
AcDbXrecord
  1

  0
XRECORD
  5
3CE
102
{ACAD_REACTORS
330
3C6
102
}
330
3C6
100
AcDbXrecord
 90
        4
  0
XRECORD
  5
3CB
102
{ACAD_REACTORS
330
3C6
102
}
330
3C6
100
AcDbXrecord
340
1A
  0
XRECORD
  5
3CD
102
{ACAD_REACTORS
330
3C6
102
}
330
3C6
100
AcDbXrecord
 90
    10781
  0
XRECORD
  5
3CC
102
{ACAD_REACTORS
330
3C6
102
}
330
3C6
100
AcDbXrecord
340
19
  0
XRECORD
  5
3D3
102
{ACAD_REACTORS
330
3C6
102
}
330
3C6
100
AcDbXrecord
 40
0.0
  0
XRECORD
  5
3D6
102
{ACAD_REACTORS
330
3C6
102
}
330
3C6
100
AcDbXrecord
340
0
  0
XRECORD
  5
3DC
102
{ACAD_REACTORS
330
3C6
102
}
330
3C6
100
AcDbXrecord
 10
0.0
 20
0.0
 30
0.0
  0
XRECORD
  5
3D8
102
{ACAD_REACTORS
330
3C6
102
}
330
3C6
100
AcDbXrecord
 10
0.0
 20
0.0
 30
0.0
  0
XRECORD
  5
3DB
102
{ACAD_REACTORS
330
3C6
102
}
330
3C6
100
AcDbXrecord
 10
0.0
 20
0.0
 30
0.0
  0
XRECORD
  5
3D9
102
{ACAD_REACTORS
330
3C6
102
}
330
3C6
100
AcDbXrecord
 10
0.0
 20
0.0
 30
0.0
  0
XRECORD
  5
3DA
102
{ACAD_REACTORS
330
3C6
102
}
330
3C6
100
AcDbXrecord
 10
0.0
 20
0.0
 30
0.0
  0
XRECORD
  5
3D7
102
{ACAD_REACTORS
330
3C6
102
}
330
3C6
100
AcDbXrecord
 10
0.0
 20
0.0
 30
0.0
  0
XRECORD
  5
3D4
102
{ACAD_REACTORS
330
3C6
102
}
330
3C6
100
AcDbXrecord
340
0
  0
XRECORD
  5
3D5
102
{ACAD_REACTORS
330
3C6
102
}
330
3C6
100
AcDbXrecord
 70
     0
  0
XRECORD
  5
3CA
102
{ACAD_REACTORS
330
3C6
102
}
330
3C6
100
AcDbXrecord
  1

  0
XRECORD
  5
3C7
102
{ACAD_REACTORS
330
3C6
102
}
330
3C6
100
AcDbXrecord
 90
        1
  0
XRECORD
  5
3C8
102
{ACAD_REACTORS
330
3C6
102
}
330
3C6
100
AcDbXrecord
 90
       70
  0
XRECORD
  5
3DF
102
{ACAD_REACTORS
330
3C6
102
}
330
3C6
100
AcDbXrecord
340
0
  0
XRECORD
  5
3E5
102
{ACAD_REACTORS
330
3C6
102
}
330
3C6
100
AcDbXrecord
 10
0.0
 20
0.0
 30
0.0
  0
XRECORD
  5
3E1
102
{ACAD_REACTORS
330
3C6
102
}
330
3C6
100
AcDbXrecord
 10
0.0
 20
0.0
 30
0.0
  0
XRECORD
  5
3E4
102
{ACAD_REACTORS
330
3C6
102
}
330
3C6
100
AcDbXrecord
 10
0.0
 20
0.0
 30
0.0
  0
XRECORD
  5
3E2
102
{ACAD_REACTORS
330
3C6
102
}
330
3C6
100
AcDbXrecord
 10
0.0
 20
0.0
 30
0.0
  0
XRECORD
  5
3E3
102
{ACAD_REACTORS
330
3C6
102
}
330
3C6
100
AcDbXrecord
 10
0.0
 20
0.0
 30
0.0
  0
XRECORD
  5
3E0
102
{ACAD_REACTORS
330
3C6
102
}
330
3C6
100
AcDbXrecord
 10
0.0
 20
0.0
 30
0.0
  0
XRECORD
  5
3DD
102
{ACAD_REACTORS
330
3C6
102
}
330
3C6
100
AcDbXrecord
340
0
  0
XRECORD
  5
3DE
102
{ACAD_REACTORS
330
3C6
102
}
330
3C6
100
AcDbXrecord
 70
     0
  0
XRECORD
  5
3D2
102
{ACAD_REACTORS
330
3C6
102
}
330
3C6
100
AcDbXrecord
  1
{FAEB1C32-E019-11D5-929B-00C0DF256EC4}
  0
DICTIONARYVAR
  5
3F0
102
{ACAD_REACTORS
330
3E7
102
}
330
3E7
100
DictionaryVariables
280
     0
  1
1:1
  0
DICTIONARYVAR
  5
3E9
102
{ACAD_REACTORS
330
3E7
102
}
330
3E7
100
DictionaryVariables
280
     0
  1
Standard
  0
DICTIONARYVAR
  5
3E8
102
{ACAD_REACTORS
330
3E7
102
}
330
3E7
100
DictionaryVariables
280
     0
  1
Standard
  0
DICTIONARYVAR
  5
3EC
102
{ACAD_REACTORS
330
3E7
102
}
330
3E7
100
DictionaryVariables
280
     0
  1
2
  0
DICTIONARYVAR
  5
3ED
102
{ACAD_REACTORS
330
3E7
102
}
330
3E7
100
DictionaryVariables
280
     0
  1
1
  0
DICTIONARYVAR
  5
3F1
102
{ACAD_REACTORS
330
3E7
102
}
330
3E7
100
DictionaryVariables
280
     0
  1
1
  0
DICTIONARY
  5
3F4
330
45
100
AcDbDictionary
280
     1
  3
ACAD_XREC_ROUNDTRIP
360
3F5
  0
DICTIONARY
  5
3F2
330
44
100
AcDbDictionary
280
     1
  3
ACAD_XREC_ROUNDTRIP
360
3F3
  0
DICTIONARY
  5
3F6
330
46
100
AcDbDictionary
280
     1
  3
ACAD_XREC_ROUNDTRIP
360
3F7
  0
XRECORD
  5
3F5
102
{ACAD_REACTORS
330
3F4
102
}
330
3F4
100
AcDbXrecord
102
MATERIAL
148
0.0
149
0.0
149
0.0
 93
        0
 94
      127
282
     0
 72
     1
 77
     1
171
     1
175
     1
179
     1
273
     0
  0
XRECORD
  5
3F3
102
{ACAD_REACTORS
330
3F2
102
}
330
3F2
100
AcDbXrecord
102
MATERIAL
148
0.0
149
0.0
149
0.0
 93
        0
 94
      127
282
     0
 72
     1
 77
     1
171
     1
175
     1
179
     1
273
     0
  0
XRECORD
  5
3F7
102
{ACAD_REACTORS
330
3F6
102
}
330
3F6
100
AcDbXrecord
102
MATERIAL
148
0.0
149
0.0
149
0.0
 93
        0
 94
      127
282
     0
 72
     1
 77
     1
171
     1
175
     1
179
     1
273
     0
  0
ENDSEC
  0
EOF
