  0
SECTION
  2
HEADER
  9
$ACADVER
  1
AC1014
  9
$ACADMAINTVER
 70
     9
  9
$DWGCODEPAGE
  3
ANSI_1252
  9
$INSBASE
 10
0.0
 20
0.0
 30
0.0
  9
$EXTMIN
 10
1.000000000000000E+20
 20
1.000000000000000E+20
 30
1.000000000000000E+20
  9
$EXTMAX
 10
-1.000000000000000E+20
 20
-1.000000000000000E+20
 30
-1.000000000000000E+20
  9
$LIMMIN
 10
0.0
 20
0.0
  9
$LIMMAX
 10
12.0
 20
9.0
  9
$ORTHOMODE
 70
     0
  9
$REGENMODE
 70
     1
  9
$FILLMODE
 70
     1
  9
$QTEXTMODE
 70
     0
  9
$MIRRTEXT
 70
     1
  9
$DRAGMODE
 70
     2
  9
$LTSCALE
 40
1.0
  9
$OSMODE
 70
    37
  9
$ATTMODE
 70
     1
  9
$TEXTSIZE
 40
0.2
  9
$TRACEWID
 40
0.05
  9
$TEXTSTYLE
  7
STANDARD
  9
$CLAYER
  8
0
  9
$CELTYPE
  6
BYLAYER
  9
$CECOLOR
 62
   256
  9
$CELTSCALE
 40
1.0
  9
$DELOBJ
 70
     1
  9
$DISPSILH
 70
     0
  9
$DIMSCALE
 40
1.0
  9
$DIMASZ
 40
0.18
  9
$DIMEXO
 40
0.0625
  9
$DIMDLI
 40
0.38
  9
$DIMRND
 40
0.0
  9
$DIMDLE
 40
0.0
  9
$DIMEXE
 40
0.18
  9
$DIMTP
 40
0.0
  9
$DIMTM
 40
0.0
  9
$DIMTXT
 40
0.18
  9
$DIMCEN
 40
0.09
  9
$DIMTSZ
 40
0.0
  9
$DIMTOL
 70
     0
  9
$DIMLIM
 70
     0
  9
$DIMTIH
 70
     1
  9
$DIMTOH
 70
     1
  9
$DIMSE1
 70
     0
  9
$DIMSE2
 70
     0
  9
$DIMTAD
 70
     0
  9
$DIMZIN
 70
     0
  9
$DIMBLK
  1

  9
$DIMASO
 70
     1
  9
$DIMSHO
 70
     1
  9
$DIMPOST
  1

  9
$DIMAPOST
  1

  9
$DIMALT
 70
     0
  9
$DIMALTD
 70
     2
  9
$DIMALTF
 40
25.4
  9
$DIMLFAC
 40
1.0
  9
$DIMTOFL
 70
     0
  9
$DIMTVP
 40
0.0
  9
$DIMTIX
 70
     0
  9
$DIMSOXD
 70
     0
  9
$DIMSAH
 70
     0
  9
$DIMBLK1
  1

  9
$DIMBLK2
  1

  9
$DIMSTYLE
  2
STANDARD
  9
$DIMCLRD
 70
     0
  9
$DIMCLRE
 70
     0
  9
$DIMCLRT
 70
     0
  9
$DIMTFAC
 40
1.0
  9
$DIMGAP
 40
0.09
  9
$DIMJUST
 70
     0
  9
$DIMSD1
 70
     0
  9
$DIMSD2
 70
     0
  9
$DIMTOLJ
 70
     1
  9
$DIMTZIN
 70
     0
  9
$DIMALTZ
 70
     0
  9
$DIMALTTZ
 70
     0
  9
$DIMFIT
 70
     3
  9
$DIMUPT
 70
     0
  9
$DIMUNIT
 70
     2
  9
$DIMDEC
 70
     4
  9
$DIMTDEC
 70
     4
  9
$DIMALTU
 70
     2
  9
$DIMALTTD
 70
     2
  9
$DIMTXSTY
  7
STANDARD
  9
$DIMAUNIT
 70
     0
  9
$LUNITS
 70
     2
  9
$LUPREC
 70
     4
  9
$SKETCHINC
 40
0.1
  9
$FILLETRAD
 40
0.5
  9
$AUNITS
 70
     0
  9
$AUPREC
 70
     0
  9
$MENU
  1
.
  9
$ELEVATION
 40
0.0
  9
$PELEVATION
 40
0.0
  9
$THICKNESS
 40
0.0
  9
$LIMCHECK
 70
     0
  9
$CHAMFERA
 40
0.0
  9
$CHAMFERB
 40
0.0
  9
$CHAMFERC
 40
0.0
  9
$CHAMFERD
 40
0.0
  9
$SKPOLY
 70
     0
  9
$TDCREATE
 40
2459274.884708657
  9
$TDUPDATE
 40
2459274.884708785
  9
$TDINDWG
 40
0.0000000116
  9
$TDUSRTIMER
 40
0.0000000116
  9
$USRTIMER
 70
     1
  9
$ANGBASE
 50
0.0
  9
$ANGDIR
 70
     0
  9
$PDMODE
 70
     0
  9
$PDSIZE
 40
0.0
  9
$PLINEWID
 40
0.0
  9
$COORDS
 70
     1
  9
$SPLFRAME
 70
     0
  9
$SPLINETYPE
 70
     6
  9
$SPLINESEGS
 70
     8
  9
$ATTDIA
 70
     0
  9
$ATTREQ
 70
     1
  9
$HANDLING
 70
     1
  9
$HANDSEED
  5
39B
  9
$SURFTAB1
 70
     6
  9
$SURFTAB2
 70
     6
  9
$SURFTYPE
 70
     6
  9
$SURFU
 70
     6
  9
$SURFV
 70
     6
  9
$UCSNAME
  2

  9
$UCSORG
 10
0.0
 20
0.0
 30
0.0
  9
$UCSXDIR
 10
1.0
 20
0.0
 30
0.0
  9
$UCSYDIR
 10
0.0
 20
1.0
 30
0.0
  9
$PUCSNAME
  2

  9
$PUCSORG
 10
0.0
 20
0.0
 30
0.0
  9
$PUCSXDIR
 10
1.0
 20
0.0
 30
0.0
  9
$PUCSYDIR
 10
0.0
 20
1.0
 30
0.0
  9
$USERI1
 70
     0
  9
$USERI2
 70
     0
  9
$USERI3
 70
     0
  9
$USERI4
 70
     0
  9
$USERI5
 70
     0
  9
$USERR1
 40
0.0
  9
$USERR2
 40
0.0
  9
$USERR3
 40
0.0
  9
$USERR4
 40
0.0
  9
$USERR5
 40
0.0
  9
$WORLDVIEW
 70
     1
  9
$SHADEDGE
 70
     3
  9
$SHADEDIF
 70
    70
  9
$TILEMODE
 70
     1
  9
$MAXACTVP
 70
    64
  9
$PINSBASE
 10
0.0
 20
0.0
 30
0.0
  9
$PLIMCHECK
 70
     0
  9
$PEXTMIN
 10
1.000000000000000E+20
 20
1.000000000000000E+20
 30
1.000000000000000E+20
  9
$PEXTMAX
 10
-1.000000000000000E+20
 20
-1.000000000000000E+20
 30
-1.000000000000000E+20
  9
$PLIMMIN
 10
0.0
 20
0.0
  9
$PLIMMAX
 10
12.0
 20
9.0
  9
$UNITMODE
 70
     0
  9
$VISRETAIN
 70
     1
  9
$PLINEGEN
 70
     0
  9
$PSLTSCALE
 70
     1
  9
$TREEDEPTH
 70
  3020
  9
$PICKSTYLE
 70
     1
  9
$CMLSTYLE
  2
STANDARD
  9
$CMLJUST
 70
     0
  9
$CMLSCALE
 40
1.0
  9
$PROXYGRAPHICS
 70
     1
  9
$MEASUREMENT
 70
     1
  0
ENDSEC
  0
SECTION
  2
CLASSES
  0
CLASS
  1
ACDBDICTIONARYWDFLT
  2
AcDbDictionaryWithDefault
  3
ObjectDBX Classes
 90
        0
280
     0
281
     0
  0
CLASS
  1
VISUALSTYLE
  2
AcDbVisualStyle
  3
ObjectDBX Classes
 90
     4095
280
     0
281
     0
  0
CLASS
  1
MATERIAL
  2
AcDbMaterial
  3
ObjectDBX Classes
 90
     1153
280
     0
281
     0
  0
CLASS
  1
SCALE
  2
AcDbScale
  3
ObjectDBX Classes
 90
     1153
280
     0
281
     0
  0
CLASS
  1
TABLESTYLE
  2
AcDbTableStyle
  3
ObjectDBX Classes
 90
     4095
280
     0
281
     0
  0
CLASS
  1
MLEADERSTYLE
  2
AcDbMLeaderStyle
  3
ACDB_MLEADERSTYLE_CLASS
 90
     4095
280
     0
281
     0
  0
CLASS
  1
SUN
  2
AcDbSun
  3
SCENEOE
 90
     1153
280
     0
281
     0
  0
CLASS
  1
DICTIONARYVAR
  2
AcDbDictionaryVar
  3
ObjectDBX Classes
 90
        0
280
     0
281
     0
  0
CLASS
  1
XRECORD
  2
AcDbXrecord
  3
ObjectDBX Classes
 90
        0
280
     0
281
     0
  0
CLASS
  1
LWPOLYLINE
  2
AcDbPolyline
  3
ObjectDBX Classes
 90
        0
280
     0
281
     1
  0
CLASS
  1
HATCH
  2
AcDbHatch
  3
ObjectDBX Classes
 90
        0
280
     0
281
     1
  0
CLASS
  1
ACDBPLACEHOLDER
  2
AcDbPlaceHolder
  3
ObjectDBX Classes
 90
        0
280
     0
281
     0
  0
CLASS
  1
LAYOUT
  2
AcDbLayout
  3
ObjectDBX Classes
 90
        0
280
     0
281
     0
  0
ENDSEC
  0
SECTION
  2
TABLES
  0
TABLE
  2
VPORT
  5
8
102
{ACAD_XDICTIONARY
360
390
102
}
330
0
100
AcDbSymbolTable
 70
     1
  0
VPORT
  5
29
330
8
100
AcDbSymbolTableRecord
100
AcDbViewportTableRecord
  2
*ACTIVE
 70
     0
 10
0.0
 20
0.0
 11
1.0
 21
1.0
 12
0.0
 22
0.0
 13
0.0
 23
0.0
 14
0.5
 24
0.5
 15
0.5
 25
0.5
 16
0.0
 26
0.0
 36
1.0
 17
0.0
 27
0.0
 37
-1000.0
 40
122.1776051168674
 41
1.697478991596638
 42
50.0
 43
162.9440358092288
 44
227.0938215446256
 50
0.0
 51
0.0
 71
     0
 72
   100
 73
     1
 74
     3
 75
     0
 76
     0
 77
     0
 78
     0
  0
ENDTAB
  0
TABLE
  2
LTYPE
  5
5
330
0
100
AcDbSymbolTable
 70
     1
  0
LTYPE
  5
14
330
5
100
AcDbSymbolTableRecord
100
AcDbLinetypeTableRecord
  2
BYBLOCK
 70
     0
  3

 72
    65
 73
     0
 40
0.0
  0
LTYPE
  5
15
330
5
100
AcDbSymbolTableRecord
100
AcDbLinetypeTableRecord
  2
BYLAYER
 70
     0
  3

 72
    65
 73
     0
 40
0.0
  0
LTYPE
  5
16
330
5
100
AcDbSymbolTableRecord
100
AcDbLinetypeTableRecord
  2
CONTINUOUS
 70
     0
  3
Solid line
 72
    65
 73
     0
 40
0.0
  0
ENDTAB
  0
TABLE
  2
LAYER
  5
2
330
0
100
AcDbSymbolTable
 70
     3
  0
LAYER
  5
10
330
2
100
AcDbSymbolTableRecord
100
AcDbLayerTableRecord
  2
0
 70
     0
 62
     7
  6
CONTINUOUS
  0
LAYER
  5
6E
330
2
100
AcDbSymbolTableRecord
100
AcDbLayerTableRecord
  2
PROFILEEDGES
 70
     0
 62
     7
  6
CONTINUOUS
  0
LAYER
  5
6F
330
2
100
AcDbSymbolTableRecord
100
AcDbLayerTableRecord
  2
SECTIONCUTEDGES
 70
     0
 62
     7
  6
CONTINUOUS
  0
ENDTAB
  0
TABLE
  2
STYLE
  5
3
330
0
100
AcDbSymbolTable
 70
     1
  0
STYLE
  5
11
330
3
100
AcDbSymbolTableRecord
100
AcDbTextStyleTableRecord
  2
STANDARD
 70
     0
 40
0.0
 41
1.0
 50
0.0
 71
     0
 42
0.2
  3
txt
  4

  0
ENDTAB
  0
TABLE
  2
VIEW
  5
6
330
0
100
AcDbSymbolTable
 70
     0
  0
ENDTAB
  0
TABLE
  2
UCS
  5
7
330
0
100
AcDbSymbolTable
 70
     0
  0
ENDTAB
  0
TABLE
  2
APPID
  5
9
330
0
100
AcDbSymbolTable
 70
     2
  0
APPID
  5
12
330
9
100
AcDbSymbolTableRecord
100
AcDbRegAppTableRecord
  2
ACAD
 70
     0
  0
APPID
  5
39A
330
9
100
AcDbSymbolTableRecord
100
AcDbRegAppTableRecord
  2
ACAD_MLEADERVER
 70
     0
  0
ENDTAB
  0
TABLE
  2
DIMSTYLE
  5
A
330
0
100
AcDbSymbolTable
 70
     1
  0
DIMSTYLE
105
27
330
A
100
AcDbSymbolTableRecord
100
AcDbDimStyleTableRecord
  2
STANDARD
 70
     0
  3

  4

  5

  6

  7

 40
1.0
 41
0.18
 42
0.0625
 43
0.38
 44
0.18
 45
0.0
 46
0.0
 47
0.0
 48
0.0
140
0.18
141
0.09
142
0.0
143
25.4
144
1.0
145
0.0
146
1.0
147
0.09
 71
     0
 72
     0
 73
     1
 74
     1
 75
     0
 76
     0
 77
     0
 78
     0
170
     0
171
     2
172
     0
173
     0
174
     0
175
     0
176
     0
177
     0
178
     0
270
     2
271
     4
272
     4
273
     2
274
     2
340
11
275
     0
280
     0
281
     0
282
     0
283
     1
284
     0
285
     0
286
     0
287
     3
288
     0
  0
ENDTAB
  0
TABLE
  2
BLOCK_RECORD
  5
1
330
0
100
AcDbSymbolTable
 70
     1
  0
BLOCK_RECORD
  5
1F
330
1
100
AcDbSymbolTableRecord
100
AcDbBlockTableRecord
  2
*MODEL_SPACE
  0
BLOCK_RECORD
  5
1B
330
1
100
AcDbSymbolTableRecord
100
AcDbBlockTableRecord
  2
*PAPER_SPACE
  0
ENDTAB
  0
ENDSEC
  0
SECTION
  2
BLOCKS
  0
BLOCK
  5
20
330
1F
100
AcDbEntity
  8
0
100
AcDbBlockBegin
  2
*MODEL_SPACE
 70
     0
 10
0.0
 20
0.0
 30
0.0
  3
*MODEL_SPACE
  1

  0
ENDBLK
  5
21
330
1F
100
AcDbEntity
  8
0
100
AcDbBlockEnd
  0
BLOCK
  5
1C
330
1B
100
AcDbEntity
 67
     1
  8
0
100
AcDbBlockBegin
  2
*PAPER_SPACE
 70
     0
 10
0.0
 20
0.0
 30
0.0
  3
*PAPER_SPACE
  1

  0
ENDBLK
  5
1D
330
1B
100
AcDbEntity
 67
     1
  8
0
100
AcDbBlockEnd
  0
ENDSEC
  0
SECTION
  2
ENTITIES
  0
LINE
  5
70
330
1F
100
AcDbEntity
  8
0
100
AcDbLine
 10
-20.16156815956001
 20
-9.09999999999996
 30
0.0
 11
-17.67690532657577
 21
-8.772887932375035
 31
0.0
  0
LINE
  5
71
330
1F
100
AcDbEntity
  8
0
100
AcDbLine
 10
16.77777166866021
 20
25.56066017177982
 30
0.0
 11
16.53939373476334
 21
25.24999999999999
 31
0.0
  0
LINE
  5
72
330
1F
100
AcDbEntity
  8
0
100
AcDbLine
 10
-38.78111434092545
 20
11.25000000000001
 30
0.0
 11
-40.92897342477492
 21
6.064609469704187
 31
0.0
  0
LINE
  5
73
330
1F
100
AcDbEntity
  8
0
100
AcDbLine
 10
-48.70056284364701
 20
22.13404644019163
 30
0.0
 11
-46.81570296613994
 21
23.92869364964634
 31
0.0
  0
LINE
  5
74
330
1F
100
AcDbEntity
  8
0
100
AcDbLine
 10
-42.7822444712105
 20
11.14448228912683
 30
0.0
 11
-43.93798106693878
 21
8.225424859373664
 31
0.0
  0
LINE
  5
75
330
1F
100
AcDbEntity
  8
0
100
AcDbLine
 10
-40.92897342477492
 20
-5.064609469704189
 30
0.0
 11
-38.78111434092545
 21
-10.25000000000001
 31
0.0
  0
LINE
  5
76
330
1F
100
AcDbEntity
  8
0
100
AcDbLine
 10
-29.1113156278658
 20
25.55025253169417
 30
0.0
 11
-27.66156815956002
 21
24.43782217350898
 31
0.0
  0
LINE
  5
77
330
1F
100
AcDbEntity
  8
0
100
AcDbLine
 10
-3.77333959190624
 20
25.55111126056639
 30
0.0
 11
-3.411568159560031
 21
25.70096189432332
 31
0.0
  0
LINE
  5
78
330
1F
100
AcDbEntity
  8
0
100
AcDbLine
 10
-2.712679420126439
 20
26.6117714323462
 30
0.0
 11
-2.661568159560021
 21
27.0
 31
0.0
  0
LINE
  5
79
330
1F
100
AcDbEntity
  8
0
100
AcDbLine
 10
-2.862530053883368
 20
26.24999999999999
 30
0.0
 11
-2.712679420126439
 21
26.6117714323462
 31
0.0
  0
LINE
  5
7A
330
1F
100
AcDbEntity
  8
0
100
AcDbLine
 10
-2.661568159560021
 20
27.0
 30
0.0
 11
-2.712679420126439
 21
27.38822856765375
 31
0.0
  0
LINE
  5
7B
330
1F
100
AcDbEntity
  8
0
100
AcDbLine
 10
-2.712679420126439
 20
27.38822856765375
 30
0.0
 11
-2.862530053883368
 21
27.74999999999996
 31
0.0
  0
LINE
  5
7C
330
1F
100
AcDbEntity
  8
0
100
AcDbLine
 10
-2.862530053883368
 20
27.74999999999996
 30
0.0
 11
-3.10090798778015
 21
28.0606601717798
 31
0.0
  0
LINE
  5
7D
330
1F
100
AcDbEntity
  8
0
100
AcDbLine
 10
-3.10090798778015
 20
28.0606601717798
 30
0.0
 11
-3.411568159560031
 21
28.29903810567662
 31
0.0
  0
LINE
  5
7E
330
1F
100
AcDbEntity
  8
0
100
AcDbLine
 10
-3.411568159560031
 20
28.29903810567662
 30
0.0
 11
-3.77333959190624
 21
28.4488887394336
 31
0.0
  0
LINE
  5
7F
330
1F
100
AcDbEntity
  8
0
100
AcDbLine
 10
-3.77333959190624
 20
28.4488887394336
 30
0.0
 11
-4.161568159560042
 21
28.49999999999997
 31
0.0
  0
LINE
  5
80
330
1F
100
AcDbEntity
  8
0
100
AcDbLine
 10
-4.161568159560042
 20
28.49999999999997
 30
0.0
 11
-4.549796727213752
 21
28.4488887394336
 31
0.0
  0
LINE
  5
81
330
1F
100
AcDbEntity
  8
0
100
AcDbLine
 10
-3.411568159560031
 20
25.70096189432332
 30
0.0
 11
-3.10090798778015
 21
25.93933982822015
 31
0.0
  0
LINE
  5
82
330
1F
100
AcDbEntity
  8
0
100
AcDbLine
 10
-4.549796727213752
 20
28.4488887394336
 30
0.0
 11
-4.911568159559961
 21
28.29903810567662
 31
0.0
  0
LINE
  5
83
330
1F
100
AcDbEntity
  8
0
100
AcDbLine
 10
-4.911568159559961
 20
28.29903810567662
 30
0.0
 11
-5.222228331339842
 21
28.0606601717798
 31
0.0
  0
LINE
  5
84
330
1F
100
AcDbEntity
  8
0
100
AcDbLine
 10
-3.10090798778015
 20
25.93933982822015
 30
0.0
 11
-2.862530053883368
 21
26.24999999999999
 31
0.0
  0
LINE
  5
85
330
1F
100
AcDbEntity
  8
0
100
AcDbLine
 10
-5.610456898993643
 20
26.6117714323462
 30
0.0
 11
-5.460606265236624
 21
26.24999999999999
 31
0.0
  0
LINE
  5
86
330
1F
100
AcDbEntity
  8
0
100
AcDbLine
 10
-41.26976629711037
 20
13.89566987447492
 30
0.0
 11
-42.7822444712105
 21
11.14448228912683
 31
0.0
  0
LINE
  5
87
330
1F
100
AcDbEntity
  8
0
100
AcDbLine
 10
-5.610456898993643
 20
27.38822856765375
 30
0.0
 11
-5.661568159559971
 21
27.0
 31
0.0
  0
LINE
  5
88
330
1F
100
AcDbEntity
  8
0
100
AcDbLine
 10
-5.460606265236624
 20
26.24999999999999
 30
0.0
 11
-5.222228331339842
 21
25.93933982822015
 31
0.0
  0
LINE
  5
89
330
1F
100
AcDbEntity
  8
0
100
AcDbLine
 10
-20.66156815955999
 20
24.43782217350893
 30
0.0
 11
-19.34431895479501
 21
25.44858303821893
 31
0.0
  0
LINE
  5
8A
330
1F
100
AcDbEntity
  8
0
100
AcDbLine
 10
-5.460606265236624
 20
27.74999999999996
 30
0.0
 11
-5.610456898993643
 21
27.38822856765375
 31
0.0
  0
LINE
  5
8B
330
1F
100
AcDbEntity
  8
0
100
AcDbLine
 10
-44.71874942777721
 20
5.184532864643142
 30
0.0
 11
-45.11223637026678
 21
2.06976298823283
 31
0.0
  0
LINE
  5
8C
330
1F
100
AcDbEntity
  8
0
100
AcDbLine
 10
-37.27524580777718
 20
18.7242156855353
 30
0.0
 11
-39.42439922895471
 21
16.43559974371724
 31
0.0
  0
LINE
  5
8D
330
1F
100
AcDbEntity
  8
0
100
AcDbLine
 10
-45.11223637026678
 20
2.06976298823283
 30
0.0
 11
-45.11223637026678
 21
0.3615173351308744
 31
0.0
  0
LINE
  5
8E
330
1F
100
AcDbEntity
  8
0
100
AcDbLine
 10
-20.16156815956001
 20
-21.00000000000001
 30
0.0
 11
-14.5969586898558
 21
-20.26740526521498
 31
0.0
  0
LINE
  5
8F
330
1F
100
AcDbEntity
  8
0
100
AcDbLine
 10
-5.661568159559971
 20
27.0
 30
0.0
 11
-5.610456898993643
 21
26.6117714323462
 31
0.0
  0
LINE
  5
90
330
1F
100
AcDbEntity
  8
0
100
AcDbLine
 10
-5.222228331339842
 20
28.0606601717798
 30
0.0
 11
-5.460606265236624
 21
27.74999999999996
 31
0.0
  0
LINE
  5
91
330
1F
100
AcDbEntity
  8
0
100
AcDbLine
 10
-5.222228331339842
 20
25.93933982822015
 30
0.0
 11
-4.911568159559961
 21
25.70096189432332
 31
0.0
  0
LINE
  5
92
330
1F
100
AcDbEntity
  8
0
100
AcDbLine
 10
-4.911568159559961
 20
25.70096189432332
 30
0.0
 11
-4.549796727213752
 21
25.55111126056639
 31
0.0
  0
LINE
  5
93
330
1F
100
AcDbEntity
  8
0
100
AcDbLine
 10
-46.81570296613994
 20
23.92869364964634
 30
0.0
 11
-44.76681086077743
 21
25.53352900095899
 31
0.0
  0
LINE
  5
94
330
1F
100
AcDbEntity
  8
0
100
AcDbLine
 10
-4.549796727213752
 20
25.55111126056639
 30
0.0
 11
-4.161568159560042
 21
25.49999999999998
 31
0.0
  0
LINE
  5
95
330
1F
100
AcDbEntity
  8
0
100
AcDbLine
 10
-1.542021978194578
 20
11.25000000000001
 30
0.0
 11
-4.958772364049224
 21
15.70279579551076
 31
0.0
  0
LINE
  5
96
330
1F
100
AcDbEntity
  8
0
100
AcDbLine
 10
-14.5969586898558
 20
21.26740526521498
 30
0.0
 11
-20.16156815956001
 21
22.0
 31
0.0
  0
LINE
  5
97
330
1F
100
AcDbEntity
  8
0
100
AcDbLine
 10
-27.47211003335001
 20
24.35934604813096
 30
0.0
 11
-25.97330147527765
 21
23.73851921597656
 31
0.0
  0
LINE
  5
98
330
1F
100
AcDbEntity
  8
0
100
AcDbLine
 10
-20.16156815956001
 20
22.0
 30
0.0
 11
-25.72617762926413
 21
21.26740526521498
 31
0.0
  0
LINE
  5
99
330
1F
100
AcDbEntity
  8
0
100
AcDbLine
 10
-35.3643639550708
 20
15.70279579551076
 30
0.0
 11
-38.78111434092545
 21
11.25000000000001
 31
0.0
  0
LINE
  5
9A
330
1F
100
AcDbEntity
  8
0
100
AcDbLine
 10
-25.72617762926413
 20
21.26740526521498
 30
0.0
 11
-30.91156815956001
 21
19.11954618136545
 31
0.0
  0
LINE
  5
9B
330
1F
100
AcDbEntity
  8
0
100
AcDbLine
 10
1.338431840440061
 20
0.5000000000000216
 30
0.0
 11
0.6058371056549866
 21
6.064609469704187
 31
0.0
  0
LINE
  5
9C
330
1F
100
AcDbEntity
  8
0
100
AcDbLine
 10
-22.34983484384236
 20
23.73851921597656
 30
0.0
 11
-20.66156815955999
 21
24.43782217350893
 31
0.0
  0
LINE
  5
9D
330
1F
100
AcDbEntity
  8
0
100
AcDbLine
 10
-39.42439922895471
 20
16.43559974371724
 30
0.0
 11
-41.26976629711037
 21
13.89566987447492
 31
0.0
  0
LINE
  5
9E
330
1F
100
AcDbEntity
  8
0
100
AcDbLine
 10
-43.93798106693878
 20
8.225424859373664
 30
0.0
 11
-44.71874942777721
 21
5.184532864643142
 31
0.0
  0
LINE
  5
9F
330
1F
100
AcDbEntity
  8
0
100
AcDbLine
 10
-41.66156815956
 20
0.5000000000000216
 30
0.0
 11
-40.92897342477492
 21
-5.064609469704189
 31
0.0
  0
LINE
  5
A0
330
1F
100
AcDbEntity
  8
0
100
AcDbLine
 10
-32.20541001210283
 20
22.40766700109658
 30
0.0
 11
-34.85619946687184
 21
20.72542485937371
 31
0.0
  0
LINE
  5
A1
330
1F
100
AcDbEntity
  8
0
100
AcDbLine
 10
49.58542349359409
 20
-19.93927629759445
 30
0.0
 11
49.41164520766833
 21
-21.25925342761728
 31
0.0
  0
LINE
  5
A2
330
1F
100
AcDbEntity
  8
0
100
AcDbLine
 10
54.51164520766825
 20
-16.15925342761731
 30
0.0
 11
53.19166807764542
 21
-16.33303171354303
 31
0.0
  0
LINE
  5
A3
330
1F
100
AcDbEntity
  8
0
100
AcDbLine
 10
50.09491564836767
 20
-18.70925342761727
 30
0.0
 11
49.58542349359409
 21
-19.93927629759445
 31
0.0
  0
LINE
  5
A4
330
1F
100
AcDbEntity
  8
0
100
AcDbLine
 10
57.06164520766831
 20
-16.84252386831665
 30
0.0
 11
55.83162233769117
 21
-16.33303171354303
 31
0.0
  0
LINE
  5
A5
330
1F
100
AcDbEntity
  8
0
100
AcDbLine
 10
48.83843184043999
 20
-30.50000000000001
 30
0.0
 11
54.83843184043999
 21
-30.50000000000001
 31
0.0
  0
LINE
  5
A6
330
1F
100
AcDbEntity
  8
0
100
AcDbLine
 10
-24.16156815956001
 20
23.50000000000002
 30
0.0
 11
-22.34983484384236
 21
23.73851921597656
 31
0.0
  0
LINE
  5
A7
330
1F
100
AcDbEntity
  8
0
100
AcDbLine
 10
-40.92897342477492
 20
6.064609469704187
 30
0.0
 11
-41.66156815956
 21
0.5000000000000216
 31
0.0
  0
LINE
  5
A8
330
1F
100
AcDbEntity
  8
0
100
AcDbLine
 10
0.6058371056549866
 20
-5.064609469704189
 30
0.0
 11
1.338431840440061
 21
0.5000000000000216
 31
0.0
  0
LINE
  5
A9
330
1F
100
AcDbEntity
  8
0
100
AcDbLine
 10
-25.72617762926422
 20
-20.26740526521498
 30
0.0
 11
-20.16156815956001
 21
-21.00000000000001
 31
0.0
  0
LINE
  5
AA
330
1F
100
AcDbEntity
  8
0
100
AcDbLine
 10
-5.661568159559971
 20
22.16025403784438
 30
0.0
 11
-5.481545289582875
 21
22.07377828592575
 31
0.0
  0
LINE
  5
AB
330
1F
100
AcDbEntity
  8
0
100
AcDbLine
 10
0.6058371056549866
 20
6.064609469704187
 30
0.0
 11
-1.542021978194578
 21
11.25000000000001
 31
0.0
  0
LINE
  5
AC
330
1F
100
AcDbEntity
  8
0
100
AcDbLine
 10
-35.33072410119611
 20
29.78576639490994
 30
0.0
 11
-32.77126860141956
 21
30.25761691033112
 31
0.0
  0
LINE
  5
AD
330
1F
100
AcDbEntity
  8
0
100
AcDbLine
 10
50.90540062361693
 20
-17.65300884356591
 30
0.0
 11
50.09491564836767
 21
-18.70925342761727
 31
0.0
  0
LINE
  5
AE
330
1F
100
AcDbEntity
  8
0
100
AcDbLine
 10
54.83843184043999
 20
-26.50000000000002
 30
0.0
 11
56.83847154914161
 21
-26.50000000000002
 31
0.0
  0
LINE
  5
AF
330
1F
100
AcDbEntity
  8
0
100
AcDbLine
 10
53.33843184043997
 20
-21.50000000000003
 30
0.0
 11
53.38954310100638
 21
-21.88822856765378
 31
0.0
  0
LINE
  5
B0
330
1F
100
AcDbEntity
  8
0
100
AcDbLine
 10
-22.64623099254425
 20
9.772887932375077
 30
0.0
 11
-24.96156815956
 21
8.813843876330619
 31
0.0
  0
LINE
  5
B1
330
1F
100
AcDbEntity
  8
0
100
AcDbLine
 10
49.41164520766833
 20
-21.25925342761728
 30
0.0
 11
48.83843184043999
 21
-25.50000000000002
 31
0.0
  0
LINE
  5
B2
330
1F
100
AcDbEntity
  8
0
100
AcDbLine
 10
53.77777166866019
 20
-22.56066017177983
 30
0.0
 11
54.08843184043997
 21
-22.79903810567665
 31
0.0
  0
LINE
  5
B3
330
1F
100
AcDbEntity
  8
0
100
AcDbLine
 10
54.08843184043997
 20
-22.79903810567665
 30
0.0
 11
54.45020327278628
 21
-22.94888873943358
 31
0.0
  0
LINE
  5
B4
330
1F
100
AcDbEntity
  8
0
100
AcDbLine
 10
-34.85619946687184
 20
20.72542485937371
 30
0.0
 11
-37.27524580777718
 21
18.7242156855353
 31
0.0
  0
LINE
  5
B5
330
1F
100
AcDbEntity
  8
0
100
AcDbLine
 10
54.83843184043999
 20
-30.50000000000001
 30
0.0
 11
54.83843184043999
 21
-26.50000000000002
 31
0.0
  0
LINE
  5
B6
330
1F
100
AcDbEntity
  8
0
100
AcDbLine
 10
55.83162233769117
 20
-16.33303171354303
 30
0.0
 11
54.51164520766825
 21
-16.15925342761731
 31
0.0
  0
LINE
  5
B7
330
1F
100
AcDbEntity
  8
0
100
AcDbLine
 10
53.19166807764542
 20
-16.33303171354303
 30
0.0
 11
51.96164520766829
 21
-16.84252386831665
 31
0.0
  0
LINE
  5
B8
330
1F
100
AcDbEntity
  8
0
100
AcDbLine
 10
57.83843184044002
 20
-26.3750049635877
 30
0.0
 11
57.83843184044002
 21
-17.43857321554365
 31
0.0
  0
LINE
  5
B9
330
1F
100
AcDbEntity
  8
0
100
AcDbLine
 10
53.38954310100638
 20
-21.88822856765378
 30
0.0
 11
53.5393937347634
 21
-22.24999999999999
 31
0.0
  0
LINE
  5
BA
330
1F
100
AcDbEntity
  8
0
100
AcDbLine
 10
53.5393937347634
 20
-22.24999999999999
 30
0.0
 11
53.77777166866019
 21
-22.56066017177983
 31
0.0
  0
LINE
  5
BB
330
1F
100
AcDbEntity
  8
0
100
AcDbLine
 10
-32.77126860141956
 20
30.25761691033112
 30
0.0
 11
-31.61435091362834
 21
30.35721727605996
 31
0.0
  0
LINE
  5
BC
330
1F
100
AcDbEntity
  8
0
100
AcDbLine
 10
51.96164520766829
 20
-16.84252386831665
 30
0.0
 11
50.90540062361693
 21
-17.65300884356591
 31
0.0
  0
LINE
  5
BD
330
1F
100
AcDbEntity
  8
0
100
AcDbLine
 10
56.83847154914161
 20
-26.50000000000002
 30
0.0
 11
57.83843184044002
 21
-26.3750049635877
 31
0.0
  0
LINE
  5
BE
330
1F
100
AcDbEntity
  8
0
100
AcDbLine
 10
54.45020327278628
 20
-22.94888873943358
 30
0.0
 11
54.83843184043999
 21
-23.0
 31
0.0
  0
LINE
  5
BF
330
1F
100
AcDbEntity
  8
0
100
AcDbLine
 10
-9.722351901115928
 20
30.50000000000001
 30
0.0
 11
-16.64964286476314
 21
30.50000000000001
 31
0.0
  0
LINE
  5
C0
330
1F
100
AcDbEntity
  8
0
100
AcDbLine
 10
-4.958772364049224
 20
-14.70279579551076
 30
0.0
 11
-1.542021978194578
 21
-10.25000000000001
 31
0.0
  0
LINE
  5
C1
330
1F
100
AcDbEntity
  8
0
100
AcDbLine
 10
-25.97330147527765
 20
23.73851921597656
 30
0.0
 11
-24.16156815956001
 21
23.50000000000002
 31
0.0
  0
LINE
  5
C2
330
1F
100
AcDbEntity
  8
0
100
AcDbLine
 10
-24.96156815956
 20
8.813843876330619
 30
0.0
 11
-26.94979325895083
 21
7.288225099390885
 31
0.0
  0
LINE
  5
C3
330
1F
100
AcDbEntity
  8
0
100
AcDbLine
 10
16.33843184043999
 20
24.49999999999998
 30
0.0
 11
16.38954310100641
 21
24.11177143234622
 31
0.0
  0
LINE
  5
C4
330
1F
100
AcDbEntity
  8
0
100
AcDbLine
 10
-9.001314121715614
 20
25.49999999999998
 30
0.0
 11
-8.57829771886062
 21
24.44999999999999
 31
0.0
  0
LINE
  5
C5
330
1F
100
AcDbEntity
  8
0
100
AcDbLine
 10
-1.542021978194578
 20
-10.25000000000001
 30
0.0
 11
0.6058371056549866
 21
-5.064609469704189
 31
0.0
  0
LINE
  5
C6
330
1F
100
AcDbEntity
  8
0
100
AcDbLine
 10
54.83843184043999
 20
-23.0
 30
0.0
 11
55.22666040809379
 21
-22.94888873943363
 31
0.0
  0
LINE
  5
C7
330
1F
100
AcDbEntity
  8
0
100
AcDbLine
 10
55.22666040809379
 20
-22.94888873943363
 30
0.0
 11
55.58843184043999
 21
-22.79903810567665
 31
0.0
  0
LINE
  5
C8
330
1F
100
AcDbEntity
  8
0
100
AcDbLine
 10
55.58843184043999
 20
-22.79903810567665
 30
0.0
 11
55.89909201221979
 21
-22.56066017177983
 31
0.0
  0
LINE
  5
C9
330
1F
100
AcDbEntity
  8
0
100
AcDbLine
 10
55.89909201221979
 20
-22.56066017177983
 30
0.0
 11
56.13746994611666
 21
-22.24999999999999
 31
0.0
  0
LINE
  5
CA
330
1F
100
AcDbEntity
  8
0
100
AcDbLine
 10
56.13746994611666
 20
-22.24999999999999
 30
0.0
 11
56.28732057987359
 21
-21.88822856765378
 31
0.0
  0
LINE
  5
CB
330
1F
100
AcDbEntity
  8
0
100
AcDbLine
 10
56.28732057987359
 20
-21.88822856765378
 30
0.0
 11
56.33843184044001
 21
-21.50000000000003
 31
0.0
  0
LINE
  5
CC
330
1F
100
AcDbEntity
  8
0
100
AcDbLine
 10
56.33843184044001
 20
-21.50000000000003
 30
0.0
 11
56.28732057987359
 21
-21.11177143234623
 31
0.0
  0
LINE
  5
CD
330
1F
100
AcDbEntity
  8
0
100
AcDbLine
 10
56.28732057987359
 20
-21.11177143234623
 30
0.0
 11
56.13746994611666
 21
-20.75000000000002
 31
0.0
  0
LINE
  5
CE
330
1F
100
AcDbEntity
  8
0
100
AcDbLine
 10
56.13746994611666
 20
-20.75000000000002
 30
0.0
 11
55.89909201221979
 21
-20.43933982822018
 31
0.0
  0
LINE
  5
CF
330
1F
100
AcDbEntity
  8
0
100
AcDbLine
 10
55.89909201221979
 20
-20.43933982822018
 30
0.0
 11
55.58843184043999
 21
-20.20096189432336
 31
0.0
  0
LINE
  5
D0
330
1F
100
AcDbEntity
  8
0
100
AcDbLine
 10
55.58843184043999
 20
-20.20096189432336
 30
0.0
 11
55.22666040809379
 21
-20.05111126056643
 31
0.0
  0
LINE
  5
D1
330
1F
100
AcDbEntity
  8
0
100
AcDbLine
 10
55.22666040809379
 20
-20.05111126056643
 30
0.0
 11
54.83843184043999
 21
-20.00000000000001
 31
0.0
  0
LINE
  5
D2
330
1F
100
AcDbEntity
  8
0
100
AcDbLine
 10
54.83843184043999
 20
-20.00000000000001
 30
0.0
 11
54.45020327278628
 21
-20.05111126056643
 31
0.0
  0
LINE
  5
D3
330
1F
100
AcDbEntity
  8
0
100
AcDbLine
 10
54.45020327278628
 20
-20.05111126056643
 30
0.0
 11
54.08843184043997
 21
-20.20096189432336
 31
0.0
  0
LINE
  5
D4
330
1F
100
AcDbEntity
  8
0
100
AcDbLine
 10
54.08843184043997
 20
-20.20096189432336
 30
0.0
 11
53.77777166866019
 21
-20.43933982822018
 31
0.0
  0
LINE
  5
D5
330
1F
100
AcDbEntity
  8
0
100
AcDbLine
 10
53.77777166866019
 20
-20.43933982822018
 30
0.0
 11
53.5393937347634
 21
-20.75000000000002
 31
0.0
  0
LINE
  5
D6
330
1F
100
AcDbEntity
  8
0
100
AcDbLine
 10
53.5393937347634
 20
-20.75000000000002
 30
0.0
 11
53.38954310100638
 21
-21.11177143234623
 31
0.0
  0
LINE
  5
D7
330
1F
100
AcDbEntity
  8
0
100
AcDbLine
 10
53.38954310100638
 20
-21.11177143234623
 30
0.0
 11
53.33843184043997
 21
-21.50000000000003
 31
0.0
  0
LINE
  5
D8
330
1F
100
AcDbEntity
  8
0
100
AcDbLine
 10
1.399215581995936
 20
30.50000000000001
 30
0.0
 11
-9.722351901115928
 21
30.50000000000001
 31
0.0
  0
LINE
  5
D9
330
1F
100
AcDbEntity
  8
0
100
AcDbLine
 10
-6.711568159560002
 20
22.58327044069937
 30
0.0
 11
-5.661568159559971
 21
22.16025403784438
 31
0.0
  0
LINE
  5
DA
330
1F
100
AcDbEntity
  8
0
100
AcDbLine
 10
-4.161568159560042
 20
25.49999999999998
 30
0.0
 11
-3.77333959190624
 21
25.55111126056639
 31
0.0
  0
LINE
  5
DB
330
1F
100
AcDbEntity
  8
0
100
AcDbLine
 10
-9.08778987363429
 20
25.68002286997712
 30
0.0
 11
-9.001314121715614
 21
25.49999999999998
 31
0.0
  0
LINE
  5
DC
330
1F
100
AcDbEntity
  8
0
100
AcDbLine
 10
-0.5553235755086262
 20
23.39375541594858
 30
0.0
 11
0.2551613997406285
 21
24.44999999999999
 31
0.0
  0
LINE
  5
DD
330
1F
100
AcDbEntity
  8
0
100
AcDbLine
 10
-2.841591029537117
 20
22.07377828592575
 30
0.0
 11
-1.611568159559989
 21
22.58327044069937
 31
0.0
  0
LINE
  5
DE
330
1F
100
AcDbEntity
  8
0
100
AcDbLine
 10
-5.481545289582875
 20
22.07377828592575
 30
0.0
 11
-4.161568159560042
 21
21.89999999999998
 31
0.0
  0
LINE
  5
DF
330
1F
100
AcDbEntity
  8
0
100
AcDbLine
 10
-7.767812743611366
 20
23.39375541594858
 30
0.0
 11
-6.711568159560002
 21
22.58327044069937
 31
0.0
  0
LINE
  5
E0
330
1F
100
AcDbEntity
  8
0
100
AcDbLine
 10
-8.57829771886062
 20
24.44999999999999
 30
0.0
 11
-7.767812743611366
 21
23.39375541594858
 31
0.0
  0
LINE
  5
E1
330
1F
100
AcDbEntity
  8
0
100
AcDbLine
 10
-1.611568159559989
 20
-21.58327044069933
 30
0.0
 11
-2.841591029537117
 21
-21.07377828592575
 31
0.0
  0
LINE
  5
E2
330
1F
100
AcDbEntity
  8
0
100
AcDbLine
 10
0.2551613997406285
 20
-23.44999999999999
 30
0.0
 11
-0.5553235755086262
 21
-22.39375541594858
 31
0.0
  0
LINE
  5
E3
330
1F
100
AcDbEntity
  8
0
100
AcDbLine
 10
0.7646535545142071
 20
-24.68002286997712
 30
0.0
 11
0.2551613997406285
 21
-23.44999999999999
 31
0.0
  0
LINE
  5
E4
330
1F
100
AcDbEntity
  8
0
100
AcDbLine
 10
1.561508763516851
 20
-30.50000000000001
 30
0.0
 11
0.9384318404399721
 21
-26.0
 31
0.0
  0
LINE
  5
E5
330
1F
100
AcDbEntity
  8
0
100
AcDbLine
 10
1.561508763516851
 20
-30.50000000000001
 30
0.0
 11
-9.884645082636933
 21
-30.50000000000001
 31
0.0
  0
LINE
  5
E6
330
1F
100
AcDbEntity
  8
0
100
AcDbLine
 10
-9.884645082636933
 20
-30.50000000000001
 30
0.0
 11
-9.261568159560055
 21
-26.0
 31
0.0
  0
LINE
  5
E7
330
1F
100
AcDbEntity
  8
0
100
AcDbLine
 10
-9.001314121715614
 20
-24.49999999999998
 30
0.0
 11
-9.08778987363429
 21
-24.68002286997712
 31
0.0
  0
LINE
  5
E8
330
1F
100
AcDbEntity
  8
0
100
AcDbLine
 10
-8.57829771886071
 20
-23.44999999999999
 30
0.0
 11
-9.001314121715614
 21
-24.49999999999998
 31
0.0
  0
LINE
  5
E9
330
1F
100
AcDbEntity
  8
0
100
AcDbLine
 10
-7.767812743611456
 20
-22.39375541594858
 30
0.0
 11
-8.57829771886071
 21
-23.44999999999999
 31
0.0
  0
LINE
  5
EA
330
1F
100
AcDbEntity
  8
0
100
AcDbLine
 10
-6.711568159560002
 20
-21.58327044069933
 30
0.0
 11
-7.767812743611456
 21
-22.39375541594858
 31
0.0
  0
LINE
  5
EB
330
1F
100
AcDbEntity
  8
0
100
AcDbLine
 10
-5.688910610901262
 20
-21.14441020989525
 30
0.0
 11
-6.711568159560002
 21
-21.58327044069933
 31
0.0
  0
LINE
  5
EC
330
1F
100
AcDbEntity
  8
0
100
AcDbLine
 10
-5.481545289582875
 20
-21.07377828592575
 30
0.0
 11
-5.688910610901262
 21
-21.14441020989525
 31
0.0
  0
LINE
  5
ED
330
1F
100
AcDbEntity
  8
0
100
AcDbLine
 10
-4.161568159560042
 20
-20.89999999999998
 30
0.0
 11
-5.481545289582875
 21
-21.07377828592575
 31
0.0
  0
LINE
  5
EE
330
1F
100
AcDbEntity
  8
0
100
AcDbLine
 10
-4.549796727213752
 20
-27.4488887394336
 30
0.0
 11
-4.161568159560042
 21
-27.49999999999997
 31
0.0
  0
LINE
  5
EF
330
1F
100
AcDbEntity
  8
0
100
AcDbLine
 10
-4.161568159560042
 20
-27.49999999999997
 30
0.0
 11
-3.77333959190624
 21
-27.4488887394336
 31
0.0
  0
LINE
  5
F0
330
1F
100
AcDbEntity
  8
0
100
AcDbLine
 10
-3.77333959190624
 20
-27.4488887394336
 30
0.0
 11
-3.411568159560031
 21
-27.29903810567663
 31
0.0
  0
LINE
  5
F1
330
1F
100
AcDbEntity
  8
0
100
AcDbLine
 10
-3.411568159560031
 20
-27.29903810567663
 30
0.0
 11
-3.10090798778024
 21
-27.0606601717798
 31
0.0
  0
LINE
  5
F2
330
1F
100
AcDbEntity
  8
0
100
AcDbLine
 10
-3.10090798778024
 20
-27.0606601717798
 30
0.0
 11
-2.862530053883368
 21
-26.74999999999996
 31
0.0
  0
LINE
  5
F3
330
1F
100
AcDbEntity
  8
0
100
AcDbLine
 10
-2.862530053883368
 20
-26.74999999999996
 30
0.0
 11
-2.712679420126439
 21
-26.38822856765375
 31
0.0
  0
LINE
  5
F4
330
1F
100
AcDbEntity
  8
0
100
AcDbLine
 10
-2.712679420126439
 20
-26.38822856765375
 30
0.0
 11
-2.661568159560021
 21
-26.0
 31
0.0
  0
LINE
  5
F5
330
1F
100
AcDbEntity
  8
0
100
AcDbLine
 10
-2.661568159560021
 20
-26.0
 30
0.0
 11
-2.712679420126439
 21
-25.6117714323462
 31
0.0
  0
LINE
  5
F6
330
1F
100
AcDbEntity
  8
0
100
AcDbLine
 10
-2.712679420126439
 20
-25.6117714323462
 30
0.0
 11
-2.862530053883368
 21
-25.24999999999999
 31
0.0
  0
LINE
  5
F7
330
1F
100
AcDbEntity
  8
0
100
AcDbLine
 10
-2.862530053883368
 20
-25.24999999999999
 30
0.0
 11
-3.10090798778024
 21
-24.93933982822015
 31
0.0
  0
LINE
  5
F8
330
1F
100
AcDbEntity
  8
0
100
AcDbLine
 10
-3.10090798778024
 20
-24.93933982822015
 30
0.0
 11
-3.411568159560031
 21
-24.70096189432332
 31
0.0
  0
LINE
  5
F9
330
1F
100
AcDbEntity
  8
0
100
AcDbLine
 10
-3.411568159560031
 20
-24.70096189432332
 30
0.0
 11
-3.77333959190624
 21
-24.55111126056639
 31
0.0
  0
LINE
  5
FA
330
1F
100
AcDbEntity
  8
0
100
AcDbLine
 10
-3.77333959190624
 20
-24.55111126056639
 30
0.0
 11
-4.161568159560042
 21
-24.49999999999998
 31
0.0
  0
LINE
  5
FB
330
1F
100
AcDbEntity
  8
0
100
AcDbLine
 10
-4.161568159560042
 20
-24.49999999999998
 30
0.0
 11
-4.549796727213752
 21
-24.55111126056639
 31
0.0
  0
LINE
  5
FC
330
1F
100
AcDbEntity
  8
0
100
AcDbLine
 10
-4.549796727213752
 20
-24.55111126056639
 30
0.0
 11
-4.911568159559961
 21
-24.70096189432332
 31
0.0
  0
LINE
  5
FD
330
1F
100
AcDbEntity
  8
0
100
AcDbLine
 10
-4.911568159559961
 20
-24.70096189432332
 30
0.0
 11
-5.222228331339842
 21
-24.93933982822015
 31
0.0
  0
LINE
  5
FE
330
1F
100
AcDbEntity
  8
0
100
AcDbLine
 10
-5.222228331339842
 20
-24.93933982822015
 30
0.0
 11
-5.460606265236624
 21
-25.24999999999999
 31
0.0
  0
LINE
  5
FF
330
1F
100
AcDbEntity
  8
0
100
AcDbLine
 10
-5.460606265236624
 20
-25.24999999999999
 30
0.0
 11
-5.610456898993643
 21
-25.6117714323462
 31
0.0
  0
LINE
  5
100
330
1F
100
AcDbEntity
  8
0
100
AcDbLine
 10
-5.610456898993643
 20
-25.6117714323462
 30
0.0
 11
-5.661568159559971
 21
-26.0
 31
0.0
  0
LINE
  5
101
330
1F
100
AcDbEntity
  8
0
100
AcDbLine
 10
-5.661568159559971
 20
-26.0
 30
0.0
 11
-5.610456898993643
 21
-26.38822856765375
 31
0.0
  0
LINE
  5
102
330
1F
100
AcDbEntity
  8
0
100
AcDbLine
 10
-5.610456898993643
 20
-26.38822856765375
 30
0.0
 11
-5.460606265236624
 21
-26.74999999999996
 31
0.0
  0
LINE
  5
103
330
1F
100
AcDbEntity
  8
0
100
AcDbLine
 10
-5.460606265236624
 20
-26.74999999999996
 30
0.0
 11
-5.222228331339842
 21
-27.0606601717798
 31
0.0
  0
LINE
  5
104
330
1F
100
AcDbEntity
  8
0
100
AcDbLine
 10
-5.222228331339842
 20
-27.0606601717798
 30
0.0
 11
-4.911568159560051
 21
-27.29903810567663
 31
0.0
  0
LINE
  5
105
330
1F
100
AcDbEntity
  8
0
100
AcDbLine
 10
-4.911568159560051
 20
-27.29903810567663
 30
0.0
 11
-4.549796727213752
 21
-27.4488887394336
 31
0.0
  0
LINE
  5
106
330
1F
100
AcDbEntity
  8
0
100
AcDbLine
 10
26.48390931394607
 20
-19.80194121708034
 30
0.0
 11
27.21429665634695
 21
-20.8072331501019
 31
0.0
  0
LINE
  5
107
330
1F
100
AcDbEntity
  8
0
100
AcDbLine
 10
25.88527778253781
 20
-18.71303450383928
 30
0.0
 11
26.48390931394607
 21
-19.80194121708034
 31
0.0
  0
LINE
  5
108
330
1F
100
AcDbEntity
  8
0
100
AcDbLine
 10
25.42784283897774
 20
-17.55768571972785
 30
0.0
 11
25.88527778253781
 21
-18.71303450383928
 31
0.0
  0
LINE
  5
109
330
1F
100
AcDbEntity
  8
0
100
AcDbLine
 10
25.11881850558407
 20
-16.35411540524342
 30
0.0
 11
25.42784283897774
 21
-17.55768571972785
 31
0.0
  0
LINE
  5
10A
330
1F
100
AcDbEntity
  8
0
100
AcDbLine
 10
24.96307828069668
 20
-15.12130458322343
 30
0.0
 11
25.11881850558407
 21
-16.35411540524342
 31
0.0
  0
LINE
  5
10B
330
1F
100
AcDbEntity
  8
0
100
AcDbLine
 10
24.96307828069668
 20
-13.87869541677661
 30
0.0
 11
24.96307828069668
 21
-15.12130458322343
 31
0.0
  0
LINE
  5
10C
330
1F
100
AcDbEntity
  8
0
100
AcDbLine
 10
25.11881850558407
 20
-12.64588459475662
 30
0.0
 11
24.96307828069668
 21
-13.87869541677661
 31
0.0
  0
LINE
  5
10D
330
1F
100
AcDbEntity
  8
0
100
AcDbLine
 10
25.42784283897774
 20
-11.44231428027215
 30
0.0
 11
25.11881850558407
 21
-12.64588459475662
 31
0.0
  0
LINE
  5
10E
330
1F
100
AcDbEntity
  8
0
100
AcDbLine
 10
25.88527778253781
 20
-10.28696549616071
 30
0.0
 11
25.42784283897774
 21
-11.44231428027215
 31
0.0
  0
LINE
  5
10F
330
1F
100
AcDbEntity
  8
0
100
AcDbLine
 10
26.48390931394607
 20
-9.198058782919656
 30
0.0
 11
25.88527778253781
 21
-10.28696549616071
 31
0.0
  0
LINE
  5
110
330
1F
100
AcDbEntity
  8
0
100
AcDbLine
 10
27.21429665634695
 20
-8.192766849898138
 30
0.0
 11
26.48390931394607
 21
-9.198058782919656
 31
0.0
  0
LINE
  5
111
330
1F
100
AcDbEntity
  8
0
100
AcDbLine
 10
28.0649211650385
 20
-7.28694375141212
 30
0.0
 11
27.21429665634695
 21
-8.192766849898138
 31
0.0
  0
LINE
  5
112
330
1F
100
AcDbEntity
  8
0
100
AcDbLine
 10
29.02236798338039
 20
-6.494874858837314
 30
0.0
 11
28.0649211650385
 21
-7.28694375141212
 31
0.0
  0
LINE
  5
113
330
1F
100
AcDbEntity
  8
0
100
AcDbLine
 10
30.07153760309617
 20
-5.829051571768605
 30
0.0
 11
29.02236798338039
 21
-6.494874858837314
 31
0.0
  0
LINE
  5
114
330
1F
100
AcDbEntity
  8
0
100
AcDbLine
 10
31.19588399253949
 20
-5.299974321186607
 30
0.0
 11
30.07153760309617
 21
-5.829051571768605
 31
0.0
  0
LINE
  5
115
330
1F
100
AcDbEntity
  8
0
100
AcDbLine
 10
32.37767553749678
 20
-4.915986971388474
 30
0.0
 11
31.19588399253949
 21
-5.299974321186607
 31
0.0
  0
LINE
  5
116
330
1F
100
AcDbEntity
  8
0
100
AcDbLine
 10
33.59827467933609
 20
-4.683145232263391
 30
0.0
 11
32.37767553749678
 21
-4.915986971388474
 31
0.0
  0
LINE
  5
117
330
1F
100
AcDbEntity
  8
0
100
AcDbLine
 10
34.83843184044002
 20
-4.60512115713033
 30
0.0
 11
33.59827467933609
 21
-4.683145232263391
 31
0.0
  0
LINE
  5
118
330
1F
100
AcDbEntity
  8
0
100
AcDbLine
 10
36.07858900154378
 20
-4.683145232263391
 30
0.0
 11
34.83843184044002
 21
-4.60512115713033
 31
0.0
  0
LINE
  5
119
330
1F
100
AcDbEntity
  8
0
100
AcDbLine
 10
37.29918814338308
 20
-4.915986971388474
 30
0.0
 11
36.07858900154378
 21
-4.683145232263391
 31
0.0
  0
LINE
  5
11A
330
1F
100
AcDbEntity
  8
0
100
AcDbLine
 10
38.48097968834038
 20
-5.299974321186607
 30
0.0
 11
37.29918814338308
 21
-4.915986971388474
 31
0.0
  0
LINE
  5
11B
330
1F
100
AcDbEntity
  8
0
100
AcDbLine
 10
39.60532607778369
 20
-5.829051571768605
 30
0.0
 11
38.48097968834038
 21
-5.299974321186607
 31
0.0
  0
LINE
  5
11C
330
1F
100
AcDbEntity
  8
0
100
AcDbLine
 10
40.65449569749956
 20
-6.494874858837314
 30
0.0
 11
39.60532607778369
 21
-5.829051571768605
 31
0.0
  0
LINE
  5
11D
330
1F
100
AcDbEntity
  8
0
100
AcDbLine
 10
41.61194251584137
 20
-7.28694375141212
 30
0.0
 11
40.65449569749956
 21
-6.494874858837314
 31
0.0
  0
LINE
  5
11E
330
1F
100
AcDbEntity
  8
0
100
AcDbLine
 10
42.46256702453301
 20
-8.192766849898092
 30
0.0
 11
41.61194251584137
 21
-7.28694375141212
 31
0.0
  0
LINE
  5
11F
330
1F
100
AcDbEntity
  8
0
100
AcDbLine
 10
43.19295436693389
 20
-9.198058782919656
 30
0.0
 11
42.46256702453301
 21
-8.192766849898092
 31
0.0
  0
LINE
  5
120
330
1F
100
AcDbEntity
  8
0
100
AcDbLine
 10
43.79158589834206
 20
-10.28696549616071
 30
0.0
 11
43.19295436693389
 21
-9.198058782919656
 31
0.0
  0
LINE
  5
121
330
1F
100
AcDbEntity
  8
0
100
AcDbLine
 10
44.24902084190222
 20
-11.44231428027215
 30
0.0
 11
43.79158589834206
 21
-10.28696549616071
 31
0.0
  0
LINE
  5
122
330
1F
100
AcDbEntity
  8
0
100
AcDbLine
 10
44.55804517529589
 20
-12.64588459475657
 30
0.0
 11
44.24902084190222
 21
-11.44231428027215
 31
0.0
  0
LINE
  5
123
330
1F
100
AcDbEntity
  8
0
100
AcDbLine
 10
44.71378540018328
 20
-13.87869541677657
 30
0.0
 11
44.55804517529589
 21
-12.64588459475657
 31
0.0
  0
LINE
  5
124
330
1F
100
AcDbEntity
  8
0
100
AcDbLine
 10
44.71378540018328
 20
-15.12130458322338
 30
0.0
 11
44.71378540018328
 21
-13.87869541677657
 31
0.0
  0
LINE
  5
125
330
1F
100
AcDbEntity
  8
0
100
AcDbLine
 10
44.55804517529597
 20
-16.35411540524338
 30
0.0
 11
44.71378540018328
 21
-15.12130458322338
 31
0.0
  0
LINE
  5
126
330
1F
100
AcDbEntity
  8
0
100
AcDbLine
 10
44.24902084190222
 20
-17.55768571972785
 30
0.0
 11
44.55804517529597
 21
-16.35411540524338
 31
0.0
  0
LINE
  5
127
330
1F
100
AcDbEntity
  8
0
100
AcDbLine
 10
43.79158589834215
 20
-18.71303450383928
 30
0.0
 11
44.24902084190222
 21
-17.55768571972785
 31
0.0
  0
LINE
  5
128
330
1F
100
AcDbEntity
  8
0
100
AcDbLine
 10
43.19295436693389
 20
-19.80194121708034
 30
0.0
 11
43.79158589834215
 21
-18.71303450383928
 31
0.0
  0
LINE
  5
129
330
1F
100
AcDbEntity
  8
0
100
AcDbLine
 10
42.46256702453301
 20
-20.80723315010185
 30
0.0
 11
43.19295436693389
 21
-19.80194121708034
 31
0.0
  0
LINE
  5
12A
330
1F
100
AcDbEntity
  8
0
100
AcDbLine
 10
40.65449569749956
 20
-22.50512514116268
 30
0.0
 11
41.61194251584146
 21
-21.71305624858787
 31
0.0
  0
LINE
  5
12B
330
1F
100
AcDbEntity
  8
0
100
AcDbLine
 10
39.60532607778379
 20
-23.17094842823139
 30
0.0
 11
40.65449569749956
 21
-22.50512514116268
 31
0.0
  0
LINE
  5
12C
330
1F
100
AcDbEntity
  8
0
100
AcDbLine
 10
38.48097968834047
 20
-23.70002567881339
 30
0.0
 11
39.60532607778379
 21
-23.17094842823139
 31
0.0
  0
LINE
  5
12D
330
1F
100
AcDbEntity
  8
0
100
AcDbLine
 10
37.29918814338317
 20
-24.08401302861152
 30
0.0
 11
38.48097968834047
 21
-23.70002567881339
 31
0.0
  0
LINE
  5
12E
330
1F
100
AcDbEntity
  8
0
100
AcDbLine
 10
36.07858900154387
 20
-24.3168547677366
 30
0.0
 11
37.29918814338317
 21
-24.08401302861152
 31
0.0
  0
LINE
  5
12F
330
1F
100
AcDbEntity
  8
0
100
AcDbLine
 10
34.83843184044002
 20
-24.39487884286966
 30
0.0
 11
36.07858900154387
 21
-24.3168547677366
 31
0.0
  0
LINE
  5
130
330
1F
100
AcDbEntity
  8
0
100
AcDbLine
 10
33.59827467933609
 20
-24.3168547677366
 30
0.0
 11
34.83843184044002
 21
-24.39487884286966
 31
0.0
  0
LINE
  5
131
330
1F
100
AcDbEntity
  8
0
100
AcDbLine
 10
32.37767553749678
 20
-24.08401302861152
 30
0.0
 11
33.59827467933609
 21
-24.3168547677366
 31
0.0
  0
LINE
  5
132
330
1F
100
AcDbEntity
  8
0
100
AcDbLine
 10
31.19588399253949
 20
-23.70002567881339
 30
0.0
 11
32.37767553749678
 21
-24.08401302861152
 31
0.0
  0
LINE
  5
133
330
1F
100
AcDbEntity
  8
0
100
AcDbLine
 10
30.07153760309617
 20
-23.17094842823139
 30
0.0
 11
31.19588399253949
 21
-23.70002567881339
 31
0.0
  0
LINE
  5
134
330
1F
100
AcDbEntity
  8
0
100
AcDbLine
 10
29.02236798338039
 20
-22.50512514116268
 30
0.0
 11
30.07153760309617
 21
-23.17094842823139
 31
0.0
  0
LINE
  5
135
330
1F
100
AcDbEntity
  8
0
100
AcDbLine
 10
28.0649211650385
 20
-21.71305624858787
 30
0.0
 11
29.02236798338039
 21
-22.50512514116268
 31
0.0
  0
LINE
  5
136
330
1F
100
AcDbEntity
  8
0
100
AcDbLine
 10
25.01555933315307
 20
17.37381314585724
 30
0.0
 11
24.85816455615732
 21
16.12790519529311
 31
0.0
  0
LINE
  5
137
330
1F
100
AcDbEntity
  8
0
100
AcDbLine
 10
25.32786667748844
 20
18.59016994374948
 30
0.0
 11
25.01555933315307
 21
17.37381314585724
 31
0.0
  0
LINE
  5
138
330
1F
100
AcDbEntity
  8
0
100
AcDbLine
 10
25.79016131577979
 20
19.75779291565071
 30
0.0
 11
25.32786667748844
 21
18.59016994374948
 31
0.0
  0
LINE
  5
139
330
1F
100
AcDbEntity
  8
0
100
AcDbLine
 10
26.39515258541984
 20
20.85826794978998
 30
0.0
 11
25.79016131577979
 21
19.75779291565071
 31
0.0
  0
LINE
  5
13A
330
1F
100
AcDbEntity
  8
0
100
AcDbLine
 10
27.13329941268209
 20
21.87423989748688
 30
0.0
 11
26.39515258541984
 21
20.85826794978998
 31
0.0
  0
LINE
  5
13B
330
1F
100
AcDbEntity
  8
0
100
AcDbLine
 10
27.99296078115307
 20
22.78968627421411
 30
0.0
 11
27.13329941268209
 21
21.87423989748688
 31
0.0
  0
LINE
  5
13C
330
1F
100
AcDbEntity
  8
0
100
AcDbLine
 10
28.96057931751525
 20
23.59016994374947
 30
0.0
 11
27.99296078115307
 21
22.78968627421411
 31
0.0
  0
LINE
  5
13D
330
1F
100
AcDbEntity
  8
0
100
AcDbLine
 10
30.02089509942281
 20
24.26306680043863
 30
0.0
 11
28.96057931751525
 21
23.59016994374947
 31
0.0
  0
LINE
  5
13E
330
1F
100
AcDbEntity
  8
0
100
AcDbLine
 10
31.15718631359325
 20
24.79776485888253
 30
0.0
 11
30.02089509942281
 21
24.26306680043863
 31
0.0
  0
LINE
  5
13F
330
1F
100
AcDbEntity
  8
0
100
AcDbLine
 10
32.3515329687914
 20
25.18583161128631
 30
0.0
 11
31.15718631359325
 21
24.79776485888253
 31
0.0
  0
LINE
  5
140
330
1F
100
AcDbEntity
  8
0
100
AcDbLine
 10
33.58509950479691
 20
25.42114701314478
 30
0.0
 11
32.3515329687914
 21
25.18583161128631
 31
0.0
  0
LINE
  5
141
330
1F
100
AcDbEntity
  8
0
100
AcDbLine
 10
34.83843184044002
 20
25.50000000000002
 30
0.0
 11
33.58509950479691
 21
25.42114701314478
 31
0.0
  0
LINE
  5
142
330
1F
100
AcDbEntity
  8
0
100
AcDbLine
 10
36.09176417608305
 20
25.42114701314478
 30
0.0
 11
34.83843184044002
 21
25.50000000000002
 31
0.0
  0
LINE
  5
143
330
1F
100
AcDbEntity
  8
0
100
AcDbLine
 10
37.32533071208847
 20
25.18583161128631
 30
0.0
 11
36.09176417608305
 21
25.42114701314478
 31
0.0
  0
LINE
  5
144
330
1F
100
AcDbEntity
  8
0
100
AcDbLine
 10
38.51967736728671
 20
24.79776485888253
 30
0.0
 11
37.32533071208847
 21
25.18583161128631
 31
0.0
  0
LINE
  5
145
330
1F
100
AcDbEntity
  8
0
100
AcDbLine
 10
39.65596858145715
 20
24.26306680043863
 30
0.0
 11
38.51967736728671
 21
24.79776485888253
 31
0.0
  0
LINE
  5
146
330
1F
100
AcDbEntity
  8
0
100
AcDbLine
 10
40.7162843633647
 20
23.59016994374952
 30
0.0
 11
39.65596858145715
 21
24.26306680043863
 31
0.0
  0
LINE
  5
147
330
1F
100
AcDbEntity
  8
0
100
AcDbLine
 10
41.68390289972689
 20
22.78968627421415
 30
0.0
 11
40.7162843633647
 21
23.59016994374952
 31
0.0
  0
LINE
  5
148
330
1F
100
AcDbEntity
  8
0
100
AcDbLine
 10
42.54356426819786
 20
21.87423989748693
 30
0.0
 11
41.68390289972689
 21
22.78968627421415
 31
0.0
  0
LINE
  5
149
330
1F
100
AcDbEntity
  8
0
100
AcDbLine
 10
43.28171109546011
 20
20.85826794978998
 30
0.0
 11
42.54356426819786
 21
21.87423989748693
 31
0.0
  0
LINE
  5
14A
330
1F
100
AcDbEntity
  8
0
100
AcDbLine
 10
43.88670236510016
 20
19.75779291565075
 30
0.0
 11
43.28171109546011
 21
20.85826794978998
 31
0.0
  0
LINE
  5
14B
330
1F
100
AcDbEntity
  8
0
100
AcDbLine
 10
44.34899700339151
 20
18.59016994374948
 30
0.0
 11
43.88670236510016
 21
19.75779291565075
 31
0.0
  0
LINE
  5
14C
330
1F
100
AcDbEntity
  8
0
100
AcDbLine
 10
44.66130434772688
 20
17.37381314585729
 30
0.0
 11
44.34899700339151
 21
18.59016994374948
 31
0.0
  0
LINE
  5
14D
330
1F
100
AcDbEntity
  8
0
100
AcDbLine
 10
44.81869912472273
 20
16.12790519529315
 30
0.0
 11
44.66130434772688
 21
17.37381314585729
 31
0.0
  0
LINE
  5
14E
330
1F
100
AcDbEntity
  8
0
100
AcDbLine
 10
44.81869912472273
 20
14.87209480470688
 30
0.0
 11
44.81869912472273
 21
16.12790519529315
 31
0.0
  0
LINE
  5
14F
330
1F
100
AcDbEntity
  8
0
100
AcDbLine
 10
44.3489970033916
 20
12.40983005625056
 30
0.0
 11
44.66130434772688
 21
13.62618685414279
 31
0.0
  0
LINE
  5
150
330
1F
100
AcDbEntity
  8
0
100
AcDbLine
 10
43.88670236510026
 20
11.24220708434928
 30
0.0
 11
44.3489970033916
 21
12.40983005625056
 31
0.0
  0
LINE
  5
151
330
1F
100
AcDbEntity
  8
0
100
AcDbLine
 10
43.2817110954602
 20
10.14173205021005
 30
0.0
 11
43.88670236510026
 21
11.24220708434928
 31
0.0
  0
LINE
  5
152
330
1F
100
AcDbEntity
  8
0
100
AcDbLine
 10
42.54356426819786
 20
9.125760102513107
 30
0.0
 11
43.2817110954602
 21
10.14173205021005
 31
0.0
  0
LINE
  5
153
330
1F
100
AcDbEntity
  8
0
100
AcDbLine
 10
41.68390289972689
 20
8.210313725785882
 30
0.0
 11
42.54356426819786
 21
9.125760102513107
 31
0.0
  0
LINE
  5
154
330
1F
100
AcDbEntity
  8
0
100
AcDbLine
 10
40.71628436336479
 20
7.409830056250519
 30
0.0
 11
41.68390289972689
 21
8.210313725785882
 31
0.0
  0
LINE
  5
155
330
1F
100
AcDbEntity
  8
0
100
AcDbLine
 10
39.65596858145715
 20
6.73693319956136
 30
0.0
 11
40.71628436336479
 21
7.409830056250519
 31
0.0
  0
LINE
  5
156
330
1F
100
AcDbEntity
  8
0
100
AcDbLine
 10
38.5196773672868
 20
6.202235141117506
 30
0.0
 11
39.65596858145715
 21
6.73693319956136
 31
0.0
  0
LINE
  5
157
330
1F
100
AcDbEntity
  8
0
100
AcDbLine
 10
37.32533071208856
 20
5.814168388713675
 30
0.0
 11
38.5196773672868
 21
6.202235141117506
 31
0.0
  0
LINE
  5
158
330
1F
100
AcDbEntity
  8
0
100
AcDbLine
 10
36.09176417608305
 20
5.578852986855211
 30
0.0
 11
37.32533071208856
 21
5.814168388713675
 31
0.0
  0
LINE
  5
159
330
1F
100
AcDbEntity
  8
0
100
AcDbLine
 10
34.83843184044002
 20
5.499999999999967
 30
0.0
 11
36.09176417608305
 21
5.578852986855211
 31
0.0
  0
LINE
  5
15A
330
1F
100
AcDbEntity
  8
0
100
AcDbLine
 10
33.585099504797
 20
5.578852986855211
 30
0.0
 11
34.83843184044002
 21
5.499999999999967
 31
0.0
  0
LINE
  5
15B
330
1F
100
AcDbEntity
  8
0
100
AcDbLine
 10
32.35153296879149
 20
5.814168388713675
 30
0.0
 11
33.585099504797
 21
5.578852986855211
 31
0.0
  0
LINE
  5
15C
330
1F
100
AcDbEntity
  8
0
100
AcDbLine
 10
31.15718631359325
 20
6.202235141117461
 30
0.0
 11
32.35153296879149
 21
5.814168388713675
 31
0.0
  0
LINE
  5
15D
330
1F
100
AcDbEntity
  8
0
100
AcDbLine
 10
30.02089509942281
 20
6.73693319956136
 30
0.0
 11
31.15718631359325
 21
6.202235141117461
 31
0.0
  0
LINE
  5
15E
330
1F
100
AcDbEntity
  8
0
100
AcDbLine
 10
28.96057931751525
 20
7.409830056250519
 30
0.0
 11
30.02089509942281
 21
6.73693319956136
 31
0.0
  0
LINE
  5
15F
330
1F
100
AcDbEntity
  8
0
100
AcDbLine
 10
27.99296078115307
 20
8.210313725785882
 30
0.0
 11
28.96057931751525
 21
7.409830056250519
 31
0.0
  0
LINE
  5
160
330
1F
100
AcDbEntity
  8
0
100
AcDbLine
 10
27.13329941268209
 20
9.125760102513107
 30
0.0
 11
27.99296078115307
 21
8.210313725785882
 31
0.0
  0
LINE
  5
161
330
1F
100
AcDbEntity
  8
0
100
AcDbLine
 10
26.39515258541984
 20
10.14173205021001
 30
0.0
 11
27.13329941268209
 21
9.125760102513107
 31
0.0
  0
LINE
  5
162
330
1F
100
AcDbEntity
  8
0
100
AcDbLine
 10
25.79016131577979
 20
11.24220708434928
 30
0.0
 11
26.39515258541984
 21
10.14173205021001
 31
0.0
  0
LINE
  5
163
330
1F
100
AcDbEntity
  8
0
100
AcDbLine
 10
25.32786667748844
 20
12.40983005625051
 30
0.0
 11
25.79016131577979
 21
11.24220708434928
 31
0.0
  0
LINE
  5
164
330
1F
100
AcDbEntity
  8
0
100
AcDbLine
 10
25.01555933315307
 20
13.62618685414275
 30
0.0
 11
25.32786667748844
 21
12.40983005625051
 31
0.0
  0
LINE
  5
165
330
1F
100
AcDbEntity
  8
0
100
AcDbLine
 10
19.06322580135168
 20
-26.86595597654514
 30
0.0
 11
19.24010114092782
 21
-26.53415650522098
 31
0.0
  0
LINE
  5
166
330
1F
100
AcDbEntity
  8
0
100
AcDbLine
 10
18.80939215273441
 20
-27.14334424909961
 30
0.0
 11
19.06322580135168
 21
-26.86595597654514
 31
0.0
  0
LINE
  5
167
330
1F
100
AcDbEntity
  8
0
100
AcDbLine
 10
18.58843184044002
 20
23.20096189432335
 30
0.0
 11
18.89909201221981
 21
23.43933982822018
 31
0.0
  0
LINE
  5
168
330
1F
100
AcDbEntity
  8
0
100
AcDbLine
 10
18.89909201221981
 20
23.43933982822018
 30
0.0
 11
19.13746994611668
 21
23.75000000000001
 31
0.0
  0
LINE
  5
169
330
1F
100
AcDbEntity
  8
0
100
AcDbLine
 10
16.38954310100641
 20
24.88822856765378
 30
0.0
 11
16.33843184043999
 21
24.49999999999998
 31
0.0
  0
LINE
  5
16A
330
1F
100
AcDbEntity
  8
0
100
AcDbLine
 10
16.38954310100641
 20
24.11177143234622
 30
0.0
 11
16.53939373476334
 21
23.75000000000001
 31
0.0
  0
LINE
  5
16B
330
1F
100
AcDbEntity
  8
0
100
AcDbLine
 10
16.53939373476334
 20
23.75000000000001
 30
0.0
 11
16.77777166866021
 21
23.43933982822018
 31
0.0
  0
LINE
  5
16C
330
1F
100
AcDbEntity
  8
0
100
AcDbLine
 10
21.44467642449142
 20
20.89375541594861
 30
0.0
 11
20.94311512838446
 21
20.45389796451468
 31
0.0
  0
LINE
  5
16D
330
1F
100
AcDbEntity
  8
0
100
AcDbLine
 10
-26.94979325895083
 20
-6.288225099390843
 30
0.0
 11
-24.96156815956
 21
-7.813843876330576
 31
0.0
  0
LINE
  5
16E
330
1F
100
AcDbEntity
  8
0
100
AcDbLine
 10
-10.88868022718496
 20
2.984662832984213
 30
0.0
 11
-11.84772428322941
 21
5.300000000000013
 31
0.0
  0
LINE
  5
16F
330
1F
100
AcDbEntity
  8
0
100
AcDbLine
 10
20.49098048811387
 20
26.06855032422689
 30
0.0
 11
20.52311059217172
 21
26.04999999999999
 31
0.0
  0
LINE
  5
170
330
1F
100
AcDbEntity
  8
0
100
AcDbLine
 10
20.52311059217172
 20
26.04999999999999
 30
0.0
 11
20.88868437213419
 21
25.55025253169417
 31
0.0
  0
LINE
  5
171
330
1F
100
AcDbEntity
  8
0
100
AcDbLine
 10
20.88868437213419
 20
25.55025253169417
 30
0.0
 11
22.33843184043998
 21
24.43782217350893
 31
0.0
  0
LINE
  5
172
330
1F
100
AcDbEntity
  8
0
100
AcDbLine
 10
22.33843184043998
 20
24.43782217350893
 30
0.0
 11
22.91860536446977
 21
24.19750643132599
 31
0.0
  0
LINE
  5
173
330
1F
100
AcDbEntity
  8
0
100
AcDbLine
 10
22.91860536446977
 20
24.19750643132599
 30
0.0
 11
22.89480063344641
 21
23.83431641967772
 31
0.0
  0
LINE
  5
174
330
1F
100
AcDbEntity
  8
0
100
AcDbLine
 10
22.89480063344641
 20
23.83431641967772
 30
0.0
 11
22.76465355451426
 21
23.18002286997714
 31
0.0
  0
LINE
  5
175
330
1F
100
AcDbEntity
  8
0
100
AcDbLine
 10
22.76465355451426
 20
23.18002286997714
 30
0.0
 11
22.55021745624756
 21
22.54831449493802
 31
0.0
  0
LINE
  5
176
330
1F
100
AcDbEntity
  8
0
100
AcDbLine
 10
22.55021745624756
 20
22.54831449493802
 30
0.0
 11
22.25516139974059
 21
21.95000000000002
 31
0.0
  0
LINE
  5
177
330
1F
100
AcDbEntity
  8
0
100
AcDbLine
 10
22.25516139974059
 20
21.95000000000002
 30
0.0
 11
21.8845338759253
 21
21.39531671205553
 31
0.0
  0
LINE
  5
178
330
1F
100
AcDbEntity
  8
0
100
AcDbLine
 10
21.8845338759253
 20
21.39531671205553
 30
0.0
 11
21.44467642449142
 21
20.89375541594861
 31
0.0
  0
LINE
  5
179
330
1F
100
AcDbEntity
  8
0
100
AcDbLine
 10
20.94311512838446
 20
20.45389796451468
 30
0.0
 11
20.38843184043997
 21
20.08327044069935
 31
0.0
  0
LINE
  5
17A
330
1F
100
AcDbEntity
  8
0
100
AcDbLine
 10
20.38843184043997
 20
20.08327044069935
 30
0.0
 11
19.79011734550196
 21
19.78821438419243
 31
0.0
  0
LINE
  5
17B
330
1F
100
AcDbEntity
  8
0
100
AcDbLine
 10
19.79011734550196
 20
19.78821438419243
 30
0.0
 11
19.15840897046284
 21
19.57377828592573
 31
0.0
  0
LINE
  5
17C
330
1F
100
AcDbEntity
  8
0
100
AcDbLine
 10
19.15840897046284
 20
19.57377828592573
 30
0.0
 11
18.50411542076227
 21
19.44363120699358
 31
0.0
  0
LINE
  5
17D
330
1F
100
AcDbEntity
  8
0
100
AcDbLine
 10
18.50411542076227
 20
19.44363120699358
 30
0.0
 11
17.83843184044001
 21
19.40000000000001
 31
0.0
  0
LINE
  5
17E
330
1F
100
AcDbEntity
  8
0
100
AcDbLine
 10
17.83843184044001
 20
19.40000000000001
 30
0.0
 11
17.17274826011775
 21
19.44363120699358
 31
0.0
  0
LINE
  5
17F
330
1F
100
AcDbEntity
  8
0
100
AcDbLine
 10
17.17274826011775
 20
19.44363120699358
 30
0.0
 11
16.51845471041717
 21
19.57377828592573
 31
0.0
  0
LINE
  5
180
330
1F
100
AcDbEntity
  8
0
100
AcDbLine
 10
16.51845471041717
 20
19.57377828592573
 30
0.0
 11
15.88674633537805
 21
19.78821438419243
 31
0.0
  0
LINE
  5
181
330
1F
100
AcDbEntity
  8
0
100
AcDbLine
 10
15.88674633537805
 20
19.78821438419243
 30
0.0
 11
15.28843184043996
 21
20.08327044069935
 31
0.0
  0
LINE
  5
182
330
1F
100
AcDbEntity
  8
0
100
AcDbLine
 10
15.28843184043996
 20
20.08327044069935
 30
0.0
 11
14.73374855249556
 21
20.45389796451468
 31
0.0
  0
LINE
  5
183
330
1F
100
AcDbEntity
  8
0
100
AcDbLine
 10
14.73374855249556
 20
20.45389796451468
 30
0.0
 11
14.23218725638859
 21
20.89375541594861
 31
0.0
  0
LINE
  5
184
330
1F
100
AcDbEntity
  8
0
100
AcDbLine
 10
14.23218725638859
 20
20.89375541594861
 30
0.0
 11
13.79232980495472
 21
21.39531671205553
 31
0.0
  0
LINE
  5
185
330
1F
100
AcDbEntity
  8
0
100
AcDbLine
 10
13.79232980495472
 20
21.39531671205553
 30
0.0
 11
13.42170228113934
 21
21.95000000000002
 31
0.0
  0
LINE
  5
186
330
1F
100
AcDbEntity
  8
0
100
AcDbLine
 10
13.42170228113934
 20
21.95000000000002
 30
0.0
 11
13.12664622463246
 21
22.54831449493802
 31
0.0
  0
LINE
  5
187
330
1F
100
AcDbEntity
  8
0
100
AcDbLine
 10
13.12664622463246
 20
22.54831449493802
 30
0.0
 11
12.91221012636576
 21
23.18002286997714
 31
0.0
  0
LINE
  5
188
330
1F
100
AcDbEntity
  8
0
100
AcDbLine
 10
12.91221012636576
 20
23.18002286997714
 30
0.0
 11
12.78206304743361
 21
23.83431641967772
 31
0.0
  0
LINE
  5
189
330
1F
100
AcDbEntity
  8
0
100
AcDbLine
 10
12.78206304743361
 20
23.83431641967772
 30
0.0
 11
12.73843184044
 21
24.49999999999998
 31
0.0
  0
LINE
  5
18A
330
1F
100
AcDbEntity
  8
0
100
AcDbLine
 10
12.73843184044
 20
24.49999999999998
 30
0.0
 11
11.94851685491563
 21
30.50000000000001
 31
0.0
  0
LINE
  5
18B
330
1F
100
AcDbEntity
  8
0
100
AcDbLine
 10
11.94851685491563
 20
30.50000000000001
 30
0.0
 11
18.32650654564304
 21
30.50000000000001
 31
0.0
  0
LINE
  5
18C
330
1F
100
AcDbEntity
  8
0
100
AcDbLine
 10
19.77625401394891
 20
27.0
 30
0.0
 11
20.49098048811387
 21
26.06855032422689
 31
0.0
  0
LINE
  5
18D
330
1F
100
AcDbEntity
  8
0
100
AcDbLine
 10
17.45020327278621
 20
23.05111126056638
 30
0.0
 11
17.83843184044001
 21
23.0
 31
0.0
  0
LINE
  5
18E
330
1F
100
AcDbEntity
  8
0
100
AcDbLine
 10
17.83843184044001
 20
23.0
 30
0.0
 11
18.22666040809381
 21
23.05111126056638
 31
0.0
  0
LINE
  5
18F
330
1F
100
AcDbEntity
  8
0
100
AcDbLine
 10
18.22666040809381
 20
23.05111126056638
 30
0.0
 11
18.58843184044002
 21
23.20096189432335
 31
0.0
  0
LINE
  5
190
330
1F
100
AcDbEntity
  8
0
100
AcDbLine
 10
19.13746994611668
 20
23.75000000000001
 30
0.0
 11
19.28732057987361
 21
24.11177143234622
 31
0.0
  0
LINE
  5
191
330
1F
100
AcDbEntity
  8
0
100
AcDbLine
 10
19.28732057987361
 20
24.11177143234622
 30
0.0
 11
19.33843184044003
 21
24.49999999999998
 31
0.0
  0
LINE
  5
192
330
1F
100
AcDbEntity
  8
0
100
AcDbLine
 10
19.33843184044003
 20
24.49999999999998
 30
0.0
 11
19.28732057987361
 21
24.88822856765378
 31
0.0
  0
LINE
  5
193
330
1F
100
AcDbEntity
  8
0
100
AcDbLine
 10
19.28732057987361
 20
24.88822856765378
 30
0.0
 11
19.13746994611668
 21
25.24999999999999
 31
0.0
  0
LINE
  5
194
330
1F
100
AcDbEntity
  8
0
100
AcDbLine
 10
19.13746994611668
 20
25.24999999999999
 30
0.0
 11
18.89909201221981
 21
25.56066017177982
 31
0.0
  0
LINE
  5
195
330
1F
100
AcDbEntity
  8
0
100
AcDbLine
 10
18.89909201221981
 20
25.56066017177982
 30
0.0
 11
18.58843184044002
 21
25.79903810567665
 31
0.0
  0
LINE
  5
196
330
1F
100
AcDbEntity
  8
0
100
AcDbLine
 10
18.58843184044002
 20
25.79903810567665
 30
0.0
 11
18.22666040809381
 21
25.94888873943358
 31
0.0
  0
LINE
  5
197
330
1F
100
AcDbEntity
  8
0
100
AcDbLine
 10
18.22666040809381
 20
25.94888873943358
 30
0.0
 11
17.83843184044001
 21
26.0
 31
0.0
  0
LINE
  5
198
330
1F
100
AcDbEntity
  8
0
100
AcDbLine
 10
17.83843184044001
 20
26.0
 30
0.0
 11
17.45020327278621
 21
25.94888873943358
 31
0.0
  0
LINE
  5
199
330
1F
100
AcDbEntity
  8
0
100
AcDbLine
 10
17.45020327278621
 20
25.94888873943358
 30
0.0
 11
17.08843184044
 21
25.79903810567665
 31
0.0
  0
LINE
  5
19A
330
1F
100
AcDbEntity
  8
0
100
AcDbLine
 10
17.08843184044
 20
25.79903810567665
 30
0.0
 11
16.77777166866021
 21
25.56066017177982
 31
0.0
  0
LINE
  5
19B
330
1F
100
AcDbEntity
  8
0
100
AcDbLine
 10
16.53939373476334
 20
25.24999999999999
 30
0.0
 11
16.38954310100641
 21
24.88822856765378
 31
0.0
  0
LINE
  5
19C
330
1F
100
AcDbEntity
  8
0
100
AcDbLine
 10
16.77777166866021
 20
23.43933982822018
 30
0.0
 11
17.08843184044
 21
23.20096189432335
 31
0.0
  0
LINE
  5
19D
330
1F
100
AcDbEntity
  8
0
100
AcDbLine
 10
17.08843184044
 20
23.20096189432335
 30
0.0
 11
17.45020327278621
 21
23.05111126056638
 31
0.0
  0
LINE
  5
19E
330
1F
100
AcDbEntity
  8
0
100
AcDbLine
 10
-10.56156815956003
 20
0.5000000000000216
 30
0.0
 11
-10.88868022718496
 21
2.984662832984213
 31
0.0
  0
LINE
  5
19F
330
1F
100
AcDbEntity
  8
0
100
AcDbLine
 10
-11.84772428322941
 20
5.300000000000013
 30
0.0
 11
-13.37334306016919
 21
7.288225099390841
 31
0.0
  0
LINE
  5
1A0
330
1F
100
AcDbEntity
  8
0
100
AcDbLine
 10
-10.88868022718496
 20
-1.98466283298417
 30
0.0
 11
-10.56156815956003
 21
0.5000000000000216
 31
0.0
  0
LINE
  5
1A1
330
1F
100
AcDbEntity
  8
0
100
AcDbLine
 10
-11.84772428322941
 20
-4.29999999999997
 30
0.0
 11
-10.88868022718496
 21
-1.98466283298417
 31
0.0
  0
LINE
  5
1A2
330
1F
100
AcDbEntity
  8
0
100
AcDbLine
 10
-51.68017392111285
 20
1.182509528986634
 30
0.0
 11
-51.17177609064687
 21
1.519982231549388
 31
0.0
  0
LINE
  5
1A3
330
1F
100
AcDbEntity
  8
0
100
AcDbLine
 10
-22.64623099254425
 20
-8.772887932375035
 30
0.0
 11
-20.16156815956001
 21
-9.09999999999996
 31
0.0
  0
LINE
  5
1A4
330
1F
100
AcDbEntity
  8
0
100
AcDbLine
 10
-45.11223637026678
 20
0.3615173351308744
 30
0.0
 11
-45.11223637026678
 21
-0.1948562808787596
 31
0.0
  0
LINE
  5
1A5
330
1F
100
AcDbEntity
  8
0
100
AcDbLine
 10
-51.17177609064687
 20
1.519982231549388
 30
0.0
 11
-49.8882234322615
 21
3.047719788236832
 31
0.0
  0
LINE
  5
1A6
330
1F
100
AcDbEntity
  8
0
100
AcDbLine
 10
-53.06414210227464
 20
-12.71329112162522
 30
0.0
 11
-52.94917786618846
 21
-12.42181068335507
 31
0.0
  0
LINE
  5
1A7
330
1F
100
AcDbEntity
  8
0
100
AcDbLine
 10
-57.83843184044002
 20
-14.17222372769452
 30
0.0
 11
-47.02831537095447
 21
-15.52348828638024
 31
0.0
  0
LINE
  5
1A8
330
1F
100
AcDbEntity
  8
0
100
AcDbLine
 10
-57.83843184044002
 20
-0.2592524758465959
 30
0.0
 11
-57.83843184044002
 21
-14.17222372769452
 31
0.0
  0
LINE
  5
1A9
330
1F
100
AcDbEntity
  8
0
100
AcDbLine
 10
-55.83843184044003
 20
-0.2592524758465959
 30
0.0
 11
-57.83843184044002
 21
-0.2592524758465959
 31
0.0
  0
LINE
  5
1AA
330
1F
100
AcDbEntity
  8
0
100
AcDbLine
 10
-54.15277547259221
 20
-0.0541673809833401
 30
0.0
 11
-55.83843184044003
 21
-0.2592524758465959
 31
0.0
  0
LINE
  5
1AB
330
1F
100
AcDbEntity
  8
0
100
AcDbLine
 10
-52.56609991889372
 20
0.5507772230068159
 30
0.0
 11
-54.15277547259221
 21
-0.0541673809833401
 31
0.0
  0
LINE
  5
1AC
330
1F
100
AcDbEntity
  8
0
100
AcDbLine
 10
-51.83478152678822
 20
1.059122152720265
 30
0.0
 11
-52.56609991889372
 21
0.5507772230068159
 31
0.0
  0
LINE
  5
1AD
330
1F
100
AcDbEntity
  8
0
100
AcDbLine
 10
-51.83478152678822
 20
1.059122152720265
 30
0.0
 11
-51.68017392111285
 21
1.182509528986634
 31
0.0
  0
LINE
  5
1AE
330
1F
100
AcDbEntity
  8
0
100
AcDbLine
 10
-45.11223637026678
 20
0.3615173351308744
 30
0.0
 11
-51.68017392111285
 21
1.182509528986634
 31
0.0
  0
LINE
  5
1AF
330
1F
100
AcDbEntity
  8
0
100
AcDbLine
 10
-46.65037933515693
 20
-12.50000000000001
 30
0.0
 11
-45.11223637026678
 21
-0.1948562808787596
 31
0.0
  0
LINE
  5
1B0
330
1F
100
AcDbEntity
  8
0
100
AcDbLine
 10
-47.02831537095447
 20
-15.52348828638024
 30
0.0
 11
-46.65037933515693
 21
-12.50000000000001
 31
0.0
  0
LINE
  5
1B1
330
1F
100
AcDbEntity
  8
0
100
AcDbLine
 10
-55.32313443282867
 20
-11.65389879953421
 30
0.0
 11
-55.39007494940353
 21
-11.95881279273083
 31
0.0
  0
LINE
  5
1B2
330
1F
100
AcDbEntity
  8
0
100
AcDbLine
 10
-55.39007494940353
 20
-11.95881279273083
 30
0.0
 11
-55.40024989320252
 21
-12.27082248252445
 31
0.0
  0
LINE
  5
1B3
330
1F
100
AcDbEntity
  8
0
100
AcDbLine
 10
-55.40024989320252
 20
-12.27082248252445
 30
0.0
 11
-55.3219300109946
 21
-12.57420939312535
 31
0.0
  0
LINE
  5
1B4
330
1F
100
AcDbEntity
  8
0
100
AcDbLine
 10
-55.3219300109946
 20
-12.57420939312535
 30
0.0
 11
-55.17062143534178
 21
-12.84858748337119
 31
0.0
  0
LINE
  5
1B5
330
1F
100
AcDbEntity
  8
0
100
AcDbLine
 10
-55.17062143534178
 20
-12.84858748337119
 30
0.0
 11
-54.95583144052641
 21
-13.07671656875977
 31
0.0
  0
LINE
  5
1B6
330
1F
100
AcDbEntity
  8
0
100
AcDbLine
 10
-54.95583144052641
 20
-13.07671656875977
 30
0.0
 11
-54.69105607186499
 21
-13.24426245985603
 31
0.0
  0
LINE
  5
1B7
330
1F
100
AcDbEntity
  8
0
100
AcDbLine
 10
-54.69105607186499
 20
-13.24426245985603
 30
0.0
 11
-54.3929321395462
 21
-13.34069763213173
 31
0.0
  0
LINE
  5
1B8
330
1F
100
AcDbEntity
  8
0
100
AcDbLine
 10
-54.3929321395462
 20
-13.34069763213173
 30
0.0
 11
-54.08019186666088
 21
-13.35996270904902
 31
0.0
  0
LINE
  5
1B9
330
1F
100
AcDbEntity
  8
0
100
AcDbLine
 10
-54.08019186666088
 20
-13.35996270904902
 30
0.0
 11
-53.77248587473263
 21
-13.30084719497316
 31
0.0
  0
LINE
  5
1BA
330
1F
100
AcDbEntity
  8
0
100
AcDbLine
 10
-53.77248587473263
 20
-13.30084719497316
 30
0.0
 11
-53.48914846289763
 21
-13.16706553506526
 31
0.0
  0
LINE
  5
1BB
330
1F
100
AcDbEntity
  8
0
100
AcDbLine
 10
-53.48914846289763
 20
-13.16706553506526
 30
0.0
 11
-53.24798276278385
 21
-12.9670237230318
 31
0.0
  0
LINE
  5
1BC
330
1F
100
AcDbEntity
  8
0
100
AcDbLine
 10
-53.24798276278385
 20
-12.9670237230318
 30
0.0
 11
-53.06414210227464
 21
-12.71329112162522
 31
0.0
  0
LINE
  5
1BD
330
1F
100
AcDbEntity
  8
0
100
AcDbLine
 10
-52.94917786618846
 20
-12.42181068335507
 30
0.0
 11
-52.91031368028754
 21
-12.11089719614797
 31
0.0
  0
LINE
  5
1BE
330
1F
100
AcDbEntity
  8
0
100
AcDbLine
 10
-52.91031368028754
 20
-12.11089719614797
 30
0.0
 11
-52.94999152430455
 21
-11.80008649786491
 31
0.0
  0
LINE
  5
1BF
330
1F
100
AcDbEntity
  8
0
100
AcDbLine
 10
-52.94999152430455
 20
-11.80008649786491
 30
0.0
 11
-53.06571829337493
 21
-11.50890796776087
 31
0.0
  0
LINE
  5
1C0
330
1F
100
AcDbEntity
  8
0
100
AcDbLine
 10
-53.06571829337493
 20
-11.50890796776087
 30
0.0
 11
-53.25022244898474
 21
-11.25565742376196
 31
0.0
  0
LINE
  5
1C1
330
1F
100
AcDbEntity
  8
0
100
AcDbLine
 10
-53.25022244898474
 20
-11.25565742376196
 30
0.0
 11
-53.49191091647816
 21
-11.05624752893801
 31
0.0
  0
LINE
  5
1C2
330
1F
100
AcDbEntity
  8
0
100
AcDbLine
 10
-53.49191091647816
 20
-11.05624752893801
 30
0.0
 11
-53.77559752057461
 21
-10.92320794035908
 31
0.0
  0
LINE
  5
1C3
330
1F
100
AcDbEntity
  8
0
100
AcDbLine
 10
-53.77559752057461
 20
-10.92320794035908
 30
0.0
 11
-54.08345718861239
 21
-10.864898024661
 31
0.0
  0
LINE
  5
1C4
330
1F
100
AcDbEntity
  8
0
100
AcDbLine
 10
-54.08345718861239
 20
-10.864898024661
 30
0.0
 11
-54.39614596541993
 21
-10.88498160829589
 31
0.0
  0
LINE
  5
1C5
330
1F
100
AcDbEntity
  8
0
100
AcDbLine
 10
-54.39614596541993
 20
-10.88498160829589
 30
0.0
 11
-54.69401646516165
 21
-10.98219676584177
 31
0.0
  0
LINE
  5
1C6
330
1F
100
AcDbEntity
  8
0
100
AcDbLine
 10
-54.69401646516165
 20
-10.98219676584177
 30
0.0
 11
-54.95835238884756
 21
-11.15043511141768
 31
0.0
  0
LINE
  5
1C7
330
1F
100
AcDbEntity
  8
0
100
AcDbLine
 10
-54.95835238884756
 20
-11.15043511141768
 30
0.0
 11
-55.17254453823309
 21
-11.37912561103371
 31
0.0
  0
LINE
  5
1C8
330
1F
100
AcDbEntity
  8
0
100
AcDbLine
 10
-55.17254453823309
 20
-11.37912561103371
 30
0.0
 11
-55.32313443282867
 21
-11.65389879953421
 31
0.0
  0
LINE
  5
1C9
330
1F
100
AcDbEntity
  8
0
100
AcDbLine
 10
-45.35390067427677
 20
12.30523701879929
 30
0.0
 11
-45.73126423831476
 21
11.71235659366471
 31
0.0
  0
LINE
  5
1CA
330
1F
100
AcDbEntity
  8
0
100
AcDbLine
 10
-13.37334306016919
 20
-6.288225099390798
 30
0.0
 11
-11.84772428322941
 21
-4.29999999999997
 31
0.0
  0
LINE
  5
1CB
330
1F
100
AcDbEntity
  8
0
100
AcDbLine
 10
-49.8882234322615
 20
3.047719788236832
 30
0.0
 11
-49.08785768060929
 21
4.875533819407369
 31
0.0
  0
LINE
  5
1CC
330
1F
100
AcDbEntity
  8
0
100
AcDbLine
 10
-49.08785768060929
 20
4.875533819407369
 30
0.0
 11
-48.83571246449682
 21
6.854905502278758
 31
0.0
  0
LINE
  5
1CD
330
1F
100
AcDbEntity
  8
0
100
AcDbLine
 10
-48.83571246449682
 20
6.854905502278758
 30
0.0
 11
-49.15227581499758
 21
8.825001214187532
 31
0.0
  0
LINE
  5
1CE
330
1F
100
AcDbEntity
  8
0
100
AcDbLine
 10
-49.15227581499758
 20
8.825001214187532
 30
0.0
 11
-49.53466358041238
 21
9.626096210730058
 31
0.0
  0
LINE
  5
1CF
330
1F
100
AcDbEntity
  8
0
100
AcDbLine
 10
-47.92710183511621
 20
10.01097298435734
 30
0.0
 11
-48.59543550236936
 21
9.793624031778169
 31
0.0
  0
LINE
  5
1D0
330
1F
100
AcDbEntity
  8
0
100
AcDbLine
 10
-47.2949935792501
 20
10.3181368019485
 30
0.0
 11
-47.92710183511621
 21
10.01097298435734
 31
0.0
  0
LINE
  5
1D1
330
1F
100
AcDbEntity
  8
0
100
AcDbLine
 10
-46.71111399805981
 20
10.70928267325528
 30
0.0
 11
-47.2949935792501
 21
10.3181368019485
 31
0.0
  0
LINE
  5
1D2
330
1F
100
AcDbEntity
  8
0
100
AcDbLine
 10
-46.18655052835219
 20
11.17698303055637
 30
0.0
 11
-46.71111399805981
 21
10.70928267325528
 31
0.0
  0
LINE
  5
1D3
330
1F
100
AcDbEntity
  8
0
100
AcDbLine
 10
-45.73126423831476
 20
11.71235659366471
 30
0.0
 11
-46.18655052835219
 21
11.17698303055637
 31
0.0
  0
LINE
  5
1D4
330
1F
100
AcDbEntity
  8
0
100
AcDbLine
 10
-45.06162568824637
 20
12.94436594985486
 30
0.0
 11
-45.35390067427677
 21
12.30523701879929
 31
0.0
  0
LINE
  5
1D5
330
1F
100
AcDbEntity
  8
0
100
AcDbLine
 10
-44.85998936373778
 20
13.61760680616851
 30
0.0
 11
-45.06162568824637
 21
12.94436594985486
 31
0.0
  0
LINE
  5
1D6
330
1F
100
AcDbEntity
  8
0
100
AcDbLine
 10
-44.75282062383372
 20
14.31217524711491
 30
0.0
 11
-44.85998936373778
 21
13.61760680616851
 31
0.0
  0
LINE
  5
1D7
330
1F
100
AcDbEntity
  8
0
100
AcDbLine
 10
-44.7421545227982
 20
15.01488193717837
 30
0.0
 11
-44.75282062383372
 21
14.31217524711491
 31
0.0
  0
LINE
  5
1D8
330
1F
100
AcDbEntity
  8
0
100
AcDbLine
 10
-44.82819360191722
 20
15.71238300157589
 30
0.0
 11
-44.7421545227982
 21
15.01488193717837
 31
0.0
  0
LINE
  5
1D9
330
1F
100
AcDbEntity
  8
0
100
AcDbLine
 10
-45.00930404339088
 20
16.39143341646457
 30
0.0
 11
-44.82819360191722
 21
15.71238300157589
 31
0.0
  0
LINE
  5
1DA
330
1F
100
AcDbEntity
  8
0
100
AcDbLine
 10
-45.28204669531265
 20
17.03913852204423
 30
0.0
 11
-45.00930404339088
 21
16.39143341646457
 31
0.0
  0
LINE
  5
1DB
330
1F
100
AcDbEntity
  8
0
100
AcDbLine
 10
-45.64124237859301
 20
17.64319888250838
 30
0.0
 11
-45.28204669531265
 21
17.03913852204423
 31
0.0
  0
LINE
  5
1DC
330
1F
100
AcDbEntity
  8
0
100
AcDbLine
 10
-46.080070235699
 20
18.19214384313655
 30
0.0
 11
-45.64124237859301
 21
17.64319888250838
 31
0.0
  0
LINE
  5
1DD
330
1F
100
AcDbEntity
  8
0
100
AcDbLine
 10
-49.39421772397177
 20
21.33268940969297
 30
0.0
 11
-48.70056284364701
 21
22.13404644019163
 31
0.0
  0
LINE
  5
1DE
330
1F
100
AcDbEntity
  8
0
100
AcDbLine
 10
-44.76681086077743
 20
25.53352900095899
 30
0.0
 11
-42.57292367326834
 21
26.93364127242979
 31
0.0
  0
LINE
  5
1DF
330
1F
100
AcDbEntity
  8
0
100
AcDbLine
 10
-42.57292367326834
 20
26.93364127242979
 30
0.0
 11
-40.25442576155348
 21
28.11602141333761
 31
0.0
  0
LINE
  5
1E0
330
1F
100
AcDbEntity
  8
0
100
AcDbLine
 10
-40.25442576155348
 20
28.11602141333761
 30
0.0
 11
-37.83285929588932
 21
29.06968341667559
 31
0.0
  0
LINE
  5
1E1
330
1F
100
AcDbEntity
  8
0
100
AcDbLine
 10
-37.83285929588932
 20
29.06968341667559
 30
0.0
 11
-35.33072410119611
 21
29.78576639490994
 31
0.0
  0
LINE
  5
1E2
330
1F
100
AcDbEntity
  8
0
100
AcDbLine
 10
-30.22374598605109
 20
27.00000000000004
 30
0.0
 11
-29.1113156278658
 21
25.55025253169417
 31
0.0
  0
LINE
  5
1E3
330
1F
100
AcDbEntity
  8
0
100
AcDbLine
 10
-27.66156815956002
 20
24.43782217350898
 30
0.0
 11
-27.47211003335001
 21
24.35934604813096
 31
0.0
  0
LINE
  5
1E4
330
1F
100
AcDbEntity
  8
0
100
AcDbLine
 10
-27.47211003335001
 20
24.35934604813096
 30
0.0
 11
-29.36468197667691
 21
23.74441214720631
 31
0.0
  0
LINE
  5
1E5
330
1F
100
AcDbEntity
  8
0
100
AcDbLine
 10
-15.36156815956002
 20
-7.813843876330576
 30
0.0
 11
-13.37334306016919
 21
-6.288225099390798
 31
0.0
  0
LINE
  5
1E6
330
1F
100
AcDbEntity
  8
0
100
AcDbLine
 10
-26.94979325895083
 20
7.288225099390885
 30
0.0
 11
-28.47541203589061
 21
5.300000000000013
 31
0.0
  0
LINE
  5
1E7
330
1F
100
AcDbEntity
  8
0
100
AcDbLine
 10
-17.67690532657577
 20
9.772887932375077
 30
0.0
 11
-20.16156815956001
 21
10.1
 31
0.0
  0
LINE
  5
1E8
330
1F
100
AcDbEntity
  8
0
100
AcDbLine
 10
-13.37334306016919
 20
7.288225099390841
 30
0.0
 11
-15.36156815956002
 21
8.813843876330619
 31
0.0
  0
LINE
  5
1E9
330
1F
100
AcDbEntity
  8
0
100
AcDbLine
 10
-24.96156815956
 20
-7.813843876330576
 30
0.0
 11
-22.64623099254425
 21
-8.772887932375035
 31
0.0
  0
LINE
  5
1EA
330
1F
100
AcDbEntity
  8
0
100
AcDbLine
 10
-15.36156815956002
 20
8.813843876330619
 30
0.0
 11
-17.67690532657577
 21
9.772887932375077
 31
0.0
  0
LINE
  5
1EB
330
1F
100
AcDbEntity
  8
0
100
AcDbLine
 10
-29.43445609193507
 20
2.984662832984213
 30
0.0
 11
-29.76156815956
 21
0.5000000000000216
 31
0.0
  0
LINE
  5
1EC
330
1F
100
AcDbEntity
  8
0
100
AcDbLine
 10
-29.76156815956
 20
0.5000000000000216
 30
0.0
 11
-29.43445609193507
 21
-1.98466283298417
 31
0.0
  0
LINE
  5
1ED
330
1F
100
AcDbEntity
  8
0
100
AcDbLine
 10
-20.16156815956001
 20
10.1
 30
0.0
 11
-22.64623099254425
 21
9.772887932375077
 31
0.0
  0
LINE
  5
1EE
330
1F
100
AcDbEntity
  8
0
100
AcDbLine
 10
-28.47541203589061
 20
-4.29999999999997
 30
0.0
 11
-26.94979325895083
 21
-6.288225099390843
 31
0.0
  0
LINE
  5
1EF
330
1F
100
AcDbEntity
  8
0
100
AcDbLine
 10
44.0845907537494
 20
7.850912123015729
 30
0.0
 11
44.97036694646416
 21
9.070078460252038
 31
0.0
  0
LINE
  5
1F0
330
1F
100
AcDbEntity
  8
0
100
AcDbLine
 10
40.61947592966057
 20
26.01568016052635
 30
0.0
 11
39.25592647265616
 21
26.65731783065899
 31
0.0
  0
LINE
  5
1F1
330
1F
100
AcDbEntity
  8
0
100
AcDbLine
 10
31.85415319446176
 20
3.877002066456393
 30
0.0
 11
33.33443303766836
 21
3.594623584226264
 31
0.0
  0
LINE
  5
1F2
330
1F
100
AcDbEntity
  8
0
100
AcDbLine
 10
36.34243064321169
 20
27.40537641577372
 30
0.0
 11
34.83843184044002
 21
27.50000000000002
 31
0.0
  0
LINE
  5
1F3
330
1F
100
AcDbEntity
  8
0
100
AcDbLine
 10
46.81475258157923
 20
14.74651376564825
 30
0.0
 11
46.81475258157923
 21
16.25348623435174
 31
0.0
  0
LINE
  5
1F4
330
1F
100
AcDbEntity
  8
0
100
AcDbLine
 10
23.42575364489814
 20
11.7917960675006
 30
0.0
 11
23.98050721084776
 21
10.39064850121907
 31
0.0
  0
LINE
  5
1F5
330
1F
100
AcDbEntity
  8
0
100
AcDbLine
 10
29.05738775121947
 20
4.984319839473588
 30
0.0
 11
30.42093720822389
 21
4.342682169340955
 31
0.0
  0
LINE
  5
1F6
330
1F
100
AcDbEntity
  8
0
100
AcDbLine
 10
25.59227292713056
 20
7.850912123015684
 30
0.0
 11
26.62386656929573
 21
6.752376470943052
 31
0.0
  0
LINE
  5
1F7
330
1F
100
AcDbEntity
  8
0
100
AcDbLine
 10
30.42093720822389
 20
4.342682169340955
 30
0.0
 11
31.85415319446176
 21
3.877002066456393
 31
0.0
  0
LINE
  5
1F8
330
1F
100
AcDbEntity
  8
0
100
AcDbLine
 10
-17.67690532657577
 20
-8.772887932375035
 30
0.0
 11
-15.36156815956002
 21
-7.813843876330576
 31
0.0
  0
LINE
  5
1F9
330
1F
100
AcDbEntity
  8
0
100
AcDbLine
 10
29.33843184044001
 20
24.43782217350893
 30
0.0
 11
30.78817930874579
 21
25.55025253169417
 31
0.0
  0
LINE
  5
1FA
330
1F
100
AcDbEntity
  8
0
100
AcDbLine
 10
-28.47541203589061
 20
5.300000000000013
 30
0.0
 11
-29.43445609193507
 21
2.984662832984213
 31
0.0
  0
LINE
  5
1FB
330
1F
100
AcDbEntity
  8
0
100
AcDbLine
 10
44.97036694646416
 20
9.070078460252038
 30
0.0
 11
45.69635647003219
 21
10.39064850121912
 31
0.0
  0
LINE
  5
1FC
330
1F
100
AcDbEntity
  8
0
100
AcDbLine
 10
36.34243064321169
 20
3.594623584226264
 30
0.0
 11
37.8227104864182
 21
3.877002066456438
 31
0.0
  0
LINE
  5
1FD
330
1F
100
AcDbEntity
  8
0
100
AcDbLine
 10
39.25592647265616
 20
4.342682169340999
 30
0.0
 11
40.61947592966057
 21
4.984319839473633
 31
0.0
  0
LINE
  5
1FE
330
1F
100
AcDbEntity
  8
0
100
AcDbLine
 10
26.62386656929573
 20
6.752376470943052
 30
0.0
 11
27.78500881293039
 21
5.791796067500615
 31
0.0
  0
LINE
  5
1FF
330
1F
100
AcDbEntity
  8
0
100
AcDbLine
 10
33.33443303766836
 20
27.40537641577372
 30
0.0
 11
31.9599138025559
 21
27.14317284853036
 31
0.0
  0
LINE
  5
200
330
1F
100
AcDbEntity
  8
0
100
AcDbLine
 10
27.65016515615764
 20
23.73851921597652
 30
0.0
 11
29.33843184044001
 21
24.43782217350893
 31
0.0
  0
LINE
  5
201
330
1F
100
AcDbEntity
  8
0
100
AcDbLine
 10
23.05098483169577
 20
13.25142422497125
 30
0.0
 11
23.42575364489814
 21
11.7917960675006
 31
0.0
  0
LINE
  5
202
330
1F
100
AcDbEntity
  8
0
100
AcDbLine
 10
43.05299711158423
 20
24.24762352905694
 30
0.0
 11
41.89185486794965
 21
25.20820393249937
 31
0.0
  0
LINE
  5
203
330
1F
100
AcDbEntity
  8
0
100
AcDbLine
 10
43.05299711158423
 20
6.752376470943052
 30
0.0
 11
44.0845907537494
 21
7.850912123015729
 31
0.0
  0
LINE
  5
204
330
1F
100
AcDbEntity
  8
0
100
AcDbLine
 10
40.61947592966057
 20
4.984319839473633
 30
0.0
 11
41.89185486794965
 21
5.791796067500615
 31
0.0
  0
LINE
  5
205
330
1F
100
AcDbEntity
  8
0
100
AcDbLine
 10
45.69635647003219
 20
20.60935149878087
 30
0.0
 11
44.97036694646416
 21
21.92992153974795
 31
0.0
  0
LINE
  5
206
330
1F
100
AcDbEntity
  8
0
100
AcDbLine
 10
34.83843184044002
 20
3.499999999999971
 30
0.0
 11
36.34243064321169
 21
3.594623584226264
 31
0.0
  0
LINE
  5
207
330
1F
100
AcDbEntity
  8
0
100
AcDbLine
 10
24.70649673441588
 20
9.070078460251992
 30
0.0
 11
25.59227292713056
 21
7.850912123015684
 31
0.0
  0
LINE
  5
208
330
1F
100
AcDbEntity
  8
0
100
AcDbLine
 10
37.8227104864182
 20
3.877002066456438
 30
0.0
 11
39.25592647265616
 21
4.342682169340999
 31
0.0
  0
LINE
  5
209
330
1F
100
AcDbEntity
  8
0
100
AcDbLine
 10
45.69635647003219
 20
10.39064850121912
 30
0.0
 11
46.25111003598181
 21
11.7917960675006
 31
0.0
  0
LINE
  5
20A
330
1F
100
AcDbEntity
  8
0
100
AcDbLine
 10
33.33443303766836
 20
3.594623584226264
 30
0.0
 11
34.83843184044002
 21
3.499999999999971
 31
0.0
  0
LINE
  5
20B
330
1F
100
AcDbEntity
  8
0
100
AcDbLine
 10
50.33843184044002
 20
14.5
 30
0.0
 11
50.38954310100643
 21
14.1117714323462
 31
0.0
  0
LINE
  5
20C
330
1F
100
AcDbEntity
  8
0
100
AcDbLine
 10
50.38954310100643
 20
14.1117714323462
 30
0.0
 11
50.53939373476337
 21
13.74999999999999
 31
0.0
  0
LINE
  5
20D
330
1F
100
AcDbEntity
  8
0
100
AcDbLine
 10
52.58843184043996
 20
13.20096189432332
 30
0.0
 11
52.89909201221984
 21
13.4393398282202
 31
0.0
  0
LINE
  5
20E
330
1F
100
AcDbEntity
  8
0
100
AcDbLine
 10
53.33843184043997
 20
14.5
 30
0.0
 11
53.28732057987364
 21
14.8882285676538
 31
0.0
  0
LINE
  5
20F
330
1F
100
AcDbEntity
  8
0
100
AcDbLine
 10
51.45020327278623
 20
15.9488887394336
 30
0.0
 11
51.08843184044002
 21
15.79903810567667
 31
0.0
  0
LINE
  5
210
330
1F
100
AcDbEntity
  8
0
100
AcDbLine
 10
51.08843184044002
 20
15.79903810567667
 30
0.0
 11
50.77777166866014
 21
15.5606601717798
 31
0.0
  0
LINE
  5
211
330
1F
100
AcDbEntity
  8
0
100
AcDbLine
 10
50.34695950470699
 20
10.39408035408189
 30
0.0
 11
51.5116452076683
 21
10.24074657238273
 31
0.0
  0
LINE
  5
212
330
1F
100
AcDbEntity
  8
0
100
AcDbLine
 10
51.83843184043995
 20
12.99999999999998
 30
0.0
 11
52.22666040809384
 21
13.05111126056639
 31
0.0
  0
LINE
  5
213
330
1F
100
AcDbEntity
  8
0
100
AcDbLine
 10
50.77777166866014
 20
15.5606601717798
 30
0.0
 11
50.53939373476337
 21
15.25000000000001
 31
0.0
  0
LINE
  5
214
330
1F
100
AcDbEntity
  8
0
100
AcDbLine
 10
47.1649789893675
 20
15.90543227534406
 30
0.0
 11
47.01164520766833
 21
14.7407465723827
 31
0.0
  0
LINE
  5
215
330
1F
100
AcDbEntity
  8
0
100
AcDbLine
 10
47.61453089063829
 20
16.99074657238273
 30
0.0
 11
47.1649789893675
 21
15.90543227534406
 31
0.0
  0
LINE
  5
216
330
1F
100
AcDbEntity
  8
0
100
AcDbLine
 10
27.78500881293039
 20
5.791796067500615
 30
0.0
 11
29.05738775121947
 21
4.984319839473588
 31
0.0
  0
LINE
  5
217
330
1F
100
AcDbEntity
  8
0
100
AcDbLine
 10
53.61720011778927
 20
17.99578268900397
 30
0.0
 11
54.86507959093817
 21
15.8174753043585
 31
0.0
  0
LINE
  5
218
330
1F
100
AcDbEntity
  8
0
100
AcDbLine
 10
54.86507959093817
 20
15.8174753043585
 30
0.0
 11
55.7552419427794
 21
13.86218028050486
 31
0.0
  0
LINE
  5
219
330
1F
100
AcDbEntity
  8
0
100
AcDbLine
 10
50.38954310100643
 20
14.8882285676538
 30
0.0
 11
50.33843184044002
 21
14.5
 31
0.0
  0
LINE
  5
21A
330
1F
100
AcDbEntity
  8
0
100
AcDbLine
 10
41.89185486794965
 20
5.791796067500615
 30
0.0
 11
43.05299711158423
 21
6.752376470943052
 31
0.0
  0
LINE
  5
21B
330
1F
100
AcDbEntity
  8
0
100
AcDbLine
 10
50.77777166866014
 20
13.4393398282202
 30
0.0
 11
51.08843184043994
 21
13.20096189432332
 31
0.0
  0
LINE
  5
21C
330
1F
100
AcDbEntity
  8
0
100
AcDbLine
 10
53.13746994611671
 20
13.74999999999999
 30
0.0
 11
53.28732057987364
 21
14.1117714323462
 31
0.0
  0
LINE
  5
21D
330
1F
100
AcDbEntity
  8
0
100
AcDbLine
 10
37.8227104864182
 20
27.12299793354355
 30
0.0
 11
36.34243064321169
 21
27.40537641577372
 31
0.0
  0
LINE
  5
21E
330
1F
100
AcDbEntity
  8
0
100
AcDbLine
 10
41.89185486794965
 20
25.20820393249937
 30
0.0
 11
40.61947592966057
 21
26.01568016052635
 31
0.0
  0
LINE
  5
21F
330
1F
100
AcDbEntity
  8
0
100
AcDbLine
 10
51.00823284809056
 20
21.41350507119522
 30
0.0
 11
52.17239752915794
 21
20.04877360992677
 31
0.0
  0
LINE
  5
220
330
1F
100
AcDbEntity
  8
0
100
AcDbLine
 10
51.83843184043995
 20
16.00000000000001
 30
0.0
 11
51.45020327278623
 21
15.9488887394336
 31
0.0
  0
LINE
  5
221
330
1F
100
AcDbEntity
  8
0
100
AcDbLine
 10
53.28732057987364
 20
14.1117714323462
 30
0.0
 11
53.33843184043997
 21
14.5
 31
0.0
  0
LINE
  5
222
330
1F
100
AcDbEntity
  8
0
100
AcDbLine
 10
53.28732057987364
 20
14.8882285676538
 30
0.0
 11
53.13746994611671
 21
15.25000000000001
 31
0.0
  0
LINE
  5
223
330
1F
100
AcDbEntity
  8
0
100
AcDbLine
 10
52.22666040809384
 20
15.9488887394336
 30
0.0
 11
51.83843184043995
 21
16.00000000000001
 31
0.0
  0
LINE
  5
224
330
1F
100
AcDbEntity
  8
0
100
AcDbLine
 10
51.45020327278623
 20
13.05111126056639
 30
0.0
 11
51.83843184043995
 21
12.99999999999998
 31
0.0
  0
LINE
  5
225
330
1F
100
AcDbEntity
  8
0
100
AcDbLine
 10
47.1649789893675
 20
13.57606086942139
 30
0.0
 11
47.61453089063829
 21
12.49074657238272
 31
0.0
  0
LINE
  5
226
330
1F
100
AcDbEntity
  8
0
100
AcDbLine
 10
52.58843184043996
 20
15.79903810567667
 30
0.0
 11
52.22666040809384
 21
15.9488887394336
 31
0.0
  0
LINE
  5
227
330
1F
100
AcDbEntity
  8
0
100
AcDbLine
 10
50.53939373476337
 20
15.25000000000001
 30
0.0
 11
50.38954310100643
 21
14.8882285676538
 31
0.0
  0
LINE
  5
228
330
1F
100
AcDbEntity
  8
0
100
AcDbLine
 10
51.61705376551631
 20
10.51616598353536
 30
0.0
 11
51.5116452076683
 21
10.24074657238273
 31
0.0
  0
LINE
  5
229
330
1F
100
AcDbEntity
  8
0
100
AcDbLine
 10
-44.71874942777721
 20
-4.184532864643098
 30
0.0
 11
-43.93798106693878
 21
-7.225424859373667
 31
0.0
  0
LINE
  5
22A
330
1F
100
AcDbEntity
  8
0
100
AcDbLine
 10
52.90901544334208
 20
12.01481513967852
 30
0.0
 11
51.61705376551631
 21
10.51616598353536
 31
0.0
  0
LINE
  5
22B
330
1F
100
AcDbEntity
  8
0
100
AcDbLine
 10
49.26164520766837
 20
10.84363225535277
 30
0.0
 11
50.34695950470699
 21
10.39408035408189
 31
0.0
  0
LINE
  5
22C
330
1F
100
AcDbEntity
  8
0
100
AcDbLine
 10
48.32966469232881
 20
11.55876605704325
 30
0.0
 11
49.26164520766837
 21
10.84363225535277
 31
0.0
  0
LINE
  5
22D
330
1F
100
AcDbEntity
  8
0
100
AcDbLine
 10
47.61453089063829
 20
12.49074657238272
 30
0.0
 11
48.32966469232881
 21
11.55876605704325
 31
0.0
  0
LINE
  5
22E
330
1F
100
AcDbEntity
  8
0
100
AcDbLine
 10
52.17239752915794
 20
20.04877360992677
 30
0.0
 11
53.61720011778927
 21
17.99578268900397
 31
0.0
  0
LINE
  5
22F
330
1F
100
AcDbEntity
  8
0
100
AcDbLine
 10
50.53939373476337
 20
13.74999999999999
 30
0.0
 11
50.77777166866014
 21
13.4393398282202
 31
0.0
  0
LINE
  5
230
330
1F
100
AcDbEntity
  8
0
100
AcDbLine
 10
51.08843184043994
 20
13.20096189432332
 30
0.0
 11
51.45020327278623
 21
13.05111126056639
 31
0.0
  0
LINE
  5
231
330
1F
100
AcDbEntity
  8
0
100
AcDbLine
 10
52.22666040809384
 20
13.05111126056639
 30
0.0
 11
52.58843184043996
 21
13.20096189432332
 31
0.0
  0
LINE
  5
232
330
1F
100
AcDbEntity
  8
0
100
AcDbLine
 10
52.89909201221984
 20
13.4393398282202
 30
0.0
 11
53.13746994611671
 21
13.74999999999999
 31
0.0
  0
LINE
  5
233
330
1F
100
AcDbEntity
  8
0
100
AcDbLine
 10
53.13746994611671
 20
15.25000000000001
 30
0.0
 11
52.89909201221984
 21
15.5606601717798
 31
0.0
  0
LINE
  5
234
330
1F
100
AcDbEntity
  8
0
100
AcDbLine
 10
52.89909201221984
 20
15.5606601717798
 30
0.0
 11
52.58843184043996
 21
15.79903810567667
 31
0.0
  0
LINE
  5
235
330
1F
100
AcDbEntity
  8
0
100
AcDbLine
 10
4.395613108657277
 20
-4.184532864643054
 30
0.0
 11
4.789100051146843
 21
-1.069762988232787
 31
0.0
  0
LINE
  5
236
330
1F
100
AcDbEntity
  8
0
100
AcDbLine
 10
-45.11223637026678
 20
-1.069762988232832
 30
0.0
 11
-44.71874942777721
 21
-4.184532864643098
 31
0.0
  0
LINE
  5
237
330
1F
100
AcDbEntity
  8
0
100
AcDbLine
 10
-45.11223637026678
 20
-0.1948562808787596
 30
0.0
 11
-45.04375961752714
 21
0.3529577410384643
 31
0.0
  0
LINE
  5
238
330
1F
100
AcDbEntity
  8
0
100
AcDbLine
 10
39.25592647265616
 20
26.65731783065899
 30
0.0
 11
37.8227104864182
 21
27.12299793354355
 31
0.0
  0
LINE
  5
239
330
1F
100
AcDbEntity
  8
0
100
AcDbLine
 10
23.98050721084776
 20
10.39064850121907
 30
0.0
 11
24.70649673441588
 21
9.070078460251992
 31
0.0
  0
LINE
  5
23A
330
1F
100
AcDbEntity
  8
0
100
AcDbLine
 10
-49.43086833155786
 20
13.10604611206919
 30
0.0
 11
-49.06909689921165
 21
13.25589674582612
 31
0.0
  0
LINE
  5
23B
330
1F
100
AcDbEntity
  8
0
100
AcDbLine
 10
30.75313096310676
 20
-3.216812651486305
 30
0.0
 11
29.45308933034005
 21
-3.776283944037382
 31
0.0
  0
LINE
  5
23C
330
1F
100
AcDbEntity
  8
0
100
AcDbLine
 10
8.16195564681815
 20
27.04259271713866
 30
0.0
 11
8.463431840439975
 21
27.16746824526945
 31
0.0
  0
LINE
  5
23D
330
1F
100
AcDbEntity
  8
0
100
AcDbLine
 10
-48.37020815977806
 20
14.16670628384899
 30
0.0
 11
-48.31909689921164
 21
14.55493485150279
 31
0.0
  0
LINE
  5
23E
330
1F
100
AcDbEntity
  8
0
100
AcDbLine
 10
-51.11813500488833
 20
13.80493485150278
 30
0.0
 11
-50.87975707099146
 21
13.49427467972295
 31
0.0
  0
LINE
  5
23F
330
1F
100
AcDbEntity
  8
0
100
AcDbLine
 10
-48.52005879353499
 20
15.30493485150276
 30
0.0
 11
-48.75843672743186
 21
15.61559502328259
 31
0.0
  0
LINE
  5
240
330
1F
100
AcDbEntity
  8
0
100
AcDbLine
 10
4.395613108657187
 20
5.184532864643187
 30
0.0
 11
3.614844747818848
 21
8.225424859373755
 31
0.0
  0
LINE
  5
241
330
1F
100
AcDbEntity
  8
0
100
AcDbLine
 10
-45.11223637026678
 20
-0.1948562808787596
 30
0.0
 11
-45.11223637026678
 21
-1.069762988232832
 31
0.0
  0
LINE
  5
242
330
1F
100
AcDbEntity
  8
0
100
AcDbLine
 10
56.42998767354627
 20
-0.1751783100084072
 30
0.0
 11
57.83843184044002
 21
-0.1939626229619321
 31
0.0
  0
LINE
  5
243
330
1F
100
AcDbEntity
  8
0
100
AcDbLine
 10
-54.0963386706473
 20
13.81084106483354
 30
0.0
 11
-53.20439972636538
 21
15.78585569873846
 31
0.0
  0
LINE
  5
244
330
1F
100
AcDbEntity
  8
0
100
AcDbLine
 10
-53.20439972636538
 20
15.78585569873846
 30
0.0
 11
-51.90982052668733
 21
18.04362452215696
 31
0.0
  0
LINE
  5
245
330
1F
100
AcDbEntity
  8
0
100
AcDbLine
 10
-51.90982052668733
 20
18.04362452215696
 30
0.0
 11
-50.40387744220383
 21
20.16626221864115
 31
0.0
  0
LINE
  5
246
330
1F
100
AcDbEntity
  8
0
100
AcDbLine
 10
-50.40387744220383
 20
20.16626221864115
 30
0.0
 11
-49.39421772397177
 21
21.33268940969297
 31
0.0
  0
LINE
  5
247
330
1F
100
AcDbEntity
  8
0
100
AcDbLine
 10
-49.53466358041238
 20
9.626096210730058
 30
0.0
 11
-50.01182541279974
 21
10.62574105044359
 31
0.0
  0
LINE
  5
248
330
1F
100
AcDbEntity
  8
0
100
AcDbLine
 10
-50.01182541279974
 20
10.62574105044359
 30
0.0
 11
-51.34451865235844
 21
12.11080609891657
 31
0.0
  0
LINE
  5
249
330
1F
100
AcDbEntity
  8
0
100
AcDbLine
 10
-51.31909689921159
 20
14.55493485150279
 30
0.0
 11
-51.26798563864526
 21
14.16670628384899
 31
0.0
  0
LINE
  5
24A
330
1F
100
AcDbEntity
  8
0
100
AcDbLine
 10
-51.26798563864526
 20
14.16670628384899
 30
0.0
 11
-51.11813500488833
 21
13.80493485150278
 31
0.0
  0
LINE
  5
24B
330
1F
100
AcDbEntity
  8
0
100
AcDbLine
 10
-50.87975707099146
 20
13.49427467972295
 30
0.0
 11
-50.56909689921167
 21
13.25589674582612
 31
0.0
  0
LINE
  5
24C
330
1F
100
AcDbEntity
  8
0
100
AcDbLine
 10
-50.56909689921167
 20
13.25589674582612
 30
0.0
 11
-50.20732546686546
 21
13.10604611206919
 31
0.0
  0
LINE
  5
24D
330
1F
100
AcDbEntity
  8
0
100
AcDbLine
 10
-50.20732546686546
 20
13.10604611206919
 30
0.0
 11
-49.81909689921166
 21
13.05493485150277
 31
0.0
  0
LINE
  5
24E
330
1F
100
AcDbEntity
  8
0
100
AcDbLine
 10
-49.81909689921166
 20
13.05493485150277
 30
0.0
 11
-49.43086833155786
 21
13.10604611206919
 31
0.0
  0
LINE
  5
24F
330
1F
100
AcDbEntity
  8
0
100
AcDbLine
 10
-49.06909689921165
 20
13.25589674582612
 30
0.0
 11
-48.75843672743186
 21
13.49427467972295
 31
0.0
  0
LINE
  5
250
330
1F
100
AcDbEntity
  8
0
100
AcDbLine
 10
-48.75843672743186
 20
13.49427467972295
 30
0.0
 11
-48.52005879353499
 21
13.80493485150278
 31
0.0
  0
LINE
  5
251
330
1F
100
AcDbEntity
  8
0
100
AcDbLine
 10
-48.52005879353499
 20
13.80493485150278
 30
0.0
 11
-48.37020815977806
 21
14.16670628384899
 31
0.0
  0
LINE
  5
252
330
1F
100
AcDbEntity
  8
0
100
AcDbLine
 10
-48.31909689921164
 20
14.55493485150279
 30
0.0
 11
-48.37020815977806
 21
14.94316341915655
 31
0.0
  0
LINE
  5
253
330
1F
100
AcDbEntity
  8
0
100
AcDbLine
 10
-48.37020815977806
 20
14.94316341915655
 30
0.0
 11
-48.52005879353499
 21
15.30493485150276
 31
0.0
  0
LINE
  5
254
330
1F
100
AcDbEntity
  8
0
100
AcDbLine
 10
-48.75843672743186
 20
15.61559502328259
 30
0.0
 11
-49.06909689921165
 21
15.85397295717942
 31
0.0
  0
LINE
  5
255
330
1F
100
AcDbEntity
  8
0
100
AcDbLine
 10
-49.06909689921165
 20
15.85397295717942
 30
0.0
 11
-49.43086833155786
 21
16.0038235909364
 31
0.0
  0
LINE
  5
256
330
1F
100
AcDbEntity
  8
0
100
AcDbLine
 10
-49.43086833155786
 20
16.0038235909364
 30
0.0
 11
-49.81909689921166
 21
16.05493485150277
 31
0.0
  0
LINE
  5
257
330
1F
100
AcDbEntity
  8
0
100
AcDbLine
 10
-49.81909689921166
 20
16.05493485150277
 30
0.0
 11
-50.20732546686546
 21
16.0038235909364
 31
0.0
  0
LINE
  5
258
330
1F
100
AcDbEntity
  8
0
100
AcDbLine
 10
-50.20732546686546
 20
16.0038235909364
 30
0.0
 11
-50.56909689921167
 21
15.85397295717942
 31
0.0
  0
LINE
  5
259
330
1F
100
AcDbEntity
  8
0
100
AcDbLine
 10
-50.56909689921167
 20
15.85397295717942
 30
0.0
 11
-50.87975707099146
 21
15.61559502328259
 31
0.0
  0
LINE
  5
25A
330
1F
100
AcDbEntity
  8
0
100
AcDbLine
 10
-50.87975707099146
 20
15.61559502328259
 30
0.0
 11
-51.11813500488833
 21
15.30493485150276
 31
0.0
  0
LINE
  5
25B
330
1F
100
AcDbEntity
  8
0
100
AcDbLine
 10
-51.11813500488833
 20
15.30493485150276
 30
0.0
 11
-51.26798563864526
 21
14.94316341915655
 31
0.0
  0
LINE
  5
25C
330
1F
100
AcDbEntity
  8
0
100
AcDbLine
 10
3.614844747818848
 20
-7.225424859373621
 30
0.0
 11
4.395613108657277
 21
-4.184532864643054
 31
0.0
  0
LINE
  5
25D
330
1F
100
AcDbEntity
  8
0
100
AcDbLine
 10
1.399215581995936
 20
30.50000000000001
 30
0.0
 11
11.94851685491563
 21
30.50000000000001
 31
0.0
  0
LINE
  5
25E
330
1F
100
AcDbEntity
  8
0
100
AcDbLine
 10
50.78656040532734
 20
4.798265066338994
 30
0.0
 11
51.59879120705743
 21
2.993993635844175
 31
0.0
  0
LINE
  5
25F
330
1F
100
AcDbEntity
  8
0
100
AcDbLine
 10
8.16195564681815
 20
29.4574072828613
 30
0.0
 11
7.838431840440027
 21
29.49999999999997
 31
0.0
  0
LINE
  5
260
330
1F
100
AcDbEntity
  8
0
100
AcDbLine
 10
-45.04375961752714
 20
0.3529577410384643
 30
0.0
 11
-45.11223637026678
 21
0.3615173351308744
 31
0.0
  0
LINE
  5
261
330
1F
100
AcDbEntity
  8
0
100
AcDbLine
 10
51.5116452076683
 20
10.24074657238273
 30
0.0
 11
50.79607166058939
 21
8.7158597169327
 31
0.0
  0
LINE
  5
262
330
1F
100
AcDbEntity
  8
0
100
AcDbLine
 10
4.789100051146843
 20
2.069762988232921
 30
0.0
 11
4.395613108657187
 21
5.184532864643187
 31
0.0
  0
LINE
  5
263
330
1F
100
AcDbEntity
  8
0
100
AcDbLine
 10
28.2279606681442
 20
-4.484927814526441
 30
0.0
 11
27.09478716598894
 21
-5.332886650867378
 31
0.0
  0
LINE
  5
264
330
1F
100
AcDbEntity
  8
0
100
AcDbLine
 10
-43.93798106693878
 20
-7.225424859373667
 30
0.0
 11
-42.7822444712105
 21
-10.14448228912683
 31
0.0
  0
LINE
  5
265
330
1F
100
AcDbEntity
  8
0
100
AcDbLine
 10
27.09478716598894
 20
-5.332886650867378
 30
0.0
 11
26.06933186829704
 21
-6.308364895909808
 31
0.0
  0
LINE
  5
266
330
1F
100
AcDbEntity
  8
0
100
AcDbLine
 10
23.06060477658405
 20
-16.79843199897314
 30
0.0
 11
23.41313467363488
 21
-18.16913949723851
 31
0.0
  0
LINE
  5
267
330
1F
100
AcDbEntity
  8
0
100
AcDbLine
 10
42.16456945271201
 20
-24.00408899821831
 30
0.0
 11
43.23260334439144
 21
-23.07542329930423
 31
0.0
  0
LINE
  5
268
330
1F
100
AcDbEntity
  8
0
100
AcDbLine
 10
40.99462510123976
 20
-24.80054777842832
 30
0.0
 11
42.16456945271201
 21
-24.00408899821831
 31
0.0
  0
LINE
  5
269
330
1F
100
AcDbEntity
  8
0
100
AcDbLine
 10
36.33046676055928
 20
-2.593118300867164
 30
0.0
 11
34.91820096996849
 21
-2.500265132680021
 31
0.0
  0
LINE
  5
26A
330
1F
100
AcDbEntity
  8
0
100
AcDbLine
 10
25.39374534437286
 20
-21.90256016463269
 30
0.0
 11
26.33099569499457
 21
-22.96306860607713
 31
0.0
  0
LINE
  5
26B
330
1F
100
AcDbEntity
  8
0
100
AcDbLine
 10
37.7219775540721
 20
-2.851602508611136
 30
0.0
 11
36.33046676055928
 21
-2.593118300867164
 31
0.0
  0
LINE
  5
26C
330
1F
100
AcDbEntity
  8
0
100
AcDbLine
 10
31.7326032992097
 20
-26.09110991546882
 30
0.0
 11
34.83843184044002
 21
-26.50000000000002
 31
0.0
  0
LINE
  5
26D
330
1F
100
AcDbEntity
  8
0
100
AcDbLine
 10
39.73904483641373
 20
-25.45372047587908
 30
0.0
 11
40.99462510123976
 21
-24.80054777842832
 31
0.0
  0
LINE
  5
26E
330
1F
100
AcDbEntity
  8
0
100
AcDbLine
 10
23.7732624187587
 20
-9.856507169221818
 30
0.0
 11
23.30350966418067
 21
-11.19159095823352
 31
0.0
  0
LINE
  5
26F
330
1F
100
AcDbEntity
  8
0
100
AcDbLine
 10
40.36586551154672
 20
-3.848827434901067
 30
0.0
 11
39.0733766973453
 21
-3.272122103488495
 31
0.0
  0
LINE
  5
270
330
1F
100
AcDbEntity
  8
0
100
AcDbLine
 10
26.06933186829704
 20
-6.308364895909808
 30
0.0
 11
25.1658594021361
 21
-7.397793129895244
 31
0.0
  0
LINE
  5
271
330
1F
100
AcDbEntity
  8
0
100
AcDbLine
 10
29.45308933034005
 20
-3.776283944037382
 30
0.0
 11
28.2279606681442
 21
-4.484927814526441
 31
0.0
  0
LINE
  5
272
330
1F
100
AcDbEntity
  8
0
100
AcDbLine
 10
42.70326490729077
 20
-5.436645166905901
 30
0.0
 11
41.58146479176591
 21
-4.573696225818393
 31
0.0
  0
LINE
  5
273
330
1F
100
AcDbEntity
  8
0
100
AcDbLine
 10
25.1658594021361
 20
-7.397793129895244
 30
0.0
 11
24.39693754869029
 21
-8.586016828282418
 31
0.0
  0
LINE
  5
274
330
1F
100
AcDbEntity
  8
0
100
AcDbLine
 10
31.13059300042848
 20
-25.84174908502536
 30
0.0
 11
31.7326032992097
 21
-26.09110991546882
 31
0.0
  0
LINE
  5
275
330
1F
100
AcDbEntity
  8
0
100
AcDbLine
 10
33.50482554847829
 20
-2.574334640866365
 30
0.0
 11
32.11000129782187
 21
-2.814296479282562
 31
0.0
  0
LINE
  5
276
330
1F
100
AcDbEntity
  8
0
100
AcDbLine
 10
23.30350966418067
 20
-11.19159095823352
 30
0.0
 11
22.99421379491811
 21
-12.57269647171634
 31
0.0
  0
LINE
  5
277
330
1F
100
AcDbEntity
  8
0
100
AcDbLine
 10
24.39693754869029
 20
-8.586016828282418
 30
0.0
 11
23.7732624187587
 21
-9.856507169221818
 31
0.0
  0
LINE
  5
278
330
1F
100
AcDbEntity
  8
0
100
AcDbLine
 10
43.71566102353855
 20
-6.425670180705768
 30
0.0
 11
42.70326490729077
 21
-5.436645166905901
 31
0.0
  0
LINE
  5
279
330
1F
100
AcDbEntity
  8
0
100
AcDbLine
 10
29.79262703688886
 20
-25.38760092419171
 30
0.0
 11
31.13059300042848
 21
-25.84174908502536
 31
0.0
  0
LINE
  5
27A
330
1F
100
AcDbEntity
  8
0
100
AcDbLine
 10
34.83843184044002
 20
-26.50000000000002
 30
0.0
 11
35.63243273186409
 21
-26.39546779955742
 31
0.0
  0
LINE
  5
27B
330
1F
100
AcDbEntity
  8
0
100
AcDbLine
 10
35.63243273186409
 20
-26.39546779955742
 30
0.0
 11
37.04178799896096
 21
-26.29598328409751
 31
0.0
  0
LINE
  5
27C
330
1F
100
AcDbEntity
  8
0
100
AcDbLine
 10
28.54584138034448
 20
-24.71779356326573
 30
0.0
 11
29.79262703688886
 21
-25.38760092419171
 31
0.0
  0
LINE
  5
27D
330
1F
100
AcDbEntity
  8
0
100
AcDbLine
 10
27.38658899453764
 20
-23.90585127460426
 30
0.0
 11
28.54584138034448
 21
-24.71779356326573
 31
0.0
  0
LINE
  5
27E
330
1F
100
AcDbEntity
  8
0
100
AcDbLine
 10
26.33099569499457
 20
-22.96306860607713
 30
0.0
 11
27.38658899453764
 21
-23.90585127460426
 31
0.0
  0
LINE
  5
27F
330
1F
100
AcDbEntity
  8
0
100
AcDbLine
 10
23.92459651397713
 20
-19.48880731907447
 30
0.0
 11
24.58787559214453
 21
-20.73907818515943
 31
0.0
  0
LINE
  5
280
330
1F
100
AcDbEntity
  8
0
100
AcDbLine
 10
23.41313467363488
 20
-18.16913949723851
 30
0.0
 11
23.92459651397713
 21
-19.48880731907447
 31
0.0
  0
LINE
  5
281
330
1F
100
AcDbEntity
  8
0
100
AcDbLine
 10
22.87191070066597
 20
-15.39575209256937
 30
0.0
 11
23.06060477658405
 21
-16.79843199897314
 31
0.0
  0
LINE
  5
282
330
1F
100
AcDbEntity
  8
0
100
AcDbLine
 10
22.84967728055547
 20
-13.98061179947273
 30
0.0
 11
22.87191070066597
 21
-15.39575209256937
 31
0.0
  0
LINE
  5
283
330
1F
100
AcDbEntity
  8
0
100
AcDbLine
 10
22.99421379491811
 20
-12.57269647171634
 30
0.0
 11
22.84967728055547
 21
-13.98061179947273
 31
0.0
  0
LINE
  5
284
330
1F
100
AcDbEntity
  8
0
100
AcDbLine
 10
32.11000129782187
 20
-2.814296479282562
 30
0.0
 11
30.75313096310676
 21
-3.216812651486305
 31
0.0
  0
LINE
  5
285
330
1F
100
AcDbEntity
  8
0
100
AcDbLine
 10
34.91820096996849
 20
-2.500265132680021
 30
0.0
 11
33.50482554847829
 21
-2.574334640866365
 31
0.0
  0
LINE
  5
286
330
1F
100
AcDbEntity
  8
0
100
AcDbLine
 10
39.0733766973453
 20
-3.272122103488495
 30
0.0
 11
37.7219775540721
 21
-2.851602508611136
 31
0.0
  0
LINE
  5
287
330
1F
100
AcDbEntity
  8
0
100
AcDbLine
 10
41.58146479176591
 20
-4.573696225818393
 30
0.0
 11
40.36586551154672
 21
-3.848827434901067
 31
0.0
  0
LINE
  5
288
330
1F
100
AcDbEntity
  8
0
100
AcDbLine
 10
44.60457017358186
 20
-7.527013404721239
 30
0.0
 11
43.71566102353855
 21
-6.425670180705768
 31
0.0
  0
LINE
  5
289
330
1F
100
AcDbEntity
  8
0
100
AcDbLine
 10
45.35762715968776
 20
-8.7253545705804
 30
0.0
 11
44.60457017358186
 21
-7.527013404721239
 31
0.0
  0
LINE
  5
28A
330
1F
100
AcDbEntity
  8
0
100
AcDbLine
 10
45.96435655977614
 20
-10.00402411709497
 30
0.0
 11
45.35762715968776
 21
-8.7253545705804
 31
0.0
  0
LINE
  5
28B
330
1F
100
AcDbEntity
  8
0
100
AcDbLine
 10
46.41631844609744
 20
-11.34523507269753
 30
0.0
 11
45.96435655977614
 21
-10.00402411709497
 31
0.0
  0
LINE
  5
28C
330
1F
100
AcDbEntity
  8
0
100
AcDbLine
 10
46.70722578910312
 20
-12.73033048164988
 30
0.0
 11
46.41631844609744
 21
-11.34523507269753
 31
0.0
  0
LINE
  5
28D
330
1F
100
AcDbEntity
  8
0
100
AcDbLine
 10
46.83303191336181
 20
-14.14004293219238
 30
0.0
 11
46.70722578910312
 21
-12.73033048164988
 31
0.0
  0
LINE
  5
28E
330
1F
100
AcDbEntity
  8
0
100
AcDbLine
 10
46.79198678896046
 20
-15.55476257646058
 30
0.0
 11
46.83303191336181
 21
-14.14004293219238
 31
0.0
  0
LINE
  5
28F
330
1F
100
AcDbEntity
  8
0
100
AcDbLine
 10
46.58466137534887
 20
-16.95480991386967
 30
0.0
 11
46.79198678896046
 21
-15.55476257646058
 31
0.0
  0
LINE
  5
290
330
1F
100
AcDbEntity
  8
0
100
AcDbLine
 10
46.21393967899095
 20
-18.32070954340503
 30
0.0
 11
46.58466137534887
 21
-16.95480991386967
 31
0.0
  0
LINE
  5
291
330
1F
100
AcDbEntity
  8
0
100
AcDbLine
 10
45.68497863530461
 20
-19.63346107677977
 30
0.0
 11
46.21393967899095
 21
-18.32070954340503
 31
0.0
  0
LINE
  5
292
330
1F
100
AcDbEntity
  8
0
100
AcDbLine
 10
45.00513637295574
 20
-20.87480344391301
 30
0.0
 11
45.68497863530461
 21
-19.63346107677977
 31
0.0
  0
LINE
  5
293
330
1F
100
AcDbEntity
  8
0
100
AcDbLine
 10
43.23260334439144
 20
-23.07542329930423
 30
0.0
 11
44.18386985838551
 21
-22.02746891409987
 31
0.0
  0
LINE
  5
294
330
1F
100
AcDbEntity
  8
0
100
AcDbLine
 10
38.41529444564729
 20
-25.95452111192212
 30
0.0
 11
39.73904483641373
 21
-25.45372047587908
 31
0.0
  0
LINE
  5
295
330
1F
100
AcDbEntity
  8
0
100
AcDbLine
 10
37.04178799896096
 20
-26.29598328409751
 30
0.0
 11
38.41529444564729
 21
-25.95452111192212
 31
0.0
  0
LINE
  5
296
330
1F
100
AcDbEntity
  8
0
100
AcDbLine
 10
22.76465355451426
 20
-24.68002286997712
 30
0.0
 11
22.25516139974059
 21
-23.44999999999999
 31
0.0
  0
LINE
  5
297
330
1F
100
AcDbEntity
  8
0
100
AcDbLine
 10
20.38843184044006
 20
-21.58327044069933
 30
0.0
 11
19.15840897046284
 21
-21.07377828592575
 31
0.0
  0
LINE
  5
298
330
1F
100
AcDbEntity
  8
0
100
AcDbLine
 10
23.05098483169568
 20
17.74857577502865
 30
0.0
 11
22.86211109930072
 21
16.25348623435174
 31
0.0
  0
LINE
  5
299
330
1F
100
AcDbEntity
  8
0
100
AcDbLine
 10
23.42575364489814
 20
19.20820393249934
 30
0.0
 11
23.05098483169568
 21
17.74857577502865
 31
0.0
  0
LINE
  5
29A
330
1F
100
AcDbEntity
  8
0
100
AcDbLine
 10
23.98050721084776
 20
20.60935149878082
 30
0.0
 11
23.42575364489814
 21
19.20820393249934
 31
0.0
  0
LINE
  5
29B
330
1F
100
AcDbEntity
  8
0
100
AcDbLine
 10
24.70649673441579
 20
21.92992153974795
 30
0.0
 11
23.98050721084776
 21
20.60935149878082
 31
0.0
  0
LINE
  5
29C
330
1F
100
AcDbEntity
  8
0
100
AcDbLine
 10
25.59227292713047
 20
23.14908787698426
 30
0.0
 11
24.70649673441579
 21
21.92992153974795
 31
0.0
  0
LINE
  5
29D
330
1F
100
AcDbEntity
  8
0
100
AcDbLine
 10
25.93356231848952
 20
23.51252416503191
 30
0.0
 11
25.59227292713047
 21
23.14908787698426
 31
0.0
  0
LINE
  5
29E
330
1F
100
AcDbEntity
  8
0
100
AcDbLine
 10
25.93356231848952
 20
23.51252416503191
 30
0.0
 11
27.65016515615764
 21
23.73851921597652
 31
0.0
  0
LINE
  5
29F
330
1F
100
AcDbEntity
  8
0
100
AcDbLine
 10
30.78817930874579
 20
25.55025253169417
 30
0.0
 11
31.90060966693108
 21
27.0
 31
0.0
  0
LINE
  5
2A0
330
1F
100
AcDbEntity
  8
0
100
AcDbLine
 10
31.90060966693108
 20
27.0
 30
0.0
 11
31.9599138025559
 21
27.14317284853036
 31
0.0
  0
LINE
  5
2A1
330
1F
100
AcDbEntity
  8
0
100
AcDbLine
 10
34.83843184044002
 20
27.50000000000002
 30
0.0
 11
33.33443303766836
 21
27.40537641577372
 31
0.0
  0
LINE
  5
2A2
330
1F
100
AcDbEntity
  8
0
100
AcDbLine
 10
44.0845907537494
 20
23.14908787698426
 30
0.0
 11
43.05299711158423
 21
24.24762352905694
 31
0.0
  0
LINE
  5
2A3
330
1F
100
AcDbEntity
  8
0
100
AcDbLine
 10
44.97036694646416
 20
21.92992153974795
 30
0.0
 11
44.0845907537494
 21
23.14908787698426
 31
0.0
  0
LINE
  5
2A4
330
1F
100
AcDbEntity
  8
0
100
AcDbLine
 10
46.25111003598181
 20
19.20820393249938
 30
0.0
 11
45.69635647003219
 21
20.60935149878087
 31
0.0
  0
LINE
  5
2A5
330
1F
100
AcDbEntity
  8
0
100
AcDbLine
 10
46.62587884918418
 20
17.74857577502869
 30
0.0
 11
46.25111003598181
 21
19.20820393249938
 31
0.0
  0
LINE
  5
2A6
330
1F
100
AcDbEntity
  8
0
100
AcDbLine
 10
46.81475258157923
 20
16.25348623435174
 30
0.0
 11
46.62587884918418
 21
17.74857577502869
 31
0.0
  0
LINE
  5
2A7
330
1F
100
AcDbEntity
  8
0
100
AcDbLine
 10
46.25111003598181
 20
11.7917960675006
 30
0.0
 11
46.62587884918418
 21
13.2514242249713
 31
0.0
  0
LINE
  5
2A8
330
1F
100
AcDbEntity
  8
0
100
AcDbLine
 10
-26.65037933515693
 20
-23.62634253697312
 30
0.0
 11
-26.37881533868131
 21
-23.71457902821578
 31
0.0
  0
LINE
  5
2A9
330
1F
100
AcDbEntity
  8
0
100
AcDbLine
 10
-9.884645082636933
 20
-30.50000000000001
 30
0.0
 11
-26.65037933515693
 21
-30.50000000000001
 31
0.0
  0
LINE
  5
2AA
330
1F
100
AcDbEntity
  8
0
100
AcDbLine
 10
-26.65037933515693
 20
-23.62634253697312
 30
0.0
 11
-26.65037933515693
 21
-30.50000000000001
 31
0.0
  0
LINE
  5
2AB
330
1F
100
AcDbEntity
  8
0
100
AcDbLine
 10
-26.37881533868131
 20
-23.71457902821578
 30
0.0
 11
-23.29489899866756
 21
-24.30286753286194
 31
0.0
  0
LINE
  5
2AC
330
1F
100
AcDbEntity
  8
0
100
AcDbLine
 10
-23.29489899866756
 20
-24.30286753286194
 30
0.0
 11
-20.16156815955992
 21
-24.49999999999998
 31
0.0
  0
LINE
  5
2AD
330
1F
100
AcDbEntity
  8
0
100
AcDbLine
 10
-20.16156815955992
 20
-24.49999999999998
 30
0.0
 11
-17.02823732045237
 21
-24.30286753286194
 31
0.0
  0
LINE
  5
2AE
330
1F
100
AcDbEntity
  8
0
100
AcDbLine
 10
-17.02823732045237
 20
-24.30286753286194
 30
0.0
 11
-13.94432098043863
 21
-23.71457902821578
 31
0.0
  0
LINE
  5
2AF
330
1F
100
AcDbEntity
  8
0
100
AcDbLine
 10
-3.047890511342753
 20
-17.72421568553526
 30
0.0
 11
-0.8987370901652283
 21
-15.4355997437172
 31
0.0
  0
LINE
  5
2B0
330
1F
100
AcDbEntity
  8
0
100
AcDbLine
 10
0.9466299779904325
 20
-12.89566987447488
 30
0.0
 11
2.459108152090481
 21
-10.14448228912674
 31
0.0
  0
LINE
  5
2B1
330
1F
100
AcDbEntity
  8
0
100
AcDbLine
 10
4.789100051146843
 20
-1.069762988232787
 30
0.0
 11
4.789100051146843
 21
2.069762988232921
 31
0.0
  0
LINE
  5
2B2
330
1F
100
AcDbEntity
  8
0
100
AcDbLine
 10
2.459108152090481
 20
11.14448228912688
 30
0.0
 11
0.9466299779903422
 21
13.89566987447497
 31
0.0
  0
LINE
  5
2B3
330
1F
100
AcDbEntity
  8
0
100
AcDbLine
 10
-0.8987370901653186
 20
16.43559974371733
 30
0.0
 11
-3.047890511342843
 21
18.72421568553534
 31
0.0
  0
LINE
  5
2B4
330
1F
100
AcDbEntity
  8
0
100
AcDbLine
 10
-13.94432098043871
 20
24.71457902821582
 30
0.0
 11
-17.02823732045246
 21
25.30286753286194
 31
0.0
  0
LINE
  5
2B5
330
1F
100
AcDbEntity
  8
0
100
AcDbLine
 10
-17.02823732045246
 20
25.30286753286194
 30
0.0
 11
-19.34431895479501
 21
25.44858303821893
 31
0.0
  0
LINE
  5
2B6
330
1F
100
AcDbEntity
  8
0
100
AcDbLine
 10
-19.34431895479501
 20
25.44858303821893
 30
0.0
 11
-19.2118206912542
 21
25.55025253169417
 31
0.0
  0
LINE
  5
2B7
330
1F
100
AcDbEntity
  8
0
100
AcDbLine
 10
-19.2118206912542
 20
25.55025253169417
 30
0.0
 11
-18.09939033306892
 21
27.0
 31
0.0
  0
LINE
  5
2B8
330
1F
100
AcDbEntity
  8
0
100
AcDbLine
 10
22.91860536446977
 20
24.19750643132599
 30
0.0
 11
24.02669852472235
 21
23.73851921597652
 31
0.0
  0
LINE
  5
2B9
330
1F
100
AcDbEntity
  8
0
100
AcDbLine
 10
24.02669852472235
 20
23.73851921597652
 30
0.0
 11
25.83843184043999
 21
23.50000000000002
 31
0.0
  0
LINE
  5
2BA
330
1F
100
AcDbEntity
  8
0
100
AcDbLine
 10
25.83843184043999
 20
23.50000000000002
 30
0.0
 11
25.93356231848952
 21
23.51252416503191
 31
0.0
  0
LINE
  5
2BB
330
1F
100
AcDbEntity
  8
0
100
AcDbLine
 10
33.29655924322811
 20
30.37012039948532
 30
0.0
 11
35.32520347865657
 21
30.12459164506559
 31
0.0
  0
LINE
  5
2BC
330
1F
100
AcDbEntity
  8
0
100
AcDbLine
 10
35.32520347865657
 20
30.12459164506559
 30
0.0
 11
37.77865133641232
 21
29.59278354924451
 31
0.0
  0
LINE
  5
2BD
330
1F
100
AcDbEntity
  8
0
100
AcDbLine
 10
37.77865133641232
 20
29.59278354924451
 30
0.0
 11
40.1721007944022
 21
28.83540257935209
 31
0.0
  0
LINE
  5
2BE
330
1F
100
AcDbEntity
  8
0
100
AcDbLine
 10
40.1721007944022
 20
28.83540257935209
 30
0.0
 11
42.48486041232184
 21
27.85899631594155
 31
0.0
  0
LINE
  5
2BF
330
1F
100
AcDbEntity
  8
0
100
AcDbLine
 10
42.48486041232184
 20
27.85899631594155
 30
0.0
 11
44.69693631588557
 21
26.67200581961038
 31
0.0
  0
LINE
  5
2C0
330
1F
100
AcDbEntity
  8
0
100
AcDbLine
 10
44.69693631588557
 20
26.67200581961038
 30
0.0
 11
46.78920504445161
 21
25.28469265778578
 31
0.0
  0
LINE
  5
2C1
330
1F
100
AcDbEntity
  8
0
100
AcDbLine
 10
46.78920504445161
 20
25.28469265778578
 30
0.0
 11
48.74357887389746
 21
23.70905019317507
 31
0.0
  0
LINE
  5
2C2
330
1F
100
AcDbEntity
  8
0
100
AcDbLine
 10
48.74357887389746
 20
23.70905019317507
 30
0.0
 11
50.54316218552118
 21
21.95869990079573
 31
0.0
  0
LINE
  5
2C3
330
1F
100
AcDbEntity
  8
0
100
AcDbLine
 10
50.54316218552118
 20
21.95869990079573
 30
0.0
 11
51.00823284809056
 21
21.41350507119522
 31
0.0
  0
LINE
  5
2C4
330
1F
100
AcDbEntity
  8
0
100
AcDbLine
 10
50.79607166058939
 20
8.7158597169327
 30
0.0
 11
50.5116658378381
 21
6.757741334871942
 31
0.0
  0
LINE
  5
2C5
330
1F
100
AcDbEntity
  8
0
100
AcDbLine
 10
50.5116658378381
 20
6.757741334871942
 30
0.0
 11
50.78656040532734
 21
4.798265066338994
 31
0.0
  0
LINE
  5
2C6
330
1F
100
AcDbEntity
  8
0
100
AcDbLine
 10
51.59879120705743
 20
2.993993635844175
 30
0.0
 11
52.88346076542594
 21
1.489088856138696
 31
0.0
  0
LINE
  5
2C7
330
1F
100
AcDbEntity
  8
0
100
AcDbLine
 10
52.88346076542594
 20
1.489088856138696
 30
0.0
 11
54.53792360858703
 21
0.403793057391627
 31
0.0
  0
LINE
  5
2C8
330
1F
100
AcDbEntity
  8
0
100
AcDbLine
 10
54.53792360858703
 20
0.403793057391627
 30
0.0
 11
56.42998767354627
 21
-0.1751783100084072
 31
0.0
  0
LINE
  5
2C9
330
1F
100
AcDbEntity
  8
0
100
AcDbLine
 10
57.83843184044002
 20
-17.43857321554365
 30
0.0
 11
57.83843184044002
 21
-0.1939626229619321
 31
0.0
  0
LINE
  5
2CA
330
1F
100
AcDbEntity
  8
0
100
AcDbLine
 10
23.5615087635169
 20
-30.50000000000001
 30
0.0
 11
48.83843184043999
 21
-30.50000000000001
 31
0.0
  0
LINE
  5
2CB
330
1F
100
AcDbEntity
  8
0
100
AcDbLine
 10
23.5615087635169
 20
-30.50000000000001
 30
0.0
 11
22.93843184044002
 21
-26.0
 31
0.0
  0
LINE
  5
2CC
330
1F
100
AcDbEntity
  8
0
100
AcDbLine
 10
22.93843184044002
 20
-26.0
 30
0.0
 11
22.76465355451426
 21
-24.68002286997712
 31
0.0
  0
LINE
  5
2CD
330
1F
100
AcDbEntity
  8
0
100
AcDbLine
 10
22.25516139974059
 20
-23.44999999999999
 30
0.0
 11
21.44467642449142
 21
-22.39375541594858
 31
0.0
  0
LINE
  5
2CE
330
1F
100
AcDbEntity
  8
0
100
AcDbLine
 10
21.44467642449142
 20
-22.39375541594858
 30
0.0
 11
20.38843184044006
 21
-21.58327044069933
 31
0.0
  0
LINE
  5
2CF
330
1F
100
AcDbEntity
  8
0
100
AcDbLine
 10
19.15840897046284
 20
-21.07377828592575
 30
0.0
 11
17.83843184044001
 21
-20.89999999999998
 31
0.0
  0
LINE
  5
2D0
330
1F
100
AcDbEntity
  8
0
100
AcDbLine
 10
17.83843184044001
 20
-20.89999999999998
 30
0.0
 11
16.51845471041709
 21
-21.07377828592575
 31
0.0
  0
LINE
  5
2D1
330
1F
100
AcDbEntity
  8
0
100
AcDbLine
 10
16.51845471041709
 20
-21.07377828592575
 30
0.0
 11
15.28843184043996
 21
-21.58327044069933
 31
0.0
  0
LINE
  5
2D2
330
1F
100
AcDbEntity
  8
0
100
AcDbLine
 10
15.28843184043996
 20
-21.58327044069933
 30
0.0
 11
14.23218725638859
 21
-22.39375541594858
 31
0.0
  0
LINE
  5
2D3
330
1F
100
AcDbEntity
  8
0
100
AcDbLine
 10
14.23218725638859
 20
-22.39375541594858
 30
0.0
 11
13.42170228113934
 21
-23.44999999999999
 31
0.0
  0
LINE
  5
2D4
330
1F
100
AcDbEntity
  8
0
100
AcDbLine
 10
13.42170228113934
 20
-23.44999999999999
 30
0.0
 11
12.91221012636576
 21
-24.68002286997712
 31
0.0
  0
LINE
  5
2D5
330
1F
100
AcDbEntity
  8
0
100
AcDbLine
 10
12.91221012636576
 20
-24.68002286997712
 30
0.0
 11
12.73843184044
 21
-26.0
 31
0.0
  0
LINE
  5
2D6
330
1F
100
AcDbEntity
  8
0
100
AcDbLine
 10
12.11535491736312
 20
-30.50000000000001
 30
0.0
 11
12.73843184044
 21
-26.0
 31
0.0
  0
LINE
  5
2D7
330
1F
100
AcDbEntity
  8
0
100
AcDbLine
 10
1.561508763516851
 20
-30.50000000000001
 30
0.0
 11
12.11535491736312
 21
-30.50000000000001
 31
0.0
  0
LINE
  5
2D8
330
1F
100
AcDbEntity
  8
0
100
AcDbLine
 10
7.838431840440027
 20
29.49999999999997
 30
0.0
 11
7.514908034061815
 21
29.4574072828613
 31
0.0
  0
LINE
  5
2D9
330
1F
100
AcDbEntity
  8
0
100
AcDbLine
 10
7.514908034061815
 20
29.4574072828613
 30
0.0
 11
7.213431840439989
 21
29.33253175473051
 31
0.0
  0
LINE
  5
2DA
330
1F
100
AcDbEntity
  8
0
100
AcDbLine
 10
7.213431840439989
 20
29.33253175473051
 30
0.0
 11
6.954548363956829
 21
29.13388347648318
 31
0.0
  0
LINE
  5
2DB
330
1F
100
AcDbEntity
  8
0
100
AcDbLine
 10
6.954548363956829
 20
29.13388347648318
 30
0.0
 11
6.755900085709452
 21
28.87499999999998
 31
0.0
  0
LINE
  5
2DC
330
1F
100
AcDbEntity
  8
0
100
AcDbLine
 10
6.755900085709452
 20
28.87499999999998
 30
0.0
 11
6.631024557578616
 21
28.57352380637815
 31
0.0
  0
LINE
  5
2DD
330
1F
100
AcDbEntity
  8
0
100
AcDbLine
 10
6.631024557578616
 20
28.57352380637815
 30
0.0
 11
6.58843184043995
 21
28.24999999999998
 31
0.0
  0
LINE
  5
2DE
330
1F
100
AcDbEntity
  8
0
100
AcDbLine
 10
6.58843184043995
 20
28.24999999999998
 30
0.0
 11
6.631024557578616
 21
27.92647619362181
 31
0.0
  0
LINE
  5
2DF
330
1F
100
AcDbEntity
  8
0
100
AcDbLine
 10
6.631024557578616
 20
27.92647619362181
 30
0.0
 11
6.755900085709452
 21
27.62499999999999
 31
0.0
  0
LINE
  5
2E0
330
1F
100
AcDbEntity
  8
0
100
AcDbLine
 10
6.755900085709452
 20
27.62499999999999
 30
0.0
 11
6.954548363956829
 21
27.36611652351678
 31
0.0
  0
LINE
  5
2E1
330
1F
100
AcDbEntity
  8
0
100
AcDbLine
 10
6.954548363956829
 20
27.36611652351678
 30
0.0
 11
7.213431840439989
 21
27.16746824526945
 31
0.0
  0
LINE
  5
2E2
330
1F
100
AcDbEntity
  8
0
100
AcDbLine
 10
7.213431840439989
 20
27.16746824526945
 30
0.0
 11
7.514908034061815
 21
27.04259271713866
 31
0.0
  0
LINE
  5
2E3
330
1F
100
AcDbEntity
  8
0
100
AcDbLine
 10
7.514908034061815
 20
27.04259271713866
 30
0.0
 11
7.838431840440027
 21
27.0
 31
0.0
  0
LINE
  5
2E4
330
1F
100
AcDbEntity
  8
0
100
AcDbLine
 10
7.838431840440027
 20
27.0
 30
0.0
 11
8.16195564681815
 21
27.04259271713866
 31
0.0
  0
LINE
  5
2E5
330
1F
100
AcDbEntity
  8
0
100
AcDbLine
 10
8.463431840439975
 20
27.16746824526945
 30
0.0
 11
8.722315316923135
 21
27.36611652351678
 31
0.0
  0
LINE
  5
2E6
330
1F
100
AcDbEntity
  8
0
100
AcDbLine
 10
8.722315316923135
 20
27.36611652351678
 30
0.0
 11
8.920963595170512
 21
27.62499999999999
 31
0.0
  0
LINE
  5
2E7
330
1F
100
AcDbEntity
  8
0
100
AcDbLine
 10
8.920963595170512
 20
27.62499999999999
 30
0.0
 11
9.045839123301347
 21
27.92647619362181
 31
0.0
  0
LINE
  5
2E8
330
1F
100
AcDbEntity
  8
0
100
AcDbLine
 10
9.045839123301347
 20
27.92647619362181
 30
0.0
 11
9.088431840440014
 21
28.24999999999998
 31
0.0
  0
LINE
  5
2E9
330
1F
100
AcDbEntity
  8
0
100
AcDbLine
 10
9.088431840440014
 20
28.24999999999998
 30
0.0
 11
9.045839123301347
 21
28.57352380637815
 31
0.0
  0
LINE
  5
2EA
330
1F
100
AcDbEntity
  8
0
100
AcDbLine
 10
9.045839123301347
 20
28.57352380637815
 30
0.0
 11
8.920963595170512
 21
28.87499999999998
 31
0.0
  0
LINE
  5
2EB
330
1F
100
AcDbEntity
  8
0
100
AcDbLine
 10
8.920963595170512
 20
28.87499999999998
 30
0.0
 11
8.722315316923135
 21
29.13388347648318
 31
0.0
  0
LINE
  5
2EC
330
1F
100
AcDbEntity
  8
0
100
AcDbLine
 10
8.722315316923135
 20
29.13388347648318
 30
0.0
 11
8.463431840439975
 21
29.33253175473051
 31
0.0
  0
LINE
  5
2ED
330
1F
100
AcDbEntity
  8
0
100
AcDbLine
 10
8.463431840439975
 20
29.33253175473051
 30
0.0
 11
8.16195564681815
 21
29.4574072828613
 31
0.0
  0
LINE
  5
2EE
330
1F
100
AcDbEntity
  8
0
100
AcDbLine
 10
-26.65037933515693
 20
-19.88458838426586
 30
0.0
 11
-25.72617762926422
 21
-20.26740526521498
 31
0.0
  0
LINE
  5
2EF
330
1F
100
AcDbEntity
  8
0
100
AcDbLine
 10
-41.48728765133548
 20
-12.50000000000001
 30
0.0
 11
-37.05462861797277
 21
-12.50000000000001
 31
0.0
  0
LINE
  5
2F0
330
1F
100
AcDbEntity
  8
0
100
AcDbLine
 10
-46.65037933515693
 20
-12.50000000000001
 30
0.0
 11
-41.48728765133548
 21
-12.50000000000001
 31
0.0
  0
LINE
  5
2F1
330
1F
100
AcDbEntity
  8
0
100
AcDbLine
 10
-37.05462861797277
 20
-12.50000000000001
 30
0.0
 11
-26.65037933515693
 21
-12.50000000000001
 31
0.0
  0
LINE
  5
2F2
330
1F
100
AcDbEntity
  8
0
100
AcDbLine
 10
-26.65037933515693
 20
-12.50000000000001
 30
0.0
 11
-26.65037933515693
 21
-19.88458838426586
 31
0.0
  0
LINE
  5
2F3
330
1F
100
AcDbEntity
  8
0
100
AcDbLine
 10
-26.65037933515693
 20
-19.88458838426586
 30
0.0
 11
-26.65037933515693
 21
-23.62634253697312
 31
0.0
  0
LINE
  5
2F4
330
1F
100
AcDbEntity
  8
0
100
AcDbLine
 10
-42.7822444712105
 20
-10.14448228912683
 30
0.0
 11
-41.48728765133548
 21
-12.50000000000001
 31
0.0
  0
LINE
  5
2F5
330
1F
100
AcDbEntity
  8
0
100
AcDbLine
 10
-34.98815872779664
 20
-28.46015569085587
 30
0.0
 11
-34.91023595851384
 21
-28.15666654195541
 31
0.0
  0
LINE
  5
2F6
330
1F
100
AcDbEntity
  8
0
100
AcDbLine
 10
-37.36110828656766
 20
-27.68913764104396
 30
0.0
 11
-37.38971195400202
 21
-28.00000000000002
 31
0.0
  0
LINE
  5
2F7
330
1F
100
AcDbEntity
  8
0
100
AcDbLine
 10
-37.24576268521177
 20
-28.60219209262715
 30
0.0
 11
-37.0615901194337
 21
-28.85568388241088
 31
0.0
  0
LINE
  5
2F8
330
1F
100
AcDbEntity
  8
0
100
AcDbLine
 10
-37.24576268521171
 20
-27.39780790737287
 30
0.0
 11
-37.36110828656766
 21
-27.68913764104396
 31
0.0
  0
LINE
  5
2F9
330
1F
100
AcDbEntity
  8
0
100
AcDbLine
 10
-36.22886748456856
 20
-26.75246658946469
 30
0.0
 11
-36.53665057812559
 21
-26.81117935463108
 31
0.0
  0
LINE
  5
2FA
330
1F
100
AcDbEntity
  8
0
100
AcDbLine
 10
-37.36110828656776
 20
-28.3108623589561
 30
0.0
 11
-37.24576268521177
 21
-28.60219209262715
 31
0.0
  0
LINE
  5
2FB
330
1F
100
AcDbEntity
  8
0
100
AcDbLine
 10
-37.38971195400202
 20
-28.00000000000002
 30
0.0
 11
-37.36110828656776
 21
-28.3108623589561
 31
0.0
  0
LINE
  5
2FC
330
1F
100
AcDbEntity
  8
0
100
AcDbLine
 10
-29.43445609193507
 20
-1.98466283298417
 30
0.0
 11
-28.47541203589061
 21
-4.29999999999997
 31
0.0
  0
LINE
  5
2FD
330
1F
100
AcDbEntity
  8
0
100
AcDbLine
 10
-35.13910809218828
 20
-28.73473156536559
 30
0.0
 11
-34.98815872779664
 21
-28.46015569085587
 31
0.0
  0
LINE
  5
2FE
330
1F
100
AcDbEntity
  8
0
100
AcDbLine
 10
-28.65037933515694
 20
-30.50000000000001
 30
0.0
 11
-28.65037933515691
 21
-14.49999999999997
 31
0.0
  0
LINE
  5
2FF
330
1F
100
AcDbEntity
  8
0
100
AcDbLine
 10
-36.53665057812564
 20
-29.18882064536897
 30
0.0
 11
-36.22886748456856
 21
-29.24753341053537
 31
0.0
  0
LINE
  5
300
330
1F
100
AcDbEntity
  8
0
100
AcDbLine
 10
-35.91615269192476
 20
-29.22785906341089
 30
0.0
 11
-35.61815522070065
 21
-29.13103381558252
 31
0.0
  0
LINE
  5
301
330
1F
100
AcDbEntity
  8
0
100
AcDbLine
 10
-35.61815522070065
 20
-29.13103381558252
 30
0.0
 11
-35.35359934797105
 21
-28.96314155346974
 31
0.0
  0
LINE
  5
302
330
1F
100
AcDbEntity
  8
0
100
AcDbLine
 10
-36.82016282888072
 20
-29.05540990687754
 30
0.0
 11
-36.53665057812564
 21
-29.18882064536897
 31
0.0
  0
LINE
  5
303
330
1F
100
AcDbEntity
  8
0
100
AcDbLine
 10
-35.35359934797105
 20
-28.96314155346974
 30
0.0
 11
-35.13910809218828
 21
-28.73473156536559
 31
0.0
  0
LINE
  5
304
330
1F
100
AcDbEntity
  8
0
100
AcDbLine
 10
-43.15037933515693
 20
-30.49999999999997
 30
0.0
 11
-28.65037933515694
 21
-30.50000000000001
 31
0.0
  0
LINE
  5
305
330
1F
100
AcDbEntity
  8
0
100
AcDbLine
 10
-34.91023595851384
 20
-28.15666654195541
 30
0.0
 11
-34.9102359585138
 21
-27.84333345804464
 31
0.0
  0
LINE
  5
306
330
1F
100
AcDbEntity
  8
0
100
AcDbLine
 10
-34.98815872779662
 20
-27.53984430914416
 30
0.0
 11
-35.13910809218824
 21
-27.26526843463444
 31
0.0
  0
LINE
  5
307
330
1F
100
AcDbEntity
  8
0
100
AcDbLine
 10
-35.61815522070055
 20
-26.8689661844175
 30
0.0
 11
-35.91615269192475
 21
-26.77214093658916
 31
0.0
  0
LINE
  5
308
330
1F
100
AcDbEntity
  8
0
100
AcDbLine
 10
-36.22886748456856
 20
-29.24753341053537
 30
0.0
 11
-35.91615269192476
 21
-29.22785906341089
 31
0.0
  0
LINE
  5
309
330
1F
100
AcDbEntity
  8
0
100
AcDbLine
 10
-37.06159011943366
 20
-27.14431611758916
 30
0.0
 11
-37.24576268521171
 21
-27.39780790737287
 31
0.0
  0
LINE
  5
30A
330
1F
100
AcDbEntity
  8
0
100
AcDbLine
 10
-35.91615269192475
 20
-26.77214093658916
 30
0.0
 11
-36.22886748456856
 21
-26.75246658946469
 31
0.0
  0
LINE
  5
30B
330
1F
100
AcDbEntity
  8
0
100
AcDbLine
 10
17.05109007932776
 20
-27.27675093546418
 30
0.0
 11
17.39334091465155
 21
-27.43244339077702
 31
0.0
  0
LINE
  5
30C
330
1F
100
AcDbEntity
  8
0
100
AcDbLine
 10
17.39334091465155
 20
-27.43244339077702
 30
0.0
 11
17.76355844977256
 21
-27.49813015968907
 31
0.0
  0
LINE
  5
30D
330
1F
100
AcDbEntity
  8
0
100
AcDbLine
 10
18.49454949675331
 20
-27.3488919975572
 30
0.0
 11
18.80939215273441
 21
-27.14334424909961
 31
0.0
  0
LINE
  5
30E
330
1F
100
AcDbEntity
  8
0
100
AcDbLine
 10
-35.35359934797105
 20
-27.0368584465303
 30
0.0
 11
-35.61815522070055
 21
-26.8689661844175
 31
0.0
  0
LINE
  5
30F
330
1F
100
AcDbEntity
  8
0
100
AcDbLine
 10
17.76355844977256
 20
-27.49813015968907
 30
0.0
 11
18.13848055539422
 21
-27.46968390093052
 31
0.0
  0
LINE
  5
310
330
1F
100
AcDbEntity
  8
0
100
AcDbLine
 10
18.13848055539422
 20
-27.46968390093052
 30
0.0
 11
18.49454949675331
 21
-27.3488919975572
 31
0.0
  0
LINE
  5
311
330
1F
100
AcDbEntity
  8
0
100
AcDbLine
 10
-36.53665057812559
 20
-26.81117935463108
 30
0.0
 11
-36.82016282888069
 21
-26.94459009312249
 31
0.0
  0
LINE
  5
312
330
1F
100
AcDbEntity
  8
0
100
AcDbLine
 10
-44.65037933515691
 20
-30.49999999999997
 30
0.0
 11
-43.15037933515693
 21
-30.49999999999997
 31
0.0
  0
LINE
  5
313
330
1F
100
AcDbEntity
  8
0
100
AcDbLine
 10
-44.65037933515686
 20
-14.49999999999992
 30
0.0
 11
-44.65037933515691
 21
-30.49999999999997
 31
0.0
  0
LINE
  5
314
330
1F
100
AcDbEntity
  8
0
100
AcDbLine
 10
-43.15037933515686
 20
-14.49999999999998
 30
0.0
 11
-44.65037933515686
 21
-14.49999999999992
 31
0.0
  0
LINE
  5
315
330
1F
100
AcDbEntity
  8
0
100
AcDbLine
 10
-43.15037933515693
 20
-30.49999999999997
 30
0.0
 11
-43.15037933515686
 21
-14.49999999999998
 31
0.0
  0
LINE
  5
316
330
1F
100
AcDbEntity
  8
0
100
AcDbLine
 10
16.33855655930688
 20
-26.01934272591519
 30
0.0
 11
16.39048823966667
 21
-26.39173885303818
 31
0.0
  0
LINE
  5
317
330
1F
100
AcDbEntity
  8
0
100
AcDbLine
 10
19.22586007627739
 20
-25.42987467132114
 30
0.0
 11
19.0404870632875
 21
-25.10274683548897
 31
0.0
  0
LINE
  5
318
330
1F
100
AcDbEntity
  8
0
100
AcDbLine
 10
17.72494933484446
 20
-24.50429891992964
 30
0.0
 11
17.35654886360244
 21
-24.57951107127363
 31
0.0
  0
LINE
  5
319
330
1F
100
AcDbEntity
  8
0
100
AcDbLine
 10
-36.82016282888069
 20
-26.94459009312249
 30
0.0
 11
-37.06159011943366
 21
-27.14431611758916
 31
0.0
  0
LINE
  5
31A
330
1F
100
AcDbEntity
  8
0
100
AcDbLine
 10
17.35654886360244
 20
-24.57951107127363
 30
0.0
 11
17.01842687203669
 21
-24.74397776620244
 31
0.0
  0
LINE
  5
31B
330
1F
100
AcDbEntity
  8
0
100
AcDbLine
 10
-35.13910809218824
 20
-27.26526843463444
 30
0.0
 11
-35.35359934797105
 21
-27.0368584465303
 31
0.0
  0
LINE
  5
31C
330
1F
100
AcDbEntity
  8
0
100
AcDbLine
 10
19.33843184044003
 20
-26.1698729810778
 30
0.0
 11
19.3240558706055
 21
-25.79282557832845
 31
0.0
  0
LINE
  5
31D
330
1F
100
AcDbEntity
  8
0
100
AcDbLine
 10
12.11535491736312
 20
-30.50000000000001
 30
0.0
 11
23.5615087635169
 21
-30.50000000000001
 31
0.0
  0
LINE
  5
31E
330
1F
100
AcDbEntity
  8
0
100
AcDbLine
 10
16.39048823966667
 20
-26.39173885303818
 30
0.0
 11
16.53339954162721
 21
-26.73952058730997
 31
0.0
  0
LINE
  5
31F
330
1F
100
AcDbEntity
  8
0
100
AcDbLine
 10
19.3240558706055
 20
-25.79282557832845
 30
0.0
 11
19.22586007627739
 21
-25.42987467132114
 31
0.0
  0
LINE
  5
320
330
1F
100
AcDbEntity
  8
0
100
AcDbLine
 10
19.0404870632875
 20
-25.10274683548897
 30
0.0
 11
18.77958449979622
 21
-24.8319967158494
 31
0.0
  0
LINE
  5
321
330
1F
100
AcDbEntity
  8
0
100
AcDbLine
 10
16.53339954162721
 20
-26.73952058730997
 30
0.0
 11
16.75831082249507
 21
-27.04083552331463
 31
0.0
  0
LINE
  5
322
330
1F
100
AcDbEntity
  8
0
100
AcDbLine
 10
17.01842687203669
 20
-24.74397776620244
 30
0.0
 11
16.73182880840307
 21
-24.98736495740732
 31
0.0
  0
LINE
  5
323
330
1F
100
AcDbEntity
  8
0
100
AcDbLine
 10
19.24010114092782
 20
-26.53415650522098
 30
0.0
 11
19.33843184044003
 21
-26.1698729810778
 31
0.0
  0
LINE
  5
324
330
1F
100
AcDbEntity
  8
0
100
AcDbLine
 10
18.77958449979622
 20
-24.8319967158494
 30
0.0
 11
18.45954585340028
 21
-24.63463653816857
 31
0.0
  0
LINE
  5
325
330
1F
100
AcDbEntity
  8
0
100
AcDbLine
 10
18.45954585340028
 20
-24.63463653816857
 30
0.0
 11
18.10048032927247
 21
-24.52306716825015
 31
0.0
  0
LINE
  5
326
330
1F
100
AcDbEntity
  8
0
100
AcDbLine
 10
18.10048032927247
 20
-24.52306716825015
 30
0.0
 11
17.72494933484446
 21
-24.50429891992964
 31
0.0
  0
LINE
  5
327
330
1F
100
AcDbEntity
  8
0
100
AcDbLine
 10
16.73182880840307
 20
-24.98736495740732
 30
0.0
 11
16.51476268307361
 21
-25.29437973254955
 31
0.0
  0
LINE
  5
328
330
1F
100
AcDbEntity
  8
0
100
AcDbLine
 10
16.51476268307361
 20
-25.29437973254955
 30
0.0
 11
16.38086755901602
 21
-25.64573122418543
 31
0.0
  0
LINE
  5
329
330
1F
100
AcDbEntity
  8
0
100
AcDbLine
 10
16.38086755901602
 20
-25.64573122418543
 30
0.0
 11
16.33855655930688
 21
-26.01934272591519
 31
0.0
  0
LINE
  5
32A
330
1F
100
AcDbEntity
  8
0
100
AcDbLine
 10
16.75831082249507
 20
-27.04083552331463
 30
0.0
 11
17.05109007932776
 21
-27.27675093546418
 31
0.0
  0
LINE
  5
32B
330
1F
100
AcDbEntity
  8
0
100
AcDbLine
 10
-28.65037933515691
 20
-14.49999999999997
 30
0.0
 11
-43.15037933515686
 21
-14.49999999999998
 31
0.0
  0
LINE
  5
32C
330
1F
100
AcDbEntity
  8
0
100
AcDbLine
 10
-37.0615901194337
 20
-28.85568388241088
 30
0.0
 11
-36.82016282888072
 21
-29.05540990687754
 31
0.0
  0
LINE
  5
32D
330
1F
100
AcDbEntity
  8
0
100
AcDbLine
 10
-34.9102359585138
 20
-27.84333345804464
 30
0.0
 11
-34.98815872779662
 21
-27.53984430914416
 31
0.0
  0
LINE
  5
32E
330
1F
100
AcDbEntity
  8
0
100
AcDbLine
 10
-32.20541001210283
 20
22.40766700109658
 30
0.0
 11
-29.36468197667691
 21
23.74441214720631
 31
0.0
  0
LINE
  5
32F
330
1F
100
AcDbEntity
  8
0
100
AcDbLine
 10
-18.09939033306892
 20
27.0
 30
0.0
 11
-16.64964286476314
 21
30.50000000000001
 31
0.0
  0
LINE
  5
330
330
1F
100
AcDbEntity
  8
0
100
AcDbLine
 10
-35.3643639550708
 20
15.70279579551076
 30
0.0
 11
-30.91156815956001
 21
19.11954618136545
 31
0.0
  0
LINE
  5
331
330
1F
100
AcDbEntity
  8
0
100
AcDbLine
 10
57.06164520766831
 20
-16.84252386831665
 30
0.0
 11
57.83843184044002
 21
-17.43857321554365
 31
0.0
  0
LINE
  5
332
330
1F
100
AcDbEntity
  8
0
100
AcDbLine
 10
48.83843184043999
 20
-25.50000000000002
 30
0.0
 11
48.83843184043999
 21
-30.50000000000001
 31
0.0
  0
LINE
  5
333
330
1F
100
AcDbEntity
  8
0
100
AcDbLine
 10
-31.61435091362834
 20
30.35721727605996
 30
0.0
 11
-30.22374598605109
 21
27.00000000000004
 31
0.0
  0
LINE
  5
334
330
1F
100
AcDbEntity
  8
0
100
AcDbLine
 10
-9.411568159560021
 20
-18.11954618136546
 30
0.0
 11
-14.5969586898558
 21
-20.26740526521498
 31
0.0
  0
LINE
  5
335
330
1F
100
AcDbEntity
  8
0
100
AcDbLine
 10
-38.78111434092545
 20
-10.25000000000001
 30
0.0
 11
-37.05462861797277
 21
-12.50000000000001
 31
0.0
  0
LINE
  5
336
330
1F
100
AcDbEntity
  8
0
100
AcDbLine
 10
-9.411568159560021
 20
19.11954618136545
 30
0.0
 11
-14.5969586898558
 21
21.26740526521498
 31
0.0
  0
LINE
  5
337
330
1F
100
AcDbEntity
  8
0
100
AcDbLine
 10
-9.08778987363429
 20
25.68002286997712
 30
0.0
 11
-9.722351901115928
 21
30.50000000000001
 31
0.0
  0
LINE
  5
338
330
1F
100
AcDbEntity
  8
0
100
AcDbLine
 10
1.399215581995936
 20
30.50000000000001
 30
0.0
 11
0.7646535545142071
 21
25.68002286997712
 31
0.0
  0
LINE
  5
339
330
1F
100
AcDbEntity
  8
0
100
AcDbLine
 10
0.7646535545142071
 20
25.68002286997712
 30
0.0
 11
0.2551613997406285
 21
24.44999999999999
 31
0.0
  0
LINE
  5
33A
330
1F
100
AcDbEntity
  8
0
100
AcDbLine
 10
-0.5553235755086262
 20
23.39375541594858
 30
0.0
 11
-1.611568159559989
 21
22.58327044069937
 31
0.0
  0
LINE
  5
33B
330
1F
100
AcDbEntity
  8
0
100
AcDbLine
 10
-2.841591029537117
 20
22.07377828592575
 30
0.0
 11
-4.161568159560042
 21
21.89999999999998
 31
0.0
  0
LINE
  5
33C
330
1F
100
AcDbEntity
  8
0
100
AcDbLine
 10
-4.161568159560042
 20
-20.89999999999998
 30
0.0
 11
-2.841591029537117
 21
-21.07377828592575
 31
0.0
  0
LINE
  5
33D
330
1F
100
AcDbEntity
  8
0
100
AcDbLine
 10
-1.611568159559989
 20
-21.58327044069933
 30
0.0
 11
-0.5553235755086262
 21
-22.39375541594858
 31
0.0
  0
LINE
  5
33E
330
1F
100
AcDbEntity
  8
0
100
AcDbLine
 10
0.7646535545142071
 20
-24.68002286997712
 30
0.0
 11
0.9384318404399721
 21
-26.0
 31
0.0
  0
LINE
  5
33F
330
1F
100
AcDbEntity
  8
0
100
AcDbLine
 10
-9.261568159560055
 20
-26.0
 30
0.0
 11
-9.08778987363429
 21
-24.68002286997712
 31
0.0
  0
LINE
  5
340
330
1F
100
AcDbEntity
  8
0
100
AcDbLine
 10
27.21429665634695
 20
-20.8072331501019
 30
0.0
 11
28.0649211650385
 21
-21.71305624858787
 31
0.0
  0
LINE
  5
341
330
1F
100
AcDbEntity
  8
0
100
AcDbLine
 10
41.61194251584146
 20
-21.71305624858787
 30
0.0
 11
42.46256702453301
 21
-20.80723315010185
 31
0.0
  0
LINE
  5
342
330
1F
100
AcDbEntity
  8
0
100
AcDbLine
 10
24.85816455615732
 20
14.87209480470688
 30
0.0
 11
25.01555933315307
 21
13.62618685414275
 31
0.0
  0
LINE
  5
343
330
1F
100
AcDbEntity
  8
0
100
AcDbLine
 10
24.85816455615732
 20
14.87209480470688
 30
0.0
 11
24.85816455615732
 21
16.12790519529311
 31
0.0
  0
LINE
  5
344
330
1F
100
AcDbEntity
  8
0
100
AcDbLine
 10
44.66130434772688
 20
13.62618685414279
 30
0.0
 11
44.81869912472273
 21
14.87209480470688
 31
0.0
  0
LINE
  5
345
330
1F
100
AcDbEntity
  8
0
100
AcDbLine
 10
19.77625401394891
 20
27.0
 30
0.0
 11
18.32650654564304
 21
30.50000000000001
 31
0.0
  0
LINE
  5
346
330
1F
100
AcDbEntity
  8
0
100
AcDbLine
 10
-49.53466358041238
 20
9.626096210730058
 30
0.0
 11
-48.59543550236936
 21
9.793624031778169
 31
0.0
  0
LINE
  5
347
330
1F
100
AcDbEntity
  8
0
100
AcDbLine
 10
-46.080070235699
 20
18.19214384313655
 30
0.0
 11
-49.39421772397177
 21
21.33268940969297
 31
0.0
  0
LINE
  5
348
330
1F
100
AcDbEntity
  8
0
100
AcDbLine
 10
46.81475258157923
 20
14.74651376564825
 30
0.0
 11
46.62587884918418
 21
13.2514242249713
 31
0.0
  0
LINE
  5
349
330
1F
100
AcDbEntity
  8
0
100
AcDbLine
 10
51.00823284809056
 20
21.41350507119522
 30
0.0
 11
47.61453089063829
 21
16.99074657238273
 31
0.0
  0
LINE
  5
34A
330
1F
100
AcDbEntity
  8
0
100
AcDbLine
 10
22.86211109930072
 20
14.7465137656482
 30
0.0
 11
23.05098483169577
 21
13.25142422497125
 31
0.0
  0
LINE
  5
34B
330
1F
100
AcDbEntity
  8
0
100
AcDbLine
 10
47.1649789893675
 20
13.57606086942139
 30
0.0
 11
47.01164520766833
 21
14.7407465723827
 31
0.0
  0
LINE
  5
34C
330
1F
100
AcDbEntity
  8
0
100
AcDbLine
 10
52.90901544334208
 20
12.01481513967852
 30
0.0
 11
55.7552419427794
 21
13.86218028050486
 31
0.0
  0
LINE
  5
34D
330
1F
100
AcDbEntity
  8
0
100
AcDbLine
 10
-9.411568159560021
 20
19.11954618136545
 30
0.0
 11
-4.958772364049224
 21
15.70279579551076
 31
0.0
  0
LINE
  5
34E
330
1F
100
AcDbEntity
  8
0
100
AcDbLine
 10
3.614844747818848
 20
8.225424859373755
 30
0.0
 11
2.459108152090481
 21
11.14448228912688
 31
0.0
  0
LINE
  5
34F
330
1F
100
AcDbEntity
  8
0
100
AcDbLine
 10
3.614844747818848
 20
-7.225424859373621
 30
0.0
 11
2.459108152090481
 21
-10.14448228912674
 31
0.0
  0
LINE
  5
350
330
1F
100
AcDbEntity
  8
0
100
AcDbLine
 10
-51.31909689921159
 20
14.55493485150279
 30
0.0
 11
-51.26798563864526
 21
14.94316341915655
 31
0.0
  0
LINE
  5
351
330
1F
100
AcDbEntity
  8
0
100
AcDbLine
 10
-51.34451865235844
 20
12.11080609891657
 30
0.0
 11
-54.0963386706473
 21
13.81084106483354
 31
0.0
  0
LINE
  5
352
330
1F
100
AcDbEntity
  8
0
100
AcDbLine
 10
-9.411568159560021
 20
-18.11954618136546
 30
0.0
 11
-4.958772364049224
 21
-14.70279579551076
 31
0.0
  0
LINE
  5
353
330
1F
100
AcDbEntity
  8
0
100
AcDbLine
 10
25.39374534437286
 20
-21.90256016463269
 30
0.0
 11
24.58787559214453
 21
-20.73907818515943
 31
0.0
  0
LINE
  5
354
330
1F
100
AcDbEntity
  8
0
100
AcDbLine
 10
44.18386985838551
 20
-22.02746891409987
 30
0.0
 11
45.00513637295574
 21
-20.87480344391301
 31
0.0
  0
LINE
  5
355
330
1F
100
AcDbEntity
  8
0
100
AcDbLine
 10
22.86211109930072
 20
14.7465137656482
 30
0.0
 11
22.86211109930072
 21
16.25348623435174
 31
0.0
  0
LINE
  5
356
330
1F
100
AcDbEntity
  8
0
100
AcDbLine
 10
-13.94432098043863
 20
-23.71457902821578
 30
0.0
 11
-10.95845434244303
 21
-22.74441214720627
 31
0.0
  0
LINE
  5
357
330
1F
100
AcDbEntity
  8
0
100
AcDbLine
 10
-10.95845434244303
 20
-22.74441214720627
 30
0.0
 11
-8.117726307017099
 21
-21.40766700109654
 31
0.0
  0
LINE
  5
358
330
1F
100
AcDbEntity
  8
0
100
AcDbLine
 10
-8.117726307017099
 20
-21.40766700109654
 30
0.0
 11
-5.466936852248089
 21
-19.72542485937367
 31
0.0
  0
LINE
  5
359
330
1F
100
AcDbEntity
  8
0
100
AcDbLine
 10
-5.466936852248089
 20
-19.72542485937367
 30
0.0
 11
-3.047890511342753
 21
-17.72421568553526
 31
0.0
  0
LINE
  5
35A
330
1F
100
AcDbEntity
  8
0
100
AcDbLine
 10
-0.8987370901652283
 20
-15.4355997437172
 30
0.0
 11
0.9466299779904325
 21
-12.89566987447488
 31
0.0
  0
LINE
  5
35B
330
1F
100
AcDbEntity
  8
0
100
AcDbLine
 10
0.9466299779903422
 20
13.89566987447497
 30
0.0
 11
-0.8987370901653186
 21
16.43559974371733
 31
0.0
  0
LINE
  5
35C
330
1F
100
AcDbEntity
  8
0
100
AcDbLine
 10
-3.047890511342843
 20
18.72421568553534
 30
0.0
 11
-5.466936852248271
 21
20.72542485937375
 31
0.0
  0
LINE
  5
35D
330
1F
100
AcDbEntity
  8
0
100
AcDbLine
 10
-5.466936852248271
 20
20.72542485937375
 30
0.0
 11
-8.11772630701719
 21
22.40766700109663
 31
0.0
  0
LINE
  5
35E
330
1F
100
AcDbEntity
  8
0
100
AcDbLine
 10
-8.11772630701719
 20
22.40766700109663
 30
0.0
 11
-10.95845434244312
 21
23.74441214720631
 31
0.0
  0
LINE
  5
35F
330
1F
100
AcDbEntity
  8
0
100
AcDbLine
 10
-10.95845434244312
 20
23.74441214720631
 30
0.0
 11
-13.94432098043871
 21
24.71457902821582
 31
0.0
  0
LINE
  5
360
330
1F
100
AcDbEntity
  8
0
100
AcDbLine
 10
31.9599138025559
 20
27.14317284853036
 30
0.0
 11
33.29655924322811
 21
30.37012039948532
 31
0.0
  0
LINE
  5
361
330
1F
100
AcDbEntity
  8
0
100
AcDbLine
 10
-20.16156815956001
 20
0.5000000000000216
 30
0.0
 11
-15.16156815955998
 21
0.5000000000000216
 31
0.0
  0
LINE
  5
362
330
1F
100
AcDbEntity
  8
0
100
AcDbLine
 10
34.83843184044002
 20
15.49999999999999
 30
0.0
 11
34.83843184044002
 21
10.5
 31
0.0
  0
LINE
  5
363
330
1F
100
AcDbEntity
  8
0
100
AcDbLine
 10
-20.16156815956001
 20
0.5000000000000216
 30
0.0
 11
-20.16156815956001
 21
-4.500000000000013
 31
0.0
  0
LINE
  5
364
330
1F
100
AcDbEntity
  8
0
100
AcDbLine
 10
34.83843184044002
 20
-14.5
 30
0.0
 11
34.83843184044002
 21
-19.50000000000003
 31
0.0
  0
LINE
  5
365
330
1F
100
AcDbEntity
  8
0
100
AcDbLine
 10
34.83843184044002
 20
-14.5
 30
0.0
 11
39.83843184043997
 21
-14.5
 31
0.0
  0
LINE
  5
366
330
1F
100
AcDbEntity
  8
0
100
AcDbLine
 10
34.83843184044002
 20
15.49999999999999
 30
0.0
 11
39.83843184043997
 21
15.49999999999999
 31
0.0
  0
LINE
  5
367
330
1F
100
AcDbEntity
  8
0
100
AcDbLine
 10
-26.65037933515693
 20
-30.50000000000001
 30
0.0
 11
-28.65037933515694
 21
-30.50000000000001
 31
0.0
  0
ENDSEC
  0
SECTION
  2
OBJECTS
  0
DICTIONARY
  5
C
330
0
100
AcDbDictionary
  3
ACAD_GROUP
350
D
  3
ACAD_LAYOUT
350
1A
  3
ACAD_MATERIAL
350
43
  3
ACAD_MLEADERSTYLE
350
6B
  3
ACAD_MLINESTYLE
350
17
  3
ACAD_PLOTSETTINGS
350
19
  3
ACAD_SCALELIST
350
47
  3
ACAD_VISUALSTYLE
350
2A
  3
ACDBHEADERROUNDTRIPXREC
350
368
  3
ACDBVARIABLEDICTIONARY
350
389
  0
DICTIONARY
  5
390
330
8
100
AcDbDictionary
280
     1
  3
ACAD_XREC_ROUNDTRIP
360
391
  0
DICTIONARY
  5
D
102
{ACAD_REACTORS
330
C
102
}
330
C
100
AcDbDictionary
  0
DICTIONARY
  5
1A
102
{ACAD_REACTORS
330
C
102
}
330
C
100
AcDbDictionary
  0
DICTIONARY
  5
43
102
{ACAD_REACTORS
330
C
102
}
330
C
100
AcDbDictionary
  3
BYBLOCK
350
45
  3
BYLAYER
350
44
  3
GLOBAL
350
46
  0
DICTIONARY
  5
6B
102
{ACAD_REACTORS
330
C
102
}
330
C
100
AcDbDictionary
  3
STANDARD
350
6C
  0
DICTIONARY
  5
17
102
{ACAD_REACTORS
330
C
102
}
330
C
100
AcDbDictionary
  3
STANDARD
350
18
  0
DICTIONARY
  5
19
102
{ACAD_REACTORS
330
C
102
}
330
C
100
AcDbDictionary
  0
DICTIONARY
  5
47
102
{ACAD_REACTORS
330
C
102
}
330
C
100
AcDbDictionary
  3
A0
350
48
  3
A1
350
49
  3
A2
350
4A
  3
A3
350
4B
  3
A4
350
4C
  3
A5
350
4D
  3
A6
350
4E
  3
A7
350
4F
  3
A8
350
50
  3
A9
350
51
  3
B0
350
52
  3
B1
350
53
  3
B2
350
54
  3
B3
350
55
  3
B4
350
56
  3
B5
350
57
  3
B6
350
58
  3
B7
350
59
  3
B8
350
5A
  3
B9
350
5B
  3
C0
350
5C
  3
C1
350
5D
  3
C2
350
5E
  3
C3
350
5F
  3
C4
350
60
  3
C5
350
61
  3
C6
350
62
  3
C7
350
63
  3
C8
350
64
  3
C9
350
65
  3
D0
350
66
  3
D1
350
67
  3
D2
350
68
  0
DICTIONARY
  5
2A
102
{ACAD_REACTORS
330
C
102
}
330
C
100
AcDbDictionary
  3
2DWIREFRAME
350
2F
  3
BASIC
350
32
  3
BRIGHTEN
350
36
  3
COLORCHANGE
350
3A
  3
CONCEPTUAL
350
34
  3
DIM
350
35
  3
EDGECOLOROFF
350
3D
  3
FACEPATTERN
350
39
  3
FLAT
350
2B
  3
FLATWITHEDGES
350
2C
  3
GOURAUD
350
2D
  3
GOURAUDWITHEDGES
350
2E
  3
HIDDEN
350
31
  3
JITTEROFF
350
3B
  3
LINEPATTERN
350
38
  3
OVERHANGOFF
350
3C
  3
REALISTIC
350
33
  3
SHADED
350
42
  3
SHADED_WITH_EDGES
350
41
  3
SHADES_OF_GRAY
350
3E
  3
SKETCHY
350
3F
  3
THICKEN
350
37
  3
WIREFRAME
350
30
  3
X-RAY
350
40
  0
DICTIONARY
  5
368
102
{ACAD_REACTORS
330
C
102
}
330
C
100
AcDbDictionary
  3
CEPSNID
350
372
  3
CEPSNTYPE
350
371
  3
DIMSTYLEDATA
350
388
  3
FINGERPRINTGUID
350
373
  3
HYPERLINKBASE
350
36B
  3
INSUNITS
350
370
  3
LAYOUTDICT
350
36D
  3
LWETCUNION
350
36F
  3
PLOTSETDICT
350
36E
  3
PSVPSCALE
350
375
  3
PUCSBASE
350
378
  3
PUCSORGBACK
350
37E
  3
PUCSORGBOTTOM
350
37A
  3
PUCSORGFRONT
350
37D
  3
PUCSORGLEFT
350
37B
  3
PUCSORGRIGHT
350
37C
  3
PUCSORGTOP
350
379
  3
PUCSORTHOREF
350
376
  3
PUCSORTHOVIEW
350
377
  3
STYLESHEET
350
36C
  3
TSTACKALIGN
350
369
  3
TSTACKSIZE
350
36A
  3
UCSBASE
350
381
  3
UCSORGBACK
350
387
  3
UCSORGBOTTOM
350
383
  3
UCSORGFRONT
350
386
  3
UCSORGLEFT
350
384
  3
UCSORGRIGHT
350
385
  3
UCSORGTOP
350
382
  3
UCSORTHOREF
350
37F
  3
UCSORTHOVIEW
350
380
  3
VERSIONGUID
350
374
  0
DICTIONARY
  5
389
102
{ACAD_REACTORS
330
C
102
}
330
C
100
AcDbDictionary
  3
CANNOSCALE
350
392
  3
CMLEADERSTYLE
350
38B
  3
CTABLESTYLE
350
38A
  3
DIMASSOC
350
38E
  3
HIDETEXT
350
38F
  3
MSLTSCALE
350
393
  0
XRECORD
  5
391
102
{ACAD_REACTORS
330
390
102
}
330
390
100
AcDbXrecord
102
VTR_0.000_0.000_1.000_1.000_VISUALSTYLE
340
2F
102
VTR_0.000_0.000_1.000_1.000_GRIDDISPLAY
 70
     3
102
VTR_0.000_0.000_1.000_1.000_GRIDMAJOR
 70
     5
102
VTR_0.000_0.000_1.000_1.000_DEFAULTLIGHTING
280
     1
102
VTR_0.000_0.000_1.000_1.000_DEFAULTLIGHTINGTYPE
 70
     1
102
VTR_0.000_0.000_1.000_1.000_BRIGHTNESS
141
0.0
102
VTR_0.000_0.000_1.000_1.000_CONTRAST
142
0.0
  0
MATERIAL
  5
45
102
{ACAD_REACTORS
330
43
102
}
102
{ACAD_XDICTIONARY
360
396
102
}
330
43
100
AcDbMaterial
  1
BYBLOCK
  0
MATERIAL
  5
44
102
{ACAD_REACTORS
330
43
102
}
102
{ACAD_XDICTIONARY
360
394
102
}
330
43
100
AcDbMaterial
  1
BYLAYER
  0
MATERIAL
  5
46
102
{ACAD_REACTORS
330
43
102
}
102
{ACAD_XDICTIONARY
360
398
102
}
330
43
100
AcDbMaterial
  1
GLOBAL
  0
ACAD_PROXY_OBJECT
  5
6C
102
{ACAD_REACTORS
330
6B
102
}
330
6B
100
AcDbProxyObject
 90
      499
 91
      505
 93
      610
310
40901902A4063FBFFFFFE056BD1B81E855B9FC0AD7A3703D0AD73F4214DD185B99185C9900AD7A3703D0AC73F90141901A02B5E8DC0F42B1CFC02B5E8DC0F42B1CFE5764000000000000300FC0
340
14
340
0
340
11
340
0
 94
        0
1001
ACAD_MLEADERVER
1070
     2
  0
MLINESTYLE
  5
18
102
{ACAD_REACTORS
330
17
102
}
330
17
100
AcDbMlineStyle
  2
Standard
 70
     0
  3

 62
   256
 51
90.0
 52
90.0
 71
     2
 49
0.5
 62
   256
  6
BYLAYER
 49
-0.5
 62
   256
  6
BYLAYER
  0
ACAD_PROXY_OBJECT
  5
48
102
{ACAD_REACTORS
330
47
102
}
330
47
100
AcDbProxyObject
 90
      499
 91
      503
 93
       41
310
903313A31580
  0
ACAD_PROXY_OBJECT
  5
49
102
{ACAD_REACTORS
330
47
102
}
330
47
100
AcDbProxyObject
 90
      499
 91
      503
 93
      105
310
903313A324000000000000004000
  0
ACAD_PROXY_OBJECT
  5
4A
102
{ACAD_REACTORS
330
47
102
}
330
47
100
AcDbProxyObject
 90
      499
 91
      503
 93
      105
310
903313A344000000000000104000
  0
ACAD_PROXY_OBJECT
  5
4B
102
{ACAD_REACTORS
330
47
102
}
330
47
100
AcDbProxyObject
 90
      499
 91
      503
 93
      105
310
903313A354000000000000144000
  0
ACAD_PROXY_OBJECT
  5
4C
102
{ACAD_REACTORS
330
47
102
}
330
47
100
AcDbProxyObject
 90
      499
 91
      503
 93
      105
310
903313A384000000000000204000
  0
ACAD_PROXY_OBJECT
  5
4D
102
{ACAD_REACTORS
330
47
102
}
330
47
100
AcDbProxyObject
 90
      499
 91
      503
 93
      113
310
904313A31304000000000000244000
  0
ACAD_PROXY_OBJECT
  5
4E
102
{ACAD_REACTORS
330
47
102
}
330
47
100
AcDbProxyObject
 90
      499
 91
      503
 93
      113
310
904313A31364000000000000304000
  0
ACAD_PROXY_OBJECT
  5
4F
102
{ACAD_REACTORS
330
47
102
}
330
47
100
AcDbProxyObject
 90
      499
 91
      503
 93
      113
310
904313A32304000000000000344000
  0
ACAD_PROXY_OBJECT
  5
50
102
{ACAD_REACTORS
330
47
102
}
330
47
100
AcDbProxyObject
 90
      499
 91
      503
 93
      113
310
904313A333040000000000003E4000
  0
ACAD_PROXY_OBJECT
  5
51
102
{ACAD_REACTORS
330
47
102
}
330
47
100
AcDbProxyObject
 90
      499
 91
      503
 93
      113
310
904313A34304000000000000444000
  0
ACAD_PROXY_OBJECT
  5
52
102
{ACAD_REACTORS
330
47
102
}
330
47
100
AcDbProxyObject
 90
      499
 91
      503
 93
      113
310
904313A35304000000000000494000
  0
ACAD_PROXY_OBJECT
  5
53
102
{ACAD_REACTORS
330
47
102
}
330
47
100
AcDbProxyObject
 90
      499
 91
      503
 93
      121
310
905313A3130304000000000000594000
  0
ACAD_PROXY_OBJECT
  5
54
102
{ACAD_REACTORS
330
47
102
}
330
47
100
AcDbProxyObject
 90
      499
 91
      503
 93
      105
310
903323A310000000000000010100
  0
ACAD_PROXY_OBJECT
  5
55
102
{ACAD_REACTORS
330
47
102
}
330
47
100
AcDbProxyObject
 90
      499
 91
      503
 93
      105
310
903343A310000000000000410100
  0
ACAD_PROXY_OBJECT
  5
56
102
{ACAD_REACTORS
330
47
102
}
330
47
100
AcDbProxyObject
 90
      499
 91
      503
 93
      105
310
903383A310000000000000810100
  0
ACAD_PROXY_OBJECT
  5
57
102
{ACAD_REACTORS
330
47
102
}
330
47
100
AcDbProxyObject
 90
      499
 91
      503
 93
      113
310
90431303A310000000000000910100
  0
ACAD_PROXY_OBJECT
  5
58
102
{ACAD_REACTORS
330
47
102
}
330
47
100
AcDbProxyObject
 90
      499
 91
      503
 93
      121
310
9053130303A310000000000001650100
  0
ACAD_PROXY_OBJECT
  5
59
102
{ACAD_REACTORS
330
47
102
}
330
47
100
AcDbProxyObject
 90
      499
 91
      503
 93
      257
310
90E312F31323822203D2031272D3022000000000000200FC000000000000284000
  0
ACAD_PROXY_OBJECT
  5
5A
102
{ACAD_REACTORS
330
47
102
}
330
47
100
AcDbProxyObject
 90
      499
 91
      503
 93
      249
310
90D312F363422203D2031272D3022000000000000240FC000000000000284000
  0
ACAD_PROXY_OBJECT
  5
5B
102
{ACAD_REACTORS
330
47
102
}
330
47
100
AcDbProxyObject
 90
      499
 91
      503
 93
      249
310
90D312F333222203D2031272D3022000000000000280FC000000000000284000
  0
ACAD_PROXY_OBJECT
  5
5C
102
{ACAD_REACTORS
330
47
102
}
330
47
100
AcDbProxyObject
 90
      499
 91
      503
 93
      249
310
90D312F313622203D2031272D30220000000000002C0FC000000000000284000
  0
ACAD_PROXY_OBJECT
  5
5D
102
{ACAD_REACTORS
330
47
102
}
330
47
100
AcDbProxyObject
 90
      499
 91
      503
 93
      249
310
90D332F333222203D2031272D30220000000000002E0FC000000000000284000
  0
ACAD_PROXY_OBJECT
  5
5E
102
{ACAD_REACTORS
330
47
102
}
330
47
100
AcDbProxyObject
 90
      499
 91
      503
 93
      241
310
90C312F3822203D2031272D3022000000000000300FC000000000000284000
  0
ACAD_PROXY_OBJECT
  5
5F
102
{ACAD_REACTORS
330
47
102
}
330
47
100
AcDbProxyObject
 90
      499
 91
      503
 93
      249
310
90D332F313622203D2031272D3022000000000000320FC000000000000284000
  0
ACAD_PROXY_OBJECT
  5
60
102
{ACAD_REACTORS
330
47
102
}
330
47
100
AcDbProxyObject
 90
      499
 91
      503
 93
      241
310
90C312F3422203D2031272D3022000000000000340FC000000000000284000
  0
ACAD_PROXY_OBJECT
  5
61
102
{ACAD_REACTORS
330
47
102
}
330
47
100
AcDbProxyObject
 90
      499
 91
      503
 93
      241
310
90C332F3822203D2031272D3022000000000000360FC000000000000284000
  0
ACAD_PROXY_OBJECT
  5
62
102
{ACAD_REACTORS
330
47
102
}
330
47
100
AcDbProxyObject
 90
      499
 91
      503
 93
      241
310
90C312F3222203D2031272D3022000000000000380FC000000000000284000
  0
ACAD_PROXY_OBJECT
  5
63
102
{ACAD_REACTORS
330
47
102
}
330
47
100
AcDbProxyObject
 90
      499
 91
      503
 93
      241
310
90C332F3422203D2031272D30220000000000003A0FC000000000000284000
  0
ACAD_PROXY_OBJECT
  5
64
102
{ACAD_REACTORS
330
47
102
}
330
47
100
AcDbProxyObject
 90
      499
 91
      503
 93
      161
310
90A3122203D2031272D30224000000000000284000
  0
ACAD_PROXY_OBJECT
  5
65
102
{ACAD_REACTORS
330
47
102
}
330
47
100
AcDbProxyObject
 90
      499
 91
      503
 93
      257
310
90E312D312F3222203D2031272D30220000000000003E0FC000000000000284000
  0
ACAD_PROXY_OBJECT
  5
66
102
{ACAD_REACTORS
330
47
102
}
330
47
100
AcDbProxyObject
 90
      499
 91
      503
 93
      225
310
90A3322203D2031272D302200000000000002100000000000000284000
  0
ACAD_PROXY_OBJECT
  5
67
102
{ACAD_REACTORS
330
47
102
}
330
47
100
AcDbProxyObject
 90
      499
 91
      503
 93
      225
310
90A3622203D2031272D302200000000000006100000000000000284000
  0
ACAD_PROXY_OBJECT
  5
68
102
{ACAD_REACTORS
330
47
102
}
330
47
100
AcDbProxyObject
 90
      499
 91
      503
 93
      249
310
90D31272D3022203D2031272D30220000000000000A100000000000000284000
  0
ACAD_PROXY_OBJECT
  5
2F
102
{ACAD_REACTORS
330
2A
102
}
330
2A
100
AcDbProxyObject
 90
      499
 91
      501
 93
      436
310
42CC9915DA5C99599C985B595049028333333333333E33F0000000000000F90107901411070040501600405405064090741402480A0340
1001
ACAD
1000
AcDbSavedByObjectVersion
1070
     0
  0
ACAD_PROXY_OBJECT
  5
32
102
{ACAD_REACTORS
330
2A
102
}
330
2A
100
AcDbProxyObject
 90
      499
 91
      501
 93
      388
310
4150985CDA58D07406404333333333333E33F0000000000000F90107A41107004050150841D405064090741402480A0350
1001
ACAD
1000
AcDbSavedByObjectVersion
1070
     0
  0
ACAD_PROXY_OBJECT
  5
36
102
{ACAD_REACTORS
330
2A
102
}
330
2A
100
AcDbProxyObject
 90
      499
 91
      501
 93
      428
310
42109C9A59DA1D195B90C409028333333333333E33F0000000000000F9010790141107004050150841D405064090741402480A029950
1001
ACAD
1000
AcDbSavedByObjectVersion
1070
     0
  0
ACAD_PROXY_OBJECT
  5
3A
102
{ACAD_REACTORS
330
2A
102
}
330
2A
100
AcDbProxyObject
 90
      499
 91
      501
 93
      452
310
42D0DBDB1BDC90DA185B99D95104090240C333333333333E33F0000000000000F90108901411070040501508421405064090741402480A0350
1001
ACAD
1000
AcDbSavedByObjectVersion
1070
     0
  0
ACAD_PROXY_OBJECT
  5
34
102
{ACAD_REACTORS
330
2A
102
}
330
2A
100
AcDbProxyObject
 90
      499
 91
      501
 93
      500
310
4290DBDB98D95C1D1D585B10940D028333333333333E33F0000000000000F90107902409070040501000000000018199010841D405064090740C02480A0340
1001
ACAD
1000
AcDbSavedByObjectVersion
1070
     0
  0
ACAD_PROXY_OBJECT
  5
35
102
{ACAD_REACTORS
330
2A
102
}
330
2A
100
AcDbProxyObject
 90
      499
 91
      501
 93
      412
310
40D11A5B50B409028333333333333E33F0000000000000F9010790141107004050150841D405064090741402480A02677FFFFFD0
1001
ACAD
1000
AcDbSavedByObjectVersion
1070
     0
  0
ACAD_PROXY_OBJECT
  5
3D
102
{ACAD_REACTORS
330
2A
102
}
330
2A
100
AcDbProxyObject
 90
      499
 91
      501
 93
      452
310
43115919D950DBDB1BDC93D999916409028333333333333E33F0000000000000F9010790141107004050150841D405064090741402480A0350
1001
ACAD
1000
AcDbSavedByObjectVersion
1070
     0
  0
ACAD_PROXY_OBJECT
  5
39
102
{ACAD_REACTORS
330
2A
102
}
330
2A
100
AcDbProxyObject
 90
      499
 91
      501
 93
      444
310
42D19858D95C185D1D195C9B90F409028333333333333E33F0000000000000F9010790141107004050150841D405064090741402480A0350
1001
ACAD
1000
AcDbSavedByObjectVersion
1070
     0
  0
ACAD_PROXY_OBJECT
  5
2B
102
{ACAD_REACTORS
330
2A
102
}
330
2A
100
AcDbProxyObject
 90
      499
 91
      501
 93
      380
310
41119B185D240901404333333333333E33F0000000000000F9010740A907004050150841D405064090741402480A1B50
1001
ACAD
1000
AcDbSavedByObjectVersion
1070
     0
  0
ACAD_PROXY_OBJECT
  5
2C
102
{ACAD_REACTORS
330
2A
102
}
330
2A
100
AcDbProxyObject
 90
      499
 91
      501
 93
      468
310
43519B185D15DA5D1A115919D95CD0140901404333333333333E33F0000000000000F90107409019070040501600405405064090741402480A1B50
1001
ACAD
1000
AcDbSavedByObjectVersion
1070
     0
  0
ACAD_PROXY_OBJECT
  5
2D
102
{ACAD_REACTORS
330
2A
102
}
330
2A
100
AcDbProxyObject
 90
      499
 91
      501
 93
      404
310
41D1DBDD5C985D5910240902404333333333333E33F0000000000000F9010740A9070040501641D405064090741402480A1B50
1001
ACAD
1000
AcDbSavedByObjectVersion
1070
     0
  0
ACAD_PROXY_OBJECT
  5
2E
102
{ACAD_REACTORS
330
2A
102
}
330
2A
100
AcDbProxyObject
 90
      499
 91
      501
 93
      492
310
4411DBDD5C985D5915DA5D1A115919D95CD0340902404333333333333E33F0000000000000F90107409019070040501600405405064090741402480A1B50
1001
ACAD
1000
AcDbSavedByObjectVersion
1070
     0
  0
ACAD_PROXY_OBJECT
  5
31
102
{ACAD_REACTORS
330
2A
102
}
330
2A
100
AcDbProxyObject
 90
      499
 91
      501
 93
      476
310
41921A5919195B90640502408333333333333E33F0000000000000F901079024090700405020000000000001110200405405064090740C02480A0340
1001
ACAD
1000
AcDbSavedByObjectVersion
1070
     0
  0
ACAD_PROXY_OBJECT
  5
3B
102
{ACAD_REACTORS
330
2A
102
}
330
2A
100
AcDbProxyObject
 90
      499
 91
      501
 93
      428
310
42529A5D1D195C93D999914409028333333333333E33F0000000000000F9010790141107004050150A41D405064090741402480A0350
1001
ACAD
1000
AcDbSavedByObjectVersion
1070
     0
  0
ACAD_PROXY_OBJECT
  5
38
102
{ACAD_REACTORS
330
2A
102
}
330
2A
100
AcDbProxyObject
 90
      499
 91
      501
 93
      444
310
42D31A5B995C185D1D195C9B90E409028333333333333E33F0000000000000F9010790141107004050750841D405064090741402483A0350
1001
ACAD
1000
AcDbSavedByObjectVersion
1070
     0
  0
ACAD_PROXY_OBJECT
  5
3C
102
{ACAD_REACTORS
330
2A
102
}
330
2A
100
AcDbProxyObject
 90
      499
 91
      501
 93
      444
310
42D3DD995C9A185B99D3D999915409028333333333333E33F0000000000000F9010790141107004050150941D405064090741402480A0350
1001
ACAD
1000
AcDbSavedByObjectVersion
1070
     0
  0
ACAD_PROXY_OBJECT
  5
33
102
{ACAD_REACTORS
330
2A
102
}
330
2A
100
AcDbProxyObject
 90
      499
 91
      501
 93
      428
310
425499585B1A5CDD1A58D08409038333333333333E33F0000000000000F9010740A907004050150800405405064090740C02480A1B40
1001
ACAD
1000
AcDbSavedByObjectVersion
1070
     0
  0
ACAD_PROXY_OBJECT
  5
42
102
{ACAD_REACTORS
330
2A
102
}
330
2A
100
AcDbProxyObject
 90
      499
 91
      501
 93
      420
310
4194DA1859195911B40902404333333333333E33F0000000000000F9010740A41107004050150800405405064090840C02480A0B40
1001
ACAD
1000
AcDbSavedByObjectVersion
1070
     0
  0
ACAD_PROXY_OBJECT
  5
41
102
{ACAD_REACTORS
330
2A
102
}
330
2A
100
AcDbProxyObject
 90
      499
 91
      501
 93
      516
310
4454DA18591959081DDA5D1A08195919D95CD1A40902404333333333333E33F0000000000000F901074090142907004050250800405405064090740C02480A0B40
1001
ACAD
1000
AcDbSavedByObjectVersion
1070
     0
  0
ACAD_PROXY_OBJECT
  5
3E
102
{ACAD_REACTORS
330
2A
102
}
330
2A
100
AcDbProxyObject
 90
      499
 91
      501
 93
      532
310
4394DA1859195CC81BD98811DC985E5174090240C333333333333E33F0000000000000F901079024090741D01000000000000111010841D405064090740C02480A0340
1001
ACAD
1000
AcDbSavedByObjectVersion
1070
     0
  0
ACAD_PROXY_OBJECT
  5
3F
102
{ACAD_REACTORS
330
2A
102
}
330
2A
100
AcDbProxyObject
 90
      499
 91
      501
 93
      476
310
41D4DAD95D18DA1E51840502408333333333333E33F0000000000000F901079024090741D01000000000000111010B41D405064090741802480A0340
1001
ACAD
1000
AcDbSavedByObjectVersion
1070
     0
  0
ACAD_PROXY_OBJECT
  5
37
102
{ACAD_REACTORS
330
2A
102
}
330
2A
100
AcDbProxyObject
 90
      499
 91
      501
 93
      412
310
41D51A1A58DAD95B90D409028333333333333E33F0000000000000F9010790141107004050150C41D405064090741402480A0350
1001
ACAD
1000
AcDbSavedByObjectVersion
1070
     0
  0
ACAD_PROXY_OBJECT
  5
30
102
{ACAD_REACTORS
330
2A
102
}
330
2A
100
AcDbProxyObject
 90
      499
 91
      501
 93
      420
310
4255DA5C99599C985B595059028333333333333E33F0000000000000F90107901411070040501600405405064090740C02480A0340
1001
ACAD
1000
AcDbSavedByObjectVersion
1070
     0
  0
ACAD_PROXY_OBJECT
  5
40
102
{ACAD_REACTORS
330
2A
102
}
330
2A
100
AcDbProxyObject
 90
      499
 91
      501
 93
      404
310
41560B54985E51940902404000000000000E03F0000000000000F9010740501907004050150841D405064090740C02480A1B40
1001
ACAD
1000
AcDbSavedByObjectVersion
1070
     0
  0
XRECORD
  5
372
102
{ACAD_REACTORS
330
368
102
}
330
368
100
AcDbXrecord
340
0
  0
XRECORD
  5
371
102
{ACAD_REACTORS
330
368
102
}
330
368
100
AcDbXrecord
 90
        0
  0
XRECORD
  5
388
102
{ACAD_REACTORS
330
368
102
}
330
368
100
AcDbXrecord
1000
DSTYLE
1002
{
1070
   171
 70
     2
1070
   143
 40
25.4
1070
   274
 70
     2
1070
    41
 40
0.18
1070
   141
 40
0.09
1070
   271
 70
     4
1070
    43
 40
0.38
1070
   278
 70
    46
1070
    44
 40
0.18
1070
    42
 40
0.0625
1070
   147
 40
0.09
1070
    77
 70
     0
1070
   272
 70
     4
1070
    73
 70
     1
1070
   172
 70
     0
1070
    74
 70
     1
1070
   283
 70
     1
1070
   340
340
11
1070
   140
 40
0.18
1070
   284
 70
     0
1070
    78
 70
     0
1002
}
  0
XRECORD
  5
373
102
{ACAD_REACTORS
330
368
102
}
330
368
100
AcDbXrecord
  1
{E980AD4E-C684-4046-A8BE-A18C73507658}
  0
XRECORD
  5
36B
102
{ACAD_REACTORS
330
368
102
}
330
368
100
AcDbXrecord
  1

  0
XRECORD
  5
370
102
{ACAD_REACTORS
330
368
102
}
330
368
100
AcDbXrecord
 90
        4
  0
XRECORD
  5
36D
102
{ACAD_REACTORS
330
368
102
}
330
368
100
AcDbXrecord
340
1A
  0
XRECORD
  5
36F
102
{ACAD_REACTORS
330
368
102
}
330
368
100
AcDbXrecord
 90
    10781
  0
XRECORD
  5
36E
102
{ACAD_REACTORS
330
368
102
}
330
368
100
AcDbXrecord
340
19
  0
XRECORD
  5
375
102
{ACAD_REACTORS
330
368
102
}
330
368
100
AcDbXrecord
 40
0.0
  0
XRECORD
  5
378
102
{ACAD_REACTORS
330
368
102
}
330
368
100
AcDbXrecord
340
0
  0
XRECORD
  5
37E
102
{ACAD_REACTORS
330
368
102
}
330
368
100
AcDbXrecord
 10
0.0
 20
0.0
 30
0.0
  0
XRECORD
  5
37A
102
{ACAD_REACTORS
330
368
102
}
330
368
100
AcDbXrecord
 10
0.0
 20
0.0
 30
0.0
  0
XRECORD
  5
37D
102
{ACAD_REACTORS
330
368
102
}
330
368
100
AcDbXrecord
 10
0.0
 20
0.0
 30
0.0
  0
XRECORD
  5
37B
102
{ACAD_REACTORS
330
368
102
}
330
368
100
AcDbXrecord
 10
0.0
 20
0.0
 30
0.0
  0
XRECORD
  5
37C
102
{ACAD_REACTORS
330
368
102
}
330
368
100
AcDbXrecord
 10
0.0
 20
0.0
 30
0.0
  0
XRECORD
  5
379
102
{ACAD_REACTORS
330
368
102
}
330
368
100
AcDbXrecord
 10
0.0
 20
0.0
 30
0.0
  0
XRECORD
  5
376
102
{ACAD_REACTORS
330
368
102
}
330
368
100
AcDbXrecord
340
0
  0
XRECORD
  5
377
102
{ACAD_REACTORS
330
368
102
}
330
368
100
AcDbXrecord
 70
     0
  0
XRECORD
  5
36C
102
{ACAD_REACTORS
330
368
102
}
330
368
100
AcDbXrecord
  1

  0
XRECORD
  5
369
102
{ACAD_REACTORS
330
368
102
}
330
368
100
AcDbXrecord
 90
        1
  0
XRECORD
  5
36A
102
{ACAD_REACTORS
330
368
102
}
330
368
100
AcDbXrecord
 90
       70
  0
XRECORD
  5
381
102
{ACAD_REACTORS
330
368
102
}
330
368
100
AcDbXrecord
340
0
  0
XRECORD
  5
387
102
{ACAD_REACTORS
330
368
102
}
330
368
100
AcDbXrecord
 10
0.0
 20
0.0
 30
0.0
  0
XRECORD
  5
383
102
{ACAD_REACTORS
330
368
102
}
330
368
100
AcDbXrecord
 10
0.0
 20
0.0
 30
0.0
  0
XRECORD
  5
386
102
{ACAD_REACTORS
330
368
102
}
330
368
100
AcDbXrecord
 10
0.0
 20
0.0
 30
0.0
  0
XRECORD
  5
384
102
{ACAD_REACTORS
330
368
102
}
330
368
100
AcDbXrecord
 10
0.0
 20
0.0
 30
0.0
  0
XRECORD
  5
385
102
{ACAD_REACTORS
330
368
102
}
330
368
100
AcDbXrecord
 10
0.0
 20
0.0
 30
0.0
  0
XRECORD
  5
382
102
{ACAD_REACTORS
330
368
102
}
330
368
100
AcDbXrecord
 10
0.0
 20
0.0
 30
0.0
  0
XRECORD
  5
37F
102
{ACAD_REACTORS
330
368
102
}
330
368
100
AcDbXrecord
340
0
  0
XRECORD
  5
380
102
{ACAD_REACTORS
330
368
102
}
330
368
100
AcDbXrecord
 70
     0
  0
XRECORD
  5
374
102
{ACAD_REACTORS
330
368
102
}
330
368
100
AcDbXrecord
  1
{FAEB1C32-E019-11D5-929B-00C0DF256EC4}
  0
DICTIONARYVAR
  5
392
102
{ACAD_REACTORS
330
389
102
}
330
389
100
DictionaryVariables
280
     0
  1
1:1
  0
DICTIONARYVAR
  5
38B
102
{ACAD_REACTORS
330
389
102
}
330
389
100
DictionaryVariables
280
     0
  1
Standard
  0
DICTIONARYVAR
  5
38A
102
{ACAD_REACTORS
330
389
102
}
330
389
100
DictionaryVariables
280
     0
  1
Standard
  0
DICTIONARYVAR
  5
38E
102
{ACAD_REACTORS
330
389
102
}
330
389
100
DictionaryVariables
280
     0
  1
2
  0
DICTIONARYVAR
  5
38F
102
{ACAD_REACTORS
330
389
102
}
330
389
100
DictionaryVariables
280
     0
  1
1
  0
DICTIONARYVAR
  5
393
102
{ACAD_REACTORS
330
389
102
}
330
389
100
DictionaryVariables
280
     0
  1
1
  0
DICTIONARY
  5
396
330
45
100
AcDbDictionary
280
     1
  3
ACAD_XREC_ROUNDTRIP
360
397
  0
DICTIONARY
  5
394
330
44
100
AcDbDictionary
280
     1
  3
ACAD_XREC_ROUNDTRIP
360
395
  0
DICTIONARY
  5
398
330
46
100
AcDbDictionary
280
     1
  3
ACAD_XREC_ROUNDTRIP
360
399
  0
XRECORD
  5
397
102
{ACAD_REACTORS
330
396
102
}
330
396
100
AcDbXrecord
102
MATERIAL
148
0.0
149
0.0
149
0.0
 93
        0
 94
      127
282
     0
 72
     1
 77
     1
171
     1
175
     1
179
     1
273
     0
  0
XRECORD
  5
395
102
{ACAD_REACTORS
330
394
102
}
330
394
100
AcDbXrecord
102
MATERIAL
148
0.0
149
0.0
149
0.0
 93
        0
 94
      127
282
     0
 72
     1
 77
     1
171
     1
175
     1
179
     1
273
     0
  0
XRECORD
  5
399
102
{ACAD_REACTORS
330
398
102
}
330
398
100
AcDbXrecord
102
MATERIAL
148
0.0
149
0.0
149
0.0
 93
        0
 94
      127
282
     0
 72
     1
 77
     1
171
     1
175
     1
179
     1
273
     0
  0
ENDSEC
  0
EOF
