  0
SECTION
  2
HEADER
  9
$ACADVER
  1
AC1014
  9
$ACADMAINTVER
 70
     9
  9
$DWGCODEPAGE
  3
ANSI_1252
  9
$INSBASE
 10
0.0
 20
0.0
 30
0.0
  9
$EXTMIN
 10
1.000000000000000E+20
 20
1.000000000000000E+20
 30
1.000000000000000E+20
  9
$EXTMAX
 10
-1.000000000000000E+20
 20
-1.000000000000000E+20
 30
-1.000000000000000E+20
  9
$LIMMIN
 10
0.0
 20
0.0
  9
$LIMMAX
 10
12.0
 20
9.0
  9
$ORTHOMODE
 70
     0
  9
$REGENMODE
 70
     1
  9
$FILLMODE
 70
     1
  9
$QTEXTMODE
 70
     0
  9
$MIRRTEXT
 70
     1
  9
$DRAGMODE
 70
     2
  9
$LTSCALE
 40
1.0
  9
$OSMODE
 70
    37
  9
$ATTMODE
 70
     1
  9
$TEXTSIZE
 40
0.2
  9
$TRACEWID
 40
0.05
  9
$TEXTSTYLE
  7
STANDARD
  9
$CLAYER
  8
0
  9
$CELTYPE
  6
BYLAYER
  9
$CECOLOR
 62
   256
  9
$CELTSCALE
 40
1.0
  9
$DELOBJ
 70
     1
  9
$DISPSILH
 70
     0
  9
$DIMSCALE
 40
1.0
  9
$DIMASZ
 40
0.18
  9
$DIMEXO
 40
0.0625
  9
$DIMDLI
 40
0.38
  9
$DIMRND
 40
0.0
  9
$DIMDLE
 40
0.0
  9
$DIMEXE
 40
0.18
  9
$DIMTP
 40
0.0
  9
$DIMTM
 40
0.0
  9
$DIMTXT
 40
0.18
  9
$DIMCEN
 40
0.09
  9
$DIMTSZ
 40
0.0
  9
$DIMTOL
 70
     0
  9
$DIMLIM
 70
     0
  9
$DIMTIH
 70
     1
  9
$DIMTOH
 70
     1
  9
$DIMSE1
 70
     0
  9
$DIMSE2
 70
     0
  9
$DIMTAD
 70
     0
  9
$DIMZIN
 70
     0
  9
$DIMBLK
  1

  9
$DIMASO
 70
     1
  9
$DIMSHO
 70
     1
  9
$DIMPOST
  1

  9
$DIMAPOST
  1

  9
$DIMALT
 70
     0
  9
$DIMALTD
 70
     2
  9
$DIMALTF
 40
25.4
  9
$DIMLFAC
 40
1.0
  9
$DIMTOFL
 70
     0
  9
$DIMTVP
 40
0.0
  9
$DIMTIX
 70
     0
  9
$DIMSOXD
 70
     0
  9
$DIMSAH
 70
     0
  9
$DIMBLK1
  1

  9
$DIMBLK2
  1

  9
$DIMSTYLE
  2
STANDARD
  9
$DIMCLRD
 70
     0
  9
$DIMCLRE
 70
     0
  9
$DIMCLRT
 70
     0
  9
$DIMTFAC
 40
1.0
  9
$DIMGAP
 40
0.09
  9
$DIMJUST
 70
     0
  9
$DIMSD1
 70
     0
  9
$DIMSD2
 70
     0
  9
$DIMTOLJ
 70
     1
  9
$DIMTZIN
 70
     0
  9
$DIMALTZ
 70
     0
  9
$DIMALTTZ
 70
     0
  9
$DIMFIT
 70
     3
  9
$DIMUPT
 70
     0
  9
$DIMUNIT
 70
     2
  9
$DIMDEC
 70
     4
  9
$DIMTDEC
 70
     4
  9
$DIMALTU
 70
     2
  9
$DIMALTTD
 70
     2
  9
$DIMTXSTY
  7
STANDARD
  9
$DIMAUNIT
 70
     0
  9
$LUNITS
 70
     2
  9
$LUPREC
 70
     4
  9
$SKETCHINC
 40
0.1
  9
$FILLETRAD
 40
0.5
  9
$AUNITS
 70
     0
  9
$AUPREC
 70
     0
  9
$MENU
  1
.
  9
$ELEVATION
 40
0.0
  9
$PELEVATION
 40
0.0
  9
$THICKNESS
 40
0.0
  9
$LIMCHECK
 70
     0
  9
$CHAMFERA
 40
0.0
  9
$CHAMFERB
 40
0.0
  9
$CHAMFERC
 40
0.0
  9
$CHAMFERD
 40
0.0
  9
$SKPOLY
 70
     0
  9
$TDCREATE
 40
2459264.89163765
  9
$TDUPDATE
 40
2459264.891637685
  9
$TDINDWG
 40
0.0000000116
  9
$TDUSRTIMER
 40
0.0000000116
  9
$USRTIMER
 70
     1
  9
$ANGBASE
 50
0.0
  9
$ANGDIR
 70
     0
  9
$PDMODE
 70
     0
  9
$PDSIZE
 40
0.0
  9
$PLINEWID
 40
0.0
  9
$COORDS
 70
     1
  9
$SPLFRAME
 70
     0
  9
$SPLINETYPE
 70
     6
  9
$SPLINESEGS
 70
     8
  9
$ATTDIA
 70
     0
  9
$ATTREQ
 70
     1
  9
$HANDLING
 70
     1
  9
$HANDSEED
  5
17B
  9
$SURFTAB1
 70
     6
  9
$SURFTAB2
 70
     6
  9
$SURFTYPE
 70
     6
  9
$SURFU
 70
     6
  9
$SURFV
 70
     6
  9
$UCSNAME
  2

  9
$UCSORG
 10
0.0
 20
0.0
 30
0.0
  9
$UCSXDIR
 10
1.0
 20
0.0
 30
0.0
  9
$UCSYDIR
 10
0.0
 20
1.0
 30
0.0
  9
$PUCSNAME
  2

  9
$PUCSORG
 10
0.0
 20
0.0
 30
0.0
  9
$PUCSXDIR
 10
1.0
 20
0.0
 30
0.0
  9
$PUCSYDIR
 10
0.0
 20
1.0
 30
0.0
  9
$USERI1
 70
     0
  9
$USERI2
 70
     0
  9
$USERI3
 70
     0
  9
$USERI4
 70
     0
  9
$USERI5
 70
     0
  9
$USERR1
 40
0.0
  9
$USERR2
 40
0.0
  9
$USERR3
 40
0.0
  9
$USERR4
 40
0.0
  9
$USERR5
 40
0.0
  9
$WORLDVIEW
 70
     1
  9
$SHADEDGE
 70
     3
  9
$SHADEDIF
 70
    70
  9
$TILEMODE
 70
     1
  9
$MAXACTVP
 70
    64
  9
$PINSBASE
 10
0.0
 20
0.0
 30
0.0
  9
$PLIMCHECK
 70
     0
  9
$PEXTMIN
 10
1.000000000000000E+20
 20
1.000000000000000E+20
 30
1.000000000000000E+20
  9
$PEXTMAX
 10
-1.000000000000000E+20
 20
-1.000000000000000E+20
 30
-1.000000000000000E+20
  9
$PLIMMIN
 10
0.0
 20
0.0
  9
$PLIMMAX
 10
12.0
 20
9.0
  9
$UNITMODE
 70
     0
  9
$VISRETAIN
 70
     1
  9
$PLINEGEN
 70
     0
  9
$PSLTSCALE
 70
     1
  9
$TREEDEPTH
 70
  3020
  9
$PICKSTYLE
 70
     1
  9
$CMLSTYLE
  2
STANDARD
  9
$CMLJUST
 70
     0
  9
$CMLSCALE
 40
1.0
  9
$PROXYGRAPHICS
 70
     1
  9
$MEASUREMENT
 70
     1
  0
ENDSEC
  0
SECTION
  2
CLASSES
  0
CLASS
  1
ACDBDICTIONARYWDFLT
  2
AcDbDictionaryWithDefault
  3
ObjectDBX Classes
 90
        0
280
     0
281
     0
  0
CLASS
  1
VISUALSTYLE
  2
AcDbVisualStyle
  3
ObjectDBX Classes
 90
     4095
280
     0
281
     0
  0
CLASS
  1
MATERIAL
  2
AcDbMaterial
  3
ObjectDBX Classes
 90
     1153
280
     0
281
     0
  0
CLASS
  1
SCALE
  2
AcDbScale
  3
ObjectDBX Classes
 90
     1153
280
     0
281
     0
  0
CLASS
  1
TABLESTYLE
  2
AcDbTableStyle
  3
ObjectDBX Classes
 90
     4095
280
     0
281
     0
  0
CLASS
  1
MLEADERSTYLE
  2
AcDbMLeaderStyle
  3
ACDB_MLEADERSTYLE_CLASS
 90
     4095
280
     0
281
     0
  0
CLASS
  1
SUN
  2
AcDbSun
  3
SCENEOE
 90
     1153
280
     0
281
     0
  0
CLASS
  1
DICTIONARYVAR
  2
AcDbDictionaryVar
  3
ObjectDBX Classes
 90
        0
280
     0
281
     0
  0
CLASS
  1
XRECORD
  2
AcDbXrecord
  3
ObjectDBX Classes
 90
        0
280
     0
281
     0
  0
CLASS
  1
LWPOLYLINE
  2
AcDbPolyline
  3
ObjectDBX Classes
 90
        0
280
     0
281
     1
  0
CLASS
  1
HATCH
  2
AcDbHatch
  3
ObjectDBX Classes
 90
        0
280
     0
281
     1
  0
CLASS
  1
ACDBPLACEHOLDER
  2
AcDbPlaceHolder
  3
ObjectDBX Classes
 90
        0
280
     0
281
     0
  0
CLASS
  1
LAYOUT
  2
AcDbLayout
  3
ObjectDBX Classes
 90
        0
280
     0
281
     0
  0
ENDSEC
  0
SECTION
  2
TABLES
  0
TABLE
  2
VPORT
  5
8
102
{ACAD_XDICTIONARY
360
170
102
}
330
0
100
AcDbSymbolTable
 70
     1
  0
VPORT
  5
29
330
8
100
AcDbSymbolTableRecord
100
AcDbViewportTableRecord
  2
*ACTIVE
 70
     0
 10
0.0
 20
0.0
 11
1.0
 21
1.0
 12
0.0
 22
0.0
 13
0.0
 23
0.0
 14
0.5
 24
0.5
 15
0.5
 25
0.5
 16
0.0
 26
0.0
 36
1.0
 17
0.0
 27
0.0
 37
-1000.0
 40
192.5252687679628
 41
1.758620689655172
 42
50.0
 43
263.3454637866231
 44
349.8066779614282
 50
0.0
 51
0.0
 71
     0
 72
   100
 73
     1
 74
     3
 75
     0
 76
     0
 77
     0
 78
     0
  0
ENDTAB
  0
TABLE
  2
LTYPE
  5
5
330
0
100
AcDbSymbolTable
 70
     1
  0
LTYPE
  5
14
330
5
100
AcDbSymbolTableRecord
100
AcDbLinetypeTableRecord
  2
BYBLOCK
 70
     0
  3

 72
    65
 73
     0
 40
0.0
  0
LTYPE
  5
15
330
5
100
AcDbSymbolTableRecord
100
AcDbLinetypeTableRecord
  2
BYLAYER
 70
     0
  3

 72
    65
 73
     0
 40
0.0
  0
LTYPE
  5
16
330
5
100
AcDbSymbolTableRecord
100
AcDbLinetypeTableRecord
  2
CONTINUOUS
 70
     0
  3
Solid line
 72
    65
 73
     0
 40
0.0
  0
ENDTAB
  0
TABLE
  2
LAYER
  5
2
330
0
100
AcDbSymbolTable
 70
     3
  0
LAYER
  5
10
330
2
100
AcDbSymbolTableRecord
100
AcDbLayerTableRecord
  2
0
 70
     0
 62
     7
  6
CONTINUOUS
  0
LAYER
  5
6E
330
2
100
AcDbSymbolTableRecord
100
AcDbLayerTableRecord
  2
PROFILEEDGES
 70
     0
 62
     7
  6
CONTINUOUS
  0
LAYER
  5
6F
330
2
100
AcDbSymbolTableRecord
100
AcDbLayerTableRecord
  2
SECTIONCUTEDGES
 70
     0
 62
     7
  6
CONTINUOUS
  0
ENDTAB
  0
TABLE
  2
STYLE
  5
3
330
0
100
AcDbSymbolTable
 70
     1
  0
STYLE
  5
11
330
3
100
AcDbSymbolTableRecord
100
AcDbTextStyleTableRecord
  2
STANDARD
 70
     0
 40
0.0
 41
1.0
 50
0.0
 71
     0
 42
0.2
  3
txt
  4

  0
ENDTAB
  0
TABLE
  2
VIEW
  5
6
330
0
100
AcDbSymbolTable
 70
     0
  0
ENDTAB
  0
TABLE
  2
UCS
  5
7
330
0
100
AcDbSymbolTable
 70
     0
  0
ENDTAB
  0
TABLE
  2
APPID
  5
9
330
0
100
AcDbSymbolTable
 70
     2
  0
APPID
  5
12
330
9
100
AcDbSymbolTableRecord
100
AcDbRegAppTableRecord
  2
ACAD
 70
     0
  0
APPID
  5
17A
330
9
100
AcDbSymbolTableRecord
100
AcDbRegAppTableRecord
  2
ACAD_MLEADERVER
 70
     0
  0
ENDTAB
  0
TABLE
  2
DIMSTYLE
  5
A
330
0
100
AcDbSymbolTable
 70
     1
  0
DIMSTYLE
105
27
330
A
100
AcDbSymbolTableRecord
100
AcDbDimStyleTableRecord
  2
STANDARD
 70
     0
  3

  4

  5

  6

  7

 40
1.0
 41
0.18
 42
0.0625
 43
0.38
 44
0.18
 45
0.0
 46
0.0
 47
0.0
 48
0.0
140
0.18
141
0.09
142
0.0
143
25.4
144
1.0
145
0.0
146
1.0
147
0.09
 71
     0
 72
     0
 73
     1
 74
     1
 75
     0
 76
     0
 77
     0
 78
     0
170
     0
171
     2
172
     0
173
     0
174
     0
175
     0
176
     0
177
     0
178
     0
270
     2
271
     4
272
     4
273
     2
274
     2
340
11
275
     0
280
     0
281
     0
282
     0
283
     1
284
     0
285
     0
286
     0
287
     3
288
     0
  0
ENDTAB
  0
TABLE
  2
BLOCK_RECORD
  5
1
330
0
100
AcDbSymbolTable
 70
     1
  0
BLOCK_RECORD
  5
1F
330
1
100
AcDbSymbolTableRecord
100
AcDbBlockTableRecord
  2
*MODEL_SPACE
  0
BLOCK_RECORD
  5
1B
330
1
100
AcDbSymbolTableRecord
100
AcDbBlockTableRecord
  2
*PAPER_SPACE
  0
ENDTAB
  0
ENDSEC
  0
SECTION
  2
BLOCKS
  0
BLOCK
  5
20
330
1F
100
AcDbEntity
  8
0
100
AcDbBlockBegin
  2
*MODEL_SPACE
 70
     0
 10
0.0
 20
0.0
 30
0.0
  3
*MODEL_SPACE
  1

  0
ENDBLK
  5
21
330
1F
100
AcDbEntity
  8
0
100
AcDbBlockEnd
  0
BLOCK
  5
1C
330
1B
100
AcDbEntity
 67
     1
  8
0
100
AcDbBlockBegin
  2
*PAPER_SPACE
 70
     0
 10
0.0
 20
0.0
 30
0.0
  3
*PAPER_SPACE
  1

  0
ENDBLK
  5
1D
330
1B
100
AcDbEntity
 67
     1
  8
0
100
AcDbBlockEnd
  0
ENDSEC
  0
SECTION
  2
ENTITIES
  0
LINE
  5
70
330
1F
100
AcDbEntity
  8
0
100
AcDbLine
 10
52.8418258076377
 20
-37.13457581712102
 30
0.0
 11
55.8418258076377
 21
-37.13457581712102
 31
0.0
  0
LINE
  5
71
330
1F
100
AcDbEntity
  8
0
100
AcDbLine
 10
36.84182580763773
 20
-34.13457581712102
 30
0.0
 11
36.84182580763773
 21
-37.13457581712102
 31
0.0
  0
LINE
  5
72
330
1F
100
AcDbEntity
  8
0
100
AcDbLine
 10
-5.158174192362369
 20
-34.13457581712102
 30
0.0
 11
4.841825807637613
 21
-34.13457581712102
 31
0.0
  0
LINE
  5
73
330
1F
100
AcDbEntity
  8
0
100
AcDbLine
 10
-5.158174192362369
 20
-34.13457581712102
 30
0.0
 11
-5.158174192362369
 21
-37.13457581712102
 31
0.0
  0
LINE
  5
74
330
1F
100
AcDbEntity
  8
0
100
AcDbLine
 10
55.8418258076377
 20
-31.13457581712103
 30
0.0
 11
67.84182580763768
 21
-31.13457581712103
 31
0.0
  0
LINE
  5
75
330
1F
100
AcDbEntity
  8
0
100
AcDbLine
 10
-56.15817419236227
 20
-37.13457581712102
 30
0.0
 11
-56.15817419236227
 21
-31.13457581712103
 31
0.0
  0
LINE
  5
76
330
1F
100
AcDbEntity
  8
0
100
AcDbLine
 10
-56.15817419236227
 20
-31.13457581712103
 30
0.0
 11
-68.15817419236225
 21
-31.13457581712103
 31
0.0
  0
LINE
  5
77
330
1F
100
AcDbEntity
  8
0
100
AcDbLine
 10
-68.15817419236225
 20
-31.13457581712103
 30
0.0
 11
-68.15817419236225
 21
-28.13457581712104
 31
0.0
  0
LINE
  5
78
330
1F
100
AcDbEntity
  8
0
100
AcDbLine
 10
42.84182580763773
 20
-34.13457581712102
 30
0.0
 11
42.84182580763773
 21
-37.13457581712102
 31
0.0
  0
LINE
  5
79
330
1F
100
AcDbEntity
  8
0
100
AcDbLine
 10
52.8418258076377
 20
-37.13457581712102
 30
0.0
 11
52.8418258076377
 21
-34.13457581712102
 31
0.0
  0
LINE
  5
7A
330
1F
100
AcDbEntity
  8
0
100
AcDbLine
 10
-53.15817419236228
 20
-34.13457581712102
 30
0.0
 11
-43.1581741923623
 21
-34.13457581712102
 31
0.0
  0
LINE
  5
7B
330
1F
100
AcDbEntity
  8
0
100
AcDbLine
 10
-53.15817419236228
 20
-34.13457581712102
 30
0.0
 11
-53.15817419236228
 21
-37.13457581712102
 31
0.0
  0
LINE
  5
7C
330
1F
100
AcDbEntity
  8
0
100
AcDbLine
 10
-56.15817419236227
 20
-37.13457581712102
 30
0.0
 11
-53.15817419236228
 21
-37.13457581712102
 31
0.0
  0
LINE
  5
7D
330
1F
100
AcDbEntity
  8
0
100
AcDbLine
 10
-68.15817419236225
 20
-28.13457581712104
 30
0.0
 11
67.84182580763768
 21
-28.13457581712104
 31
0.0
  0
LINE
  5
7E
330
1F
100
AcDbEntity
  8
0
100
AcDbLine
 10
67.84182580763768
 20
-31.13457581712103
 30
0.0
 11
67.84182580763768
 21
-28.13457581712104
 31
0.0
  0
LINE
  5
7F
330
1F
100
AcDbEntity
  8
0
100
AcDbLine
 10
55.8418258076377
 20
-37.13457581712102
 30
0.0
 11
55.8418258076377
 21
-31.13457581712103
 31
0.0
  0
LINE
  5
80
330
1F
100
AcDbEntity
  8
0
100
AcDbLine
 10
42.84182580763773
 20
-34.13457581712102
 30
0.0
 11
52.8418258076377
 21
-34.13457581712102
 31
0.0
  0
LINE
  5
81
330
1F
100
AcDbEntity
  8
0
100
AcDbLine
 10
36.84182580763773
 20
-37.13457581712102
 30
0.0
 11
42.84182580763773
 21
-37.13457581712102
 31
0.0
  0
LINE
  5
82
330
1F
100
AcDbEntity
  8
0
100
AcDbLine
 10
26.84182580763775
 20
-34.13457581712102
 30
0.0
 11
36.84182580763773
 21
-34.13457581712102
 31
0.0
  0
LINE
  5
83
330
1F
100
AcDbEntity
  8
0
100
AcDbLine
 10
26.84182580763775
 20
-34.13457581712102
 30
0.0
 11
26.84182580763775
 21
-37.13457581712102
 31
0.0
  0
LINE
  5
84
330
1F
100
AcDbEntity
  8
0
100
AcDbLine
 10
20.84182580763776
 20
-37.13457581712102
 30
0.0
 11
26.84182580763775
 21
-37.13457581712102
 31
0.0
  0
LINE
  5
85
330
1F
100
AcDbEntity
  8
0
100
AcDbLine
 10
20.84182580763776
 20
-34.13457581712102
 30
0.0
 11
20.84182580763776
 21
-37.13457581712102
 31
0.0
  0
LINE
  5
86
330
1F
100
AcDbEntity
  8
0
100
AcDbLine
 10
10.8418258076376
 20
-34.13457581712102
 30
0.0
 11
20.84182580763776
 21
-34.13457581712102
 31
0.0
  0
LINE
  5
87
330
1F
100
AcDbEntity
  8
0
100
AcDbLine
 10
10.8418258076376
 20
-34.13457581712102
 30
0.0
 11
10.8418258076376
 21
-37.13457581712102
 31
0.0
  0
LINE
  5
88
330
1F
100
AcDbEntity
  8
0
100
AcDbLine
 10
4.841825807637613
 20
-37.13457581712102
 30
0.0
 11
10.8418258076376
 21
-37.13457581712102
 31
0.0
  0
LINE
  5
89
330
1F
100
AcDbEntity
  8
0
100
AcDbLine
 10
4.841825807637613
 20
-34.13457581712102
 30
0.0
 11
4.841825807637613
 21
-37.13457581712102
 31
0.0
  0
LINE
  5
8A
330
1F
100
AcDbEntity
  8
0
100
AcDbLine
 10
-11.15817419236236
 20
-37.13457581712102
 30
0.0
 11
-5.158174192362369
 21
-37.13457581712102
 31
0.0
  0
LINE
  5
8B
330
1F
100
AcDbEntity
  8
0
100
AcDbLine
 10
-11.15817419236236
 20
-34.13457581712102
 30
0.0
 11
-11.15817419236236
 21
-37.13457581712102
 31
0.0
  0
LINE
  5
8C
330
1F
100
AcDbEntity
  8
0
100
AcDbLine
 10
-21.15817419236234
 20
-34.13457581712102
 30
0.0
 11
-11.15817419236236
 21
-34.13457581712102
 31
0.0
  0
LINE
  5
8D
330
1F
100
AcDbEntity
  8
0
100
AcDbLine
 10
-21.15817419236234
 20
-34.13457581712102
 30
0.0
 11
-21.15817419236234
 21
-37.13457581712102
 31
0.0
  0
LINE
  5
8E
330
1F
100
AcDbEntity
  8
0
100
AcDbLine
 10
-27.15817419236233
 20
-37.13457581712102
 30
0.0
 11
-21.15817419236234
 21
-37.13457581712102
 31
0.0
  0
LINE
  5
8F
330
1F
100
AcDbEntity
  8
0
100
AcDbLine
 10
-27.15817419236233
 20
-34.13457581712102
 30
0.0
 11
-27.15817419236233
 21
-37.13457581712102
 31
0.0
  0
LINE
  5
90
330
1F
100
AcDbEntity
  8
0
100
AcDbLine
 10
-37.15817419236231
 20
-34.13457581712102
 30
0.0
 11
-27.15817419236233
 21
-34.13457581712102
 31
0.0
  0
LINE
  5
91
330
1F
100
AcDbEntity
  8
0
100
AcDbLine
 10
-37.15817419236231
 20
-34.13457581712102
 30
0.0
 11
-37.15817419236231
 21
-37.13457581712102
 31
0.0
  0
LINE
  5
92
330
1F
100
AcDbEntity
  8
0
100
AcDbLine
 10
-43.1581741923623
 20
-37.13457581712102
 30
0.0
 11
-37.15817419236231
 21
-37.13457581712102
 31
0.0
  0
LINE
  5
93
330
1F
100
AcDbEntity
  8
0
100
AcDbLine
 10
-43.1581741923623
 20
-34.13457581712102
 30
0.0
 11
-43.1581741923623
 21
-37.13457581712102
 31
0.0
  0
LINE
  5
94
330
1F
100
AcDbEntity
  8
0
100
AcDbLine
 10
52.8418258076377
 20
-24.31633384763919
 30
0.0
 11
55.8418258076377
 21
-24.31633384763919
 31
0.0
  0
LINE
  5
95
330
1F
100
AcDbEntity
  8
0
100
AcDbLine
 10
36.84182580763773
 20
-21.31633384763919
 30
0.0
 11
36.84182580763773
 21
-24.31633384763919
 31
0.0
  0
LINE
  5
96
330
1F
100
AcDbEntity
  8
0
100
AcDbLine
 10
-5.158174192362369
 20
-21.31633384763919
 30
0.0
 11
4.841825807637613
 21
-21.31633384763919
 31
0.0
  0
LINE
  5
97
330
1F
100
AcDbEntity
  8
0
100
AcDbLine
 10
-5.158174192362369
 20
-21.31633384763919
 30
0.0
 11
-5.158174192362369
 21
-24.31633384763919
 31
0.0
  0
LINE
  5
98
330
1F
100
AcDbEntity
  8
0
100
AcDbLine
 10
55.8418258076377
 20
-18.3163338476392
 30
0.0
 11
67.84182580763768
 21
-18.3163338476392
 31
0.0
  0
LINE
  5
99
330
1F
100
AcDbEntity
  8
0
100
AcDbLine
 10
-56.15817419236227
 20
-24.31633384763919
 30
0.0
 11
-56.15817419236227
 21
-18.3163338476392
 31
0.0
  0
LINE
  5
9A
330
1F
100
AcDbEntity
  8
0
100
AcDbLine
 10
-56.15817419236227
 20
-18.3163338476392
 30
0.0
 11
-68.15817419236225
 21
-18.3163338476392
 31
0.0
  0
LINE
  5
9B
330
1F
100
AcDbEntity
  8
0
100
AcDbLine
 10
-68.15817419236225
 20
-18.3163338476392
 30
0.0
 11
-68.15817419236225
 21
-15.3163338476392
 31
0.0
  0
LINE
  5
9C
330
1F
100
AcDbEntity
  8
0
100
AcDbLine
 10
42.84182580763773
 20
-21.31633384763919
 30
0.0
 11
42.84182580763773
 21
-24.31633384763919
 31
0.0
  0
LINE
  5
9D
330
1F
100
AcDbEntity
  8
0
100
AcDbLine
 10
52.8418258076377
 20
-24.31633384763919
 30
0.0
 11
52.8418258076377
 21
-21.31633384763919
 31
0.0
  0
LINE
  5
9E
330
1F
100
AcDbEntity
  8
0
100
AcDbLine
 10
-53.15817419236228
 20
-21.31633384763919
 30
0.0
 11
-43.1581741923623
 21
-21.31633384763919
 31
0.0
  0
LINE
  5
9F
330
1F
100
AcDbEntity
  8
0
100
AcDbLine
 10
-53.15817419236228
 20
-21.31633384763919
 30
0.0
 11
-53.15817419236228
 21
-24.31633384763919
 31
0.0
  0
LINE
  5
A0
330
1F
100
AcDbEntity
  8
0
100
AcDbLine
 10
-56.15817419236227
 20
-24.31633384763919
 30
0.0
 11
-53.15817419236228
 21
-24.31633384763919
 31
0.0
  0
LINE
  5
A1
330
1F
100
AcDbEntity
  8
0
100
AcDbLine
 10
-68.15817419236225
 20
-15.3163338476392
 30
0.0
 11
67.84182580763768
 21
-15.3163338476392
 31
0.0
  0
LINE
  5
A2
330
1F
100
AcDbEntity
  8
0
100
AcDbLine
 10
67.84182580763768
 20
-18.3163338476392
 30
0.0
 11
67.84182580763768
 21
-15.3163338476392
 31
0.0
  0
LINE
  5
A3
330
1F
100
AcDbEntity
  8
0
100
AcDbLine
 10
55.8418258076377
 20
-24.31633384763919
 30
0.0
 11
55.8418258076377
 21
-18.3163338476392
 31
0.0
  0
LINE
  5
A4
330
1F
100
AcDbEntity
  8
0
100
AcDbLine
 10
42.84182580763773
 20
-21.31633384763919
 30
0.0
 11
52.8418258076377
 21
-21.31633384763919
 31
0.0
  0
LINE
  5
A5
330
1F
100
AcDbEntity
  8
0
100
AcDbLine
 10
36.84182580763773
 20
-24.31633384763919
 30
0.0
 11
42.84182580763773
 21
-24.31633384763919
 31
0.0
  0
LINE
  5
A6
330
1F
100
AcDbEntity
  8
0
100
AcDbLine
 10
26.84182580763775
 20
-21.31633384763919
 30
0.0
 11
36.84182580763773
 21
-21.31633384763919
 31
0.0
  0
LINE
  5
A7
330
1F
100
AcDbEntity
  8
0
100
AcDbLine
 10
26.84182580763775
 20
-21.31633384763919
 30
0.0
 11
26.84182580763775
 21
-24.31633384763919
 31
0.0
  0
LINE
  5
A8
330
1F
100
AcDbEntity
  8
0
100
AcDbLine
 10
20.84182580763776
 20
-24.31633384763919
 30
0.0
 11
26.84182580763775
 21
-24.31633384763919
 31
0.0
  0
LINE
  5
A9
330
1F
100
AcDbEntity
  8
0
100
AcDbLine
 10
20.84182580763776
 20
-21.31633384763919
 30
0.0
 11
20.84182580763776
 21
-24.31633384763919
 31
0.0
  0
LINE
  5
AA
330
1F
100
AcDbEntity
  8
0
100
AcDbLine
 10
10.8418258076376
 20
-21.31633384763919
 30
0.0
 11
20.84182580763776
 21
-21.31633384763919
 31
0.0
  0
LINE
  5
AB
330
1F
100
AcDbEntity
  8
0
100
AcDbLine
 10
10.8418258076376
 20
-21.31633384763919
 30
0.0
 11
10.8418258076376
 21
-24.31633384763919
 31
0.0
  0
LINE
  5
AC
330
1F
100
AcDbEntity
  8
0
100
AcDbLine
 10
4.841825807637613
 20
-24.31633384763919
 30
0.0
 11
10.8418258076376
 21
-24.31633384763919
 31
0.0
  0
LINE
  5
AD
330
1F
100
AcDbEntity
  8
0
100
AcDbLine
 10
4.841825807637613
 20
-21.31633384763919
 30
0.0
 11
4.841825807637613
 21
-24.31633384763919
 31
0.0
  0
LINE
  5
AE
330
1F
100
AcDbEntity
  8
0
100
AcDbLine
 10
-11.15817419236236
 20
-24.31633384763919
 30
0.0
 11
-5.158174192362369
 21
-24.31633384763919
 31
0.0
  0
LINE
  5
AF
330
1F
100
AcDbEntity
  8
0
100
AcDbLine
 10
-11.15817419236236
 20
-21.31633384763919
 30
0.0
 11
-11.15817419236236
 21
-24.31633384763919
 31
0.0
  0
LINE
  5
B0
330
1F
100
AcDbEntity
  8
0
100
AcDbLine
 10
-21.15817419236234
 20
-21.31633384763919
 30
0.0
 11
-11.15817419236236
 21
-21.31633384763919
 31
0.0
  0
LINE
  5
B1
330
1F
100
AcDbEntity
  8
0
100
AcDbLine
 10
-21.15817419236234
 20
-21.31633384763919
 30
0.0
 11
-21.15817419236234
 21
-24.31633384763919
 31
0.0
  0
LINE
  5
B2
330
1F
100
AcDbEntity
  8
0
100
AcDbLine
 10
-27.15817419236233
 20
-24.31633384763919
 30
0.0
 11
-21.15817419236234
 21
-24.31633384763919
 31
0.0
  0
LINE
  5
B3
330
1F
100
AcDbEntity
  8
0
100
AcDbLine
 10
-27.15817419236233
 20
-21.31633384763919
 30
0.0
 11
-27.15817419236233
 21
-24.31633384763919
 31
0.0
  0
LINE
  5
B4
330
1F
100
AcDbEntity
  8
0
100
AcDbLine
 10
-37.15817419236231
 20
-21.31633384763919
 30
0.0
 11
-27.15817419236233
 21
-21.31633384763919
 31
0.0
  0
LINE
  5
B5
330
1F
100
AcDbEntity
  8
0
100
AcDbLine
 10
-37.15817419236231
 20
-21.31633384763919
 30
0.0
 11
-37.15817419236231
 21
-24.31633384763919
 31
0.0
  0
LINE
  5
B6
330
1F
100
AcDbEntity
  8
0
100
AcDbLine
 10
-43.1581741923623
 20
-24.31633384763919
 30
0.0
 11
-37.15817419236231
 21
-24.31633384763919
 31
0.0
  0
LINE
  5
B7
330
1F
100
AcDbEntity
  8
0
100
AcDbLine
 10
-43.1581741923623
 20
-21.31633384763919
 30
0.0
 11
-43.1581741923623
 21
-24.31633384763919
 31
0.0
  0
LINE
  5
B8
330
1F
100
AcDbEntity
  8
0
100
AcDbLine
 10
52.8418258076377
 20
-11.96476888928304
 30
0.0
 11
55.8418258076377
 21
-11.96476888928304
 31
0.0
  0
LINE
  5
B9
330
1F
100
AcDbEntity
  8
0
100
AcDbLine
 10
36.84182580763773
 20
-8.964768889283041
 30
0.0
 11
36.84182580763773
 21
-11.96476888928304
 31
0.0
  0
LINE
  5
BA
330
1F
100
AcDbEntity
  8
0
100
AcDbLine
 10
-5.158174192362369
 20
-8.964768889283041
 30
0.0
 11
4.841825807637613
 21
-8.964768889283041
 31
0.0
  0
LINE
  5
BB
330
1F
100
AcDbEntity
  8
0
100
AcDbLine
 10
-5.158174192362369
 20
-8.964768889283041
 30
0.0
 11
-5.158174192362369
 21
-11.96476888928304
 31
0.0
  0
LINE
  5
BC
330
1F
100
AcDbEntity
  8
0
100
AcDbLine
 10
55.8418258076377
 20
-5.964768889283047
 30
0.0
 11
67.84182580763768
 21
-5.964768889283047
 31
0.0
  0
LINE
  5
BD
330
1F
100
AcDbEntity
  8
0
100
AcDbLine
 10
-56.15817419236227
 20
-11.96476888928304
 30
0.0
 11
-56.15817419236227
 21
-5.964768889283047
 31
0.0
  0
LINE
  5
BE
330
1F
100
AcDbEntity
  8
0
100
AcDbLine
 10
-56.15817419236227
 20
-5.964768889283047
 30
0.0
 11
-68.15817419236225
 21
-5.964768889283047
 31
0.0
  0
LINE
  5
BF
330
1F
100
AcDbEntity
  8
0
100
AcDbLine
 10
-68.15817419236225
 20
-5.964768889283047
 30
0.0
 11
-68.15817419236225
 21
-2.964768889283052
 31
0.0
  0
LINE
  5
C0
330
1F
100
AcDbEntity
  8
0
100
AcDbLine
 10
42.84182580763773
 20
-8.964768889283041
 30
0.0
 11
42.84182580763773
 21
-11.96476888928304
 31
0.0
  0
LINE
  5
C1
330
1F
100
AcDbEntity
  8
0
100
AcDbLine
 10
52.8418258076377
 20
-11.96476888928304
 30
0.0
 11
52.8418258076377
 21
-8.964768889283041
 31
0.0
  0
LINE
  5
C2
330
1F
100
AcDbEntity
  8
0
100
AcDbLine
 10
-53.15817419236228
 20
-8.964768889283041
 30
0.0
 11
-43.1581741923623
 21
-8.964768889283041
 31
0.0
  0
LINE
  5
C3
330
1F
100
AcDbEntity
  8
0
100
AcDbLine
 10
-53.15817419236228
 20
-8.964768889283041
 30
0.0
 11
-53.15817419236228
 21
-11.96476888928304
 31
0.0
  0
LINE
  5
C4
330
1F
100
AcDbEntity
  8
0
100
AcDbLine
 10
-56.15817419236227
 20
-11.96476888928304
 30
0.0
 11
-53.15817419236228
 21
-11.96476888928304
 31
0.0
  0
LINE
  5
C5
330
1F
100
AcDbEntity
  8
0
100
AcDbLine
 10
-68.15817419236225
 20
-2.964768889283052
 30
0.0
 11
67.84182580763768
 21
-2.964768889283052
 31
0.0
  0
LINE
  5
C6
330
1F
100
AcDbEntity
  8
0
100
AcDbLine
 10
67.84182580763768
 20
-5.964768889283047
 30
0.0
 11
67.84182580763768
 21
-2.964768889283052
 31
0.0
  0
LINE
  5
C7
330
1F
100
AcDbEntity
  8
0
100
AcDbLine
 10
55.8418258076377
 20
-11.96476888928304
 30
0.0
 11
55.8418258076377
 21
-5.964768889283047
 31
0.0
  0
LINE
  5
C8
330
1F
100
AcDbEntity
  8
0
100
AcDbLine
 10
42.84182580763773
 20
-8.964768889283041
 30
0.0
 11
52.8418258076377
 21
-8.964768889283041
 31
0.0
  0
LINE
  5
C9
330
1F
100
AcDbEntity
  8
0
100
AcDbLine
 10
36.84182580763773
 20
-11.96476888928304
 30
0.0
 11
42.84182580763773
 21
-11.96476888928304
 31
0.0
  0
LINE
  5
CA
330
1F
100
AcDbEntity
  8
0
100
AcDbLine
 10
26.84182580763775
 20
-8.964768889283041
 30
0.0
 11
36.84182580763773
 21
-8.964768889283041
 31
0.0
  0
LINE
  5
CB
330
1F
100
AcDbEntity
  8
0
100
AcDbLine
 10
26.84182580763775
 20
-8.964768889283041
 30
0.0
 11
26.84182580763775
 21
-11.96476888928304
 31
0.0
  0
LINE
  5
CC
330
1F
100
AcDbEntity
  8
0
100
AcDbLine
 10
20.84182580763776
 20
-11.96476888928304
 30
0.0
 11
26.84182580763775
 21
-11.96476888928304
 31
0.0
  0
LINE
  5
CD
330
1F
100
AcDbEntity
  8
0
100
AcDbLine
 10
20.84182580763776
 20
-8.964768889283041
 30
0.0
 11
20.84182580763776
 21
-11.96476888928304
 31
0.0
  0
LINE
  5
CE
330
1F
100
AcDbEntity
  8
0
100
AcDbLine
 10
10.8418258076376
 20
-8.964768889283041
 30
0.0
 11
20.84182580763776
 21
-8.964768889283041
 31
0.0
  0
LINE
  5
CF
330
1F
100
AcDbEntity
  8
0
100
AcDbLine
 10
10.8418258076376
 20
-8.964768889283041
 30
0.0
 11
10.8418258076376
 21
-11.96476888928304
 31
0.0
  0
LINE
  5
D0
330
1F
100
AcDbEntity
  8
0
100
AcDbLine
 10
4.841825807637613
 20
-11.96476888928304
 30
0.0
 11
10.8418258076376
 21
-11.96476888928304
 31
0.0
  0
LINE
  5
D1
330
1F
100
AcDbEntity
  8
0
100
AcDbLine
 10
4.841825807637613
 20
-8.964768889283041
 30
0.0
 11
4.841825807637613
 21
-11.96476888928304
 31
0.0
  0
LINE
  5
D2
330
1F
100
AcDbEntity
  8
0
100
AcDbLine
 10
-11.15817419236236
 20
-11.96476888928304
 30
0.0
 11
-5.158174192362369
 21
-11.96476888928304
 31
0.0
  0
LINE
  5
D3
330
1F
100
AcDbEntity
  8
0
100
AcDbLine
 10
-11.15817419236236
 20
-8.964768889283041
 30
0.0
 11
-11.15817419236236
 21
-11.96476888928304
 31
0.0
  0
LINE
  5
D4
330
1F
100
AcDbEntity
  8
0
100
AcDbLine
 10
-21.15817419236234
 20
-8.964768889283041
 30
0.0
 11
-11.15817419236236
 21
-8.964768889283041
 31
0.0
  0
LINE
  5
D5
330
1F
100
AcDbEntity
  8
0
100
AcDbLine
 10
-21.15817419236234
 20
-8.964768889283041
 30
0.0
 11
-21.15817419236234
 21
-11.96476888928304
 31
0.0
  0
LINE
  5
D6
330
1F
100
AcDbEntity
  8
0
100
AcDbLine
 10
-27.15817419236233
 20
-11.96476888928304
 30
0.0
 11
-21.15817419236234
 21
-11.96476888928304
 31
0.0
  0
LINE
  5
D7
330
1F
100
AcDbEntity
  8
0
100
AcDbLine
 10
-27.15817419236233
 20
-8.964768889283041
 30
0.0
 11
-27.15817419236233
 21
-11.96476888928304
 31
0.0
  0
LINE
  5
D8
330
1F
100
AcDbEntity
  8
0
100
AcDbLine
 10
-37.15817419236231
 20
-8.964768889283041
 30
0.0
 11
-27.15817419236233
 21
-8.964768889283041
 31
0.0
  0
LINE
  5
D9
330
1F
100
AcDbEntity
  8
0
100
AcDbLine
 10
-37.15817419236231
 20
-8.964768889283041
 30
0.0
 11
-37.15817419236231
 21
-11.96476888928304
 31
0.0
  0
LINE
  5
DA
330
1F
100
AcDbEntity
  8
0
100
AcDbLine
 10
-43.1581741923623
 20
-11.96476888928304
 30
0.0
 11
-37.15817419236231
 21
-11.96476888928304
 31
0.0
  0
LINE
  5
DB
330
1F
100
AcDbEntity
  8
0
100
AcDbLine
 10
-43.1581741923623
 20
-8.964768889283041
 30
0.0
 11
-43.1581741923623
 21
-11.96476888928304
 31
0.0
  0
LINE
  5
DC
330
1F
100
AcDbEntity
  8
0
100
AcDbLine
 10
52.8418258076377
 20
27.13457581712103
 30
0.0
 11
55.8418258076377
 21
27.13457581712103
 31
0.0
  0
LINE
  5
DD
330
1F
100
AcDbEntity
  8
0
100
AcDbLine
 10
36.84182580763773
 20
30.13457581712102
 30
0.0
 11
36.84182580763773
 21
27.13457581712103
 31
0.0
  0
LINE
  5
DE
330
1F
100
AcDbEntity
  8
0
100
AcDbLine
 10
-5.158174192362369
 20
30.13457581712102
 30
0.0
 11
4.841825807637613
 21
30.13457581712102
 31
0.0
  0
LINE
  5
DF
330
1F
100
AcDbEntity
  8
0
100
AcDbLine
 10
-5.158174192362369
 20
30.13457581712102
 30
0.0
 11
-5.158174192362369
 21
27.13457581712103
 31
0.0
  0
LINE
  5
E0
330
1F
100
AcDbEntity
  8
0
100
AcDbLine
 10
55.8418258076377
 20
33.13457581712102
 30
0.0
 11
68.84182580763772
 21
33.13457581712102
 31
0.0
  0
LINE
  5
E1
330
1F
100
AcDbEntity
  8
0
100
AcDbLine
 10
-56.15817419236227
 20
27.13457581712103
 30
0.0
 11
-56.15817419236227
 21
33.13457581712102
 31
0.0
  0
LINE
  5
E2
330
1F
100
AcDbEntity
  8
0
100
AcDbLine
 10
-56.15817419236227
 20
33.13457581712102
 30
0.0
 11
-69.15817419236225
 21
33.13457581712102
 31
0.0
  0
LINE
  5
E3
330
1F
100
AcDbEntity
  8
0
100
AcDbLine
 10
42.84182580763773
 20
30.13457581712102
 30
0.0
 11
42.84182580763773
 21
27.13457581712103
 31
0.0
  0
LINE
  5
E4
330
1F
100
AcDbEntity
  8
0
100
AcDbLine
 10
52.8418258076377
 20
27.13457581712103
 30
0.0
 11
52.8418258076377
 21
30.13457581712102
 31
0.0
  0
LINE
  5
E5
330
1F
100
AcDbEntity
  8
0
100
AcDbLine
 10
-53.15817419236228
 20
30.13457581712102
 30
0.0
 11
-43.1581741923623
 21
30.13457581712102
 31
0.0
  0
LINE
  5
E6
330
1F
100
AcDbEntity
  8
0
100
AcDbLine
 10
-53.15817419236228
 20
30.13457581712102
 30
0.0
 11
-53.15817419236228
 21
27.13457581712103
 31
0.0
  0
LINE
  5
E7
330
1F
100
AcDbEntity
  8
0
100
AcDbLine
 10
-56.15817419236227
 20
27.13457581712103
 30
0.0
 11
-53.15817419236228
 21
27.13457581712103
 31
0.0
  0
LINE
  5
E8
330
1F
100
AcDbEntity
  8
0
100
AcDbLine
 10
55.8418258076377
 20
27.13457581712103
 30
0.0
 11
55.8418258076377
 21
33.13457581712102
 31
0.0
  0
LINE
  5
E9
330
1F
100
AcDbEntity
  8
0
100
AcDbLine
 10
42.84182580763773
 20
30.13457581712102
 30
0.0
 11
52.8418258076377
 21
30.13457581712102
 31
0.0
  0
LINE
  5
EA
330
1F
100
AcDbEntity
  8
0
100
AcDbLine
 10
36.84182580763773
 20
27.13457581712103
 30
0.0
 11
42.84182580763773
 21
27.13457581712103
 31
0.0
  0
LINE
  5
EB
330
1F
100
AcDbEntity
  8
0
100
AcDbLine
 10
26.84182580763775
 20
30.13457581712102
 30
0.0
 11
36.84182580763773
 21
30.13457581712102
 31
0.0
  0
LINE
  5
EC
330
1F
100
AcDbEntity
  8
0
100
AcDbLine
 10
26.84182580763775
 20
30.13457581712102
 30
0.0
 11
26.84182580763775
 21
27.13457581712103
 31
0.0
  0
LINE
  5
ED
330
1F
100
AcDbEntity
  8
0
100
AcDbLine
 10
20.84182580763776
 20
27.13457581712103
 30
0.0
 11
26.84182580763775
 21
27.13457581712103
 31
0.0
  0
LINE
  5
EE
330
1F
100
AcDbEntity
  8
0
100
AcDbLine
 10
20.84182580763776
 20
30.13457581712102
 30
0.0
 11
20.84182580763776
 21
27.13457581712103
 31
0.0
  0
LINE
  5
EF
330
1F
100
AcDbEntity
  8
0
100
AcDbLine
 10
10.8418258076376
 20
30.13457581712102
 30
0.0
 11
20.84182580763776
 21
30.13457581712102
 31
0.0
  0
LINE
  5
F0
330
1F
100
AcDbEntity
  8
0
100
AcDbLine
 10
10.8418258076376
 20
30.13457581712102
 30
0.0
 11
10.8418258076376
 21
27.13457581712103
 31
0.0
  0
LINE
  5
F1
330
1F
100
AcDbEntity
  8
0
100
AcDbLine
 10
4.841825807637613
 20
27.13457581712103
 30
0.0
 11
10.8418258076376
 21
27.13457581712103
 31
0.0
  0
LINE
  5
F2
330
1F
100
AcDbEntity
  8
0
100
AcDbLine
 10
4.841825807637613
 20
30.13457581712102
 30
0.0
 11
4.841825807637613
 21
27.13457581712103
 31
0.0
  0
LINE
  5
F3
330
1F
100
AcDbEntity
  8
0
100
AcDbLine
 10
-11.15817419236236
 20
27.13457581712103
 30
0.0
 11
-5.158174192362369
 21
27.13457581712103
 31
0.0
  0
LINE
  5
F4
330
1F
100
AcDbEntity
  8
0
100
AcDbLine
 10
-11.15817419236236
 20
30.13457581712102
 30
0.0
 11
-11.15817419236236
 21
27.13457581712103
 31
0.0
  0
LINE
  5
F5
330
1F
100
AcDbEntity
  8
0
100
AcDbLine
 10
-21.15817419236234
 20
30.13457581712102
 30
0.0
 11
-11.15817419236236
 21
30.13457581712102
 31
0.0
  0
LINE
  5
F6
330
1F
100
AcDbEntity
  8
0
100
AcDbLine
 10
-21.15817419236234
 20
30.13457581712102
 30
0.0
 11
-21.15817419236234
 21
27.13457581712103
 31
0.0
  0
LINE
  5
F7
330
1F
100
AcDbEntity
  8
0
100
AcDbLine
 10
-27.15817419236233
 20
27.13457581712103
 30
0.0
 11
-21.15817419236234
 21
27.13457581712103
 31
0.0
  0
LINE
  5
F8
330
1F
100
AcDbEntity
  8
0
100
AcDbLine
 10
-27.15817419236233
 20
30.13457581712102
 30
0.0
 11
-27.15817419236233
 21
27.13457581712103
 31
0.0
  0
LINE
  5
F9
330
1F
100
AcDbEntity
  8
0
100
AcDbLine
 10
-37.15817419236231
 20
30.13457581712102
 30
0.0
 11
-27.15817419236233
 21
30.13457581712102
 31
0.0
  0
LINE
  5
FA
330
1F
100
AcDbEntity
  8
0
100
AcDbLine
 10
-37.15817419236231
 20
30.13457581712102
 30
0.0
 11
-37.15817419236231
 21
27.13457581712103
 31
0.0
  0
LINE
  5
FB
330
1F
100
AcDbEntity
  8
0
100
AcDbLine
 10
-43.1581741923623
 20
27.13457581712103
 30
0.0
 11
-37.15817419236231
 21
27.13457581712103
 31
0.0
  0
LINE
  5
FC
330
1F
100
AcDbEntity
  8
0
100
AcDbLine
 10
-43.1581741923623
 20
30.13457581712102
 30
0.0
 11
-43.1581741923623
 21
27.13457581712103
 31
0.0
  0
LINE
  5
FD
330
1F
100
AcDbEntity
  8
0
100
AcDbLine
 10
-69.15817419236225
 20
33.13457581712102
 30
0.0
 11
-69.15817419236225
 21
37.13457581712102
 31
0.0
  0
LINE
  5
FE
330
1F
100
AcDbEntity
  8
0
100
AcDbLine
 10
-69.15817419236225
 20
37.13457581712102
 30
0.0
 11
68.84182580763772
 21
37.13457581712102
 31
0.0
  0
LINE
  5
FF
330
1F
100
AcDbEntity
  8
0
100
AcDbLine
 10
68.84182580763772
 20
37.13457581712102
 30
0.0
 11
68.84182580763772
 21
33.13457581712102
 31
0.0
  0
LINE
  5
100
330
1F
100
AcDbEntity
  8
0
100
AcDbLine
 10
53.02862109790932
 20
12.45845523925776
 30
0.0
 11
56.02862109790931
 21
12.45845523925776
 31
0.0
  0
LINE
  5
101
330
1F
100
AcDbEntity
  8
0
100
AcDbLine
 10
37.02862109790934
 20
15.45845523925775
 30
0.0
 11
37.02862109790934
 21
12.45845523925776
 31
0.0
  0
LINE
  5
102
330
1F
100
AcDbEntity
  8
0
100
AcDbLine
 10
-4.971378902090762
 20
15.45845523925775
 30
0.0
 11
5.028621097909221
 21
15.45845523925775
 31
0.0
  0
LINE
  5
103
330
1F
100
AcDbEntity
  8
0
100
AcDbLine
 10
-4.971378902090762
 20
15.45845523925775
 30
0.0
 11
-4.971378902090762
 21
12.45845523925776
 31
0.0
  0
LINE
  5
104
330
1F
100
AcDbEntity
  8
0
100
AcDbLine
 10
56.02862109790931
 20
18.45845523925775
 30
0.0
 11
69.02862109790932
 21
18.45845523925775
 31
0.0
  0
LINE
  5
105
330
1F
100
AcDbEntity
  8
0
100
AcDbLine
 10
-55.97137890209067
 20
12.45845523925776
 30
0.0
 11
-55.97137890209067
 21
18.45845523925775
 31
0.0
  0
LINE
  5
106
330
1F
100
AcDbEntity
  8
0
100
AcDbLine
 10
-55.97137890209067
 20
18.45845523925775
 30
0.0
 11
-68.97137890209065
 21
18.45845523925775
 31
0.0
  0
LINE
  5
107
330
1F
100
AcDbEntity
  8
0
100
AcDbLine
 10
43.02862109790933
 20
15.45845523925775
 30
0.0
 11
43.02862109790933
 21
12.45845523925776
 31
0.0
  0
LINE
  5
108
330
1F
100
AcDbEntity
  8
0
100
AcDbLine
 10
53.02862109790932
 20
12.45845523925776
 30
0.0
 11
53.02862109790932
 21
15.45845523925775
 31
0.0
  0
LINE
  5
109
330
1F
100
AcDbEntity
  8
0
100
AcDbLine
 10
-52.97137890209067
 20
15.45845523925775
 30
0.0
 11
-42.97137890209069
 21
15.45845523925775
 31
0.0
  0
LINE
  5
10A
330
1F
100
AcDbEntity
  8
0
100
AcDbLine
 10
-52.97137890209067
 20
15.45845523925775
 30
0.0
 11
-52.97137890209067
 21
12.45845523925776
 31
0.0
  0
LINE
  5
10B
330
1F
100
AcDbEntity
  8
0
100
AcDbLine
 10
-55.97137890209067
 20
12.45845523925776
 30
0.0
 11
-52.97137890209067
 21
12.45845523925776
 31
0.0
  0
LINE
  5
10C
330
1F
100
AcDbEntity
  8
0
100
AcDbLine
 10
56.02862109790931
 20
12.45845523925776
 30
0.0
 11
56.02862109790931
 21
18.45845523925775
 31
0.0
  0
LINE
  5
10D
330
1F
100
AcDbEntity
  8
0
100
AcDbLine
 10
43.02862109790933
 20
15.45845523925775
 30
0.0
 11
53.02862109790932
 21
15.45845523925775
 31
0.0
  0
LINE
  5
10E
330
1F
100
AcDbEntity
  8
0
100
AcDbLine
 10
37.02862109790934
 20
12.45845523925776
 30
0.0
 11
43.02862109790933
 21
12.45845523925776
 31
0.0
  0
LINE
  5
10F
330
1F
100
AcDbEntity
  8
0
100
AcDbLine
 10
27.02862109790936
 20
15.45845523925775
 30
0.0
 11
37.02862109790934
 21
15.45845523925775
 31
0.0
  0
LINE
  5
110
330
1F
100
AcDbEntity
  8
0
100
AcDbLine
 10
27.02862109790936
 20
15.45845523925775
 30
0.0
 11
27.02862109790936
 21
12.45845523925776
 31
0.0
  0
LINE
  5
111
330
1F
100
AcDbEntity
  8
0
100
AcDbLine
 10
21.02862109790937
 20
12.45845523925776
 30
0.0
 11
27.02862109790936
 21
12.45845523925776
 31
0.0
  0
LINE
  5
112
330
1F
100
AcDbEntity
  8
0
100
AcDbLine
 10
21.02862109790937
 20
15.45845523925775
 30
0.0
 11
21.02862109790937
 21
12.45845523925776
 31
0.0
  0
LINE
  5
113
330
1F
100
AcDbEntity
  8
0
100
AcDbLine
 10
11.02862109790921
 20
15.45845523925775
 30
0.0
 11
21.02862109790937
 21
15.45845523925775
 31
0.0
  0
LINE
  5
114
330
1F
100
AcDbEntity
  8
0
100
AcDbLine
 10
11.02862109790921
 20
15.45845523925775
 30
0.0
 11
11.02862109790921
 21
12.45845523925776
 31
0.0
  0
LINE
  5
115
330
1F
100
AcDbEntity
  8
0
100
AcDbLine
 10
5.028621097909221
 20
12.45845523925776
 30
0.0
 11
11.02862109790921
 21
12.45845523925776
 31
0.0
  0
LINE
  5
116
330
1F
100
AcDbEntity
  8
0
100
AcDbLine
 10
5.028621097909221
 20
15.45845523925775
 30
0.0
 11
5.028621097909221
 21
12.45845523925776
 31
0.0
  0
LINE
  5
117
330
1F
100
AcDbEntity
  8
0
100
AcDbLine
 10
-10.97137890209075
 20
12.45845523925776
 30
0.0
 11
-4.971378902090762
 21
12.45845523925776
 31
0.0
  0
LINE
  5
118
330
1F
100
AcDbEntity
  8
0
100
AcDbLine
 10
-10.97137890209075
 20
15.45845523925775
 30
0.0
 11
-10.97137890209075
 21
12.45845523925776
 31
0.0
  0
LINE
  5
119
330
1F
100
AcDbEntity
  8
0
100
AcDbLine
 10
-20.97137890209073
 20
15.45845523925775
 30
0.0
 11
-10.97137890209075
 21
15.45845523925775
 31
0.0
  0
LINE
  5
11A
330
1F
100
AcDbEntity
  8
0
100
AcDbLine
 10
-20.97137890209073
 20
15.45845523925775
 30
0.0
 11
-20.97137890209073
 21
12.45845523925776
 31
0.0
  0
LINE
  5
11B
330
1F
100
AcDbEntity
  8
0
100
AcDbLine
 10
-26.97137890209072
 20
12.45845523925776
 30
0.0
 11
-20.97137890209073
 21
12.45845523925776
 31
0.0
  0
LINE
  5
11C
330
1F
100
AcDbEntity
  8
0
100
AcDbLine
 10
-26.97137890209072
 20
15.45845523925775
 30
0.0
 11
-26.97137890209072
 21
12.45845523925776
 31
0.0
  0
LINE
  5
11D
330
1F
100
AcDbEntity
  8
0
100
AcDbLine
 10
-36.97137890209071
 20
15.45845523925775
 30
0.0
 11
-26.97137890209072
 21
15.45845523925775
 31
0.0
  0
LINE
  5
11E
330
1F
100
AcDbEntity
  8
0
100
AcDbLine
 10
-36.97137890209071
 20
15.45845523925775
 30
0.0
 11
-36.97137890209071
 21
12.45845523925776
 31
0.0
  0
LINE
  5
11F
330
1F
100
AcDbEntity
  8
0
100
AcDbLine
 10
-42.97137890209069
 20
12.45845523925776
 30
0.0
 11
-36.97137890209071
 21
12.45845523925776
 31
0.0
  0
LINE
  5
120
330
1F
100
AcDbEntity
  8
0
100
AcDbLine
 10
-42.97137890209069
 20
15.45845523925775
 30
0.0
 11
-42.97137890209069
 21
12.45845523925776
 31
0.0
  0
LINE
  5
121
330
1F
100
AcDbEntity
  8
0
100
AcDbLine
 10
-68.97137890209065
 20
18.45845523925775
 30
0.0
 11
-68.97137890209065
 21
22.45845523925775
 31
0.0
  0
LINE
  5
122
330
1F
100
AcDbEntity
  8
0
100
AcDbLine
 10
-68.97137890209065
 20
22.45845523925775
 30
0.0
 11
69.02862109790932
 21
22.45845523925775
 31
0.0
  0
LINE
  5
123
330
1F
100
AcDbEntity
  8
0
100
AcDbLine
 10
69.02862109790932
 20
22.45845523925775
 30
0.0
 11
69.02862109790932
 21
18.45845523925775
 31
0.0
  0
LINE
  5
124
330
1F
100
AcDbEntity
  8
0
100
AcDbLine
 10
53.15817419236224
 20
-0.7981475711206459
 30
0.0
 11
56.15817419236223
 21
-0.7981475711206459
 31
0.0
  0
LINE
  5
125
330
1F
100
AcDbEntity
  8
0
100
AcDbLine
 10
37.15817419236227
 20
2.201852428879349
 30
0.0
 11
37.15817419236227
 21
-0.7981475711206459
 31
0.0
  0
LINE
  5
126
330
1F
100
AcDbEntity
  8
0
100
AcDbLine
 10
-4.841825807637838
 20
2.201852428879349
 30
0.0
 11
5.158174192362143
 21
2.201852428879349
 31
0.0
  0
LINE
  5
127
330
1F
100
AcDbEntity
  8
0
100
AcDbLine
 10
-4.841825807637838
 20
2.201852428879349
 30
0.0
 11
-4.841825807637838
 21
-0.7981475711206459
 31
0.0
  0
LINE
  5
128
330
1F
100
AcDbEntity
  8
0
100
AcDbLine
 10
56.15817419236223
 20
5.201852428879343
 30
0.0
 11
69.15817419236225
 21
5.201852428879343
 31
0.0
  0
LINE
  5
129
330
1F
100
AcDbEntity
  8
0
100
AcDbLine
 10
-55.84182580763775
 20
-0.7981475711206459
 30
0.0
 11
-55.84182580763775
 21
5.201852428879343
 31
0.0
  0
LINE
  5
12A
330
1F
100
AcDbEntity
  8
0
100
AcDbLine
 10
-55.84182580763775
 20
5.201852428879343
 30
0.0
 11
-68.84182580763772
 21
5.201852428879343
 31
0.0
  0
LINE
  5
12B
330
1F
100
AcDbEntity
  8
0
100
AcDbLine
 10
43.15817419236225
 20
2.201852428879349
 30
0.0
 11
43.15817419236225
 21
-0.7981475711206459
 31
0.0
  0
LINE
  5
12C
330
1F
100
AcDbEntity
  8
0
100
AcDbLine
 10
53.15817419236224
 20
-0.7981475711206459
 30
0.0
 11
53.15817419236224
 21
2.201852428879349
 31
0.0
  0
LINE
  5
12D
330
1F
100
AcDbEntity
  8
0
100
AcDbLine
 10
-52.84182580763775
 20
2.201852428879349
 30
0.0
 11
-42.84182580763777
 21
2.201852428879349
 31
0.0
  0
LINE
  5
12E
330
1F
100
AcDbEntity
  8
0
100
AcDbLine
 10
-52.84182580763775
 20
2.201852428879349
 30
0.0
 11
-52.84182580763775
 21
-0.7981475711206459
 31
0.0
  0
LINE
  5
12F
330
1F
100
AcDbEntity
  8
0
100
AcDbLine
 10
-55.84182580763775
 20
-0.7981475711206459
 30
0.0
 11
-52.84182580763775
 21
-0.7981475711206459
 31
0.0
  0
LINE
  5
130
330
1F
100
AcDbEntity
  8
0
100
AcDbLine
 10
56.15817419236223
 20
-0.7981475711206459
 30
0.0
 11
56.15817419236223
 21
5.201852428879343
 31
0.0
  0
LINE
  5
131
330
1F
100
AcDbEntity
  8
0
100
AcDbLine
 10
43.15817419236225
 20
2.201852428879349
 30
0.0
 11
53.15817419236224
 21
2.201852428879349
 31
0.0
  0
LINE
  5
132
330
1F
100
AcDbEntity
  8
0
100
AcDbLine
 10
37.15817419236227
 20
-0.7981475711206459
 30
0.0
 11
43.15817419236225
 21
-0.7981475711206459
 31
0.0
  0
LINE
  5
133
330
1F
100
AcDbEntity
  8
0
100
AcDbLine
 10
27.15817419236229
 20
2.201852428879349
 30
0.0
 11
37.15817419236227
 21
2.201852428879349
 31
0.0
  0
LINE
  5
134
330
1F
100
AcDbEntity
  8
0
100
AcDbLine
 10
27.15817419236229
 20
2.201852428879349
 30
0.0
 11
27.15817419236229
 21
-0.7981475711206459
 31
0.0
  0
LINE
  5
135
330
1F
100
AcDbEntity
  8
0
100
AcDbLine
 10
21.1581741923623
 20
-0.7981475711206459
 30
0.0
 11
27.15817419236229
 21
-0.7981475711206459
 31
0.0
  0
LINE
  5
136
330
1F
100
AcDbEntity
  8
0
100
AcDbLine
 10
21.1581741923623
 20
2.201852428879349
 30
0.0
 11
21.1581741923623
 21
-0.7981475711206459
 31
0.0
  0
LINE
  5
137
330
1F
100
AcDbEntity
  8
0
100
AcDbLine
 10
11.15817419236213
 20
2.201852428879349
 30
0.0
 11
21.1581741923623
 21
2.201852428879349
 31
0.0
  0
LINE
  5
138
330
1F
100
AcDbEntity
  8
0
100
AcDbLine
 10
11.15817419236213
 20
2.201852428879349
 30
0.0
 11
11.15817419236213
 21
-0.7981475711206459
 31
0.0
  0
LINE
  5
139
330
1F
100
AcDbEntity
  8
0
100
AcDbLine
 10
5.158174192362143
 20
-0.7981475711206459
 30
0.0
 11
11.15817419236213
 21
-0.7981475711206459
 31
0.0
  0
LINE
  5
13A
330
1F
100
AcDbEntity
  8
0
100
AcDbLine
 10
5.158174192362143
 20
2.201852428879349
 30
0.0
 11
5.158174192362143
 21
-0.7981475711206459
 31
0.0
  0
LINE
  5
13B
330
1F
100
AcDbEntity
  8
0
100
AcDbLine
 10
-10.84182580763783
 20
-0.7981475711206459
 30
0.0
 11
-4.841825807637838
 21
-0.7981475711206459
 31
0.0
  0
LINE
  5
13C
330
1F
100
AcDbEntity
  8
0
100
AcDbLine
 10
-10.84182580763783
 20
2.201852428879349
 30
0.0
 11
-10.84182580763783
 21
-0.7981475711206459
 31
0.0
  0
LINE
  5
13D
330
1F
100
AcDbEntity
  8
0
100
AcDbLine
 10
-20.84182580763781
 20
2.201852428879349
 30
0.0
 11
-10.84182580763783
 21
2.201852428879349
 31
0.0
  0
LINE
  5
13E
330
1F
100
AcDbEntity
  8
0
100
AcDbLine
 10
-20.84182580763781
 20
2.201852428879349
 30
0.0
 11
-20.84182580763781
 21
-0.7981475711206459
 31
0.0
  0
LINE
  5
13F
330
1F
100
AcDbEntity
  8
0
100
AcDbLine
 10
-26.8418258076378
 20
-0.7981475711206459
 30
0.0
 11
-20.84182580763781
 21
-0.7981475711206459
 31
0.0
  0
LINE
  5
140
330
1F
100
AcDbEntity
  8
0
100
AcDbLine
 10
-26.8418258076378
 20
2.201852428879349
 30
0.0
 11
-26.8418258076378
 21
-0.7981475711206459
 31
0.0
  0
LINE
  5
141
330
1F
100
AcDbEntity
  8
0
100
AcDbLine
 10
-36.84182580763778
 20
2.201852428879349
 30
0.0
 11
-26.8418258076378
 21
2.201852428879349
 31
0.0
  0
LINE
  5
142
330
1F
100
AcDbEntity
  8
0
100
AcDbLine
 10
-36.84182580763778
 20
2.201852428879349
 30
0.0
 11
-36.84182580763778
 21
-0.7981475711206459
 31
0.0
  0
LINE
  5
143
330
1F
100
AcDbEntity
  8
0
100
AcDbLine
 10
-42.84182580763777
 20
-0.7981475711206459
 30
0.0
 11
-36.84182580763778
 21
-0.7981475711206459
 31
0.0
  0
LINE
  5
144
330
1F
100
AcDbEntity
  8
0
100
AcDbLine
 10
-42.84182580763777
 20
2.201852428879349
 30
0.0
 11
-42.84182580763777
 21
-0.7981475711206459
 31
0.0
  0
LINE
  5
145
330
1F
100
AcDbEntity
  8
0
100
AcDbLine
 10
-68.84182580763772
 20
5.201852428879343
 30
0.0
 11
-68.84182580763772
 21
9.201852428879347
 31
0.0
  0
LINE
  5
146
330
1F
100
AcDbEntity
  8
0
100
AcDbLine
 10
-68.84182580763772
 20
9.201852428879347
 30
0.0
 11
69.15817419236225
 21
9.201852428879347
 31
0.0
  0
LINE
  5
147
330
1F
100
AcDbEntity
  8
0
100
AcDbLine
 10
69.15817419236225
 20
9.201852428879347
 30
0.0
 11
69.15817419236225
 21
5.201852428879343
 31
0.0
  0
ENDSEC
  0
SECTION
  2
OBJECTS
  0
DICTIONARY
  5
C
330
0
100
AcDbDictionary
  3
ACAD_GROUP
350
D
  3
ACAD_LAYOUT
350
1A
  3
ACAD_MATERIAL
350
43
  3
ACAD_MLEADERSTYLE
350
6B
  3
ACAD_MLINESTYLE
350
17
  3
ACAD_PLOTSETTINGS
350
19
  3
ACAD_SCALELIST
350
47
  3
ACAD_VISUALSTYLE
350
2A
  3
ACDBHEADERROUNDTRIPXREC
350
148
  3
ACDBVARIABLEDICTIONARY
350
169
  0
DICTIONARY
  5
170
330
8
100
AcDbDictionary
280
     1
  3
ACAD_XREC_ROUNDTRIP
360
171
  0
DICTIONARY
  5
D
102
{ACAD_REACTORS
330
C
102
}
330
C
100
AcDbDictionary
  0
DICTIONARY
  5
1A
102
{ACAD_REACTORS
330
C
102
}
330
C
100
AcDbDictionary
  0
DICTIONARY
  5
43
102
{ACAD_REACTORS
330
C
102
}
330
C
100
AcDbDictionary
  3
BYBLOCK
350
45
  3
BYLAYER
350
44
  3
GLOBAL
350
46
  0
DICTIONARY
  5
6B
102
{ACAD_REACTORS
330
C
102
}
330
C
100
AcDbDictionary
  3
STANDARD
350
6C
  0
DICTIONARY
  5
17
102
{ACAD_REACTORS
330
C
102
}
330
C
100
AcDbDictionary
  3
STANDARD
350
18
  0
DICTIONARY
  5
19
102
{ACAD_REACTORS
330
C
102
}
330
C
100
AcDbDictionary
  0
DICTIONARY
  5
47
102
{ACAD_REACTORS
330
C
102
}
330
C
100
AcDbDictionary
  3
A0
350
48
  3
A1
350
49
  3
A2
350
4A
  3
A3
350
4B
  3
A4
350
4C
  3
A5
350
4D
  3
A6
350
4E
  3
A7
350
4F
  3
A8
350
50
  3
A9
350
51
  3
B0
350
52
  3
B1
350
53
  3
B2
350
54
  3
B3
350
55
  3
B4
350
56
  3
B5
350
57
  3
B6
350
58
  3
B7
350
59
  3
B8
350
5A
  3
B9
350
5B
  3
C0
350
5C
  3
C1
350
5D
  3
C2
350
5E
  3
C3
350
5F
  3
C4
350
60
  3
C5
350
61
  3
C6
350
62
  3
C7
350
63
  3
C8
350
64
  3
C9
350
65
  3
D0
350
66
  3
D1
350
67
  3
D2
350
68
  0
DICTIONARY
  5
2A
102
{ACAD_REACTORS
330
C
102
}
330
C
100
AcDbDictionary
  3
2DWIREFRAME
350
2F
  3
BASIC
350
32
  3
BRIGHTEN
350
36
  3
COLORCHANGE
350
3A
  3
CONCEPTUAL
350
34
  3
DIM
350
35
  3
EDGECOLOROFF
350
3D
  3
FACEPATTERN
350
39
  3
FLAT
350
2B
  3
FLATWITHEDGES
350
2C
  3
GOURAUD
350
2D
  3
GOURAUDWITHEDGES
350
2E
  3
HIDDEN
350
31
  3
JITTEROFF
350
3B
  3
LINEPATTERN
350
38
  3
OVERHANGOFF
350
3C
  3
REALISTIC
350
33
  3
SHADED
350
42
  3
SHADED_WITH_EDGES
350
41
  3
SHADES_OF_GRAY
350
3E
  3
SKETCHY
350
3F
  3
THICKEN
350
37
  3
WIREFRAME
350
30
  3
X-RAY
350
40
  0
DICTIONARY
  5
148
102
{ACAD_REACTORS
330
C
102
}
330
C
100
AcDbDictionary
  3
CEPSNID
350
152
  3
CEPSNTYPE
350
151
  3
DIMSTYLEDATA
350
168
  3
FINGERPRINTGUID
350
153
  3
HYPERLINKBASE
350
14B
  3
INSUNITS
350
150
  3
LAYOUTDICT
350
14D
  3
LWETCUNION
350
14F
  3
PLOTSETDICT
350
14E
  3
PSVPSCALE
350
155
  3
PUCSBASE
350
158
  3
PUCSORGBACK
350
15E
  3
PUCSORGBOTTOM
350
15A
  3
PUCSORGFRONT
350
15D
  3
PUCSORGLEFT
350
15B
  3
PUCSORGRIGHT
350
15C
  3
PUCSORGTOP
350
159
  3
PUCSORTHOREF
350
156
  3
PUCSORTHOVIEW
350
157
  3
STYLESHEET
350
14C
  3
TSTACKALIGN
350
149
  3
TSTACKSIZE
350
14A
  3
UCSBASE
350
161
  3
UCSORGBACK
350
167
  3
UCSORGBOTTOM
350
163
  3
UCSORGFRONT
350
166
  3
UCSORGLEFT
350
164
  3
UCSORGRIGHT
350
165
  3
UCSORGTOP
350
162
  3
UCSORTHOREF
350
15F
  3
UCSORTHOVIEW
350
160
  3
VERSIONGUID
350
154
  0
DICTIONARY
  5
169
102
{ACAD_REACTORS
330
C
102
}
330
C
100
AcDbDictionary
  3
CANNOSCALE
350
172
  3
CMLEADERSTYLE
350
16B
  3
CTABLESTYLE
350
16A
  3
DIMASSOC
350
16E
  3
HIDETEXT
350
16F
  3
MSLTSCALE
350
173
  0
XRECORD
  5
171
102
{ACAD_REACTORS
330
170
102
}
330
170
100
AcDbXrecord
102
VTR_0.000_0.000_1.000_1.000_VISUALSTYLE
340
2F
102
VTR_0.000_0.000_1.000_1.000_GRIDDISPLAY
 70
     3
102
VTR_0.000_0.000_1.000_1.000_GRIDMAJOR
 70
     5
102
VTR_0.000_0.000_1.000_1.000_DEFAULTLIGHTING
280
     1
102
VTR_0.000_0.000_1.000_1.000_DEFAULTLIGHTINGTYPE
 70
     1
102
VTR_0.000_0.000_1.000_1.000_BRIGHTNESS
141
0.0
102
VTR_0.000_0.000_1.000_1.000_CONTRAST
142
0.0
  0
MATERIAL
  5
45
102
{ACAD_REACTORS
330
43
102
}
102
{ACAD_XDICTIONARY
360
176
102
}
330
43
100
AcDbMaterial
  1
BYBLOCK
  0
MATERIAL
  5
44
102
{ACAD_REACTORS
330
43
102
}
102
{ACAD_XDICTIONARY
360
174
102
}
330
43
100
AcDbMaterial
  1
BYLAYER
  0
MATERIAL
  5
46
102
{ACAD_REACTORS
330
43
102
}
102
{ACAD_XDICTIONARY
360
178
102
}
330
43
100
AcDbMaterial
  1
GLOBAL
  0
ACAD_PROXY_OBJECT
  5
6C
102
{ACAD_REACTORS
330
6B
102
}
330
6B
100
AcDbProxyObject
 90
      499
 91
      505
 93
      610
310
40901902A4063FBFFFFFE056BD1B81E855B9FC0AD7A3703D0AD73F4214DD185B99185C9900AD7A3703D0AC73F90141901A02B5E8DC0F42B1CFC02B5E8DC0F42B1CFE5764000000000000300FC0
340
14
340
0
340
11
340
0
 94
        0
1001
ACAD_MLEADERVER
1070
     2
  0
MLINESTYLE
  5
18
102
{ACAD_REACTORS
330
17
102
}
330
17
100
AcDbMlineStyle
  2
Standard
 70
     0
  3

 62
   256
 51
90.0
 52
90.0
 71
     2
 49
0.5
 62
   256
  6
BYLAYER
 49
-0.5
 62
   256
  6
BYLAYER
  0
ACAD_PROXY_OBJECT
  5
48
102
{ACAD_REACTORS
330
47
102
}
330
47
100
AcDbProxyObject
 90
      499
 91
      503
 93
       41
310
903313A31580
  0
ACAD_PROXY_OBJECT
  5
49
102
{ACAD_REACTORS
330
47
102
}
330
47
100
AcDbProxyObject
 90
      499
 91
      503
 93
      105
310
903313A324000000000000004000
  0
ACAD_PROXY_OBJECT
  5
4A
102
{ACAD_REACTORS
330
47
102
}
330
47
100
AcDbProxyObject
 90
      499
 91
      503
 93
      105
310
903313A344000000000000104000
  0
ACAD_PROXY_OBJECT
  5
4B
102
{ACAD_REACTORS
330
47
102
}
330
47
100
AcDbProxyObject
 90
      499
 91
      503
 93
      105
310
903313A354000000000000144000
  0
ACAD_PROXY_OBJECT
  5
4C
102
{ACAD_REACTORS
330
47
102
}
330
47
100
AcDbProxyObject
 90
      499
 91
      503
 93
      105
310
903313A384000000000000204000
  0
ACAD_PROXY_OBJECT
  5
4D
102
{ACAD_REACTORS
330
47
102
}
330
47
100
AcDbProxyObject
 90
      499
 91
      503
 93
      113
310
904313A31304000000000000244000
  0
ACAD_PROXY_OBJECT
  5
4E
102
{ACAD_REACTORS
330
47
102
}
330
47
100
AcDbProxyObject
 90
      499
 91
      503
 93
      113
310
904313A31364000000000000304000
  0
ACAD_PROXY_OBJECT
  5
4F
102
{ACAD_REACTORS
330
47
102
}
330
47
100
AcDbProxyObject
 90
      499
 91
      503
 93
      113
310
904313A32304000000000000344000
  0
ACAD_PROXY_OBJECT
  5
50
102
{ACAD_REACTORS
330
47
102
}
330
47
100
AcDbProxyObject
 90
      499
 91
      503
 93
      113
310
904313A333040000000000003E4000
  0
ACAD_PROXY_OBJECT
  5
51
102
{ACAD_REACTORS
330
47
102
}
330
47
100
AcDbProxyObject
 90
      499
 91
      503
 93
      113
310
904313A34304000000000000444000
  0
ACAD_PROXY_OBJECT
  5
52
102
{ACAD_REACTORS
330
47
102
}
330
47
100
AcDbProxyObject
 90
      499
 91
      503
 93
      113
310
904313A35304000000000000494000
  0
ACAD_PROXY_OBJECT
  5
53
102
{ACAD_REACTORS
330
47
102
}
330
47
100
AcDbProxyObject
 90
      499
 91
      503
 93
      121
310
905313A3130304000000000000594000
  0
ACAD_PROXY_OBJECT
  5
54
102
{ACAD_REACTORS
330
47
102
}
330
47
100
AcDbProxyObject
 90
      499
 91
      503
 93
      105
310
903323A310000000000000010100
  0
ACAD_PROXY_OBJECT
  5
55
102
{ACAD_REACTORS
330
47
102
}
330
47
100
AcDbProxyObject
 90
      499
 91
      503
 93
      105
310
903343A310000000000000410100
  0
ACAD_PROXY_OBJECT
  5
56
102
{ACAD_REACTORS
330
47
102
}
330
47
100
AcDbProxyObject
 90
      499
 91
      503
 93
      105
310
903383A310000000000000810100
  0
ACAD_PROXY_OBJECT
  5
57
102
{ACAD_REACTORS
330
47
102
}
330
47
100
AcDbProxyObject
 90
      499
 91
      503
 93
      113
310
90431303A310000000000000910100
  0
ACAD_PROXY_OBJECT
  5
58
102
{ACAD_REACTORS
330
47
102
}
330
47
100
AcDbProxyObject
 90
      499
 91
      503
 93
      121
310
9053130303A310000000000001650100
  0
ACAD_PROXY_OBJECT
  5
59
102
{ACAD_REACTORS
330
47
102
}
330
47
100
AcDbProxyObject
 90
      499
 91
      503
 93
      257
310
90E312F31323822203D2031272D3022000000000000200FC000000000000284000
  0
ACAD_PROXY_OBJECT
  5
5A
102
{ACAD_REACTORS
330
47
102
}
330
47
100
AcDbProxyObject
 90
      499
 91
      503
 93
      249
310
90D312F363422203D2031272D3022000000000000240FC000000000000284000
  0
ACAD_PROXY_OBJECT
  5
5B
102
{ACAD_REACTORS
330
47
102
}
330
47
100
AcDbProxyObject
 90
      499
 91
      503
 93
      249
310
90D312F333222203D2031272D3022000000000000280FC000000000000284000
  0
ACAD_PROXY_OBJECT
  5
5C
102
{ACAD_REACTORS
330
47
102
}
330
47
100
AcDbProxyObject
 90
      499
 91
      503
 93
      249
310
90D312F313622203D2031272D30220000000000002C0FC000000000000284000
  0
ACAD_PROXY_OBJECT
  5
5D
102
{ACAD_REACTORS
330
47
102
}
330
47
100
AcDbProxyObject
 90
      499
 91
      503
 93
      249
310
90D332F333222203D2031272D30220000000000002E0FC000000000000284000
  0
ACAD_PROXY_OBJECT
  5
5E
102
{ACAD_REACTORS
330
47
102
}
330
47
100
AcDbProxyObject
 90
      499
 91
      503
 93
      241
310
90C312F3822203D2031272D3022000000000000300FC000000000000284000
  0
ACAD_PROXY_OBJECT
  5
5F
102
{ACAD_REACTORS
330
47
102
}
330
47
100
AcDbProxyObject
 90
      499
 91
      503
 93
      249
310
90D332F313622203D2031272D3022000000000000320FC000000000000284000
  0
ACAD_PROXY_OBJECT
  5
60
102
{ACAD_REACTORS
330
47
102
}
330
47
100
AcDbProxyObject
 90
      499
 91
      503
 93
      241
310
90C312F3422203D2031272D3022000000000000340FC000000000000284000
  0
ACAD_PROXY_OBJECT
  5
61
102
{ACAD_REACTORS
330
47
102
}
330
47
100
AcDbProxyObject
 90
      499
 91
      503
 93
      241
310
90C332F3822203D2031272D3022000000000000360FC000000000000284000
  0
ACAD_PROXY_OBJECT
  5
62
102
{ACAD_REACTORS
330
47
102
}
330
47
100
AcDbProxyObject
 90
      499
 91
      503
 93
      241
310
90C312F3222203D2031272D3022000000000000380FC000000000000284000
  0
ACAD_PROXY_OBJECT
  5
63
102
{ACAD_REACTORS
330
47
102
}
330
47
100
AcDbProxyObject
 90
      499
 91
      503
 93
      241
310
90C332F3422203D2031272D30220000000000003A0FC000000000000284000
  0
ACAD_PROXY_OBJECT
  5
64
102
{ACAD_REACTORS
330
47
102
}
330
47
100
AcDbProxyObject
 90
      499
 91
      503
 93
      161
310
90A3122203D2031272D30224000000000000284000
  0
ACAD_PROXY_OBJECT
  5
65
102
{ACAD_REACTORS
330
47
102
}
330
47
100
AcDbProxyObject
 90
      499
 91
      503
 93
      257
310
90E312D312F3222203D2031272D30220000000000003E0FC000000000000284000
  0
ACAD_PROXY_OBJECT
  5
66
102
{ACAD_REACTORS
330
47
102
}
330
47
100
AcDbProxyObject
 90
      499
 91
      503
 93
      225
310
90A3322203D2031272D302200000000000002100000000000000284000
  0
ACAD_PROXY_OBJECT
  5
67
102
{ACAD_REACTORS
330
47
102
}
330
47
100
AcDbProxyObject
 90
      499
 91
      503
 93
      225
310
90A3622203D2031272D302200000000000006100000000000000284000
  0
ACAD_PROXY_OBJECT
  5
68
102
{ACAD_REACTORS
330
47
102
}
330
47
100
AcDbProxyObject
 90
      499
 91
      503
 93
      249
310
90D31272D3022203D2031272D30220000000000000A100000000000000284000
  0
ACAD_PROXY_OBJECT
  5
2F
102
{ACAD_REACTORS
330
2A
102
}
330
2A
100
AcDbProxyObject
 90
      499
 91
      501
 93
      436
310
42CC9915DA5C99599C985B595049028333333333333E33F0000000000000F90107901411070040501600405405064090741402480A0340
1001
ACAD
1000
AcDbSavedByObjectVersion
1070
     0
  0
ACAD_PROXY_OBJECT
  5
32
102
{ACAD_REACTORS
330
2A
102
}
330
2A
100
AcDbProxyObject
 90
      499
 91
      501
 93
      388
310
4150985CDA58D07406404333333333333E33F0000000000000F90107A41107004050150841D405064090741402480A0350
1001
ACAD
1000
AcDbSavedByObjectVersion
1070
     0
  0
ACAD_PROXY_OBJECT
  5
36
102
{ACAD_REACTORS
330
2A
102
}
330
2A
100
AcDbProxyObject
 90
      499
 91
      501
 93
      428
310
42109C9A59DA1D195B90C409028333333333333E33F0000000000000F9010790141107004050150841D405064090741402480A029950
1001
ACAD
1000
AcDbSavedByObjectVersion
1070
     0
  0
ACAD_PROXY_OBJECT
  5
3A
102
{ACAD_REACTORS
330
2A
102
}
330
2A
100
AcDbProxyObject
 90
      499
 91
      501
 93
      452
310
42D0DBDB1BDC90DA185B99D95104090240C333333333333E33F0000000000000F90108901411070040501508421405064090741402480A0350
1001
ACAD
1000
AcDbSavedByObjectVersion
1070
     0
  0
ACAD_PROXY_OBJECT
  5
34
102
{ACAD_REACTORS
330
2A
102
}
330
2A
100
AcDbProxyObject
 90
      499
 91
      501
 93
      500
310
4290DBDB98D95C1D1D585B10940D028333333333333E33F0000000000000F90107902409070040501000000000018199010841D405064090740C02480A0340
1001
ACAD
1000
AcDbSavedByObjectVersion
1070
     0
  0
ACAD_PROXY_OBJECT
  5
35
102
{ACAD_REACTORS
330
2A
102
}
330
2A
100
AcDbProxyObject
 90
      499
 91
      501
 93
      412
310
40D11A5B50B409028333333333333E33F0000000000000F9010790141107004050150841D405064090741402480A02677FFFFFD0
1001
ACAD
1000
AcDbSavedByObjectVersion
1070
     0
  0
ACAD_PROXY_OBJECT
  5
3D
102
{ACAD_REACTORS
330
2A
102
}
330
2A
100
AcDbProxyObject
 90
      499
 91
      501
 93
      452
310
43115919D950DBDB1BDC93D999916409028333333333333E33F0000000000000F9010790141107004050150841D405064090741402480A0350
1001
ACAD
1000
AcDbSavedByObjectVersion
1070
     0
  0
ACAD_PROXY_OBJECT
  5
39
102
{ACAD_REACTORS
330
2A
102
}
330
2A
100
AcDbProxyObject
 90
      499
 91
      501
 93
      444
310
42D19858D95C185D1D195C9B90F409028333333333333E33F0000000000000F9010790141107004050150841D405064090741402480A0350
1001
ACAD
1000
AcDbSavedByObjectVersion
1070
     0
  0
ACAD_PROXY_OBJECT
  5
2B
102
{ACAD_REACTORS
330
2A
102
}
330
2A
100
AcDbProxyObject
 90
      499
 91
      501
 93
      380
310
41119B185D240901404333333333333E33F0000000000000F9010740A907004050150841D405064090741402480A1B50
1001
ACAD
1000
AcDbSavedByObjectVersion
1070
     0
  0
ACAD_PROXY_OBJECT
  5
2C
102
{ACAD_REACTORS
330
2A
102
}
330
2A
100
AcDbProxyObject
 90
      499
 91
      501
 93
      468
310
43519B185D15DA5D1A115919D95CD0140901404333333333333E33F0000000000000F90107409019070040501600405405064090741402480A1B50
1001
ACAD
1000
AcDbSavedByObjectVersion
1070
     0
  0
ACAD_PROXY_OBJECT
  5
2D
102
{ACAD_REACTORS
330
2A
102
}
330
2A
100
AcDbProxyObject
 90
      499
 91
      501
 93
      404
310
41D1DBDD5C985D5910240902404333333333333E33F0000000000000F9010740A9070040501641D405064090741402480A1B50
1001
ACAD
1000
AcDbSavedByObjectVersion
1070
     0
  0
ACAD_PROXY_OBJECT
  5
2E
102
{ACAD_REACTORS
330
2A
102
}
330
2A
100
AcDbProxyObject
 90
      499
 91
      501
 93
      492
310
4411DBDD5C985D5915DA5D1A115919D95CD0340902404333333333333E33F0000000000000F90107409019070040501600405405064090741402480A1B50
1001
ACAD
1000
AcDbSavedByObjectVersion
1070
     0
  0
ACAD_PROXY_OBJECT
  5
31
102
{ACAD_REACTORS
330
2A
102
}
330
2A
100
AcDbProxyObject
 90
      499
 91
      501
 93
      476
310
41921A5919195B90640502408333333333333E33F0000000000000F901079024090700405020000000000001110200405405064090740C02480A0340
1001
ACAD
1000
AcDbSavedByObjectVersion
1070
     0
  0
ACAD_PROXY_OBJECT
  5
3B
102
{ACAD_REACTORS
330
2A
102
}
330
2A
100
AcDbProxyObject
 90
      499
 91
      501
 93
      428
310
42529A5D1D195C93D999914409028333333333333E33F0000000000000F9010790141107004050150A41D405064090741402480A0350
1001
ACAD
1000
AcDbSavedByObjectVersion
1070
     0
  0
ACAD_PROXY_OBJECT
  5
38
102
{ACAD_REACTORS
330
2A
102
}
330
2A
100
AcDbProxyObject
 90
      499
 91
      501
 93
      444
310
42D31A5B995C185D1D195C9B90E409028333333333333E33F0000000000000F9010790141107004050750841D405064090741402483A0350
1001
ACAD
1000
AcDbSavedByObjectVersion
1070
     0
  0
ACAD_PROXY_OBJECT
  5
3C
102
{ACAD_REACTORS
330
2A
102
}
330
2A
100
AcDbProxyObject
 90
      499
 91
      501
 93
      444
310
42D3DD995C9A185B99D3D999915409028333333333333E33F0000000000000F9010790141107004050150941D405064090741402480A0350
1001
ACAD
1000
AcDbSavedByObjectVersion
1070
     0
  0
ACAD_PROXY_OBJECT
  5
33
102
{ACAD_REACTORS
330
2A
102
}
330
2A
100
AcDbProxyObject
 90
      499
 91
      501
 93
      428
310
425499585B1A5CDD1A58D08409038333333333333E33F0000000000000F9010740A907004050150800405405064090740C02480A1B40
1001
ACAD
1000
AcDbSavedByObjectVersion
1070
     0
  0
ACAD_PROXY_OBJECT
  5
42
102
{ACAD_REACTORS
330
2A
102
}
330
2A
100
AcDbProxyObject
 90
      499
 91
      501
 93
      420
310
4194DA1859195911B40902404333333333333E33F0000000000000F9010740A41107004050150800405405064090840C02480A0B40
1001
ACAD
1000
AcDbSavedByObjectVersion
1070
     0
  0
ACAD_PROXY_OBJECT
  5
41
102
{ACAD_REACTORS
330
2A
102
}
330
2A
100
AcDbProxyObject
 90
      499
 91
      501
 93
      516
310
4454DA18591959081DDA5D1A08195919D95CD1A40902404333333333333E33F0000000000000F901074090142907004050250800405405064090740C02480A0B40
1001
ACAD
1000
AcDbSavedByObjectVersion
1070
     0
  0
ACAD_PROXY_OBJECT
  5
3E
102
{ACAD_REACTORS
330
2A
102
}
330
2A
100
AcDbProxyObject
 90
      499
 91
      501
 93
      532
310
4394DA1859195CC81BD98811DC985E5174090240C333333333333E33F0000000000000F901079024090741D01000000000000111010841D405064090740C02480A0340
1001
ACAD
1000
AcDbSavedByObjectVersion
1070
     0
  0
ACAD_PROXY_OBJECT
  5
3F
102
{ACAD_REACTORS
330
2A
102
}
330
2A
100
AcDbProxyObject
 90
      499
 91
      501
 93
      476
310
41D4DAD95D18DA1E51840502408333333333333E33F0000000000000F901079024090741D01000000000000111010B41D405064090741802480A0340
1001
ACAD
1000
AcDbSavedByObjectVersion
1070
     0
  0
ACAD_PROXY_OBJECT
  5
37
102
{ACAD_REACTORS
330
2A
102
}
330
2A
100
AcDbProxyObject
 90
      499
 91
      501
 93
      412
310
41D51A1A58DAD95B90D409028333333333333E33F0000000000000F9010790141107004050150C41D405064090741402480A0350
1001
ACAD
1000
AcDbSavedByObjectVersion
1070
     0
  0
ACAD_PROXY_OBJECT
  5
30
102
{ACAD_REACTORS
330
2A
102
}
330
2A
100
AcDbProxyObject
 90
      499
 91
      501
 93
      420
310
4255DA5C99599C985B595059028333333333333E33F0000000000000F90107901411070040501600405405064090740C02480A0340
1001
ACAD
1000
AcDbSavedByObjectVersion
1070
     0
  0
ACAD_PROXY_OBJECT
  5
40
102
{ACAD_REACTORS
330
2A
102
}
330
2A
100
AcDbProxyObject
 90
      499
 91
      501
 93
      404
310
41560B54985E51940902404000000000000E03F0000000000000F9010740501907004050150841D405064090740C02480A1B40
1001
ACAD
1000
AcDbSavedByObjectVersion
1070
     0
  0
XRECORD
  5
152
102
{ACAD_REACTORS
330
148
102
}
330
148
100
AcDbXrecord
340
0
  0
XRECORD
  5
151
102
{ACAD_REACTORS
330
148
102
}
330
148
100
AcDbXrecord
 90
        0
  0
XRECORD
  5
168
102
{ACAD_REACTORS
330
148
102
}
330
148
100
AcDbXrecord
1000
DSTYLE
1002
{
1070
   171
 70
     2
1070
   143
 40
25.4
1070
   274
 70
     2
1070
    41
 40
0.18
1070
   141
 40
0.09
1070
   271
 70
     4
1070
    43
 40
0.38
1070
   278
 70
    46
1070
    44
 40
0.18
1070
    42
 40
0.0625
1070
   147
 40
0.09
1070
    77
 70
     0
1070
   272
 70
     4
1070
    73
 70
     1
1070
   172
 70
     0
1070
    74
 70
     1
1070
   283
 70
     1
1070
   340
340
11
1070
   140
 40
0.18
1070
   284
 70
     0
1070
    78
 70
     0
1002
}
  0
XRECORD
  5
153
102
{ACAD_REACTORS
330
148
102
}
330
148
100
AcDbXrecord
  1
{6DB09D93-0B3C-495D-83CB-80D2364445CF}
  0
XRECORD
  5
14B
102
{ACAD_REACTORS
330
148
102
}
330
148
100
AcDbXrecord
  1

  0
XRECORD
  5
150
102
{ACAD_REACTORS
330
148
102
}
330
148
100
AcDbXrecord
 90
        4
  0
XRECORD
  5
14D
102
{ACAD_REACTORS
330
148
102
}
330
148
100
AcDbXrecord
340
1A
  0
XRECORD
  5
14F
102
{ACAD_REACTORS
330
148
102
}
330
148
100
AcDbXrecord
 90
    10781
  0
XRECORD
  5
14E
102
{ACAD_REACTORS
330
148
102
}
330
148
100
AcDbXrecord
340
19
  0
XRECORD
  5
155
102
{ACAD_REACTORS
330
148
102
}
330
148
100
AcDbXrecord
 40
0.0
  0
XRECORD
  5
158
102
{ACAD_REACTORS
330
148
102
}
330
148
100
AcDbXrecord
340
0
  0
XRECORD
  5
15E
102
{ACAD_REACTORS
330
148
102
}
330
148
100
AcDbXrecord
 10
0.0
 20
0.0
 30
0.0
  0
XRECORD
  5
15A
102
{ACAD_REACTORS
330
148
102
}
330
148
100
AcDbXrecord
 10
0.0
 20
0.0
 30
0.0
  0
XRECORD
  5
15D
102
{ACAD_REACTORS
330
148
102
}
330
148
100
AcDbXrecord
 10
0.0
 20
0.0
 30
0.0
  0
XRECORD
  5
15B
102
{ACAD_REACTORS
330
148
102
}
330
148
100
AcDbXrecord
 10
0.0
 20
0.0
 30
0.0
  0
XRECORD
  5
15C
102
{ACAD_REACTORS
330
148
102
}
330
148
100
AcDbXrecord
 10
0.0
 20
0.0
 30
0.0
  0
XRECORD
  5
159
102
{ACAD_REACTORS
330
148
102
}
330
148
100
AcDbXrecord
 10
0.0
 20
0.0
 30
0.0
  0
XRECORD
  5
156
102
{ACAD_REACTORS
330
148
102
}
330
148
100
AcDbXrecord
340
0
  0
XRECORD
  5
157
102
{ACAD_REACTORS
330
148
102
}
330
148
100
AcDbXrecord
 70
     0
  0
XRECORD
  5
14C
102
{ACAD_REACTORS
330
148
102
}
330
148
100
AcDbXrecord
  1

  0
XRECORD
  5
149
102
{ACAD_REACTORS
330
148
102
}
330
148
100
AcDbXrecord
 90
        1
  0
XRECORD
  5
14A
102
{ACAD_REACTORS
330
148
102
}
330
148
100
AcDbXrecord
 90
       70
  0
XRECORD
  5
161
102
{ACAD_REACTORS
330
148
102
}
330
148
100
AcDbXrecord
340
0
  0
XRECORD
  5
167
102
{ACAD_REACTORS
330
148
102
}
330
148
100
AcDbXrecord
 10
0.0
 20
0.0
 30
0.0
  0
XRECORD
  5
163
102
{ACAD_REACTORS
330
148
102
}
330
148
100
AcDbXrecord
 10
0.0
 20
0.0
 30
0.0
  0
XRECORD
  5
166
102
{ACAD_REACTORS
330
148
102
}
330
148
100
AcDbXrecord
 10
0.0
 20
0.0
 30
0.0
  0
XRECORD
  5
164
102
{ACAD_REACTORS
330
148
102
}
330
148
100
AcDbXrecord
 10
0.0
 20
0.0
 30
0.0
  0
XRECORD
  5
165
102
{ACAD_REACTORS
330
148
102
}
330
148
100
AcDbXrecord
 10
0.0
 20
0.0
 30
0.0
  0
XRECORD
  5
162
102
{ACAD_REACTORS
330
148
102
}
330
148
100
AcDbXrecord
 10
0.0
 20
0.0
 30
0.0
  0
XRECORD
  5
15F
102
{ACAD_REACTORS
330
148
102
}
330
148
100
AcDbXrecord
340
0
  0
XRECORD
  5
160
102
{ACAD_REACTORS
330
148
102
}
330
148
100
AcDbXrecord
 70
     0
  0
XRECORD
  5
154
102
{ACAD_REACTORS
330
148
102
}
330
148
100
AcDbXrecord
  1
{FAEB1C32-E019-11D5-929B-00C0DF256EC4}
  0
DICTIONARYVAR
  5
172
102
{ACAD_REACTORS
330
169
102
}
330
169
100
DictionaryVariables
280
     0
  1
1:1
  0
DICTIONARYVAR
  5
16B
102
{ACAD_REACTORS
330
169
102
}
330
169
100
DictionaryVariables
280
     0
  1
Standard
  0
DICTIONARYVAR
  5
16A
102
{ACAD_REACTORS
330
169
102
}
330
169
100
DictionaryVariables
280
     0
  1
Standard
  0
DICTIONARYVAR
  5
16E
102
{ACAD_REACTORS
330
169
102
}
330
169
100
DictionaryVariables
280
     0
  1
2
  0
DICTIONARYVAR
  5
16F
102
{ACAD_REACTORS
330
169
102
}
330
169
100
DictionaryVariables
280
     0
  1
1
  0
DICTIONARYVAR
  5
173
102
{ACAD_REACTORS
330
169
102
}
330
169
100
DictionaryVariables
280
     0
  1
1
  0
DICTIONARY
  5
176
330
45
100
AcDbDictionary
280
     1
  3
ACAD_XREC_ROUNDTRIP
360
177
  0
DICTIONARY
  5
174
330
44
100
AcDbDictionary
280
     1
  3
ACAD_XREC_ROUNDTRIP
360
175
  0
DICTIONARY
  5
178
330
46
100
AcDbDictionary
280
     1
  3
ACAD_XREC_ROUNDTRIP
360
179
  0
XRECORD
  5
177
102
{ACAD_REACTORS
330
176
102
}
330
176
100
AcDbXrecord
102
MATERIAL
148
0.0
149
0.0
149
0.0
 93
        0
 94
      127
282
     0
 72
     1
 77
     1
171
     1
175
     1
179
     1
273
     0
  0
XRECORD
  5
175
102
{ACAD_REACTORS
330
174
102
}
330
174
100
AcDbXrecord
102
MATERIAL
148
0.0
149
0.0
149
0.0
 93
        0
 94
      127
282
     0
 72
     1
 77
     1
171
     1
175
     1
179
     1
273
     0
  0
XRECORD
  5
179
102
{ACAD_REACTORS
330
178
102
}
330
178
100
AcDbXrecord
102
MATERIAL
148
0.0
149
0.0
149
0.0
 93
        0
 94
      127
282
     0
 72
     1
 77
     1
171
     1
175
     1
179
     1
273
     0
  0
ENDSEC
  0
EOF
