  0
SECTION
  2
HEADER
  9
$ACADVER
  1
AC1014
  9
$ACADMAINTVER
 70
     9
  9
$DWGCODEPAGE
  3
ANSI_1252
  9
$INSBASE
 10
0.0
 20
0.0
 30
0.0
  9
$EXTMIN
 10
1.000000000000000E+20
 20
1.000000000000000E+20
 30
1.000000000000000E+20
  9
$EXTMAX
 10
-1.000000000000000E+20
 20
-1.000000000000000E+20
 30
-1.000000000000000E+20
  9
$LIMMIN
 10
0.0
 20
0.0
  9
$LIMMAX
 10
12.0
 20
9.0
  9
$ORTHOMODE
 70
     0
  9
$REGENMODE
 70
     1
  9
$FILLMODE
 70
     1
  9
$QTEXTMODE
 70
     0
  9
$MIRRTEXT
 70
     1
  9
$DRAGMODE
 70
     2
  9
$LTSCALE
 40
1.0
  9
$OSMODE
 70
    37
  9
$ATTMODE
 70
     1
  9
$TEXTSIZE
 40
0.2
  9
$TRACEWID
 40
0.05
  9
$TEXTSTYLE
  7
STANDARD
  9
$CLAYER
  8
0
  9
$CELTYPE
  6
BYLAYER
  9
$CECOLOR
 62
   256
  9
$CELTSCALE
 40
1.0
  9
$DELOBJ
 70
     1
  9
$DISPSILH
 70
     0
  9
$DIMSCALE
 40
1.0
  9
$DIMASZ
 40
0.18
  9
$DIMEXO
 40
0.0625
  9
$DIMDLI
 40
0.38
  9
$DIMRND
 40
0.0
  9
$DIMDLE
 40
0.0
  9
$DIMEXE
 40
0.18
  9
$DIMTP
 40
0.0
  9
$DIMTM
 40
0.0
  9
$DIMTXT
 40
0.18
  9
$DIMCEN
 40
0.09
  9
$DIMTSZ
 40
0.0
  9
$DIMTOL
 70
     0
  9
$DIMLIM
 70
     0
  9
$DIMTIH
 70
     1
  9
$DIMTOH
 70
     1
  9
$DIMSE1
 70
     0
  9
$DIMSE2
 70
     0
  9
$DIMTAD
 70
     0
  9
$DIMZIN
 70
     0
  9
$DIMBLK
  1

  9
$DIMASO
 70
     1
  9
$DIMSHO
 70
     1
  9
$DIMPOST
  1

  9
$DIMAPOST
  1

  9
$DIMALT
 70
     0
  9
$DIMALTD
 70
     2
  9
$DIMALTF
 40
25.4
  9
$DIMLFAC
 40
1.0
  9
$DIMTOFL
 70
     0
  9
$DIMTVP
 40
0.0
  9
$DIMTIX
 70
     0
  9
$DIMSOXD
 70
     0
  9
$DIMSAH
 70
     0
  9
$DIMBLK1
  1

  9
$DIMBLK2
  1

  9
$DIMSTYLE
  2
STANDARD
  9
$DIMCLRD
 70
     0
  9
$DIMCLRE
 70
     0
  9
$DIMCLRT
 70
     0
  9
$DIMTFAC
 40
1.0
  9
$DIMGAP
 40
0.09
  9
$DIMJUST
 70
     0
  9
$DIMSD1
 70
     0
  9
$DIMSD2
 70
     0
  9
$DIMTOLJ
 70
     1
  9
$DIMTZIN
 70
     0
  9
$DIMALTZ
 70
     0
  9
$DIMALTTZ
 70
     0
  9
$DIMFIT
 70
     3
  9
$DIMUPT
 70
     0
  9
$DIMUNIT
 70
     2
  9
$DIMDEC
 70
     4
  9
$DIMTDEC
 70
     4
  9
$DIMALTU
 70
     2
  9
$DIMALTTD
 70
     2
  9
$DIMTXSTY
  7
STANDARD
  9
$DIMAUNIT
 70
     0
  9
$LUNITS
 70
     2
  9
$LUPREC
 70
     4
  9
$SKETCHINC
 40
0.1
  9
$FILLETRAD
 40
0.5
  9
$AUNITS
 70
     0
  9
$AUPREC
 70
     0
  9
$MENU
  1
.
  9
$ELEVATION
 40
0.0
  9
$PELEVATION
 40
0.0
  9
$THICKNESS
 40
0.0
  9
$LIMCHECK
 70
     0
  9
$CHAMFERA
 40
0.0
  9
$CHAMFERB
 40
0.0
  9
$CHAMFERC
 40
0.0
  9
$CHAMFERD
 40
0.0
  9
$SKPOLY
 70
     0
  9
$TDCREATE
 40
2459266.913298021
  9
$TDUPDATE
 40
2459266.913298113
  9
$TDINDWG
 40
0.0000000116
  9
$TDUSRTIMER
 40
0.0000000116
  9
$USRTIMER
 70
     1
  9
$ANGBASE
 50
0.0
  9
$ANGDIR
 70
     0
  9
$PDMODE
 70
     0
  9
$PDSIZE
 40
0.0
  9
$PLINEWID
 40
0.0
  9
$COORDS
 70
     1
  9
$SPLFRAME
 70
     0
  9
$SPLINETYPE
 70
     6
  9
$SPLINESEGS
 70
     8
  9
$ATTDIA
 70
     0
  9
$ATTREQ
 70
     1
  9
$HANDLING
 70
     1
  9
$HANDSEED
  5
31E
  9
$SURFTAB1
 70
     6
  9
$SURFTAB2
 70
     6
  9
$SURFTYPE
 70
     6
  9
$SURFU
 70
     6
  9
$SURFV
 70
     6
  9
$UCSNAME
  2

  9
$UCSORG
 10
0.0
 20
0.0
 30
0.0
  9
$UCSXDIR
 10
1.0
 20
0.0
 30
0.0
  9
$UCSYDIR
 10
0.0
 20
1.0
 30
0.0
  9
$PUCSNAME
  2

  9
$PUCSORG
 10
0.0
 20
0.0
 30
0.0
  9
$PUCSXDIR
 10
1.0
 20
0.0
 30
0.0
  9
$PUCSYDIR
 10
0.0
 20
1.0
 30
0.0
  9
$USERI1
 70
     0
  9
$USERI2
 70
     0
  9
$USERI3
 70
     0
  9
$USERI4
 70
     0
  9
$USERI5
 70
     0
  9
$USERR1
 40
0.0
  9
$USERR2
 40
0.0
  9
$USERR3
 40
0.0
  9
$USERR4
 40
0.0
  9
$USERR5
 40
0.0
  9
$WORLDVIEW
 70
     1
  9
$SHADEDGE
 70
     3
  9
$SHADEDIF
 70
    70
  9
$TILEMODE
 70
     1
  9
$MAXACTVP
 70
    64
  9
$PINSBASE
 10
0.0
 20
0.0
 30
0.0
  9
$PLIMCHECK
 70
     0
  9
$PEXTMIN
 10
1.000000000000000E+20
 20
1.000000000000000E+20
 30
1.000000000000000E+20
  9
$PEXTMAX
 10
-1.000000000000000E+20
 20
-1.000000000000000E+20
 30
-1.000000000000000E+20
  9
$PLIMMIN
 10
0.0
 20
0.0
  9
$PLIMMAX
 10
12.0
 20
9.0
  9
$UNITMODE
 70
     0
  9
$VISRETAIN
 70
     1
  9
$PLINEGEN
 70
     0
  9
$PSLTSCALE
 70
     1
  9
$TREEDEPTH
 70
  3020
  9
$PICKSTYLE
 70
     1
  9
$CMLSTYLE
  2
STANDARD
  9
$CMLJUST
 70
     0
  9
$CMLSCALE
 40
1.0
  9
$PROXYGRAPHICS
 70
     1
  9
$MEASUREMENT
 70
     1
  0
ENDSEC
  0
SECTION
  2
CLASSES
  0
CLASS
  1
ACDBDICTIONARYWDFLT
  2
AcDbDictionaryWithDefault
  3
ObjectDBX Classes
 90
        0
280
     0
281
     0
  0
CLASS
  1
VISUALSTYLE
  2
AcDbVisualStyle
  3
ObjectDBX Classes
 90
     4095
280
     0
281
     0
  0
CLASS
  1
MATERIAL
  2
AcDbMaterial
  3
ObjectDBX Classes
 90
     1153
280
     0
281
     0
  0
CLASS
  1
SCALE
  2
AcDbScale
  3
ObjectDBX Classes
 90
     1153
280
     0
281
     0
  0
CLASS
  1
TABLESTYLE
  2
AcDbTableStyle
  3
ObjectDBX Classes
 90
     4095
280
     0
281
     0
  0
CLASS
  1
MLEADERSTYLE
  2
AcDbMLeaderStyle
  3
ACDB_MLEADERSTYLE_CLASS
 90
     4095
280
     0
281
     0
  0
CLASS
  1
SUN
  2
AcDbSun
  3
SCENEOE
 90
     1153
280
     0
281
     0
  0
CLASS
  1
DICTIONARYVAR
  2
AcDbDictionaryVar
  3
ObjectDBX Classes
 90
        0
280
     0
281
     0
  0
CLASS
  1
XRECORD
  2
AcDbXrecord
  3
ObjectDBX Classes
 90
        0
280
     0
281
     0
  0
CLASS
  1
LWPOLYLINE
  2
AcDbPolyline
  3
ObjectDBX Classes
 90
        0
280
     0
281
     1
  0
CLASS
  1
HATCH
  2
AcDbHatch
  3
ObjectDBX Classes
 90
        0
280
     0
281
     1
  0
CLASS
  1
ACDBPLACEHOLDER
  2
AcDbPlaceHolder
  3
ObjectDBX Classes
 90
        0
280
     0
281
     0
  0
CLASS
  1
LAYOUT
  2
AcDbLayout
  3
ObjectDBX Classes
 90
        0
280
     0
281
     0
  0
ENDSEC
  0
SECTION
  2
TABLES
  0
TABLE
  2
VPORT
  5
8
102
{ACAD_XDICTIONARY
360
313
102
}
330
0
100
AcDbSymbolTable
 70
     1
  0
VPORT
  5
29
330
8
100
AcDbSymbolTableRecord
100
AcDbViewportTableRecord
  2
*ACTIVE
 70
     0
 10
0.0
 20
0.0
 11
1.0
 21
1.0
 12
0.0
 22
0.0
 13
0.0
 23
0.0
 14
0.5
 24
0.5
 15
0.5
 25
0.5
 16
0.0
 26
0.0
 36
1.0
 17
0.0
 27
0.0
 37
-1000.0
 40
155.9177281591998
 41
1.758620689655173
 42
50.0
 43
263.3889163731396
 44
349.8597866782817
 50
0.0
 51
0.0
 71
     0
 72
   100
 73
     1
 74
     3
 75
     0
 76
     0
 77
     0
 78
     0
  0
ENDTAB
  0
TABLE
  2
LTYPE
  5
5
330
0
100
AcDbSymbolTable
 70
     1
  0
LTYPE
  5
14
330
5
100
AcDbSymbolTableRecord
100
AcDbLinetypeTableRecord
  2
BYBLOCK
 70
     0
  3

 72
    65
 73
     0
 40
0.0
  0
LTYPE
  5
15
330
5
100
AcDbSymbolTableRecord
100
AcDbLinetypeTableRecord
  2
BYLAYER
 70
     0
  3

 72
    65
 73
     0
 40
0.0
  0
LTYPE
  5
16
330
5
100
AcDbSymbolTableRecord
100
AcDbLinetypeTableRecord
  2
CONTINUOUS
 70
     0
  3
Solid line
 72
    65
 73
     0
 40
0.0
  0
ENDTAB
  0
TABLE
  2
LAYER
  5
2
330
0
100
AcDbSymbolTable
 70
     3
  0
LAYER
  5
10
330
2
100
AcDbSymbolTableRecord
100
AcDbLayerTableRecord
  2
0
 70
     0
 62
     7
  6
CONTINUOUS
  0
LAYER
  5
6E
330
2
100
AcDbSymbolTableRecord
100
AcDbLayerTableRecord
  2
PROFILEEDGES
 70
     0
 62
     7
  6
CONTINUOUS
  0
LAYER
  5
6F
330
2
100
AcDbSymbolTableRecord
100
AcDbLayerTableRecord
  2
SECTIONCUTEDGES
 70
     0
 62
     7
  6
CONTINUOUS
  0
ENDTAB
  0
TABLE
  2
STYLE
  5
3
330
0
100
AcDbSymbolTable
 70
     1
  0
STYLE
  5
11
330
3
100
AcDbSymbolTableRecord
100
AcDbTextStyleTableRecord
  2
STANDARD
 70
     0
 40
0.0
 41
1.0
 50
0.0
 71
     0
 42
0.2
  3
txt
  4

  0
ENDTAB
  0
TABLE
  2
VIEW
  5
6
330
0
100
AcDbSymbolTable
 70
     0
  0
ENDTAB
  0
TABLE
  2
UCS
  5
7
330
0
100
AcDbSymbolTable
 70
     0
  0
ENDTAB
  0
TABLE
  2
APPID
  5
9
330
0
100
AcDbSymbolTable
 70
     2
  0
APPID
  5
12
330
9
100
AcDbSymbolTableRecord
100
AcDbRegAppTableRecord
  2
ACAD
 70
     0
  0
APPID
  5
31D
330
9
100
AcDbSymbolTableRecord
100
AcDbRegAppTableRecord
  2
ACAD_MLEADERVER
 70
     0
  0
ENDTAB
  0
TABLE
  2
DIMSTYLE
  5
A
330
0
100
AcDbSymbolTable
 70
     1
  0
DIMSTYLE
105
27
330
A
100
AcDbSymbolTableRecord
100
AcDbDimStyleTableRecord
  2
STANDARD
 70
     0
  3

  4

  5

  6

  7

 40
1.0
 41
0.18
 42
0.0625
 43
0.38
 44
0.18
 45
0.0
 46
0.0
 47
0.0
 48
0.0
140
0.18
141
0.09
142
0.0
143
25.4
144
1.0
145
0.0
146
1.0
147
0.09
 71
     0
 72
     0
 73
     1
 74
     1
 75
     0
 76
     0
 77
     0
 78
     0
170
     0
171
     2
172
     0
173
     0
174
     0
175
     0
176
     0
177
     0
178
     0
270
     2
271
     4
272
     4
273
     2
274
     2
340
11
275
     0
280
     0
281
     0
282
     0
283
     1
284
     0
285
     0
286
     0
287
     3
288
     0
  0
ENDTAB
  0
TABLE
  2
BLOCK_RECORD
  5
1
330
0
100
AcDbSymbolTable
 70
     1
  0
BLOCK_RECORD
  5
1F
330
1
100
AcDbSymbolTableRecord
100
AcDbBlockTableRecord
  2
*MODEL_SPACE
  0
BLOCK_RECORD
  5
1B
330
1
100
AcDbSymbolTableRecord
100
AcDbBlockTableRecord
  2
*PAPER_SPACE
  0
ENDTAB
  0
ENDSEC
  0
SECTION
  2
BLOCKS
  0
BLOCK
  5
20
330
1F
100
AcDbEntity
  8
0
100
AcDbBlockBegin
  2
*MODEL_SPACE
 70
     0
 10
0.0
 20
0.0
 30
0.0
  3
*MODEL_SPACE
  1

  0
ENDBLK
  5
21
330
1F
100
AcDbEntity
  8
0
100
AcDbBlockEnd
  0
BLOCK
  5
1C
330
1B
100
AcDbEntity
 67
     1
  8
0
100
AcDbBlockBegin
  2
*PAPER_SPACE
 70
     0
 10
0.0
 20
0.0
 30
0.0
  3
*PAPER_SPACE
  1

  0
ENDBLK
  5
1D
330
1B
100
AcDbEntity
 67
     1
  8
0
100
AcDbBlockEnd
  0
ENDSEC
  0
SECTION
  2
ENTITIES
  0
LINE
  5
70
330
1F
100
AcDbEntity
  8
0
100
AcDbLine
 10
64.44938671027383
 20
-48.17233771473649
 30
0.0
 11
65.57373309971715
 21
-48.70141496531846
 31
0.0
  0
LINE
  5
71
330
1F
100
AcDbEntity
  8
0
100
AcDbLine
 10
65.57373309971715
 20
-48.70141496531846
 30
0.0
 11
66.75552464467452
 21
-49.08540231511662
 31
0.0
  0
LINE
  5
72
330
1F
100
AcDbEntity
  8
0
100
AcDbLine
 10
63.40021709055804
 20
-47.50651442766777
 30
0.0
 11
64.44938671027383
 21
-48.17233771473649
 31
0.0
  0
LINE
  5
73
330
1F
100
AcDbEntity
  8
0
100
AcDbLine
 10
59.49666761276173
 20
-41.35550469174847
 30
0.0
 11
59.8056919461554
 21
-42.5590750062329
 31
0.0
  0
LINE
  5
74
330
1F
100
AcDbEntity
  8
0
100
AcDbLine
 10
72.85882879551812
 20
-30.30136360769171
 30
0.0
 11
71.67703725056083
 21
-29.91737625789357
 31
0.0
  0
LINE
  5
75
330
1F
100
AcDbEntity
  8
0
100
AcDbLine
 10
60.86175842112372
 20
-34.19944806942475
 30
0.0
 11
60.26312688971546
 21
-35.28835478266581
 31
0.0
  0
LINE
  5
76
330
1F
100
AcDbEntity
  8
0
100
AcDbLine
 10
76.84041613171065
 20
-33.19415613640319
 30
0.0
 11
75.98979162301912
 21
-32.28833303791717
 31
0.0
  0
LINE
  5
77
330
1F
100
AcDbEntity
  8
0
100
AcDbLine
 10
77.57080347411154
 20
-34.19944806942471
 30
0.0
 11
76.84041613171065
 21
-33.19415613640319
 31
0.0
  0
LINE
  5
78
330
1F
100
AcDbEntity
  8
0
100
AcDbLine
 10
88.15562077583785
 20
-45.44072911472526
 30
0.0
 11
87.91724284194096
 21
-45.75138928650507
 31
0.0
  0
LINE
  5
79
330
1F
100
AcDbEntity
  8
0
100
AcDbLine
 10
73.98317518496144
 20
-30.83044085827366
 30
0.0
 11
72.85882879551812
 21
-30.30136360769171
 31
0.0
  0
LINE
  5
7A
330
1F
100
AcDbEntity
  8
0
100
AcDbLine
 10
84.76739220818399
 20
-10.88961785415886
 30
0.0
 11
84.91724284194102
 21
-11.25138928650507
 31
0.0
  0
LINE
  5
7B
330
1F
100
AcDbEntity
  8
0
100
AcDbLine
 10
84.71628094761768
 20
-10.50138928650506
 30
0.0
 11
84.76739220818399
 21
-10.88961785415886
 31
0.0
  0
LINE
  5
7C
330
1F
100
AcDbEntity
  8
0
100
AcDbLine
 10
60.26312688971546
 20
-35.28835478266581
 30
0.0
 11
59.8056919461554
 21
-36.44370356677724
 31
0.0
  0
LINE
  5
7D
330
1F
100
AcDbEntity
  8
0
100
AcDbLine
 10
84.76739220818399
 20
-10.1131607188513
 30
0.0
 11
84.71628094761768
 21
-10.50138928650506
 31
0.0
  0
LINE
  5
7E
330
1F
100
AcDbEntity
  8
0
100
AcDbLine
 10
59.49666761276173
 20
-37.64727388126167
 30
0.0
 11
59.34092738787433
 21
-38.88008470328166
 31
0.0
  0
LINE
  5
7F
330
1F
100
AcDbEntity
  8
0
100
AcDbLine
 10
67.97612378651374
 20
-29.68453451876849
 30
0.0
 11
66.75552464467444
 21
-29.91737625789357
 31
0.0
  0
LINE
  5
80
330
1F
100
AcDbEntity
  8
0
100
AcDbLine
 10
59.8056919461554
 20
-42.5590750062329
 30
0.0
 11
60.26312688971546
 21
-43.71442379034438
 31
0.0
  0
LINE
  5
81
330
1F
100
AcDbEntity
  8
0
100
AcDbLine
 10
75.03234480467722
 20
-31.49626414534237
 30
0.0
 11
73.98317518496144
 21
-30.83044085827366
 31
0.0
  0
LINE
  5
82
330
1F
100
AcDbEntity
  8
0
100
AcDbLine
 10
75.98979162301912
 20
-32.28833303791717
 30
0.0
 11
75.03234480467722
 21
-31.49626414534237
 31
0.0
  0
LINE
  5
83
330
1F
100
AcDbEntity
  8
0
100
AcDbLine
 10
78.1694350055198
 20
-35.28835478266576
 30
0.0
 11
77.57080347411154
 21
-34.19944806942471
 31
0.0
  0
LINE
  5
84
330
1F
100
AcDbEntity
  8
0
100
AcDbLine
 10
85.15562077583789
 20
-11.5620494582849
 30
0.0
 11
85.46628094761768
 21
-11.80042739218173
 31
0.0
  0
LINE
  5
85
330
1F
100
AcDbEntity
  8
0
100
AcDbLine
 10
78.62686994907988
 20
-36.4437035667772
 30
0.0
 11
78.1694350055198
 21
-35.28835478266576
 31
0.0
  0
LINE
  5
86
330
1F
100
AcDbEntity
  8
0
100
AcDbLine
 10
64.44938671027383
 20
-30.8304408582737
 30
0.0
 11
63.40021709055804
 21
-31.49626414534241
 31
0.0
  0
LINE
  5
87
330
1F
100
AcDbEntity
  8
0
100
AcDbLine
 10
78.93589428247354
 20
-37.64727388126167
 30
0.0
 11
78.62686994907988
 21
-36.4437035667772
 31
0.0
  0
LINE
  5
88
330
1F
100
AcDbEntity
  8
0
100
AcDbLine
 10
79.09163450736102
 20
-38.88008470328166
 30
0.0
 11
78.93589428247354
 21
-37.64727388126167
 31
0.0
  0
LINE
  5
89
330
1F
100
AcDbEntity
  8
0
100
AcDbLine
 10
79.09163450736102
 20
-40.12269386972844
 30
0.0
 11
79.09163450736102
 21
-38.88008470328166
 31
0.0
  0
LINE
  5
8A
330
1F
100
AcDbEntity
  8
0
100
AcDbLine
 10
88.82805237996384
 20
-47.95027802593869
 30
0.0
 11
89.21628094761765
 21
-48.00138928650508
 31
0.0
  0
LINE
  5
8B
330
1F
100
AcDbEntity
  8
0
100
AcDbLine
 10
78.93589428247354
 20
-41.35550469174847
 30
0.0
 11
79.09163450736102
 21
-40.12269386972844
 31
0.0
  0
LINE
  5
8C
330
1F
100
AcDbEntity
  8
0
100
AcDbLine
 10
87.91724284194096
 20
-45.75138928650507
 30
0.0
 11
87.76739220818403
 21
-46.1131607188513
 31
0.0
  0
LINE
  5
8D
330
1F
100
AcDbEntity
  8
0
100
AcDbLine
 10
70.45643810872153
 20
-29.68453451876849
 30
0.0
 11
69.21628094761759
 21
-29.60651044363538
 31
0.0
  0
LINE
  5
8E
330
1F
100
AcDbEntity
  8
0
100
AcDbLine
 10
88.46628094761772
 20
-45.20235118082841
 30
0.0
 11
88.15562077583785
 21
-45.44072911472526
 31
0.0
  0
LINE
  5
8F
330
1F
100
AcDbEntity
  8
0
100
AcDbLine
 10
86.21628094761769
 20
-9.001389286505082
 30
0.0
 11
85.82805237996389
 21
-9.052500547071455
 31
0.0
  0
LINE
  5
90
330
1F
100
AcDbEntity
  8
0
100
AcDbLine
 10
85.15562077583789
 20
-9.440729114725256
 30
0.0
 11
84.91724284194102
 21
-9.751389286505093
 31
0.0
  0
LINE
  5
91
330
1F
100
AcDbEntity
  8
0
100
AcDbLine
 10
87.76739220818403
 20
-46.88961785415886
 30
0.0
 11
87.91724284194096
 21
-47.25138928650509
 31
0.0
  0
LINE
  5
92
330
1F
100
AcDbEntity
  8
0
100
AcDbLine
 10
78.62686994907996
 20
-42.5590750062329
 30
0.0
 11
78.93589428247354
 21
-41.35550469174847
 31
0.0
  0
LINE
  5
93
330
1F
100
AcDbEntity
  8
0
100
AcDbLine
 10
88.15562077583785
 20
-47.5620494582849
 30
0.0
 11
88.46628094761763
 21
-47.80042739218173
 31
0.0
  0
LINE
  5
94
330
1F
100
AcDbEntity
  8
0
100
AcDbLine
 10
88.82805237996384
 20
-45.05250054707148
 30
0.0
 11
88.46628094761772
 21
-45.20235118082841
 31
0.0
  0
LINE
  5
95
330
1F
100
AcDbEntity
  8
0
100
AcDbLine
 10
90.71628094761766
 20
-48.00138928650508
 30
0.0
 11
90.71628094761766
 21
-48.73536388272064
 31
0.0
  0
LINE
  5
96
330
1F
100
AcDbEntity
  8
0
100
AcDbLine
 10
85.46628094761768
 20
-9.20235118082843
 30
0.0
 11
85.15562077583789
 21
-9.440729114725256
 31
0.0
  0
LINE
  5
97
330
1F
100
AcDbEntity
  8
0
100
AcDbLine
 10
60.26312688971546
 20
-43.71442379034438
 30
0.0
 11
60.86175842112372
 21
-44.80333050358544
 31
0.0
  0
LINE
  5
98
330
1F
100
AcDbEntity
  8
0
100
AcDbLine
 10
59.8056919461554
 20
-36.44370356677724
 30
0.0
 11
59.49666761276173
 21
-37.64727388126167
 31
0.0
  0
LINE
  5
99
330
1F
100
AcDbEntity
  8
0
100
AcDbLine
 10
87.7162809476177
 20
-46.50138928650508
 30
0.0
 11
87.76739220818403
 21
-46.88961785415886
 31
0.0
  0
LINE
  5
9A
330
1F
100
AcDbEntity
  8
0
100
AcDbLine
 10
59.34092738787433
 20
-38.88008470328166
 30
0.0
 11
59.34092738787433
 21
-40.12269386972848
 31
0.0
  0
LINE
  5
9B
330
1F
100
AcDbEntity
  8
0
100
AcDbLine
 10
-15.44124779203401
 20
-13.54645443500232
 30
0.0
 11
-12.7565690403022
 21
-11.99645443500231
 31
0.0
  0
LINE
  5
9C
330
1F
100
AcDbEntity
  8
0
100
AcDbLine
 10
59.34092738787433
 20
-40.12269386972848
 30
0.0
 11
59.49666761276173
 21
-41.35550469174847
 31
0.0
  0
LINE
  5
9D
330
1F
100
AcDbEntity
  8
0
100
AcDbLine
 10
89.21628094761765
 20
-49.60138928650507
 30
0.0
 11
90.71628094761766
 21
-48.73536388272064
 31
0.0
  0
LINE
  5
9E
330
1F
100
AcDbEntity
  8
0
100
AcDbLine
 10
60.86175842112372
 20
-44.80333050358544
 30
0.0
 11
61.59214576352461
 21
-45.80862243660697
 31
0.0
  0
LINE
  5
9F
330
1F
100
AcDbEntity
  8
0
100
AcDbLine
 10
62.44277027221624
 20
-32.28833303791722
 30
0.0
 11
61.59214576352461
 21
-33.19415613640319
 31
0.0
  0
LINE
  5
A0
330
1F
100
AcDbEntity
  8
0
100
AcDbLine
 10
63.40021709055804
 20
-31.49626414534241
 30
0.0
 11
62.44277027221624
 21
-32.28833303791722
 31
0.0
  0
LINE
  5
A1
330
1F
100
AcDbEntity
  8
0
100
AcDbLine
 10
65.57373309971715
 20
-30.30136360769171
 30
0.0
 11
64.44938671027383
 21
-30.8304408582737
 31
0.0
  0
LINE
  5
A2
330
1F
100
AcDbEntity
  8
0
100
AcDbLine
 10
88.46628094761763
 20
-47.80042739218173
 30
0.0
 11
88.82805237996384
 21
-47.95027802593869
 31
0.0
  0
LINE
  5
A3
330
1F
100
AcDbEntity
  8
0
100
AcDbLine
 10
66.75552464467444
 20
-29.91737625789357
 30
0.0
 11
65.57373309971715
 21
-30.30136360769171
 31
0.0
  0
LINE
  5
A4
330
1F
100
AcDbEntity
  8
0
100
AcDbLine
 10
69.21628094761759
 20
-29.60651044363538
 30
0.0
 11
67.97612378651374
 21
-29.68453451876849
 31
0.0
  0
LINE
  5
A5
330
1F
100
AcDbEntity
  8
0
100
AcDbLine
 10
89.21628094761765
 20
-45.00138928650506
 30
0.0
 11
88.82805237996384
 21
-45.05250054707148
 31
0.0
  0
LINE
  5
A6
330
1F
100
AcDbEntity
  8
0
100
AcDbLine
 10
84.91724284194102
 20
-11.25138928650507
 30
0.0
 11
85.15562077583789
 21
-11.5620494582849
 31
0.0
  0
LINE
  5
A7
330
1F
100
AcDbEntity
  8
0
100
AcDbLine
 10
71.67703725056083
 20
-29.91737625789357
 30
0.0
 11
70.45643810872153
 21
-29.68453451876849
 31
0.0
  0
LINE
  5
A8
330
1F
100
AcDbEntity
  8
0
100
AcDbLine
 10
85.82805237996389
 20
-11.95027802593866
 30
0.0
 11
86.21628094761769
 21
-12.00138928650508
 31
0.0
  0
LINE
  5
A9
330
1F
100
AcDbEntity
  8
0
100
AcDbLine
 10
87.91724284194096
 20
-47.25138928650509
 30
0.0
 11
88.15562077583785
 21
-47.5620494582849
 31
0.0
  0
LINE
  5
AA
330
1F
100
AcDbEntity
  8
0
100
AcDbLine
 10
61.59214576352461
 20
-33.19415613640319
 30
0.0
 11
60.86175842112372
 21
-34.19944806942475
 31
0.0
  0
LINE
  5
AB
330
1F
100
AcDbEntity
  8
0
100
AcDbLine
 10
78.1694350055198
 20
-43.71442379034433
 30
0.0
 11
78.62686994907996
 21
-42.5590750062329
 31
0.0
  0
LINE
  5
AC
330
1F
100
AcDbEntity
  8
0
100
AcDbLine
 10
77.57080347411163
 20
-44.80333050358539
 30
0.0
 11
78.1694350055198
 21
-43.71442379034433
 31
0.0
  0
LINE
  5
AD
330
1F
100
AcDbEntity
  8
0
100
AcDbLine
 10
76.84041613171075
 20
-45.80862243660695
 30
0.0
 11
77.57080347411163
 21
-44.80333050358539
 31
0.0
  0
LINE
  5
AE
330
1F
100
AcDbEntity
  8
0
100
AcDbLine
 10
75.03234480467731
 20
-47.50651442766775
 30
0.0
 11
75.98979162301912
 21
-46.71444553509295
 31
0.0
  0
LINE
  5
AF
330
1F
100
AcDbEntity
  8
0
100
AcDbLine
 10
73.98317518496144
 20
-48.17233771473646
 30
0.0
 11
75.03234480467731
 21
-47.50651442766775
 31
0.0
  0
LINE
  5
B0
330
1F
100
AcDbEntity
  8
0
100
AcDbLine
 10
72.85882879551812
 20
-48.70141496531843
 30
0.0
 11
73.98317518496144
 21
-48.17233771473646
 31
0.0
  0
LINE
  5
B1
330
1F
100
AcDbEntity
  8
0
100
AcDbLine
 10
71.67703725056083
 20
-49.08540231511662
 30
0.0
 11
72.85882879551812
 21
-48.70141496531843
 31
0.0
  0
LINE
  5
B2
330
1F
100
AcDbEntity
  8
0
100
AcDbLine
 10
70.45643810872153
 20
-49.31824405424167
 30
0.0
 11
71.67703725056083
 21
-49.08540231511662
 31
0.0
  0
LINE
  5
B3
330
1F
100
AcDbEntity
  8
0
100
AcDbLine
 10
69.21628094761768
 20
-49.39626812937476
 30
0.0
 11
70.45643810872153
 21
-49.31824405424167
 31
0.0
  0
LINE
  5
B4
330
1F
100
AcDbEntity
  8
0
100
AcDbLine
 10
67.97612378651374
 20
-49.31824405424167
 30
0.0
 11
69.21628094761768
 21
-49.39626812937476
 31
0.0
  0
LINE
  5
B5
330
1F
100
AcDbEntity
  8
0
100
AcDbLine
 10
66.75552464467452
 20
-49.08540231511662
 30
0.0
 11
67.97612378651374
 21
-49.31824405424167
 31
0.0
  0
LINE
  5
B6
330
1F
100
AcDbEntity
  8
0
100
AcDbLine
 10
62.44277027221624
 20
-46.71444553509297
 30
0.0
 11
63.40021709055804
 21
-47.50651442766777
 31
0.0
  0
LINE
  5
B7
330
1F
100
AcDbEntity
  8
0
100
AcDbLine
 10
86.53160219588584
 20
-44.95138928650508
 30
0.0
 11
86.53160219588584
 21
-48.05138928650509
 31
0.0
  0
LINE
  5
B8
330
1F
100
AcDbEntity
  8
0
100
AcDbLine
 10
89.21628094761765
 20
-43.40138928650507
 30
0.0
 11
86.53160219588584
 21
-44.95138928650508
 31
0.0
  0
LINE
  5
B9
330
1F
100
AcDbEntity
  8
0
100
AcDbLine
 10
90.71628094761766
 20
-44.2674146902895
 30
0.0
 11
89.21628094761765
 21
-43.40138928650507
 31
0.0
  0
LINE
  5
BA
330
1F
100
AcDbEntity
  8
0
100
AcDbLine
 10
90.71628094761766
 20
-45.00138928650506
 30
0.0
 11
90.71628094761766
 21
-44.2674146902895
 31
0.0
  0
LINE
  5
BB
330
1F
100
AcDbEntity
  8
0
100
AcDbLine
 10
89.21628094761765
 20
-45.00138928650506
 30
0.0
 11
90.71628094761766
 21
-45.00138928650506
 31
0.0
  0
LINE
  5
BC
330
1F
100
AcDbEntity
  8
0
100
AcDbLine
 10
87.76739220818403
 20
-46.1131607188513
 30
0.0
 11
87.7162809476177
 21
-46.50138928650508
 31
0.0
  0
LINE
  5
BD
330
1F
100
AcDbEntity
  8
0
100
AcDbLine
 10
89.21628094761765
 20
-48.00138928650508
 30
0.0
 11
90.71628094761766
 21
-48.00138928650508
 31
0.0
  0
LINE
  5
BE
330
1F
100
AcDbEntity
  8
0
100
AcDbLine
 10
29.41907674312843
 20
-39.70418508201586
 30
0.0
 11
32.83582712898308
 21
-35.25138928650512
 31
0.0
  0
LINE
  5
BF
330
1F
100
AcDbEntity
  8
0
100
AcDbLine
 10
-8.404395364032853
 20
-35.14587157563189
 30
0.0
 11
-6.891917189932713
 21
-37.89705916097998
 31
0.0
  0
LINE
  5
C0
330
1F
100
AcDbEntity
  8
0
100
AcDbLine
 10
87.7162809476177
 20
-12.00138928650508
 30
0.0
 11
87.7162809476177
 21
-12.73536388272055
 31
0.0
  0
LINE
  5
C1
330
1F
100
AcDbEntity
  8
0
100
AcDbLine
 10
2.172439095074818
 20
-46.40905628760169
 30
0.0
 11
5.013167130500745
 21
-47.74580143371136
 31
0.0
  0
LINE
  5
C2
330
1F
100
AcDbEntity
  8
0
100
AcDbLine
 10
28.91091225492956
 20
-44.72681414587872
 30
0.0
 11
31.3299585958349
 21
-42.72560497204031
 31
0.0
  0
LINE
  5
C3
330
1F
100
AcDbEntity
  8
0
100
AcDbLine
 10
86.21628094761769
 20
-9.001389286505082
 30
0.0
 11
87.7162809476177
 21
-9.001389286505082
 31
0.0
  0
LINE
  5
C4
330
1F
100
AcDbEntity
  8
0
100
AcDbLine
 10
37.9926938549965
 20
-32.22681414587868
 30
0.0
 11
38.77346221583493
 21
-29.18592215114815
 31
0.0
  0
LINE
  5
C5
330
1F
100
AcDbEntity
  8
0
100
AcDbLine
 10
37.9926938549965
 20
-16.7759644271313
 30
0.0
 11
36.83695725926813
 21
-13.85690699737818
 31
0.0
  0
LINE
  5
C6
330
1F
100
AcDbEntity
  8
0
100
AcDbLine
 10
-0.4783503596941915
 20
-4.275964427131389
 30
0.0
 11
-2.897396700599529
 21
-6.277173600969799
 31
0.0
  0
LINE
  5
C7
330
1F
100
AcDbEntity
  8
0
100
AcDbLine
 10
2.172439095074818
 20
-2.593722285408468
 30
0.0
 11
-0.4783503596941915
 21
-4.275964427131389
 31
0.0
  0
LINE
  5
C8
330
1F
100
AcDbEntity
  8
0
100
AcDbLine
 10
-10.73438726308912
 20
-22.93162629827222
 30
0.0
 11
-10.73438726308912
 21
-26.07115227473788
 31
0.0
  0
LINE
  5
C9
330
1F
100
AcDbEntity
  8
0
100
AcDbLine
 10
-6.551124317597268
 20
-30.06599875620929
 30
0.0
 11
-4.403265233747794
 21
-35.25138928650507
 31
0.0
  0
LINE
  5
CA
330
1F
100
AcDbEntity
  8
0
100
AcDbLine
 10
32.83582712898308
 20
-13.75138928650508
 30
0.0
 11
29.41907674312843
 21
-9.29859349099429
 31
0.0
  0
LINE
  5
CB
330
1F
100
AcDbEntity
  8
0
100
AcDbLine
 10
88.38949431484593
 20
-24.32282054061342
 30
0.0
 11
90.0777609991283
 21
-25.02212349814583
 31
0.0
  0
LINE
  5
CC
330
1F
100
AcDbEntity
  8
0
100
AcDbLine
 10
33.47911201701233
 20
-8.565789542787767
 30
0.0
 11
31.32995859583481
 21
-6.277173600969708
 31
0.0
  0
LINE
  5
CD
330
1F
100
AcDbEntity
  8
0
100
AcDbLine
 10
-6.891917189932713
 20
-37.89705916097998
 30
0.0
 11
-5.046550121777053
 21
-40.43698903022234
 31
0.0
  0
LINE
  5
CE
330
1F
100
AcDbEntity
  8
0
100
AcDbLine
 10
38.77346221583493
 20
-29.18592215114815
 30
0.0
 11
39.1669491583245
 21
-26.07115227473784
 31
0.0
  0
LINE
  5
CF
330
1F
100
AcDbEntity
  8
0
100
AcDbLine
 10
35.71628094761772
 20
-24.50138928650508
 30
0.0
 11
34.98368621283264
 21
-18.93677981680091
 31
0.0
  0
LINE
  5
D0
330
1F
100
AcDbEntity
  8
0
100
AcDbLine
 10
86.93974684654006
 20
-23.21039018242818
 30
0.0
 11
88.38949431484593
 21
-24.32282054061342
 31
0.0
  0
LINE
  5
D1
330
1F
100
AcDbEntity
  8
0
100
AcDbLine
 10
85.12801353082241
 20
-20.07237602983999
 30
0.0
 11
85.82731648835487
 21
-21.76064271412235
 31
0.0
  0
LINE
  5
D2
330
1F
100
AcDbEntity
  8
0
100
AcDbLine
 10
85.12801353082241
 20
-16.44890939840469
 30
0.0
 11
84.88949431484592
 21
-18.26064271412234
 31
0.0
  0
LINE
  5
D3
330
1F
100
AcDbEntity
  8
0
100
AcDbLine
 10
87.7162809476177
 20
-9.001389286505082
 30
0.0
 11
87.7162809476177
 21
-8.524841141618024
 31
0.0
  0
LINE
  5
D4
330
1F
100
AcDbEntity
  8
0
100
AcDbLine
 10
39.16694915832441
 20
-22.93162629827218
 30
0.0
 11
38.77346221583484
 21
-19.81685642186187
 31
0.0
  0
LINE
  5
D5
330
1F
100
AcDbEntity
  8
0
100
AcDbLine
 10
35.32447908516809
 20
-37.89705916097993
 30
0.0
 11
36.83695725926822
 21
-35.14587157563184
 31
0.0
  0
LINE
  5
D6
330
1F
100
AcDbEntity
  8
0
100
AcDbLine
 10
11.08295010851009
 20
-49.30425681936703
 30
0.0
 11
14.21628094761773
 21
-49.50138928650507
 31
0.0
  0
LINE
  5
D7
330
1F
100
AcDbEntity
  8
0
100
AcDbLine
 10
36.83695725926822
 20
-35.14587157563184
 30
0.0
 11
37.9926938549965
 21
-32.22681414587868
 31
0.0
  0
LINE
  5
D8
330
1F
100
AcDbEntity
  8
0
100
AcDbLine
 10
20.43352812673894
 20
-0.2868102582892779
 30
0.0
 11
17.34961178672519
 21
0.3014782463568802
 31
0.0
  0
LINE
  5
D9
330
1F
100
AcDbEntity
  8
0
100
AcDbLine
 10
85.82731648835487
 20
-14.76064271412232
 30
0.0
 11
85.12801353082241
 21
-16.44890939840469
 31
0.0
  0
LINE
  5
DA
330
1F
100
AcDbEntity
  8
0
100
AcDbLine
 10
26.26012280016056
 20
-46.40905628760164
 30
0.0
 11
28.91091225492956
 21
-44.72681414587872
 31
0.0
  0
LINE
  5
DB
330
1F
100
AcDbEntity
  8
0
100
AcDbLine
 10
90.0777609991283
 20
-25.02212349814583
 30
0.0
 11
90.71628094761766
 21
-25.10618624412385
 31
0.0
  0
LINE
  5
DC
330
1F
100
AcDbEntity
  8
0
100
AcDbLine
 10
20.43352812673912
 20
-48.71596831472083
 30
0.0
 11
23.41939476473463
 21
-47.74580143371134
 31
0.0
  0
LINE
  5
DD
330
1F
100
AcDbEntity
  8
0
100
AcDbLine
 10
-5.046550121777053
 20
-40.43698903022234
 30
0.0
 11
-4.047011749919411
 21
-41.50138928650509
 31
0.0
  0
LINE
  5
DE
330
1F
100
AcDbEntity
  8
0
100
AcDbLine
 10
-10.34090032059956
 20
-19.81685642186196
 30
0.0
 11
-10.73438726308912
 21
-22.93162629827222
 31
0.0
  0
LINE
  5
DF
330
1F
100
AcDbEntity
  8
0
100
AcDbLine
 10
17.34961178672528
 20
-49.30425681936701
 30
0.0
 11
20.43352812673912
 21
-48.71596831472083
 31
0.0
  0
LINE
  5
E0
330
1F
100
AcDbEntity
  8
0
100
AcDbLine
 10
86.93974684654006
 20
-13.31089524581649
 30
0.0
 11
85.82731648835487
 21
-14.76064271412232
 31
0.0
  0
LINE
  5
E1
330
1F
100
AcDbEntity
  8
0
100
AcDbLine
 10
86.21628094761769
 20
-12.00138928650508
 30
0.0
 11
87.7162809476177
 21
-12.00138928650508
 31
0.0
  0
LINE
  5
E2
330
1F
100
AcDbEntity
  8
0
100
AcDbLine
 10
-5.046550121777053
 20
-8.565789542787813
 30
0.0
 11
-6.891917189932713
 21
-11.10571941203018
 31
0.0
  0
LINE
  5
E3
330
1F
100
AcDbEntity
  8
0
100
AcDbLine
 10
31.32995859583481
 20
-6.277173600969708
 30
0.0
 11
28.91091225492939
 21
-4.275964427131344
 31
0.0
  0
LINE
  5
E4
330
1F
100
AcDbEntity
  8
0
100
AcDbLine
 10
36.83695725926813
 20
-13.85690699737818
 30
0.0
 11
35.32447908516799
 21
-11.10571941203009
 31
0.0
  0
LINE
  5
E5
330
1F
100
AcDbEntity
  8
0
100
AcDbLine
 10
-10.34090032059956
 20
-29.1859221511482
 30
0.0
 11
-9.56013195976122
 21
-32.22681414587876
 31
0.0
  0
LINE
  5
E6
330
1F
100
AcDbEntity
  8
0
100
AcDbLine
 10
-2.897396700599529
 20
-6.277173600969799
 30
0.0
 11
-5.046550121777053
 21
-8.565789542787813
 31
0.0
  0
LINE
  5
E7
330
1F
100
AcDbEntity
  8
0
100
AcDbLine
 10
31.3299585958349
 20
-42.72560497204031
 30
0.0
 11
33.47911201701243
 21
-40.43698903022229
 31
0.0
  0
LINE
  5
E8
330
1F
100
AcDbEntity
  8
0
100
AcDbLine
 10
14.21628094761764
 20
-3.001389286505048
 30
0.0
 11
8.651671477913428
 21
-3.733984021290123
 31
0.0
  0
LINE
  5
E9
330
1F
100
AcDbEntity
  8
0
100
AcDbLine
 10
35.32447908516799
 20
-11.10571941203009
 30
0.0
 11
33.47911201701233
 21
-8.565789542787767
 31
0.0
  0
LINE
  5
EA
330
1F
100
AcDbEntity
  8
0
100
AcDbLine
 10
-8.404395364032853
 20
-13.85690699737827
 30
0.0
 11
-9.56013195976113
 21
-16.77596442713139
 31
0.0
  0
LINE
  5
EB
330
1F
100
AcDbEntity
  8
0
100
AcDbLine
 10
23.41939476473454
 20
-1.256977139298743
 30
0.0
 11
20.43352812673894
 21
-0.2868102582892779
 31
0.0
  0
LINE
  5
EC
330
1F
100
AcDbEntity
  8
0
100
AcDbLine
 10
33.47911201701243
 20
-40.43698903022229
 30
0.0
 11
35.32447908516809
 21
-37.89705916097993
 31
0.0
  0
LINE
  5
ED
330
1F
100
AcDbEntity
  8
0
100
AcDbLine
 10
38.77346221583484
 20
-19.81685642186187
 30
0.0
 11
37.9926938549965
 21
-16.7759644271313
 31
0.0
  0
LINE
  5
EE
330
1F
100
AcDbEntity
  8
0
100
AcDbLine
 10
-10.73438726308912
 20
-26.07115227473788
 30
0.0
 11
-10.34090032059956
 21
-29.1859221511482
 31
0.0
  0
LINE
  5
EF
330
1F
100
AcDbEntity
  8
0
100
AcDbLine
 10
5.013167130500745
 20
-47.74580143371136
 30
0.0
 11
7.999033768496344
 21
-48.71596831472085
 31
0.0
  0
LINE
  5
F0
330
1F
100
AcDbEntity
  8
0
100
AcDbLine
 10
84.88949431484592
 20
-18.26064271412234
 30
0.0
 11
85.12801353082241
 21
-20.07237602983999
 31
0.0
  0
LINE
  5
F1
330
1F
100
AcDbEntity
  8
0
100
AcDbLine
 10
23.41939476473463
 20
-47.74580143371134
 30
0.0
 11
26.26012280016056
 21
-46.40905628760164
 31
0.0
  0
LINE
  5
F2
330
1F
100
AcDbEntity
  8
0
100
AcDbLine
 10
5.013167130500745
 20
-1.256977139298788
 30
0.0
 11
2.172439095074818
 21
-2.593722285408468
 31
0.0
  0
LINE
  5
F3
330
1F
100
AcDbEntity
  8
0
100
AcDbLine
 10
-6.891917189932713
 20
-11.10571941203018
 30
0.0
 11
-8.404395364032853
 21
-13.85690699737827
 31
0.0
  0
LINE
  5
F4
330
1F
100
AcDbEntity
  8
0
100
AcDbLine
 10
-9.56013195976113
 20
-16.77596442713139
 30
0.0
 11
-10.34090032059956
 21
-19.81685642186196
 31
0.0
  0
LINE
  5
F5
330
1F
100
AcDbEntity
  8
0
100
AcDbLine
 10
85.82731648835487
 20
-21.76064271412235
 30
0.0
 11
86.93974684654006
 21
-23.21039018242818
 31
0.0
  0
LINE
  5
F6
330
1F
100
AcDbEntity
  8
0
100
AcDbLine
 10
-0.9865148478931468
 20
-9.29859349099429
 30
0.0
 11
-4.403265233747794
 21
-13.75138928650508
 31
0.0
  0
LINE
  5
F7
330
1F
100
AcDbEntity
  8
0
100
AcDbLine
 10
7.999033768496344
 20
-48.71596831472085
 30
0.0
 11
11.08295010851009
 21
-49.30425681936703
 31
0.0
  0
LINE
  5
F8
330
1F
100
AcDbEntity
  8
0
100
AcDbLine
 10
-15.39475459311948
 20
-14.76064271412237
 30
0.0
 11
-16.50718495130467
 21
-13.31089524581654
 31
0.0
  0
LINE
  5
F9
330
1F
100
AcDbEntity
  8
0
100
AcDbLine
 10
19.78089041732185
 20
-3.733984021290123
 30
0.0
 11
14.21628094761764
 21
-3.001389286505048
 31
0.0
  0
LINE
  5
FA
330
1F
100
AcDbEntity
  8
0
100
AcDbLine
 10
57.31628094761768
 20
-51.00138928650505
 30
0.0
 11
57.14250266169191
 21
-49.6814121564822
 31
0.0
  0
LINE
  5
FB
330
1F
100
AcDbEntity
  8
0
100
AcDbLine
 10
34.98368621283264
 20
-30.06599875620929
 30
0.0
 11
35.71628094761772
 21
-24.50138928650508
 31
0.0
  0
LINE
  5
FC
330
1F
100
AcDbEntity
  8
0
100
AcDbLine
 10
-21.45693241961056
 20
-25.26064271412242
 30
0.0
 11
-19.64519910389291
 21
-25.02212349814588
 31
0.0
  0
LINE
  5
FD
330
1F
100
AcDbEntity
  8
0
100
AcDbLine
 10
49.66628094761762
 20
-46.5846597272044
 30
0.0
 11
48.61003636356625
 21
-47.39514470245366
 31
0.0
  0
LINE
  5
FE
330
1F
100
AcDbEntity
  8
0
100
AcDbLine
 10
19.78089041732185
 20
-45.26879455172005
 30
0.0
 11
24.96628094761763
 21
-43.12093546787051
 31
0.0
  0
LINE
  5
FF
330
1F
100
AcDbEntity
  8
0
100
AcDbLine
 10
52.21628094761766
 20
-45.90138928650504
 30
0.0
 11
50.89630381759474
 21
-46.0751675724308
 31
0.0
  0
LINE
  5
100
330
1F
100
AcDbEntity
  8
0
100
AcDbLine
 10
55.82252553166908
 20
-47.39514470245366
 30
0.0
 11
54.76628094761762
 21
-46.5846597272044
 31
0.0
  0
LINE
  5
101
330
1F
100
AcDbEntity
  8
0
100
AcDbLine
 10
3.466280947617649
 20
-43.12093546787051
 30
0.0
 11
8.651671477913428
 21
-45.26879455172005
 31
0.0
  0
LINE
  5
102
330
1F
100
AcDbEntity
  8
0
100
AcDbLine
 10
-15.39475459311948
 20
-21.7606427141224
 30
0.0
 11
-14.69545163558702
 21
-20.07237602984003
 31
0.0
  0
LINE
  5
103
330
1F
100
AcDbEntity
  8
0
100
AcDbLine
 10
50.71628094761764
 20
-51.00138928650505
 30
0.0
 11
50.71628094761764
 21
-52.50138928650505
 31
0.0
  0
LINE
  5
104
330
1F
100
AcDbEntity
  8
0
100
AcDbLine
 10
53.71628094761768
 20
-52.50138928650505
 30
0.0
 11
54.90095969934938
 21
-52.50138928650505
 31
0.0
  0
LINE
  5
105
330
1F
100
AcDbEntity
  8
0
100
AcDbLine
 10
-16.50718495130467
 20
-13.31089524581654
 30
0.0
 11
-16.94124779203403
 21
-12.9778271136461
 31
0.0
  0
LINE
  5
106
330
1F
100
AcDbEntity
  8
0
100
AcDbLine
 10
32.83582712898308
 20
-35.25138928650512
 30
0.0
 11
34.98368621283264
 21
-30.06599875620929
 31
0.0
  0
LINE
  5
107
330
1F
100
AcDbEntity
  8
0
100
AcDbLine
 10
-7.283719052382343
 20
-24.50138928650508
 30
0.0
 11
-6.551124317597268
 21
-30.06599875620929
 31
0.0
  0
LINE
  5
108
330
1F
100
AcDbEntity
  8
0
100
AcDbLine
 10
54.90095969934938
 20
-52.50138928650505
 30
0.0
 11
57.52397325531
 21
-52.50138928650505
 31
0.0
  0
LINE
  5
109
330
1F
100
AcDbEntity
  8
0
100
AcDbLine
 10
-4.403265233747794
 20
-35.25138928650507
 30
0.0
 11
-0.9865148478931468
 21
-39.70418508201586
 31
0.0
  0
LINE
  5
10A
330
1F
100
AcDbEntity
  8
0
100
AcDbLine
 10
-14.69545163558702
 20
-16.44890939840474
 30
0.0
 11
-15.14130402426966
 21
-15.37252651483062
 31
0.0
  0
LINE
  5
10B
330
1F
100
AcDbEntity
  8
0
100
AcDbLine
 10
8.651671477913428
 20
-3.733984021290123
 30
0.0
 11
3.466280947617649
 21
-5.881843105139643
 31
0.0
  0
LINE
  5
10C
330
1F
100
AcDbEntity
  8
0
100
AcDbLine
 10
-19.64519910389291
 20
-25.02212349814588
 30
0.0
 11
-17.95693241961054
 21
-24.32282054061346
 31
0.0
  0
LINE
  5
10D
330
1F
100
AcDbEntity
  8
0
100
AcDbLine
 10
47.79955138831699
 20
-48.45138928650504
 30
0.0
 11
47.29005923354342
 21
-49.6814121564822
 31
0.0
  0
LINE
  5
10E
330
1F
100
AcDbEntity
  8
0
100
AcDbLine
 10
8.651671477913428
 20
-45.26879455172005
 30
0.0
 11
14.21628094761764
 21
-46.00138928650508
 31
0.0
  0
LINE
  5
10F
330
1F
100
AcDbEntity
  8
0
100
AcDbLine
 10
24.96628094761772
 20
-5.881843105139643
 30
0.0
 11
19.78089041732185
 21
-3.733984021290123
 31
0.0
  0
LINE
  5
110
330
1F
100
AcDbEntity
  8
0
100
AcDbLine
 10
53.5362580776405
 20
-46.0751675724308
 30
0.0
 11
52.21628094761766
 21
-45.90138928650504
 31
0.0
  0
LINE
  5
111
330
1F
100
AcDbEntity
  8
0
100
AcDbLine
 10
-16.50718495130467
 20
-23.21039018242823
 30
0.0
 11
-15.39475459311948
 21
-21.7606427141224
 31
0.0
  0
LINE
  5
112
330
1F
100
AcDbEntity
  8
0
100
AcDbLine
 10
48.61003636356625
 20
-47.39514470245366
 30
0.0
 11
47.79955138831699
 21
-48.45138928650504
 31
0.0
  0
LINE
  5
113
330
1F
100
AcDbEntity
  8
0
100
AcDbLine
 10
-6.551124317597268
 20
-18.93677981680086
 30
0.0
 11
-7.283719052382343
 21
-24.50138928650508
 31
0.0
  0
LINE
  5
114
330
1F
100
AcDbEntity
  8
0
100
AcDbLine
 10
54.76628094761762
 20
-46.5846597272044
 30
0.0
 11
53.5362580776405
 21
-46.0751675724308
 31
0.0
  0
LINE
  5
115
330
1F
100
AcDbEntity
  8
0
100
AcDbLine
 10
3.466280947617649
 20
-5.881843105139643
 30
0.0
 11
-0.9865148478931468
 21
-9.29859349099429
 31
0.0
  0
LINE
  5
116
330
1F
100
AcDbEntity
  8
0
100
AcDbLine
 10
34.98368621283264
 20
-18.93677981680091
 30
0.0
 11
32.83582712898308
 21
-13.75138928650508
 31
0.0
  0
LINE
  5
117
330
1F
100
AcDbEntity
  8
0
100
AcDbLine
 10
14.21628094761764
 20
-46.00138928650508
 30
0.0
 11
19.78089041732185
 21
-45.26879455172005
 31
0.0
  0
LINE
  5
118
330
1F
100
AcDbEntity
  8
0
100
AcDbLine
 10
-14.45693241961053
 20
-18.26064271412238
 30
0.0
 11
-14.69545163558702
 21
-16.44890939840474
 31
0.0
  0
LINE
  5
119
330
1F
100
AcDbEntity
  8
0
100
AcDbLine
 10
52.21628094761766
 20
-47.90138928650506
 30
0.0
 11
49.53160219588586
 21
-49.45138928650504
 31
0.0
  0
LINE
  5
11A
330
1F
100
AcDbEntity
  8
0
100
AcDbLine
 10
50.89630381759474
 20
-46.0751675724308
 30
0.0
 11
49.66628094761762
 21
-46.5846597272044
 31
0.0
  0
LINE
  5
11B
330
1F
100
AcDbEntity
  8
0
100
AcDbLine
 10
-4.403265233747794
 20
-13.75138928650508
 30
0.0
 11
-6.551124317597268
 21
-18.93677981680086
 31
0.0
  0
LINE
  5
11C
330
1F
100
AcDbEntity
  8
0
100
AcDbLine
 10
56.63301050691833
 20
-48.45138928650504
 30
0.0
 11
55.82252553166908
 21
-47.39514470245366
 31
0.0
  0
LINE
  5
11D
330
1F
100
AcDbEntity
  8
0
100
AcDbLine
 10
57.14250266169191
 20
-49.6814121564822
 30
0.0
 11
56.63301050691833
 21
-48.45138928650504
 31
0.0
  0
LINE
  5
11E
330
1F
100
AcDbEntity
  8
0
100
AcDbLine
 10
57.52397325531
 20
-52.50138928650505
 30
0.0
 11
57.31628094761768
 21
-51.00138928650505
 31
0.0
  0
LINE
  5
11F
330
1F
100
AcDbEntity
  8
0
100
AcDbLine
 10
-14.69545163558702
 20
-20.07237602984003
 30
0.0
 11
-14.45693241961053
 21
-18.26064271412238
 31
0.0
  0
LINE
  5
120
330
1F
100
AcDbEntity
  8
0
100
AcDbLine
 10
-15.14130402426966
 20
-15.37252651483062
 30
0.0
 11
-15.39475459311948
 21
-14.76064271412237
 31
0.0
  0
LINE
  5
121
330
1F
100
AcDbEntity
  8
0
100
AcDbLine
 10
50.71628094761764
 20
-52.50138928650505
 30
0.0
 11
49.53160219588586
 21
-52.50138928650505
 31
0.0
  0
LINE
  5
122
330
1F
100
AcDbEntity
  8
0
100
AcDbLine
 10
53.71628094761768
 20
-51.00138928650505
 30
0.0
 11
53.71628094761768
 21
-52.50138928650505
 31
0.0
  0
LINE
  5
123
330
1F
100
AcDbEntity
  8
0
100
AcDbLine
 10
29.41907674312843
 20
-9.29859349099429
 30
0.0
 11
24.96628094761772
 21
-5.881843105139643
 31
0.0
  0
LINE
  5
124
330
1F
100
AcDbEntity
  8
0
100
AcDbLine
 10
54.90095969934938
 20
-49.45138928650506
 30
0.0
 11
52.21628094761766
 21
-47.90138928650506
 31
0.0
  0
LINE
  5
125
330
1F
100
AcDbEntity
  8
0
100
AcDbLine
 10
14.21628094761773
 20
-49.50138928650507
 30
0.0
 11
17.34961178672528
 21
-49.30425681936701
 31
0.0
  0
LINE
  5
126
330
1F
100
AcDbEntity
  8
0
100
AcDbLine
 10
49.53160219588586
 20
-52.50138928650505
 30
0.0
 11
46.90858863992533
 21
-52.50138928650505
 31
0.0
  0
LINE
  5
127
330
1F
100
AcDbEntity
  8
0
100
AcDbLine
 10
47.29005923354342
 20
-49.6814121564822
 30
0.0
 11
47.11628094761765
 21
-51.00138928650505
 31
0.0
  0
LINE
  5
128
330
1F
100
AcDbEntity
  8
0
100
AcDbLine
 10
24.96628094761763
 20
-43.12093546787051
 30
0.0
 11
29.41907674312843
 21
-39.70418508201586
 31
0.0
  0
LINE
  5
129
330
1F
100
AcDbEntity
  8
0
100
AcDbLine
 10
28.91091225492939
 20
-4.275964427131344
 30
0.0
 11
26.26012280016047
 21
-2.593722285408423
 31
0.0
  0
LINE
  5
12A
330
1F
100
AcDbEntity
  8
0
100
AcDbLine
 10
22.14981435053003
 20
-18.41377499641787
 30
0.0
 11
21.28734875948313
 21
-17.43032147463963
 31
0.0
  0
LINE
  5
12B
330
1F
100
AcDbEntity
  8
0
100
AcDbLine
 10
21.28734875948313
 20
-17.43032147463963
 30
0.0
 11
20.30389523770485
 21
-16.56785588359273
 31
0.0
  0
LINE
  5
12C
330
1F
100
AcDbEntity
  8
0
100
AcDbLine
 10
18.04311527126856
 20
-33.74018461161796
 30
0.0
 11
19.21628094761768
 21
-33.16164332434946
 31
0.0
  0
LINE
  5
12D
330
1F
100
AcDbEntity
  8
0
100
AcDbLine
 10
51.82805237996386
 20
-49.55250054707145
 30
0.0
 11
51.46628094761765
 21
-49.7023511808284
 31
0.0
  0
LINE
  5
12E
330
1F
100
AcDbEntity
  8
0
100
AcDbLine
 10
51.15562077583786
 20
-49.94072911472523
 30
0.0
 11
50.91724284194099
 21
-50.25138928650507
 31
0.0
  0
LINE
  5
12F
330
1F
100
AcDbEntity
  8
0
100
AcDbLine
 10
22.87653498546207
 20
-29.50138928650507
 30
0.0
 11
23.45507627273047
 21
-28.328223610156
 31
0.0
  0
LINE
  5
130
330
1F
100
AcDbEntity
  8
0
100
AcDbLine
 10
53.66516968705127
 20
-50.61316071885127
 30
0.0
 11
53.51531905329433
 21
-50.25138928650507
 31
0.0
  0
LINE
  5
131
330
1F
100
AcDbEntity
  8
0
100
AcDbLine
 10
53.71628094761768
 20
-51.00138928650505
 30
0.0
 11
53.66516968705127
 21
-50.61316071885127
 31
0.0
  0
LINE
  5
132
330
1F
100
AcDbEntity
  8
0
100
AcDbLine
 10
11.62809049659248
 20
-14.84213102361438
 30
0.0
 11
10.38944662396681
 21
-15.2625939613922
 31
0.0
  0
LINE
  5
133
330
1F
100
AcDbEntity
  8
0
100
AcDbLine
 10
53.51531905329433
 20
-50.25138928650507
 30
0.0
 11
53.27694111939746
 21
-49.94072911472523
 31
0.0
  0
LINE
  5
134
330
1F
100
AcDbEntity
  8
0
100
AcDbLine
 10
52.96628094761768
 20
-49.7023511808284
 30
0.0
 11
52.60450951527147
 21
-49.55250054707145
 31
0.0
  0
LINE
  5
135
330
1F
100
AcDbEntity
  8
0
100
AcDbLine
 10
53.27694111939746
 20
-49.94072911472523
 30
0.0
 11
52.96628094761768
 21
-49.7023511808284
 31
0.0
  0
LINE
  5
136
330
1F
100
AcDbEntity
  8
0
100
AcDbLine
 10
52.60450951527147
 20
-49.55250054707145
 30
0.0
 11
52.21628094761766
 21
-49.50138928650505
 31
0.0
  0
LINE
  5
137
330
1F
100
AcDbEntity
  8
0
100
AcDbLine
 10
52.21628094761766
 20
-49.50138928650505
 30
0.0
 11
51.82805237996386
 21
-49.55250054707145
 31
0.0
  0
LINE
  5
138
330
1F
100
AcDbEntity
  8
0
100
AcDbLine
 10
51.46628094761765
 20
-49.7023511808284
 30
0.0
 11
51.15562077583786
 21
-49.94072911472523
 31
0.0
  0
LINE
  5
139
330
1F
100
AcDbEntity
  8
0
100
AcDbLine
 10
50.76739220818406
 20
-50.61316071885127
 30
0.0
 11
50.71628094761764
 21
-51.00138928650505
 31
0.0
  0
LINE
  5
13A
330
1F
100
AcDbEntity
  8
0
100
AcDbLine
 10
6.282747544705337
 20
-18.41377499641782
 30
0.0
 11
5.556026909773305
 21
-19.50138928650504
 31
0.0
  0
LINE
  5
13B
330
1F
100
AcDbEntity
  8
0
100
AcDbLine
 10
12.91101902541711
 20
-34.4158379002432
 30
0.0
 11
14.21628094761764
 21
-34.5013892865051
 31
0.0
  0
LINE
  5
13C
330
1F
100
AcDbEntity
  8
0
100
AcDbLine
 10
14.21628094761764
 20
-34.5013892865051
 30
0.0
 11
15.52154286981817
 21
-34.4158379002432
 31
0.0
  0
LINE
  5
13D
330
1F
100
AcDbEntity
  8
0
100
AcDbLine
 10
24.21628094761762
 20
-24.50138928650508
 30
0.0
 11
24.13072956135576
 21
-23.19612736430459
 31
0.0
  0
LINE
  5
13E
330
1F
100
AcDbEntity
  8
0
100
AcDbLine
 10
17.34961178672519
 20
0.3014782463568802
 30
0.0
 11
15.03325541389776
 21
0.447211036794172
 31
0.0
  0
LINE
  5
13F
330
1F
100
AcDbEntity
  8
0
100
AcDbLine
 10
19.21628094761768
 20
-33.16164332434946
 30
0.0
 11
20.30389523770485
 21
-32.43492268941743
 31
0.0
  0
LINE
  5
140
330
1F
100
AcDbEntity
  8
0
100
AcDbLine
 10
26.26012280016047
 20
-2.593722285408423
 30
0.0
 11
23.41939476473454
 21
-1.256977139298743
 31
0.0
  0
LINE
  5
141
330
1F
100
AcDbEntity
  8
0
100
AcDbLine
 10
21.28734875948313
 20
-31.57245709837057
 30
0.0
 11
22.14981435053003
 21
-30.58900357659228
 31
0.0
  0
LINE
  5
142
330
1F
100
AcDbEntity
  8
0
100
AcDbLine
 10
23.87553921050829
 20
-27.08957973753028
 30
0.0
 11
24.13072956135576
 21
-25.80665120870561
 31
0.0
  0
LINE
  5
143
330
1F
100
AcDbEntity
  8
0
100
AcDbLine
 10
11.62809049659239
 20
-34.16064754939578
 30
0.0
 11
12.91101902541711
 21
-34.4158379002432
 31
0.0
  0
LINE
  5
144
330
1F
100
AcDbEntity
  8
0
100
AcDbLine
 10
23.87553921050829
 20
-21.91319883547987
 30
0.0
 11
23.45507627273047
 21
-20.6745549628542
 31
0.0
  0
LINE
  5
145
330
1F
100
AcDbEntity
  8
0
100
AcDbLine
 10
8.128666657530434
 20
-16.56785588359269
 30
0.0
 11
7.145213135752147
 21
-17.43032147463958
 31
0.0
  0
LINE
  5
146
330
1F
100
AcDbEntity
  8
0
100
AcDbLine
 10
10.38944662396672
 20
-33.74018461161796
 30
0.0
 11
11.62809049659239
 21
-34.16064754939578
 31
0.0
  0
LINE
  5
147
330
1F
100
AcDbEntity
  8
0
100
AcDbLine
 10
14.21628094761764
 20
-14.50138928650505
 30
0.0
 11
12.91101902541711
 21
-14.58694067276695
 31
0.0
  0
LINE
  5
148
330
1F
100
AcDbEntity
  8
0
100
AcDbLine
 10
7.145213135752147
 20
-17.43032147463958
 30
0.0
 11
6.282747544705337
 21
-18.41377499641782
 31
0.0
  0
LINE
  5
149
330
1F
100
AcDbEntity
  8
0
100
AcDbLine
 10
4.301832333879515
 20
-23.1961273643045
 30
0.0
 11
4.216280947617658
 21
-24.50138928650508
 31
0.0
  0
LINE
  5
14A
330
1F
100
AcDbEntity
  8
0
100
AcDbLine
 10
15.52154286981817
 20
-14.58694067276695
 30
0.0
 11
14.21628094761764
 21
-14.50138928650505
 31
0.0
  0
LINE
  5
14B
330
1F
100
AcDbEntity
  8
0
100
AcDbLine
 10
4.557022684726987
 20
-21.91319883547983
 30
0.0
 11
4.301832333879515
 21
-23.1961273643045
 31
0.0
  0
LINE
  5
14C
330
1F
100
AcDbEntity
  8
0
100
AcDbLine
 10
-9.56013195976122
 20
-32.22681414587876
 30
0.0
 11
-8.404395364032853
 21
-35.14587157563189
 31
0.0
  0
LINE
  5
14D
330
1F
100
AcDbEntity
  8
0
100
AcDbLine
 10
24.13072956135576
 20
-23.19612736430459
 30
0.0
 11
23.87553921050829
 21
-21.91319883547987
 31
0.0
  0
LINE
  5
14E
330
1F
100
AcDbEntity
  8
0
100
AcDbLine
 10
24.13072956135576
 20
-25.80665120870561
 30
0.0
 11
24.21628094761762
 21
-24.50138928650508
 31
0.0
  0
LINE
  5
14F
330
1F
100
AcDbEntity
  8
0
100
AcDbLine
 10
23.45507627273047
 20
-28.328223610156
 30
0.0
 11
23.87553921050829
 21
-27.08957973753028
 31
0.0
  0
LINE
  5
150
330
1F
100
AcDbEntity
  8
0
100
AcDbLine
 10
18.04311527126856
 20
-15.2625939613922
 30
0.0
 11
16.80447139864289
 21
-14.84213102361438
 31
0.0
  0
LINE
  5
151
330
1F
100
AcDbEntity
  8
0
100
AcDbLine
 10
9.216280947617605
 20
-33.16164332434946
 30
0.0
 11
10.38944662396672
 21
-33.74018461161796
 31
0.0
  0
LINE
  5
152
330
1F
100
AcDbEntity
  8
0
100
AcDbLine
 10
15.52154286981817
 20
-34.4158379002432
 30
0.0
 11
16.80447139864289
 21
-34.16064754939578
 31
0.0
  0
LINE
  5
153
330
1F
100
AcDbEntity
  8
0
100
AcDbLine
 10
20.30389523770485
 20
-16.56785588359273
 30
0.0
 11
19.21628094761768
 21
-15.8411352486607
 31
0.0
  0
LINE
  5
154
330
1F
100
AcDbEntity
  8
0
100
AcDbLine
 10
4.977485622504807
 20
-20.67455496285416
 30
0.0
 11
4.557022684726987
 21
-21.91319883547983
 31
0.0
  0
LINE
  5
155
330
1F
100
AcDbEntity
  8
0
100
AcDbLine
 10
23.45507627273047
 20
-20.6745549628542
 30
0.0
 11
22.87653498546207
 21
-19.50138928650508
 31
0.0
  0
LINE
  5
156
330
1F
100
AcDbEntity
  8
0
100
AcDbLine
 10
5.556026909773305
 20
-19.50138928650504
 30
0.0
 11
4.977485622504807
 21
-20.67455496285416
 31
0.0
  0
LINE
  5
157
330
1F
100
AcDbEntity
  8
0
100
AcDbLine
 10
90.71628094761766
 20
-41.54434836962625
 30
0.0
 11
90.20947144486883
 21
-41.33442100004813
 31
0.0
  0
LINE
  5
158
330
1F
100
AcDbEntity
  8
0
100
AcDbLine
 10
90.71628094761766
 20
-44.2674146902895
 30
0.0
 11
90.71628094761766
 21
-41.54434836962625
 31
0.0
  0
LINE
  5
159
330
1F
100
AcDbEntity
  8
0
100
AcDbLine
 10
10.38944662396681
 20
-15.2625939613922
 30
0.0
 11
9.216280947617694
 21
-15.84113524866065
 31
0.0
  0
LINE
  5
15A
330
1F
100
AcDbEntity
  8
0
100
AcDbLine
 10
90.71628094761766
 20
-41.54434836962625
 30
0.0
 11
90.71628094761766
 21
-25.10618624412385
 31
0.0
  0
LINE
  5
15B
330
1F
100
AcDbEntity
  8
0
100
AcDbLine
 10
9.216280947617694
 20
-15.84113524866065
 30
0.0
 11
8.128666657530434
 21
-16.56785588359269
 31
0.0
  0
LINE
  5
15C
330
1F
100
AcDbEntity
  8
0
100
AcDbLine
 10
22.87653498546207
 20
-19.50138928650508
 30
0.0
 11
22.14981435053003
 21
-18.41377499641787
 31
0.0
  0
LINE
  5
15D
330
1F
100
AcDbEntity
  8
0
100
AcDbLine
 10
8.128666657530434
 20
-32.43492268941743
 30
0.0
 11
9.216280947617605
 21
-33.16164332434946
 31
0.0
  0
LINE
  5
15E
330
1F
100
AcDbEntity
  8
0
100
AcDbLine
 10
16.80447139864289
 20
-34.16064754939578
 30
0.0
 11
18.04311527126856
 21
-33.74018461161796
 31
0.0
  0
LINE
  5
15F
330
1F
100
AcDbEntity
  8
0
100
AcDbLine
 10
20.30389523770485
 20
-32.43492268941743
 30
0.0
 11
21.28734875948313
 21
-31.57245709837057
 31
0.0
  0
LINE
  5
160
330
1F
100
AcDbEntity
  8
0
100
AcDbLine
 10
12.91101902541711
 20
-14.58694067276695
 30
0.0
 11
11.62809049659248
 21
-14.84213102361438
 31
0.0
  0
LINE
  5
161
330
1F
100
AcDbEntity
  8
0
100
AcDbLine
 10
16.80447139864289
 20
-14.84213102361438
 30
0.0
 11
15.52154286981817
 21
-14.58694067276695
 31
0.0
  0
LINE
  5
162
330
1F
100
AcDbEntity
  8
0
100
AcDbLine
 10
39.1669491583245
 20
-26.07115227473784
 30
0.0
 11
39.16694915832441
 21
-22.93162629827218
 31
0.0
  0
LINE
  5
163
330
1F
100
AcDbEntity
  8
0
100
AcDbLine
 10
19.21628094761768
 20
-15.8411352486607
 30
0.0
 11
18.04311527126856
 21
-15.2625939613922
 31
0.0
  0
LINE
  5
164
330
1F
100
AcDbEntity
  8
0
100
AcDbLine
 10
22.14981435053003
 20
-30.58900357659228
 30
0.0
 11
22.87653498546207
 21
-29.50138928650507
 31
0.0
  0
LINE
  5
165
330
1F
100
AcDbEntity
  8
0
100
AcDbLine
 10
10.73370332862409
 20
-1.482239813456205
 30
0.0
 11
9.630542757714037
 21
-1.476839864990213
 31
0.0
  0
LINE
  5
166
330
1F
100
AcDbEntity
  8
0
100
AcDbLine
 10
49.53160219588586
 20
0.9986107134949445
 30
0.0
 11
46.91880220123654
 21
0.9986107134949445
 31
0.0
  0
LINE
  5
167
330
1F
100
AcDbEntity
  8
0
100
AcDbLine
 10
6.901783014758958
 20
-0.6433286398849355
 30
0.0
 11
5.013167130500745
 21
-1.256977139298788
 31
0.0
  0
LINE
  5
168
330
1F
100
AcDbEntity
  8
0
100
AcDbLine
 10
0.2162809476176659
 20
-41.50138928650509
 30
0.0
 11
-4.047011749919411
 21
-41.50138928650509
 31
0.0
  0
LINE
  5
169
330
1F
100
AcDbEntity
  8
0
100
AcDbLine
 10
-4.047011749919411
 20
-41.50138928650509
 30
0.0
 11
-9.243605978118401
 21
-41.50138928650509
 31
0.0
  0
LINE
  5
16A
330
1F
100
AcDbEntity
  8
0
100
AcDbLine
 10
6.515464289364057
 20
-0.443102512670852
 30
0.0
 11
5.627941971494653
 21
0.2121047369362187
 31
0.0
  0
LINE
  5
16B
330
1F
100
AcDbEntity
  8
0
100
AcDbLine
 10
13.85875252482412
 20
-0.4790477586196599
 30
0.0
 11
12.87439190336474
 21
-0.9770704203270313
 31
0.0
  0
LINE
  5
16C
330
1F
100
AcDbEntity
  8
0
100
AcDbLine
 10
-18.68786918619728
 20
-36.51029725426592
 30
0.0
 11
-18.87237334180709
 21
-36.25704671026706
 31
0.0
  0
LINE
  5
16D
330
1F
100
AcDbEntity
  8
0
100
AcDbLine
 10
-18.53246457310988
 20
-37.11228648265302
 30
0.0
 11
-18.5721424171269
 21
-36.80147578437001
 31
0.0
  0
LINE
  5
16E
330
1F
100
AcDbEntity
  8
0
100
AcDbLine
 10
-20.31616735798399
 20
-35.98358605234687
 30
0.0
 11
-20.58050328166991
 21
-36.15182439792274
 31
0.0
  0
LINE
  5
16F
330
1F
100
AcDbEntity
  8
0
100
AcDbLine
 10
-18.68629299509699
 20
-37.71468040813028
 30
0.0
 11
-18.5713287590108
 21
-37.42319996986017
 31
0.0
  0
LINE
  5
170
330
1F
100
AcDbEntity
  8
0
100
AcDbLine
 10
15.03325541389776
 20
0.447211036794172
 30
0.0
 11
14.75264661069929
 21
0.1674394940709497
 31
0.0
  0
LINE
  5
171
330
1F
100
AcDbEntity
  8
0
100
AcDbLine
 10
-20.31320696468734
 20
-38.24565174636108
 30
0.0
 11
-20.01508303236855
 21
-38.34208691863678
 31
0.0
  0
LINE
  5
172
330
1F
100
AcDbEntity
  8
0
100
AcDbLine
 10
-18.8701336556062
 20
-37.9684130095369
 30
0.0
 11
-18.68629299509699
 21
-37.71468040813028
 31
0.0
  0
LINE
  5
173
330
1F
100
AcDbEntity
  8
0
100
AcDbLine
 10
-20.79469543105544
 20
-36.3805148975388
 30
0.0
 11
-20.94528532565102
 21
-36.65528808603926
 31
0.0
  0
LINE
  5
174
330
1F
100
AcDbEntity
  8
0
100
AcDbLine
 10
-21.02240078602487
 20
-37.2722117690295
 30
0.0
 11
-20.94408090381695
 21
-37.57559867963045
 31
0.0
  0
LINE
  5
175
330
1F
100
AcDbEntity
  8
0
100
AcDbLine
 10
-19.39463676755489
 20
-38.30223648147825
 30
0.0
 11
-19.11129935571998
 21
-38.16845482157036
 31
0.0
  0
LINE
  5
176
330
1F
100
AcDbEntity
  8
0
100
AcDbLine
 10
-20.57798233334876
 20
-38.07810585526482
 30
0.0
 11
-20.31320696468734
 21
-38.24565174636108
 31
0.0
  0
LINE
  5
177
330
1F
100
AcDbEntity
  8
0
100
AcDbLine
 10
8.541929920033096
 20
-1.298193582380222
 30
0.0
 11
7.494902235072542
 21
-0.9507379282600597
 31
0.0
  0
LINE
  5
178
330
1F
100
AcDbEntity
  8
0
100
AcDbLine
 10
-19.70234275948323
 20
-38.36135199555407
 30
0.0
 11
-19.39463676755489
 21
-38.30223648147825
 31
0.0
  0
LINE
  5
179
330
1F
100
AcDbEntity
  8
0
100
AcDbLine
 10
-20.01508303236855
 20
-38.34208691863678
 30
0.0
 11
-19.70234275948323
 21
-38.36135199555407
 31
0.0
  0
LINE
  5
17A
330
1F
100
AcDbEntity
  8
0
100
AcDbLine
 10
11.82401289733653
 20
-1.314259311527811
 30
0.0
 11
10.73370332862409
 21
-1.482239813456205
 31
0.0
  0
LINE
  5
17B
330
1F
100
AcDbEntity
  8
0
100
AcDbLine
 10
5.627941971494653
 20
0.2121047369362187
 30
0.0
 11
4.854378300235787
 21
0.9986107134949445
 31
0.0
  0
LINE
  5
17C
330
1F
100
AcDbEntity
  8
0
100
AcDbLine
 10
-18.87237334180709
 20
-36.25704671026706
 30
0.0
 11
-19.11406180930051
 21
-36.05763681544306
 31
0.0
  0
LINE
  5
17D
330
1F
100
AcDbEntity
  8
0
100
AcDbLine
 10
86.21628094761769
 20
-13.60138928650507
 30
0.0
 11
87.6092983137643
 21
-12.79713033517445
 31
0.0
  0
LINE
  5
17E
330
1F
100
AcDbEntity
  8
0
100
AcDbLine
 10
86.21628094761769
 20
-7.401389286505085
 30
0.0
 11
83.5316021958859
 21
-8.951389286505094
 31
0.0
  0
LINE
  5
17F
330
1F
100
AcDbEntity
  8
0
100
AcDbLine
 10
83.5316021958859
 20
-8.951389286505094
 30
0.0
 11
83.5316021958859
 21
-12.05138928650507
 31
0.0
  0
LINE
  5
180
330
1F
100
AcDbEntity
  8
0
100
AcDbLine
 10
83.5316021958859
 20
-12.05138928650507
 30
0.0
 11
86.21628094761769
 21
-13.60138928650507
 31
0.0
  0
LINE
  5
181
330
1F
100
AcDbEntity
  8
0
100
AcDbLine
 10
87.6092983137643
 20
-12.79713033517445
 30
0.0
 11
86.93974684654006
 21
-13.31089524581649
 31
0.0
  0
LINE
  5
182
330
1F
100
AcDbEntity
  8
0
100
AcDbLine
 10
84.72480861188464
 20
-14.60730893242316
 30
0.0
 11
85.82731648835487
 21
-14.76064271412232
 31
0.0
  0
LINE
  5
183
330
1F
100
AcDbEntity
  8
0
100
AcDbLine
 10
83.63949431484593
 20
-14.15775703115233
 30
0.0
 11
84.72480861188464
 21
-14.60730893242316
 31
0.0
  0
LINE
  5
184
330
1F
100
AcDbEntity
  8
0
100
AcDbLine
 10
82.70751379950656
 20
-13.44262322946185
 30
0.0
 11
83.63949431484593
 21
-14.15775703115233
 31
0.0
  0
LINE
  5
185
330
1F
100
AcDbEntity
  8
0
100
AcDbLine
 10
81.99237999781603
 20
-12.51064271412238
 30
0.0
 11
82.70751379950656
 21
-13.44262322946185
 31
0.0
  0
LINE
  5
186
330
1F
100
AcDbEntity
  8
0
100
AcDbLine
 10
81.54282809654515
 20
-11.42532841708371
 30
0.0
 11
81.99237999781603
 21
-12.51064271412238
 31
0.0
  0
LINE
  5
187
330
1F
100
AcDbEntity
  8
0
100
AcDbLine
 10
81.54282809654515
 20
-9.09595701116104
 30
0.0
 11
81.38949431484599
 21
-10.26064271412235
 31
0.0
  0
LINE
  5
188
330
1F
100
AcDbEntity
  8
0
100
AcDbLine
 10
81.99237999781603
 20
-8.010642714122369
 30
0.0
 11
81.54282809654515
 21
-9.09595701116104
 31
0.0
  0
LINE
  5
189
330
1F
100
AcDbEntity
  8
0
100
AcDbLine
 10
84.76424212996137
 20
-4.398281653492918
 30
0.0
 11
85.28025697479987
 21
-4.96546276330544
 31
0.0
  0
LINE
  5
18A
330
1F
100
AcDbEntity
  8
0
100
AcDbLine
 10
85.28025697479987
 20
-4.96546276330544
 30
0.0
 11
86.79892407243739
 21
-7.003475100434208
 31
0.0
  0
LINE
  5
18B
330
1F
100
AcDbEntity
  8
0
100
AcDbLine
 10
86.79892407243739
 20
-7.003475100434208
 30
0.0
 11
87.47815971296433
 21
-8.129935331362688
 31
0.0
  0
LINE
  5
18C
330
1F
100
AcDbEntity
  8
0
100
AcDbLine
 10
87.47815971296433
 20
-8.129935331362688
 30
0.0
 11
86.21628094761769
 21
-7.401389286505085
 31
0.0
  0
LINE
  5
18D
330
1F
100
AcDbEntity
  8
0
100
AcDbLine
 10
15.53387288929474
 20
0.9463348055768774
 30
0.0
 11
15.03325541389776
 21
0.447211036794172
 31
0.0
  0
LINE
  5
18E
330
1F
100
AcDbEntity
  8
0
100
AcDbLine
 10
-18.5713287590108
 20
-37.42319996986017
 30
0.0
 11
-18.53246457310988
 21
-37.11228648265302
 31
0.0
  0
LINE
  5
18F
330
1F
100
AcDbEntity
  8
0
100
AcDbLine
 10
15.57191860644261
 20
0.9986107134949445
 30
0.0
 11
15.53387288929474
 21
0.9463348055768774
 31
0.0
  0
LINE
  5
190
330
1F
100
AcDbEntity
  8
0
100
AcDbLine
 10
7.494902235072542
 20
-0.9507379282600597
 30
0.0
 11
6.901783014758958
 21
-0.6433286398849355
 31
0.0
  0
LINE
  5
191
330
1F
100
AcDbEntity
  8
0
100
AcDbLine
 10
66.11045240638735
 20
-51.09249920197392
 30
0.0
 11
69.21628094761759
 21
-51.50138928650507
 31
0.0
  0
LINE
  5
192
330
1F
100
AcDbEntity
  8
0
100
AcDbLine
 10
9.630542757714037
 20
-1.476839864990213
 30
0.0
 11
8.541929920033096
 21
-1.298193582380222
 31
0.0
  0
LINE
  5
193
330
1F
100
AcDbEntity
  8
0
100
AcDbLine
 10
14.75264661069929
 20
0.1674394940709497
 30
0.0
 11
13.85875252482412
 21
-0.4790477586196599
 31
0.0
  0
LINE
  5
194
330
1F
100
AcDbEntity
  8
0
100
AcDbLine
 10
6.901783014758958
 20
-0.6433286398849355
 30
0.0
 11
6.515464289364057
 21
-0.443102512670852
 31
0.0
  0
LINE
  5
195
330
1F
100
AcDbEntity
  8
0
100
AcDbLine
 10
-18.5721424171269
 20
-36.80147578437001
 30
0.0
 11
-18.68786918619728
 21
-36.51029725426592
 31
0.0
  0
LINE
  5
196
330
1F
100
AcDbEntity
  8
0
100
AcDbLine
 10
-20.01829685824228
 20
-35.88637089480099
 30
0.0
 11
-20.31616735798399
 21
-35.98358605234687
 31
0.0
  0
LINE
  5
197
330
1F
100
AcDbEntity
  8
0
100
AcDbLine
 10
-20.79277232816413
 20
-37.84997676987624
 30
0.0
 11
-20.57798233334876
 21
-38.07810585526482
 31
0.0
  0
LINE
  5
198
330
1F
100
AcDbEntity
  8
0
100
AcDbLine
 10
-20.94528532565102
 20
-36.65528808603926
 30
0.0
 11
-21.01222584222587
 21
-36.96020207923588
 31
0.0
  0
LINE
  5
199
330
1F
100
AcDbEntity
  8
0
100
AcDbLine
 10
-12.7565690403022
 20
-11.99645443500231
 30
0.0
 11
-12.7565690403022
 21
-8.896454435002298
 31
0.0
  0
LINE
  5
19A
330
1F
100
AcDbEntity
  8
0
100
AcDbLine
 10
-19.11129935571998
 20
-38.16845482157036
 30
0.0
 11
-18.8701336556062
 21
-37.9684130095369
 31
0.0
  0
LINE
  5
19B
330
1F
100
AcDbEntity
  8
0
100
AcDbLine
 10
-21.01222584222587
 20
-36.96020207923588
 30
0.0
 11
-21.02240078602487
 21
-37.2722117690295
 31
0.0
  0
LINE
  5
19C
330
1F
100
AcDbEntity
  8
0
100
AcDbLine
 10
-19.70560808143474
 20
-35.86628731116605
 30
0.0
 11
-20.01829685824228
 21
-35.88637089480099
 31
0.0
  0
LINE
  5
19D
330
1F
100
AcDbEntity
  8
0
100
AcDbLine
 10
-19.11406180930051
 20
-36.05763681544306
 30
0.0
 11
-19.39774841339696
 21
-35.92459722686417
 31
0.0
  0
LINE
  5
19E
330
1F
100
AcDbEntity
  8
0
100
AcDbLine
 10
69.21628094761759
 20
-51.50138928650507
 30
0.0
 11
70.01028183904182
 21
-51.39685708606247
 31
0.0
  0
LINE
  5
19F
330
1F
100
AcDbEntity
  8
0
100
AcDbLine
 10
65.50844210760613
 20
-50.84313837153044
 30
0.0
 11
66.11045240638735
 21
-51.09249920197392
 31
0.0
  0
LINE
  5
1A0
330
1F
100
AcDbEntity
  8
0
100
AcDbLine
 10
-20.58050328166991
 20
-36.15182439792274
 30
0.0
 11
-20.79469543105544
 21
-36.3805148975388
 31
0.0
  0
LINE
  5
1A1
330
1F
100
AcDbEntity
  8
0
100
AcDbLine
 10
-20.94408090381695
 20
-37.57559867963045
 30
0.0
 11
-20.79277232816413
 21
-37.84997676987624
 31
0.0
  0
LINE
  5
1A2
330
1F
100
AcDbEntity
  8
0
100
AcDbLine
 10
-19.39774841339696
 20
-35.92459722686417
 30
0.0
 11
-19.70560808143474
 21
-35.86628731116605
 31
0.0
  0
LINE
  5
1A3
330
1F
100
AcDbEntity
  8
0
100
AcDbLine
 10
12.87439190336474
 20
-0.9770704203270313
 30
0.0
 11
11.82401289733653
 21
-1.314259311527811
 31
0.0
  0
LINE
  5
1A4
330
1F
100
AcDbEntity
  8
0
100
AcDbLine
 10
-15.44124779203401
 20
-7.346454435002288
 30
0.0
 11
-16.94124779203403
 21
-8.212479838786766
 31
0.0
  0
LINE
  5
1A5
330
1F
100
AcDbEntity
  8
0
100
AcDbLine
 10
85.46628094761768
 20
-11.80042739218173
 30
0.0
 11
85.82805237996389
 21
-11.95027802593866
 31
0.0
  0
LINE
  5
1A6
330
1F
100
AcDbEntity
  8
0
100
AcDbLine
 10
-12.7565690403022
 20
-8.896454435002298
 30
0.0
 11
-15.44124779203401
 21
-7.346454435002288
 31
0.0
  0
LINE
  5
1A7
330
1F
100
AcDbEntity
  8
0
100
AcDbLine
 10
84.91724284194102
 20
-9.751389286505093
 30
0.0
 11
84.76739220818399
 21
-10.1131607188513
 31
0.0
  0
LINE
  5
1A8
330
1F
100
AcDbEntity
  8
0
100
AcDbLine
 10
79.03915345490454
 20
-7.627576140647811
 30
0.0
 11
78.72684611056917
 21
-6.411219342755574
 31
0.0
  0
LINE
  5
1A9
330
1F
100
AcDbEntity
  8
0
100
AcDbLine
 10
59.23601366333488
 20
-8.873484091211944
 30
0.0
 11
59.23601366333488
 21
-10.12929448179822
 31
0.0
  0
LINE
  5
1AA
330
1F
100
AcDbEntity
  8
0
100
AcDbLine
 10
59.7057157846661
 20
-6.411219342755619
 30
0.0
 11
59.39340844033072
 21
-7.627576140647855
 31
0.0
  0
LINE
  5
1AB
330
1F
100
AcDbEntity
  8
0
100
AcDbLine
 10
63.33842842469291
 20
-1.411219342755629
 30
0.0
 11
62.37080988833072
 21
-2.211703012290948
 31
0.0
  0
LINE
  5
1AC
330
1F
100
AcDbEntity
  8
0
100
AcDbLine
 10
50.71628094761764
 20
-0.5013892865050754
 30
0.0
 11
50.71628094761764
 21
0.9986107134949445
 31
0.0
  0
LINE
  5
1AD
330
1F
100
AcDbEntity
  8
0
100
AcDbLine
 10
79.1965482319003
 20
-8.873484091211944
 30
0.0
 11
79.03915345490454
 21
-7.627576140647811
 31
0.0
  0
LINE
  5
1AE
330
1F
100
AcDbEntity
  8
0
100
AcDbLine
 10
76.92141337537552
 20
-3.127149389018126
 30
0.0
 11
76.06175200690446
 21
-2.211703012290948
 31
0.0
  0
LINE
  5
1AF
330
1F
100
AcDbEntity
  8
0
100
AcDbLine
 10
50.71628094761764
 20
-0.5013892865050754
 30
0.0
 11
50.76739220818406
 21
-0.8896178541588764
 31
0.0
  0
LINE
  5
1B0
330
1F
100
AcDbEntity
  8
0
100
AcDbLine
 10
74.03381768863481
 20
-18.26445608694369
 30
0.0
 11
75.09413347054236
 21
-17.59155923025454
 31
0.0
  0
LINE
  5
1B1
330
1F
100
AcDbEntity
  8
0
100
AcDbLine
 10
75.09413347054236
 20
-17.59155923025454
 30
0.0
 11
76.06175200690454
 21
-16.79107556071917
 31
0.0
  0
LINE
  5
1B2
330
1F
100
AcDbEntity
  8
0
100
AcDbLine
 10
62.37080988833072
 20
-2.211703012290948
 30
0.0
 11
61.51114851985974
 21
-3.127149389018172
 31
0.0
  0
LINE
  5
1B3
330
1F
100
AcDbEntity
  8
0
100
AcDbLine
 10
76.06175200690454
 20
-16.79107556071917
 30
0.0
 11
76.92141337537561
 21
-15.87562918399199
 31
0.0
  0
LINE
  5
1B4
330
1F
100
AcDbEntity
  8
0
100
AcDbLine
 10
78.26455147227782
 20
-5.243596370854344
 30
0.0
 11
77.65956020263776
 21
-4.143121336715072
 31
0.0
  0
LINE
  5
1B5
330
1F
100
AcDbEntity
  8
0
100
AcDbLine
 10
77.65956020263776
 20
-4.143121336715072
 30
0.0
 11
76.92141337537552
 21
-3.127149389018126
 31
0.0
  0
LINE
  5
1B6
330
1F
100
AcDbEntity
  8
0
100
AcDbLine
 10
85.82805237996389
 20
-9.052500547071455
 30
0.0
 11
85.46628094761768
 21
-9.20235118082843
 31
0.0
  0
LINE
  5
1B7
330
1F
100
AcDbEntity
  8
0
100
AcDbLine
 10
59.39340844033072
 20
-7.627576140647855
 30
0.0
 11
59.23601366333488
 21
-8.873484091211944
 31
0.0
  0
LINE
  5
1B8
330
1F
100
AcDbEntity
  8
0
100
AcDbLine
 10
60.16801042295744
 20
-5.243596370854344
 30
0.0
 11
59.7057157846661
 21
-6.411219342755619
 31
0.0
  0
LINE
  5
1B9
330
1F
100
AcDbEntity
  8
0
100
AcDbLine
 10
60.7730016925975
 20
-4.143121336715117
 30
0.0
 11
60.16801042295744
 21
-5.243596370854344
 31
0.0
  0
LINE
  5
1BA
330
1F
100
AcDbEntity
  8
0
100
AcDbLine
 10
61.51114851985974
 20
-3.127149389018172
 30
0.0
 11
60.7730016925975
 21
-4.143121336715117
 31
0.0
  0
LINE
  5
1BB
330
1F
100
AcDbEntity
  8
0
100
AcDbLine
 10
64.39874420660045
 20
-0.7383224860664246
 30
0.0
 11
63.33842842469291
 21
-1.411219342755629
 31
0.0
  0
LINE
  5
1BC
330
1F
100
AcDbEntity
  8
0
100
AcDbLine
 10
65.5350354207709
 20
-0.2036244276225706
 30
0.0
 11
64.39874420660045
 21
-0.7383224860664246
 31
0.0
  0
LINE
  5
1BD
330
1F
100
AcDbEntity
  8
0
100
AcDbLine
 10
66.72938207596914
 20
0.1844423247812155
 30
0.0
 11
65.5350354207709
 21
-0.2036244276225706
 31
0.0
  0
LINE
  5
1BE
330
1F
100
AcDbEntity
  8
0
100
AcDbLine
 10
67.96294861197457
 20
0.4197577266396787
 30
0.0
 11
66.72938207596914
 21
0.1844423247812155
 31
0.0
  0
LINE
  5
1BF
330
1F
100
AcDbEntity
  8
0
100
AcDbLine
 10
69.21628094761759
 20
0.4986107134949228
 30
0.0
 11
67.96294861197457
 21
0.4197577266396787
 31
0.0
  0
LINE
  5
1C0
330
1F
100
AcDbEntity
  8
0
100
AcDbLine
 10
70.46961328326061
 20
0.4197577266396787
 30
0.0
 11
69.21628094761759
 21
0.4986107134949228
 31
0.0
  0
LINE
  5
1C1
330
1F
100
AcDbEntity
  8
0
100
AcDbLine
 10
71.70317981926613
 20
0.1844423247812606
 30
0.0
 11
70.46961328326061
 21
0.4197577266396787
 31
0.0
  0
LINE
  5
1C2
330
1F
100
AcDbEntity
  8
0
100
AcDbLine
 10
72.89752647446436
 20
-0.2036244276225706
 30
0.0
 11
71.70317981926613
 21
0.1844423247812606
 31
0.0
  0
LINE
  5
1C3
330
1F
100
AcDbEntity
  8
0
100
AcDbLine
 10
74.03381768863471
 20
-0.7383224860664246
 30
0.0
 11
72.89752647446436
 21
-0.2036244276225706
 31
0.0
  0
LINE
  5
1C4
330
1F
100
AcDbEntity
  8
0
100
AcDbLine
 10
75.09413347054236
 20
-1.411219342755584
 30
0.0
 11
74.03381768863471
 21
-0.7383224860664246
 31
0.0
  0
LINE
  5
1C5
330
1F
100
AcDbEntity
  8
0
100
AcDbLine
 10
76.06175200690446
 20
-2.211703012290948
 30
0.0
 11
75.09413347054236
 21
-1.411219342755584
 31
0.0
  0
LINE
  5
1C6
330
1F
100
AcDbEntity
  8
0
100
AcDbLine
 10
78.72684611056917
 20
-6.411219342755574
 30
0.0
 11
78.26455147227782
 21
-5.243596370854344
 31
0.0
  0
LINE
  5
1C7
330
1F
100
AcDbEntity
  8
0
100
AcDbLine
 10
79.19654823190038
 20
-10.12929448179817
 30
0.0
 11
79.1965482319003
 21
-8.873484091211944
 31
0.0
  0
LINE
  5
1C8
330
1F
100
AcDbEntity
  8
0
100
AcDbLine
 10
78.72684611056917
 20
-12.59155923025454
 30
0.0
 11
79.03915345490454
 21
-11.37520243236231
 31
0.0
  0
LINE
  5
1C9
330
1F
100
AcDbEntity
  8
0
100
AcDbLine
 10
78.26455147227782
 20
-13.75918220215577
 30
0.0
 11
78.72684611056917
 21
-12.59155923025454
 31
0.0
  0
LINE
  5
1CA
330
1F
100
AcDbEntity
  8
0
100
AcDbLine
 10
77.65956020263776
 20
-14.85965723629505
 30
0.0
 11
78.26455147227782
 21
-13.75918220215577
 31
0.0
  0
LINE
  5
1CB
330
1F
100
AcDbEntity
  8
0
100
AcDbLine
 10
76.92141337537561
 20
-15.87562918399199
 30
0.0
 11
77.65956020263776
 21
-14.85965723629505
 31
0.0
  0
LINE
  5
1CC
330
1F
100
AcDbEntity
  8
0
100
AcDbLine
 10
72.89752647446446
 20
-18.79915414538759
 30
0.0
 11
74.03381768863481
 21
-18.26445608694369
 31
0.0
  0
LINE
  5
1CD
330
1F
100
AcDbEntity
  8
0
100
AcDbLine
 10
71.70317981926621
 20
-19.18722089779138
 30
0.0
 11
72.89752647446446
 21
-18.79915414538759
 31
0.0
  0
LINE
  5
1CE
330
1F
100
AcDbEntity
  8
0
100
AcDbLine
 10
70.4696132832607
 20
-19.42253629964989
 30
0.0
 11
71.70317981926621
 21
-19.18722089779138
 31
0.0
  0
LINE
  5
1CF
330
1F
100
AcDbEntity
  8
0
100
AcDbLine
 10
69.21628094761768
 20
-19.50138928650508
 30
0.0
 11
70.4696132832607
 21
-19.42253629964989
 31
0.0
  0
LINE
  5
1D0
330
1F
100
AcDbEntity
  8
0
100
AcDbLine
 10
67.96294861197457
 20
-19.42253629964989
 30
0.0
 11
69.21628094761768
 21
-19.50138928650508
 31
0.0
  0
LINE
  5
1D1
330
1F
100
AcDbEntity
  8
0
100
AcDbLine
 10
66.72938207596914
 20
-19.18722089779142
 30
0.0
 11
67.96294861197457
 21
-19.42253629964989
 31
0.0
  0
LINE
  5
1D2
330
1F
100
AcDbEntity
  8
0
100
AcDbLine
 10
65.5350354207709
 20
-18.79915414538759
 30
0.0
 11
66.72938207596914
 21
-19.18722089779142
 31
0.0
  0
LINE
  5
1D3
330
1F
100
AcDbEntity
  8
0
100
AcDbLine
 10
64.39874420660045
 20
-18.26445608694374
 30
0.0
 11
65.5350354207709
 21
-18.79915414538759
 31
0.0
  0
LINE
  5
1D4
330
1F
100
AcDbEntity
  8
0
100
AcDbLine
 10
63.33842842469291
 20
-17.59155923025458
 30
0.0
 11
64.39874420660045
 21
-18.26445608694374
 31
0.0
  0
LINE
  5
1D5
330
1F
100
AcDbEntity
  8
0
100
AcDbLine
 10
62.37080988833072
 20
-16.79107556071921
 30
0.0
 11
63.33842842469291
 21
-17.59155923025458
 31
0.0
  0
LINE
  5
1D6
330
1F
100
AcDbEntity
  8
0
100
AcDbLine
 10
61.51114851985974
 20
-15.87562918399199
 30
0.0
 11
62.37080988833072
 21
-16.79107556071921
 31
0.0
  0
LINE
  5
1D7
330
1F
100
AcDbEntity
  8
0
100
AcDbLine
 10
60.7730016925975
 20
-14.85965723629505
 30
0.0
 11
61.51114851985974
 21
-15.87562918399199
 31
0.0
  0
LINE
  5
1D8
330
1F
100
AcDbEntity
  8
0
100
AcDbLine
 10
60.16801042295744
 20
-13.75918220215582
 30
0.0
 11
60.7730016925975
 21
-14.85965723629505
 31
0.0
  0
LINE
  5
1D9
330
1F
100
AcDbEntity
  8
0
100
AcDbLine
 10
59.7057157846661
 20
-12.59155923025454
 30
0.0
 11
60.16801042295744
 21
-13.75918220215582
 31
0.0
  0
LINE
  5
1DA
330
1F
100
AcDbEntity
  8
0
100
AcDbLine
 10
59.39340844033072
 20
-11.37520243236235
 30
0.0
 11
59.7057157846661
 21
-12.59155923025454
 31
0.0
  0
LINE
  5
1DB
330
1F
100
AcDbEntity
  8
0
100
AcDbLine
 10
-19.78246350265628
 20
-40.11392237168212
 30
0.0
 11
-9.243605978118401
 21
-41.50138928650509
 31
0.0
  0
LINE
  5
1DC
330
1F
100
AcDbEntity
  8
0
100
AcDbLine
 10
50.71628094761764
 20
0.9986107134949445
 30
0.0
 11
49.53160219588586
 21
0.9986107134949445
 31
0.0
  0
LINE
  5
1DD
330
1F
100
AcDbEntity
  8
0
100
AcDbLine
 10
50.76739220818406
 20
-0.8896178541588764
 30
0.0
 11
50.91724284194099
 21
-1.251389286505085
 31
0.0
  0
LINE
  5
1DE
330
1F
100
AcDbEntity
  8
0
100
AcDbLine
 10
50.91724284194099
 20
-1.251389286505085
 30
0.0
 11
51.15562077583786
 21
-1.562049458284877
 31
0.0
  0
LINE
  5
1DF
330
1F
100
AcDbEntity
  8
0
100
AcDbLine
 10
51.15562077583786
 20
-1.562049458284877
 30
0.0
 11
51.46628094761765
 21
-1.800427392181748
 31
0.0
  0
LINE
  5
1E0
330
1F
100
AcDbEntity
  8
0
100
AcDbLine
 10
51.46628094761765
 20
-1.800427392181748
 30
0.0
 11
51.82805237996386
 21
-1.950278025938678
 31
0.0
  0
LINE
  5
1E1
330
1F
100
AcDbEntity
  8
0
100
AcDbLine
 10
51.82805237996386
 20
-1.950278025938678
 30
0.0
 11
52.21628094761766
 21
-2.001389286505095
 31
0.0
  0
LINE
  5
1E2
330
1F
100
AcDbEntity
  8
0
100
AcDbLine
 10
52.21628094761766
 20
-2.001389286505095
 30
0.0
 11
52.60450951527147
 21
-1.950278025938678
 31
0.0
  0
LINE
  5
1E3
330
1F
100
AcDbEntity
  8
0
100
AcDbLine
 10
52.60450951527147
 20
-1.950278025938678
 30
0.0
 11
52.96628094761768
 21
-1.800427392181748
 31
0.0
  0
LINE
  5
1E4
330
1F
100
AcDbEntity
  8
0
100
AcDbLine
 10
52.96628094761768
 20
-1.800427392181748
 30
0.0
 11
53.27694111939746
 21
-1.562049458284877
 31
0.0
  0
LINE
  5
1E5
330
1F
100
AcDbEntity
  8
0
100
AcDbLine
 10
53.27694111939746
 20
-1.562049458284877
 30
0.0
 11
53.51531905329433
 21
-1.251389286505085
 31
0.0
  0
LINE
  5
1E6
330
1F
100
AcDbEntity
  8
0
100
AcDbLine
 10
53.51531905329433
 20
-1.251389286505085
 30
0.0
 11
53.66516968705127
 21
-0.8896178541588764
 31
0.0
  0
LINE
  5
1E7
330
1F
100
AcDbEntity
  8
0
100
AcDbLine
 10
53.66516968705127
 20
-0.8896178541588764
 30
0.0
 11
53.71628094761768
 21
-0.5013892865050754
 31
0.0
  0
LINE
  5
1E8
330
1F
100
AcDbEntity
  8
0
100
AcDbLine
 10
53.71628094761768
 20
-0.5013892865050754
 30
0.0
 11
53.71628094761768
 21
0.9986107134949445
 31
0.0
  0
LINE
  5
1E9
330
1F
100
AcDbEntity
  8
0
100
AcDbLine
 10
53.71628094761768
 20
0.9986107134949445
 30
0.0
 11
54.90095969934938
 21
0.9986107134949445
 31
0.0
  0
LINE
  5
1EA
330
1F
100
AcDbEntity
  8
0
100
AcDbLine
 10
54.90095969934938
 20
-2.051389286505084
 30
0.0
 11
54.90095969934938
 21
0.9986107134949445
 31
0.0
  0
LINE
  5
1EB
330
1F
100
AcDbEntity
  8
0
100
AcDbLine
 10
52.21628094761766
 20
-3.601389286505092
 30
0.0
 11
54.90095969934938
 21
-2.051389286505084
 31
0.0
  0
LINE
  5
1EC
330
1F
100
AcDbEntity
  8
0
100
AcDbLine
 10
49.53160219588586
 20
-2.051389286505084
 30
0.0
 11
52.21628094761766
 21
-3.601389286505092
 31
0.0
  0
LINE
  5
1ED
330
1F
100
AcDbEntity
  8
0
100
AcDbLine
 10
-19.78246350265628
 20
-40.11392237168212
 30
0.0
 11
-19.00600636734868
 21
-40.01169985054933
 31
0.0
  0
LINE
  5
1EE
330
1F
100
AcDbEntity
  8
0
100
AcDbLine
 10
57.29326677186437
 20
-0.8525177555359407
 30
0.0
 11
56.25956942689196
 21
-0.2758532392679009
 31
0.0
  0
LINE
  5
1EF
330
1F
100
AcDbEntity
  8
0
100
AcDbLine
 10
59.86974534121342
 20
-1.492806387028695
 30
0.0
 11
58.59822710455538
 21
-1.311815246821483
 31
0.0
  0
LINE
  5
1F0
330
1F
100
AcDbEntity
  8
0
100
AcDbLine
 10
64.64723440603805
 20
0.0795101009105198
 30
0.0
 11
63.58256895715661
 21
-0.6388240142096916
 31
0.0
  0
LINE
  5
1F1
330
1F
100
AcDbEntity
  8
0
100
AcDbLine
 10
-16.88468602378908
 20
-37.89037950698964
 30
0.0
 11
-16.78246350265624
 21
-37.11392237168208
 31
0.0
  0
LINE
  5
1F2
330
1F
100
AcDbEntity
  8
0
100
AcDbLine
 10
65.5844724017506
 20
1.011382360065425
 30
0.0
 11
65.56273800835964
 21
0.9802706535124517
 31
0.0
  0
LINE
  5
1F3
330
1F
100
AcDbEntity
  8
0
100
AcDbLine
 10
-19.00600636734868
 20
-34.21614489281483
 30
0.0
 11
-19.78246350265628
 21
-34.11392237168204
 31
0.0
  0
LINE
  5
1F4
330
1F
100
AcDbEntity
  8
0
100
AcDbLine
 10
-17.66114315909659
 20
-34.99260202812243
 30
0.0
 11
-18.28246350265626
 21
-34.51584616032873
 31
0.0
  0
LINE
  5
1F5
330
1F
100
AcDbEntity
  8
0
100
AcDbLine
 10
60.32585701320036
 20
-1.473482133180368
 30
0.0
 11
59.86974534121342
 21
-1.492806387028695
 31
0.0
  0
LINE
  5
1F6
330
1F
100
AcDbEntity
  8
0
100
AcDbLine
 10
-22.68024098152349
 20
-36.33746523637453
 30
0.0
 11
-22.78246350265632
 21
-37.11392237168208
 31
0.0
  0
LINE
  5
1F7
330
1F
100
AcDbEntity
  8
0
100
AcDbLine
 10
55.27115762339069
 20
0.5442434170395631
 30
0.0
 11
54.90095969934938
 21
0.9986107134949445
 31
0.0
  0
LINE
  5
1F8
330
1F
100
AcDbEntity
  8
0
100
AcDbLine
 10
56.25956942689196
 20
-0.2758532392679009
 30
0.0
 11
55.27115762339069
 21
0.5442434170395631
 31
0.0
  0
LINE
  5
1F9
330
1F
100
AcDbEntity
  8
0
100
AcDbLine
 10
57.29326677186437
 20
-0.8525177555359407
 30
0.0
 11
57.27264974062406
 21
-1.167072866827334
 31
0.0
  0
LINE
  5
1FA
330
1F
100
AcDbEntity
  8
0
100
AcDbLine
 10
57.27264974062406
 20
-1.167072866827334
 30
0.0
 11
57.14250266169191
 21
-1.821366416527909
 31
0.0
  0
LINE
  5
1FB
330
1F
100
AcDbEntity
  8
0
100
AcDbLine
 10
57.14250266169191
 20
-1.821366416527909
 30
0.0
 11
56.92806656342521
 21
-2.453074791567029
 31
0.0
  0
LINE
  5
1FC
330
1F
100
AcDbEntity
  8
0
100
AcDbLine
 10
56.92806656342521
 20
-2.453074791567029
 30
0.0
 11
56.63301050691833
 21
-3.051389286505082
 31
0.0
  0
LINE
  5
1FD
330
1F
100
AcDbEntity
  8
0
100
AcDbLine
 10
56.63301050691833
 20
-3.051389286505082
 30
0.0
 11
56.26238298310296
 21
-3.606072574449566
 31
0.0
  0
LINE
  5
1FE
330
1F
100
AcDbEntity
  8
0
100
AcDbLine
 10
56.26238298310296
 20
-3.606072574449566
 30
0.0
 11
55.82252553166908
 21
-4.10763387055649
 31
0.0
  0
LINE
  5
1FF
330
1F
100
AcDbEntity
  8
0
100
AcDbLine
 10
55.82252553166908
 20
-4.10763387055649
 30
0.0
 11
55.32096423556211
 21
-4.547491321990368
 31
0.0
  0
LINE
  5
200
330
1F
100
AcDbEntity
  8
0
100
AcDbLine
 10
55.32096423556211
 20
-4.547491321990368
 30
0.0
 11
54.76628094761762
 21
-4.9181188458057
 31
0.0
  0
LINE
  5
201
330
1F
100
AcDbEntity
  8
0
100
AcDbLine
 10
54.76628094761762
 20
-4.9181188458057
 30
0.0
 11
54.16796645267961
 21
-5.213174902312626
 31
0.0
  0
LINE
  5
202
330
1F
100
AcDbEntity
  8
0
100
AcDbLine
 10
54.16796645267961
 20
-5.213174902312626
 30
0.0
 11
53.5362580776405
 21
-5.427611000579324
 31
0.0
  0
LINE
  5
203
330
1F
100
AcDbEntity
  8
0
100
AcDbLine
 10
53.5362580776405
 20
-5.427611000579324
 30
0.0
 11
52.88196452793992
 21
-5.55775807951152
 31
0.0
  0
LINE
  5
204
330
1F
100
AcDbEntity
  8
0
100
AcDbLine
 10
52.88196452793992
 20
-5.55775807951152
 30
0.0
 11
52.21628094761766
 21
-5.601389286505088
 31
0.0
  0
LINE
  5
205
330
1F
100
AcDbEntity
  8
0
100
AcDbLine
 10
52.21628094761766
 20
-5.601389286505088
 30
0.0
 11
51.5505973672954
 21
-5.55775807951152
 31
0.0
  0
LINE
  5
206
330
1F
100
AcDbEntity
  8
0
100
AcDbLine
 10
51.5505973672954
 20
-5.55775807951152
 30
0.0
 11
50.89630381759483
 21
-5.427611000579324
 31
0.0
  0
LINE
  5
207
330
1F
100
AcDbEntity
  8
0
100
AcDbLine
 10
50.89630381759483
 20
-5.427611000579324
 30
0.0
 11
50.26459544255571
 21
-5.213174902312626
 31
0.0
  0
LINE
  5
208
330
1F
100
AcDbEntity
  8
0
100
AcDbLine
 10
50.26459544255571
 20
-5.213174902312626
 30
0.0
 11
49.66628094761762
 21
-4.9181188458057
 31
0.0
  0
LINE
  5
209
330
1F
100
AcDbEntity
  8
0
100
AcDbLine
 10
49.66628094761762
 20
-4.9181188458057
 30
0.0
 11
49.11159765967313
 21
-4.547491321990368
 31
0.0
  0
LINE
  5
20A
330
1F
100
AcDbEntity
  8
0
100
AcDbLine
 10
49.11159765967313
 20
-4.547491321990368
 30
0.0
 11
48.61003636356625
 21
-4.10763387055649
 31
0.0
  0
LINE
  5
20B
330
1F
100
AcDbEntity
  8
0
100
AcDbLine
 10
48.61003636356625
 20
-4.10763387055649
 30
0.0
 11
48.17017891213237
 21
-3.606072574449566
 31
0.0
  0
LINE
  5
20C
330
1F
100
AcDbEntity
  8
0
100
AcDbLine
 10
48.17017891213237
 20
-3.606072574449566
 30
0.0
 11
47.79955138831699
 21
-3.051389286505082
 31
0.0
  0
LINE
  5
20D
330
1F
100
AcDbEntity
  8
0
100
AcDbLine
 10
47.79955138831699
 20
-3.051389286505082
 30
0.0
 11
47.50449533181011
 21
-2.453074791567029
 31
0.0
  0
LINE
  5
20E
330
1F
100
AcDbEntity
  8
0
100
AcDbLine
 10
47.50449533181011
 20
-2.453074791567029
 30
0.0
 11
47.29005923354342
 21
-1.821366416527909
 31
0.0
  0
LINE
  5
20F
330
1F
100
AcDbEntity
  8
0
100
AcDbLine
 10
47.29005923354342
 20
-1.821366416527909
 30
0.0
 11
47.15991215461117
 21
-1.167072866827334
 31
0.0
  0
LINE
  5
210
330
1F
100
AcDbEntity
  8
0
100
AcDbLine
 10
47.15991215461117
 20
-1.167072866827334
 30
0.0
 11
47.11628094761765
 21
-0.5013892865050754
 31
0.0
  0
LINE
  5
211
330
1F
100
AcDbEntity
  8
0
100
AcDbLine
 10
47.11628094761765
 20
-0.5013892865050754
 30
0.0
 11
46.91880220123654
 21
0.9986107134949445
 31
0.0
  0
LINE
  5
212
330
1F
100
AcDbEntity
  8
0
100
AcDbLine
 10
57.38117838587569
 20
-0.9015606486175213
 30
0.0
 11
57.29326677186437
 21
-0.8525177555359407
 31
0.0
  0
LINE
  5
213
330
1F
100
AcDbEntity
  8
0
100
AcDbLine
 10
61.15292921404544
 20
-1.43844125582159
 30
0.0
 11
60.32585701320036
 21
-1.473482133180368
 31
0.0
  0
LINE
  5
214
330
1F
100
AcDbEntity
  8
0
100
AcDbLine
 10
58.59822710455538
 20
-1.311815246821483
 30
0.0
 11
57.38117838587569
 21
-0.9015606486175213
 31
0.0
  0
LINE
  5
215
330
1F
100
AcDbEntity
  8
0
100
AcDbLine
 10
62.40458213393282
 20
-1.150549979252077
 30
0.0
 11
61.15292921404544
 21
-1.43844125582159
 31
0.0
  0
LINE
  5
216
330
1F
100
AcDbEntity
  8
0
100
AcDbLine
 10
65.56273800835964
 20
0.9802706535124517
 30
0.0
 11
64.64723440603805
 21
0.0795101009105198
 31
0.0
  0
LINE
  5
217
330
1F
100
AcDbEntity
  8
0
100
AcDbLine
 10
-22.78246350265632
 20
-37.11392237168208
 30
0.0
 11
-22.78246350265632
 21
-25.26064271412242
 31
0.0
  0
LINE
  5
218
330
1F
100
AcDbEntity
  8
0
100
AcDbLine
 10
-21.90378384621597
 20
-34.99260202812239
 30
0.0
 11
-22.38053971400963
 21
-35.61392237168206
 31
0.0
  0
LINE
  5
219
330
1F
100
AcDbEntity
  8
0
100
AcDbLine
 10
65.5844724017506
 20
1.011382360065425
 30
0.0
 11
75.02203301623153
 21
0.9986107134949445
 31
0.0
  0
LINE
  5
21A
330
1F
100
AcDbEntity
  8
0
100
AcDbLine
 10
-21.2824635026563
 20
-34.51584616032873
 30
0.0
 11
-21.90378384621597
 21
-34.99260202812239
 31
0.0
  0
LINE
  5
21B
330
1F
100
AcDbEntity
  8
0
100
AcDbLine
 10
60.32585701320036
 20
-1.473482133180368
 30
0.0
 11
59.97012203430813
 21
-1.852301409520839
 31
0.0
  0
LINE
  5
21C
330
1F
100
AcDbEntity
  8
0
100
AcDbLine
 10
-16.78246350265624
 20
-37.11392237168208
 30
0.0
 11
-16.88468602378908
 21
-36.33746523637453
 31
0.0
  0
LINE
  5
21D
330
1F
100
AcDbEntity
  8
0
100
AcDbLine
 10
-18.28246350265626
 20
-34.51584616032873
 30
0.0
 11
-19.00600636734868
 21
-34.21614489281483
 31
0.0
  0
LINE
  5
21E
330
1F
100
AcDbEntity
  8
0
100
AcDbLine
 10
78.18977991647388
 20
0.9986107134949445
 30
0.0
 11
79.64092380810933
 21
0.1302929954457702
 31
0.0
  0
LINE
  5
21F
330
1F
100
AcDbEntity
  8
0
100
AcDbLine
 10
-19.78246350265628
 20
-34.11392237168204
 30
0.0
 11
-20.55892063796388
 21
-34.21614489281483
 31
0.0
  0
LINE
  5
220
330
1F
100
AcDbEntity
  8
0
100
AcDbLine
 10
-17.66114315909659
 20
-39.23524271524177
 30
0.0
 11
-17.18438729130293
 21
-38.6139223716821
 31
0.0
  0
LINE
  5
221
330
1F
100
AcDbEntity
  8
0
100
AcDbLine
 10
-17.18438729130293
 20
-35.61392237168206
 30
0.0
 11
-17.66114315909659
 21
-34.99260202812243
 31
0.0
  0
LINE
  5
222
330
1F
100
AcDbEntity
  8
0
100
AcDbLine
 10
-18.28246350265626
 20
-39.71199858303542
 30
0.0
 11
-17.66114315909659
 21
-39.23524271524177
 31
0.0
  0
LINE
  5
223
330
1F
100
AcDbEntity
  8
0
100
AcDbLine
 10
-16.88468602378908
 20
-36.33746523637453
 30
0.0
 11
-17.18438729130293
 21
-35.61392237168206
 31
0.0
  0
LINE
  5
224
330
1F
100
AcDbEntity
  8
0
100
AcDbLine
 10
83.56985887723262
 20
-3.085467447467223
 30
0.0
 11
84.76424212996137
 21
-4.398281653492918
 31
0.0
  0
LINE
  5
225
330
1F
100
AcDbEntity
  8
0
100
AcDbLine
 10
-17.18438729130293
 20
-38.6139223716821
 30
0.0
 11
-16.88468602378908
 21
-37.89037950698964
 31
0.0
  0
LINE
  5
226
330
1F
100
AcDbEntity
  8
0
100
AcDbLine
 10
79.64092380810933
 20
0.1302929954457702
 30
0.0
 11
81.6840743136942
 21
-1.381454354895454
 31
0.0
  0
LINE
  5
227
330
1F
100
AcDbEntity
  8
0
100
AcDbLine
 10
-19.00600636734868
 20
-40.01169985054933
 30
0.0
 11
-18.28246350265626
 21
-39.71199858303542
 31
0.0
  0
LINE
  5
228
330
1F
100
AcDbEntity
  8
0
100
AcDbLine
 10
63.58256895715661
 20
-0.6388240142096916
 30
0.0
 11
62.40458213393282
 21
-1.150549979252077
 31
0.0
  0
LINE
  5
229
330
1F
100
AcDbEntity
  8
0
100
AcDbLine
 10
-20.55892063796388
 20
-34.21614489281483
 30
0.0
 11
-21.2824635026563
 21
-34.51584616032873
 31
0.0
  0
LINE
  5
22A
330
1F
100
AcDbEntity
  8
0
100
AcDbLine
 10
-22.38053971400963
 20
-35.61392237168206
 30
0.0
 11
-22.68024098152349
 21
-36.33746523637453
 31
0.0
  0
LINE
  5
22B
330
1F
100
AcDbEntity
  8
0
100
AcDbLine
 10
76.26970397512731
 20
0.2068146459942752
 30
0.0
 11
75.02203301623153
 21
0.9986107134949445
 31
0.0
  0
LINE
  5
22C
330
1F
100
AcDbEntity
  8
0
100
AcDbLine
 10
70.72027975038925
 20
-21.40676570227879
 30
0.0
 11
72.20055959359594
 21
-21.12438722004866
 31
0.0
  0
LINE
  5
22D
330
1F
100
AcDbEntity
  8
0
100
AcDbLine
 10
74.99732503683823
 20
-20.01706944703146
 30
0.0
 11
76.26970397512731
 21
-19.20959321900444
 31
0.0
  0
LINE
  5
22E
330
1F
100
AcDbEntity
  8
0
100
AcDbLine
 10
81.1926016887569
 20
-10.25487552085685
 30
0.0
 11
81.1926016887569
 21
-8.747903052153312
 31
0.0
  0
LINE
  5
22F
330
1F
100
AcDbEntity
  8
0
100
AcDbLine
 10
66.23200230163941
 20
-21.12438722004866
 30
0.0
 11
67.71228214484601
 21
-21.40676570227883
 31
0.0
  0
LINE
  5
230
330
1F
100
AcDbEntity
  8
0
100
AcDbLine
 10
64.79878631540154
 20
-20.65870711716414
 30
0.0
 11
66.23200230163941
 21
-21.12438722004866
 31
0.0
  0
LINE
  5
231
330
1F
100
AcDbEntity
  8
0
100
AcDbLine
 10
59.97012203430821
 20
-17.15047716348937
 30
0.0
 11
61.00171567647338
 21
-18.24901281556205
 31
0.0
  0
LINE
  5
232
330
1F
100
AcDbEntity
  8
0
100
AcDbLine
 10
61.00171567647338
 20
-18.24901281556205
 30
0.0
 11
62.16285792010805
 21
-19.20959321900448
 31
0.0
  0
LINE
  5
233
330
1F
100
AcDbEntity
  8
0
100
AcDbLine
 10
57.42883393887342
 20
-11.7499650615338
 30
0.0
 11
57.8036027520758
 21
-13.20959321900449
 31
0.0
  0
LINE
  5
234
330
1F
100
AcDbEntity
  8
0
100
AcDbLine
 10
73.63377557983372
 20
-20.6587071171641
 30
0.0
 11
74.99732503683823
 21
-20.01706944703146
 31
0.0
  0
LINE
  5
235
330
1F
100
AcDbEntity
  8
0
100
AcDbLine
 10
80.07420557720994
 20
-4.392037787724228
 30
0.0
 11
79.34821605364182
 21
-3.071467746757102
 31
0.0
  0
LINE
  5
236
330
1F
100
AcDbEntity
  8
0
100
AcDbLine
 10
76.26970397512731
 20
-19.20959321900444
 30
0.0
 11
77.43084621876189
 21
-18.249012815562
 31
0.0
  0
LINE
  5
237
330
1F
100
AcDbEntity
  8
0
100
AcDbLine
 10
72.20055959359594
 20
-21.12438722004866
 30
0.0
 11
73.63377557983372
 21
-20.6587071171641
 31
0.0
  0
LINE
  5
238
330
1F
100
AcDbEntity
  8
0
100
AcDbLine
 10
59.08434584159345
 20
-15.93131082625311
 30
0.0
 11
59.97012203430821
 21
-17.15047716348937
 31
0.0
  0
LINE
  5
239
330
1F
100
AcDbEntity
  8
0
100
AcDbLine
 10
58.35835631802541
 20
-14.61074078528598
 30
0.0
 11
59.08434584159345
 21
-15.93131082625311
 31
0.0
  0
LINE
  5
23A
330
1F
100
AcDbEntity
  8
0
100
AcDbLine
 10
62.16285792010805
 20
-19.20959321900448
 30
0.0
 11
63.43523685839713
 21
-20.01706944703146
 31
0.0
  0
LINE
  5
23B
330
1F
100
AcDbEntity
  8
0
100
AcDbLine
 10
77.43084621876189
 20
-18.249012815562
 30
0.0
 11
78.46243986092715
 21
-17.15047716348937
 31
0.0
  0
LINE
  5
23C
330
1F
100
AcDbEntity
  8
0
100
AcDbLine
 10
78.46243986092715
 20
-1.852301409520794
 30
0.0
 11
77.43084621876189
 21
-0.7537657574481162
 31
0.0
  0
LINE
  5
23D
330
1F
100
AcDbEntity
  8
0
100
AcDbLine
 10
57.42883393887342
 20
-7.252813511476406
 30
0.0
 11
57.23996020647838
 21
-8.747903052153358
 31
0.0
  0
LINE
  5
23E
330
1F
100
AcDbEntity
  8
0
100
AcDbLine
 10
81.1926016887569
 20
-8.747903052153312
 30
0.0
 11
81.00372795636193
 21
-7.252813511476406
 31
0.0
  0
LINE
  5
23F
330
1F
100
AcDbEntity
  8
0
100
AcDbLine
 10
80.62895914315946
 20
-13.20959321900445
 30
0.0
 11
81.00372795636193
 21
-11.7499650615338
 31
0.0
  0
LINE
  5
240
330
1F
100
AcDbEntity
  8
0
100
AcDbLine
 10
79.34821605364182
 20
-15.93131082625302
 30
0.0
 11
80.07420557720994
 21
-14.61074078528598
 31
0.0
  0
LINE
  5
241
330
1F
100
AcDbEntity
  8
0
100
AcDbLine
 10
77.43084621876189
 20
-0.7537657574481162
 30
0.0
 11
76.26970397512731
 21
0.2068146459942752
 31
0.0
  0
LINE
  5
242
330
1F
100
AcDbEntity
  8
0
100
AcDbLine
 10
67.71228214484601
 20
-21.40676570227883
 30
0.0
 11
69.21628094761759
 21
-21.50138928650508
 31
0.0
  0
LINE
  5
243
330
1F
100
AcDbEntity
  8
0
100
AcDbLine
 10
57.23996020647838
 20
-8.747903052153358
 30
0.0
 11
57.23996020647838
 21
-10.2548755208569
 31
0.0
  0
LINE
  5
244
330
1F
100
AcDbEntity
  8
0
100
AcDbLine
 10
80.62895914315946
 20
-5.793185354005714
 30
0.0
 11
80.07420557720994
 21
-4.392037787724228
 31
0.0
  0
LINE
  5
245
330
1F
100
AcDbEntity
  8
0
100
AcDbLine
 10
57.8036027520758
 20
-5.793185354005759
 30
0.0
 11
57.42883393887342
 21
-7.252813511476406
 31
0.0
  0
LINE
  5
246
330
1F
100
AcDbEntity
  8
0
100
AcDbLine
 10
81.00372795636193
 20
-7.252813511476406
 30
0.0
 11
80.62895914315946
 21
-5.793185354005714
 31
0.0
  0
LINE
  5
247
330
1F
100
AcDbEntity
  8
0
100
AcDbLine
 10
58.35835631802541
 20
-4.392037787724228
 30
0.0
 11
57.8036027520758
 21
-5.793185354005759
 31
0.0
  0
LINE
  5
248
330
1F
100
AcDbEntity
  8
0
100
AcDbLine
 10
59.08434584159345
 20
-3.071467746757147
 30
0.0
 11
58.35835631802541
 21
-4.392037787724228
 31
0.0
  0
LINE
  5
249
330
1F
100
AcDbEntity
  8
0
100
AcDbLine
 10
59.97012203430813
 20
-1.852301409520839
 30
0.0
 11
59.08434584159345
 21
-3.071467746757147
 31
0.0
  0
LINE
  5
24A
330
1F
100
AcDbEntity
  8
0
100
AcDbLine
 10
63.43523685839713
 20
-20.01706944703146
 30
0.0
 11
64.79878631540154
 21
-20.65870711716414
 31
0.0
  0
LINE
  5
24B
330
1F
100
AcDbEntity
  8
0
100
AcDbLine
 10
81.6840743136942
 20
-1.381454354895454
 30
0.0
 11
83.56985887723262
 21
-3.085467447467223
 31
0.0
  0
LINE
  5
24C
330
1F
100
AcDbEntity
  8
0
100
AcDbLine
 10
87.47815971296433
 20
-8.129935331362688
 30
0.0
 11
87.7162809476177
 21
-8.524841141618024
 31
0.0
  0
LINE
  5
24D
330
1F
100
AcDbEntity
  8
0
100
AcDbLine
 10
78.46243986092715
 20
-17.15047716348937
 30
0.0
 11
79.34821605364182
 21
-15.93131082625302
 31
0.0
  0
LINE
  5
24E
330
1F
100
AcDbEntity
  8
0
100
AcDbLine
 10
87.7162809476177
 20
-12.73536388272055
 30
0.0
 11
87.6092983137643
 21
-12.79713033517445
 31
0.0
  0
LINE
  5
24F
330
1F
100
AcDbEntity
  8
0
100
AcDbLine
 10
57.8036027520758
 20
-13.20959321900449
 30
0.0
 11
58.35835631802541
 21
-14.61074078528598
 31
0.0
  0
LINE
  5
250
330
1F
100
AcDbEntity
  8
0
100
AcDbLine
 10
69.21628094761759
 20
-21.50138928650508
 30
0.0
 11
70.72027975038925
 21
-21.40676570227879
 31
0.0
  0
LINE
  5
251
330
1F
100
AcDbEntity
  8
0
100
AcDbLine
 10
79.34821605364182
 20
-3.071467746757102
 30
0.0
 11
78.46243986092715
 21
-1.852301409520794
 31
0.0
  0
LINE
  5
252
330
1F
100
AcDbEntity
  8
0
100
AcDbLine
 10
4.216280947617658
 20
-24.50138928650508
 30
0.0
 11
4.301832333879515
 21
-25.80665120870561
 31
0.0
  0
LINE
  5
253
330
1F
100
AcDbEntity
  8
0
100
AcDbLine
 10
4.301832333879515
 20
-25.80665120870561
 30
0.0
 11
4.557022684726987
 21
-27.08957973753028
 31
0.0
  0
LINE
  5
254
330
1F
100
AcDbEntity
  8
0
100
AcDbLine
 10
80.07420557720994
 20
-14.61074078528598
 30
0.0
 11
80.62895914315946
 21
-13.20959321900445
 31
0.0
  0
LINE
  5
255
330
1F
100
AcDbEntity
  8
0
100
AcDbLine
 10
74.11689394359146
 20
-50.45510976238418
 30
0.0
 11
75.37247420841732
 21
-49.80193706493338
 31
0.0
  0
LINE
  5
256
330
1F
100
AcDbEntity
  8
0
100
AcDbLine
 10
6.282747544705248
 20
-30.58900357659228
 30
0.0
 11
7.145213135752147
 21
-31.57245709837057
 31
0.0
  0
LINE
  5
257
330
1F
100
AcDbEntity
  8
0
100
AcDbLine
 10
0.2162809476176659
 20
-45.1676405781772
 30
0.0
 11
0.2162809476176659
 21
-52.50138928650505
 31
0.0
  0
LINE
  5
258
330
1F
100
AcDbEntity
  8
0
100
AcDbLine
 10
87.56951718482317
 20
-41.33442100004813
 30
0.0
 11
86.33949431484595
 21
-41.84391315482171
 31
0.0
  0
LINE
  5
259
330
1F
100
AcDbEntity
  8
0
100
AcDbLine
 10
81.08507489628077
 20
-37.73171976815494
 30
0.0
 11
80.7941675532751
 21
-36.34662435920263
 31
0.0
  0
LINE
  5
25A
330
1F
100
AcDbEntity
  8
0
100
AcDbLine
 10
79.73547626686532
 20
-33.72674385708545
 30
0.0
 11
78.98241928075952
 21
-32.52840269122634
 31
0.0
  0
LINE
  5
25B
330
1F
100
AcDbEntity
  8
0
100
AcDbLine
 10
81.16983589613812
 20
-40.55615186296563
 30
0.0
 11
81.21088102053946
 21
-39.14143221869743
 31
0.0
  0
LINE
  5
25C
330
1F
100
AcDbEntity
  8
0
100
AcDbLine
 10
90.20947144486883
 20
-41.33442100004813
 30
0.0
 11
88.88949431484599
 21
-41.16064271412237
 31
0.0
  0
LINE
  5
25D
330
1F
100
AcDbEntity
  8
0
100
AcDbLine
 10
83.96327260077166
 20
-44.9406655840995
 30
0.0
 11
83.7894943148459
 21
-46.26064271412238
 31
0.0
  0
LINE
  5
25E
330
1F
100
AcDbEntity
  8
0
100
AcDbLine
 10
77.08111401446843
 20
-30.43803445341095
 30
0.0
 11
75.95931389894366
 21
-29.57508551232349
 31
0.0
  0
LINE
  5
25F
330
1F
100
AcDbEntity
  8
0
100
AcDbLine
 10
57.52397325531
 20
-52.50138928650505
 30
0.0
 11
88.71659956678846
 21
-52.50138928650505
 31
0.0
  0
LINE
  5
260
330
1F
100
AcDbEntity
  8
0
100
AcDbLine
 10
73.45122580452295
 20
-28.27351138999359
 30
0.0
 11
72.09982666124966
 21
-27.85299179511624
 31
0.0
  0
LINE
  5
261
330
1F
100
AcDbEntity
  8
0
100
AcDbLine
 10
80.7941675532751
 20
-36.34662435920263
 30
0.0
 11
80.34220566695387
 21
-35.00541340360003
 31
0.0
  0
LINE
  5
262
330
1F
100
AcDbEntity
  8
0
100
AcDbLine
 10
65.13098007028442
 20
-28.21820193799136
 30
0.0
 11
63.8309384375177
 21
-28.77767323054248
 31
0.0
  0
LINE
  5
263
330
1F
100
AcDbEntity
  8
0
100
AcDbLine
 10
0.2162809476176659
 20
-45.1676405781772
 30
0.0
 11
2.172439095074818
 21
-46.40905628760169
 31
0.0
  0
LINE
  5
264
330
1F
100
AcDbEntity
  8
0
100
AcDbLine
 10
63.8309384375177
 20
-28.77767323054248
 30
0.0
 11
62.60580977532186
 21
-29.48631710103149
 31
0.0
  0
LINE
  5
265
330
1F
100
AcDbEntity
  8
0
100
AcDbLine
 10
84.47276475554533
 20
-48.81064271412236
 30
0.0
 11
85.28324973079458
 21
-49.86688729817375
 31
0.0
  0
LINE
  5
266
330
1F
100
AcDbEntity
  8
0
100
AcDbLine
 10
72.09982666124966
 20
-27.85299179511624
 30
0.0
 11
70.70831586773703
 21
-27.59450758737226
 31
0.0
  0
LINE
  5
267
330
1F
100
AcDbEntity
  8
0
100
AcDbLine
 10
86.33949431484595
 20
-41.84391315482171
 30
0.0
 11
85.28324973079458
 21
-42.65439813007097
 31
0.0
  0
LINE
  5
268
330
1F
100
AcDbEntity
  8
0
100
AcDbLine
 10
85.28324973079458
 20
-42.65439813007097
 30
0.0
 11
84.47276475554533
 21
-43.71064271412237
 31
0.0
  0
LINE
  5
269
330
1F
100
AcDbEntity
  8
0
100
AcDbLine
 10
80.06282774248217
 20
-44.63485036328487
 30
0.0
 11
80.59178878616852
 21
-43.32209882991013
 31
0.0
  0
LINE
  5
26A
330
1F
100
AcDbEntity
  8
0
100
AcDbLine
 10
81.21088102053946
 20
-39.14143221869743
 30
0.0
 11
81.08507489628077
 21
-37.73171976815494
 31
0.0
  0
LINE
  5
26B
330
1F
100
AcDbEntity
  8
0
100
AcDbLine
 10
78.0935101307162
 20
-31.42705946721087
 30
0.0
 11
77.08111401446843
 21
-30.43803445341095
 31
0.0
  0
LINE
  5
26C
330
1F
100
AcDbEntity
  8
0
100
AcDbLine
 10
5.556026909773215
 20
-29.50138928650507
 30
0.0
 11
6.282747544705248
 21
-30.58900357659228
 31
0.0
  0
LINE
  5
26D
330
1F
100
AcDbEntity
  8
0
100
AcDbLine
 10
70.70831586773703
 20
-27.59450758737226
 30
0.0
 11
69.29605007714615
 21
-27.50165441918512
 31
0.0
  0
LINE
  5
26E
330
1F
100
AcDbEntity
  8
0
100
AcDbLine
 10
67.88267465565595
 20
-27.57572392737142
 30
0.0
 11
66.48785040499953
 21
-27.81568576578761
 31
0.0
  0
LINE
  5
26F
330
1F
100
AcDbEntity
  8
0
100
AcDbLine
 10
69.29605007714615
 20
-27.50165441918512
 30
0.0
 11
67.88267465565595
 21
-27.57572392737142
 31
0.0
  0
LINE
  5
270
330
1F
100
AcDbEntity
  8
0
100
AcDbLine
 10
62.60580977532186
 20
-29.48631710103149
 30
0.0
 11
61.4726362731666
 21
-30.33427593737243
 31
0.0
  0
LINE
  5
271
330
1F
100
AcDbEntity
  8
0
100
AcDbLine
 10
61.4726362731666
 20
-30.33427593737243
 30
0.0
 11
60.44718097547469
 21
-31.30975418241491
 31
0.0
  0
LINE
  5
272
330
1F
100
AcDbEntity
  8
0
100
AcDbLine
 10
84.47276475554533
 20
-43.71064271412237
 30
0.0
 11
83.96327260077166
 21
-44.9406655840995
 31
0.0
  0
LINE
  5
273
330
1F
100
AcDbEntity
  8
0
100
AcDbLine
 10
4.557022684726987
 20
-27.08957973753028
 30
0.0
 11
4.977485622504807
 21
-28.328223610156
 31
0.0
  0
LINE
  5
274
330
1F
100
AcDbEntity
  8
0
100
AcDbLine
 10
75.37247420841732
 20
-49.80193706493338
 30
0.0
 11
76.54241855988957
 21
-49.00547828472337
 31
0.0
  0
LINE
  5
275
330
1F
100
AcDbEntity
  8
0
100
AcDbLine
 10
0.2162809476176659
 20
-41.50138928650509
 30
0.0
 11
0.2162809476176659
 21
-45.1676405781772
 31
0.0
  0
LINE
  5
276
330
1F
100
AcDbEntity
  8
0
100
AcDbLine
 10
77.610452451569
 20
-48.07681258580933
 30
0.0
 11
78.56171896556307
 21
-47.02885820060494
 31
0.0
  0
LINE
  5
277
330
1F
100
AcDbEntity
  8
0
100
AcDbLine
 10
88.88949431484599
 20
-41.16064271412237
 30
0.0
 11
87.56951718482317
 21
-41.33442100004813
 31
0.0
  0
LINE
  5
278
330
1F
100
AcDbEntity
  8
0
100
AcDbLine
 10
64.17047614406651
 20
-50.38899021069681
 30
0.0
 11
65.50844210760613
 21
-50.84313837153044
 31
0.0
  0
LINE
  5
279
330
1F
100
AcDbEntity
  8
0
100
AcDbLine
 10
70.01028183904182
 20
-51.39685708606247
 30
0.0
 11
71.41963710613871
 21
-51.29737257060256
 31
0.0
  0
LINE
  5
27A
330
1F
100
AcDbEntity
  8
0
100
AcDbLine
 10
71.41963710613871
 20
-51.29737257060256
 30
0.0
 11
72.79314355282494
 21
-50.9559103984272
 31
0.0
  0
LINE
  5
27B
330
1F
100
AcDbEntity
  8
0
100
AcDbLine
 10
72.79314355282494
 20
-50.9559103984272
 30
0.0
 11
74.11689394359146
 21
-50.45510976238418
 31
0.0
  0
LINE
  5
27C
330
1F
100
AcDbEntity
  8
0
100
AcDbLine
 10
76.54241855988957
 20
-49.00547828472337
 30
0.0
 11
77.610452451569
 21
-48.07681258580933
 31
0.0
  0
LINE
  5
27D
330
1F
100
AcDbEntity
  8
0
100
AcDbLine
 10
79.3829854801333
 20
-45.87619273041806
 30
0.0
 11
80.06282774248217
 21
-44.63485036328487
 31
0.0
  0
LINE
  5
27E
330
1F
100
AcDbEntity
  8
0
100
AcDbLine
 10
80.59178878616852
 20
-43.32209882991013
 30
0.0
 11
80.96251048252662
 21
-41.95619920037472
 31
0.0
  0
LINE
  5
27F
330
1F
100
AcDbEntity
  8
0
100
AcDbLine
 10
80.96251048252662
 20
-41.95619920037472
 30
0.0
 11
81.16983589613812
 21
-40.55615186296563
 31
0.0
  0
LINE
  5
280
330
1F
100
AcDbEntity
  8
0
100
AcDbLine
 10
80.34220566695387
 20
-35.00541340360003
 30
0.0
 11
79.73547626686532
 21
-33.72674385708545
 31
0.0
  0
LINE
  5
281
330
1F
100
AcDbEntity
  8
0
100
AcDbLine
 10
78.98241928075952
 20
-32.52840269122634
 30
0.0
 11
78.0935101307162
 21
-31.42705946721087
 31
0.0
  0
LINE
  5
282
330
1F
100
AcDbEntity
  8
0
100
AcDbLine
 10
75.95931389894366
 20
-29.57508551232349
 30
0.0
 11
74.74371461872437
 21
-28.85021672140617
 31
0.0
  0
LINE
  5
283
330
1F
100
AcDbEntity
  8
0
100
AcDbLine
 10
74.74371461872437
 20
-28.85021672140617
 30
0.0
 11
73.45122580452295
 21
-28.27351138999359
 31
0.0
  0
LINE
  5
284
330
1F
100
AcDbEntity
  8
0
100
AcDbLine
 10
66.48785040499953
 20
-27.81568576578761
 30
0.0
 11
65.13098007028442
 21
-28.21820193799136
 31
0.0
  0
LINE
  5
285
330
1F
100
AcDbEntity
  8
0
100
AcDbLine
 10
60.44718097547469
 20
-31.30975418241491
 30
0.0
 11
59.54370850931375
 21
-32.3991824164003
 31
0.0
  0
LINE
  5
286
330
1F
100
AcDbEntity
  8
0
100
AcDbLine
 10
59.54370850931375
 20
-32.3991824164003
 30
0.0
 11
58.77478665586794
 21
-33.58740611478751
 31
0.0
  0
LINE
  5
287
330
1F
100
AcDbEntity
  8
0
100
AcDbLine
 10
58.77478665586794
 20
-33.58740611478751
 30
0.0
 11
58.15111152593636
 21
-34.85789645572687
 31
0.0
  0
LINE
  5
288
330
1F
100
AcDbEntity
  8
0
100
AcDbLine
 10
58.15111152593636
 20
-34.85789645572687
 30
0.0
 11
57.68135877135842
 21
-36.19298024473861
 31
0.0
  0
LINE
  5
289
330
1F
100
AcDbEntity
  8
0
100
AcDbLine
 10
57.68135877135842
 20
-36.19298024473861
 30
0.0
 11
57.37206290209577
 21
-37.57408575822144
 31
0.0
  0
LINE
  5
28A
330
1F
100
AcDbEntity
  8
0
100
AcDbLine
 10
57.37206290209577
 20
-37.57408575822144
 30
0.0
 11
57.22752638773303
 21
-38.98200108597783
 31
0.0
  0
LINE
  5
28B
330
1F
100
AcDbEntity
  8
0
100
AcDbLine
 10
57.22752638773303
 20
-38.98200108597783
 30
0.0
 11
57.24975980784362
 21
-40.39714137907447
 31
0.0
  0
LINE
  5
28C
330
1F
100
AcDbEntity
  8
0
100
AcDbLine
 10
57.24975980784362
 20
-40.39714137907447
 30
0.0
 11
57.43845388376179
 21
-41.79982128547824
 31
0.0
  0
LINE
  5
28D
330
1F
100
AcDbEntity
  8
0
100
AcDbLine
 10
57.43845388376179
 20
-41.79982128547824
 30
0.0
 11
57.79098378081253
 21
-43.17052878374357
 31
0.0
  0
LINE
  5
28E
330
1F
100
AcDbEntity
  8
0
100
AcDbLine
 10
57.79098378081253
 20
-43.17052878374357
 30
0.0
 11
58.30244562115479
 21
-44.49019660557952
 31
0.0
  0
LINE
  5
28F
330
1F
100
AcDbEntity
  8
0
100
AcDbLine
 10
58.30244562115479
 20
-44.49019660557952
 30
0.0
 11
58.96572469932219
 21
-45.74046747166449
 31
0.0
  0
LINE
  5
290
330
1F
100
AcDbEntity
  8
0
100
AcDbLine
 10
59.77159445155051
 20
-46.90394945113777
 30
0.0
 11
60.70884480217222
 21
-47.96445789258223
 31
0.0
  0
LINE
  5
291
330
1F
100
AcDbEntity
  8
0
100
AcDbLine
 10
60.70884480217222
 20
-47.96445789258223
 30
0.0
 11
61.76443810171538
 21
-48.90724056110936
 31
0.0
  0
LINE
  5
292
330
1F
100
AcDbEntity
  8
0
100
AcDbLine
 10
61.76443810171538
 20
-48.90724056110936
 30
0.0
 11
62.92369048752214
 21
-49.71918284977083
 31
0.0
  0
LINE
  5
293
330
1F
100
AcDbEntity
  8
0
100
AcDbLine
 10
62.92369048752214
 20
-49.71918284977083
 30
0.0
 11
64.17047614406651
 21
-50.38899021069681
 31
0.0
  0
LINE
  5
294
330
1F
100
AcDbEntity
  8
0
100
AcDbLine
 10
4.977485622504807
 20
-28.328223610156
 30
0.0
 11
5.556026909773215
 21
-29.50138928650507
 31
0.0
  0
LINE
  5
295
330
1F
100
AcDbEntity
  8
0
100
AcDbLine
 10
7.145213135752147
 20
-31.57245709837057
 30
0.0
 11
8.128666657530434
 21
-32.43492268941743
 31
0.0
  0
LINE
  5
296
330
1F
100
AcDbEntity
  8
0
100
AcDbLine
 10
-13.54925272793856
 20
-14.99041630214776
 30
0.0
 11
-14.2175863951917
 21
-15.20776525472689
 31
0.0
  0
LINE
  5
297
330
1F
100
AcDbEntity
  8
0
100
AcDbLine
 10
-13.99235905260041
 20
-10.83468300265611
 30
0.0
 11
-13.94124779203399
 21
-10.44645443500231
 31
0.0
  0
LINE
  5
298
330
1F
100
AcDbEntity
  8
0
100
AcDbLine
 10
-11.13429119628982
 20
-1.286078490801868
 30
0.0
 11
-13.01814559911372
 21
-2.967482830718263
 31
0.0
  0
LINE
  5
299
330
1F
100
AcDbEntity
  8
0
100
AcDbLine
 10
-10.37497151665607
 20
-10.68921403939015
 30
0.0
 11
-10.48214025656013
 21
-11.38378248033654
 31
0.0
  0
LINE
  5
29A
330
1F
100
AcDbEntity
  8
0
100
AcDbLine
 10
-14.691247792034
 20
-11.74549254067898
 30
0.0
 11
-14.38058762025421
 21
-11.50711460678215
 31
0.0
  0
LINE
  5
29B
330
1F
100
AcDbEntity
  8
0
100
AcDbLine
 10
-14.14220968635733
 20
-11.19645443500231
 30
0.0
 11
-13.99235905260041
 21
-10.83468300265611
 31
0.0
  0
LINE
  5
29C
330
1F
100
AcDbEntity
  8
0
100
AcDbLine
 10
-14.691247792034
 20
-9.147416329325633
 30
0.0
 11
-15.05301922438021
 21
-8.997565695568703
 31
0.0
  0
LINE
  5
29D
330
1F
100
AcDbEntity
  8
0
100
AcDbLine
 10
-10.63145493621322
 20
-8.609955870040489
 30
0.0
 11
-10.45034449473957
 21
-9.289006284929167
 31
0.0
  0
LINE
  5
29E
330
1F
100
AcDbEntity
  8
0
100
AcDbLine
 10
-10.904197588135
 20
-7.962250764460827
 30
0.0
 11
-10.63145493621322
 21
-8.609955870040489
 31
0.0
  0
LINE
  5
29F
330
1F
100
AcDbEntity
  8
0
100
AcDbLine
 10
-13.94124779203399
 20
-10.44645443500231
 30
0.0
 11
-13.99235905260041
 21
-10.0582258673485
 31
0.0
  0
LINE
  5
2A0
330
1F
100
AcDbEntity
  8
0
100
AcDbLine
 10
88.71659956678846
 20
-52.50138928650505
 30
0.0
 11
90.71628094761766
 21
-52.50138928650505
 31
0.0
  0
LINE
  5
2A1
330
1F
100
AcDbEntity
  8
0
100
AcDbLine
 10
-9.096218294592145
 20
0.2046551583434637
 30
0.0
 11
-11.13429119628982
 21
-1.286078490801868
 31
0.0
  0
LINE
  5
2A2
330
1F
100
AcDbEntity
  8
0
100
AcDbLine
 10
90.71628094761766
 20
-48.73536388272064
 30
0.0
 11
90.71628094761766
 21
-52.50138928650505
 31
0.0
  0
LINE
  5
2A3
330
1F
100
AcDbEntity
  8
0
100
AcDbLine
 10
-16.94124779203403
 20
-12.68042903121784
 30
0.0
 11
-16.94124779203403
 21
-12.9778271136461
 31
0.0
  0
LINE
  5
2A4
330
1F
100
AcDbEntity
  8
0
100
AcDbLine
 10
-14.29513639620227
 20
-4.352152457257744
 30
0.0
 11
-14.73001299958004
 21
-4.823698865706982
 31
0.0
  0
LINE
  5
2A5
330
1F
100
AcDbEntity
  8
0
100
AcDbLine
 10
-10.48214025656013
 20
-11.38378248033654
 30
0.0
 11
-10.68377658106872
 21
-12.05702333665019
 31
0.0
  0
LINE
  5
2A6
330
1F
100
AcDbEntity
  8
0
100
AcDbLine
 10
-12.91714447207245
 20
-14.68325248455659
 30
0.0
 11
-13.54925272793856
 21
-14.99041630214776
 31
0.0
  0
LINE
  5
2A7
330
1F
100
AcDbEntity
  8
0
100
AcDbLine
 10
-11.26339327141536
 20
-7.358190403996669
 30
0.0
 11
-10.904197588135
 21
-7.962250764460827
 31
0.0
  0
LINE
  5
2A8
330
1F
100
AcDbEntity
  8
0
100
AcDbLine
 10
-21.45693241961056
 20
-25.26064271412242
 30
0.0
 11
-22.78246350265632
 21
-25.26064271412242
 31
0.0
  0
LINE
  5
2A9
330
1F
100
AcDbEntity
  8
0
100
AcDbLine
 10
-22.78246350265632
 20
-37.11392237168208
 30
0.0
 11
-22.78246350265632
 21
-39.71896487891998
 31
0.0
  0
LINE
  5
2AA
330
1F
100
AcDbEntity
  8
0
100
AcDbLine
 10
-16.94124779203403
 20
-12.68042903121784
 30
0.0
 11
-15.44124779203401
 21
-13.54645443500232
 31
0.0
  0
LINE
  5
2AB
330
1F
100
AcDbEntity
  8
0
100
AcDbLine
 10
-16.94124779203403
 20
-8.212479838786766
 30
0.0
 11
-16.94124779203403
 21
-7.956923498905284
 31
0.0
  0
LINE
  5
2AC
330
1F
100
AcDbEntity
  8
0
100
AcDbLine
 10
-16.2537470745849
 20
-6.837218777204704
 30
0.0
 11
-16.94124779203403
 21
-7.956923498905284
 31
0.0
  0
LINE
  5
2AD
330
1F
100
AcDbEntity
  8
0
100
AcDbLine
 10
-14.73001299958004
 20
-4.823698865706982
 30
0.0
 11
-16.2537470745849
 21
-6.837218777204704
 31
0.0
  0
LINE
  5
2AE
330
1F
100
AcDbEntity
  8
0
100
AcDbLine
 10
-11.70222112852135
 20
-6.809245443368554
 30
0.0
 11
-11.26339327141536
 21
-7.358190403996669
 31
0.0
  0
LINE
  5
2AF
330
1F
100
AcDbEntity
  8
0
100
AcDbLine
 10
-10.45034449473957
 20
-9.289006284929167
 30
0.0
 11
-10.36430541562055
 21
-9.986507349326683
 31
0.0
  0
LINE
  5
2B0
330
1F
100
AcDbEntity
  8
0
100
AcDbLine
 10
-10.36430541562055
 20
-9.986507349326683
 30
0.0
 11
-10.37497151665607
 21
-10.68921403939015
 31
0.0
  0
LINE
  5
2B1
330
1F
100
AcDbEntity
  8
0
100
AcDbLine
 10
-10.68377658106872
 20
-12.05702333665019
 30
0.0
 11
-10.97605156709911
 21
-12.69615226770576
 31
0.0
  0
LINE
  5
2B2
330
1F
100
AcDbEntity
  8
0
100
AcDbLine
 10
-10.97605156709911
 20
-12.69615226770576
 30
0.0
 11
-11.35341513113711
 21
-13.28903269284039
 31
0.0
  0
LINE
  5
2B3
330
1F
100
AcDbEntity
  8
0
100
AcDbLine
 10
-11.35341513113711
 20
-13.28903269284039
 30
0.0
 11
-11.80870142117454
 21
-13.82440625594868
 31
0.0
  0
LINE
  5
2B4
330
1F
100
AcDbEntity
  8
0
100
AcDbLine
 10
-11.80870142117454
 20
-13.82440625594868
 30
0.0
 11
-12.33326489088216
 21
-14.29210661324982
 31
0.0
  0
LINE
  5
2B5
330
1F
100
AcDbEntity
  8
0
100
AcDbLine
 10
-12.33326489088216
 20
-14.29210661324982
 30
0.0
 11
-12.91714447207245
 21
-14.68325248455659
 31
0.0
  0
LINE
  5
2B6
330
1F
100
AcDbEntity
  8
0
100
AcDbLine
 10
-15.05301922438021
 20
-8.997565695568703
 30
0.0
 11
-15.44124779203401
 21
-8.946454435002286
 31
0.0
  0
LINE
  5
2B7
330
1F
100
AcDbEntity
  8
0
100
AcDbLine
 10
-13.01814559911372
 20
-2.967482830718263
 30
0.0
 11
-14.29513639620227
 21
-4.352152457257744
 31
0.0
  0
LINE
  5
2B8
330
1F
100
AcDbEntity
  8
0
100
AcDbLine
 10
-7.754603613805574
 20
0.9986107134949445
 30
0.0
 11
-9.096218294592145
 21
0.2046551583434637
 31
0.0
  0
LINE
  5
2B9
330
1F
100
AcDbEntity
  8
0
100
AcDbLine
 10
-16.94124779203403
 20
-8.946454435002286
 30
0.0
 11
-16.94124779203403
 21
-8.212479838786766
 31
0.0
  0
LINE
  5
2BA
330
1F
100
AcDbEntity
  8
0
100
AcDbLine
 10
-15.44124779203401
 20
-11.94645443500232
 30
0.0
 11
-16.94124779203403
 21
-11.94645443500232
 31
0.0
  0
LINE
  5
2BB
330
1F
100
AcDbEntity
  8
0
100
AcDbLine
 10
-15.44124779203401
 20
-11.94645443500232
 30
0.0
 11
-15.05301922438021
 21
-11.89534317443591
 31
0.0
  0
LINE
  5
2BC
330
1F
100
AcDbEntity
  8
0
100
AcDbLine
 10
-14.38058762025421
 20
-9.38579426322246
 30
0.0
 11
-14.691247792034
 21
-9.147416329325633
 31
0.0
  0
LINE
  5
2BD
330
1F
100
AcDbEntity
  8
0
100
AcDbLine
 10
-14.38058762025421
 20
-11.50711460678215
 30
0.0
 11
-14.14220968635733
 21
-11.19645443500231
 31
0.0
  0
LINE
  5
2BE
330
1F
100
AcDbEntity
  8
0
100
AcDbLine
 10
-15.05301922438021
 20
-11.89534317443591
 30
0.0
 11
-14.691247792034
 21
-11.74549254067898
 31
0.0
  0
LINE
  5
2BF
330
1F
100
AcDbEntity
  8
0
100
AcDbLine
 10
-16.94124779203403
 20
-11.94645443500232
 30
0.0
 11
-16.94124779203403
 21
-12.68042903121784
 31
0.0
  0
LINE
  5
2C0
330
1F
100
AcDbEntity
  8
0
100
AcDbLine
 10
-13.99235905260041
 20
-10.0582258673485
 30
0.0
 11
-14.14220968635733
 21
-9.696454435002295
 31
0.0
  0
LINE
  5
2C1
330
1F
100
AcDbEntity
  8
0
100
AcDbLine
 10
-14.14220968635733
 20
-9.696454435002295
 30
0.0
 11
-14.38058762025421
 21
-9.38579426322246
 31
0.0
  0
LINE
  5
2C2
330
1F
100
AcDbEntity
  8
0
100
AcDbLine
 10
-15.44124779203401
 20
-8.946454435002286
 30
0.0
 11
-16.94124779203403
 21
-8.946454435002286
 31
0.0
  0
LINE
  5
2C3
330
1F
100
AcDbEntity
  8
0
100
AcDbLine
 10
86.53160219588584
 20
-48.05138928650509
 30
0.0
 11
89.21628094761765
 21
-49.60138928650507
 31
0.0
  0
LINE
  5
2C4
330
1F
100
AcDbEntity
  8
0
100
AcDbLine
 10
62.44277027221624
 20
-46.71444553509297
 30
0.0
 11
61.59214576352461
 21
-45.80862243660697
 31
0.0
  0
LINE
  5
2C5
330
1F
100
AcDbEntity
  8
0
100
AcDbLine
 10
75.98979162301912
 20
-46.71444553509295
 30
0.0
 11
76.84041613171075
 21
-45.80862243660695
 31
0.0
  0
LINE
  5
2C6
330
1F
100
AcDbEntity
  8
0
100
AcDbLine
 10
59.39340844033072
 20
-11.37520243236235
 30
0.0
 11
59.23601366333488
 21
-10.12929448179822
 31
0.0
  0
LINE
  5
2C7
330
1F
100
AcDbEntity
  8
0
100
AcDbLine
 10
54.90095969934938
 20
-52.50138928650505
 30
0.0
 11
54.90095969934938
 21
-49.45138928650506
 31
0.0
  0
LINE
  5
2C8
330
1F
100
AcDbEntity
  8
0
100
AcDbLine
 10
47.11628094761765
 20
-51.00138928650505
 30
0.0
 11
46.90858863992533
 21
-52.50138928650505
 31
0.0
  0
LINE
  5
2C9
330
1F
100
AcDbEntity
  8
0
100
AcDbLine
 10
49.53160219588586
 20
-52.50138928650505
 30
0.0
 11
49.53160219588586
 21
-49.45138928650504
 31
0.0
  0
LINE
  5
2CA
330
1F
100
AcDbEntity
  8
0
100
AcDbLine
 10
-0.9865148478931468
 20
-39.70418508201586
 30
0.0
 11
3.466280947617649
 21
-43.12093546787051
 31
0.0
  0
LINE
  5
2CB
330
1F
100
AcDbEntity
  8
0
100
AcDbLine
 10
-16.50718495130467
 20
-23.21039018242823
 30
0.0
 11
-17.95693241961054
 21
-24.32282054061346
 31
0.0
  0
LINE
  5
2CC
330
1F
100
AcDbEntity
  8
0
100
AcDbLine
 10
50.91724284194099
 20
-50.25138928650507
 30
0.0
 11
50.76739220818406
 21
-50.61316071885127
 31
0.0
  0
LINE
  5
2CD
330
1F
100
AcDbEntity
  8
0
100
AcDbLine
 10
46.91880220123654
 20
0.9986107134949445
 30
0.0
 11
15.57191860644261
 21
0.9986107134949445
 31
0.0
  0
LINE
  5
2CE
330
1F
100
AcDbEntity
  8
0
100
AcDbLine
 10
49.53160219588586
 20
0.9986107134949445
 30
0.0
 11
49.53160219588586
 21
-2.051389286505084
 31
0.0
  0
LINE
  5
2CF
330
1F
100
AcDbEntity
  8
0
100
AcDbLine
 10
75.02203301623153
 20
0.9986107134949445
 30
0.0
 11
78.18977991647388
 21
0.9986107134949445
 31
0.0
  0
LINE
  5
2D0
330
1F
100
AcDbEntity
  8
0
100
AcDbLine
 10
81.54282809654515
 20
-11.42532841708371
 30
0.0
 11
81.38949431484599
 21
-10.26064271412235
 31
0.0
  0
LINE
  5
2D1
330
1F
100
AcDbEntity
  8
0
100
AcDbLine
 10
81.99237999781603
 20
-8.010642714122369
 30
0.0
 11
84.76424212996137
 21
-4.398281653492918
 31
0.0
  0
LINE
  5
2D2
330
1F
100
AcDbEntity
  8
0
100
AcDbLine
 10
4.854378300235787
 20
0.9986107134949445
 30
0.0
 11
-7.754603613805574
 21
0.9986107134949445
 31
0.0
  0
LINE
  5
2D3
330
1F
100
AcDbEntity
  8
0
100
AcDbLine
 10
79.03915345490454
 20
-11.37520243236231
 30
0.0
 11
79.19654823190038
 21
-10.12929448179817
 31
0.0
  0
LINE
  5
2D4
330
1F
100
AcDbEntity
  8
0
100
AcDbLine
 10
81.1926016887569
 20
-10.25487552085685
 30
0.0
 11
81.00372795636193
 21
-11.7499650615338
 31
0.0
  0
LINE
  5
2D5
330
1F
100
AcDbEntity
  8
0
100
AcDbLine
 10
57.42883393887342
 20
-11.7499650615338
 30
0.0
 11
57.23996020647838
 21
-10.2548755208569
 31
0.0
  0
LINE
  5
2D6
330
1F
100
AcDbEntity
  8
0
100
AcDbLine
 10
-22.78246350265632
 20
-39.71896487891998
 30
0.0
 11
-19.78246350265628
 21
-40.11392237168212
 31
0.0
  0
LINE
  5
2D7
330
1F
100
AcDbEntity
  8
0
100
AcDbLine
 10
83.7894943148459
 20
-46.26064271412238
 30
0.0
 11
83.96327260077166
 21
-47.58061984414521
 31
0.0
  0
LINE
  5
2D8
330
1F
100
AcDbEntity
  8
0
100
AcDbLine
 10
88.71659956678846
 20
-52.50138928650505
 30
0.0
 11
85.28324973079458
 21
-49.86688729817375
 31
0.0
  0
LINE
  5
2D9
330
1F
100
AcDbEntity
  8
0
100
AcDbLine
 10
0.2162809476176659
 20
-52.50138928650505
 30
0.0
 11
46.90858863992533
 21
-52.50138928650505
 31
0.0
  0
LINE
  5
2DA
330
1F
100
AcDbEntity
  8
0
100
AcDbLine
 10
83.96327260077166
 20
-47.58061984414521
 30
0.0
 11
84.47276475554533
 21
-48.81064271412236
 31
0.0
  0
LINE
  5
2DB
330
1F
100
AcDbEntity
  8
0
100
AcDbLine
 10
79.3829854801333
 20
-45.87619273041806
 30
0.0
 11
78.56171896556307
 21
-47.02885820060494
 31
0.0
  0
LINE
  5
2DC
330
1F
100
AcDbEntity
  8
0
100
AcDbLine
 10
59.77159445155051
 20
-46.90394945113777
 30
0.0
 11
58.96572469932219
 21
-45.74046747166449
 31
0.0
  0
LINE
  5
2DD
330
1F
100
AcDbEntity
  8
0
100
AcDbLine
 10
-14.2175863951917
 20
-15.20776525472689
 30
0.0
 11
-15.14130402426966
 21
-15.37252651483062
 31
0.0
  0
LINE
  5
2DE
330
1F
100
AcDbEntity
  8
0
100
AcDbLine
 10
-14.29513639620227
 20
-4.352152457257744
 30
0.0
 11
-11.70222112852135
 21
-6.809245443368554
 31
0.0
  0
LINE
  5
2DF
330
1F
100
AcDbEntity
  8
0
100
AcDbLine
 10
5.216280947617702
 20
-21.50138928650508
 30
0.0
 11
5.216280947617702
 21
-26.50138928650507
 31
0.0
  0
LINE
  5
2E0
330
1F
100
AcDbEntity
  8
0
100
AcDbLine
 10
14.21628094761764
 20
-24.50138928650508
 30
0.0
 11
19.21628094761768
 21
-24.50138928650508
 31
0.0
  0
LINE
  5
2E1
330
1F
100
AcDbEntity
  8
0
100
AcDbLine
 10
85.82731648835487
 20
-14.76064271412232
 30
0.0
 11
85.88949431484596
 21
-14.76064271412237
 31
0.0
  0
LINE
  5
2E2
330
1F
100
AcDbEntity
  8
0
100
AcDbLine
 10
5.216280947617702
 20
-21.50138928650508
 30
0.0
 11
10.21628094761765
 21
-21.50138928650508
 31
0.0
  0
LINE
  5
2E3
330
1F
100
AcDbEntity
  8
0
100
AcDbLine
 10
65.21628094761769
 20
-21.50138928650508
 30
0.0
 11
60.21628094761765
 21
-21.50138928650508
 31
0.0
  0
LINE
  5
2E4
330
1F
100
AcDbEntity
  8
0
100
AcDbLine
 10
65.21628094761769
 20
-21.50138928650508
 30
0.0
 11
65.21628094761769
 21
-26.50138928650507
 31
0.0
  0
LINE
  5
2E5
330
1F
100
AcDbEntity
  8
0
100
AcDbLine
 10
14.21628094761764
 20
-24.50138928650508
 30
0.0
 11
14.21628094761764
 21
-29.50138928650507
 31
0.0
  0
LINE
  5
2E6
330
1F
100
AcDbEntity
  8
0
100
AcDbLine
 10
42.21628094761768
 20
0.9986107134949445
 30
0.0
 11
42.21628094761768
 21
-1.501389286505073
 31
0.0
  0
LINE
  5
2E7
330
1F
100
AcDbEntity
  8
0
100
AcDbLine
 10
69.21628094761759
 20
-9.501389286505104
 30
0.0
 11
69.21628094761759
 21
-14.50138928650509
 31
0.0
  0
LINE
  5
2E8
330
1F
100
AcDbEntity
  8
0
100
AcDbLine
 10
69.21628094761759
 20
-39.50138928650509
 30
0.0
 11
69.21628094761759
 21
-44.50138928650509
 31
0.0
  0
LINE
  5
2E9
330
1F
100
AcDbEntity
  8
0
100
AcDbLine
 10
69.21628094761759
 20
-9.501389286505104
 30
0.0
 11
74.21628094761762
 21
-9.501389286505104
 31
0.0
  0
LINE
  5
2EA
330
1F
100
AcDbEntity
  8
0
100
AcDbLine
 10
69.21628094761759
 20
-39.50138928650509
 30
0.0
 11
74.21628094761762
 21
-39.50138928650509
 31
0.0
  0
ENDSEC
  0
SECTION
  2
OBJECTS
  0
DICTIONARY
  5
C
330
0
100
AcDbDictionary
  3
ACAD_GROUP
350
D
  3
ACAD_LAYOUT
350
1A
  3
ACAD_MATERIAL
350
43
  3
ACAD_MLEADERSTYLE
350
6B
  3
ACAD_MLINESTYLE
350
17
  3
ACAD_PLOTSETTINGS
350
19
  3
ACAD_SCALELIST
350
47
  3
ACAD_VISUALSTYLE
350
2A
  3
ACDBHEADERROUNDTRIPXREC
350
2EB
  3
ACDBVARIABLEDICTIONARY
350
30C
  0
DICTIONARY
  5
313
330
8
100
AcDbDictionary
280
     1
  3
ACAD_XREC_ROUNDTRIP
360
314
  0
DICTIONARY
  5
D
102
{ACAD_REACTORS
330
C
102
}
330
C
100
AcDbDictionary
  0
DICTIONARY
  5
1A
102
{ACAD_REACTORS
330
C
102
}
330
C
100
AcDbDictionary
  0
DICTIONARY
  5
43
102
{ACAD_REACTORS
330
C
102
}
330
C
100
AcDbDictionary
  3
BYBLOCK
350
45
  3
BYLAYER
350
44
  3
GLOBAL
350
46
  0
DICTIONARY
  5
6B
102
{ACAD_REACTORS
330
C
102
}
330
C
100
AcDbDictionary
  3
STANDARD
350
6C
  0
DICTIONARY
  5
17
102
{ACAD_REACTORS
330
C
102
}
330
C
100
AcDbDictionary
  3
STANDARD
350
18
  0
DICTIONARY
  5
19
102
{ACAD_REACTORS
330
C
102
}
330
C
100
AcDbDictionary
  0
DICTIONARY
  5
47
102
{ACAD_REACTORS
330
C
102
}
330
C
100
AcDbDictionary
  3
A0
350
48
  3
A1
350
49
  3
A2
350
4A
  3
A3
350
4B
  3
A4
350
4C
  3
A5
350
4D
  3
A6
350
4E
  3
A7
350
4F
  3
A8
350
50
  3
A9
350
51
  3
B0
350
52
  3
B1
350
53
  3
B2
350
54
  3
B3
350
55
  3
B4
350
56
  3
B5
350
57
  3
B6
350
58
  3
B7
350
59
  3
B8
350
5A
  3
B9
350
5B
  3
C0
350
5C
  3
C1
350
5D
  3
C2
350
5E
  3
C3
350
5F
  3
C4
350
60
  3
C5
350
61
  3
C6
350
62
  3
C7
350
63
  3
C8
350
64
  3
C9
350
65
  3
D0
350
66
  3
D1
350
67
  3
D2
350
68
  0
DICTIONARY
  5
2A
102
{ACAD_REACTORS
330
C
102
}
330
C
100
AcDbDictionary
  3
2DWIREFRAME
350
2F
  3
BASIC
350
32
  3
BRIGHTEN
350
36
  3
COLORCHANGE
350
3A
  3
CONCEPTUAL
350
34
  3
DIM
350
35
  3
EDGECOLOROFF
350
3D
  3
FACEPATTERN
350
39
  3
FLAT
350
2B
  3
FLATWITHEDGES
350
2C
  3
GOURAUD
350
2D
  3
GOURAUDWITHEDGES
350
2E
  3
HIDDEN
350
31
  3
JITTEROFF
350
3B
  3
LINEPATTERN
350
38
  3
OVERHANGOFF
350
3C
  3
REALISTIC
350
33
  3
SHADED
350
42
  3
SHADED_WITH_EDGES
350
41
  3
SHADES_OF_GRAY
350
3E
  3
SKETCHY
350
3F
  3
THICKEN
350
37
  3
WIREFRAME
350
30
  3
X-RAY
350
40
  0
DICTIONARY
  5
2EB
102
{ACAD_REACTORS
330
C
102
}
330
C
100
AcDbDictionary
  3
CEPSNID
350
2F5
  3
CEPSNTYPE
350
2F4
  3
DIMSTYLEDATA
350
30B
  3
FINGERPRINTGUID
350
2F6
  3
HYPERLINKBASE
350
2EE
  3
INSUNITS
350
2F3
  3
LAYOUTDICT
350
2F0
  3
LWETCUNION
350
2F2
  3
PLOTSETDICT
350
2F1
  3
PSVPSCALE
350
2F8
  3
PUCSBASE
350
2FB
  3
PUCSORGBACK
350
301
  3
PUCSORGBOTTOM
350
2FD
  3
PUCSORGFRONT
350
300
  3
PUCSORGLEFT
350
2FE
  3
PUCSORGRIGHT
350
2FF
  3
PUCSORGTOP
350
2FC
  3
PUCSORTHOREF
350
2F9
  3
PUCSORTHOVIEW
350
2FA
  3
STYLESHEET
350
2EF
  3
TSTACKALIGN
350
2EC
  3
TSTACKSIZE
350
2ED
  3
UCSBASE
350
304
  3
UCSORGBACK
350
30A
  3
UCSORGBOTTOM
350
306
  3
UCSORGFRONT
350
309
  3
UCSORGLEFT
350
307
  3
UCSORGRIGHT
350
308
  3
UCSORGTOP
350
305
  3
UCSORTHOREF
350
302
  3
UCSORTHOVIEW
350
303
  3
VERSIONGUID
350
2F7
  0
DICTIONARY
  5
30C
102
{ACAD_REACTORS
330
C
102
}
330
C
100
AcDbDictionary
  3
CANNOSCALE
350
315
  3
CMLEADERSTYLE
350
30E
  3
CTABLESTYLE
350
30D
  3
DIMASSOC
350
311
  3
HIDETEXT
350
312
  3
MSLTSCALE
350
316
  0
XRECORD
  5
314
102
{ACAD_REACTORS
330
313
102
}
330
313
100
AcDbXrecord
102
VTR_0.000_0.000_1.000_1.000_VISUALSTYLE
340
2F
102
VTR_0.000_0.000_1.000_1.000_GRIDDISPLAY
 70
     3
102
VTR_0.000_0.000_1.000_1.000_GRIDMAJOR
 70
     5
102
VTR_0.000_0.000_1.000_1.000_DEFAULTLIGHTING
280
     1
102
VTR_0.000_0.000_1.000_1.000_DEFAULTLIGHTINGTYPE
 70
     1
102
VTR_0.000_0.000_1.000_1.000_BRIGHTNESS
141
0.0
102
VTR_0.000_0.000_1.000_1.000_CONTRAST
142
0.0
  0
MATERIAL
  5
45
102
{ACAD_REACTORS
330
43
102
}
102
{ACAD_XDICTIONARY
360
319
102
}
330
43
100
AcDbMaterial
  1
BYBLOCK
  0
MATERIAL
  5
44
102
{ACAD_REACTORS
330
43
102
}
102
{ACAD_XDICTIONARY
360
317
102
}
330
43
100
AcDbMaterial
  1
BYLAYER
  0
MATERIAL
  5
46
102
{ACAD_REACTORS
330
43
102
}
102
{ACAD_XDICTIONARY
360
31B
102
}
330
43
100
AcDbMaterial
  1
GLOBAL
  0
ACAD_PROXY_OBJECT
  5
6C
102
{ACAD_REACTORS
330
6B
102
}
330
6B
100
AcDbProxyObject
 90
      499
 91
      505
 93
      610
310
40901902A4063FBFFFFFE056BD1B81E855B9FC0AD7A3703D0AD73F4214DD185B99185C9900AD7A3703D0AC73F90141901A02B5E8DC0F42B1CFC02B5E8DC0F42B1CFE5764000000000000300FC0
340
14
340
0
340
11
340
0
 94
        0
1001
ACAD_MLEADERVER
1070
     2
  0
MLINESTYLE
  5
18
102
{ACAD_REACTORS
330
17
102
}
330
17
100
AcDbMlineStyle
  2
Standard
 70
     0
  3

 62
   256
 51
90.0
 52
90.0
 71
     2
 49
0.5
 62
   256
  6
BYLAYER
 49
-0.5
 62
   256
  6
BYLAYER
  0
ACAD_PROXY_OBJECT
  5
48
102
{ACAD_REACTORS
330
47
102
}
330
47
100
AcDbProxyObject
 90
      499
 91
      503
 93
       41
310
903313A31580
  0
ACAD_PROXY_OBJECT
  5
49
102
{ACAD_REACTORS
330
47
102
}
330
47
100
AcDbProxyObject
 90
      499
 91
      503
 93
      105
310
903313A324000000000000004000
  0
ACAD_PROXY_OBJECT
  5
4A
102
{ACAD_REACTORS
330
47
102
}
330
47
100
AcDbProxyObject
 90
      499
 91
      503
 93
      105
310
903313A344000000000000104000
  0
ACAD_PROXY_OBJECT
  5
4B
102
{ACAD_REACTORS
330
47
102
}
330
47
100
AcDbProxyObject
 90
      499
 91
      503
 93
      105
310
903313A354000000000000144000
  0
ACAD_PROXY_OBJECT
  5
4C
102
{ACAD_REACTORS
330
47
102
}
330
47
100
AcDbProxyObject
 90
      499
 91
      503
 93
      105
310
903313A384000000000000204000
  0
ACAD_PROXY_OBJECT
  5
4D
102
{ACAD_REACTORS
330
47
102
}
330
47
100
AcDbProxyObject
 90
      499
 91
      503
 93
      113
310
904313A31304000000000000244000
  0
ACAD_PROXY_OBJECT
  5
4E
102
{ACAD_REACTORS
330
47
102
}
330
47
100
AcDbProxyObject
 90
      499
 91
      503
 93
      113
310
904313A31364000000000000304000
  0
ACAD_PROXY_OBJECT
  5
4F
102
{ACAD_REACTORS
330
47
102
}
330
47
100
AcDbProxyObject
 90
      499
 91
      503
 93
      113
310
904313A32304000000000000344000
  0
ACAD_PROXY_OBJECT
  5
50
102
{ACAD_REACTORS
330
47
102
}
330
47
100
AcDbProxyObject
 90
      499
 91
      503
 93
      113
310
904313A333040000000000003E4000
  0
ACAD_PROXY_OBJECT
  5
51
102
{ACAD_REACTORS
330
47
102
}
330
47
100
AcDbProxyObject
 90
      499
 91
      503
 93
      113
310
904313A34304000000000000444000
  0
ACAD_PROXY_OBJECT
  5
52
102
{ACAD_REACTORS
330
47
102
}
330
47
100
AcDbProxyObject
 90
      499
 91
      503
 93
      113
310
904313A35304000000000000494000
  0
ACAD_PROXY_OBJECT
  5
53
102
{ACAD_REACTORS
330
47
102
}
330
47
100
AcDbProxyObject
 90
      499
 91
      503
 93
      121
310
905313A3130304000000000000594000
  0
ACAD_PROXY_OBJECT
  5
54
102
{ACAD_REACTORS
330
47
102
}
330
47
100
AcDbProxyObject
 90
      499
 91
      503
 93
      105
310
903323A310000000000000010100
  0
ACAD_PROXY_OBJECT
  5
55
102
{ACAD_REACTORS
330
47
102
}
330
47
100
AcDbProxyObject
 90
      499
 91
      503
 93
      105
310
903343A310000000000000410100
  0
ACAD_PROXY_OBJECT
  5
56
102
{ACAD_REACTORS
330
47
102
}
330
47
100
AcDbProxyObject
 90
      499
 91
      503
 93
      105
310
903383A310000000000000810100
  0
ACAD_PROXY_OBJECT
  5
57
102
{ACAD_REACTORS
330
47
102
}
330
47
100
AcDbProxyObject
 90
      499
 91
      503
 93
      113
310
90431303A310000000000000910100
  0
ACAD_PROXY_OBJECT
  5
58
102
{ACAD_REACTORS
330
47
102
}
330
47
100
AcDbProxyObject
 90
      499
 91
      503
 93
      121
310
9053130303A310000000000001650100
  0
ACAD_PROXY_OBJECT
  5
59
102
{ACAD_REACTORS
330
47
102
}
330
47
100
AcDbProxyObject
 90
      499
 91
      503
 93
      257
310
90E312F31323822203D2031272D3022000000000000200FC000000000000284000
  0
ACAD_PROXY_OBJECT
  5
5A
102
{ACAD_REACTORS
330
47
102
}
330
47
100
AcDbProxyObject
 90
      499
 91
      503
 93
      249
310
90D312F363422203D2031272D3022000000000000240FC000000000000284000
  0
ACAD_PROXY_OBJECT
  5
5B
102
{ACAD_REACTORS
330
47
102
}
330
47
100
AcDbProxyObject
 90
      499
 91
      503
 93
      249
310
90D312F333222203D2031272D3022000000000000280FC000000000000284000
  0
ACAD_PROXY_OBJECT
  5
5C
102
{ACAD_REACTORS
330
47
102
}
330
47
100
AcDbProxyObject
 90
      499
 91
      503
 93
      249
310
90D312F313622203D2031272D30220000000000002C0FC000000000000284000
  0
ACAD_PROXY_OBJECT
  5
5D
102
{ACAD_REACTORS
330
47
102
}
330
47
100
AcDbProxyObject
 90
      499
 91
      503
 93
      249
310
90D332F333222203D2031272D30220000000000002E0FC000000000000284000
  0
ACAD_PROXY_OBJECT
  5
5E
102
{ACAD_REACTORS
330
47
102
}
330
47
100
AcDbProxyObject
 90
      499
 91
      503
 93
      241
310
90C312F3822203D2031272D3022000000000000300FC000000000000284000
  0
ACAD_PROXY_OBJECT
  5
5F
102
{ACAD_REACTORS
330
47
102
}
330
47
100
AcDbProxyObject
 90
      499
 91
      503
 93
      249
310
90D332F313622203D2031272D3022000000000000320FC000000000000284000
  0
ACAD_PROXY_OBJECT
  5
60
102
{ACAD_REACTORS
330
47
102
}
330
47
100
AcDbProxyObject
 90
      499
 91
      503
 93
      241
310
90C312F3422203D2031272D3022000000000000340FC000000000000284000
  0
ACAD_PROXY_OBJECT
  5
61
102
{ACAD_REACTORS
330
47
102
}
330
47
100
AcDbProxyObject
 90
      499
 91
      503
 93
      241
310
90C332F3822203D2031272D3022000000000000360FC000000000000284000
  0
ACAD_PROXY_OBJECT
  5
62
102
{ACAD_REACTORS
330
47
102
}
330
47
100
AcDbProxyObject
 90
      499
 91
      503
 93
      241
310
90C312F3222203D2031272D3022000000000000380FC000000000000284000
  0
ACAD_PROXY_OBJECT
  5
63
102
{ACAD_REACTORS
330
47
102
}
330
47
100
AcDbProxyObject
 90
      499
 91
      503
 93
      241
310
90C332F3422203D2031272D30220000000000003A0FC000000000000284000
  0
ACAD_PROXY_OBJECT
  5
64
102
{ACAD_REACTORS
330
47
102
}
330
47
100
AcDbProxyObject
 90
      499
 91
      503
 93
      161
310
90A3122203D2031272D30224000000000000284000
  0
ACAD_PROXY_OBJECT
  5
65
102
{ACAD_REACTORS
330
47
102
}
330
47
100
AcDbProxyObject
 90
      499
 91
      503
 93
      257
310
90E312D312F3222203D2031272D30220000000000003E0FC000000000000284000
  0
ACAD_PROXY_OBJECT
  5
66
102
{ACAD_REACTORS
330
47
102
}
330
47
100
AcDbProxyObject
 90
      499
 91
      503
 93
      225
310
90A3322203D2031272D302200000000000002100000000000000284000
  0
ACAD_PROXY_OBJECT
  5
67
102
{ACAD_REACTORS
330
47
102
}
330
47
100
AcDbProxyObject
 90
      499
 91
      503
 93
      225
310
90A3622203D2031272D302200000000000006100000000000000284000
  0
ACAD_PROXY_OBJECT
  5
68
102
{ACAD_REACTORS
330
47
102
}
330
47
100
AcDbProxyObject
 90
      499
 91
      503
 93
      249
310
90D31272D3022203D2031272D30220000000000000A100000000000000284000
  0
ACAD_PROXY_OBJECT
  5
2F
102
{ACAD_REACTORS
330
2A
102
}
330
2A
100
AcDbProxyObject
 90
      499
 91
      501
 93
      436
310
42CC9915DA5C99599C985B595049028333333333333E33F0000000000000F90107901411070040501600405405064090741402480A0340
1001
ACAD
1000
AcDbSavedByObjectVersion
1070
     0
  0
ACAD_PROXY_OBJECT
  5
32
102
{ACAD_REACTORS
330
2A
102
}
330
2A
100
AcDbProxyObject
 90
      499
 91
      501
 93
      388
310
4150985CDA58D07406404333333333333E33F0000000000000F90107A41107004050150841D405064090741402480A0350
1001
ACAD
1000
AcDbSavedByObjectVersion
1070
     0
  0
ACAD_PROXY_OBJECT
  5
36
102
{ACAD_REACTORS
330
2A
102
}
330
2A
100
AcDbProxyObject
 90
      499
 91
      501
 93
      428
310
42109C9A59DA1D195B90C409028333333333333E33F0000000000000F9010790141107004050150841D405064090741402480A029950
1001
ACAD
1000
AcDbSavedByObjectVersion
1070
     0
  0
ACAD_PROXY_OBJECT
  5
3A
102
{ACAD_REACTORS
330
2A
102
}
330
2A
100
AcDbProxyObject
 90
      499
 91
      501
 93
      452
310
42D0DBDB1BDC90DA185B99D95104090240C333333333333E33F0000000000000F90108901411070040501508421405064090741402480A0350
1001
ACAD
1000
AcDbSavedByObjectVersion
1070
     0
  0
ACAD_PROXY_OBJECT
  5
34
102
{ACAD_REACTORS
330
2A
102
}
330
2A
100
AcDbProxyObject
 90
      499
 91
      501
 93
      500
310
4290DBDB98D95C1D1D585B10940D028333333333333E33F0000000000000F90107902409070040501000000000018199010841D405064090740C02480A0340
1001
ACAD
1000
AcDbSavedByObjectVersion
1070
     0
  0
ACAD_PROXY_OBJECT
  5
35
102
{ACAD_REACTORS
330
2A
102
}
330
2A
100
AcDbProxyObject
 90
      499
 91
      501
 93
      412
310
40D11A5B50B409028333333333333E33F0000000000000F9010790141107004050150841D405064090741402480A02677FFFFFD0
1001
ACAD
1000
AcDbSavedByObjectVersion
1070
     0
  0
ACAD_PROXY_OBJECT
  5
3D
102
{ACAD_REACTORS
330
2A
102
}
330
2A
100
AcDbProxyObject
 90
      499
 91
      501
 93
      452
310
43115919D950DBDB1BDC93D999916409028333333333333E33F0000000000000F9010790141107004050150841D405064090741402480A0350
1001
ACAD
1000
AcDbSavedByObjectVersion
1070
     0
  0
ACAD_PROXY_OBJECT
  5
39
102
{ACAD_REACTORS
330
2A
102
}
330
2A
100
AcDbProxyObject
 90
      499
 91
      501
 93
      444
310
42D19858D95C185D1D195C9B90F409028333333333333E33F0000000000000F9010790141107004050150841D405064090741402480A0350
1001
ACAD
1000
AcDbSavedByObjectVersion
1070
     0
  0
ACAD_PROXY_OBJECT
  5
2B
102
{ACAD_REACTORS
330
2A
102
}
330
2A
100
AcDbProxyObject
 90
      499
 91
      501
 93
      380
310
41119B185D240901404333333333333E33F0000000000000F9010740A907004050150841D405064090741402480A1B50
1001
ACAD
1000
AcDbSavedByObjectVersion
1070
     0
  0
ACAD_PROXY_OBJECT
  5
2C
102
{ACAD_REACTORS
330
2A
102
}
330
2A
100
AcDbProxyObject
 90
      499
 91
      501
 93
      468
310
43519B185D15DA5D1A115919D95CD0140901404333333333333E33F0000000000000F90107409019070040501600405405064090741402480A1B50
1001
ACAD
1000
AcDbSavedByObjectVersion
1070
     0
  0
ACAD_PROXY_OBJECT
  5
2D
102
{ACAD_REACTORS
330
2A
102
}
330
2A
100
AcDbProxyObject
 90
      499
 91
      501
 93
      404
310
41D1DBDD5C985D5910240902404333333333333E33F0000000000000F9010740A9070040501641D405064090741402480A1B50
1001
ACAD
1000
AcDbSavedByObjectVersion
1070
     0
  0
ACAD_PROXY_OBJECT
  5
2E
102
{ACAD_REACTORS
330
2A
102
}
330
2A
100
AcDbProxyObject
 90
      499
 91
      501
 93
      492
310
4411DBDD5C985D5915DA5D1A115919D95CD0340902404333333333333E33F0000000000000F90107409019070040501600405405064090741402480A1B50
1001
ACAD
1000
AcDbSavedByObjectVersion
1070
     0
  0
ACAD_PROXY_OBJECT
  5
31
102
{ACAD_REACTORS
330
2A
102
}
330
2A
100
AcDbProxyObject
 90
      499
 91
      501
 93
      476
310
41921A5919195B90640502408333333333333E33F0000000000000F901079024090700405020000000000001110200405405064090740C02480A0340
1001
ACAD
1000
AcDbSavedByObjectVersion
1070
     0
  0
ACAD_PROXY_OBJECT
  5
3B
102
{ACAD_REACTORS
330
2A
102
}
330
2A
100
AcDbProxyObject
 90
      499
 91
      501
 93
      428
310
42529A5D1D195C93D999914409028333333333333E33F0000000000000F9010790141107004050150A41D405064090741402480A0350
1001
ACAD
1000
AcDbSavedByObjectVersion
1070
     0
  0
ACAD_PROXY_OBJECT
  5
38
102
{ACAD_REACTORS
330
2A
102
}
330
2A
100
AcDbProxyObject
 90
      499
 91
      501
 93
      444
310
42D31A5B995C185D1D195C9B90E409028333333333333E33F0000000000000F9010790141107004050750841D405064090741402483A0350
1001
ACAD
1000
AcDbSavedByObjectVersion
1070
     0
  0
ACAD_PROXY_OBJECT
  5
3C
102
{ACAD_REACTORS
330
2A
102
}
330
2A
100
AcDbProxyObject
 90
      499
 91
      501
 93
      444
310
42D3DD995C9A185B99D3D999915409028333333333333E33F0000000000000F9010790141107004050150941D405064090741402480A0350
1001
ACAD
1000
AcDbSavedByObjectVersion
1070
     0
  0
ACAD_PROXY_OBJECT
  5
33
102
{ACAD_REACTORS
330
2A
102
}
330
2A
100
AcDbProxyObject
 90
      499
 91
      501
 93
      428
310
425499585B1A5CDD1A58D08409038333333333333E33F0000000000000F9010740A907004050150800405405064090740C02480A1B40
1001
ACAD
1000
AcDbSavedByObjectVersion
1070
     0
  0
ACAD_PROXY_OBJECT
  5
42
102
{ACAD_REACTORS
330
2A
102
}
330
2A
100
AcDbProxyObject
 90
      499
 91
      501
 93
      420
310
4194DA1859195911B40902404333333333333E33F0000000000000F9010740A41107004050150800405405064090840C02480A0B40
1001
ACAD
1000
AcDbSavedByObjectVersion
1070
     0
  0
ACAD_PROXY_OBJECT
  5
41
102
{ACAD_REACTORS
330
2A
102
}
330
2A
100
AcDbProxyObject
 90
      499
 91
      501
 93
      516
310
4454DA18591959081DDA5D1A08195919D95CD1A40902404333333333333E33F0000000000000F901074090142907004050250800405405064090740C02480A0B40
1001
ACAD
1000
AcDbSavedByObjectVersion
1070
     0
  0
ACAD_PROXY_OBJECT
  5
3E
102
{ACAD_REACTORS
330
2A
102
}
330
2A
100
AcDbProxyObject
 90
      499
 91
      501
 93
      532
310
4394DA1859195CC81BD98811DC985E5174090240C333333333333E33F0000000000000F901079024090741D01000000000000111010841D405064090740C02480A0340
1001
ACAD
1000
AcDbSavedByObjectVersion
1070
     0
  0
ACAD_PROXY_OBJECT
  5
3F
102
{ACAD_REACTORS
330
2A
102
}
330
2A
100
AcDbProxyObject
 90
      499
 91
      501
 93
      476
310
41D4DAD95D18DA1E51840502408333333333333E33F0000000000000F901079024090741D01000000000000111010B41D405064090741802480A0340
1001
ACAD
1000
AcDbSavedByObjectVersion
1070
     0
  0
ACAD_PROXY_OBJECT
  5
37
102
{ACAD_REACTORS
330
2A
102
}
330
2A
100
AcDbProxyObject
 90
      499
 91
      501
 93
      412
310
41D51A1A58DAD95B90D409028333333333333E33F0000000000000F9010790141107004050150C41D405064090741402480A0350
1001
ACAD
1000
AcDbSavedByObjectVersion
1070
     0
  0
ACAD_PROXY_OBJECT
  5
30
102
{ACAD_REACTORS
330
2A
102
}
330
2A
100
AcDbProxyObject
 90
      499
 91
      501
 93
      420
310
4255DA5C99599C985B595059028333333333333E33F0000000000000F90107901411070040501600405405064090740C02480A0340
1001
ACAD
1000
AcDbSavedByObjectVersion
1070
     0
  0
ACAD_PROXY_OBJECT
  5
40
102
{ACAD_REACTORS
330
2A
102
}
330
2A
100
AcDbProxyObject
 90
      499
 91
      501
 93
      404
310
41560B54985E51940902404000000000000E03F0000000000000F9010740501907004050150841D405064090740C02480A1B40
1001
ACAD
1000
AcDbSavedByObjectVersion
1070
     0
  0
XRECORD
  5
2F5
102
{ACAD_REACTORS
330
2EB
102
}
330
2EB
100
AcDbXrecord
340
0
  0
XRECORD
  5
2F4
102
{ACAD_REACTORS
330
2EB
102
}
330
2EB
100
AcDbXrecord
 90
        0
  0
XRECORD
  5
30B
102
{ACAD_REACTORS
330
2EB
102
}
330
2EB
100
AcDbXrecord
1000
DSTYLE
1002
{
1070
   171
 70
     2
1070
   143
 40
25.4
1070
   274
 70
     2
1070
    41
 40
0.18
1070
   141
 40
0.09
1070
   271
 70
     4
1070
    43
 40
0.38
1070
   278
 70
    46
1070
    44
 40
0.18
1070
    42
 40
0.0625
1070
   147
 40
0.09
1070
    77
 70
     0
1070
   272
 70
     4
1070
    73
 70
     1
1070
   172
 70
     0
1070
    74
 70
     1
1070
   283
 70
     1
1070
   340
340
11
1070
   140
 40
0.18
1070
   284
 70
     0
1070
    78
 70
     0
1002
}
  0
XRECORD
  5
2F6
102
{ACAD_REACTORS
330
2EB
102
}
330
2EB
100
AcDbXrecord
  1
{C289C38F-0955-4D23-8A17-FF5702D20B65}
  0
XRECORD
  5
2EE
102
{ACAD_REACTORS
330
2EB
102
}
330
2EB
100
AcDbXrecord
  1

  0
XRECORD
  5
2F3
102
{ACAD_REACTORS
330
2EB
102
}
330
2EB
100
AcDbXrecord
 90
        4
  0
XRECORD
  5
2F0
102
{ACAD_REACTORS
330
2EB
102
}
330
2EB
100
AcDbXrecord
340
1A
  0
XRECORD
  5
2F2
102
{ACAD_REACTORS
330
2EB
102
}
330
2EB
100
AcDbXrecord
 90
    10781
  0
XRECORD
  5
2F1
102
{ACAD_REACTORS
330
2EB
102
}
330
2EB
100
AcDbXrecord
340
19
  0
XRECORD
  5
2F8
102
{ACAD_REACTORS
330
2EB
102
}
330
2EB
100
AcDbXrecord
 40
0.0
  0
XRECORD
  5
2FB
102
{ACAD_REACTORS
330
2EB
102
}
330
2EB
100
AcDbXrecord
340
0
  0
XRECORD
  5
301
102
{ACAD_REACTORS
330
2EB
102
}
330
2EB
100
AcDbXrecord
 10
0.0
 20
0.0
 30
0.0
  0
XRECORD
  5
2FD
102
{ACAD_REACTORS
330
2EB
102
}
330
2EB
100
AcDbXrecord
 10
0.0
 20
0.0
 30
0.0
  0
XRECORD
  5
300
102
{ACAD_REACTORS
330
2EB
102
}
330
2EB
100
AcDbXrecord
 10
0.0
 20
0.0
 30
0.0
  0
XRECORD
  5
2FE
102
{ACAD_REACTORS
330
2EB
102
}
330
2EB
100
AcDbXrecord
 10
0.0
 20
0.0
 30
0.0
  0
XRECORD
  5
2FF
102
{ACAD_REACTORS
330
2EB
102
}
330
2EB
100
AcDbXrecord
 10
0.0
 20
0.0
 30
0.0
  0
XRECORD
  5
2FC
102
{ACAD_REACTORS
330
2EB
102
}
330
2EB
100
AcDbXrecord
 10
0.0
 20
0.0
 30
0.0
  0
XRECORD
  5
2F9
102
{ACAD_REACTORS
330
2EB
102
}
330
2EB
100
AcDbXrecord
340
0
  0
XRECORD
  5
2FA
102
{ACAD_REACTORS
330
2EB
102
}
330
2EB
100
AcDbXrecord
 70
     0
  0
XRECORD
  5
2EF
102
{ACAD_REACTORS
330
2EB
102
}
330
2EB
100
AcDbXrecord
  1

  0
XRECORD
  5
2EC
102
{ACAD_REACTORS
330
2EB
102
}
330
2EB
100
AcDbXrecord
 90
        1
  0
XRECORD
  5
2ED
102
{ACAD_REACTORS
330
2EB
102
}
330
2EB
100
AcDbXrecord
 90
       70
  0
XRECORD
  5
304
102
{ACAD_REACTORS
330
2EB
102
}
330
2EB
100
AcDbXrecord
340
0
  0
XRECORD
  5
30A
102
{ACAD_REACTORS
330
2EB
102
}
330
2EB
100
AcDbXrecord
 10
0.0
 20
0.0
 30
0.0
  0
XRECORD
  5
306
102
{ACAD_REACTORS
330
2EB
102
}
330
2EB
100
AcDbXrecord
 10
0.0
 20
0.0
 30
0.0
  0
XRECORD
  5
309
102
{ACAD_REACTORS
330
2EB
102
}
330
2EB
100
AcDbXrecord
 10
0.0
 20
0.0
 30
0.0
  0
XRECORD
  5
307
102
{ACAD_REACTORS
330
2EB
102
}
330
2EB
100
AcDbXrecord
 10
0.0
 20
0.0
 30
0.0
  0
XRECORD
  5
308
102
{ACAD_REACTORS
330
2EB
102
}
330
2EB
100
AcDbXrecord
 10
0.0
 20
0.0
 30
0.0
  0
XRECORD
  5
305
102
{ACAD_REACTORS
330
2EB
102
}
330
2EB
100
AcDbXrecord
 10
0.0
 20
0.0
 30
0.0
  0
XRECORD
  5
302
102
{ACAD_REACTORS
330
2EB
102
}
330
2EB
100
AcDbXrecord
340
0
  0
XRECORD
  5
303
102
{ACAD_REACTORS
330
2EB
102
}
330
2EB
100
AcDbXrecord
 70
     0
  0
XRECORD
  5
2F7
102
{ACAD_REACTORS
330
2EB
102
}
330
2EB
100
AcDbXrecord
  1
{FAEB1C32-E019-11D5-929B-00C0DF256EC4}
  0
DICTIONARYVAR
  5
315
102
{ACAD_REACTORS
330
30C
102
}
330
30C
100
DictionaryVariables
280
     0
  1
1:1
  0
DICTIONARYVAR
  5
30E
102
{ACAD_REACTORS
330
30C
102
}
330
30C
100
DictionaryVariables
280
     0
  1
Standard
  0
DICTIONARYVAR
  5
30D
102
{ACAD_REACTORS
330
30C
102
}
330
30C
100
DictionaryVariables
280
     0
  1
Standard
  0
DICTIONARYVAR
  5
311
102
{ACAD_REACTORS
330
30C
102
}
330
30C
100
DictionaryVariables
280
     0
  1
2
  0
DICTIONARYVAR
  5
312
102
{ACAD_REACTORS
330
30C
102
}
330
30C
100
DictionaryVariables
280
     0
  1
1
  0
DICTIONARYVAR
  5
316
102
{ACAD_REACTORS
330
30C
102
}
330
30C
100
DictionaryVariables
280
     0
  1
1
  0
DICTIONARY
  5
319
330
45
100
AcDbDictionary
280
     1
  3
ACAD_XREC_ROUNDTRIP
360
31A
  0
DICTIONARY
  5
317
330
44
100
AcDbDictionary
280
     1
  3
ACAD_XREC_ROUNDTRIP
360
318
  0
DICTIONARY
  5
31B
330
46
100
AcDbDictionary
280
     1
  3
ACAD_XREC_ROUNDTRIP
360
31C
  0
XRECORD
  5
31A
102
{ACAD_REACTORS
330
319
102
}
330
319
100
AcDbXrecord
102
MATERIAL
148
0.0
149
0.0
149
0.0
 93
        0
 94
      127
282
     0
 72
     1
 77
     1
171
     1
175
     1
179
     1
273
     0
  0
XRECORD
  5
318
102
{ACAD_REACTORS
330
317
102
}
330
317
100
AcDbXrecord
102
MATERIAL
148
0.0
149
0.0
149
0.0
 93
        0
 94
      127
282
     0
 72
     1
 77
     1
171
     1
175
     1
179
     1
273
     0
  0
XRECORD
  5
31C
102
{ACAD_REACTORS
330
31B
102
}
330
31B
100
AcDbXrecord
102
MATERIAL
148
0.0
149
0.0
149
0.0
 93
        0
 94
      127
282
     0
 72
     1
 77
     1
171
     1
175
     1
179
     1
273
     0
  0
ENDSEC
  0
EOF
